<svg width="214" height="129" viewBox="0 0 214 129" fill="none" xmlns="http://www.w3.org/2000/svg"><path fill-rule="evenodd" clip-rule="evenodd" d="m3.086 128.621.383-.924c.47.195.987.303 1.531.303h2.55v1H5a4.994 4.994 0 0 1-1.914-.379ZM206.45 129v-1H209c.544 0 1.061-.108 1.531-.303l.383.924A4.995 4.995 0 0 1 209 129h-2.55ZM214 7.48h-1V5a3.98 3.98 0 0 0-.303-1.53l.924-.384c.244.59.379 1.236.379 1.914v2.48ZM7.55 0H5c-.678 0-1.324.135-1.914.38l.383.923A3.99 3.99 0 0 1 5 1h2.55V0ZM0 121.521h1V124c0 .544.108 1.061.303 1.531l-.924.383A4.987 4.987 0 0 1 0 124v-2.479Zm0-4.959h1v-4.958H0v4.958Zm0-9.916h1v-4.958H0v4.958Zm0-9.917h1v-4.958H0v4.958Zm0-9.916h1v-4.959H0v4.959Zm0-9.917h1v-4.959H0v4.959Zm0-9.917h1v-4.958H0v4.958Zm0-9.916h1v-4.959H0v4.959Zm0-9.917h1v-4.959H0v4.959Zm0-9.917h1v-4.958H0v4.958Zm0-9.916h1v-4.959H0v4.959Zm0-9.917h1v-4.959H0v4.959Zm0-9.917h1V5c0-.544.108-1.06.303-1.53L.38 3.085A4.985 4.985 0 0 0 0 5v2.48ZM12.65 0v1h5.1V0h-5.1Zm10.2 0v1h5.1V0h-5.1Zm10.2 0v1h5.1V0h-5.1Zm10.2 0v1h5.1V0h-5.1Zm10.2 0v1h5.1V0h-5.1Zm10.2 0v1h5.1V0h-5.1Zm10.2 0v1h5.1V0h-5.1Zm10.2 0v1h5.1V0h-5.1Zm10.2 0v1h5.1V0h-5.1Zm10.2 0v1h5.1V0h-5.1Zm10.2 0v1h5.1V0h-5.1Zm10.2 0v1h5.1V0h-5.1Zm10.2 0v1h5.1V0h-5.1Zm10.2 0v1h5.1V0h-5.1Zm10.2 0v1h5.1V0h-5.1Zm10.2 0v1h5.1V0h-5.1Zm10.2 0v1h5.1V0h-5.1Zm10.2 0v1h5.1V0h-5.1Zm10.2 0v1h5.1V0h-5.1Zm10.2 0v1H209c.544 0 1.061.108 1.531.303l.383-.924A4.987 4.987 0 0 0 209 0h-2.55ZM214 12.438h-1v4.958h1v-4.959Zm0 9.916h-1v4.959h1v-4.959Zm0 9.917h-1v4.958h1v-4.958Zm0 9.916h-1v4.959h1v-4.959Zm0 9.917h-1v4.959h1v-4.959Zm0 9.917h-1v4.958h1v-4.958Zm0 9.916h-1v4.959h1v-4.959Zm0 9.917h-1v4.959h1v-4.959Zm0 9.917h-1v4.958h1v-4.958Zm0 9.917h-1v4.958h1v-4.958Zm0 9.916h-1v4.959h1v-4.959Zm0 9.917h-1V124c0 .544-.108 1.061-.303 1.531l.924.383c.244-.59.379-1.236.379-1.914v-2.479ZM201.35 129v-1h-5.1v1h5.1Zm-10.2 0v-1h-5.1v1h5.1Zm-10.2 0v-1h-5.1v1h5.1Zm-10.2 0v-1h-5.1v1h5.1Zm-10.2 0v-1h-5.1v1h5.1Zm-10.2 0v-1h-5.1v1h5.1Zm-10.2 0v-1h-5.1v1h5.1Zm-10.2 0v-1h-5.1v1h5.1Zm-10.2 0v-1h-5.1v1h5.1Zm-10.2 0v-1h-5.1v1h5.1Zm-10.2 0v-1h-5.1v1h5.1Zm-10.2 0v-1h-5.1v1h5.1Zm-10.2 0v-1h-5.1v1h5.1Zm-10.2 0v-1h-5.1v1h5.1Zm-10.2 0v-1h-5.1v1h5.1Zm-10.2 0v-1h-5.1v1h5.1Zm-10.2 0v-1h-5.1v1h5.1Zm-10.2 0v-1h-5.1v1h5.1Zm-10.2 0v-1h-5.1v1h5.1Z" fill="#3C3C3D"/></svg>