<svg width="43" height="41" fill="none" xmlns="http://www.w3.org/2000/svg"><path fill-rule="evenodd" clip-rule="evenodd" d="M21.35.017c-5.921.036-6.562.05-6.79.148-.526.226-.697.506-.823 1.346-.112.75-.24 1.183-.519 1.75-.589 1.2-1.425 2.032-2.701 2.689-.509.261-.668.415-.848.82-.155.348-.163.712-.036 1.577a25.2 25.2 0 0 0 2.115 7.094c1.934 4.108 4.852 7.207 8.65 9.184 1.23.64 1.216.64 2.408-.02 2.76-1.528 4.98-3.54 6.737-6.103 2.012-2.935 3.41-6.759 3.876-10.596.06-.493.06-.71.001-.977-.103-.471-.472-.891-.993-1.13-1.123-.513-2.157-1.515-2.7-2.616-.222-.452-.455-1.196-.51-1.628C29.091.55 28.787.13 28.11.015c-.122-.02-3.163-.02-6.759.002Zm6.595 1.599c.18 1.382.873 2.822 1.85 3.841.543.567 1.008.916 1.779 1.338l.61.334-.017.416c-.02.546-.283 2.063-.526 3.046-1.444 5.848-4.774 10.382-9.48 12.909l-.59.317-.821-.452c-3.91-2.147-6.793-5.532-8.514-9.996-.698-1.81-1.267-4.11-1.413-5.703l-.039-.432.44-.22a7.017 7.017 0 0 0 3.368-3.725c.149-.383.352-1.19.408-1.62l.04-.305 1.308-.019c.718-.01 3.613-.025 6.43-.033l5.125-.015.042.319Zm-7.795.839c-3.38.03-3.713.043-3.9.147-.264.147-.365.31-.59.95-.559 1.595-1.617 2.985-2.959 3.886-.496.333-.637.545-.637.958 0 .563.392 2.325.559 2.517.172.196.435.306.625.26.236-.058.336-.148.437-.393.075-.184.065-.287-.097-.965a17.87 17.87 0 0 1-.22-1.017l-.037-.258.443-.322c.622-.452 1.604-1.501 2.064-2.204a9.678 9.678 0 0 0 .97-1.917l.13-.353 3.058-.016c1.683-.008 3.73-.015 4.549-.016h1.489l.175.458c.634 1.66 1.84 3.182 3.34 4.21.14.095.14.101.049.579-.05.265-.136.67-.19.901-.146.627-.13.815.086 1.035.24.245.55.255.816.026.198-.17.305-.525.545-1.801.203-1.082.12-1.32-.64-1.842-1.297-.892-2.468-2.421-2.926-3.82-.328-1-.468-1.068-2.18-1.05l-4.96.047Zm4.98 5.314c-.108.06-.845 1.133-2.077 3.024-1.05 1.611-1.937 2.93-1.973 2.93-.035 0-.337-.268-.67-.596-1.582-1.554-1.551-1.529-1.83-1.529-.354 0-.574.203-.623.575l-.038.286 1.29 1.28c.708.704 1.399 1.366 1.535 1.47.287.22.645.252.849.075.071-.062 1.098-1.602 2.28-3.424 1.527-2.35 2.151-3.363 2.151-3.49 0-.277-.124-.49-.35-.6-.25-.12-.328-.12-.544 0Zm3.598 4.895c-.129.07-.309.382-.735 1.269-1.431 2.977-3.19 5.042-5.752 6.751l-.656.438-.291-.17c-1.322-.769-2.875-2.084-3.847-3.255-1.184-1.429-1.902-2.607-2.825-4.637-.153-.337-.416-.47-.736-.371a.619.619 0 0 0-.456.608c0 .11.162.543.357.961 1.593 3.401 3.75 5.866 6.742 7.706 1.05.647 1.162.632 2.635-.362 2.111-1.425 3.881-3.34 5.231-5.663.618-1.063 1.23-2.427 1.23-2.739a.597.597 0 0 0-.393-.567c-.247-.087-.296-.084-.504.03ZM1 20.315c-.434.158-.82.572-.938 1.003-.04.144-.062 3.361-.062 8.758v8.531l.148.322c.17.375.496.69.84.814.347.125 6.006.128 6.35.003.292-.105.683-.487.836-.815.064-.137.131-.434.149-.66.027-.345.049-.404.134-.37 1.874.762 7.741 2.973 8.06 3.039.552.113 1.142.075 2.875-.182.712-.106 1.494-.22 1.737-.253.243-.033 1.423-.206 2.621-.384 1.199-.179 3.274-.484 4.612-.678 1.337-.195 2.658-.414 2.936-.487.965-.253 1.855-.707 2.512-1.282.951-.831 8.443-7.73 8.594-7.915.772-.94.796-2.327.059-3.32-.648-.872-1.929-1.262-2.926-.89-.221.083-1.924 1.201-4.575 3.006l-4.223 2.873h-.478c-.263 0-.67-.019-.904-.042-.397-.038-.427-.051-.427-.195 0-.315-.205-1.153-.375-1.53-.464-1.034-1.404-1.851-2.449-2.129-.2-.053-2.354-.27-4.787-.482-3.336-.292-4.539-.419-4.896-.519-.483-.134-1.82-.783-3.632-1.763-1.43-.772-2.622-1.155-4.02-1.291l-.42-.04-.027-1.01c-.02-.782-.052-1.072-.14-1.285-.14-.336-.574-.738-.908-.84-.37-.114-5.96-.101-6.276.013Zm6.009 1.323c.041.08.065.977.065 2.474v2.35l.163.197c.133.16.212.198.415.198.562 0 .685-.245.685-1.359v-.783l.465.043c.596.055 1.607.305 2.234.552.27.106.904.43 1.407.718 1.345.77 2.825 1.503 3.423 1.697.475.153.97.209 5.184.58l4.659.41.441.207a2.65 2.65 0 0 1 1.24 1.248c.167.374.327 1.1.257 1.171-.023.024-2.735.211-6.026.416l-5.984.373-.286-.129c-.158-.07-.39-.23-.515-.355-.16-.16-.306-.238-.487-.263-.226-.03-.28-.011-.45.161-.727.742.721 1.954 2.207 1.847.261-.02 1.47-.091 2.686-.16 1.216-.07 2.637-.156 3.158-.192a503.59 503.59 0 0 1 2.495-.162c.851-.053 1.974-.13 2.495-.17.64-.05 1.378-.056 2.274-.019.73.03 1.455.053 1.611.051.268-.003.53-.171 4.548-2.922 2.785-1.906 4.383-2.96 4.605-3.04 1.108-.393 2.141.766 1.655 1.857-.092.206-1.043 1.112-4.426 4.217-2.37 2.174-4.455 4.05-4.635 4.17-.445.294-.906.509-1.413.656-.699.204-13.683 2.075-14.146 2.039-.312-.025-1.21-.347-4.533-1.628l-4.143-1.597V32.8c0-3.937-.007-4.035-.306-4.198a.987.987 0 0 0-.379-.07c-.203 0-.282.038-.415.198l-.163.198v4.72c0 3.909-.015 4.732-.086 4.792-.062.052-.873.068-2.89.056l-2.804-.017-.016-8.395c-.012-6.15.003-8.418.055-8.482.058-.071.586-.088 2.84-.088 2.674 0 2.772.005 2.836.125Zm-3.54 11.29a2.349 2.349 0 0 0-1.46 1.26c-.118.246-.144.406-.145.91-.001.53.02.66.167.979.316.687.91 1.141 1.684 1.288.722.137 1.606-.22 2.066-.834.353-.471.489-.926.456-1.53-.032-.597-.18-.968-.562-1.411-.502-.581-1.475-.873-2.206-.661Zm1.04 1.35c.462.27.611.855.342 1.343-.145.263-.534.507-.81.507-.472 0-.947-.505-.947-1.007 0-.517.452-.986.948-.986.121 0 .332.064.467.143Z" fill="#fff"/></svg>