<svg width="59" height="49" fill="none" xmlns="http://www.w3.org/2000/svg"><path fill-rule="evenodd" clip-rule="evenodd" d="M20.953 38.197c0-.297.503-1.033.626-1.357.061-.162.068-.23.138-.38.547-1.166.333-.936 1.132-.936.28 0 .258.273.654.984.46.827.765 1.49.647 2.472l-.092.773-.08.425-.016.055-.413 3.061c-.067.574-.157.42-.254 1.384-.06.582-.071 1.041-.187 1.538h-.69c-.327-.683-.432-2.683-.702-3.523-.021-.065-.009.036-.059-.2l-.421-2.497c-.133-.61-.284-1.107-.284-1.8ZM21.54 0h1.813c.433.027.856.072 1.26.133.335.05.593.063.889.146 1.808.51 2.182.931 3.105 2.155.385.51 2.103.076 2.788 2.472.023.08.08.268.126.39.1.265.043.019.135.383.081.325.16 1.475.16 1.909 0 1.423-.078 1.783-.33 2.946-.032.15-.061.44-.075.528-.048.298-.106.818-.198 1.01.446.235.635.568.802 1.008l.238.624c.211.802.182 2.726-.058 3.488l-.59 1.047c-.36.41-.865.65-1.34.902 0 .567-.09 1.045-.256 1.556l-.106.41a1.64 1.64 0 0 1-.223.468c-.117.183-.19.27-.31.465-.207.335-.715.735-.772 1l.07 1.226c.06.256.046.379.044.653-.005.637.133.727.173 1.206.368.031.453.148.733.302.26.142.426.221.705.33.3.116.491.125.768.267.41.21 1.084.318 1.51.472.932.334 1.657.358 2.333.6.13.046.116.073.38.136.18.043.254.041.445.073l2.415.516c.225.041.55.121.837.199l1.427.555c.22.126.325.22.59.358.905.47 1.894 1.827 2.171 2.83l.242.707c.114.28.124.532.192.844l.232.74.017.053c.06.19-.005-.047.062.182l.28 1.192c.094.38.177.371.264.771.058.268.11.57.154.795l.38 1.602c.16.957.318 2.552-.05 3.512-.295.772-.707 1.048-1.412 1.347l-10.823 2.667c-1.355.278-2.812.308-4.248.541-1.247.203-2.194.093-3.375.247-.498.065-.946.15-1.575.15-.809 0-5.684-.178-6.493-.319l-4.706-.649c-.786-.195-1.703-.254-2.508-.454l-.098-.021-.211-.06-.064-.018c-.543-.134-1.064-.195-1.605-.304-.231-.046-.144-.038-.373-.09l-.92-.25c-.262-.05-.513-.102-.775-.172l-2.803-.819a13.1 13.1 0 0 0-.741-.207l-.698-.25c-.2-.099-.399-.15-.574-.289a2.51 2.51 0 0 1-.761-1.05A3.762 3.762 0 0 1 0 42.111v-1.077c.032-.533.103-1.049.172-1.459.107-.64.254-.949.382-1.6.058-.298.097-.577.183-.853l.5-1.833c.234-.803.628-2.42 1.073-3.232.14-.257.18-.458.349-.686a6.31 6.31 0 0 1 2.14-1.827c.566-.3 1.672-.631 2.282-.735l4.092-.909c.297-.066.464-.1.778-.17.46-.102.365-.167.76-.275 1.103-.3.805-.27 1.483-.5.295-.1.467-.118.725-.223.474-.193.85-.563 1.377-.607.04-.48.178-.57.174-1.206l.099-1.93-1.109-1.46-.408-1.057c-.132-.39-.135-.843-.135-1.33l-.848-.446c-.312-.184-.05-.035-.309-.295-.566-.57-.912-1.271-.912-2.105 0-1.376-.276-3.486 1.12-4.225-.108-.227-.149-.75-.199-1.094-.024-.169-.032-.286-.058-.545-.05-.501-.039-.19-.125-.479-.092-.31-.135-1.842-.135-2.28 0-1.309.353-3.11 1.203-4.142.194-.237.022-.086.276-.242.085-.053.037-.008.165-.093 1.716-1.132.751.16 1.827-1.364.174-.247.454-.415.686-.606C18.17.763 19.03.438 19.75.263A10.558 10.558 0 0 1 21.54 0Zm1.482 33.455c-.76 0-1.158.09-1.75-.58-.395-.448-.515-1.291-.296-1.898.218-.606.937-1.144 1.701-1.144l.65.212c.3.1.317.185.473.39.31.407.515.628.515 1.209 0 1.176-.975 1.81-1.293 1.81Zm2.931-3.104.758-.536c.23-.202.477-.392.72-.574l.748-.545c.28-.163.519-.308.706-.587.454.105 2.255.885 3.285 1.112.228.05.163.02.345.086.261.094.08.053.299.132.633.23 1.333.256 1.858.384l.385.133c.548.186 1.52.237 2.156.436 1.692.527 1.337.08 3.093 1.212.499.322.32.188.808.917.287.43.302.608.464 1.041l1.37 4.972c.047.242.088.475.163.698.237.703.804 3.26-.201 3.677-.62.257-2.121.6-2.674.775l-1.687.47a2.96 2.96 0 0 0-.537.152c-.233.09.08 0-.253.092l-1.512.299c-.093.02-.201.032-.293.052l-.27.074c-.928.313-5.667 1.032-6.625 1.135-.4.043-.898.07-1.331.135-.438.065-.855.02-1.294.086-.452.069-.957.036-1.429.036l.09-.77.012-.076c.092-.472.118-.202.236-1.23l.44-3.005c.046-.364.079-.683.133-1.078l.296-2.377-1.552-3.017c1.076-.721 1.834-2.393 1.482-3.685l-.189-.627Zm-5.432 4.31c-.32.479-.348.67-.63 1.181-.126.23-.206.41-.324.624-.312.566-.687 1.415-.562 2.053l.564 2.87c.09.539.172 1.092.262 1.637l.332 1.564c.055.396.153 1.377.272 1.625-1.115 0-3.468-.08-4.62-.294-.287-.053-.351-.098-.645-.131-1.145-.129-1.995-.149-3.075-.46L5.13 43.759c-.372-.157-1.085-.252-1.681-.475-1.721-.643-1.973-.12-1.558-3.282l.267-1.138c.129-.476.222-1.182.386-1.572l.198-.664c.066-.289.127-.493.19-.759l.187-.675c.283-.67.117-.743.416-1.456l.036-.089c.266-.669.622-1.633 1.196-1.98 2.14-1.299.8-.539 3.084-1.237.49-.15.914-.195 1.498-.304.256-.047.479-.078.711-.15 1.079-.336 1.237-.237 2.175-.499l2.016-.657c.632-.235.652-.106 1.343-.467.219-.115.446-.186.702-.246.117.174.108.166.292.312l2.64 1.93c-.149.31-.245.765-.258 1.115-.037.973-.004.702.202 1.355.193.611.162.57.522 1.03.238.303.53.611.827.81ZM18.28 24.316c.658.176 1.229 1.353 3.024 1.717l.98.228c.351.118-.076.124.307.124l1.214-.337c.98-.201.537-.122 1.202-.437 1.132-.536 1.283-1.132 1.895-1.295.098.423.085 1 .145 1.407.09.604.175.788.286 1.266-.291.078-.108.032-.327.19l-2.174 1.62c-.327-.219-1.388-.776-1.638-.776h-1.207l-.887.32c-.117.054-.122.065-.169.09-.063.034-.16.085-.224.121-.179.103-.187.131-.358.245-.017-.012-.048-.046-.055-.03-.011.021-.058-.03-.106-.067-.118-.088-.01-.002-.14-.119l-1.824-1.366c-.233-.165-.043-.14-.376-.228.112-.478.197-.662.286-1.266.06-.406.047-.984.146-1.407Zm10.777-11.21c0 .44.395.863.949.863.362 0 .604-.449.604.949 0 1.055-.178 1.777-.604 2.414h-1.293c-.369.55-.44.472-.436 1.203.005.703.043.925-.127 1.51-.148.51-.326.664-.605 1.034l-1.772 1.504c-1.143.77-1.862 2.32-4.348 1.519-.65-.21-.955-.623-1.605-1.154l-.833-.633c-.98-.858-1.873-1.372-2.082-2.747-.124-.82-.178-.093-.178-.684 0-.396.173.079.173-.69 0-.2-.016-.077-.165-.44-.214-.522-.517-.422-1.56-.422-.955-1.427-.544-2.233-.517-3.45.333.08.753.193 1.151-.141.461-.388.283-.92.213-1.222l-.59-3.375c-.054-.514-.17-.191-.17-.52 0-2.045-.087-1.102.279-2.74l.487-.978c.139-.155.08-.085.191-.154.022-.013.09-.047.113-.06.017-.009.04-.02.056-.03.681-.362 1.335-.085 1.623-.705.407-.875-.012-.913 1.296-1.635 1.02-.564 5.167-.655 6.61.042.585.283.918.556 1.115 1.214.09.298.05.38.214.562.265.294.61.286 1.11.357.986.14 1.175.86 1.395 1.45l.048.124c.292.766.246 2.188.106 2.968-.07.391-.095.088-.16.616-.04.32-.053.423-.108.755-.065.386-.146.954-.284 1.354-.164.475-.296.788-.296 1.343Z" fill="#fff"/><path fill-rule="evenodd" clip-rule="evenodd" d="m35.093 5.777.085 2.846c.026.693.213.816.26 1.379 1.95-.163 1.312-1.268 1.376-4.143.014-.638.129-1.117.78-1.117 4.09 0 3.882-.364 3.88 1.638-.004 2.95-.315 3.177 1.103 3.553 1.763.467 2.547 1.17 3.248 1.415.324.114.537.101.818-.053.493-.27.85-.756 1.19-1.142.265-.3 1.626-1.703 1.918-1.703.64 0 3.018 2.566 3.018 2.931 0 .823-2.932 2.726-2.932 3.45 0 .866.09.618.461 1.349 2.01 3.957.03 3.565 4.023 3.565 2.51 0 2.155-.493 2.155 3.966 0 1.512-4.318.036-4.97 1.065-.172.27-.237.762-.344 1.122-.127.431-.245.74-.412 1.14-1 2.395-1.647 1.76.488 3.894 1.955 1.955 2.039 1.627.259 3.406-2.454 2.454-1.727.95-2.78.668.302.632.193 2.328.69 2.328 1.854 0 1.784-.276 3.297-1.789 1.104-1.104 1.79-1.514 1.79-3.04 0-.89-.712-1.447-1.187-1.917-.3-.297-.43-.523-.732-.82-.19-.189-.742-.663-.84-.797.09-.338-.01.002.127-.304.315-.71.977-1.85.993-2.542 1.36 0 3.03.35 4.244-.412.492-.307 1.102-.988 1.102-1.743v-3.794c0-.94-.884-1.746-1.626-1.996-1.04-.35-2.42-.16-3.72-.16-.011-.502-.562-1.702-.804-2.214-.14-.3-.29-.396-.317-.717.3-.08.974-.81 1.228-1.1l.77-.782c1.655-1.971.377-3.202-1.028-4.607-1.33-1.33-1.383-1.789-3.384-1.789-1.052 0-2.461 2.127-3.277 2.673-.582-.308-2.213-1.068-2.845-1.12 0-1.31.362-2.85-.37-4.2-.288-.527-1.015-1.146-1.786-1.146H37.25c-1.295 0-2.156 1.398-2.156 2.759Z" fill="#3D5F95"/><path fill-rule="evenodd" clip-rule="evenodd" d="M36.041 14.658c.013.577.26.766.26 1.81.48-.111 1.834-.861 3.312-.642 2.231.332 3.68.97 4.983 3.125 1.008 1.668 1.1 4.074.213 5.854-.67 1.343-.846 1.168-1.352 1.924.24.36 1.028.76 1.465.862.202-.134.715-.814.859-1.039 2.473-3.876 1.533-8.666-2.104-11.08-1.818-1.207-3.956-1.712-6.236-1.225-.494.105-.918.299-1.4.41Z" fill="#3D5F95"/></svg>