<svg width="37" height="46" fill="none" xmlns="http://www.w3.org/2000/svg"><path fill-rule="evenodd" clip-rule="evenodd" d="M15.48.016c0 .01-.071.015-.183.015-.113 0-.184.007-.184.016 0 .009-.035.016-.077.016-.042 0-.077.007-.077.016 0 .008-.034.015-.076.015-.042 0-.077.008-.077.016 0 .009-.02.016-.046.016-.025 0-.046.007-.046.016 0 .008-.02.015-.046.015-.025 0-.046.008-.046.016 0 .009-.014.016-.03.016-.017 0-.031.007-.031.016 0 .008-.02.015-.046.015-.025 0-.046.007-.046.016 0 .009-.014.016-.03.016-.018 0-.031.007-.031.016 0 .008-.014.015-.031.015s-.03.007-.03.016c0 .009-.014.016-.031.016s-.031.007-.031.016c0 .008-.014.015-.03.015-.018 0-.031.007-.031.016 0 .009-.014.016-.031.016s-.03.007-.03.016c0 .008-.013.015-.028.015-.015 0-.037.014-.05.032-.011.017-.032.031-.045.031-.013 0-.034.014-.046.032-.012.017-.032.031-.043.031-.012 0-.04.022-.065.047-.023.026-.05.048-.06.048-.01 0-.045.028-.077.063a.254.254 0 0 1-.076.063c-.022 0-.4.388-.4.41 0 .01-.034.051-.076.093a.356.356 0 0 0-.077.095c0 .01-.02.039-.046.063-.025.024-.046.052-.046.063 0 .01-.02.039-.046.063-.025.024-.046.054-.046.066 0 .012-.014.032-.03.044-.017.012-.031.034-.031.047 0 .014-.014.035-.03.047-.018.013-.031.034-.031.048 0 .013-.014.034-.031.047-.017.012-.03.035-.03.05 0 .016-.008.029-.016.029s-.015.012-.015.028c0 .015-.014.038-.031.05-.017.013-.03.036-.03.051s-.008.028-.016.028-.015.014-.015.032c0 .017-.007.031-.016.031-.008 0-.015.013-.015.028 0 .015-.014.038-.03.05-.018.013-.031.036-.031.051 0 .016-.007.028-.016.028-.008 0-.015.015-.015.032s-.007.031-.015.031c-.009 0-.016.015-.016.032s-.007.031-.015.031-.015.015-.015.032-.007.031-.016.031c-.008 0-.015.014-.015.032 0 .017-.007.031-.015.031-.009 0-.016.014-.016.032 0 .017-.007.031-.015.031s-.015.014-.015.032c0 .017-.007.031-.015.031-.009 0-.016.014-.016.032 0 .017-.007.031-.015.031-.009 0-.016.014-.016.032 0 .017-.006.031-.015.031-.008 0-.015.014-.015.032 0 .017-.007.031-.016.031-.008 0-.015.021-.015.047s-.007.048-.015.048c-.009 0-.015.014-.015.031s-.007.032-.016.032c-.008 0-.015.014-.015.031s-.007.032-.015.032c-.009 0-.016.02-.016.047 0 .026-.007.047-.015.047s-.016.014-.016.031c0 .018-.006.032-.015.032-.008 0-.015.014-.015.031 0 .018-.007.032-.015.032-.009 0-.016.021-.016.047s-.007.047-.015.047-.015.015-.015.032-.007.031-.016.031c-.008 0-.015.022-.015.048 0 .026-.007.047-.015.047-.009 0-.016.014-.016.031 0 .018-.007.032-.015.032s-.015.021-.015.047-.007.047-.016.047c-.008 0-.015.014-.015.032 0 .017-.007.031-.015.031-.009 0-.016.021-.016.047s-.007.048-.015.048c-.009 0-.015.014-.015.031s-.007.032-.016.032c-.008 0-.015.02-.015.047 0 .026-.007.047-.015.047-.009 0-.016.021-.016.047s-.007.048-.015.048-.015.02-.015.047c0 .026-.007.047-.016.047-.008 0-.015.014-.015.032 0 .017-.007.031-.015.031-.009 0-.016.021-.016.047s-.007.047-.015.047-.015.022-.015.048c0 .026-.007.047-.016.047-.008 0-.015.021-.015.047s-.007.047-.015.047c-.009 0-.016.022-.016.048 0 .026-.006.047-.015.047-.008 0-.015.021-.015.047s-.007.047-.016.047c-.008 0-.015.022-.015.048 0 .025-.007.047-.015.047-.009 0-.016.021-.016.047s-.006.047-.015.047c-.008 0-.015.021-.015.047s-.007.048-.015.048c-.009 0-.016.02-.016.047 0 .026-.007.047-.015.047-.009 0-.016.021-.016.047s-.006.048-.015.048c-.008 0-.015.02-.015.047 0 .026-.007.047-.015.047-.009 0-.016.021-.016.047s-.007.047-.015.047c-.009 0-.015.022-.015.048 0 .026-.007.047-.016.047-.008 0-.015.021-.015.047s-.007.047-.015.047c-.009 0-.016.029-.016.063 0 .035-.007.063-.015.063-.009 0-.015.022-.015.048 0 .026-.007.047-.016.047-.008 0-.015.021-.015.047s-.007.047-.015.047c-.009 0-.016.021-.016.047s-.007.048-.015.048c-.009 0-.015.028-.015.063 0 .034-.007.063-.016.063-.008 0-.015.02-.015.047 0 .026-.007.047-.015.047-.009 0-.016.021-.016.047s-.007.048-.015.048-.015.02-.015.047c0 .026-.007.047-.016.047-.008 0-.015.028-.015.063s-.007.063-.015.063c-.009 0-.016.021-.016.047s-.007.047-.015.047-.015.022-.015.048c0 .026-.007.047-.016.047-.008 0-.015.021-.015.047s-.007.047-.015.047c-.009 0-.016.029-.016.063 0 .035-.006.063-.015.063-.008 0-.015.021-.015.047s-.007.048-.016.048c-.008 0-.015.021-.015.047s-.007.047-.015.047c-.009 0-.016.021-.016.047s-.006.048-.015.048c-.008 0-.015.02-.015.047 0 .026-.007.047-.016.047-.008 0-.015.028-.015.063s-.007.063-.015.063c-.009 0-.016.021-.016.047s-.007.047-.015.047-.015.022-.015.048c0 .026-.007.047-.015.047-.009 0-.016.011-.016.025 0 .044-.041.07-.114.07-.038 0-.07.006-.07.015s-.027.016-.061.016-.061.007-.061.016c0 .008-.035.015-.077.015-.042 0-.077.007-.077.016 0 .009-.027.016-.061.016s-.061.007-.061.016c0 .008-.028.015-.062.015-.033 0-.06.007-.06.016 0 .009-.028.016-.062.016s-.062.007-.062.016c0 .008-.027.015-.06.015-.035 0-.062.007-.062.016 0 .009-.028.016-.061.016-.034 0-.062.007-.062.016 0 .008-.02.015-.046.015-.025 0-.046.007-.046.016 0 .009-.027.016-.061.016s-.061.007-.061.015c0 .01-.021.016-.046.016-.026 0-.046.007-.046.016 0 .009-.028.016-.062.016-.033 0-.06.007-.06.015 0 .01-.022.016-.047.016s-.046.007-.046.016c0 .009-.028.016-.061.016-.034 0-.062.007-.062.015 0 .01-.02.016-.046.016-.025 0-.045.007-.045.016 0 .009-.021.016-.046.016-.026 0-.046.007-.046.015 0 .01-.021.016-.046.016-.026 0-.046.007-.046.016 0 .009-.021.016-.046.016-.026 0-.046.007-.046.015 0 .009-.021.016-.046.016-.026 0-.046.007-.046.016 0 .008-.021.016-.046.016-.026 0-.046.007-.046.015 0 .009-.021.016-.046.016-.026 0-.046.007-.046.016 0 .009-.021.016-.046.016-.026 0-.046.007-.046.015 0 .009-.014.016-.03.016-.018 0-.032.007-.032.016 0 .008-.02.016-.046.016-.025 0-.045.007-.045.015 0 .009-.014.016-.031.016s-.03.007-.03.016c0 .008-.022.016-.047.016s-.046.007-.046.015c0 .009-.014.016-.03.016-.017 0-.031.007-.031.016 0 .008-.02.015-.046.015-.025 0-.046.008-.046.016 0 .009-.014.016-.03.016-.018 0-.031.007-.031.016 0 .008-.014.015-.031.015s-.03.008-.03.016c0 .009-.021.016-.047.016-.025 0-.046.007-.046.016 0 .008-.013.015-.03.015s-.031.008-.031.016c0 .009-.014.016-.03.016-.017 0-.031.007-.031.016 0 .008-.014.015-.03.015-.018 0-.032.007-.032.016 0 .009-.013.016-.03.016s-.03.007-.03.016c0 .008-.015.015-.032.015-.016 0-.03.007-.03.016 0 .009-.014.016-.03.016-.018 0-.032.007-.032.016 0 .008-.013.015-.03.015s-.03.007-.03.016c0 .009-.015.016-.031.016-.017 0-.031.007-.031.016 0 .008-.014.015-.03.015-.018 0-.031.007-.031.016 0 .009-.014.016-.031.016s-.03.007-.03.016c0 .008-.015.015-.031.015-.017 0-.031.007-.031.016 0 .009-.012.016-.027.016s-.038.014-.05.031c-.012.018-.034.032-.05.032-.014 0-.026.007-.026.015 0 .01-.014.016-.031.016s-.03.007-.03.016c0 .009-.014.016-.031.016s-.03.007-.03.015c0 .01-.013.016-.028.016-.015 0-.037.014-.05.032-.012.017-.032.031-.046.031-.013 0-.033.014-.046.032-.012.017-.034.031-.049.031s-.027.007-.027.016c0 .009-.012.016-.027.016s-.038.014-.05.031c-.012.017-.033.032-.046.032-.013 0-.034.014-.046.031-.012.017-.031.032-.043.032-.012 0-.04.02-.064.047-.024.026-.053.047-.064.047-.012 0-.031.014-.043.031-.013.018-.032.032-.043.032a.323.323 0 0 0-.095.079.366.366 0 0 1-.091.078c-.022 0-.277.262-.277.285 0 .01-.028.044-.061.077-.034.034-.062.07-.062.082 0 .012-.014.032-.03.044-.017.013-.031.036-.031.051s-.007.028-.015.028c-.009 0-.016.014-.016.032 0 .017-.007.031-.015.031s-.015.014-.015.032c0 .017-.007.031-.016.031-.008 0-.015.021-.015.047s-.007.047-.015.047c-.009 0-.016.022-.016.048 0 .026-.007.047-.015.047-.01 0-.015.11-.015.3 0 .188.005.298.015.298.008 0 .015.029.015.063 0 .035.007.063.016.063.008 0 .015.014.015.032 0 .017.007.031.015.031.009 0 .016.021.016.047s.007.048.015.048.015.012.015.028c0 .015.014.038.03.05.018.013.032.034.032.048 0 .013.013.034.03.047.017.012.03.032.03.044 0 .011.028.048.062.082a.253.253 0 0 1 .062.078c0 .023.07.095.092.095.01 0 .05.035.091.079a.322.322 0 0 0 .096.078c.011 0 .03.014.042.032.013.017.033.031.046.031.013 0 .034.014.046.032.013.017.033.031.046.031.013 0 .034.014.046.032.012.017.035.031.05.031s.027.007.027.016c0 .009.014.016.03.016.017 0 .031.007.031.015 0 .01.014.016.03.016.018 0 .032.007.032.016 0 .009.013.016.03.016s.03.007.03.015c0 .009.015.016.032.016.016 0 .03.007.03.016 0 .009.014.016.03.016.018 0 .031.007.031.015 0 .01.021.016.046.016.026 0 .046.007.046.016 0 .008.014.016.031.016s.03.007.03.015c0 .009.021.016.047.016.025 0 .046.007.046.016 0 .008.014.016.03.016.017 0 .031.007.031.015 0 .009.02.016.046.016.025 0 .046.007.046.016 0 .008.02.015.046.015.025 0 .046.008.046.016 0 .009.02.016.046.016.025 0 .046.007.046.016 0 .008.02.016.046.016.025 0 .046.007.046.015 0 .009.02.016.046.016.025 0 .046.007.046.016 0 .008.027.015.061.015s.061.008.061.016c0 .009.021.016.046.016.026 0 .046.007.046.016 0 .008.028.015.062.015.033 0 .061.008.061.016 0 .009.02.016.046.016.025 0 .046.007.046.016 0 .008.028.015.061.015.034 0 .062.008.062.016 0 .009.027.016.06.016.035 0 .062.007.062.016 0 .008.028.015.062.015.033 0 .06.007.06.016 0 .009.035.016.077.016.043 0 .077.007.077.016 0 .008.028.015.061.015.034 0 .062.008.062.016 0 .009.034.016.076.016.043 0 .077.007.077.016 0 .008.035.015.077.015.042 0 .076.007.076.016 0 .009.035.016.077.016.042 0 .077.007.077.015 0 .01.034.016.076.016.042 0 .077.007.077.016 0 .009.04.016.092.016.05 0 .092.007.092.016 0 .008.04.015.092.015.05 0 .092.007.092.016 0 .009.04.016.092.016.05 0 .092.007.092.016 0 .008.04.015.092.015.05 0 .092.007.092.016 0 .009.046.016.107.016s.107.006.107.015c0 .01.028.016.061.016.052 0 .062.005.062.032 0 .017.007.031.015.031.009 0 .015.029.015.063 0 .035.007.063.016.063.008 0 .015.021.015.047s.007.048.015.048c.009 0 .016.02.016.047 0 .026.007.047.015.047s.015.028.015.063.007.063.016.063c.008 0 .015.021.015.047s.007.047.015.047c.009 0 .016.022.016.048 0 .026.007.047.015.047s.015.021.015.047.007.047.016.047c.008 0 .015.022.015.048 0 .026.007.047.015.047.009 0 .016.021.016.047s.006.047.015.047c.008 0 .015.021.015.047s.007.048.016.048c.008 0 .015.021.015.047s.007.047.015.047c.009 0 .016.021.016.047s.006.048.015.048c.008 0 .015.02.015.047 0 .026.007.047.016.047.008 0 .015.021.015.047s.007.047.015.047c.009 0 .016.015.016.032s.007.032.015.032.015.02.015.047c0 .026.007.047.015.047.009 0 .016.021.016.047s.007.047.015.047c.009 0 .015.015.015.032s.007.031.016.031c.008 0 .015.022.015.048 0 .026.007.047.016.047.008 0 .015.014.015.031 0 .018.007.032.015.032.009 0 .015.021.015.047s.007.047.016.047c.008 0 .015.014.015.032 0 .017.007.031.015.031.009 0 .016.021.016.047s.007.048.015.048c.009 0 .016.014.016.031 0 .018.006.032.015.032.008 0 .015.02.015.047 0 .026.007.047.015.047.009 0 .016.014.016.032 0 .017.007.031.015.031s.015.014.015.031c0 .018.007.032.016.032.008 0 .015.021.015.047s.007.048.015.048c.009 0 .016.014.016.031s.007.032.015.032.015.014.015.03c0 .018.007.032.016.032.008 0 .015.015.015.032s.007.031.015.031c.009 0 .016.015.016.032s.007.031.015.031.015.015.015.032.007.031.016.031c.008 0 .015.014.015.032 0 .017.007.031.015.031.009 0 .016.022.016.048 0 .026.007.047.015.047s.015.014.015.031c0 .018.007.032.016.032.008 0 .015.014.015.031 0 .018.007.032.015.032.009 0 .016.012.016.028 0 .015.014.038.03.05.017.013.03.036.03.051s.008.028.016.028c.009 0 .016.014.016.032 0 .017.006.031.015.031.008 0 .015.014.015.032 0 .017.007.031.016.031.008 0 .015.014.015.032 0 .017.007.031.015.031.009 0 .016.014.016.032 0 .031-.01.031-4.737.031-3.147 0-4.736.005-4.736.016 0 .008-.04.016-.092.016-.05 0-.092.007-.092.015 0 .009-.034.016-.076.016-.042 0-.077.007-.077.016 0 .008-.02.015-.046.015-.025 0-.046.008-.046.016 0 .009-.02.016-.046.016-.025 0-.046.007-.046.016 0 .008-.014.016-.03.016-.017 0-.031.007-.031.015 0 .009-.02.016-.046.016-.025 0-.046.007-.046.016 0 .008-.014.015-.03.015-.018 0-.031.008-.031.016 0 .009-.013.016-.028.016-.015 0-.037.014-.049.031-.012.018-.033.032-.046.032-.013 0-.034.014-.046.031-.012.018-.032.032-.043.032-.012 0-.04.021-.064.047s-.051.047-.06.047a.743.743 0 0 0-.186.19c0 .01-.027.045-.06.078-.035.033-.062.07-.062.082 0 .012-.014.031-.03.044-.018.012-.031.035-.031.05 0 .016-.007.029-.016.029-.008 0-.015.014-.015.031s-.007.032-.015.032c-.009 0-.016.014-.016.031s-.007.032-.015.032c-.009 0-.015.014-.015.031s-.007.032-.016.032c-.008 0-.015.014-.015.031s-.007.031-.015.031c-.009 0-.016.022-.016.048 0 .026-.007.047-.015.047s-.015.021-.015.047-.007.047-.016.047c-.008 0-.015.022-.015.048 0 .026-.007.047-.015.047-.009 0-.016.035-.016.079 0 .043-.007.078-.015.078-.01 0-.015.069-.015.174 0 .104-.006.173-.016.173S0 22.334 0 28.998C0 35.662.005 39.01.015 39.01c.01 0 .016.069.016.173 0 .105.006.174.015.174.008 0 .015.035.015.078 0 .044.007.079.016.079.008 0 .015.028.015.063s.007.063.015.063c.009 0 .016.021.016.047s.007.047.015.047.015.015.015.032.007.031.016.031c.008 0 .015.022.015.048 0 .026.007.047.015.047.009 0 .016.014.016.031 0 .018.006.032.015.032.008 0 .015.013.015.028 0 .015.014.038.03.05.018.013.032.034.032.048 0 .013.013.034.03.047.017.013.03.034.03.047 0 .014.015.035.032.047.016.013.03.032.03.044 0 .024.253.287.277.287.01 0 .037.021.06.047.024.026.053.047.064.047.012 0 .032.015.044.032.012.017.034.032.049.032s.027.007.027.015c0 .009.014.016.03.016.018 0 .032.007.032.016 0 .008.013.015.03.015s.03.008.03.016c0 .009.015.016.032.016.016 0 .03.007.03.016 0 .008.014.015.03.015.018 0 .032.008.032.016 0 .009.02.016.046.016.025 0 .045.007.045.016 0 .008.021.015.046.015.026 0 .046.007.046.016 0 .009.035.016.077.016.042 0 .077.007.077.016 0 .008.04.015.092.015.05 0 .092.007.092.016 0 .01 2.018.016 6.023.016h6.024v.094c0 .053-.007.095-.015.095-.01 0-.016.073-.016.189 0 .115-.006.189-.015.189-.01 0-.015.073-.015.188 0 .116-.006.19-.016.19s-.015.073-.015.188c0 .116-.006.19-.015.19s-.016.041-.016.094c0 .052-.007.094-.015.094s-.015.021-.015.047-.007.048-.016.048c-.008 0-.015.02-.015.047 0 .026-.007.047-.015.047-.009 0-.016.021-.016.047s-.007.047-.015.047c-.009 0-.015.015-.015.032s-.007.032-.016.032c-.008 0-.015.012-.015.028 0 .015-.014.038-.03.05-.018.013-.031.035-.031.05 0 .016-.007.029-.016.029-.008 0-.015.011-.015.025 0 .014-.02.045-.046.07-.025.024-.046.051-.046.06 0 .026-.348.38-.372.38-.01 0-.03.014-.042.032-.012.017-.033.031-.046.031-.013 0-.034.014-.046.032-.012.017-.033.031-.046.031-.013 0-.034.014-.046.032-.012.017-.034.031-.05.031-.014 0-.026.007-.026.016 0 .008-.014.016-.031.016s-.03.007-.03.015c0 .009-.014.016-.031.016s-.031.007-.031.016c0 .008-.02.016-.046.016-.025 0-.046.007-.046.015 0 .009-.014.016-.03.016-.018 0-.031.007-.031.016 0 .008-.021.016-.046.016-.025 0-.046.007-.046.015 0 .009-.028.016-.062.016-.033 0-.06.007-.06.016 0 .008-.035.015-.077.015-.043 0-.077.008-.077.016 0 .01-.24.016-.69.016-.45 0-.69.005-.69.016 0 .008-.034.015-.076.015-.042 0-.077.008-.077.016 0 .009-.02.016-.046.016-.025 0-.046.007-.046.016 0 .008-.014.015-.03.015-.017 0-.031.008-.031.016 0 .009-.014.016-.03.016-.018 0-.031.007-.031.016 0 .008-.014.015-.031.015s-.03.007-.03.016c0 .009-.011.016-.024.016-.028 0-.222.196-.222.224 0 .012-.014.031-.03.043-.017.013-.031.036-.031.051 0 .016-.007.028-.016.028-.008 0-.015.014-.015.032 0 .017-.007.031-.015.031-.009 0-.016.014-.016.032 0 .017-.006.031-.015.031-.008 0-.015.021-.015.047s-.007.048-.016.048c-.01 0-.015.094-.015.251 0 .158.006.252.015.252s.016.022.016.048c0 .026.007.047.015.047.009 0 .015.014.015.031 0 .018.007.032.016.032.008 0 .015.014.015.031 0 .018.007.032.015.032.009 0 .016.014.016.031s.007.032.015.032c.009 0 .015.01.015.024 0 .029.222.26.25.26.01 0 .03.013.042.03.012.018.034.032.049.032s.027.007.027.016c0 .008.014.016.03.016.018 0 .032.007.032.015 0 .009.02.016.046.016.025 0 .045.007.045.016 0 .008.035.015.077.015.042 0 .077.008.077.016 0 .01 2.651.016 7.924.016 5.273 0 7.924-.005 7.924-.016 0-.008.035-.016.077-.016.042 0 .076-.007.076-.015 0-.009.021-.016.046-.016.026 0 .046-.007.046-.016 0-.008.014-.015.031-.015s.03-.008.03-.016c0-.009.013-.016.028-.016.015 0 .037-.014.05-.031.012-.018.03-.032.041-.032.028 0 .28-.262.28-.29 0-.014.007-.025.015-.025.009 0 .016-.014.016-.031 0-.018.007-.032.015-.032.009 0 .016-.014.016-.031s.006-.032.015-.032c.008 0 .015-.02.015-.047 0-.026.007-.047.016-.047.008 0 .015-.036.015-.079 0-.043.007-.079.015-.079.01 0 .015-.052.015-.126 0-.073-.006-.125-.015-.125-.008 0-.015-.036-.015-.08 0-.042-.007-.078-.015-.078-.009 0-.016-.021-.016-.047s-.007-.047-.015-.047c-.009 0-.015-.015-.015-.032s-.007-.031-.016-.031c-.008 0-.015-.013-.015-.028 0-.016-.014-.038-.03-.051-.018-.012-.031-.032-.031-.043 0-.027-.224-.256-.25-.256-.01 0-.03-.014-.042-.032-.012-.017-.034-.031-.049-.031s-.027-.007-.027-.016c0-.008-.014-.016-.03-.016-.018 0-.032-.007-.032-.015 0-.009-.027-.016-.06-.016-.035 0-.062-.007-.062-.016 0-.008-.035-.016-.077-.016-.042 0-.076-.007-.076-.015 0-.01-.24-.016-.69-.016-.45 0-.69-.005-.69-.016 0-.008-.034-.016-.077-.016-.042 0-.076-.007-.076-.015 0-.009-.02-.016-.046-.016s-.046-.007-.046-.016c0-.008-.02-.015-.046-.015-.025 0-.046-.008-.046-.016 0-.009-.02-.016-.046-.016-.025 0-.046-.007-.046-.016 0-.008-.014-.016-.03-.016-.018 0-.031-.007-.031-.015 0-.009-.014-.016-.031-.016s-.03-.007-.03-.016c0-.008-.015-.015-.031-.015-.017 0-.031-.008-.031-.016 0-.009-.014-.016-.03-.016-.017 0-.031-.007-.031-.016 0-.008-.014-.015-.031-.015s-.03-.008-.03-.016c0-.009-.013-.016-.028-.016-.015 0-.037-.014-.05-.031-.011-.018-.03-.032-.042-.032-.012 0-.047-.028-.08-.063a.252.252 0 0 0-.076-.063 1.34 1.34 0 0 1-.246-.253.255.255 0 0 0-.061-.077c-.034-.034-.061-.07-.061-.082 0-.012-.014-.032-.031-.044-.017-.013-.03-.036-.03-.051s-.008-.028-.016-.028-.015-.014-.015-.032c0-.017-.007-.031-.016-.031-.008 0-.015-.014-.015-.032 0-.017-.007-.031-.015-.031-.009 0-.016-.014-.016-.032 0-.017-.007-.031-.015-.031s-.015-.021-.015-.047-.007-.047-.016-.047c-.008 0-.015-.022-.015-.048 0-.026-.007-.047-.015-.047-.009 0-.016-.028-.016-.063s-.006-.063-.015-.063-.015-.052-.015-.126c0-.073-.007-.126-.016-.126-.009 0-.015-.073-.015-.189 0-.115-.006-.188-.015-.188-.01 0-.016-.074-.016-.19 0-.115-.006-.188-.015-.188-.01 0-.015-.069-.015-.174 0-.105-.006-.173-.016-.173-.008 0-.015-.021-.015-.047v-.047h6.039c4.016 0 6.039-.005 6.039-.016 0-.009.04-.016.092-.016.051 0 .092-.007.092-.015 0-.009.028-.016.061-.016.034 0 .062-.007.062-.016 0-.009.02-.016.045-.016.026 0 .047-.007.047-.015 0-.009.02-.016.045-.016.026 0 .046-.007.046-.016 0-.008.014-.016.031-.016s.03-.007.03-.015c0-.009.021-.016.047-.016.025 0 .046-.007.046-.016 0-.008.012-.016.027-.016s.037-.014.05-.031c.012-.017.034-.031.049-.031s.027-.008.027-.016c0-.009.011-.016.025-.016.013 0 .043-.021.067-.047.024-.026.05-.047.06-.047.022 0 .339-.325.339-.348 0-.01.02-.038.046-.062.025-.024.045-.055.045-.07 0-.013.007-.024.016-.024.008 0 .015-.014.015-.032 0-.017.007-.031.015-.031.009 0 .016-.014.016-.032 0-.017.007-.031.015-.031.009 0 .015-.014.015-.032 0-.017.007-.031.016-.031.008 0 .015-.014.015-.032 0-.017.007-.031.015-.031.009 0 .016-.021.016-.047s.007-.048.015-.048.015-.02.015-.047c0-.026.007-.047.016-.047.008 0 .015-.021.015-.047s.007-.047.015-.047c.009 0 .016-.029.016-.063 0-.035.007-.063.015-.063.009 0 .015-.048.015-.11 0-.064.007-.11.016-.11.01 0 .015-3.412.015-10.202s-.005-10.201-.015-10.201c-.01 0-.016-.047-.016-.11 0-.064-.006-.11-.015-.11-.008 0-.015-.029-.015-.064 0-.034-.007-.063-.016-.063-.008 0-.015-.02-.015-.047 0-.026-.007-.047-.015-.047-.009 0-.016-.021-.016-.047s-.007-.048-.015-.048-.015-.02-.015-.047c0-.026-.007-.047-.016-.047-.008 0-.015-.014-.015-.032 0-.017-.007-.03-.015-.03-.009 0-.016-.015-.016-.032 0-.018-.006-.032-.015-.032-.008 0-.015-.014-.015-.031 0-.018-.007-.032-.016-.032-.008 0-.015-.013-.015-.028 0-.015-.014-.038-.03-.05-.017-.013-.031-.034-.031-.048 0-.013-.014-.035-.03-.047-.018-.012-.032-.032-.032-.043 0-.027-.315-.35-.34-.35-.012 0-.03-.015-.043-.032-.012-.017-.033-.032-.046-.032-.013 0-.033-.014-.046-.031-.012-.017-.034-.032-.049-.032s-.027-.007-.027-.015c0-.009-.014-.016-.031-.016s-.03-.007-.03-.016c0-.008-.014-.015-.031-.015s-.03-.008-.03-.016c0-.009-.015-.016-.031-.016-.017 0-.031-.007-.031-.016 0-.008-.02-.015-.046-.015s-.046-.008-.046-.016c0-.009-.02-.016-.046-.016-.025 0-.046-.007-.046-.016 0-.008-.02-.015-.046-.015-.025 0-.046-.008-.046-.016 0-.009-.028-.016-.061-.016-.034 0-.062-.007-.062-.016 0-.009-.046-.015-.107-.015s-.107-.007-.107-.016c0-.01-1.59-.016-4.736-.016-3.148 0-4.737-.005-4.737-.016 0-.008.007-.015.016-.015.008 0 .015-.015.015-.032s.007-.031.015-.031c.009 0 .016-.015.016-.032s.007-.031.015-.031c.009 0 .015-.015.015-.032s.007-.031.016-.031c.008 0 .015-.015.015-.032s.007-.031.015-.031c.009 0 .016-.015.016-.032s.007-.031.015-.031.015-.014.015-.032c0-.017.007-.031.016-.031.008 0 .015-.014.015-.032 0-.017.007-.031.015-.031.009 0 .016-.014.016-.032 0-.017.007-.031.015-.031s.015-.014.015-.032c0-.017.007-.031.016-.031.008 0 .015-.014.015-.032 0-.017.007-.031.015-.031.009 0 .016-.014.016-.032 0-.017.007-.031.015-.031s.015-.014.015-.032c0-.017.007-.031.016-.031.008 0 .015-.014.015-.032 0-.017.007-.031.015-.031.009 0 .016-.021.016-.047s.006-.047.015-.047c.008 0 .015-.015.015-.032s.007-.031.016-.031c.008 0 .015-.015.015-.032s.007-.031.015-.031c.009 0 .016-.015.016-.032s.006-.032.015-.032c.008 0 .015-.02.015-.047 0-.026.007-.047.015-.047.009 0 .016-.014.016-.031 0-.018.007-.032.015-.032.009 0 .015-.014.015-.031 0-.018.007-.032.016-.032.008 0 .015-.021.015-.047s.007-.047.015-.047c.009 0 .016-.014.016-.032 0-.017.007-.031.015-.031.009 0 .015-.021.015-.047s.007-.048.016-.048c.008 0 .015-.014.015-.031 0-.018.007-.032.016-.032.008 0 .015-.02.015-.047 0-.026.007-.047.015-.047.009 0 .015-.021.015-.047s.007-.048.016-.048c.008 0 .015-.014.015-.031s.007-.031.015-.031c.009 0 .016-.022.016-.048 0-.026.007-.047.015-.047.009 0 .015-.021.015-.047s.007-.047.016-.047c.008 0 .015-.015.015-.032s.007-.031.015-.031c.009 0 .016-.022.016-.048 0-.026.007-.047.015-.047.009 0 .015-.021.015-.047s.007-.047.016-.047c.008 0 .015-.022.015-.047 0-.026.007-.048.015-.048.009 0 .016-.021.016-.047s.007-.047.015-.047.015-.021.015-.047.007-.048.016-.048c.008 0 .015-.021.015-.047s.007-.047.015-.047c.009 0 .016-.021.016-.047s.007-.048.015-.048.015-.02.015-.047c0-.026.007-.047.016-.047.008 0 .015-.021.015-.047s.007-.047.015-.047c.009 0 .016-.029.016-.064 0-.034.006-.063.015-.063.008 0 .015-.02.015-.047 0-.026.007-.047.016-.047.008 0 .015-.028.015-.063s.007-.063.015-.063c.009 0 .016-.021.016-.047s.006-.047.015-.047c.008 0 .015-.014.015-.032 0-.02.01-.031.03-.031.018 0 .032-.007.032-.016 0-.01.05-.016.122-.016s.123-.006.123-.016c0-.009.05-.015.122-.015s.123-.007.123-.016c0-.009.04-.016.092-.016.051 0 .092-.007.092-.015 0-.01.04-.016.092-.016.051 0 .092-.007.092-.016 0-.009.04-.016.092-.016.051 0 .092-.007.092-.015 0-.01.034-.016.076-.016.043 0 .077-.007.077-.016 0-.009.035-.016.077-.016.042 0 .076-.007.076-.016 0-.008.041-.015.092-.015s.092-.007.092-.016c0-.009.035-.016.077-.016.042 0 .076-.007.076-.015 0-.01.028-.016.062-.016s.061-.007.061-.016c0-.008.035-.016.077-.016.042 0 .076-.007.076-.015 0-.009.028-.016.062-.016s.061-.007.061-.016c0-.009.028-.016.061-.016.034 0 .062-.007.062-.015 0-.009.034-.016.076-.016.043 0 .077-.007.077-.016 0-.008.02-.016.046-.016.025 0 .046-.007.046-.015 0-.009.027-.016.061-.016s.062-.007.062-.016c0-.008.027-.016.06-.016.035 0 .062-.007.062-.015 0-.009.02-.016.046-.016.025 0 .046-.007.046-.016 0-.008.02-.016.046-.016.025 0 .046-.007.046-.015 0-.009.028-.016.061-.016.034 0 .062-.007.062-.016 0-.008.02-.015.046-.015.025 0 .046-.008.046-.016 0-.009.02-.016.046-.016.025 0 .046-.007.046-.016 0-.008.02-.015.046-.015.025 0 .046-.008.046-.016 0-.009.013-.016.03-.016s.03-.007.03-.016c0-.008.022-.015.047-.015s.046-.008.046-.016c0-.009.02-.016.046-.016.025 0 .046-.007.046-.016 0-.008.014-.015.03-.015.017 0 .031-.008.031-.016 0-.009.014-.016.03-.016.018 0 .032-.007.032-.016 0-.008.02-.015.046-.015.025 0 .045-.007.045-.016 0-.009.014-.016.031-.016s.03-.007.03-.016c0-.008.015-.015.031-.015.017 0 .031-.007.031-.016 0-.009.012-.016.027-.016s.038-.014.05-.031c.012-.018.034-.032.049-.032s.027-.007.027-.015c0-.01.013-.016.028-.016.014 0 .037-.014.049-.032.012-.017.033-.031.046-.031.013 0 .034-.014.046-.032.012-.017.033-.031.046-.031.013 0 .034-.014.046-.032.012-.017.03-.031.042-.031.026 0 .341-.324.341-.35 0-.012.014-.031.03-.044.018-.012.031-.034.031-.047 0-.014.014-.035.031-.047.017-.013.03-.035.03-.05 0-.016.008-.029.016-.029s.015-.014.015-.031c0-.018.007-.032.016-.032.008 0 .015-.021.015-.047s.007-.047.015-.047c.009 0 .016-.022.016-.048 0-.026.007-.047.015-.047s.015-.028.015-.063.007-.063.016-.063c.009 0 .015-.079.015-.204 0-.126-.006-.205-.015-.205s-.016-.035-.016-.079c0-.043-.007-.079-.015-.079s-.015-.02-.015-.047c0-.026-.007-.047-.016-.047-.008 0-.015-.014-.015-.031 0-.018-.007-.032-.015-.032-.009 0-.016-.014-.016-.031 0-.018-.007-.032-.015-.032s-.015-.014-.015-.031c0-.018-.007-.032-.016-.032-.008 0-.015-.013-.015-.028 0-.015-.014-.038-.03-.05-.017-.013-.031-.032-.031-.043 0-.025-.438-.477-.462-.477-.009 0-.036-.021-.06-.047-.023-.026-.05-.048-.06-.048-.01 0-.038-.02-.062-.047-.024-.026-.052-.047-.064-.047-.012 0-.031-.014-.043-.031-.012-.018-.033-.032-.046-.032-.013 0-.034-.014-.046-.031-.012-.018-.033-.032-.046-.032-.013 0-.034-.014-.046-.031-.012-.018-.033-.032-.046-.032-.013 0-.034-.014-.046-.031-.012-.018-.035-.032-.05-.032s-.027-.007-.027-.016c0-.008-.012-.015-.027-.015s-.037-.015-.05-.032c-.012-.017-.034-.031-.049-.031s-.027-.007-.027-.016c0-.009-.014-.016-.03-.016-.018 0-.031-.007-.031-.016 0-.008-.013-.015-.028-.015-.015 0-.037-.014-.049-.032-.012-.017-.034-.031-.05-.031-.014 0-.027-.007-.027-.016 0-.009-.014-.016-.03-.016-.017 0-.031-.007-.031-.016 0-.008-.014-.015-.03-.015-.018 0-.031-.007-.031-.016 0-.009-.014-.016-.031-.016s-.03-.007-.03-.015c0-.01-.014-.016-.031-.016s-.03-.007-.03-.016c0-.009-.015-.016-.032-.016s-.03-.007-.03-.015c0-.01-.014-.016-.03-.016-.018 0-.032-.007-.032-.016 0-.009-.013-.016-.03-.016s-.03-.007-.03-.015c0-.01-.015-.016-.032-.016-.016 0-.03-.007-.03-.016 0-.009-.014-.016-.03-.016-.018 0-.031-.007-.031-.015 0-.009-.014-.016-.031-.016s-.03-.007-.03-.016c0-.009-.015-.016-.031-.016-.017 0-.031-.007-.031-.015 0-.009-.014-.016-.03-.016-.018 0-.031-.007-.031-.016 0-.008-.021-.016-.046-.016-.026 0-.046-.007-.046-.015 0-.009-.014-.016-.031-.016s-.03-.007-.03-.016c0-.008-.015-.016-.031-.016-.017 0-.031-.007-.031-.015 0-.009-.02-.016-.046-.016-.025 0-.046-.007-.046-.016 0-.008-.014-.016-.03-.016-.017 0-.031-.007-.031-.015 0-.009-.021-.016-.046-.016-.026 0-.046-.007-.046-.016 0-.008-.014-.015-.03-.015-.018 0-.032-.008-.032-.016 0-.009-.02-.016-.046-.016-.025 0-.046-.007-.046-.016 0-.008-.013-.015-.03-.015S29 8.462 29 8.454c0-.009-.021-.016-.047-.016-.025 0-.046-.007-.046-.016 0-.008-.02-.015-.046-.015-.025 0-.046-.007-.046-.016 0-.009-.02-.016-.046-.016-.025 0-.046-.007-.046-.016 0-.008-.014-.015-.03-.015-.017 0-.031-.008-.031-.016 0-.009-.02-.016-.046-.016-.025 0-.046-.007-.046-.016 0-.008-.028-.015-.061-.015-.034 0-.062-.007-.062-.016 0-.009-.02-.016-.046-.016-.025 0-.046-.007-.046-.016 0-.008-.02-.015-.046-.015-.025 0-.046-.007-.046-.016 0-.009-.02-.016-.046-.016-.025 0-.045-.007-.045-.016 0-.008-.021-.015-.047-.015-.025 0-.046-.007-.046-.016 0-.009-.027-.016-.06-.016-.034 0-.062-.007-.062-.016 0-.008-.02-.015-.046-.015-.025 0-.046-.007-.046-.016 0-.009-.028-.016-.061-.016-.034 0-.062-.007-.062-.016 0-.008-.02-.015-.046-.015-.025 0-.046-.007-.046-.016 0-.009-.027-.016-.06-.016-.035 0-.062-.007-.062-.015 0-.01-.028-.016-.062-.016-.033 0-.06-.007-.06-.016 0-.009-.028-.016-.062-.016s-.062-.007-.062-.015c0-.01-.027-.016-.06-.016-.035 0-.062-.007-.062-.016 0-.009-.028-.016-.061-.016-.034 0-.062-.007-.062-.015 0-.01-.027-.016-.061-.016s-.061-.007-.061-.016c0-.009-.035-.016-.077-.016-.042 0-.077-.007-.077-.015 0-.01-.027-.016-.06-.016-.035 0-.062-.007-.062-.016 0-.009-.025-.016-.055-.016-.058 0-.099-.028-.099-.07 0-.013-.006-.024-.015-.024-.008 0-.015-.028-.015-.063s-.007-.063-.015-.063c-.009 0-.016-.028-.016-.063s-.007-.063-.015-.063c-.009 0-.015-.028-.015-.063s-.007-.063-.016-.063c-.008 0-.015-.021-.015-.047s-.007-.047-.015-.047c-.009 0-.016-.029-.016-.063 0-.035-.007-.063-.015-.063-.009 0-.015-.029-.015-.063 0-.035-.007-.063-.016-.063-.008 0-.015-.029-.015-.063 0-.035-.007-.063-.015-.063-.009 0-.016-.029-.016-.063 0-.035-.007-.063-.015-.063-.009 0-.015-.028-.015-.063s-.007-.063-.016-.063c-.008 0-.015-.028-.015-.063s-.007-.063-.015-.063c-.009 0-.016-.021-.016-.047s-.007-.047-.015-.047-.015-.029-.015-.063c0-.035-.007-.063-.016-.063-.008 0-.015-.029-.015-.063 0-.035-.007-.063-.015-.063-.009 0-.016-.029-.016-.063 0-.035-.007-.063-.015-.063s-.015-.022-.015-.048c0-.025-.007-.047-.016-.047-.008 0-.015-.028-.015-.063 0-.034-.007-.063-.015-.063-.009 0-.016-.02-.016-.047 0-.026-.006-.047-.015-.047-.008 0-.015-.028-.015-.063s-.007-.063-.016-.063c-.008 0-.015-.021-.015-.047s-.007-.048-.015-.048c-.009 0-.016-.02-.016-.047 0-.026-.006-.047-.015-.047-.008 0-.015-.028-.015-.063s-.007-.063-.016-.063c-.008 0-.015-.021-.015-.047s-.007-.047-.015-.047c-.009 0-.016-.022-.016-.048 0-.026-.006-.047-.015-.047-.008 0-.015-.021-.015-.047s-.007-.047-.016-.047c-.008 0-.015-.029-.015-.063 0-.035-.007-.063-.015-.063-.009 0-.015-.021-.015-.047s-.007-.048-.016-.048c-.008 0-.015-.02-.015-.047 0-.026-.007-.047-.016-.047-.008 0-.015-.021-.015-.047s-.007-.048-.015-.048-.015-.014-.015-.031-.007-.032-.016-.032c-.008 0-.015-.02-.015-.047 0-.026-.007-.047-.015-.047-.009 0-.016-.021-.016-.047s-.007-.047-.015-.047c-.009 0-.015-.022-.015-.048 0-.026-.007-.047-.016-.047-.008 0-.015-.021-.015-.047s-.007-.047-.015-.047c-.009 0-.016-.022-.016-.048 0-.026-.007-.047-.015-.047-.009 0-.015-.014-.015-.031 0-.018-.007-.032-.016-.032-.008 0-.015-.021-.015-.047s-.007-.047-.015-.047c-.009 0-.016-.014-.016-.032 0-.017-.007-.031-.015-.031s-.015-.022-.015-.047c0-.026-.007-.048-.016-.048-.008 0-.015-.014-.015-.031 0-.018-.007-.032-.015-.032-.009 0-.016-.02-.016-.047 0-.026-.007-.047-.015-.047s-.015-.014-.015-.032c0-.017-.007-.031-.016-.031-.008 0-.015-.021-.015-.047s-.007-.048-.015-.048c-.009 0-.016-.014-.016-.031s-.007-.032-.015-.032-.015-.014-.015-.031-.007-.031-.016-.031c-.008 0-.015-.015-.015-.032s-.007-.031-.015-.031c-.009 0-.016-.022-.016-.048 0-.026-.006-.047-.015-.047-.008 0-.015-.014-.015-.031 0-.018-.007-.032-.016-.032-.008 0-.015-.014-.015-.031 0-.018-.007-.032-.015-.032-.009 0-.016-.014-.016-.031 0-.018-.006-.032-.015-.032-.008 0-.015-.014-.015-.031 0-.018-.007-.032-.016-.032-.008 0-.015-.014-.015-.031 0-.018-.007-.032-.015-.032-.009 0-.015-.014-.015-.031 0-.018-.008-.032-.016-.032s-.015-.014-.015-.031c0-.018-.007-.032-.015-.032-.009 0-.016-.014-.016-.031 0-.018-.007-.032-.015-.032-.009 0-.016-.014-.016-.031 0-.018-.006-.032-.015-.032-.008 0-.015-.012-.015-.028 0-.015-.014-.038-.03-.05-.018-.013-.031-.036-.031-.051s-.007-.028-.016-.028c-.008 0-.015-.014-.015-.032 0-.017-.007-.031-.015-.031-.009 0-.016-.013-.016-.028 0-.015-.014-.038-.03-.05-.017-.013-.031-.036-.031-.051 0-.016-.007-.028-.015-.028-.009 0-.016-.015-.016-.032s-.007-.031-.015-.031c-.009 0-.015-.013-.015-.028 0-.016-.014-.039-.031-.051-.017-.013-.03-.034-.03-.047 0-.014-.015-.035-.031-.048-.017-.012-.031-.033-.031-.047 0-.013-.014-.035-.03-.047-.017-.013-.031-.033-.031-.044 0-.012-.021-.042-.046-.066-.026-.025-.046-.054-.046-.066 0-.012-.014-.032-.03-.044-.018-.013-.032-.033-.032-.045 0-.011-.027-.048-.06-.081a.253.253 0 0 1-.062-.079.643.643 0 0 0-.108-.126.67.67 0 0 1-.107-.126c0-.022-.194-.22-.215-.22a.5.5 0 0 1-.107-.095.48.48 0 0 0-.108-.094c-.01 0-.037-.022-.06-.048-.024-.026-.053-.047-.064-.047-.012 0-.031-.014-.044-.031-.012-.018-.032-.032-.046-.032-.013 0-.033-.014-.045-.031-.013-.018-.035-.032-.05-.032s-.027-.007-.027-.015c0-.01-.012-.016-.027-.016s-.038-.014-.05-.032c-.012-.017-.034-.031-.05-.031-.014 0-.026-.007-.026-.016 0-.009-.014-.016-.031-.016s-.03-.007-.03-.015c0-.01-.014-.016-.031-.016s-.031-.007-.031-.016c0-.009-.014-.016-.03-.016-.018 0-.031-.007-.031-.015 0-.009-.021-.016-.046-.016-.026 0-.046-.007-.046-.016 0-.009-.014-.016-.03-.016-.018 0-.032-.007-.032-.015 0-.009-.02-.016-.046-.016-.025 0-.046-.007-.046-.016 0-.008-.02-.016-.046-.016-.025 0-.046-.007-.046-.015 0-.009-.02-.016-.046-.016-.025 0-.045-.007-.045-.016 0-.008-.035-.016-.077-.016-.042 0-.077-.007-.077-.015 0-.009-.034-.016-.076-.016-.043 0-.077-.007-.077-.016 0-.01-.071-.016-.183-.016-.13 0-.185-.005-.191-.02-.008-.015-.011-.015-.018 0-.007.015-.06.02-.192.02-.111 0-.182.007-.182.016 0 .009-.035.016-.077.016-.042 0-.077.007-.077.016 0 .008-.027.015-.061.015s-.061.008-.061.016c0 .009-.021.016-.046.016-.026 0-.046.007-.046.016 0 .008-.021.015-.046.015-.025 0-.046.008-.046.016 0 .009-.02.016-.046.016s-.046.007-.046.016c0 .008-.014.015-.03.015-.018 0-.031.007-.031.016 0 .009-.014.016-.031.016s-.03.007-.03.016c0 .008-.015.015-.032.015-.016 0-.03.007-.03.016 0 .009-.014.016-.03.016-.018 0-.031.007-.031.016 0 .008-.014.015-.031.015s-.03.007-.03.016c0 .009-.013.016-.028.016-.015 0-.037.014-.05.031-.011.018-.032.032-.045.032-.014 0-.034.014-.046.031-.012.018-.033.032-.046.032-.014 0-.034.014-.046.031-.012.018-.032.032-.044.032-.011 0-.04.021-.064.047-.023.026-.05.047-.06.047a.35.35 0 0 0-.093.079.36.36 0 0 1-.091.079c-.01 0-.086.07-.17.157-.083.087-.16.157-.168.157a.836.836 0 0 0-.138.126.802.802 0 0 1-.139.126.274.274 0 0 0-.076.063c-.032.035-.068.063-.08.063-.01 0-.03.014-.042.032-.012.017-.033.031-.046.031-.013 0-.034.014-.046.032a.083.083 0 0 1-.065.031c-.023 0-.042.007-.042.016 0 .009-.014.016-.031.016s-.03.007-.03.015c0 .01-.077.016-.2.016-.123 0-.2-.006-.2-.016 0-.008-.013-.015-.03-.015s-.03-.007-.03-.016c0-.009-.014-.016-.031-.016s-.03-.007-.03-.016c0-.008-.015-.015-.031-.015-.017 0-.031-.007-.031-.016 0-.009-.011-.016-.025-.016-.013 0-.044-.021-.067-.047-.024-.026-.051-.047-.06-.047a.624.624 0 0 1-.124-.11.655.655 0 0 0-.122-.11c-.01 0-.12-.107-.246-.237a2.63 2.63 0 0 0-.246-.236.498.498 0 0 1-.107-.094.478.478 0 0 0-.107-.095c-.01 0-.037-.021-.061-.047s-.053-.047-.064-.047c-.012 0-.031-.014-.043-.032-.012-.017-.033-.031-.046-.031-.013 0-.034-.014-.046-.032-.012-.017-.035-.031-.05-.031s-.027-.007-.027-.016c0-.009-.014-.016-.03-.016-.018 0-.031-.007-.031-.015 0-.01-.012-.016-.027-.016S16.55.3 16.537.283a.083.083 0 0 0-.065-.031c-.023 0-.042-.007-.042-.016 0-.009-.014-.016-.03-.016-.018 0-.032-.007-.032-.015 0-.009-.013-.016-.03-.016s-.03-.007-.03-.016c0-.008-.021-.016-.047-.016-.025 0-.046-.007-.046-.015 0-.009-.02-.016-.046-.016-.025 0-.046-.007-.046-.016 0-.008-.027-.016-.061-.016s-.061-.007-.061-.015c0-.009-.035-.016-.077-.016-.042 0-.077-.007-.077-.016 0-.01-.066-.016-.168-.016-.102 0-.169-.006-.169-.015A.016.016 0 0 0 15.496 0a.015.015 0 0 0-.015.016Zm.092 2.015c0 .008.014.016.031.016s.03.007.03.015c0 .009.012.016.025.016.014 0 .044.021.068.047.023.026.05.047.06.047.01 0 .045.029.078.063a.25.25 0 0 0 .076.063c.009 0 .092.078.184.174.093.095.175.173.184.173a.83.83 0 0 1 .138.126c.067.069.13.126.138.126.01 0 .051.035.092.078a.35.35 0 0 0 .093.08c.01 0 .037.02.06.046.024.026.053.048.064.048.012 0 .031.014.044.031.012.017.032.031.046.031.013 0 .034.015.046.032.012.017.034.031.049.031s.027.008.027.016c0 .009.012.016.027.016s.038.014.05.031c.012.018.034.032.05.032.014 0 .027.007.027.016 0 .008.013.015.03.015s.03.007.03.016c0 .009.015.016.032.016.016 0 .03.007.03.016 0 .008.014.015.03.015.018 0 .031.007.031.016 0 .009.021.016.046.016.026 0 .046.007.046.016 0 .008.014.015.031.015s.03.007.03.016c0 .009.021.016.047.016.025 0 .046.007.046.016 0 .008.02.015.046.015.025 0 .046.007.046.016 0 .009.027.016.06.016.035 0 .062.007.062.016 0 .008.035.015.077.015.042 0 .076.007.076.016 0 .009.047.016.108.016s.107.007.107.016c0 .01.092.015.245.015.154 0 .246-.006.246-.015 0-.01.046-.016.107-.016s.107-.007.107-.016c0-.009.028-.016.061-.016.034 0 .062-.007.062-.015 0-.01.027-.016.061-.016s.061-.007.061-.016c0-.009.021-.016.046-.016.026 0 .046-.007.046-.015 0-.01.021-.016.046-.016.026 0 .046-.007.046-.016 0-.009.021-.016.046-.016.026 0 .046-.007.046-.015 0-.01.014-.016.03-.016.018 0 .032-.007.032-.016 0-.009.013-.016.03-.016s.03-.007.03-.015c0-.009.015-.016.032-.016.016 0 .03-.007.03-.016 0-.009.014-.016.03-.016.018 0 .031-.007.031-.015 0-.009.014-.016.031-.016s.03-.007.03-.016c0-.008.013-.016.028-.016.015 0 .037-.014.05-.031.012-.017.034-.032.049-.032s.027-.007.027-.015c0-.009.011-.016.025-.016.013 0 .043-.021.067-.047.024-.026.053-.047.064-.047.012 0 .031-.015.043-.032.012-.017.032-.031.043-.031.012 0 .047-.029.08-.063a.243.243 0 0 1 .076-.063c.01 0 .052-.036.093-.08a.36.36 0 0 1 .091-.078c.01 0 .079-.064.154-.142.075-.077.144-.141.153-.141.01 0 .065-.05.123-.11a.634.634 0 0 1 .123-.11c.01 0 .044-.029.076-.064.032-.034.068-.063.08-.063.011 0 .03-.014.043-.031.012-.017.034-.031.049-.031s.027-.008.027-.016c0-.009.014-.016.03-.016.018 0 .031-.007.031-.016 0-.008.021-.015.047-.015.025 0 .045-.008.045-.016 0-.01.057-.016.138-.016.082 0 .138.006.138.016 0 .008.021.016.046.016.026 0 .046.007.046.015 0 .009.021.016.046.016.026 0 .046.007.046.016 0 .008.012.016.028.016.014 0 .037.014.049.031.012.017.031.031.043.031.011 0 .047.029.08.063a.251.251 0 0 0 .075.063c.022 0 .216.2.216.222 0 .01.027.044.061.078.034.033.061.068.061.079 0 .01.021.038.046.062.026.024.046.054.046.066 0 .012.014.032.031.044.017.013.03.034.03.048 0 .013.014.034.031.047.017.012.031.034.031.047 0 .014.014.035.03.047.018.013.031.034.031.048 0 .013.014.034.03.047.018.012.032.035.032.05 0 .016.006.029.015.029.008 0 .015.014.015.031s.007.031.016.031c.008 0 .015.013.015.028 0 .016.014.039.03.051.017.013.031.035.031.05 0 .016.007.029.015.029.009 0 .016.014.016.031 0 .018.007.032.015.032.009 0 .015.014.015.031 0 .018.007.032.016.032.008 0 .015.014.015.031 0 .018.007.032.016.032.008 0 .015.014.015.031 0 .018.007.032.015.032.009 0 .015.014.015.031 0 .018.007.032.016.032.008 0 .015.014.015.031 0 .018.007.032.015.032.009 0 .016.014.016.031 0 .018.007.032.015.032.009 0 .015.014.015.031s.007.032.016.032c.008 0 .015.02.015.047 0 .026.007.047.015.047.009 0 .016.014.016.032 0 .017.007.031.015.031.009 0 .015.014.015.032 0 .017.007.031.016.031.008 0 .015.021.015.047s.007.048.015.048c.009 0 .016.014.016.031s.007.031.015.031.015.022.015.048c0 .026.007.047.016.047.008 0 .015.014.015.031 0 .018.007.032.015.032.009 0 .016.021.016.047s.007.047.015.047.015.015.015.032.007.031.016.031c.008 0 .015.022.015.048 0 .026.007.047.015.047.009 0 .016.014.016.031 0 .018.006.032.015.032.008 0 .015.021.015.047s.007.047.016.047c.008 0 .015.021.015.047s.007.048.015.048c.009 0 .016.02.016.047 0 .026.006.047.015.047.008 0 .015.021.015.047s.007.048.016.048c.008 0 .015.02.015.047 0 .026.007.047.015.047.009 0 .016.021.016.047s.007.048.015.048.015.02.015.047c0 .026.007.047.015.047.009 0 .016.021.016.047s.007.047.015.047c.009 0 .015.022.015.048 0 .026.007.047.016.047.008 0 .015.021.015.047s.007.047.015.047c.009 0 .016.022.016.048 0 .026.007.047.015.047.009 0 .016.021.016.047s.006.047.015.047c.008 0 .015.029.015.063 0 .035.007.063.015.063.009 0 .016.021.016.047s.007.048.015.048c.009 0 .015.02.015.047 0 .026.007.047.016.047.008 0 .015.028.015.063s.007.063.015.063c.009 0 .016.021.016.047s.007.047.015.047c.009 0 .015.029.015.063 0 .035.007.063.016.063.008 0 .015.022.015.048 0 .026.007.047.015.047.009 0 .016.028.016.063 0 .034.007.063.015.063s.015.021.015.047.007.047.016.047c.008 0 .015.029.015.063 0 .035.007.063.015.063.009 0 .016.029.016.063 0 .035.007.063.015.063s.015.021.015.047.007.048.016.048c.008 0 .015.028.015.063 0 .034.007.063.015.063.009 0 .016.028.016.063 0 .034.007.063.015.063s.015.028.015.062c0 .035.007.063.016.063.008 0 .015.029.015.063 0 .035.007.063.015.063.009 0 .016.022.016.048 0 .026.006.047.015.047.008 0 .015.028.015.063 0 .034.007.063.016.063.008 0 .015.028.015.063 0 .034.007.063.015.063.009 0 .015.028.015.063 0 .034.008.063.016.063s.015.028.015.063c0 .034.007.063.015.063.009 0 .016.028.016.063 0 .034.007.063.015.063.009 0 .016.028.016.063 0 .034.006.062.015.062.008 0 .015.029.015.063 0 .035.007.063.016.063.008 0 .015.029.015.063 0 .035.007.063.015.063.009 0 .015.015.015.032s.007.031.016.031c.008 0 .015.014.015.032 0 .017.007.031.016.031.008 0 .015.013.015.028 0 .016.014.039.03.051.017.013.031.032.031.043a.89.89 0 0 0 .219.225c.01 0 .03.014.042.031.012.017.034.032.049.032s.027.007.027.015c0 .009.014.016.031.016s.03.007.03.016c0 .008.021.016.047.016.025 0 .046.007.046.015 0 .009.027.016.06.016.035 0 .062.007.062.016 0 .009.041.016.092.016s.092.007.092.015c0 .009.035.016.077.016.042 0 .076.007.076.016 0 .008.035.016.077.016.042 0 .077.007.077.015 0 .009.034.016.076.016.042 0 .077.007.077.016 0 .008.027.015.061.015s.062.008.062.016c0 .009.027.016.06.016.035 0 .062.007.062.016 0 .008.028.015.061.015.034 0 .062.008.062.016 0 .009.027.016.061.016s.061.007.061.016c0 .008.028.015.062.015s.061.008.061.016c0 .009.02.016.046.016.025 0 .046.007.046.016 0 .008.028.015.061.015.034 0 .062.008.062.016 0 .009.02.016.046.016.025 0 .046.007.046.016 0 .008.02.015.046.015.025 0 .046.007.046.016 0 .009.02.016.046.016.025 0 .046.007.046.016 0 .008.02.015.045.015.026 0 .047.007.047.016 0 .009.02.016.046.016.025 0 .045.007.045.016 0 .008.021.015.046.015.026 0 .046.007.046.016 0 .009.021.016.046.016.026 0 .046.007.046.016 0 .008.021.015.046.015.026 0 .046.007.046.016 0 .009.021.016.046.016.026 0 .046.007.046.016 0 .008.014.015.03.015.018 0 .032.007.032.016 0 .009.02.016.046.016.025 0 .046.007.046.015 0 .01.02.016.046.016.025 0 .046.007.046.016 0 .009.013.016.03.016s.03.007.03.015c0 .01.022.016.047.016s.046.007.046.016c0 .009.014.016.03.016.017 0 .031.007.031.015 0 .01.02.016.046.016.025 0 .046.007.046.016 0 .009.014.016.03.016.018 0 .031.007.031.015 0 .01.021.016.046.016.026 0 .046.007.046.016 0 .009.014.016.031.016s.03.007.03.015c0 .009.014.016.031.016s.031.007.031.016c0 .008.014.016.03.016.017 0 .031.007.031.015 0 .009.021.016.046.016.026 0 .046.007.046.016 0 .008.014.016.03.016.018 0 .032.007.032.015 0 .009.013.016.03.016s.03.007.03.016c0 .008.015.015.031.015.017 0 .031.008.031.016 0 .009.014.016.03.016.018 0 .032.007.032.016 0 .008.013.016.03.016s.03.007.03.015c0 .009.013.016.028.016.015 0 .037.014.05.031.012.018.034.032.049.032s.027.007.027.016c0 .008.012.015.027.015s.038.015.05.032c.012.017.034.032.05.032.014 0 .026.007.026.015 0 .009.014.016.031.016s.03.007.03.016c0 .008-.013.015-.03.015s-.03.007-.03.016c0 .009-.021.016-.047.016-.025 0-.046.007-.046.016 0 .008-.027.015-.061.015s-.061.008-.061.016c0 .009-.02.016-.046.016s-.046.007-.046.016c0 .008-.028.015-.061.015-.034 0-.062.007-.062.016 0 .009-.02.016-.046.016-.025 0-.046.007-.046.016 0 .008-.027.015-.061.015s-.061.007-.061.016c0 .009-.035.016-.077.016-.042 0-.077.007-.077.015 0 .01-.027.016-.061.016s-.061.007-.061.016c0 .009-.028.016-.062.016-.033 0-.06.007-.06.016 0 .008-.035.015-.078.015-.042 0-.076.007-.076.016 0 .009-.035.016-.077.016-.042 0-.076.007-.076.015 0 .01-.035.016-.077.016-.042 0-.077.007-.077.016 0 .009-.034.016-.076.016-.043 0-.077.007-.077.015 0 .01-.04.016-.092.016-.051 0-.092.007-.092.016 0 .009-.04.016-.092.016-.051 0-.092.007-.092.015 0 .01-.046.016-.107.016s-.107.007-.107.016c0 .009-.046.016-.108.016-.061 0-.107.006-.107.015 0 .01-.046.016-.107.016-.062 0-.108.007-.108.016 0 .009-.046.016-.107.016s-.107.006-.107.015c0 .01-.051.016-.123.016-.071 0-.122.007-.122.016 0 .01-.052.016-.123.016-.072 0-.123.006-.123.015 0 .01-.056.016-.138.016-.081 0-.138.006-.138.016s-.056.015-.138.015c-.081 0-.137.007-.137.016 0 .01-.062.016-.154.016s-.153.006-.153.016-.061.016-.153.016-.154.006-.154.015c0 .01-.066.016-.168.016-.102 0-.169.006-.169.016s-.071.015-.184.015c-.112 0-.184.007-.184.016 0 .01-.076.016-.199.016-.122 0-.2.006-.2.016s-.08.015-.214.015c-.133 0-.214.006-.214.016s-.092.016-.246.016c-.153 0-.245.006-.245.016s-.107.015-.29.015c-.185 0-.292.006-.292.016s-.123.016-.337.016c-.215 0-.338.006-.338.016s-.168.015-.475.015c-.306 0-.475.006-.475.016s-.7.016-2.07.016c-1.368 0-2.068-.005-2.068-.016 0-.01-.164-.016-.46-.016-.296 0-.46-.005-.46-.015 0-.01-.122-.016-.337-.016-.215 0-.337-.006-.337-.016s-.107-.016-.292-.016c-.183 0-.29-.005-.29-.015 0-.01-.093-.016-.246-.016s-.245-.006-.245-.016-.082-.015-.215-.015-.214-.007-.214-.016c0-.01-.077-.016-.2-.016-.122 0-.199-.006-.199-.016s-.071-.016-.184-.016c-.112 0-.184-.006-.184-.015 0-.01-.066-.016-.168-.016-.103 0-.169-.006-.169-.016s-.066-.015-.168-.015c-.103 0-.169-.007-.169-.016 0-.01-.061-.016-.153-.016s-.154-.006-.154-.016c0-.009-.056-.015-.138-.015-.081 0-.138-.007-.138-.016 0-.01-.05-.016-.122-.016s-.123-.007-.123-.016c0-.009-.056-.015-.138-.015-.082 0-.138-.007-.138-.016 0-.01-.046-.016-.107-.016s-.107-.007-.107-.016c0-.009-.051-.015-.123-.015-.071 0-.123-.007-.123-.016 0-.01-.046-.016-.107-.016s-.107-.007-.107-.016c0-.009-.046-.015-.107-.015-.062 0-.108-.007-.108-.016 0-.009-.04-.016-.092-.016-.05 0-.092-.007-.092-.016 0-.008-.04-.015-.092-.015-.05 0-.091-.007-.091-.016 0-.009-.041-.016-.092-.016-.052 0-.092-.007-.092-.015 0-.01-.035-.016-.077-.016-.042 0-.077-.007-.077-.016 0-.009-.04-.016-.092-.016-.05 0-.092-.007-.092-.016 0-.008-.034-.015-.076-.015-.042 0-.077-.007-.077-.016 0-.009-.027-.016-.061-.016s-.061-.007-.061-.015c0-.01-.035-.016-.077-.016-.042 0-.077-.007-.077-.016 0-.009-.027-.016-.061-.016s-.061-.007-.061-.015c0-.01-.028-.016-.062-.016-.033 0-.061-.007-.061-.016 0-.009-.028-.016-.061-.016-.034 0-.062-.007-.062-.015 0-.01-.027-.016-.061-.016s-.061-.007-.061-.016c0-.009-.028-.016-.062-.016-.033 0-.06-.007-.06-.015 0-.01-.022-.016-.047-.016s-.046-.007-.046-.016c0-.008-.027-.016-.061-.016s-.061-.007-.061-.015c0-.009-.021-.016-.046-.016-.026 0-.046-.007-.046-.016 0-.009-.021-.016-.046-.016-.026 0-.046-.004-.046-.009 0-.017.044-.053.064-.053.012 0 .03-.015.043-.032.012-.017.034-.032.05-.032.014 0 .027-.007.027-.015 0-.009.013-.016.03-.016s.03-.007.03-.016c0-.008.013-.016.028-.016.015 0 .037-.014.05-.031.012-.017.034-.031.049-.031s.027-.008.027-.016c0-.009.014-.016.03-.016.018 0 .031-.007.031-.016 0-.008.014-.015.031-.015s.03-.008.03-.016c0-.009.015-.016.031-.016.017 0 .031-.007.031-.016 0-.008.014-.015.03-.015.018 0 .031-.008.031-.016 0-.009.014-.016.031-.016s.03-.007.03-.016c0-.008.021-.015.047-.015.025 0 .046-.008.046-.016 0-.009.013-.016.03-.016s.031-.007.031-.016c0-.008.014-.015.03-.015.017 0 .031-.007.031-.016 0-.009.02-.016.046-.016s.046-.007.046-.016c0-.008.014-.015.03-.015.018 0 .032-.007.032-.016 0-.009.013-.016.03-.016s.03-.007.03-.016c0-.008.022-.015.047-.015s.046-.007.046-.016c0-.009.014-.016.03-.016.017 0 .031-.007.031-.015 0-.01.02-.016.046-.016.025 0 .046-.007.046-.016 0-.009.014-.016.03-.016.018 0 .031-.007.031-.016 0-.008.021-.015.046-.015.026 0 .046-.007.046-.016 0-.009.021-.016.046-.016.026 0 .046-.007.046-.015 0-.01.014-.016.031-.016s.03-.007.03-.016c0-.009.021-.016.047-.016.025 0 .046-.007.046-.015 0-.01.02-.016.046-.016.025 0 .046-.007.046-.016 0-.009.02-.016.046-.016.025 0 .046-.007.046-.015 0-.01.02-.016.045-.016.026 0 .046-.007.046-.016 0-.009.021-.016.046-.016.026 0 .046-.007.046-.015 0-.01.021-.016.046-.016.026 0 .046-.007.046-.016 0-.009.028-.016.062-.016.033 0 .061-.007.061-.015 0-.009.02-.016.046-.016.025 0 .046-.007.046-.016 0-.008.02-.016.046-.016.025 0 .046-.007.046-.015 0-.009.027-.016.061-.016s.062-.007.062-.016c0-.008.027-.016.06-.016.035 0 .062-.007.062-.015 0-.009.02-.016.046-.016.025 0 .046-.007.046-.016 0-.008.028-.016.062-.016.033 0 .06-.007.06-.015 0-.009.028-.016.062-.016s.061-.007.061-.016c0-.008.035-.016.077-.016.042 0 .077-.007.077-.015 0-.009.027-.016.061-.016s.061-.007.061-.016c0-.008.035-.015.077-.015.042 0 .077-.008.077-.016 0-.009.04-.016.091-.016.052 0 .092-.007.092-.016 0-.008.041-.015.092-.015.052 0 .092-.007.092-.016 0-.009.028-.016.062-.016s.061-.007.061-.016c0-.008.014-.015.03-.015.018 0 .031-.008.031-.016 0-.009.014-.016.031-.016s.03-.007.03-.016c0-.008.014-.015.031-.015s.03-.007.03-.016c0-.009.012-.016.025-.016.014 0 .05-.028.083-.063.033-.034.067-.063.077-.063.023 0 .061-.04.061-.063 0-.01.02-.039.046-.063.025-.024.046-.055.046-.069 0-.014.007-.025.015-.025.009 0 .016-.014.016-.032 0-.017.007-.031.015-.031.009 0 .015-.014.015-.032 0-.017.007-.031.016-.031.008 0 .015-.021.015-.047s.007-.048.015-.048c.009 0 .016-.02.016-.047 0-.026.007-.047.015-.047s.015-.021.015-.047.007-.048.016-.048c.008 0 .015-.02.015-.047 0-.026.007-.047.015-.047.009 0 .016-.021.016-.047s.007-.047.015-.047.015-.022.015-.048c0-.026.007-.047.016-.047.008 0 .015-.021.015-.047s.007-.047.015-.047c.009 0 .016-.022.016-.048 0-.026.007-.047.015-.047s.015-.028.015-.063c0-.034.007-.063.016-.063.008 0 .015-.021.015-.047s.007-.047.015-.047c.009 0 .016-.021.016-.047s.006-.048.015-.048c.008 0 .015-.02.015-.047 0-.026.007-.047.016-.047.008 0 .015-.021.015-.047s.007-.048.015-.048c.009 0 .016-.02.016-.047 0-.026.007-.047.015-.047s.015-.028.015-.063.007-.063.016-.063c.008 0 .015-.021.015-.047s.007-.047.015-.047c.009 0 .016-.022.016-.048 0-.026.006-.047.015-.047.008 0 .015-.021.015-.047s.007-.047.016-.047c.008 0 .015-.029.015-.063 0-.035.007-.063.015-.063.009 0 .015-.022.015-.047 0-.026.007-.048.016-.048.008 0 .015-.021.015-.047s.007-.047.015-.047c.009 0 .016-.021.016-.047s.007-.048.015-.048c.009 0 .016-.028.016-.063 0-.034.006-.063.015-.063.008 0 .015-.02.015-.047 0-.026.007-.047.015-.047.009 0 .016-.021.016-.047s.007-.047.015-.047c.009 0 .015-.022.015-.048 0-.026.007-.047.016-.047.008 0 .015-.021.015-.047s.007-.047.016-.047c.008 0 .015-.022.015-.048 0-.026.007-.047.015-.047s.015-.028.015-.063c0-.034.007-.063.016-.063.008 0 .015-.021.015-.047s.007-.047.015-.047c.009 0 .016-.022.016-.047 0-.026.007-.048.015-.048.009 0 .015-.021.015-.047s.007-.047.016-.047c.008 0 .015-.021.015-.047s.007-.048.015-.048c.009 0 .016-.02.016-.047 0-.026.007-.047.015-.047s.015-.021.015-.047.007-.048.016-.048c.008 0 .015-.02.015-.047 0-.026.007-.047.015-.047.009 0 .016-.021.016-.047s.007-.047.015-.047.015-.022.015-.048c0-.026.007-.047.016-.047.008 0 .015-.021.015-.047s.007-.047.015-.047c.009 0 .016-.015.016-.032s.006-.031.015-.031c.008 0 .015-.022.015-.048 0-.026.007-.047.016-.047.008 0 .015-.021.015-.047s.007-.047.015-.047c.009 0 .016-.021.016-.047s.006-.048.015-.048c.008 0 .015-.02.015-.047 0-.026.007-.047.016-.047.008 0 .015-.014.015-.032 0-.017.007-.031.015-.031.009 0 .016-.021.016-.047s.006-.048.015-.048c.008 0 .015-.014.015-.031s.007-.032.016-.032c.008 0 .015-.02.015-.047 0-.026.007-.047.015-.047.009 0 .015-.014.015-.031 0-.018.007-.032.016-.032.008 0 .015-.021.015-.047s.007-.047.016-.047c.008 0 .015-.015.015-.032s.007-.031.015-.031c.009 0 .015-.022.015-.048 0-.026.007-.047.016-.047.008 0 .015-.014.015-.031 0-.018.007-.032.015-.032.009 0 .016-.014.016-.031 0-.018.007-.032.015-.032.009 0 .015-.014.015-.031 0-.018.007-.032.016-.032.008 0 .015-.014.015-.031 0-.018.007-.032.015-.032.009 0 .016-.021.016-.047s.007-.047.015-.047.015-.014.015-.032c0-.017.007-.031.016-.031.008 0 .015-.014.015-.032 0-.017.007-.031.015-.031.009 0 .016-.014.016-.032 0-.017.007-.031.015-.031s.015-.014.015-.032c0-.017.007-.031.016-.031.008 0 .015-.013.015-.028 0-.015.014-.038.03-.05.018-.013.031-.036.031-.051 0-.016.007-.029.016-.029.008 0 .015-.014.015-.031s.007-.031.015-.031c.009 0 .016-.013.016-.028 0-.016.013-.039.03-.051.017-.013.03-.035.03-.05 0-.016.008-.029.016-.029.009 0 .016-.013.016-.028 0-.015.013-.038.03-.05.017-.013.031-.034.031-.048 0-.013.014-.035.03-.047.017-.013.031-.034.031-.047 0-.014.014-.035.03-.048.018-.012.031-.032.031-.044 0-.012.021-.041.046-.066.026-.024.046-.052.046-.061 0-.027.38-.411.406-.411.013 0 .024-.007.024-.016 0-.008.014-.015.03-.015.017 0 .031-.008.031-.016 0-.009.014-.016.03-.016.018 0 .031-.007.031-.016 0-.008.021-.015.046-.015.026 0 .046-.008.046-.016 0-.01.051-.016.123-.016.071 0 .123.007.123.016Zm-2.574 12.5c0 .008.046.015.107.015s.107.007.107.016c0 .009.046.016.107.016.062 0 .108.006.108.016 0 .008.034.015.076.015.043 0 .077.007.077.016 0 .009.04.016.092.016.051 0 .092.007.092.015 0 .009.034.016.077.016.042 0 .076.007.076.016 0 .008.035.016.077.016.042 0 .076.007.076.015 0 .009.035.016.077.016.042 0 .077.007.077.016 0 .008.034.016.076.016.042 0 .077.007.077.015 0 .009.028.016.061.016.034 0 .062.007.062.016 0 .008.034.016.076.016.042 0 .077.007.077.015 0 .009.027.016.061.016s.061.007.061.016c0 .008.028.015.062.015s.061.008.061.016c0 .009.028.016.061.016.034 0 .062.007.062.016 0 .008.02.016.046.016.025 0 .046.007.046.015 0 .009.027.016.061.016s.061.007.061.016c0 .008.021.015.046.015.026 0 .046.007.046.016 0 .009.02.016.046.016s.046.007.046.016c0 .008.028.015.062.015.033 0 .06.008.06.016 0 .009.015.016.031.016.017 0 .031.007.031.016 0 .008.02.015.046.015s.046.008.046.016c0 .009.02.016.046.016.025 0 .046.007.046.016 0 .008.014.015.03.015.018 0 .031.007.031.016 0 .009.021.016.046.016.026 0 .046.007.046.016 0 .008.014.015.031.015s.03.007.03.016c0 .009.014.016.031.016s.031.007.031.016c0 .008.014.015.03.015.017 0 .031.007.031.016 0 .009.013.016.027.016.016 0 .038.014.05.031.012.018.031.032.042.032.028 0 .188.167.188.196 0 .013.007.024.015.024.009 0 .015.036.015.079 0 .043-.006.079-.015.079-.008 0-.015.02-.015.047 0 .026-.007.047-.015.047-.009 0-.016.014-.016.032 0 .017-.007.031-.015.031-.009 0-.016.011-.016.025 0 .014-.027.052-.06.085a.253.253 0 0 0-.062.078c0 .023-.07.095-.093.095a.274.274 0 0 0-.076.063c-.032.035-.068.063-.08.063-.01 0-.03.015-.042.032-.012.017-.033.031-.046.031-.014 0-.034.015-.046.032-.012.017-.035.031-.05.031s-.027.007-.027.016c0 .009-.014.016-.03.016-.017 0-.031.007-.031.016 0 .008-.014.015-.03.015-.018 0-.031.007-.031.016 0 .009-.014.016-.031.016s-.03.007-.03.015c0 .01-.015.016-.031.016-.017 0-.031.007-.031.016 0 .009-.02.016-.046.016-.025 0-.046.007-.046.015 0 .01-.02.016-.046.016-.025 0-.046.007-.046.016 0 .009-.02.016-.046.016-.025 0-.046.007-.046.015 0 .01-.028.016-.061.016-.034 0-.062.007-.062.016 0 .009-.034.016-.076.016-.043 0-.077.007-.077.015 0 .01-.04.016-.092.016-.051 0-.092.007-.092.016 0 .01-.107.016-.291.016s-.291-.006-.291-.016c0-.009-.028-.016-.062-.016-.033 0-.06-.007-.06-.016 0-.008-.022-.015-.047-.015s-.046-.007-.046-.016c0-.009-.014-.016-.03-.016-.017 0-.031-.007-.031-.016 0-.008-.014-.015-.03-.015-.018 0-.031-.007-.031-.016 0-.009-.014-.016-.031-.016s-.03-.007-.03-.016c0-.008-.013-.015-.028-.015-.015 0-.037-.014-.05-.032-.012-.017-.03-.031-.041-.031-.025 0-.28-.26-.28-.285 0-.01-.021-.037-.046-.062-.026-.024-.046-.053-.046-.065 0-.012-.014-.032-.03-.045-.018-.012-.032-.035-.032-.05 0-.016-.006-.028-.015-.028-.008 0-.015-.015-.015-.032s-.007-.031-.016-.031c-.008 0-.015-.015-.015-.032s-.007-.031-.015-.031c-.009 0-.016-.015-.016-.032s-.006-.032-.015-.032c-.008 0-.015-.014-.015-.03 0-.018-.007-.032-.015-.032-.009 0-.016-.022-.016-.048 0-.026-.007-.047-.015-.047-.009 0-.016-.014-.016-.031 0-.018-.006-.032-.015-.032-.008 0-.015-.021-.015-.047s-.007-.047-.015-.047c-.009 0-.016-.021-.016-.047 0-.027-.007-.048-.015-.048-.009 0-.015-.028-.015-.063 0-.034-.007-.063-.016-.063-.008 0-.015-.028-.015-.063 0-.034-.007-.063-.016-.063-.008 0-.015-.028-.015-.063 0-.034-.007-.063-.015-.063-.009 0-.015-.041-.015-.094s-.007-.095-.016-.095c-.01 0-.015-.073-.015-.188v-.19h.061c.034 0 .062.008.062.016Zm11.158.063c0 .043-.007.078-.015.078-.01 0-.016.058-.016.142 0 .084-.006.142-.015.142s-.015.035-.015.078-.007.079-.016.079c-.008 0-.015.035-.015.079 0 .043-.007.078-.015.078-.009 0-.016.022-.016.048 0 .026-.007.047-.015.047-.009 0-.015.028-.015.063 0 .034-.007.063-.016.063-.008 0-.015.021-.015.047s-.007.047-.016.047c-.008 0-.015.021-.015.047s-.007.048-.015.048c-.009 0-.015.014-.015.031s-.007.032-.016.032c-.008 0-.015.02-.015.047 0 .026-.007.047-.015.047-.009 0-.016.014-.016.031 0 .018-.007.032-.015.032s-.015.014-.015.032c0 .017-.007.031-.016.031-.008 0-.015.013-.015.028 0 .015-.014.038-.03.05-.018.013-.031.036-.031.052 0 .015-.007.027-.016.027-.008 0-.015.013-.015.028 0 .016-.014.039-.03.051-.018.013-.031.032-.031.043 0 .011-.073.095-.161.186-.088.09-.17.165-.18.165-.012 0-.03.014-.043.031-.012.018-.032.032-.046.032-.013 0-.033.014-.045.031-.013.017-.035.032-.05.032s-.027.007-.027.015c0 .01-.02.016-.046.016-.025 0-.046.007-.046.016 0 .009-.02.016-.046.016-.025 0-.046.007-.046.015 0 .01-.028.016-.061.016-.034 0-.062.007-.062.016 0 .01-.102.016-.276.016-.173 0-.275-.006-.275-.016 0-.009-.041-.016-.093-.016-.05 0-.091-.007-.091-.016 0-.008-.041-.015-.092-.015-.052 0-.092-.007-.092-.016 0-.009-.028-.016-.062-.016-.033 0-.061-.007-.061-.016 0-.008-.02-.015-.046-.015-.025 0-.046-.007-.046-.016 0-.009-.02-.016-.046-.016-.025 0-.046-.007-.046-.016 0-.008-.02-.015-.046-.015-.025 0-.046-.007-.046-.016 0-.009-.014-.016-.03-.016-.017 0-.031-.007-.031-.015 0-.01-.014-.016-.03-.016-.018 0-.032-.007-.032-.016 0-.009-.013-.016-.03-.016s-.03-.007-.03-.015c0-.01-.015-.016-.031-.016-.017 0-.031-.007-.031-.016 0-.009-.012-.016-.027-.016s-.038-.014-.05-.031c-.012-.017-.032-.032-.046-.032-.013 0-.034-.014-.046-.031-.012-.017-.03-.032-.041-.032-.011 0-.093-.074-.181-.165a1.206 1.206 0 0 1-.16-.185c0-.011-.015-.03-.031-.043a.087.087 0 0 1-.031-.067c0-.024-.007-.044-.016-.044-.008 0-.015-.02-.015-.047 0-.026-.007-.047-.015-.047-.009 0-.015-.028-.015-.063 0-.034.006-.063.015-.063.008 0 .015-.01.015-.024 0-.029.16-.196.188-.196.011 0 .03-.014.042-.032.012-.017.034-.031.05-.031.014 0 .027-.007.027-.016 0-.009.014-.016.03-.016.017 0 .031-.007.031-.015 0-.009.014-.016.03-.016.018 0 .031-.007.031-.016 0-.009.014-.016.031-.016s.03-.007.03-.015c0-.01.021-.016.047-.016.025 0 .046-.007.046-.016 0-.009.013-.016.03-.016s.03-.007.03-.015c0-.009.022-.016.047-.016s.046-.007.046-.016c0-.008.02-.016.046-.016.025 0 .046-.007.046-.015 0-.009.02-.016.046-.016.025 0 .046-.007.046-.016 0-.008.02-.015.046-.015.025 0 .046-.008.046-.016 0-.009.02-.016.046-.016.025 0 .046-.007.046-.016 0-.009.02-.016.046-.016.025 0 .046-.007.046-.015 0-.009.027-.016.061-.016s.061-.007.061-.016c0-.008.028-.015.062-.015.033 0 .061-.008.061-.016 0-.009.02-.016.046-.016.025 0 .046-.007.046-.016 0-.008.027-.015.061-.015s.062-.008.062-.016c0-.009.027-.016.06-.016.035 0 .062-.007.062-.016 0-.008.035-.015.077-.015.042 0 .076-.008.076-.016 0-.009.028-.016.062-.016.033 0 .061-.007.061-.016 0-.008.034-.015.077-.015.042 0 .076-.008.076-.016 0-.009.035-.016.077-.016.042 0 .077-.007.077-.016 0-.008.034-.015.076-.015.042 0 .077-.008.077-.016 0-.009.034-.016.077-.016.042 0 .076-.007.076-.016 0-.008.041-.015.092-.015s.092-.007.092-.016c0-.009.04-.016.092-.016.051 0 .092-.007.092-.015 0-.01.04-.016.092-.016.051 0 .092-.007.092-.016 0-.01.046-.016.107-.016s.108-.006.108-.016c0-.008.034-.015.076-.015h.077v.079Zm10.882 14.42v9.996H23.083v-.063c0-.034-.007-.063-.015-.063-.01 0-.016-.073-.016-.189 0-.115-.006-.188-.015-.188-.01 0-.015-.069-.015-.174 0-.105-.006-.173-.016-.173s-.015-.073-.015-.189c0-.115-.006-.189-.015-.189-.01 0-.016-.068-.016-.173 0-.105-.006-.173-.015-.173-.01 0-.015-.073-.015-.189 0-.115-.006-.189-.016-.189-.009 0-.015-.068-.015-.173 0-.105-.006-.173-.015-.173-.01 0-.016-.074-.016-.19 0-.114-.006-.188-.015-.188-.01 0-.015-.068-.015-.173 0-.105-.006-.173-.016-.173s-.015-.074-.015-.19c0-.115-.006-.188-.015-.188-.01 0-.016-.068-.016-.173 0-.105-.006-.173-.015-.173-.01 0-.015-.074-.015-.19 0-.115-.006-.188-.016-.188-.009 0-.015-.069-.015-.174 0-.104-.006-.173-.015-.173-.01 0-.016-.073-.016-.189 0-.115-.006-.189-.015-.189-.01 0-.015-.068-.015-.173 0-.105-.006-.173-.016-.173-.009 0-.015-.073-.015-.189 0-.115-.006-.189-.015-.189-.01 0-.016-.068-.016-.173 0-.105-.006-.173-.015-.173-.01 0-.015-.073-.015-.189 0-.115-.006-.189-.016-.189-.009 0-.015-.068-.015-.173 0-.105-.006-.173-.015-.173-.01 0-.016-.074-.016-.189s-.006-.189-.015-.189c-.01 0-.015-.068-.015-.173 0-.105-.006-.173-.016-.173-.009 0-.015-.074-.015-.19 0-.115-.006-.188-.015-.188-.01 0-.015-.068-.015-.173 0-.105-.007-.173-.016-.173-.008 0-.015-.042-.015-.095 0-.052-.007-.094-.015-.094-.009 0-.016-.022-.016-.048 0-.026-.007-.047-.015-.047-.009 0-.015-.014-.015-.031 0-.018-.007-.032-.016-.032-.008 0-.015-.014-.015-.031 0-.018-.007-.032-.016-.032-.008 0-.015-.014-.015-.031 0-.018-.007-.032-.015-.032-.009 0-.015-.01-.015-.024a.604.604 0 0 0-.115-.141.59.59 0 0 0-.138-.118c-.013 0-.023-.007-.023-.016 0-.008-.013-.015-.028-.015-.015 0-.037-.015-.049-.032a.083.083 0 0 0-.065-.032c-.023 0-.042-.007-.042-.015 0-.009-.021-.016-.046-.016-.026 0-.046-.007-.046-.016 0-.008-.035-.015-.077-.015-.042 0-.077-.008-.077-.016 0-.009-.034-.016-.076-.016-.042 0-.077.007-.077.016 0 .009-.04.016-.092.016-.05 0-.092.006-.092.015s-.02.016-.046.016c-.025 0-.046.007-.046.016 0 .008-.02.015-.046.015-.025 0-.046.008-.046.016 0 .009-.012.016-.027.016s-.037.014-.05.031c-.011.018-.03.032-.041.032-.026 0-.25.23-.25.256 0 .011-.013.03-.03.043-.017.012-.03.035-.03.05 0 .016-.008.029-.016.029-.009 0-.015.014-.015.031 0 .018-.007.032-.016.032-.008 0-.015.02-.015.047 0 .026-.007.047-.015.047-.009 0-.016.029-.016.063 0 .035-.007.063-.015.063-.01 0-.015.068-.015.173 0 .105.006.173.015.173.01 0 .015.074.015.19 0 .115.006.188.016.188.009 0 .015.068.015.173 0 .105.006.174.015.174.01 0 .015.073.015.189 0 .115.006.188.016.188s.015.069.015.174c0 .105.006.173.015.173.01 0 .016.073.016.189 0 .115.006.189.015.189.01 0 .016.073.016.188 0 .116.006.19.015.19.01 0 .015.068.015.173 0 .105.006.173.015.173.01 0 .016.073.016.189 0 .115.006.189.015.189.01 0 .015.068.015.173 0 .105.006.173.016.173s.015.073.015.189c0 .115.006.189.015.189.01 0 .016.073.016.189 0 .115.006.189.015.189.01 0 .015.068.015.173 0 .105.006.173.016.173s.015.073.015.189c0 .115.006.189.015.189.01 0 .016.068.016.173 0 .105.006.173.015.173.01 0 .015.073.015.189 0 .115.006.189.016.189.009 0 .015.068.015.173 0 .105.006.173.015.173.01 0 .016.074.016.19 0 .114.006.188.015.188.01 0 .015.074.015.189s.006.189.016.189c.009 0 .015.068.015.173 0 .105.006.173.015.173.01 0 .016.074.016.19 0 .114.006.188.015.188.01 0 .015.068.015.173 0 .105.006.173.016.173.009 0 .015.074.015.19 0 .115.006.188.015.188.01 0 .016.074.016.19 0 .114.005.188.015.188.01 0 .015.068.015.173 0 .105.006.173.016.173.009 0 .015.074.015.19 0 .115.006.188.015.188.01 0 .016.068.016.173 0 .105.006.174.015.174.01 0 .015.073.015.188 0 .116.006.19.016.19.009 0 .015.068.015.172 0 .105.006.174.015.174.01 0 .015.073.015.189 0 .115.006.188.016.188s.015.074.015.19c0 .115.006.188.015.188.01 0 .016.069.016.173 0 .106.006.174.015.174.01 0 .015.052.015.126 0 .073.007.125.016.125.008 0 .015.042.015.095s.007.094.016.094c.008 0 .015.029.015.063 0 .035.007.063.015.063.009 0 .015.022.015.048 0 .026.007.047.016.047.008 0 .015.028.015.063 0 .034.007.063.015.063.009 0 .016.021.016.047s.007.047.015.047c.009 0 .015.014.015.032 0 .017.007.031.016.031.008 0 .015.022.015.047 0 .026.007.048.015.048.009 0 .016.014.016.031s.007.032.015.032c.009 0 .015.02.015.047 0 .026.007.047.016.047.008 0 .015.014.015.032 0 .017.007.031.015.031.009 0 .016.014.016.032 0 .017.007.031.015.031s.015.014.015.032c0 .017.007.031.016.031.008 0 .015.013.015.028 0 .015.014.038.03.05.017.013.031.029.031.036 0 .006-1.524.012-3.387.012-3.377 0-3.387 0-3.387-.032 0-.017.007-.031.015-.031s.015-.014.015-.031c0-.018.007-.032.016-.032.008 0 .015-.013.015-.028 0-.015.014-.038.03-.05.018-.013.031-.036.031-.051 0-.016.007-.028.016-.028.008 0 .015-.015.015-.032s.007-.031.015-.031c.009 0 .016-.015.016-.032s.006-.031.015-.031c.008 0 .015-.022.015-.048 0-.026.007-.047.016-.047.008 0 .015-.014.015-.031 0-.018.007-.032.015-.032.009 0 .016-.014.016-.031 0-.018.007-.032.015-.032s.015-.021.015-.047.007-.047.015-.047c.009 0 .016-.022.016-.047 0-.026.007-.048.015-.048.009 0 .016-.02.016-.047 0-.026.006-.047.015-.047.008 0 .015-.029.015-.063 0-.035.007-.063.016-.063.008 0 .015-.035.015-.079 0-.043.007-.078.015-.078.009 0 .015-.043.015-.095 0-.052.007-.094.016-.094.01 0 .015-.074.015-.19 0-.115.006-.188.015-.188.01 0 .016-.074.016-.19 0-.115.006-.188.015-.188.01 0 .016-.068.016-.173 0-.105.006-.173.015-.173.01 0 .015-.074.015-.19 0-.115.006-.188.015-.188.01 0 .016-.069.016-.173 0-.105.006-.174.015-.174.01 0 .015-.073.015-.189 0-.115.006-.188.016-.188s.015-.069.015-.174c0-.105.006-.173.015-.173.01 0 .016-.073.016-.189 0-.115.006-.188.015-.188.01 0 .015-.074.015-.19 0-.115.006-.188.016-.188.009 0 .015-.069.015-.173 0-.105.006-.174.015-.174.01 0 .016-.073.016-.189 0-.115.006-.189.015-.189.01 0 .015-.068.015-.173 0-.105.006-.173.016-.173.009 0 .015-.073.015-.189 0-.115.006-.189.015-.189.01 0 .016-.068.016-.173 0-.105.006-.173.015-.173.01 0 .015-.074.015-.189s.006-.189.016-.189c.009 0 .015-.073.015-.189 0-.115.006-.189.015-.189.01 0 .016-.068.016-.173 0-.105.006-.173.015-.173.01 0 .015-.073.015-.189 0-.115.006-.189.016-.189.009 0 .015-.068.015-.173 0-.105.006-.173.015-.173.01 0 .016-.074.016-.19 0-.114.006-.188.015-.188.01 0 .015-.073.015-.189 0-.115.006-.189.016-.189.009 0 .015-.068.015-.173 0-.105.006-.173.015-.173.01 0 .016-.074.016-.19 0-.115.006-.188.015-.188.01 0 .015-.068.015-.173 0-.105.006-.173.015-.173.01 0 .016-.074.016-.19 0-.115.006-.188.015-.188.01 0 .015-.068.015-.173 0-.105.007-.173.016-.173.01 0 .015-.074.015-.19 0-.115.006-.188.016-.188.009 0 .015-.074.015-.19 0-.115.006-.188.015-.188.01 0 .015-.068.015-.173 0-.105.007-.174.016-.174.01 0 .015-.073.015-.188 0-.116.006-.19.015-.19.01 0 .016-.067.016-.172 0-.105.006-.174.015-.174.01 0 .015-.094.015-.252 0-.157-.005-.251-.015-.251-.008 0-.015-.029-.015-.063 0-.035-.007-.063-.016-.063-.008 0-.015-.022-.015-.048 0-.026-.007-.047-.015-.047-.009 0-.015-.012-.015-.028 0-.015-.014-.038-.031-.05-.017-.013-.03-.034-.03-.048 0-.013-.015-.035-.032-.047-.016-.012-.03-.032-.03-.043 0-.026-.1-.13-.124-.13-.01 0-.037-.021-.06-.047-.024-.026-.054-.047-.068-.047-.013 0-.024-.008-.024-.016 0-.009-.014-.016-.03-.016-.018 0-.031-.007-.031-.016 0-.008-.014-.016-.031-.016s-.03-.007-.03-.015c0-.009-.021-.016-.047-.016-.025 0-.046-.007-.046-.016 0-.009-.04-.015-.092-.015-.05 0-.091-.008-.091-.016 0-.009-.035-.016-.077-.016-.042 0-.077.007-.077.016 0 .009-.04.016-.092.016-.05 0-.092.006-.092.015s-.02.016-.046.016c-.025 0-.046.007-.046.016 0 .008-.013.015-.03.015s-.031.008-.031.016c0 .009-.014.016-.03.016-.018 0-.031.007-.031.016 0 .008-.013.015-.028.015-.015 0-.037.015-.049.032-.012.017-.031.031-.042.031a.484.484 0 0 0-.157.159c0 .01-.02.037-.046.062-.026.024-.046.055-.046.069 0 .014-.007.025-.015.025-.009 0-.016.014-.016.032 0 .017-.007.031-.015.031-.009 0-.015.021-.015.047s-.007.048-.016.048c-.008 0-.015.02-.015.047 0 .026-.007.047-.016.047-.008 0-.015.053-.015.126 0 .073-.006.126-.015.126-.01 0-.015.073-.015.189 0 .115-.006.189-.016.189s-.015.068-.015.173c0 .105-.006.173-.015.173-.01 0-.016.074-.016.19 0 .114-.006.188-.015.188-.01 0-.015.068-.015.173 0 .105-.007.173-.016.173-.01 0-.015.074-.015.19 0 .115-.006.188-.015.188-.01 0-.016.068-.016.173 0 .105-.006.173-.015.173-.01 0-.015.074-.015.19 0 .115-.006.188-.016.188-.009 0-.015.069-.015.173 0 .106-.006.174-.015.174-.01 0-.016.073-.016.189 0 .115-.006.189-.015.189-.01 0-.015.068-.015.173 0 .105-.006.173-.016.173-.009 0-.015.073-.015.189 0 .115-.006.189-.015.189-.01 0-.016.068-.016.173 0 .105-.006.173-.015.173-.01 0-.015.074-.015.189s-.006.189-.016.189c-.009 0-.015.068-.015.173 0 .105-.006.173-.015.173-.01 0-.016.074-.016.19 0 .114-.006.188-.015.188-.01 0-.015.068-.015.173 0 .105-.006.173-.016.173-.009 0-.015.074-.015.19 0 .115-.006.188-.015.188-.01 0-.016.068-.016.173 0 .105-.006.173-.015.173-.01 0-.015.074-.015.19 0 .115-.006.188-.016.188-.009 0-.015.069-.015.173 0 .105-.006.174-.015.174-.01 0-.016.073-.016.189 0 .115-.005.188-.015.188-.01 0-.015.066-.015.167 0 .123-.006.172-.022.189-.019.02-.838.022-5.993.022H1.962V19.017h33.076v9.997Z" fill="#fff"/></svg>