<svg width="137" height="32" viewBox="0 0 137 32" fill="none" xmlns="http://www.w3.org/2000/svg"><path d="M1.203 1.06h28.529c.664 0 1.203.52 1.203 1.16v5.417c0 .722-.325 1.405-.89 1.877L14.093 22.4h15.64c.664 0 1.203.51 1.203 1.152v6.218c0 .641-.539 1.162-1.203 1.162H1.203C.539 30.932 0 30.41 0 29.77v-5.408c0-.721.324-1.404.889-1.877L16.842 9.6H1.203C.539 9.6 0 9.068 0 8.426V2.221c0-.642.539-1.162 1.203-1.162ZM50.821 0c3.3 0 6.24.716 8.695 2.025 2.455 1.308 4.425 3.21 5.78 5.58 1.356 2.37 2.097 5.21 2.097 8.395 0 3.185-.741 6.024-2.097 8.394-1.355 2.37-3.325 4.272-5.78 5.58C57.061 31.285 54.12 32 50.821 32c-3.298 0-6.24-.716-8.694-2.025-2.456-1.309-4.425-3.21-5.78-5.58-1.356-2.37-2.098-5.21-2.098-8.395 0-3.185.742-6.024 2.098-8.395 1.355-2.37 3.325-4.272 5.78-5.58C44.582.716 47.522 0 50.82 0Zm0 8.533c-1.578 0-2.963.322-4.109.92a6.425 6.425 0 0 0-2.671 2.58c-.62 1.106-.953 2.443-.953 3.967 0 1.523.333 2.86.953 3.967a6.425 6.425 0 0 0 2.671 2.58c1.146.598 2.531.92 4.11.92 1.577 0 2.962-.322 4.108-.92a6.426 6.426 0 0 0 2.672-2.58c.62-1.106.953-2.444.953-3.967 0-1.524-.333-2.861-.953-3.967a6.426 6.426 0 0 0-2.672-2.58c-1.146-.598-2.531-.92-4.109-.92ZM86.175 0c3.3 0 6.24.716 8.695 2.025 2.455 1.308 4.425 3.21 5.78 5.58 1.356 2.37 2.097 5.21 2.097 8.395 0 3.185-.741 6.024-2.097 8.394-1.355 2.37-3.325 4.272-5.78 5.58C92.415 31.285 89.474 32 86.175 32c-3.298 0-6.24-.716-8.694-2.025-2.456-1.309-4.425-3.21-5.78-5.58-1.356-2.37-2.098-5.21-2.098-8.395 0-3.185.742-6.024 2.098-8.395 1.355-2.37 3.324-4.272 5.78-5.58C79.936.716 82.877 0 86.175 0Zm0 8.533c-1.578 0-2.963.322-4.109.92a6.42 6.42 0 0 0-2.671 2.58c-.62 1.106-.953 2.443-.953 3.967 0 1.523.333 2.86.953 3.967a6.42 6.42 0 0 0 2.671 2.58c1.146.598 2.531.92 4.11.92 1.577 0 2.962-.322 4.108-.92a6.427 6.427 0 0 0 2.672-2.58c.62-1.106.953-2.444.953-3.967 0-1.524-.333-2.861-.953-3.967a6.427 6.427 0 0 0-2.672-2.58c-1.146-.598-2.531-.92-4.109-.92ZM137 2.225V29.77c0 .641-.539 1.16-1.202 1.16h-5.607a2.61 2.61 0 0 1-1.944-.857l-13.347-15.4V29.77c0 .641-.55 1.16-1.215 1.16h-6.424c-.665 0-1.203-.519-1.203-1.16V2.225c0-.642.538-1.162 1.203-1.162h5.606c.748 0 1.455.313 1.945.858l13.346 15.406V2.225c0-.642.529-1.162 1.193-1.162h6.447c.663 0 1.202.52 1.202 1.162Z" fill="#fff"/></svg>