<svg width="58" height="41" fill="none" xmlns="http://www.w3.org/2000/svg"><g clip-path="url(#a)"><path fill-rule="evenodd" clip-rule="evenodd" d="M12.61.859c-1.904.221-3.655 1.497-4.523 3.295-.575 1.191-.624 1.495-.66 4.07-.036 2.558.044 3.412.424 4.55.634 1.898 1.738 3.273 3.208 3.994 1.581.775 3.785.76 5.449-.037 1.74-.834 2.91-2.652 3.478-5.403.255-1.232.21-4.43-.082-5.72-.286-1.267-.812-2.222-1.721-3.123-.687-.682-1.272-1.052-2.128-1.346-.91-.314-2.233-.421-3.445-.28Zm21.044 0c-1.148.078-2.354.572-3.293 1.346-1.145.944-1.863 2.408-2.075 4.227-.136 1.177-.052 4.502.135 5.334.42 1.864 1.347 3.536 2.417 4.359 1.806 1.39 4.578 1.613 6.649.536 2.016-1.05 3.233-3.445 3.491-6.874.087-1.15.003-2.937-.183-3.91-.345-1.8-1.197-3.16-2.524-4.03-1.001-.657-1.67-.88-2.877-.955a33.62 33.62 0 0 1-.87-.063c-.1-.01-.49.003-.87.03ZM12.89 19.378c-.448.171-.744.439-.88.796-.11.289-.114.38-.032.767.102.481.374 1.1.77 1.753l.256.421-.505 1.466c-.685 1.986-.962 2.688-1.03 2.615-.054-.056-.54-1.54-1.81-5.534-.683-2.147-.722-2.248-.87-2.248-.233 0-2.658 1.26-4.57 2.375C1.79 23.208.765 24.228.346 25.65c-.14.475-.228 2.368-.298 6.434L0 34.857h19.372l.001-4.114c.001-2.38.032-4.328.075-4.621a7.29 7.29 0 0 1 .614-2.03c.299-.625 1.214-1.69 1.96-2.283l.538-.427-.525-.286a103.77 103.77 0 0 0-1.286-.684c-.418-.22-1.046-.55-1.393-.735-.348-.184-.68-.334-.738-.334-.11 0-.23.354-1.787 5.292-.447 1.416-.838 2.601-.868 2.635-.03.034-.128-.13-.217-.363-.204-.535-.9-2.495-1.144-3.224l-.186-.554.364-.606c.944-1.576.947-2.49.008-3.001-.322-.175-.48-.212-.999-.23-.416-.013-.708.015-.9.088Zm20.942-.032c-.59.142-1.048.695-1.048 1.264 0 .41.353 1.369.727 1.975l.343.556-.42 1.2c-.457 1.306-.786 2.198-.977 2.646-.098.23-.134.264-.187.17-.036-.064-.536-1.58-1.111-3.368-1.081-3.358-1.4-4.3-1.484-4.392-.094-.102-3.822 1.881-5.474 2.912-1.739 1.084-2.517 1.898-2.918 3.05-.253.727-.312 1.869-.314 6.072l-.002 3.426h9.026c4.965 0 9.026-.02 9.026-.042 0-.024-.19-.276-.423-.562-.782-.961-1.31-1.718-1.586-2.277-.25-.504-.274-.61-.274-1.141 0-.809.263-1.345 1.005-2.05.675-.641 1.33-.98 1.975-1.02.786-.05 1.287.24 4.259 2.472.951.714 1.755 1.27 1.786 1.237.03-.034.582-.661 1.224-1.394l1.17-1.333-.002-.914c-.002-1.862-.505-3.294-1.496-4.258-.709-.688-4.003-2.66-6.785-4.06l-.493-.249-.067.178c-.037.098-.316.971-.62 1.94-.696 2.228-1.829 5.645-1.917 5.785-.054.085-.082.068-.142-.088-.118-.311-.686-1.891-1.055-2.936l-.34-.96.257-.423c.413-.679.764-1.473.814-1.838.137-1.007-.424-1.55-1.676-1.62-.28-.016-.64.003-.8.042Zm22.054 3.194c-.395.261-1.556 1.55-5.119 5.683-4.046 4.693-4.733 5.473-4.821 5.473-.085 0-.616-.394-3.12-2.317-2.057-1.579-2.597-1.924-3.015-1.924a.854.854 0 0 0-.601.206c-.4.305-.843.898-.843 1.128 0 .391.674 1.362 3.497 5.032 3.177 4.13 3.794 4.835 4.238 4.835a.5.5 0 0 0 .299-.13c.857-.858 11.44-16.08 11.587-16.669.07-.276-.157-.639-.624-.996-.469-.36-.81-.547-1.001-.547-.075 0-.29.101-.477.226Z" fill="#fff"/></g><defs><clipPath id="a"><path fill="#fff" d="M0 0h58v40.745H0z"/></clipPath></defs></svg>