<svg width="87" height="80" viewBox="0 0 87 80" fill="none" xmlns="http://www.w3.org/2000/svg"><g filter="url(#a)"><path fill-rule="evenodd" clip-rule="evenodd" d="M27.45 25.461c0 .806.182 1.365.72 1.886.338.327.447.095.591.597.347 1.204.507 1.544 1.334 2.235.986.824.866 1.177.866 2.418 0 .34-.22.722-.409.951-.097.119-.121.177-.227.283-1.318 1.318-3.97 1.531-5.272 2.26-.952.532-1.434.971-1.626 2.112-.196 1.167-.298 2.805.064 3.96.162.519.33.583 1.027.729.945.197 1.961.376 2.983.471 2.185.206 4.102.505 6.405.505 1.519 0 2.149.013 3.684-.11.164-.013.34.007.504-.006l4.477-.45v-7.986c-.238-.02-.645-.155-.856-.22a21.67 21.67 0 0 1-.808-.268c-1.012-.352-2.058-.986-2.315-2.103-.128-.559-.07-1.34.168-1.844.174-.37.803-.802 1.133-1.075.726-.6.851-2.017 1.092-2.193.128-.093.195-.07.355-.21.795-.699 1-1.999.573-2.869-.34-.693-.265.09-.36-1.735-.015-.262-.07-.71-.114-.963-.329-1.906-.834-3.775-2.458-4.848-2.263-1.495-5.547-1.864-7.884-.452-1.936 1.17-2.706 3.089-3.022 5.36-.097.7-.093 1.19-.111 1.984-.013.579-.514.475-.514 1.581Z" fill="#fff"/></g><g filter="url(#b)"><path fill-rule="evenodd" clip-rule="evenodd" d="M15.84 14.248v30.357c0 .492.22 1.231.378 1.603.531 1.252 1.72 2.758 3.302 2.758h23.73c0-.356-.339-1.972-.339-2.832H21.219c-.343 0-.786-.166-1.017-.286-.16-.083-.628-.413-.753-.549-.42-.456-.778-1.18-.778-1.827V15.267c0-1.28 1.34-2.492 2.775-2.492h42.08c1.651 0 2.877 1.161 3 2.721.062.798.002 4.641.002 5.774v11.554l2.832 1.813V16.4c0-2.264.452-4.137-1.815-5.491-.678-.406-1.704-.909-2.773-.909H19.407c-1.765 0-3.568 2.387-3.568 4.248Z" fill="#fff"/></g><g filter="url(#c)"><path fill-rule="evenodd" clip-rule="evenodd" d="M58.372 56.215c-3.217 0-6.47-1.441-8.383-3.964l-1.265-1.963c-.14-.285-.258-.604-.368-.878-1.326-3.303-.741-7.282 1.375-10.105.256-.341.923-1.156 1.222-1.384.498-.38.53-.544 1.45-1.155a10.47 10.47 0 0 1 1.688-.917c1.112-.463 1.91-.646 3.107-.801 1.877-.243 3.757.21 5.455.915 1.734.72 3.162 2.066 4.263 3.553 1.249 1.687 1.934 3.93 1.934 6.278 0 1.622-.462 3.12-.964 4.247-.357.803-.97 1.705-1.52 2.388l-.954.97c-.428.359-.413.44-1.093.89-1.797 1.19-3.708 1.926-5.947 1.926Zm12.97-11.27v.735c-.004 1.14-.046 2.036-.403 3.28-.12.419-.239.82-.382 1.203-.653 1.755-1.979 3.921-3.423 5.129-1.896 1.585-3.074 2.299-5.54 3.012-1.212.35-2.121.398-3.23.403h-.841c-1.61 0-3.73-.647-5.079-1.322-4.268-2.137-7.325-6.453-7.325-11.818 0-3.434 1.411-6.82 3.81-9.217a13.331 13.331 0 0 1 5.004-3.151c3.664-1.285 7.968-.813 11.247 1.257l1.387.99 1.22 1.159c1.425 1.421 2.65 3.62 3.136 5.586.203.822.419 1.766.419 2.753Z" fill="#3D5F95"/></g><g filter="url(#d)"><path fill-rule="evenodd" clip-rule="evenodd" d="m56.73 48.795-1.203-1.119c-.162-.15-.26-.199-.426-.367l-1.187-1.134c-.162-.155-.262-.2-.427-.366l-.793-.737c-.27-.271-.486-.56-.914-.672-.904-.236-1.733.352-1.733 1.337 0 .516.313.795.58 1.062.137.136.254.272.4.394l3.848 3.57c.172.174.238.217.422.371.608.508.719 1.003 1.716 1.003.808 0 1.354-1.054 1.917-1.821l1.06-1.432c.194-.257.34-.47.527-.72l4.798-6.529c1.102-1.51-.517-2.84-1.724-2.063-.332.213-2.727 3.57-3.236 4.296-.14.197-.284.375-.438.582-.165.222-.285.401-.452.623-.167.222-.286.403-.453.624l-1.82 2.484c-.153.209-.325.41-.462.614Z" fill="#3D5F95"/></g><g filter="url(#e)"><path fill-rule="evenodd" clip-rule="evenodd" d="M44.1 21.044c0 .556.46 1.076 1.02 1.076h15.008c1.348 0 1.408-2.266-.113-2.266H45.346c-.75 0-1.246.437-1.246 1.19Z" fill="#fff"/></g><g filter="url(#f)"><path fill-rule="evenodd" clip-rule="evenodd" d="M44.1 26.48c0 .7.494 1.19 1.076 1.19h14.896c.726 0 1.076-.566 1.076-1.302 0-.416-.548-.963-.963-.963H45.176c-.578 0-1.076.497-1.076 1.076Z" fill="#fff"/></g><g filter="url(#g)"><path fill-rule="evenodd" clip-rule="evenodd" d="M44.1 32.03c0 .287.08.517.236.728.252.339.606.462 1.124.462h3.511c.561 0 1.016-.157 1.258-.61a1.123 1.123 0 0 0-.253-1.415c-.243-.21-.572-.297-1.005-.297H45.46c-.781 0-1.36.44-1.36 1.133Z" fill="#fff"/></g><defs><filter id="a" x="8.235" y="6.41" width="49.351" height="58.248" filterUnits="userSpaceOnUse" color-interpolation-filters="sRGB"><feFlood flood-opacity="0" result="BackgroundImageFix"/><feColorMatrix in="SourceAlpha" values="0 0 0 0 0 0 0 0 0 0 0 0 0 0 0 0 0 0 127 0" result="hardAlpha"/><feOffset dy="5.775"/><feGaussianBlur stdDeviation="7.507"/><feComposite in2="hardAlpha" operator="out"/><feColorMatrix values="0 0 0 0 0 0 0 0 0 0 0 0 0 0 0 0 0 0 0.15 0"/><feBlend in2="BackgroundImageFix" result="effect1_dropShadow_254_856"/><feBlend in="SourceGraphic" in2="effect1_dropShadow_254_856" result="shape"/></filter><filter id="b" x=".824" y=".76" width="83.588" height="68.995" filterUnits="userSpaceOnUse" color-interpolation-filters="sRGB"><feFlood flood-opacity="0" result="BackgroundImageFix"/><feColorMatrix in="SourceAlpha" values="0 0 0 0 0 0 0 0 0 0 0 0 0 0 0 0 0 0 127 0" result="hardAlpha"/><feOffset dy="5.775"/><feGaussianBlur stdDeviation="7.507"/><feComposite in2="hardAlpha" operator="out"/><feColorMatrix values="0 0 0 0 0 0 0 0 0 0 0 0 0 0 0 0 0 0 0.15 0"/><feBlend in2="BackgroundImageFix" result="effect1_dropShadow_254_856"/><feBlend in="SourceGraphic" in2="effect1_dropShadow_254_856" result="shape"/></filter><filter id="c" x="30.105" y="23.246" width="56.252" height="56.25" filterUnits="userSpaceOnUse" color-interpolation-filters="sRGB"><feFlood flood-opacity="0" result="BackgroundImageFix"/><feColorMatrix in="SourceAlpha" values="0 0 0 0 0 0 0 0 0 0 0 0 0 0 0 0 0 0 127 0" result="hardAlpha"/><feOffset dy="5.775"/><feGaussianBlur stdDeviation="7.507"/><feComposite in2="hardAlpha" operator="out"/><feColorMatrix values="0 0 0 0 0 0 0 0 0 0 0 0 0 0 0 0 0 0 0.15 0"/><feBlend in2="BackgroundImageFix" result="effect1_dropShadow_254_856"/><feBlend in="SourceGraphic" in2="effect1_dropShadow_254_856" result="shape"/></filter><filter id="d" x="35.032" y="30.103" width="45.664" height="42.824" filterUnits="userSpaceOnUse" color-interpolation-filters="sRGB"><feFlood flood-opacity="0" result="BackgroundImageFix"/><feColorMatrix in="SourceAlpha" values="0 0 0 0 0 0 0 0 0 0 0 0 0 0 0 0 0 0 127 0" result="hardAlpha"/><feOffset dy="5.775"/><feGaussianBlur stdDeviation="7.507"/><feComposite in2="hardAlpha" operator="out"/><feColorMatrix values="0 0 0 0 0 0 0 0 0 0 0 0 0 0 0 0 0 0 0.15 0"/><feBlend in2="BackgroundImageFix" result="effect1_dropShadow_254_856"/><feBlend in="SourceGraphic" in2="effect1_dropShadow_254_856" result="shape"/></filter><filter id="e" x="29.085" y="10.614" width="47.077" height="32.295" filterUnits="userSpaceOnUse" color-interpolation-filters="sRGB"><feFlood flood-opacity="0" result="BackgroundImageFix"/><feColorMatrix in="SourceAlpha" values="0 0 0 0 0 0 0 0 0 0 0 0 0 0 0 0 0 0 127 0" result="hardAlpha"/><feOffset dy="5.775"/><feGaussianBlur stdDeviation="7.507"/><feComposite in2="hardAlpha" operator="out"/><feColorMatrix values="0 0 0 0 0 0 0 0 0 0 0 0 0 0 0 0 0 0 0.15 0"/><feBlend in2="BackgroundImageFix" result="effect1_dropShadow_254_856"/><feBlend in="SourceGraphic" in2="effect1_dropShadow_254_856" result="shape"/></filter><filter id="f" x="29.085" y="16.165" width="47.077" height="32.295" filterUnits="userSpaceOnUse" color-interpolation-filters="sRGB"><feFlood flood-opacity="0" result="BackgroundImageFix"/><feColorMatrix in="SourceAlpha" values="0 0 0 0 0 0 0 0 0 0 0 0 0 0 0 0 0 0 127 0" result="hardAlpha"/><feOffset dy="5.775"/><feGaussianBlur stdDeviation="7.507"/><feComposite in2="hardAlpha" operator="out"/><feColorMatrix values="0 0 0 0 0 0 0 0 0 0 0 0 0 0 0 0 0 0 0.15 0"/><feBlend in2="BackgroundImageFix" result="effect1_dropShadow_254_856"/><feBlend in="SourceGraphic" in2="effect1_dropShadow_254_856" result="shape"/></filter><filter id="g" x="29.085" y="21.658" width="36.304" height="32.352" filterUnits="userSpaceOnUse" color-interpolation-filters="sRGB"><feFlood flood-opacity="0" result="BackgroundImageFix"/><feColorMatrix in="SourceAlpha" values="0 0 0 0 0 0 0 0 0 0 0 0 0 0 0 0 0 0 127 0" result="hardAlpha"/><feOffset dy="5.775"/><feGaussianBlur stdDeviation="7.507"/><feComposite in2="hardAlpha" operator="out"/><feColorMatrix values="0 0 0 0 0 0 0 0 0 0 0 0 0 0 0 0 0 0 0.15 0"/><feBlend in2="BackgroundImageFix" result="effect1_dropShadow_254_856"/><feBlend in="SourceGraphic" in2="effect1_dropShadow_254_856" result="shape"/></filter></defs></svg>