<svg width="46" height="43" viewBox="0 0 46 43" fill="none" xmlns="http://www.w3.org/2000/svg"><path fill-rule="evenodd" clip-rule="evenodd" d="M22.723.018c-6.197.038-6.867.053-7.106.155-.55.237-.73.53-.861 1.411-.117.787-.252 1.242-.543 1.836-.617 1.258-1.492 2.132-2.827 2.82-.532.274-.699.436-.887.86-.162.365-.171.747-.038 1.654a26.47 26.47 0 0 0 2.214 7.44c2.023 4.31 5.077 7.56 9.052 9.633 1.287.67 1.272.67 2.52-.021 2.887-1.603 5.211-3.713 7.05-6.401 2.105-3.079 3.569-7.09 4.056-11.113.062-.517.063-.746.002-1.025-.109-.494-.495-.935-1.04-1.184-1.175-.539-2.257-1.59-2.825-2.745-.233-.474-.477-1.254-.534-1.707-.132-1.053-.45-1.495-1.16-1.616-.127-.021-3.31-.02-7.073.003Zm6.901 1.676c.189 1.45.915 2.96 1.937 4.03.569.593 1.055.96 1.861 1.402l.638.35-.017.437c-.022.572-.296 2.163-.55 3.194-1.512 6.133-4.997 10.889-9.921 13.539l-.618.332-.86-.473c-4.09-2.252-7.108-5.802-8.909-10.484-.73-1.899-1.326-4.31-1.478-5.981l-.042-.453.46-.231a7.353 7.353 0 0 0 3.526-3.906 9.769 9.769 0 0 0 .427-1.7l.042-.32 1.368-.019c.752-.01 3.78-.027 6.73-.035l5.363-.016.043.334Zm-8.157.88c-3.537.033-3.886.046-4.082.155-.275.154-.381.325-.616.995-.585 1.674-1.693 3.132-3.097 4.076-.52.35-.667.572-.667 1.006 0 .59.41 2.438.585 2.64.18.205.455.32.654.271.247-.06.352-.154.457-.41.079-.194.068-.303-.101-1.014a18.825 18.825 0 0 1-.23-1.066l-.039-.27.463-.338c.651-.474 1.68-1.574 2.16-2.312.413-.632.768-1.335 1.015-2.01l.136-.37 3.201-.017a1397.3 1397.3 0 0 1 4.76-.017h1.559l.183.48c.663 1.742 1.926 3.337 3.495 4.415.146.1.147.107.051.608-.053.278-.142.704-.198.945-.152.658-.136.855.09 1.086.25.257.575.267.854.027.207-.178.32-.55.57-1.89.212-1.134.126-1.383-.67-1.931-1.357-.936-2.583-2.54-3.062-4.006-.343-1.05-.49-1.12-2.282-1.102l-5.19.05Zm5.212 5.574c-.113.063-.885 1.189-2.173 3.171-1.1 1.69-2.028 3.073-2.065 3.073-.037 0-.353-.281-.703-.625-1.654-1.63-1.622-1.603-1.913-1.603-.372 0-.602.213-.653.603l-.04.3 1.35 1.342c.741.739 1.464 1.432 1.606 1.541.301.231.675.265.889.08.075-.065 1.149-1.681 2.387-3.591 1.598-2.465 2.25-3.527 2.25-3.66 0-.29-.13-.515-.366-.63-.262-.126-.343-.126-.57 0Zm3.765 5.133c-.134.075-.323.401-.769 1.331-1.498 3.123-3.338 5.289-6.02 7.081l-.686.46-.305-.178c-1.383-.807-3.009-2.186-4.025-3.415-1.24-1.498-1.991-2.734-2.957-4.863-.16-.353-.436-.492-.77-.39a.65.65 0 0 0-.478.638c.001.116.17.57.375 1.008 1.667 3.567 3.923 6.153 7.054 8.083 1.1.678 1.217.662 2.758-.38 2.21-1.494 4.062-3.504 5.475-5.94.646-1.115 1.287-2.545 1.287-2.872a.626.626 0 0 0-.411-.594c-.259-.092-.31-.09-.528.031ZM1.427 21.306c-.454.166-.86.6-.982 1.052-.041.15-.065 3.525-.065 9.186v8.946l.154.338c.18.393.52.724.88.854.363.13 6.285.133 6.646.003.305-.11.714-.51.874-.855.067-.144.137-.456.156-.692.028-.362.05-.424.14-.388 1.961.798 8.102 3.118 8.436 3.187.577.118 1.194.079 3.008-.191.745-.111 1.563-.23 1.817-.265a407.56 407.56 0 0 0 2.744-.403c1.254-.187 3.426-.507 4.826-.712 1.4-.203 2.782-.433 3.072-.51 1.01-.265 1.942-.741 2.63-1.344.995-.872 8.835-8.108 8.994-8.302.807-.985.833-2.44.06-3.482-.677-.914-2.017-1.322-3.06-.932-.233.086-2.014 1.26-4.79 3.152l-4.419 3.014-.5-.001c-.275 0-.7-.02-.946-.044-.415-.04-.446-.054-.446-.204 0-.33-.215-1.21-.393-1.605-.486-1.085-1.47-1.942-2.563-2.232-.21-.056-2.464-.284-5.01-.507-3.491-.305-4.75-.439-5.123-.543-.506-.142-1.904-.822-3.802-1.85-1.495-.81-2.743-1.211-4.207-1.354l-.44-.043-.027-1.059c-.022-.819-.055-1.124-.147-1.346-.145-.353-.6-.775-.95-.882-.388-.119-6.238-.106-6.567.014Zm6.287 1.387c.044.084.069 1.026.069 2.595v2.464l.171.208c.138.167.222.207.434.207.588 0 .717-.257.717-1.425v-.822l.486.045c.624.058 1.682.32 2.339.58.282.11.945.45 1.472.752 1.408.808 2.956 1.577 3.582 1.78.497.161 1.015.22 5.425.608l4.875.43.462.218c.553.26 1.053.764 1.297 1.309.176.392.343 1.153.27 1.228-.025.025-2.862.221-6.307.436l-6.262.391-.3-.135a2.2 2.2 0 0 1-.538-.373c-.168-.167-.32-.25-.51-.275-.236-.032-.294-.012-.47.169-.762.778.754 2.049 2.31 1.936.273-.02 1.537-.095 2.81-.168 1.272-.072 2.76-.162 3.305-.2a518.6 518.6 0 0 1 2.611-.17c.89-.056 2.066-.136 2.611-.178.67-.053 1.442-.06 2.38-.02a62.33 62.33 0 0 0 1.686.053c.28-.003.554-.18 4.76-3.064 2.914-2 4.585-3.105 4.819-3.189 1.159-.412 2.24.803 1.732 1.947-.097.217-1.092 1.168-4.632 4.423-2.48 2.28-4.663 4.249-4.85 4.373a5.35 5.35 0 0 1-1.48.69c-.731.213-14.319 2.175-14.804 2.137-.327-.026-1.265-.363-4.743-1.707l-4.336-1.675V34.4c0-4.129-.008-4.232-.32-4.403a1.03 1.03 0 0 0-.397-.073c-.212 0-.296.04-.434.208l-.171.207v4.95c0 4.1-.016 4.963-.09 5.026-.065.055-.913.072-3.025.059l-2.934-.018-.017-8.804c-.012-6.451.003-8.83.058-8.896.06-.075.613-.092 2.973-.092 2.797 0 2.9.004 2.966.13ZM4.01 34.535c-.664.192-1.211.666-1.527 1.32-.124.26-.15.426-.152.955-.002.557.022.693.175 1.026.33.722.951 1.198 1.762 1.352.755.143 1.68-.232 2.162-.875.37-.494.511-.97.477-1.604-.033-.627-.188-1.016-.588-1.48-.525-.61-1.543-.916-2.309-.694Zm1.09 1.416c.483.282.639.896.358 1.407-.152.277-.56.533-.847.533-.495 0-.992-.53-.992-1.057 0-.542.473-1.034.992-1.034.127 0 .347.068.489.15Z" fill="#fff"/></svg>