<svg width="37" height="52" fill="none" xmlns="http://www.w3.org/2000/svg"><path fill-rule="evenodd" clip-rule="evenodd" d="m19.787 40.906 1.57-3.62c.082-.184.146-.364.226-.532l.959.04c.58 0 1.293-.228 1.77-.466a4.772 4.772 0 0 0 1.295-.982c.194-.21.32-.407.466-.652.31-.519.506-.874 1.02-1.216.36-.24.726-.264.84-.318.117.221.226.429.325.673l.474 1.043c.058.117.1.243.158.36l.973 2.103c.51 1.011.978 2.184 1.463 3.169l1.467 3.165c.11.255.21.479.33.707-.442 0-5.9-.057-6.185.044-.241.086-.392.173-.546.372-.14.18-.254.31-.387.492l-2.824 3.485c-.015-.175-.135-.339-.194-.485l-.416-.981c-.081-.19-.136-.313-.217-.502l-2.567-5.899Zm-5.83 7.867-3.19-3.96c-.383-.48-.796-.433-1.323-.433h-5.39c.052-.225.193-.48.292-.705.38-.856.942-1.95 1.287-2.785l.65-1.387c.38-.926.998-2.151 1.443-3.15L9.165 33.2c.45 0 .954.334 1.188.569.415.415.68 1.104 1.098 1.538l.44.437c.33.279.66.507 1.068.69 1.087.489 2.44.52 3.628.036.75-.305 1.309-.974 2.482-.675.177.044.324.125.478.16l-1.215 2.779c-.06.146-.12.29-.182.417-.253.508-.44 1.058-.693 1.583-.064.133-.112.252-.17.39l-.541 1.215c-.515 1.257-1.189 2.742-1.75 4-.06.13-.11.255-.167.393l-.873 2.042Zm.878-46.56c.989 0 1.232.597 2.621.972.95.256 2.169.124 3.037-.307.59-.293.964-.666 1.81-.666.865 0 1.542.486 1.948 1.166.628 1.05 1.246 1.783 2.42 2.252 1.547.619 2.672-.056 3.689.984.265.271.44.598.563.993.133.424.058.972.117 1.441.067.533.131.82.303 1.254.317.799.848 1.449 1.517 1.957.087.065.148.1.24.16.543.363.898.445 1.294 1.061.796 1.237.16 2.088-.285 2.975-.725 1.442-.566 2.969.2 4.338.081.144.141.24.213.386.56 1.141.074 2.375-.892 2.944-.644.379-1.248.78-1.693 1.38l-.554.965c-.167.401-.27.746-.328 1.228-.092.756.098 1.75-.636 2.48-1.396 1.385-2.563.09-4.649 1.54-1.27.883-1.414 1.956-2.15 2.483-.561.401-.84.438-1.478.438-1.196 0-1.372-1.078-3.753-1.078-.645 0-1.367.207-1.811.425-.148.072-.207.126-.358.2-.732.363-.651.453-1.625.453-.496 0-.999-.322-1.284-.553-.462-.373-.67-1.065-1.161-1.594l-.691-.666c-.116-.088-.168-.117-.29-.19-2.325-1.392-3.555-.033-4.713-1.716a2.254 2.254 0 0 1-.292-.626c-.271-.87.355-3.347-2.377-4.97-.199-.118-.393-.222-.567-.352-.666-.494-1.164-1.524-.76-2.585.08-.21.205-.42.314-.606.838-1.442.876-3.232.025-4.654a5.15 5.15 0 0 1-.333-.626c-.396-.984-.017-1.979.76-2.613.261-.212.728-.41 1.113-.724.91-.743 1.538-1.749 1.674-2.958.115-1.011-.153-2.501 1.56-3.113.466-.167 1.076-.122 1.668-.168.29-.022.845-.169 1.117-.282.505-.209 1.035-.49 1.433-.882l.437-.482c.464-.542.638-1.178 1.203-1.592.39-.285.739-.473 1.404-.473Zm3.793-1.079c-1.378 0-1.906-1.078-3.514-1.078-1.314 0-2.148.212-3.149 1.003-.908.718-.963 1.376-1.612 2.022-.485.482-.905.616-1.588.649l-1.287.11c-.83.19-1.49.517-2.098 1.057-.111.1-.156.099-.255.224-.202.253-.4.465-.57.747-.072.12-.103.187-.17.31-.066.12-.086.159-.146.293-.706 1.584.086 2.723-1.154 3.878-.592.551-1.963.91-2.66 2.77C0 14.253.094 15.593.574 16.633c.487 1.056.99 1.467.462 2.728-.358.855-.896 1.307-.896 2.777 0 .655.171 1.318.364 1.792.151.37.372.707.622 1.016C2.22 26.302 3.2 26.132 3.683 27.34c.444 1.11-.177 1.827.81 3.542.222.384.664.91 1.014 1.183.31.242 1.01.68 1.421.775-.049.21-2.697 5.856-2.889 6.256-.069.144-.1.244-.172.386-.074.146-.11.244-.174.386-.117.26-.255.525-.364.793-.053.13-.111.24-.18.384-.073.151-.116.253-.187.407l-.892 1.944c-.227.45-.852 1.633-.852 2.063 0 .363.173.648.368.83.195.18.514.29.908.29l6.072-.002c.467 0 .73-.121.999.239.174.233.35.426.53.668l1.084 1.351c.695.925 1.466 1.786 2.16 2.712.462.616 1.506.505 1.836-.158.359-.72.65-1.45.967-2.188l.484-1.112c.44-1.086.99-2.223 1.455-3.298.087-.202.153-.36.24-.559.08-.19.18-.366.228-.57.128.094.19.355.25.508l1.705 3.885c.472 1.079.937 2.262 1.451 3.301.33.667 1.307.838 1.814.241l2.695-3.374c.19-.218.344-.437.527-.671.096-.122.176-.216.268-.331.55-.691.319-.644 1.193-.644h6.11c.71.004 1.357-.294 1.357-1.078 0-.48-.754-1.952-.998-2.436l-1.079-2.356c-.465-1.045-1.013-2.078-1.454-3.138l-2.006-4.343a2.204 2.204 0 0 1-.173-.426c.561-.046 1.527-.808 1.91-1.283 1.997-2.473.214-3.986 2.21-5.258.709-.451 1.237-.78 1.739-1.456.964-1.3 1.132-3.178.397-4.648-.326-.652-.626-.977-.626-1.85 0-1.174 1.59-2.168.943-4.737a3.966 3.966 0 0 0-.669-1.447c-.076-.1-.141-.199-.225-.294-.26-.295-.504-.549-.831-.766-.656-.435-1.336-.746-1.666-1.529-.417-.988.1-1.872-.76-3.473-.67-1.251-2.039-2.174-3.502-2.287-1.158-.09-1.94.05-2.69-1.024-.155-.222-.273-.435-.415-.663-.869-1.39-2.382-2.16-4.238-2.026-1.065.076-1.496.493-2.292.862-.238.11-.536.213-.866.213Z" fill="#fff"/><path fill-rule="evenodd" clip-rule="evenodd" d="M17.51 24.854c-.229-.154-.603-.545-.89-.787l-6.298-5.643c-.06.091-.09.108-.17.19-.09.094-.098.127-.18.22-.062.07-.112.11-.18.179l-.907 1.049.57.509c.337.343 1.223 1.084 1.695 1.538l2.544 2.288c.482.373 1.43 1.303 2.008 1.786L17.1 27.46c.114.116.787.72.889.748.028-.107.22-.39.295-.503l1.604-2.509c.22-.361.444-.674.654-1.023l2.574-4.015c.116-.178.196-.316.311-.487.114-.17.218-.335.325-.515.21-.355.414-.655.642-.995l3.536-5.528c.109-.182.206-.346.321-.518l-1.385-.891c-.167-.099-.302-.223-.492-.267-.034.13-5.814 9.126-6.077 9.536-.1.157-.187.27-.285.434l-1.946 3.046c-.09.149-.185.283-.279.44-.082.137-.187.305-.278.44Z" fill="#3D5F95"/></svg>