<svg width="45" height="42" viewBox="0 0 45 42" fill="none" xmlns="http://www.w3.org/2000/svg"><path fill-rule="evenodd" clip-rule="evenodd" d="m21.888.208-.218.208v10.423h-1.91c-2.501 0-2.347-.116-2.347 1.75v1.334l-1.624-1.542c-1.474-1.399-1.653-1.542-1.929-1.542-.285 0-.728.404-6.892 6.288L.38 23.415v18.169l.218.208.217.208h26.097l.218-.208.218-.208V29.806h16.596l.218-.207.218-.208V4.45l-2.33-2.225L39.718 0H22.106l-.218.208Zm16.814 2.971c0 2.437-.206 2.24 2.347 2.24h1.912v20.322H27.348v-2.317l-1.42-1.363-1.42-1.364v-9.443l-.217-.207c-.179-.171-.306-.208-.71-.208h-.491V1.355h15.612v1.824Zm2.351.039.884.847h-1.815v-.847c0-.466.01-.847.024-.847.013 0 .421.381.907.847Zm-16.544.17v.677h12.774V2.71H24.51v.677Zm0 2.709v.677h12.774V5.42H24.51v.678Zm0 2.71v.677H41.54V8.129H24.51v.677Zm15.326 3.364-1.13 1.077-.425-.4c-.235-.22-.466-.4-.515-.4-.117 0-.925.784-.925.897 0 .049.354.419.786.823 1.128 1.053 1.01 1.081 2.867-.68.82-.778 1.492-1.456 1.492-1.506 0-.113-.817-.89-.935-.89-.048 0-.594.486-1.215 1.079Zm-16.745 3.6v3.576l-2.13-2.03-2.129-2.031v-3.092h4.259v3.576Zm-3.172 2.498 6.01 5.737v16.64h-6.387V26.157l-.218-.208-.217-.208H8.622l-.218.208-.218.208v14.487H1.8V24.006l6.01-5.737c3.305-3.155 6.03-5.737 6.054-5.737.025 0 2.75 2.582 6.055 5.737Zm6.01-4.043v.677h9.936v-1.355h-9.936v.678Zm13.907 2.01-1.13 1.077-.425-.4c-.235-.22-.466-.4-.515-.4-.117 0-.925.784-.925.897 0 .048.354.418.786.823 1.128 1.053 1.01 1.08 2.867-.68.82-.779 1.492-1.456 1.492-1.506 0-.113-.817-.89-.935-.89-.048 0-.594.485-1.215 1.078ZM25.928 18.29v.678h9.936v-1.355h-9.936v.677Zm13.907 2.01-1.13 1.077-.425-.4c-.235-.22-.466-.4-.515-.4-.117 0-.925.784-.925.897 0 .049.354.419.786.823 1.128 1.053 1.01 1.081 2.867-.68.82-.778 1.492-1.456 1.492-1.506 0-.113-.817-.89-.935-.89-.048 0-.594.486-1.215 1.079Zm-11.068 2.055v.677h7.097v-1.355h-7.097v.678ZM18.122 33.87v6.774H9.606V27.097h8.516v6.774Zm24.839-6.097v.678H27.348v-1.355H42.96v.677Zm-31.936 6.774v.678h1.42V33.87h-1.42v.677Z" fill="#fff"/></svg>