<svg width="68" height="26" viewBox="0 0 68 26" fill="none" xmlns="http://www.w3.org/2000/svg">
<g clip-path="url(#clip0_470_16553)">
<path fill-rule="evenodd" clip-rule="evenodd" d="M60.264 0.00905291C60.2563 0.016804 60.1266 0.0293264 59.9756 0.0369001C59.5259 0.0594439 59.2634 0.0935345 59.2158 0.135589C59.1869 0.161113 59.1852 0.31539 59.1852 2.90636C59.1852 5.54193 59.1864 5.65126 59.2172 5.67946C59.2433 5.70341 59.2886 5.70882 59.463 5.70882C59.5807 5.70882 59.7099 5.71618 59.7502 5.72517C59.7906 5.73418 59.8826 5.75142 59.9547 5.76352C60.2372 5.81082 60.5789 5.95059 60.8205 6.11764C60.9674 6.21925 61.2178 6.47513 61.3143 6.62228C61.5903 7.04334 61.7067 7.62625 61.6366 8.23635C61.5981 8.57067 61.5173 8.93753 61.4334 9.15867C61.4112 9.21721 61.36 9.35226 61.3196 9.45878C61.2374 9.67558 60.9892 10.1883 60.8681 10.3914C60.7374 10.6106 60.4836 10.9896 60.3158 11.2162C60.1241 11.4749 60.0749 11.5349 59.6749 11.9972C58.8054 13.0023 56.473 15.3675 54.4545 17.2911C54.2651 17.4716 53.9977 17.727 53.8602 17.8587C53.7227 17.9904 53.4864 18.2139 53.335 18.3553C53.1837 18.4968 52.9634 18.7043 52.8456 18.8165C52.7277 18.9287 52.5229 19.1202 52.3903 19.2422C51.9934 19.6073 51.9761 19.6255 51.9824 19.6712L51.9882 19.7122L52.4604 19.7087C52.7201 19.7068 53.1845 19.6967 53.4923 19.6864C53.8001 19.6761 54.2881 19.6597 54.5766 19.65C54.8652 19.6402 55.3414 19.6243 55.6348 19.6147C55.9282 19.605 56.4043 19.5891 56.6929 19.5793C58.5501 19.5164 59.3086 19.4917 59.8331 19.4772L60.3148 19.4639L60.384 19.4075C60.608 19.2249 62.4972 17.2406 62.9979 16.6619C63.0893 16.5563 63.2153 16.4126 63.2778 16.3427C63.8056 15.7522 64.7238 14.5837 65.1737 13.9299C65.4065 13.5916 65.5517 13.3734 65.6418 13.2264C65.8415 12.9005 66.0879 12.4841 66.1754 12.3247C66.2758 12.1417 66.619 11.4491 66.686 11.2943C67.0333 10.4917 67.1829 10.0523 67.3786 9.25922C67.4578 8.9385 67.5149 8.67067 67.5465 8.47136C67.5555 8.41526 67.571 8.3195 67.5812 8.25852C67.6094 8.08814 67.6329 7.91506 67.6515 7.73971C67.6609 7.65191 67.6775 7.49627 67.6885 7.39384C67.7264 7.04163 67.7097 6.1512 67.6589 5.81524C67.6538 5.7811 67.6412 5.69729 67.631 5.629C67.5333 4.97562 67.2103 4.02942 66.9072 3.50942C66.876 3.45577 66.8089 3.34003 66.7582 3.25224C66.5216 2.84244 65.97 2.14575 65.6826 1.89369C65.2585 1.5217 64.9027 1.24962 64.6259 1.08548C64.5337 1.03085 64.415 0.960167 64.3621 0.928417C63.6757 0.516545 62.5984 0.179382 61.6075 0.0663436C61.2086 0.0208304 60.2909 -0.0182976 60.264 0.00905291ZM57.9609 0.294336C57.3209 0.44526 56.7735 0.626178 56.1332 0.898371C55.9178 0.989965 55.3358 1.29247 55.1101 1.43022C54.1693 2.00426 53.3658 2.75691 52.7579 3.63358C52.6451 3.79627 52.6012 3.86597 52.4394 4.13909C52.2041 4.53624 52.1761 4.59039 51.9491 5.08802C51.6789 5.6801 51.358 6.77029 51.2442 7.48252C51.217 7.65282 51.1917 7.80736 51.1731 7.91708C51.1402 8.11176 51.1017 8.46526 51.068 8.88375C51.0581 9.00569 51.0464 9.53954 51.0419 10.0701C51.0343 10.9744 51.0358 11.0369 51.0647 11.0694C51.0987 11.1074 51.1704 11.107 51.6121 11.0657C51.7228 11.0554 51.9038 11.0393 52.0144 11.0299C52.2179 11.0127 52.463 10.9907 52.8058 10.9588C53.2109 10.921 53.3953 10.9044 53.5885 10.888C53.6991 10.8787 53.8762 10.863 53.982 10.8531C54.0878 10.8433 54.2629 10.8272 54.3711 10.8173C54.4794 10.8074 54.6565 10.7912 54.7647 10.7812C54.8729 10.7713 55.0519 10.7555 55.1626 10.7461C55.2732 10.7368 55.4542 10.7209 55.5648 10.7108C55.6754 10.7007 55.8486 10.6851 55.9496 10.6762C56.3742 10.6385 56.3605 10.6495 56.343 10.3612C56.3361 10.2461 56.3301 9.94842 56.3299 9.69965C56.329 8.82653 56.4109 8.20045 56.6005 7.63329C56.6761 7.40707 56.8717 7.0193 56.9944 6.85266C57.2478 6.5083 57.6743 6.16847 58.0424 6.01755C58.2249 5.94275 58.2058 6.28187 58.2058 3.11607C58.2058 1.23098 58.1999 0.321083 58.1877 0.297847C58.1662 0.257212 58.1213 0.25652 57.9609 0.294336ZM48.9677 2.17088C48.9626 2.17608 48.8963 2.1883 48.8205 2.19802C48.7447 2.20774 48.6295 2.22343 48.5646 2.23289C48.4996 2.24236 48.3914 2.25808 48.3241 2.26783C48.2567 2.27759 48.1466 2.29355 48.0792 2.3033C48.0119 2.31306 47.9017 2.32902 47.8344 2.33878C47.767 2.34853 47.6549 2.36483 47.5851 2.37498C47.5154 2.38514 47.3993 2.40077 47.3272 2.40973C47.255 2.41868 47.1389 2.43431 47.0692 2.44447C46.9994 2.45462 46.8873 2.47092 46.82 2.48067C46.7526 2.49043 46.6424 2.50639 46.5751 2.51615C46.5078 2.5259 46.3976 2.54187 46.3302 2.55162C46.2629 2.56138 46.1527 2.57734 46.0854 2.5871C46.0181 2.59685 45.9079 2.61282 45.8405 2.62257C45.7732 2.63233 45.663 2.64829 45.5957 2.65805C45.5283 2.6678 45.4162 2.6841 45.3465 2.69425C45.2767 2.70441 45.1606 2.72004 45.0885 2.72899C45.0163 2.73795 44.9003 2.75358 44.8305 2.76374C44.7608 2.77389 44.6486 2.79019 44.5813 2.79994C44.5139 2.8097 44.4038 2.82566 44.3364 2.83542C44.2691 2.84517 44.1589 2.86113 44.0916 2.87089C44.0242 2.88065 43.914 2.89661 43.8467 2.90636C43.7794 2.91612 43.6692 2.93208 43.6019 2.94184C43.5345 2.95159 43.4243 2.96756 43.357 2.97731C43.2897 2.98707 43.1775 3.00337 43.1078 3.01351C43.038 3.02368 42.9219 3.0393 42.8498 3.04826C42.7777 3.05722 42.6616 3.07284 42.5918 3.08301C42.5221 3.09315 42.4119 3.10921 42.347 3.11868C42.282 3.12813 42.1699 3.14353 42.0977 3.15289C41.9498 3.17208 41.9098 3.18402 41.866 3.22221C41.8371 3.24736 41.8354 3.38798 41.8354 5.70882C41.8354 8.13138 41.8359 8.16925 41.8697 8.20031C41.8983 8.22649 41.9227 8.22989 42.014 8.22038C42.0745 8.21409 42.1987 8.20135 42.2901 8.19209C42.3815 8.18283 42.5291 8.16707 42.6181 8.15703C42.707 8.14701 42.8507 8.13081 42.9372 8.12106C43.0238 8.1113 43.1655 8.09534 43.2521 8.08558C43.3386 8.07583 43.4803 8.05986 43.5669 8.05011C43.6535 8.04035 43.7932 8.02453 43.8773 8.01495C43.9615 8.00537 44.1051 7.98927 44.1965 7.97916C44.2879 7.96905 44.4315 7.95294 44.5157 7.94337C44.5999 7.93379 44.7396 7.91797 44.8261 7.90821C44.9127 7.89846 45.0524 7.88264 45.1366 7.87306C45.4526 7.83709 45.6268 7.81804 45.7881 7.80179C45.9445 7.78602 46.0661 7.77268 46.4308 7.73116C46.515 7.72158 46.6566 7.70562 46.7456 7.69569C46.8346 7.68575 46.9763 7.66979 47.0604 7.66021C47.2553 7.63804 47.4841 7.61225 47.6901 7.58926C47.7791 7.57933 47.9227 7.56323 48.0093 7.55347C48.0958 7.54372 48.2375 7.52775 48.3241 7.518C48.4106 7.50824 48.5543 7.49203 48.6433 7.48197C48.7323 7.47192 48.8562 7.45959 48.9187 7.45455C49.0759 7.44192 49.1069 7.43362 49.1465 7.39339C49.1806 7.35884 49.1811 7.32369 49.1811 4.78924C49.1811 2.32283 49.1798 2.21895 49.1491 2.19076C49.1191 2.16327 48.9892 2.14903 48.9677 2.17088ZM40.7817 3.34229C40.7762 3.34793 40.706 3.3596 40.6258 3.36824C40.5456 3.37687 40.4229 3.39222 40.3531 3.40235C40.2834 3.41246 40.1712 3.42872 40.1039 3.43848C40.0366 3.44823 39.9264 3.46419 39.8591 3.47395C39.7917 3.48371 39.6815 3.49967 39.6142 3.50942C39.5469 3.51918 39.4367 3.53514 39.3693 3.5449C39.302 3.55465 39.1918 3.57062 39.1245 3.58037C39.0572 3.59013 38.947 3.60609 38.8796 3.61585C38.8123 3.6256 38.7002 3.6419 38.6304 3.65205C38.5607 3.66221 38.4446 3.67784 38.3724 3.68679C38.3003 3.69575 38.1842 3.71138 38.1145 3.72154C38.0447 3.73169 37.9326 3.74799 37.8652 3.75774C37.7979 3.7675 37.6877 3.78346 37.6204 3.79322C37.553 3.80297 37.4429 3.81894 37.3755 3.82869C37.3082 3.83845 37.198 3.85441 37.1307 3.86416C37.0633 3.87392 36.9531 3.88988 36.8858 3.89964C36.8185 3.90939 36.7083 3.92536 36.6409 3.93511C36.5736 3.94487 36.4615 3.96113 36.3917 3.97124C36.322 3.98137 36.202 3.99663 36.125 4.00517C35.9709 4.02226 35.9301 4.03386 35.8845 4.07359C35.8554 4.09891 35.8539 4.64225 35.8539 15.0208C35.8539 25.5779 35.855 25.9423 35.8859 25.9706C35.9153 25.9977 36.1132 26 38.3755 26C40.7341 26 40.8342 25.9987 40.862 25.9676C40.8889 25.9375 40.8909 25.1268 40.8909 14.6612V3.38727L40.8521 3.35967C40.8099 3.32971 40.7972 3.32657 40.7817 3.34229ZM27.1398 5.29336C27.1342 5.299 27.064 5.31067 26.9838 5.31931C26.9036 5.32795 26.7809 5.34329 26.7112 5.35342C26.6414 5.36353 26.5293 5.3798 26.4619 5.38955C26.3946 5.39931 26.2844 5.41527 26.2171 5.42502C26.1497 5.43478 26.0396 5.45074 25.9722 5.4605C25.9049 5.47025 25.7947 5.48622 25.7274 5.49597C25.66 5.50573 25.5498 5.52169 25.4825 5.53145C25.4152 5.5412 25.305 5.55717 25.2377 5.56692C25.1703 5.57668 25.0582 5.59298 24.9884 5.60312C24.9187 5.61329 24.8026 5.62891 24.7305 5.63787C24.6583 5.64683 24.5422 5.66245 24.4725 5.67262C24.4027 5.68276 24.2906 5.69906 24.2233 5.70882C24.1559 5.71857 24.0457 5.73454 23.9784 5.74429C23.9111 5.75405 23.8009 5.77001 23.7335 5.77977C23.6662 5.78952 23.556 5.80548 23.4887 5.81524C23.4213 5.825 23.3131 5.84028 23.2482 5.84921C23.0681 5.87397 23.0105 5.88858 22.9771 5.91797C22.948 5.94355 22.9465 6.44308 22.9465 15.9431C22.9465 25.6067 22.9476 25.9423 22.9785 25.9706C23.0079 25.9976 23.1827 26 25.1358 26C27.1725 26 27.2622 25.9987 27.29 25.9676C27.3168 25.9375 27.3189 25.1947 27.3189 15.6385C27.3189 5.68579 27.3179 5.34086 27.2869 5.31248C27.2563 5.28437 27.1609 5.27197 27.1398 5.29336ZM21.2413 6.13616C21.1835 6.14416 21.0792 6.15902 21.0095 6.1692C20.9398 6.17938 20.8276 6.1957 20.7603 6.20546C20.693 6.21521 20.5828 6.23117 20.5154 6.24093C20.4481 6.25068 20.3359 6.26698 20.2662 6.27713C20.1965 6.28729 20.0804 6.30292 20.0082 6.31188C19.9361 6.32083 19.82 6.33646 19.7503 6.34662C19.6805 6.35677 19.5684 6.37307 19.501 6.38283C19.4337 6.39258 19.3235 6.40854 19.2562 6.4183C19.1888 6.42806 19.0787 6.44402 19.0113 6.45377C18.944 6.46353 18.8338 6.47949 18.7665 6.48925C18.6991 6.499 18.5889 6.51497 18.5216 6.52472C18.4543 6.53448 18.3441 6.55044 18.2768 6.5602C18.2094 6.56995 18.0973 6.58625 18.0275 6.5964C17.9578 6.60656 17.8417 6.62219 17.7695 6.63114C17.6974 6.6401 17.5813 6.65573 17.5116 6.66589C17.4418 6.67604 17.3297 6.69234 17.2623 6.70209C17.195 6.71185 17.0848 6.72781 17.0175 6.73757C16.9502 6.74732 16.84 6.76329 16.7726 6.77304C16.7053 6.7828 16.5951 6.79876 16.5278 6.80851C16.4604 6.81827 16.3483 6.83457 16.2785 6.84472C16.2088 6.85488 16.1124 6.86783 16.0643 6.8735C15.8998 6.89291 15.9156 6.66508 15.9156 9.00791C15.9156 11.0473 15.9161 11.0781 15.9502 11.1094C15.9776 11.1345 16.0004 11.1385 16.0595 11.1287C16.1006 11.1218 16.2012 11.109 16.2829 11.1C16.3647 11.0911 16.5024 11.0758 16.589 11.066C16.6756 11.0563 16.8172 11.0403 16.9038 11.0306C16.9904 11.0208 17.134 11.0047 17.223 10.9948C17.312 10.9848 17.4556 10.9687 17.5422 10.959C17.6288 10.9492 17.7724 10.9331 17.8614 10.9232C17.9504 10.9133 18.09 10.8974 18.1718 10.888C18.2536 10.8786 18.3952 10.8627 18.4866 10.8526C18.578 10.8425 18.7197 10.8265 18.8014 10.8171C19.078 10.7853 19.2818 10.7629 19.4486 10.7461C19.605 10.7304 19.7266 10.717 20.0913 10.6755C20.1755 10.6659 20.3152 10.6501 20.4018 10.6404C20.4883 10.6306 20.63 10.6146 20.7166 10.6049C21.0252 10.5701 21.1903 10.5517 21.2937 10.5405C21.3635 10.533 21.4118 10.517 21.438 10.4927L21.4774 10.4562V8.32588C21.4774 6.42653 21.4744 6.19134 21.4501 6.1562C21.4212 6.11427 21.4082 6.11303 21.2413 6.13616ZM14.9327 7.03083C14.9276 7.03603 14.8613 7.04825 14.7855 7.05797C14.7097 7.06769 14.5945 7.08339 14.5296 7.09284C14.4647 7.10231 14.3564 7.11803 14.2891 7.12778C14.2218 7.13754 14.1116 7.1535 14.0442 7.16326C13.9769 7.17301 13.8647 7.18931 13.795 7.19946C13.7253 7.20962 13.6092 7.22525 13.537 7.2342C13.4649 7.24316 13.3488 7.25879 13.2791 7.26895C13.2093 7.2791 13.0972 7.2954 13.0298 7.30515C12.9625 7.31491 12.8523 7.33087 12.785 7.34063C12.7176 7.35038 12.6075 7.36634 12.5401 7.3761C12.4728 7.38586 12.3626 7.40182 12.2953 7.41157C12.2279 7.42133 12.1177 7.43729 12.0504 7.44705C11.9831 7.4568 11.8729 7.47277 11.8056 7.48252C11.7382 7.49228 11.6271 7.50743 11.5585 7.51619C11.4826 7.52589 11.416 7.5457 11.388 7.56688L11.3421 7.60164L11.3377 16.7684C11.3336 25.2791 11.3354 25.9374 11.3623 25.9675C11.39 25.9986 11.4713 26 13.2572 26C15.0427 26 15.1244 25.9986 15.1521 25.9676C15.179 25.9375 15.1811 25.2555 15.1811 16.5126C15.1811 10.0513 15.1754 7.0792 15.163 7.05566C15.1483 7.0278 15.1258 7.02136 15.0434 7.02136C14.9877 7.02136 14.9378 7.02562 14.9327 7.03083ZM9.72078 7.77579C9.71564 7.78098 9.64941 7.7932 9.57357 7.80292C9.49774 7.81264 9.38061 7.82868 9.31327 7.83854C9.24594 7.8484 9.13182 7.86378 9.05967 7.87274C8.98753 7.88169 8.87143 7.89732 8.8017 7.90748C8.73197 7.91763 8.61981 7.93393 8.55247 7.94369C8.48513 7.95344 8.37495 7.9694 8.30761 7.97916C8.24028 7.98892 8.13009 8.00488 8.06276 8.01463C7.99542 8.02439 7.88524 8.04035 7.8179 8.05011C7.75057 8.05986 7.64038 8.07583 7.57305 8.08558C7.50571 8.09534 7.39552 8.1113 7.32819 8.12106C7.26085 8.13081 7.14871 8.14711 7.07896 8.15726C7.00921 8.16742 6.89313 8.18305 6.82099 8.192C6.74884 8.20096 6.63276 8.21659 6.56301 8.22675C6.49327 8.2369 6.38112 8.2532 6.31379 8.26295C6.24645 8.27271 6.13627 8.28867 6.06893 8.29843C6.0016 8.30818 5.89141 8.32415 5.82407 8.3339C5.75674 8.34366 5.64655 8.35962 5.57922 8.36938C5.51188 8.37913 5.4017 8.39509 5.33436 8.40485C5.26703 8.4146 5.15684 8.43057 5.08951 8.44032C5.02217 8.45008 4.91001 8.46638 4.84028 8.47652C4.77053 8.48669 4.65445 8.50231 4.5823 8.51127C4.51016 8.52023 4.39408 8.53585 4.32433 8.54602C4.25458 8.55616 4.14244 8.57246 4.0751 8.58222C4.00777 8.59198 3.89758 8.60794 3.83025 8.61769C3.76291 8.62745 3.65273 8.64341 3.58539 8.65317C3.51806 8.66292 3.40787 8.67889 3.34054 8.68864C3.2732 8.6984 3.16301 8.71436 3.09568 8.72412C3.02834 8.73387 2.91816 8.74984 2.85082 8.75959C2.78349 8.76935 2.67133 8.78565 2.60159 8.79579C2.53185 8.80595 2.41577 8.82158 2.34362 8.83054C2.27148 8.8395 2.1554 8.85512 2.08565 8.86528C2.0159 8.87543 1.90376 8.89173 1.83642 8.90149C1.76908 8.91124 1.6589 8.92721 1.59156 8.93696C1.52423 8.94672 1.41404 8.96268 1.34671 8.97243C1.27937 8.98219 1.16919 8.99815 1.10185 9.00791C1.03452 9.01766 0.924331 9.03363 0.856996 9.04338C0.789661 9.05314 0.677499 9.06944 0.607768 9.07958C0.538019 9.08975 0.421939 9.10527 0.349794 9.11408C0.115065 9.14278 0.0616862 9.15404 0.030607 9.18148C0.00183642 9.2069 0 9.31737 0 11.0299C0 12.8219 0.00055968 12.8519 0.0345947 12.8831C0.0619661 12.9082 0.0847376 12.9122 0.143905 12.9024C0.184989 12.8955 0.289455 12.8824 0.376029 12.8731C0.462603 12.8638 0.60427 12.8482 0.690844 12.8385C0.777418 12.8287 0.919084 12.8128 1.00566 12.803C1.09223 12.7932 1.2339 12.7772 1.32047 12.7673C1.40705 12.7575 1.55265 12.7419 1.64403 12.7327C1.8005 12.7169 1.92203 12.7036 2.28678 12.6621C2.37096 12.6525 2.51261 12.6365 2.60159 12.6266C2.69058 12.6167 2.83617 12.6004 2.92515 12.5905C3.13111 12.5675 3.35995 12.5417 3.55478 12.5195C3.63896 12.5099 3.77865 12.4941 3.86523 12.4844C3.9518 12.4746 4.09151 12.4588 4.17567 12.4492C4.70473 12.389 4.96 12.3608 5.14198 12.3425C5.23336 12.3333 5.38094 12.3175 5.46991 12.3075C5.55888 12.2975 5.70252 12.2813 5.78909 12.2715C5.87567 12.2618 6.01734 12.2458 6.10391 12.2361C6.19048 12.2263 6.33215 12.2103 6.41872 12.2006C6.5053 12.1908 6.64697 12.1749 6.73354 12.1651C6.82011 12.1553 6.96178 12.1394 7.04835 12.1296C7.13493 12.1199 7.2766 12.1039 7.36317 12.0942C7.44974 12.0844 7.59141 12.0684 7.67798 12.0587C7.76456 12.0489 7.90622 12.033 7.9928 12.0232C8.07937 12.0135 8.22302 11.9973 8.31199 11.9872C8.40096 11.9772 8.54853 11.9615 8.63992 11.9523C8.7313 11.9431 8.8769 11.9275 8.96348 11.9176C9.23836 11.8863 9.43108 11.8647 9.59311 11.847C9.88146 11.8156 9.92476 11.8066 9.96476 11.7696L10.0041 11.7332V9.78408C10.0041 8.4744 9.99817 7.82368 9.98601 7.80062C9.97083 7.77187 9.94866 7.76632 9.849 7.76632C9.78362 7.76632 9.72591 7.77057 9.72078 7.77579ZM46.3769 11.6448C46.3705 11.6513 46.2728 11.6635 46.1597 11.6719C46.0467 11.6803 45.8618 11.6949 45.7487 11.7044C45.557 11.7205 45.4517 11.7294 44.918 11.7745C44.8049 11.7841 44.6219 11.8002 44.5113 11.8104C44.4007 11.8205 44.2177 11.8366 44.1047 11.8462C43.9916 11.8558 43.8067 11.8714 43.6937 11.8809C43.5806 11.8905 43.3977 11.9066 43.287 11.9168C43.1764 11.9269 42.9934 11.9431 42.8804 11.9526C42.7674 11.9622 42.5785 11.9782 42.4607 11.9882C42.3428 11.9983 42.1716 12.011 42.0802 12.0164C41.9447 12.0246 41.9068 12.0332 41.8747 12.0634L41.8354 12.1003V14.6036C41.8354 16.6152 41.8398 17.1131 41.8579 17.1381C41.8874 17.1791 42.09 17.1739 43.4751 17.0962C43.6506 17.0863 43.9379 17.0702 44.1134 17.0604C44.289 17.0505 44.5782 17.0346 44.7562 17.0251C44.9341 17.0155 45.2234 16.9996 45.3989 16.9897C45.5745 16.9799 45.8578 16.9643 46.0286 16.9551C46.4926 16.93 46.5976 16.9182 46.6319 16.8874C46.6608 16.8615 46.6626 16.7146 46.6626 14.2758C46.6626 11.3221 46.6824 11.633 46.4936 11.633C46.4358 11.633 46.3833 11.6383 46.3769 11.6448ZM6.67619 12.779C6.6703 12.785 6.58832 12.7972 6.494 12.8062C6.32601 12.8222 6.1571 12.839 5.80658 12.8746C5.71039 12.8843 5.55298 12.9003 5.45679 12.9101C5.3606 12.9198 5.20517 12.9355 5.11137 12.945C5.01757 12.9545 4.86608 12.9707 4.77469 12.981C4.68331 12.9913 4.53181 13.0075 4.43801 13.017C4.12689 13.0484 3.9196 13.0695 3.74717 13.0872C3.65337 13.0968 3.52155 13.1092 3.45422 13.1146C3.28759 13.1281 3.25772 13.1359 3.21767 13.1766C3.18341 13.2113 3.18313 13.2626 3.18313 19.5764C3.18313 25.7201 3.18425 25.9423 3.21512 25.9706C3.24443 25.9976 3.39502 26 5.02259 26C6.72044 26 6.79934 25.9986 6.82702 25.9676C6.85385 25.9375 6.85597 25.4548 6.85597 19.381C6.85597 13.054 6.85487 12.8259 6.82398 12.7975C6.79292 12.769 6.69781 12.7571 6.67619 12.779ZM19.2737 14.0136C19.0692 14.0266 18.814 14.0474 18.4516 14.0807C18.341 14.0909 18.16 14.1068 18.0494 14.1162C17.9388 14.1255 17.7577 14.1415 17.6471 14.1517C17.5365 14.1618 17.3535 14.1779 17.2405 14.1875C17.1274 14.197 16.9425 14.2127 16.8295 14.2222C16.7165 14.2318 16.5374 14.2476 16.4316 14.2575C16.3258 14.2673 16.1802 14.2803 16.108 14.2863C15.8922 14.3045 15.9156 14.0404 15.9156 16.4575C15.9156 18.9116 15.8857 18.6317 16.1463 18.6138C16.3066 18.6028 16.6245 18.5848 17.2623 18.5504C17.6208 18.5312 18.0593 18.5067 18.5435 18.4789C18.719 18.4689 19.0004 18.4564 19.1687 18.4512C19.4489 18.4425 19.4781 18.4385 19.5141 18.4043L19.5535 18.3669L19.5532 16.2105C19.5531 15.0245 19.5472 14.0455 19.5401 14.0351C19.5186 14.0032 19.4826 14.0003 19.2737 14.0136ZM67.3631 20.1601C67.3559 20.1674 67.085 20.1794 66.7612 20.1868C66.4373 20.1942 65.9146 20.2081 65.5995 20.2178C64.5765 20.2493 63.8752 20.2707 63.2778 20.2887C62.6903 20.3063 62.0282 20.3265 60.9516 20.3596C60.6342 20.3694 60.1148 20.3853 59.7973 20.3951C59.4799 20.4048 58.9604 20.4208 58.643 20.4306C57.5664 20.4636 56.9044 20.4838 56.3169 20.5015C55.5839 20.5236 54.941 20.5432 52.8408 20.6078C52.5258 20.6175 52.0043 20.6331 51.6821 20.6424C51.3599 20.6517 51.049 20.6645 50.9913 20.6708C50.8056 20.691 50.8251 20.3774 50.8251 23.3394C50.8251 25.8375 50.8264 25.9425 50.8571 25.9706C50.8868 25.9979 51.5061 26 59.4156 26C67.6537 26 67.9431 25.9989 67.9711 25.9676C67.9977 25.9377 68 25.7112 68 23.0703C68 20.3174 67.9988 20.2043 67.968 20.1761C67.9411 20.1514 67.892 20.1468 67.6561 20.1468C67.5022 20.1468 67.3703 20.1528 67.3631 20.1601ZM48.894 20.7277C48.8868 20.735 48.6159 20.747 48.292 20.7544C47.9682 20.7618 47.4454 20.7757 47.1304 20.7854C46.8154 20.7951 46.2979 20.811 45.9805 20.8208C45.663 20.8305 45.1436 20.8465 44.8261 20.8563C44.5087 20.866 43.9893 20.882 43.6718 20.8917C43.3544 20.9015 42.8355 20.9155 42.5187 20.9228C41.9711 20.9354 41.9404 20.9379 41.8935 20.9735L41.8441 21.0109L41.8397 23.4729C41.8356 25.745 41.8375 25.9375 41.8643 25.9675C41.8922 25.9988 42.0255 26 45.5082 26C48.9881 26 49.1243 25.9988 49.1521 25.9676C49.1788 25.9377 49.1811 25.7309 49.1811 23.3541C49.1811 20.4039 49.2009 20.7144 49.0121 20.7144C48.9543 20.7144 48.9012 20.7204 48.894 20.7277ZM33.8878 21.1888C33.8806 21.1961 33.6097 21.2082 33.2859 21.2156C32.962 21.2229 32.4393 21.2369 32.1242 21.2466C31.8092 21.2563 31.2917 21.2722 30.9743 21.2819C30.6568 21.2917 30.1354 21.3078 29.8156 21.3177C29.4958 21.3276 29.002 21.3399 28.7184 21.3451C28.2229 21.3541 28.2012 21.3559 28.1631 21.3922L28.1235 21.43V23.6857C28.1235 25.8483 28.1248 25.9425 28.1554 25.9706C28.185 25.9977 28.4289 26 31.3096 26C34.3121 26 34.4329 25.9988 34.4608 25.9676C34.4874 25.9377 34.4897 25.7469 34.4897 23.5847C34.4897 21.3301 34.4884 21.233 34.4577 21.2049C34.431 21.1803 34.383 21.1755 34.1633 21.1755C34.019 21.1755 33.895 21.1815 33.8878 21.1888ZM21.1553 21.579C21.1481 21.5863 20.8772 21.5984 20.5534 21.6058C19.9948 21.6185 19.5476 21.6312 18.2112 21.6721C17.8913 21.6819 17.3719 21.6976 17.0568 21.7071C16.081 21.7365 15.9805 21.7425 15.9462 21.7738C15.9174 21.8002 15.9156 21.9229 15.9156 23.8716C15.9156 25.8541 15.917 25.9425 15.9476 25.9706C15.9771 25.9977 16.1932 26 18.6995 26C21.3124 26 21.4206 25.9987 21.4484 25.9676C21.475 25.9378 21.4774 25.7611 21.4774 23.789V21.6429L21.4369 21.6043C21.4039 21.5728 21.3754 21.5657 21.2824 21.5657C21.2197 21.5657 21.1625 21.5717 21.1553 21.579Z" fill="white"/>
</g>
<defs>
<clipPath id="clip0_470_16553">
<rect width="68" height="26" fill="white"/>
</clipPath>
</defs>
</svg>
