<svg width="61" height="61" viewBox="0 0 61 61" fill="none" xmlns="http://www.w3.org/2000/svg"><g clip-path="url(#a)"><g filter="url(#b)"><path fill-rule="evenodd" clip-rule="evenodd" d="M31.067 34.59c-9.19 0-15.106-6.063-15.106-15.485 0-7.077 6.231-13.595 15.106-13.595 7.606 0 13.973 6.329 13.973 15.106 0 7.336-6.679 13.973-13.973 13.973ZM27.668 2.11c-5.092 0-4.419-1.564-7.452.096-3.56 1.947-1.375 6.438-6.645 9.22-6.824 3.605-1.009 8.006-1.009 10.7 0 3.374-2.11 7.739 1.646 10.061 1.707 1.057 3.156.492 5.176 2 2.595 1.936 1.395 6.066 8.284 6.066 2.07 0 2.394-1.68 4.936-2.27 4.49-1.043 4.184 2.61 8.836-.575 3.363-2.303 1.078-5.675 5.118-8.1 2.215-1.328 3.318-1.417 3.964-4.757.652-3.367-2.083-3.626-2.083-6.957 0-6.033 2.07-8.51-4.2-10.53-2.002-.644-3.484-1.494-4.476-3.075C37.45.305 37.88.224 33.747.223h-.414c-2.18 0-2.403 1.888-5.665 1.888Z" fill="#fff"/></g><g filter="url(#c)"><path fill-rule="evenodd" clip-rule="evenodd" d="m28.516 26.751-5.844-6.05 2.44-2.264 3.609 3.393 8.678-8.478 2.05 2.284L28.516 26.75Zm-11.045-6.89c0 2.805 1.016 5.528 2.203 7.238 3.062 4.409 7.748 6.612 13.24 5.564 2.545-.486 4.608-1.567 6.519-3.304 8.353-7.59 2.248-22.338-8.744-22.338-3.617 0-7.295 1.772-9.174 3.665-1.926 1.94-4.044 5.486-4.044 9.175Z" fill="#3D5F95"/></g><g filter="url(#d)"><path fill-rule="evenodd" clip-rule="evenodd" d="M33.71 44.786c.302 1.293 1.07 2.545 1.673 3.992.64 1.533 1.187 2.71 1.831 4.211.639 1.48 2.64 6.543 3.727 7.787.566-2.983 2.21-7.336 2.966-9.948 2.514.21 6.806 3.452 9.819 4.154L47.306 39.5c-1.247.333-.505.165-1.468.798-3.363 2.212-7.871 4.489-12.128 4.489Z" fill="#fff"/></g><g filter="url(#e)"><path fill-rule="evenodd" clip-rule="evenodd" d="M8.785 54.982c3.744-.872 6.076-3.282 9.82-4.154.573 1.196 1.108 3.413 1.556 4.863.454 1.467 1.116 3.46 1.464 4.956 1.085-.794 3.107-6.105 3.723-7.607l3.012-6.807c.36-.823.11.17.441-1.07-2.215 0-5.648-.956-7.4-1.662-1.106-.446-2.013-.924-3.052-1.481-1.233-.663-1.796-1.406-3.143-1.766l-3.152 7.423c-1.207 2.494-2.046 4.994-3.269 7.305Z" fill="#fff"/></g></g><defs><filter id="b" x="-2.748" y="-7.777" width="66.37" height="66.031" filterUnits="userSpaceOnUse" color-interpolation-filters="sRGB"><feFlood flood-opacity="0" result="BackgroundImageFix"/><feColorMatrix in="SourceAlpha" values="0 0 0 0 0 0 0 0 0 0 0 0 0 0 0 0 0 0 127 0" result="hardAlpha"/><feOffset dy="5"/><feGaussianBlur stdDeviation="6.5"/><feComposite in2="hardAlpha" operator="out"/><feColorMatrix values="0 0 0 0 0 0 0 0 0 0 0 0 0 0 0 0 0 0 0.15 0"/><feBlend in2="BackgroundImageFix" result="effect1_dropShadow_254_903"/><feBlend in="SourceGraphic" in2="effect1_dropShadow_254_903" result="shape"/></filter><filter id="c" x="4.471" y="-.979" width="51.853" height="51.9" filterUnits="userSpaceOnUse" color-interpolation-filters="sRGB"><feFlood flood-opacity="0" result="BackgroundImageFix"/><feColorMatrix in="SourceAlpha" values="0 0 0 0 0 0 0 0 0 0 0 0 0 0 0 0 0 0 127 0" result="hardAlpha"/><feOffset dy="5"/><feGaussianBlur stdDeviation="6.5"/><feComposite in2="hardAlpha" operator="out"/><feColorMatrix values="0 0 0 0 0 0 0 0 0 0 0 0 0 0 0 0 0 0 0.15 0"/><feBlend in2="BackgroundImageFix" result="effect1_dropShadow_254_903"/><feBlend in="SourceGraphic" in2="effect1_dropShadow_254_903" result="shape"/></filter><filter id="d" x="20.71" y="31.499" width="46.016" height="47.278" filterUnits="userSpaceOnUse" color-interpolation-filters="sRGB"><feFlood flood-opacity="0" result="BackgroundImageFix"/><feColorMatrix in="SourceAlpha" values="0 0 0 0 0 0 0 0 0 0 0 0 0 0 0 0 0 0 127 0" result="hardAlpha"/><feOffset dy="5"/><feGaussianBlur stdDeviation="6.5"/><feComposite in2="hardAlpha" operator="out"/><feColorMatrix values="0 0 0 0 0 0 0 0 0 0 0 0 0 0 0 0 0 0 0.15 0"/><feBlend in2="BackgroundImageFix" result="effect1_dropShadow_254_903"/><feBlend in="SourceGraphic" in2="effect1_dropShadow_254_903" result="shape"/></filter><filter id="e" x="-4.215" y="32.254" width="46.016" height="46.393" filterUnits="userSpaceOnUse" color-interpolation-filters="sRGB"><feFlood flood-opacity="0" result="BackgroundImageFix"/><feColorMatrix in="SourceAlpha" values="0 0 0 0 0 0 0 0 0 0 0 0 0 0 0 0 0 0 127 0" result="hardAlpha"/><feOffset dy="5"/><feGaussianBlur stdDeviation="6.5"/><feComposite in2="hardAlpha" operator="out"/><feColorMatrix values="0 0 0 0 0 0 0 0 0 0 0 0 0 0 0 0 0 0 0.15 0"/><feBlend in2="BackgroundImageFix" result="effect1_dropShadow_254_903"/><feBlend in="SourceGraphic" in2="effect1_dropShadow_254_903" result="shape"/></filter><clipPath id="a"><path fill="#fff" d="M0 0h61v61H0z"/></clipPath></defs></svg>