<svg width="64" height="64" fill="none" xmlns="http://www.w3.org/2000/svg"><path d="M32 62.386c16.782 0 30.386-13.604 30.386-30.386S48.782 1.614 32 1.614 1.614 15.218 1.614 32 15.218 62.386 32 62.386ZM55.441 13.11 11.243 54.852" stroke="red" stroke-width="2"/><path fill-rule="evenodd" clip-rule="evenodd" d="M32.44 19.428c0 .008-.057.012-.145.012s-.144.005-.144.013c0 .007-.04.012-.097.012-.056 0-.096.005-.096.012s-.036.012-.084.012c-.048 0-.084.005-.084.012s-.033.013-.073.013c-.04 0-.072.005-.072.012s-.027.012-.06.012-.06.006-.06.012c0 .007-.027.013-.06.013-.034 0-.06.005-.06.012 0 .006-.022.012-.049.012-.026 0-.048.006-.048.012 0 .007-.022.012-.048.012-.027 0-.048.006-.048.013 0 .006-.022.012-.048.012-.027 0-.049.005-.049.012s-.021.012-.048.012c-.026 0-.048.006-.048.012 0 .007-.016.013-.036.013-.02 0-.036.005-.036.012s-.022.012-.048.012c-.027 0-.048.006-.048.012 0 .007-.017.013-.037.013-.02 0-.036.005-.036.012s-.016.012-.036.012c-.02 0-.036.006-.036.012 0 .007-.016.012-.036.012-.02 0-.036.006-.036.013 0 .006-.01.012-.024.012-.013 0-.024.005-.024.012s-.016.012-.036.012c-.02 0-.036.006-.036.012 0 .007-.017.013-.037.013-.02 0-.036.005-.036.012s-.01.012-.024.012c-.013 0-.024.006-.024.012 0 .007-.016.013-.036.013-.02 0-.036.005-.036.012s-.01.012-.024.012c-.013 0-.024.006-.024.012 0 .007-.016.012-.036.012-.02 0-.036.006-.036.013 0 .006-.011.012-.024.012-.014 0-.024.005-.024.012s-.011.012-.025.012c-.013 0-.024.006-.024.013 0 .006-.01.012-.024.012-.013 0-.024.005-.024.012s-.016.012-.036.012c-.02 0-.036.006-.036.012 0 .007-.01.013-.024.013-.013 0-.024.005-.024.012 0 .006-.011.012-.024.012-.013 0-.024.005-.024.012s-.011.013-.024.013c-.014 0-.024.005-.024.012 0 .006-.011.012-.024.012-.014 0-.025.005-.025.012s-.01.012-.024.012c-.013 0-.024.006-.024.013 0 .006-.01.012-.024.012-.013 0-.024.005-.024.012s-.01.012-.021.012c-.012 0-.03.011-.039.025-.01.013-.027.024-.039.024s-.021.005-.021.012-.011.012-.024.012c-.014 0-.024.006-.024.013 0 .006-.01.012-.022.012-.012 0-.029.01-.039.024-.01.014-.027.025-.038.025-.012 0-.022.005-.022.012s-.01.012-.021.012c-.012 0-.03.011-.039.025-.01.013-.027.024-.039.024-.011 0-.021.006-.021.012 0 .007-.01.012-.022.012-.011 0-.029.011-.038.025-.01.013-.026.024-.036.024-.01 0-.027.011-.037.025-.01.013-.025.024-.036.024-.01 0-.026.011-.036.025-.01.013-.026.024-.036.024-.01 0-.026.011-.036.024-.01.014-.025.025-.034.025-.009 0-.032.016-.05.037-.019.02-.041.036-.05.036-.01 0-.025.011-.035.025-.009.013-.024.024-.033.024-.01 0-.037.022-.063.049-.025.027-.052.049-.06.049s-.035.022-.06.049a.226.226 0 0 1-.06.049.279.279 0 0 0-.073.06.284.284 0 0 1-.071.062c-.008 0-.073.06-.145.134a1.135 1.135 0 0 1-.145.134c-.017 0-.048.031-.048.049 0 .007-.076.09-.168.183a1.821 1.821 0 0 0-.169.184.394.394 0 0 1-.072.085.381.381 0 0 0-.072.086.196.196 0 0 1-.048.06c-.027.027-.049.054-.049.062s-.016.03-.036.049c-.02.018-.036.04-.036.049 0 .008-.016.03-.036.048-.02.02-.036.042-.036.051 0 .01-.01.025-.024.035-.013.01-.024.026-.024.037 0 .01-.01.027-.024.036-.013.01-.024.026-.024.037 0 .01-.011.027-.024.037-.014.01-.024.026-.024.036 0 .01-.011.027-.024.037-.014.01-.024.026-.024.036 0 .01-.011.027-.025.037-.013.01-.024.026-.024.037 0 .01-.01.027-.024.036-.013.01-.024.028-.024.04s-.005.021-.012.021-.012.01-.012.022c0 .012-.01.03-.024.04-.013.01-.024.027-.024.039s-.005.021-.012.021-.012.012-.012.025c0 .013-.006.024-.012.024-.007 0-.012.01-.012.022 0 .012-.011.03-.024.04-.014.01-.024.027-.024.039s-.006.021-.012.021c-.007 0-.012.012-.012.025 0 .013-.006.024-.012.024-.007 0-.012.011-.012.025 0 .013-.006.024-.013.024-.006 0-.012.011-.012.025 0 .013-.005.024-.012.024-.006 0-.012.011-.012.025 0 .013-.005.024-.012.024-.006 0-.012.011-.012.024 0 .014-.005.025-.012.025-.006 0-.012.01-.012.024s-.005.025-.012.025c-.006 0-.012.01-.012.024s-.005.024-.012.024-.012.017-.012.037c0 .02-.005.037-.012.037s-.012.01-.012.024-.005.025-.012.025-.012.01-.012.024-.005.024-.012.024-.012.011-.012.025c0 .013-.006.024-.012.024-.007 0-.012.017-.012.037 0 .02-.006.037-.012.037-.007 0-.012.01-.012.024s-.006.025-.012.025c-.007 0-.012.016-.012.036 0 .02-.006.037-.012.037-.007 0-.012.01-.012.024s-.006.025-.013.025c-.006 0-.012.016-.012.036 0 .02-.005.037-.012.037-.006 0-.012.016-.012.037 0 .02-.005.036-.012.036-.006 0-.012.017-.012.037 0 .02-.005.037-.012.037-.006 0-.012.016-.012.036 0 .02-.005.037-.012.037-.006 0-.012.016-.012.037 0 .02-.005.036-.012.036-.006 0-.012.017-.012.037 0 .02-.005.036-.012.036s-.012.022-.012.05c0 .026-.005.048-.012.048s-.012.017-.012.037c0 .02-.005.037-.012.037s-.012.021-.012.048-.005.05-.012.05-.012.021-.012.048-.006.049-.012.049c-.007 0-.012.022-.012.049 0 .027-.006.049-.012.049-.007 0-.012.027-.012.06 0 .034-.006.062-.012.062-.007 0-.012.027-.012.06 0 .034-.006.062-.012.062-.007 0-.012.032-.012.073 0 .04-.006.073-.012.073-.007 0-.013.037-.013.086 0 .049-.005.085-.012.085s-.012.041-.012.098-.005.098-.012.098-.012.061-.012.159c0 .097-.004.158-.012.158s-.012.371-.012 1.088v1.087h-.096c-.056 0-.096.005-.096.012s-.032.012-.073.012c-.04 0-.072.005-.072.012s-.027.012-.06.012-.06.006-.06.013c0 .006-.022.012-.048.012-.027 0-.048.005-.048.012s-.022.012-.049.012c-.026 0-.048.006-.048.013 0 .006-.016.012-.036.012-.02 0-.036.005-.036.012s-.016.012-.036.012c-.02 0-.036.006-.036.012 0 .007-.016.013-.036.013-.02 0-.036.005-.036.012s-.017.012-.037.012c-.02 0-.036.006-.036.012 0 .007-.01.012-.024.012-.013 0-.024.006-.024.013 0 .007-.016.012-.036.012-.02 0-.036.006-.036.012 0 .007-.01.012-.024.012-.013 0-.024.006-.024.013 0 .006-.01.012-.024.012-.013 0-.024.005-.024.012s-.011.012-.024.012c-.014 0-.024.006-.024.012 0 .007-.011.013-.024.013-.014 0-.025.005-.025.012s-.01.012-.024.012c-.013 0-.024.006-.024.012 0 .007-.01.012-.021.012-.012 0-.03.011-.039.025-.01.013-.027.024-.039.024-.011 0-.021.006-.021.013 0 .006-.01.012-.021.012-.012 0-.03.01-.04.024-.009.014-.025.025-.035.025-.01 0-.027.01-.037.024-.009.014-.025.024-.036.024-.01 0-.026.012-.036.025-.01.013-.024.024-.034.024-.009 0-.031.017-.05.037-.018.02-.04.037-.048.037a.272.272 0 0 0-.072.06.285.285 0 0 1-.072.062c-.017 0-.29.276-.29.294 0 .007-.027.04-.06.072a.276.276 0 0 0-.06.074c0 .008-.016.03-.036.048-.02.02-.036.041-.036.05 0 .007-.016.03-.036.048-.02.019-.036.042-.036.051 0 .01-.011.025-.024.035-.014.01-.024.027-.024.039s-.006.022-.012.022c-.007 0-.012.01-.012.021 0 .012-.011.03-.024.04-.014.01-.025.027-.025.04 0 .011-.005.02-.012.02-.006 0-.012.012-.012.025 0 .014-.005.025-.012.025-.006 0-.012.01-.012.021 0 .012-.01.03-.024.04a.067.067 0 0 0-.024.051c0 .019-.005.034-.012.034-.006 0-.012.011-.012.025 0 .013-.005.024-.012.024s-.012.011-.012.024c0 .014-.005.025-.012.025s-.012.011-.012.024c0 .014-.006.025-.012.025-.007 0-.012.01-.012.024s-.006.025-.012.025c-.007 0-.012.016-.012.036 0 .02-.006.037-.012.037-.007 0-.012.017-.012.037 0 .02-.006.036-.012.036-.007 0-.012.017-.012.037 0 .02-.006.037-.012.037-.007 0-.012.016-.012.036 0 .02-.006.037-.012.037-.007 0-.012.016-.012.037 0 .02-.006.036-.012.036-.007 0-.013.022-.013.049 0 .027-.005.049-.012.049-.006 0-.012.027-.012.06 0 .035-.005.062-.012.062-.006 0-.012.027-.012.061s-.005.061-.012.061-.012.037-.012.086c0 .049-.005.085-.012.085-.008 0-.012 1.588-.012 4.74 0 3.15.004 4.739.012 4.739.007 0 .012.036.012.085 0 .05.005.086.012.086s.012.032.012.073c0 .04.006.073.012.073.007 0 .012.022.012.05 0 .026.006.048.012.048.007 0 .012.022.012.049 0 .027.006.049.012.049.007 0 .012.016.012.036 0 .02.006.037.012.037.007 0 .013.017.013.037 0 .02.005.036.012.036.006 0 .012.017.012.037 0 .02.005.037.012.037.006 0 .012.016.012.036 0 .02.005.037.012.037.006 0 .012.016.012.036 0 .02.005.037.012.037.006 0 .012.011.012.024 0 .014.005.025.012.025.006 0 .012.011.012.024 0 .014.005.025.012.025s.012.016.012.036c0 .02.005.037.012.037s.012.011.012.025c0 .013.006.024.012.024.007 0 .012.011.012.024 0 .014.006.025.012.025.007 0 .012.01.012.022 0 .012.011.03.024.039.013.01.024.027.024.04 0 .011.006.021.012.021.007 0 .012.011.012.024 0 .014.006.025.012.025.007 0 .012.01.012.022 0 .012.011.03.025.039.013.01.024.026.024.037 0 .01.01.026.024.036.013.01.024.026.024.037 0 .01.01.027.024.037.013.01.024.025.024.034 0 .01.016.032.036.051.02.019.036.04.036.048s.027.041.06.074c.033.033.06.066.06.073 0 .017.321.342.338.342.008 0 .034.022.06.05.025.026.052.048.06.048s.03.017.048.037c.019.02.04.036.048.036s.03.017.048.037c.019.02.041.037.05.037.01 0 .025.01.035.024.01.014.027.025.038.025.012 0 .022.005.022.012 0 .006.01.012.021.012.012 0 .03.011.039.024.01.014.027.025.039.025.011 0 .021.005.021.012s.011.012.024.012c.014 0 .024.006.024.012 0 .007.011.013.024.013.014 0 .024.005.024.012s.011.012.024.012c.014 0 .025.006.025.012 0 .007.01.013.024.013.013 0 .024.005.024.012 0 .006.01.012.024.012.013 0 .024.005.024.012s.01.012.024.012c.013 0 .024.006.024.013 0 .006.01.012.024.012.013 0 .024.005.024.012s.016.012.036.012c.02 0 .036.006.036.012 0 .007.011.013.024.013.014 0 .025.005.025.012s.016.012.036.012c.02 0 .036.006.036.012 0 .007.016.013.036.013.02 0 .036.005.036.012s.016.012.036.012c.02 0 .036.005.036.012s.022.012.048.012c.027 0 .049.006.049.013 0 .006.021.012.048.012.026 0 .048.005.048.012s.027.012.06.012.06.006.06.012c0 .007.027.013.06.013s.06.005.06.012.045.012.109.012.108.005.108.012c0 .008 2.287.013 6.837.013s6.837-.005 6.837-.013c0-.007.044-.012.108-.012s.108-.005.108-.012.027-.012.06-.012c.034 0 .06-.006.06-.013 0-.006.028-.012.06-.012.034 0 .061-.005.061-.012s.022-.012.048-.012c.027 0 .048-.006.048-.012 0-.007.022-.013.048-.013.027 0 .049-.005.049-.012s.016-.012.036-.012c.02 0 .036-.005.036-.012s.016-.012.036-.012c.02 0 .036-.006.036-.013 0-.006.016-.012.036-.012.02 0 .036-.005.036-.012s.011-.012.024-.012c.014 0 .024-.006.024-.013 0-.006.017-.012.037-.012.02 0 .036-.005.036-.012s.01-.012.024-.012c.013 0 .024-.006.024-.012 0-.007.01-.013.024-.013.013 0 .024-.005.024-.012s.01-.012.024-.012c.013 0 .024-.006.024-.012 0-.007.01-.012.024-.012.013 0 .024-.006.024-.013 0-.006.011-.012.024-.012.014 0 .024-.005.024-.012s.011-.012.024-.012c.014 0 .024-.006.024-.013 0-.006.011-.012.025-.012.013 0 .024-.005.024-.012s.01-.012.021-.012c.012 0 .03-.011.039-.025.01-.013.027-.024.039-.024.011 0 .021-.006.021-.012 0-.007.01-.012.021-.012.012 0 .03-.011.04-.025.009-.013.024-.024.033-.024.01 0 .032-.017.05-.037.019-.02.042-.037.05-.037.01 0 .025-.01.035-.024.01-.013.024-.024.033-.024a.253.253 0 0 0 .075-.062.289.289 0 0 1 .072-.06c.017 0 .337-.326.337-.343a.28.28 0 0 1 .06-.073.277.277 0 0 0 .06-.074c0-.007.017-.03.037-.048.02-.019.036-.042.036-.051 0-.01.01-.025.024-.035.013-.01.024-.026.024-.036 0-.01.01-.027.024-.037.013-.01.024-.026.024-.036 0-.01.011-.027.024-.037.014-.01.024-.027.024-.04 0-.011.006-.021.012-.021.007 0 .012-.011.012-.025 0-.013.006-.024.012-.024.007 0 .012-.01.012-.022 0-.012.011-.03.025-.04.013-.009.024-.026.024-.038s.005-.022.012-.022c.006 0 .012-.011.012-.025 0-.013.005-.024.012-.024.006 0 .012-.011.012-.024 0-.014.005-.025.012-.025.006 0 .012-.016.012-.037 0-.02.005-.036.012-.036.006 0 .012-.011.012-.025 0-.013.005-.024.012-.024.006 0 .012-.011.012-.025 0-.013.005-.024.012-.024s.012-.016.012-.037c0-.02.005-.036.012-.036s.012-.017.012-.037c0-.02.006-.036.012-.036.007 0 .012-.017.012-.037 0-.02.006-.037.012-.037.007 0 .012-.016.012-.036 0-.02.006-.037.012-.037.007 0 .012-.017.012-.037 0-.02.006-.036.012-.036.007 0 .012-.022.012-.05 0-.026.006-.048.012-.048.007 0 .012-.022.012-.049 0-.027.006-.049.012-.049.007 0 .013-.032.013-.073 0-.04.005-.073.012-.073s.012-.037.012-.086c0-.049.005-.085.012-.085.008 0 .012-1.588.012-4.74 0-3.151-.004-4.739-.012-4.739-.007 0-.012-.037-.012-.085 0-.05-.005-.086-.012-.086s-.012-.027-.012-.06c0-.034-.006-.062-.013-.062-.006 0-.012-.027-.012-.061s-.005-.061-.012-.061c-.006 0-.012-.022-.012-.049 0-.027-.005-.049-.012-.049-.006 0-.012-.016-.012-.037 0-.02-.005-.036-.012-.036-.006 0-.012-.017-.012-.037 0-.02-.005-.036-.012-.036-.006 0-.012-.017-.012-.037 0-.02-.005-.037-.012-.037-.006 0-.012-.016-.012-.036 0-.02-.005-.037-.012-.037-.006 0-.012-.011-.012-.024 0-.014-.005-.025-.012-.025s-.012-.016-.012-.037c0-.02-.006-.036-.012-.036-.007 0-.012-.011-.012-.025 0-.013-.006-.024-.012-.024-.007 0-.012-.011-.012-.024 0-.014-.006-.025-.012-.025-.007 0-.012-.01-.012-.024s-.006-.025-.012-.025c-.007 0-.012-.01-.012-.024s-.006-.025-.012-.025c-.007 0-.012-.01-.012-.024 0-.013-.006-.024-.012-.024-.007 0-.012-.011-.012-.025 0-.013-.006-.024-.012-.024-.007 0-.013-.011-.013-.025 0-.013-.005-.024-.012-.024-.006 0-.012-.01-.012-.022 0-.012-.01-.03-.024-.04-.013-.009-.024-.027-.024-.039s-.005-.021-.012-.021c-.006 0-.012-.01-.012-.022 0-.012-.01-.03-.024-.04-.013-.01-.024-.025-.024-.034 0-.01-.016-.032-.036-.05-.02-.02-.036-.042-.036-.05s-.017-.03-.036-.049c-.02-.018-.037-.04-.037-.048a.276.276 0 0 0-.06-.074.29.29 0 0 1-.06-.072c0-.018-.248-.27-.265-.27a.396.396 0 0 1-.084-.073.375.375 0 0 0-.085-.073c-.007 0-.029-.017-.047-.037-.019-.02-.041-.037-.05-.037-.01 0-.025-.01-.035-.024-.01-.014-.025-.025-.036-.025-.01 0-.026-.01-.036-.024-.01-.013-.026-.024-.036-.024-.01 0-.026-.011-.036-.025-.01-.013-.027-.024-.039-.024-.011 0-.021-.006-.021-.012 0-.007-.01-.013-.022-.013-.011 0-.029-.01-.038-.024-.01-.014-.027-.024-.04-.024-.01 0-.02-.006-.02-.013 0-.006-.011-.012-.025-.012-.013 0-.024-.005-.024-.012s-.01-.012-.024-.012c-.013 0-.024-.006-.024-.013 0-.006-.01-.012-.024-.012-.013 0-.024-.005-.024-.012s-.01-.012-.024-.012c-.013 0-.024-.006-.024-.012 0-.007-.01-.013-.024-.013-.013 0-.024-.005-.024-.012 0-.006-.017-.012-.036-.012-.02 0-.036-.005-.036-.012s-.011-.012-.024-.012c-.014 0-.025-.006-.025-.013 0-.006-.016-.012-.036-.012-.02 0-.036-.005-.036-.012s-.016-.012-.036-.012c-.02 0-.036-.006-.036-.013 0-.006-.016-.012-.036-.012-.02 0-.036-.005-.036-.012s-.017-.012-.036-.012c-.02 0-.036-.006-.036-.012 0-.007-.022-.013-.049-.013-.026 0-.048-.005-.048-.012s-.021-.012-.048-.012c-.026 0-.048-.006-.048-.012 0-.007-.022-.012-.048-.012-.027 0-.048-.006-.048-.013 0-.007-.032-.012-.073-.012-.04 0-.072-.005-.072-.012 0-.008-.048-.012-.12-.012s-.12-.005-.12-.012-.017-.013-.037-.013h-.036v-.94c0-.62-.004-.94-.012-.94-.007 0-.012-.086-.012-.233 0-.147-.004-.232-.012-.232-.007 0-.012-.049-.012-.122s-.005-.122-.012-.122-.012-.037-.012-.086c0-.049-.005-.085-.012-.085s-.012-.033-.012-.074c0-.04-.005-.073-.012-.073s-.012-.032-.012-.073c0-.04-.005-.073-.012-.073s-.012-.028-.012-.061c0-.034-.006-.062-.012-.062-.007 0-.012-.021-.012-.048s-.006-.05-.012-.05c-.007 0-.012-.021-.012-.048s-.006-.049-.012-.049c-.007 0-.012-.022-.012-.049 0-.027-.006-.049-.012-.049-.007 0-.012-.022-.012-.049 0-.026-.006-.048-.012-.048-.007 0-.012-.017-.012-.037 0-.02-.006-.037-.013-.037-.006 0-.012-.022-.012-.049 0-.027-.005-.048-.012-.048-.006 0-.012-.017-.012-.037 0-.02-.005-.037-.012-.037-.006 0-.012-.016-.012-.036 0-.02-.005-.037-.012-.037-.006 0-.012-.017-.012-.037 0-.02-.005-.036-.012-.036s-.012-.017-.012-.037c0-.02-.005-.037-.012-.037s-.012-.01-.012-.024c0-.013-.005-.024-.012-.024s-.012-.017-.012-.037c0-.02-.005-.037-.012-.037s-.012-.016-.012-.036c0-.02-.005-.037-.012-.037s-.012-.011-.012-.024c0-.014-.006-.025-.012-.025-.007 0-.012-.016-.012-.037 0-.02-.006-.036-.012-.036-.007 0-.012-.011-.012-.025 0-.013-.006-.024-.012-.024-.007 0-.012-.011-.012-.024 0-.014-.006-.025-.013-.025-.006 0-.011-.01-.011-.024s-.006-.025-.013-.025c-.006 0-.011-.016-.011-.036 0-.02-.006-.037-.013-.037-.006 0-.012-.011-.012-.024 0-.014-.005-.025-.012-.025-.006 0-.012-.01-.012-.024s-.005-.025-.012-.025c-.006 0-.012-.01-.012-.024s-.005-.025-.012-.025-.012-.01-.012-.024-.005-.024-.012-.024-.012-.011-.012-.025c0-.013-.005-.024-.012-.024s-.012-.011-.012-.025c0-.013-.005-.024-.012-.024s-.012-.011-.012-.025c0-.013-.005-.024-.012-.024s-.012-.01-.012-.022c0-.012-.011-.03-.024-.04-.013-.009-.024-.026-.024-.038s-.006-.022-.012-.022c-.007 0-.012-.011-.012-.025 0-.013-.006-.024-.012-.024-.007 0-.012-.011-.012-.025 0-.013-.006-.024-.013-.024-.006 0-.012-.01-.012-.022 0-.012-.01-.03-.024-.039-.013-.01-.024-.026-.024-.037 0-.01-.01-.027-.024-.036-.013-.01-.024-.028-.024-.04 0-.011-.005-.021-.012-.021-.006 0-.012-.01-.012-.022 0-.012-.01-.03-.024-.04-.013-.01-.024-.026-.024-.036 0-.01-.01-.027-.024-.037-.013-.01-.024-.026-.024-.036 0-.01-.011-.027-.024-.037-.013-.01-.024-.025-.024-.034 0-.01-.017-.033-.036-.052-.02-.018-.036-.041-.036-.05 0-.01-.011-.025-.025-.035-.013-.01-.024-.025-.024-.034 0-.01-.016-.033-.036-.052-.02-.018-.036-.04-.036-.048s-.022-.036-.048-.061a.212.212 0 0 1-.048-.061.2.2 0 0 0-.048-.062.196.196 0 0 1-.049-.06.503.503 0 0 0-.084-.098.524.524 0 0 1-.084-.098c0-.016-.465-.489-.482-.489a.514.514 0 0 1-.096-.085.499.499 0 0 0-.096-.086.195.195 0 0 1-.06-.048.217.217 0 0 0-.06-.05c-.008 0-.035-.021-.06-.048-.026-.027-.053-.05-.061-.05s-.03-.016-.048-.036c-.019-.02-.04-.036-.048-.036s-.03-.017-.048-.037c-.019-.02-.041-.037-.05-.037-.01 0-.025-.01-.035-.024-.009-.014-.025-.024-.036-.024-.01 0-.026-.012-.036-.025-.01-.013-.026-.024-.036-.024-.01 0-.026-.011-.036-.025-.01-.013-.026-.024-.036-.024-.01 0-.027-.011-.036-.025-.01-.013-.026-.024-.036-.024-.01 0-.027-.011-.036-.024-.01-.014-.027-.025-.04-.025-.01 0-.02-.005-.02-.012s-.01-.012-.022-.012c-.012 0-.03-.011-.039-.025-.01-.013-.027-.024-.038-.024-.012 0-.022-.006-.022-.012 0-.007-.01-.013-.021-.013-.012 0-.03-.01-.039-.024-.01-.014-.027-.024-.039-.024s-.021-.006-.021-.013c0-.007-.011-.012-.024-.012-.014 0-.024-.006-.024-.012 0-.007-.011-.012-.024-.012-.014 0-.024-.006-.024-.013 0-.006-.011-.012-.025-.012-.013 0-.024-.005-.024-.012s-.01-.012-.024-.012c-.013 0-.024-.006-.024-.012 0-.007-.01-.013-.024-.013-.013 0-.024-.005-.024-.012s-.01-.012-.024-.012c-.013 0-.024-.006-.024-.012 0-.007-.01-.012-.024-.012s-.024-.006-.024-.013c0-.006-.011-.012-.024-.012-.014 0-.024-.006-.024-.012 0-.007-.011-.012-.025-.012-.013 0-.024-.006-.024-.013 0-.006-.01-.012-.024-.012-.013 0-.024-.005-.024-.012s-.01-.012-.024-.012c-.013 0-.024-.006-.024-.012 0-.007-.01-.013-.024-.013-.013 0-.024-.005-.024-.012s-.016-.012-.036-.012c-.02 0-.036-.006-.036-.012 0-.007-.011-.013-.024-.013-.014 0-.024-.005-.024-.012 0-.006-.011-.012-.024-.012-.014 0-.024-.005-.024-.012s-.017-.012-.037-.012c-.02 0-.036-.006-.036-.013 0-.006-.016-.012-.036-.012-.02 0-.036-.005-.036-.012s-.01-.012-.024-.012c-.013 0-.024-.006-.024-.013 0-.006-.016-.012-.036-.012-.02 0-.036-.005-.036-.012s-.017-.012-.036-.012c-.02 0-.037-.006-.037-.012 0-.007-.016-.013-.036-.013-.02 0-.036-.005-.036-.012 0-.006-.016-.012-.036-.012-.02 0-.036-.005-.036-.012s-.016-.012-.036-.012c-.02 0-.036-.006-.036-.013 0-.006-.016-.012-.036-.012-.02 0-.036-.005-.036-.012s-.022-.012-.048-.012c-.027 0-.049-.006-.049-.012 0-.007-.016-.013-.036-.013-.02 0-.036-.005-.036-.012s-.022-.012-.048-.012c-.027 0-.048-.006-.048-.012 0-.007-.022-.012-.048-.012-.027 0-.048-.006-.048-.013 0-.006-.028-.012-.06-.012-.034 0-.06-.006-.06-.012 0-.007-.023-.012-.049-.012-.026 0-.048-.006-.048-.013 0-.006-.032-.012-.072-.012-.04 0-.073-.005-.073-.012s-.032-.012-.072-.012c-.04 0-.072-.006-.072-.012 0-.007-.032-.013-.072-.013-.04 0-.072-.005-.072-.012s-.045-.012-.109-.012-.108-.005-.108-.012c0-.008-.056-.013-.145-.013-.088 0-.144-.004-.144-.012s-.148-.012-.421-.012-.422.004-.422.012Zm.48 1.32c0 .007.09.012.242.012s.24.004.24.012c0 .007.04.012.097.012.056 0 .096.005.096.012s.036.012.084.012c.048 0 .084.006.084.013 0 .006.028.012.06.012.034 0 .06.005.06.012s.033.012.073.012c.04 0 .072.006.072.013 0 .006.022.012.048.012.027 0 .049.005.049.012s.021.012.048.012c.026 0 .048.006.048.012 0 .007.022.013.048.013.026 0 .048.005.048.012s.016.012.036.012c.02 0 .036.006.036.012 0 .007.022.013.048.013.027 0 .049.005.049.012 0 .006.016.012.036.012.02 0 .036.005.036.012s.016.012.036.012c.02 0 .036.006.036.013 0 .006.016.012.036.012.02 0 .036.005.036.012s.017.012.036.012c.02 0 .037.006.037.012 0 .007.01.013.024.013.013 0 .024.005.024.012s.016.012.036.012c.02 0 .036.006.036.012 0 .007.01.012.024.012.013 0 .024.006.024.013 0 .006.016.012.036.012.02 0 .036.005.036.012s.011.012.024.012c.014 0 .024.006.024.013 0 .006.011.012.024.012.014 0 .024.005.024.012s.011.012.025.012c.013 0 .024.006.024.012 0 .007.016.013.036.013.02 0 .036.005.036.012 0 .006.01.012.024.012.013 0 .024.005.024.012s.01.012.024.012c.013 0 .024.006.024.013 0 .006.01.012.022.012.011 0 .029.01.038.024.01.014.027.025.04.025.01 0 .02.005.02.012s.011.012.025.012c.013 0 .024.006.024.012 0 .007.01.013.024.013.013 0 .024.005.024.012s.01.012.021.012c.012 0 .03.011.039.024.01.014.027.025.039.025s.021.005.021.012.01.012.022.012c.011 0 .029.011.038.025.01.013.027.024.04.024.011 0 .02.006.02.012 0 .007.01.013.022.013.012 0 .03.01.039.024.01.014.026.024.036.024.01 0 .026.011.036.025.01.013.026.024.036.024.01 0 .027.011.036.025.01.013.025.024.034.024.01 0 .032.017.05.037.019.02.04.037.049.037.008 0 .03.016.048.036.018.02.04.037.048.037.007 0 .035.022.06.049.025.027.052.049.06.049s.046.032.084.073c.04.04.077.073.084.073a5.3 5.3 0 0 1 .434.44c0 .008.033.046.072.085.04.04.073.078.073.086 0 .007.027.04.06.073a.26.26 0 0 1 .06.076c0 .009.01.024.024.034.013.01.024.025.024.034 0 .01.016.033.036.052.02.018.036.041.036.05 0 .01.011.025.024.035.014.01.024.026.024.037 0 .01.011.027.024.036.014.01.024.026.024.037 0 .01.011.027.025.037.013.01.024.026.024.036 0 .01.01.027.024.037.013.01.024.026.024.037 0 .01.01.027.024.036.013.01.024.027.024.04 0 .012.005.021.012.021s.012.011.012.025c0 .013.005.024.012.024s.012.01.012.022c0 .012.011.03.024.04.013.009.024.027.024.038 0 .012.006.022.012.022.007 0 .012.011.012.025 0 .013.006.024.012.024.007 0 .012.011.012.025 0 .013.006.024.012.024.007 0 .013.011.013.024 0 .014.005.025.012.025.006 0 .012.01.012.024s.005.025.012.025c.006 0 .012.01.012.024s.005.025.012.025c.006 0 .012.01.012.024 0 .013.005.024.012.024.006 0 .012.011.012.025 0 .013.005.024.012.024.006 0 .012.011.012.025 0 .013.005.024.012.024.006 0 .012.017.012.037 0 .02.005.036.012.036s.012.011.012.025c0 .013.005.024.012.024s.012.017.012.037c0 .02.006.037.012.037.007 0 .012.01.012.024 0 .013.006.024.012.024.007 0 .012.017.012.037 0 .02.006.037.012.037.007 0 .012.016.012.036 0 .02.006.037.012.037.007 0 .012.017.012.037 0 .02.006.036.012.036.007 0 .012.017.012.037 0 .02.006.037.012.037.007 0 .012.016.012.036 0 .02.006.037.013.037.006 0 .012.016.012.037 0 .02.005.036.012.036.006 0 .012.022.012.049 0 .027.005.049.012.049.006 0 .012.022.012.049 0 .027.005.049.012.049.006 0 .012.022.012.049 0 .026.005.048.012.048s.012.028.012.061c0 .034.005.061.012.061s.012.028.012.061c0 .034.005.062.012.062s.012.032.012.073c0 .04.005.073.012.073s.012.037.012.086c0 .049.005.085.012.085.008 0 .012.053.012.134 0 .082.005.135.012.135.008 0 .012.322.012.94v.94h-10.88v-.988c0-.652.003-.99.011-.99s.012-.049.012-.122.005-.122.012-.122.012-.037.012-.086c0-.049.006-.085.012-.085.007 0 .012-.028.012-.061 0-.034.006-.061.012-.061.007 0 .013-.033.013-.074 0-.04.005-.073.012-.073.006 0 .012-.022.012-.049 0-.027.005-.049.012-.049.006 0 .012-.021.012-.048s.005-.05.012-.05c.006 0 .012-.021.012-.048s.005-.049.012-.049c.006 0 .012-.016.012-.037 0-.02.005-.036.012-.036.006 0 .012-.022.012-.05 0-.026.005-.048.012-.048s.012-.017.012-.037c0-.02.005-.036.012-.036s.012-.017.012-.037c0-.02.006-.037.012-.037.007 0 .012-.01.012-.024 0-.013.006-.024.012-.024.007 0 .012-.017.012-.037 0-.02.006-.037.012-.037.007 0 .012-.016.012-.036 0-.02.006-.037.012-.037.007 0 .012-.011.012-.024 0-.014.006-.025.012-.025.007 0 .012-.016.012-.037 0-.02.006-.036.012-.036.007 0 .012-.011.012-.025 0-.013.006-.024.012-.024.007 0 .013-.017.013-.037 0-.02.005-.036.012-.036.006 0 .012-.011.012-.025 0-.013.005-.024.012-.024.006 0 .012-.011.012-.025 0-.013.005-.024.012-.024.006 0 .012-.011.012-.024 0-.014.005-.025.012-.025.006 0 .012-.01.012-.024s.005-.025.012-.025c.006 0 .012-.01.012-.024s.005-.025.012-.025.012-.01.012-.024c0-.013.005-.024.012-.024s.012-.011.012-.025c0-.013.006-.024.012-.024.007 0 .012-.011.012-.025 0-.013.006-.024.012-.024.007 0 .012-.01.012-.022 0-.012.011-.03.024-.04.013-.009.024-.027.024-.039 0-.011.006-.021.012-.021.007 0 .012-.01.012-.022 0-.012.011-.03.024-.04.014-.01.025-.027.025-.039s.005-.021.012-.021c.006 0 .012-.01.012-.022 0-.012.01-.03.024-.04.013-.01.024-.026.024-.036 0-.01.01-.027.024-.037.013-.01.024-.026.024-.036 0-.01.01-.027.024-.037.013-.01.024-.025.024-.035 0-.009.016-.032.036-.05.02-.02.036-.042.036-.052 0-.009.011-.024.024-.034.014-.01.024-.025.024-.034 0-.01.022-.038.049-.064a.214.214 0 0 0 .048-.06c0-.009.021-.036.048-.062a.196.196 0 0 0 .048-.06c0-.008.065-.08.144-.16.08-.08.145-.154.145-.164 0-.01.01-.02.024-.02.016 0 .024-.007.024-.023 0-.014.008-.025.019-.025a.76.76 0 0 0 .138-.122.956.956 0 0 1 .132-.122c.008 0 .04-.028.072-.061a.272.272 0 0 1 .073-.061c.008 0 .029-.017.048-.037.018-.02.04-.037.048-.037s.03-.016.048-.036c.018-.02.04-.037.048-.037s.03-.016.048-.037c.019-.02.041-.036.05-.036.01 0 .025-.011.034-.025.01-.013.026-.024.037-.024.01 0 .026-.011.036-.024.01-.014.027-.025.038-.025.012 0 .022-.005.022-.012s.01-.012.021-.012c.012 0 .03-.011.039-.025.01-.013.026-.024.036-.024.01 0 .027-.011.036-.025.01-.013.027-.024.039-.024s.021-.006.021-.012c0-.007.011-.012.024-.012.014 0 .024-.006.024-.013 0-.006.01-.012.022-.012.012 0 .03-.011.039-.024.01-.014.027-.025.038-.025.012 0 .022-.005.022-.012s.01-.012.024-.012c.013 0 .024-.006.024-.012 0-.007.01-.013.024-.013.013 0 .024-.005.024-.012s.011-.012.024-.012c.014 0 .024-.006.024-.012 0-.007.011-.012.024-.012.014 0 .024-.006.024-.013 0-.007.011-.012.024-.012.014 0 .025-.006.025-.012 0-.007.01-.012.024-.012.013 0 .024-.006.024-.013 0-.006.01-.012.024-.012.013 0 .024-.005.024-.012s.016-.012.036-.012c.02 0 .036-.006.036-.012 0-.007.011-.013.024-.013.013 0 .024-.005.024-.012s.011-.012.024-.012c.014 0 .024-.006.024-.012 0-.007.017-.012.037-.012.02 0 .036-.006.036-.013 0-.006.016-.012.036-.012.02 0 .036-.005.036-.012s.01-.012.024-.012c.013 0 .024-.006.024-.013 0-.006.016-.012.036-.012.02 0 .036-.005.036-.012s.016-.012.036-.012c.02 0 .036-.006.036-.012 0-.007.017-.013.037-.013.02 0 .036-.005.036-.012s.016-.012.036-.012c.02 0 .036-.006.036-.012 0-.007.016-.012.036-.012.02 0 .036-.006.036-.013 0-.006.022-.012.048-.012.027 0 .048-.005.048-.012s.017-.012.037-.012c.02 0 .036-.006.036-.013 0-.006.027-.012.06-.012s.06-.005.06-.012.022-.012.048-.012c.027 0 .048-.006.048-.012 0-.007.027-.013.06-.013.034 0 .06-.005.06-.012s.033-.012.073-.012c.04 0 .072-.005.072-.012s.036-.013.084-.013c.048 0 .085-.005.085-.012s.04-.012.096-.012.096-.005.096-.012c0-.008.088-.012.24-.012.153 0 .242-.005.242-.013 0-.006.021-.012.048-.012.026 0 .048.006.048.012Zm6.838 8.574c0 .007.032.012.072.012.04 0 .072.006.072.012 0 .007.022.013.048.013.027 0 .048.005.048.012s.017.012.037.012c.02 0 .036.006.036.012 0 .007.016.012.036.012.02 0 .036.006.036.013 0 .006.016.012.036.012.02 0 .036.006.036.012 0 .007.01.012.024.012.013 0 .024.006.024.013 0 .006.011.012.024.012.014 0 .024.005.024.012s.011.012.024.012c.014 0 .024.006.024.012 0 .007.011.013.025.013.013 0 .024.005.024.012s.01.012.024.012c.013 0 .024.006.024.012 0 .007.01.013.021.013.012 0 .03.01.039.024.01.013.026.024.036.024.01 0 .027.011.036.025.01.013.025.024.034.024.009 0 .037.022.063.05a.197.197 0 0 0 .059.048c.017 0 .217.203.217.22 0 .008.022.035.048.06.027.027.049.055.049.064 0 .01.01.025.024.035.013.01.024.026.024.036 0 .01.01.027.024.037.013.01.024.027.024.04 0 .011.005.021.012.021s.012.01.012.022c0 .012.01.03.024.04.013.009.024.026.024.038s.005.022.012.022.012.011.012.025c0 .013.006.024.012.024.007 0 .012.017.012.037 0 .02.006.036.012.036.007 0 .012.011.012.025 0 .013.006.024.012.024.007 0 .012.017.012.037 0 .02.006.036.012.036.007 0 .012.017.012.037 0 .02.006.037.013.037.006 0 .011.022.011.049 0 .026.006.048.013.048.006 0 .012.028.012.061 0 .034.005.062.012.062s.012.036.012.085c0 .049.005.086.012.086.008 0 .012 1.522.012 4.543s-.004 4.544-.012 4.544c-.007 0-.012.04-.012.098 0 .057-.005.098-.012.098s-.012.022-.012.048c0 .027-.006.05-.012.05-.007 0-.013.021-.013.048s-.005.05-.011.05c-.007 0-.013.016-.013.036 0 .02-.005.036-.012.036-.006 0-.012.017-.012.037 0 .02-.005.037-.012.037-.006 0-.012.01-.012.024s-.005.024-.012.024c-.006 0-.012.017-.012.037 0 .02-.005.037-.012.037-.006 0-.012.01-.012.024s-.005.025-.012.025-.012.01-.012.024-.005.024-.012.024-.012.01-.012.022c0 .012-.01.03-.024.04-.013.01-.024.027-.024.039s-.006.022-.012.022c-.007 0-.012.008-.012.02 0 .01-.016.034-.036.053-.02.019-.036.04-.036.049 0 .008-.017.03-.036.049-.02.019-.037.04-.037.047 0 .018-.248.27-.266.27-.007 0-.028.017-.047.037-.018.02-.04.037-.05.037-.009 0-.024.01-.034.024-.01.013-.026.024-.036.024-.01 0-.026.011-.036.025-.01.013-.027.024-.039.024s-.021.006-.021.013c0 .006-.01.012-.022.012-.011 0-.029.01-.038.024-.01.014-.027.025-.04.025-.011 0-.02.005-.02.012s-.017.012-.037.012c-.02 0-.036.005-.036.012s-.01.012-.024.012c-.013 0-.024.006-.024.013 0 .006-.01.012-.024.012-.013 0-.024.005-.024.012s-.016.012-.036.012c-.02 0-.036.006-.036.013 0 .006-.022.012-.048.012-.027 0-.049.005-.049.012s-.021.012-.048.012c-.026 0-.048.006-.048.012 0 .007-.027.013-.06.013s-.06.005-.06.012-.052.012-.133.012c-.08 0-.132.005-.132.012 0 .008-2.207.012-6.596.012-4.39 0-6.596-.004-6.596-.012 0-.007-.052-.012-.133-.012-.08 0-.132-.005-.132-.012s-.027-.012-.06-.012-.06-.006-.06-.013c0-.006-.022-.012-.048-.012-.027 0-.049-.005-.049-.012s-.021-.012-.048-.012c-.026 0-.048-.006-.048-.012 0-.007-.016-.013-.036-.013-.02 0-.036-.005-.036-.012s-.01-.012-.024-.012c-.013 0-.024-.006-.024-.012 0-.007-.011-.013-.024-.013-.014 0-.024-.005-.024-.012s-.015-.012-.034-.012c-.02 0-.04-.01-.05-.024-.01-.014-.028-.025-.04-.025-.011 0-.02-.005-.02-.012s-.012-.012-.025-.012c-.013 0-.024-.006-.024-.012 0-.007-.01-.013-.021-.013-.012 0-.03-.01-.04-.024-.009-.014-.025-.025-.035-.025-.01 0-.027-.01-.036-.024-.01-.013-.025-.024-.034-.024-.01 0-.032-.017-.05-.037-.02-.02-.04-.037-.048-.037a1.94 1.94 0 0 1-.266-.27.199.199 0 0 0-.048-.06c-.026-.025-.048-.054-.048-.063 0-.01-.01-.025-.024-.034-.013-.01-.024-.028-.024-.04s-.005-.021-.012-.021-.012-.01-.012-.022c0-.012-.01-.03-.024-.04-.013-.01-.024-.027-.024-.039s-.006-.022-.012-.022c-.007 0-.012-.01-.012-.024 0-.013-.006-.024-.012-.024-.007 0-.012-.011-.012-.025 0-.013-.006-.024-.012-.024-.007 0-.012-.011-.012-.025 0-.013-.006-.024-.013-.024-.006 0-.011-.017-.011-.037 0-.02-.006-.036-.013-.036-.006 0-.012-.017-.012-.037 0-.02-.005-.037-.012-.037-.006 0-.012-.016-.012-.036 0-.02-.005-.037-.012-.037-.006 0-.012-.022-.012-.049 0-.027-.005-.049-.012-.049-.006 0-.012-.022-.012-.048 0-.027-.005-.05-.012-.05s-.012-.04-.012-.097-.005-.098-.012-.098c-.008 0-.012-1.523-.012-4.544 0-3.02.004-4.543.012-4.543.007 0 .012-.037.012-.086 0-.049.005-.085.012-.085s.012-.028.012-.061c0-.034.006-.062.012-.062.007 0 .012-.022.012-.048 0-.027.006-.05.012-.05.007 0 .012-.016.012-.036 0-.02.006-.037.012-.037.007 0 .012-.016.012-.036 0-.02.006-.037.012-.037.007 0 .013-.01.013-.024s.005-.025.011-.025c.007 0 .013-.016.013-.036 0-.02.005-.037.012-.037.006 0 .012-.011.012-.024 0-.014.005-.025.012-.025.006 0 .012-.01.012-.022 0-.012.01-.03.024-.039.013-.01.024-.027.024-.04 0-.011.005-.021.012-.021s.012-.01.012-.022c0-.012.01-.03.024-.04.013-.009.024-.025.024-.036 0-.01.01-.027.024-.036.013-.01.024-.025.024-.035 0-.009.022-.037.048-.063a.197.197 0 0 0 .049-.06c0-.018.2-.221.217-.221a.197.197 0 0 0 .06-.049c.025-.027.053-.049.062-.049.009 0 .024-.01.034-.024.01-.014.025-.025.036-.025.01 0 .026-.01.036-.024.01-.014.027-.024.039-.024.011 0 .021-.006.021-.013 0-.006.01-.012.024-.012.013 0 .024-.005.024-.012s.011-.012.024-.012c.014 0 .024-.006.024-.013 0-.006.011-.012.024-.012.014 0 .024-.005.024-.012s.011-.012.025-.012c.013 0 .024-.006.024-.012 0-.007.016-.013.036-.013.02 0 .036-.005.036-.012 0-.006.01-.012.024-.012.013 0 .024-.005.024-.012s.016-.013.036-.013c.02 0 .036-.005.036-.012 0-.006.017-.012.036-.012.02 0 .036-.005.036-.012s.022-.012.049-.012c.026 0 .048-.006.048-.013 0-.006.032-.012.072-.012.04 0 .072-.005.072-.012 0-.008 2.287-.012 6.837-.012s6.837.004 6.837.012Zm-7.102 2.028c0 .007-.044.012-.108.012s-.109.005-.109.012-.027.012-.06.012-.06.006-.06.012c0 .007-.027.013-.06.013s-.06.005-.06.012-.017.012-.036.012c-.02 0-.036.006-.036.012 0 .007-.022.013-.049.013-.026 0-.048.005-.048.012 0 .006-.016.012-.036.012-.02 0-.036.005-.036.012s-.01.013-.024.013c-.013 0-.024.005-.024.012 0 .006-.016.012-.036.012-.02 0-.036.005-.036.012s-.011.012-.024.012c-.014 0-.024.006-.024.013 0 .006-.011.012-.025.012-.013 0-.024.005-.024.012s-.016.012-.036.012c-.02 0-.036.006-.036.012 0 .007-.01.013-.024.013-.013 0-.024.005-.024.012 0 .006-.01.012-.021.012-.012 0-.03.011-.04.024-.009.014-.026.025-.038.025s-.021.005-.021.012-.01.012-.022.012c-.012 0-.029.011-.039.025-.01.013-.027.024-.038.024-.012 0-.022.006-.022.012 0 .007-.008.013-.019.013-.01 0-.034.016-.053.036-.019.02-.04.037-.048.037s-.03.016-.048.037c-.019.02-.04.036-.048.036a.49.49 0 0 0-.097.086.404.404 0 0 1-.101.085.019.019 0 0 0-.02.019c0 .01-.048.068-.107.128a.772.772 0 0 0-.109.123c0 .007-.016.029-.036.048-.02.019-.036.042-.036.05 0 .01-.01.026-.024.035-.013.01-.024.026-.024.037 0 .01-.011.027-.024.037-.013.01-.024.026-.024.036 0 .01-.011.027-.024.037-.014.01-.024.027-.024.04 0 .011-.006.02-.012.02-.007 0-.012.012-.012.025 0 .014-.006.025-.012.025-.007 0-.013.01-.013.024s-.005.025-.012.025c-.006 0-.012.01-.012.024s-.005.025-.012.025c-.006 0-.012.01-.012.024 0 .013-.005.024-.012.024-.006 0-.012.011-.012.025 0 .013-.005.024-.012.024-.006 0-.012.011-.012.025 0 .013-.005.024-.012.024-.006 0-.012.017-.012.037 0 .02-.005.036-.012.036s-.012.011-.012.025c0 .013-.005.024-.012.024s-.012.017-.012.037c0 .02-.006.036-.012.036-.007 0-.012.017-.012.037 0 .02-.006.037-.012.037-.007 0-.012.022-.012.049 0 .026-.006.048-.012.048-.007 0-.012.022-.012.05 0 .026-.006.048-.012.048-.007 0-.012.028-.012.061 0 .034-.006.061-.012.061-.007 0-.012.041-.012.098s-.005.098-.012.098c-.008 0-.012.093-.012.256s.004.257.012.257c.007 0 .012.04.012.098 0 .057.005.097.012.097.006 0 .012.028.012.061 0 .034.005.061.012.061.006 0 .012.022.012.05 0 .026.005.048.012.048.006 0 .012.022.012.049 0 .027.005.049.012.049.006 0 .012.016.012.036 0 .02.005.037.012.037.006 0 .012.017.012.037 0 .02.005.036.012.036s.012.017.012.037c0 .02.005.037.012.037s.012.01.012.024.006.025.012.025c.007 0 .012.01.012.024 0 .013.006.024.012.024.007 0 .012.017.012.037 0 .02.006.037.012.037.007 0 .012.01.012.024s.006.024.012.024c.007 0 .012.01.012.022 0 .012.011.03.024.04.014.01.024.027.024.039s.006.022.013.022c.006 0 .012.01.012.024s.005.024.012.024c.006 0 .012.01.012.022 0 .012.01.03.024.04.013.01.024.026.024.036 0 .01.01.027.024.037.013.01.024.025.024.034 0 .01.016.033.036.051.02.02.036.041.036.049s.027.04.06.074a.26.26 0 0 1 .06.072c0 .017.2.22.218.22.007 0 .04.028.071.062a.28.28 0 0 0 .073.06c.049 0 .048-.036.048 1.496 0 .966.004 1.46.012 1.46.006 0 .012.023.012.05 0 .026.005.048.012.048s.012.011.012.025c0 .013.005.024.012.024s.012.01.012.022c0 .012.01.03.024.04.013.01.024.024.024.033 0 .02.127.15.148.15.008 0 .023.01.033.024.01.014.027.024.039.024.011 0 .02.006.02.013 0 .007.012.012.025.012.013 0 .024.005.024.012s.022.012.048.012c.027 0 .048.006.048.013 0 .008.386.012 1.132.012.746 0 1.131-.004 1.131-.012 0-.007.017-.013.036-.013.02 0 .036-.005.036-.012s.011-.012.024-.012c.014 0 .025-.005.025-.012s.01-.013.024-.013c.013 0 .024-.005.024-.012 0-.006.008-.012.018-.012a.843.843 0 0 0 .198-.199c0-.008.011-.023.024-.033.014-.01.025-.027.025-.04 0-.011.005-.021.011-.021.007 0 .013-.017.013-.037 0-.02.005-.036.012-.036.006 0 .012-.028.012-.061 0-.034.005-.062.012-.062.008 0 .012-.482.012-1.423v-1.423l.041-.043a.173.173 0 0 1 .055-.042c.017 0 .361-.35.361-.367 0-.008.016-.03.036-.048.02-.02.036-.041.036-.05 0-.007.017-.03.036-.048.02-.019.036-.042.036-.051 0-.01.011-.025.025-.035.013-.01.024-.026.024-.036 0-.01.01-.027.024-.037.013-.01.024-.027.024-.04 0-.011.005-.02.012-.02s.012-.012.012-.025c0-.014.005-.025.012-.025s.012-.01.012-.024.005-.025.012-.025.012-.01.012-.024c0-.013.005-.025.012-.025s.012-.01.012-.024c0-.013.006-.024.012-.024.007 0 .012-.011.012-.025 0-.013.006-.024.012-.024.007 0 .012-.011.012-.025 0-.013.006-.024.012-.024.007 0 .012-.017.012-.037 0-.02.006-.036.012-.036.007 0 .012-.011.012-.025 0-.013.006-.024.012-.024.007 0 .013-.017.013-.037 0-.02.005-.037.012-.037.006 0 .012-.016.012-.036 0-.02.005-.037.012-.037.006 0 .012-.016.012-.036 0-.02.005-.037.012-.037.006 0 .012-.022.012-.049 0-.027.005-.049.012-.049.006 0 .012-.027.012-.06 0-.034.005-.062.012-.062.006 0 .012-.032.012-.073 0-.04.005-.073.012-.073.008 0 .012-.127.012-.355 0-.228-.004-.354-.012-.354-.007 0-.012-.032-.012-.073 0-.04-.006-.074-.012-.074-.007 0-.012-.027-.012-.06 0-.034-.006-.062-.012-.062-.007 0-.012-.022-.012-.049 0-.026-.006-.048-.012-.048-.007 0-.012-.017-.012-.037 0-.02-.006-.037-.012-.037-.007 0-.012-.016-.012-.036 0-.02-.006-.037-.012-.037-.007 0-.012-.016-.012-.037 0-.02-.006-.036-.013-.036-.006 0-.012-.011-.012-.025 0-.013-.005-.024-.012-.024-.006 0-.012-.017-.012-.037 0-.02-.005-.036-.012-.036-.006 0-.012-.011-.012-.025 0-.013-.005-.024-.012-.024-.006 0-.012-.011-.012-.025 0-.013-.005-.024-.012-.024-.006 0-.012-.011-.012-.025 0-.013-.005-.024-.012-.024s-.012-.011-.012-.024c0-.014-.005-.025-.012-.025s-.012-.01-.012-.024-.005-.025-.012-.025-.012-.01-.012-.021c0-.012-.01-.03-.024-.04-.013-.01-.024-.027-.024-.04 0-.011-.006-.02-.012-.02-.007 0-.012-.01-.012-.023 0-.011-.011-.03-.024-.039-.014-.01-.025-.025-.025-.034 0-.01-.016-.032-.036-.051-.02-.02-.036-.041-.036-.049s-.021-.035-.048-.061a.2.2 0 0 1-.048-.06c0-.018-.297-.319-.314-.319a.195.195 0 0 1-.06-.049c-.025-.027-.052-.049-.06-.049-.007 0-.029-.016-.047-.036-.019-.02-.042-.037-.05-.037-.01 0-.025-.011-.035-.024-.01-.014-.027-.025-.038-.025-.012 0-.022-.005-.022-.012s-.01-.012-.021-.012c-.012 0-.03-.011-.039-.025-.01-.013-.027-.024-.039-.024s-.021-.006-.021-.012c0-.007-.011-.012-.024-.012-.014 0-.024-.006-.024-.013 0-.007-.011-.012-.024-.012-.014 0-.025-.006-.025-.012 0-.007-.01-.012-.024-.012-.013 0-.024-.006-.024-.013 0-.006-.01-.012-.024-.012-.013 0-.024-.005-.024-.012s-.01-.012-.024-.012c-.013 0-.024-.006-.024-.012 0-.007-.01-.013-.024-.013-.013 0-.024-.005-.024-.012s-.016-.012-.036-.012c-.02 0-.036-.006-.036-.012 0-.007-.017-.012-.036-.012-.02 0-.037-.006-.037-.013 0-.006-.016-.012-.036-.012-.02 0-.036-.006-.036-.012 0-.007-.016-.012-.036-.012-.02 0-.036-.006-.036-.013 0-.006-.022-.012-.048-.012-.027 0-.048-.005-.048-.012s-.022-.012-.048-.012c-.027 0-.049-.006-.049-.013 0-.006-.032-.012-.072-.012-.04 0-.072-.005-.072-.012s-.044-.012-.108-.012c-.065 0-.109-.005-.109-.012 0-.008-.076-.013-.204-.013-.129 0-.205.005-.205.013Zm.458 1.343c0 .007.027.013.06.013s.06.005.06.012c0 .006.016.012.036.012.02 0 .036.005.036.012s.016.012.036.012c.02 0 .036.006.036.013 0 .006.017.012.036.012.02 0 .036.005.036.012s.011.012.025.012c.013 0 .024.006.024.012 0 .007.01.013.021.013.012 0 .03.01.039.024.01.014.027.025.039.025.011 0 .021.005.021.012 0 .006.009.012.02.012.01 0 .034.016.052.036.019.02.04.037.047.037.018 0 .242.228.242.245 0 .008.016.03.036.048.02.02.036.043.036.054 0 .01.006.02.012.02.007 0 .012.01.012.021 0 .012.011.03.024.04.014.01.025.027.025.04 0 .011.005.02.012.02.006 0 .012.017.012.037 0 .02.005.037.012.037.006 0 .012.011.012.024 0 .014.005.025.012.025.006 0 .012.016.012.037 0 .02.005.036.012.036.006 0 .012.022.012.05 0 .026.005.048.012.048s.012.027.012.061.005.061.012.061c.008 0 .012.07.012.183 0 .114-.005.184-.012.184s-.012.027-.012.06c0 .034-.005.062-.012.062s-.012.022-.012.049c0 .026-.006.048-.012.048-.007 0-.012.017-.012.037 0 .02-.006.037-.012.037-.007 0-.012.01-.012.024s-.006.025-.012.025c-.007 0-.012.016-.012.036 0 .02-.006.037-.012.037-.007 0-.012.01-.012.022 0 .011-.011.03-.025.039-.013.01-.024.027-.024.04 0 .011-.005.02-.012.02-.006 0-.012.01-.012.02 0 .011-.016.035-.036.054-.02.02-.036.04-.036.048 0 .018-.224.245-.242.245-.007 0-.028.017-.047.037-.018.02-.041.037-.05.037-.01 0-.024.01-.034.024-.01.014-.027.024-.039.024s-.021.006-.021.013c0 .006-.01.012-.022.012-.011 0-.029.011-.038.024-.01.014-.025.025-.034.025a.36.36 0 0 0-.123.125c0 .009-.01.024-.024.034-.013.01-.024.027-.024.039s-.005.022-.012.022-.012.01-.012.024-.006.025-.012.025c-.007 0-.012.01-.012.024 0 .013-.006.024-.012.024-.007 0-.012.028-.012.061 0 .034-.006.062-.012.062-.008 0-.012.435-.012 1.282v1.283h-.65v-1.32c0-.87-.004-1.319-.012-1.319-.007 0-.012-.016-.012-.036 0-.02-.006-.037-.012-.037-.007 0-.012-.011-.012-.024 0-.014-.006-.025-.013-.025-.006 0-.011-.01-.011-.024s-.006-.025-.012-.025c-.007 0-.013-.008-.013-.018a.996.996 0 0 0-.222-.226c-.01 0-.018-.006-.018-.012 0-.007-.01-.013-.022-.013-.011 0-.029-.01-.038-.024-.01-.013-.026-.024-.037-.024-.01 0-.026-.011-.036-.025-.01-.013-.024-.024-.033-.024-.01 0-.038-.022-.063-.049-.025-.027-.052-.049-.06-.049-.017 0-.072-.056-.072-.073a.288.288 0 0 0-.06-.074.255.255 0 0 1-.06-.075c0-.01-.012-.025-.025-.034-.013-.01-.024-.028-.024-.04s-.005-.022-.012-.022c-.006 0-.012-.01-.012-.024 0-.013-.005-.024-.012-.024s-.012-.011-.012-.025c0-.013-.005-.024-.012-.024s-.012-.011-.012-.025c0-.013-.006-.024-.012-.024-.007 0-.012-.011-.012-.024 0-.014-.006-.025-.012-.025-.007 0-.012-.016-.012-.036 0-.02-.006-.037-.012-.037-.007 0-.012-.017-.012-.037 0-.02-.006-.036-.012-.036-.007 0-.012-.022-.012-.05 0-.026-.006-.048-.012-.048-.008 0-.012-.09-.012-.244 0-.155.004-.245.012-.245.006 0 .012-.027.012-.06 0-.034.005-.062.012-.062.006 0 .012-.016.012-.037 0-.02.005-.036.012-.036.006 0 .012-.017.012-.037 0-.02.005-.037.012-.037.006 0 .012-.01.012-.024 0-.013.005-.024.012-.024.006 0 .012-.011.012-.025 0-.013.005-.024.012-.024.006 0 .012-.011.012-.025 0-.013.005-.024.012-.024s.012-.011.012-.025c0-.013.006-.024.012-.024.007 0 .012-.01.012-.022 0-.012.01-.03.024-.039.013-.01.024-.025.024-.034a.34.34 0 0 1 .073-.088c.04-.04.072-.08.072-.091 0-.01.008-.02.019-.02.01 0 .045-.027.077-.06a.253.253 0 0 1 .075-.061c.009 0 .024-.011.033-.025.01-.013.026-.024.036-.024.01 0 .027-.011.037-.025.009-.013.026-.024.038-.024s.022-.005.022-.012.01-.012.024-.012c.013 0 .024-.006.024-.013 0-.006.01-.012.024-.012.013 0 .024-.005.024-.012s.016-.012.036-.012c.02 0 .036-.006.036-.012 0-.007.011-.013.024-.013.014 0 .024-.005.024-.012s.022-.012.049-.012c.026 0 .048-.006.048-.012 0-.007.021-.013.048-.013.026 0 .048-.005.048-.012 0-.008.092-.012.253-.012.16 0 .253.005.253.012Z" fill="#FAFAFA"/></svg>