<svg width="45" height="44" viewBox="0 0 45 44" fill="none" xmlns="http://www.w3.org/2000/svg"><g clip-path="url(#a)" fill="#fff"><path fill-rule="evenodd" clip-rule="evenodd" d="M1.109.693c.509-.468.818-.612 1.397-.65.225-.015 5.5-.031 11.721-.035L25.54 0l.464.258c.54.302.861.605 1.084 1.027.13.246.162.37.193.75.03.362.048 3.088.057 6.965h-1.654V7.812H2.024V36.23h23.66V34h1.627c-.02 4.558-.047 7.843-.08 8.186-.032.326-.07.458-.175.629-.208.333-.767.82-1.167 1.015l-.348.17-11.626-.016c-9.15-.013-11.675-.029-11.855-.073-.5-.124-1.185-.711-1.528-1.31l-.152-.266L.4 22.3C.415 9.092.44 2.125.471 1.851c.059-.493.207-.763.638-1.158Zm24.574 1.352-.275-.26-.276-.259H2.575l-.275.26-.276.26V6.24h23.66V2.045ZM8.883 4.19c-.184-.412.01-.836.466-1.02a.968.968 0 0 1 .264-.07c.136-.001.561.192.669.305.122.128.184.465.128.696-.083.346-.547.618-.938.55-.21-.037-.5-.263-.589-.461Zm3.732-1.021.74-.03c1.316-.051 4.865-.021 5.028.043.464.183.636.64.416 1.104-.039.082-.063.145-.106.193-.15.172-.536.165-2.64.182-2.494.02-3.287-.013-3.507-.148-.4-.244-.445-.821-.092-1.18l.161-.164ZM25.683 41.95V37.8H2.024v4.156l.279.257.278.257h22.551l.276-.26.275-.26Zm-13.039-2.925c.153-.169.634-.401.945-.457.56-.1 1.287.179 1.635.627.223.287.307.58.282.985-.028.452-.188.766-.546 1.07-.334.285-.64.388-1.155.387-.49 0-.829-.141-1.16-.484-.354-.364-.422-.547-.395-1.063.024-.47.14-.786.394-1.065Z"/><path fill-rule="evenodd" clip-rule="evenodd" d="M24.51 10.044c-3.77.4-7.046 2.235-9.138 5.12-.17.235-.418.616-.55.847a9.86 9.86 0 0 1-.276.462 9.11 9.11 0 0 0-.284.589c-.916 2.004-1.205 4.108-.868 6.324.091.603.36 1.59.61 2.237.223.576.79 1.663 1.135 2.175 1.215 1.802 2.964 3.282 5.023 4.253 2.258 1.065 4.928 1.472 7.5 1.144a13.595 13.595 0 0 0 5.175-1.825l.63-.386.12.126c.066.07.683.594 1.37 1.165.688.572 1.435 1.195 1.66 1.385.225.19 1.196 1.002 2.159 1.806.962.804 1.931 1.615 2.153 1.803.666.563.914.682 1.513.726.403.03.843-.081 1.169-.295.86-.565 1.024-1.687.363-2.472-.071-.086-.61-.556-1.198-1.047a1055.437 1055.437 0 0 1-2.864-2.394c-.237-.2-1.096-.919-1.909-1.598-1.698-1.418-1.81-1.511-1.889-1.582-.047-.042.015-.153.321-.577.46-.638.991-1.613 1.293-2.375.577-1.457.845-3.177.733-4.702-.217-2.961-1.469-5.535-3.681-7.569a12.32 12.32 0 0 0-4.095-2.52l-.568-.211c-.05-.019-.265-.083-.477-.143l-.523-.148a18.722 18.722 0 0 0-1.705-.3c-.507-.074-2.276-.084-2.902-.018Zm2.857 1.682c.604.079.933.145 1.575.317.791.212 1.367.443 2.448.981.05.025.316.19.591.367 2.6 1.672 4.229 4.127 4.634 6.984.104.735.096 1.976-.016 2.656-.139.836-.399 1.757-.64 2.267s-.451.92-.577 1.125a3.356 3.356 0 0 0-.152.263c0 .007-.14.209-.312.447a10.552 10.552 0 0 1-2.849 2.712 11.222 11.222 0 0 1-3.543 1.504c-3.718.878-7.63-.132-10.34-2.67-1.643-1.537-2.665-3.41-3.034-5.557-.114-.666-.112-2.338.004-2.993.576-3.26 2.75-5.998 5.924-7.455 1.313-.602 2.509-.902 4.105-1.03.41-.032 1.672.015 2.182.082Zm-14.91 12.243-.02.031h.027l-.007-.031Zm-6.848-3.144L6.653 19h.94l-1.54 2.472L7.64 24h-.93l-1.088-1.872L4.535 24H3.6l1.587-2.528L3.647 19h.931l1.03 1.825Zm4.419 0L11.072 19h.939l-1.54 2.472L12.06 24h-.93l-1.088-1.872L8.954 24h-.936l1.588-2.528L8.066 19h.931l1.03 1.825Z"/><path d="M21.79 22.456h.874v.92h-.873v1.53h-1.172v-1.53h-3.034l-.034-.698 3.029-4.645h1.21v4.423Zm-3.01 0h1.838v-2.87l-.086.151-1.751 2.719Zm5.468-.958.38-3.465h3.773v.991h-2.798l-.193 1.643a2.206 2.206 0 0 1 1.1-.274c.669 0 1.188.21 1.558.628.373.418.56.982.56 1.69 0 .698-.206 1.255-.618 1.67-.412.413-.976.619-1.693.619-.643 0-1.177-.178-1.601-.533-.422-.36-.65-.831-.685-1.416h1.133c.045.333.167.59.367.769.2.176.46.264.781.264.36 0 .64-.126.84-.377.202-.252.303-.595.303-1.03 0-.418-.11-.748-.332-.99-.222-.246-.528-.369-.917-.369a1.53 1.53 0 0 0-.54.085c-.148.054-.309.16-.482.321l-.936-.226ZM33.689 18v.949h-.145c-.656.01-1.18.185-1.572.528-.393.343-.626.83-.7 1.459.377-.387.857-.58 1.443-.58.62 0 1.11.213 1.466.641.36.428.54.98.54 1.657 0 .699-.21 1.265-.632 1.7-.418.43-.968.646-1.65.646-.7 0-1.27-.253-1.707-.76-.434-.507-.65-1.17-.65-1.992v-.392c0-1.205.298-2.149.896-2.832.601-.683 1.465-1.024 2.59-1.024h.12Zm-1.259 3.28a1.265 1.265 0 0 0-1.177.78v.349c0 .51.11.915.328 1.217.219.3.502.449.849.449s.622-.128.825-.383c.203-.254.304-.59.304-1.005 0-.415-.103-.754-.309-1.015a.991.991 0 0 0-.82-.392Z"/></g><defs><clipPath id="a"><path fill="#fff" transform="translate(.38)" d="M0 0h44v44H0z"/></clipPath></defs></svg>