<svg width="46" height="39" viewBox="0 0 46 39" fill="none" xmlns="http://www.w3.org/2000/svg"><path fill-rule="evenodd" clip-rule="evenodd" d="M14.377.018a4.6 4.6 0 0 0-1.48.434c-1.168.558-1.984 1.563-2.268 2.794-.055.235-.066.366-.066.78 0 .415.011.545.066.78.377 1.635 1.666 2.83 3.429 3.18.44.086 1.244.086 1.683 0 1.763-.35 3.052-1.545 3.43-3.18.094-.406.094-1.152 0-1.56C18.795 1.62 17.496.41 15.756.072c-.33-.064-1.071-.093-1.379-.054Zm15.966 0c-.547.07-.99.2-1.48.434-1.168.558-1.984 1.563-2.269 2.794-.094.408-.094 1.153 0 1.56.378 1.635 1.667 2.83 3.43 3.18.44.086 1.244.086 1.683 0 1.763-.35 3.052-1.545 3.43-3.18.094-.406.094-1.152 0-1.56C34.76 1.62 33.46.41 31.722.072c-.331-.064-1.071-.093-1.38-.054ZM15.582 1.413c.836.194 1.527.707 1.913 1.421.556 1.03.336 2.271-.548 3.09-1.132 1.05-2.963 1.05-4.096 0a2.755 2.755 0 0 1-.786-1.32 3.042 3.042 0 0 1 0-1.156c.267-1.066 1.168-1.867 2.334-2.071a3.766 3.766 0 0 1 1.183.036Zm15.966 0c.836.194 1.527.707 1.913 1.421.556 1.03.336 2.271-.548 3.09-1.132 1.05-2.963 1.05-4.096 0a2.755 2.755 0 0 1-.786-1.32 3.042 3.042 0 0 1 0-1.156c.266-1.066 1.168-1.867 2.333-2.071a3.765 3.765 0 0 1 1.184.036ZM11.91 8.764c-.854.091-1.804.402-2.5.818-.945.565-1.633 1.306-2.247 2.422-.458.83-.732 1.652-.904 2.709-.045.274-.051.692-.06 4.192-.008 2.757-.002 3.948.02 4.096.055.35.205.7.437 1.016.142.195.522.528.741.652.65.366 1.448.444 2.169.212.091-.03.166-.045.166-.035l-.272 5.776c-.287 6.09-.285 6-.162 6.413.164.554.596 1.124 1.118 1.475.222.149.697.35.986.418.361.084 1.05.084 1.386 0 .569-.143.923-.331 1.33-.705.348-.32.558-.609.687-.947.044-.115.087-.21.095-.21.008 0 .05.095.094.21.093.244.294.558.5.779.881.95 2.318 1.215 3.529.652.224-.105.629-.37.748-.49l.068-.069.185.17c.933.851 2.392.911 3.387.139l.201-.157.122.104c.266.227.599.397.998.51.224.063.306.071.676.073.355.002.457-.008.653-.06.283-.074.658-.239.84-.368l.136-.096.18.126a2.33 2.33 0 0 0 1.647.389c.422-.057.89-.25 1.164-.48l.106-.088.195.136a2.407 2.407 0 0 0 2.562.157c.091-.05.272-.189.403-.31.194-.18.262-.267.382-.488.083-.154.165-.354.191-.467.025-.108.281-2.183.569-4.61.287-2.426.53-4.451.538-4.5l.016-.087h.996c.557 0 1.066-.012 1.153-.027.503-.089.947-.455 1.102-.91.09-.266.078-.522-.072-1.525a40.067 40.067 0 0 1-.133-.928c0-.026.098-.084.254-.152 1.018-.445 1.733-1.3 1.955-2.337.023-.109.04-.346.039-.565-.001-.343-.054-.717-.59-4.183a283.885 283.885 0 0 0-.643-4.05 5.548 5.548 0 0 0-.587-1.526c-1.023-1.848-3.01-3.089-5.247-3.277-.247-.021-.986-.027-2.308-.018-1.624.01-1.99.02-2.22.056-1.393.223-2.565.767-3.538 1.644-.576.519-.968 1.017-1.381 1.754a3.314 3.314 0 0 1-.262-.017 4.737 4.737 0 0 0-.934.04l-.12.018-.21-.359c-.32-.543-.475-.776-.7-1.046-.91-1.091-2.15-1.776-3.684-2.036-.247-.041-.556-.047-3.004-.051-1.5-.003-2.827.005-2.946.018Zm5.897 1.392c.912.192 1.697.598 2.295 1.187.304.299.47.52.77 1.021l.232.388-.221.155c-.896.63-1.459 1.585-1.538 2.61a3.47 3.47 0 0 0 .664 2.328c.194.269.731.768 1.016.945.77.478 1.633.69 2.535.623a3.894 3.894 0 0 0 2.446-1.057c.692-.641 1.064-1.382 1.141-2.275a3.439 3.439 0 0 0-.764-2.451 4.36 4.36 0 0 0-.959-.846 1.756 1.756 0 0 1-.248-.169c0-.009.054-.101.12-.206.809-1.275 2.248-2.138 3.834-2.3.375-.038 3.676-.038 4.052 0 1.519.155 2.863.915 3.72 2.106.332.46.628 1.125.738 1.659.026.126.31 1.936.63 4.022.619 4.02.612 3.968.518 4.336a2.51 2.51 0 0 1-.163.383 1.418 1.418 0 0 1-.367.474c-.202.189-.413.335-.438.305-.004-.005-.147-.966-.317-2.135-1.106-7.577-1.084-7.433-1.164-7.56-.24-.38-.794-.446-1.13-.135-.132.124-.221.305-.221.453 0 .043.418 2.935.928 6.425.511 3.49.93 6.37.93 6.4 0 .054-.007.054-3.716.054h-3.716v-1.479c0-1.598-.017-1.846-.16-2.376-.245-.902-.84-1.793-1.596-2.39a5.339 5.339 0 0 0-2.787-1.126c-.339-.036-2.187-.036-2.525 0a5.332 5.332 0 0 0-2.82 1.152c-.794.643-1.39 1.586-1.608 2.54-.112.495-.12.721-.109 3.437.011 2.835.002 2.659.164 3.035.19.44.67.89 1.149 1.08l.132.053v2.739c-.001 3.008.002 2.947-.177 3.285a1.874 1.874 0 0 1-.574.595c-.801.476-1.902.113-2.183-.72-.066-.198-.053.007-.49-8.022-.113-2.084-.218-3.802-.236-3.861-.072-.236-.287-.416-.563-.473-.345-.072-.733.148-.825.467-.018.062-.104 1.433-.192 3.046-.355 6.486-.48 8.642-.51 8.758-.165.648-.888 1.1-1.606 1.004a1.749 1.749 0 0 1-.721-.283 1.386 1.386 0 0 1-.512-.847c-.017-.106.013-.97.1-2.818l.317-6.688.19-4.023-.008-4.318-.007-4.318-.065-.112a.822.822 0 0 0-.413-.332.795.795 0 0 0-.694.124.903.903 0 0 0-.187.208l-.064.112-.014 4.278c-.015 4.206-.016 4.28-.073 4.403a1.065 1.065 0 0 1-.401.467c-.497.306-1.139.205-1.487-.233-.236-.297-.221-.003-.21-4.328.01-3.445.016-3.863.06-4.116.162-.93.453-1.728.9-2.472a4.62 4.62 0 0 1 .861-1.08c.713-.662 1.571-1.039 2.657-1.167.048-.005 1.283-.008 2.744-.005 2.62.005 2.66.005 2.936.064Zm6.135 3.31c.88.236 1.566.874 1.821 1.691.088.281.095.971.012 1.246-.25.83-.951 1.49-1.839 1.728-.193.052-.295.061-.69.061-.397 0-.498-.009-.691-.06-.873-.235-1.573-.879-1.822-1.677-.089-.285-.11-.825-.044-1.13a2.31 2.31 0 0 1 .666-1.173 2.626 2.626 0 0 1 1.353-.722c.274-.057.962-.037 1.234.036ZM.852 18.871a.748.748 0 0 0-.419.397c-.07.194-.07 1.61 0 1.803.091.248.39.444.678.444.288 0 .586-.196.678-.444.07-.193.07-1.61 0-1.803-.126-.342-.553-.523-.937-.397Zm3.629 0a.748.748 0 0 0-.42.397c-.07.194-.07 1.61 0 1.803.092.248.39.444.678.444.288 0 .587-.196.678-.444.071-.193.071-1.61 0-1.803-.126-.342-.553-.523-.936-.397Zm36.286 0a.748.748 0 0 0-.42.397c-.04.11-.047.255-.047.902 0 .646.008.791.048.901.091.248.39.444.678.444.175 0 .378-.08.508-.201.204-.189.217-.26.217-1.144 0-.885-.013-.956-.217-1.145a.767.767 0 0 0-.767-.154Zm3.628 0a.748.748 0 0 0-.419.397c-.04.11-.048.255-.048.902 0 .646.008.791.049.901.09.248.39.444.677.444.175 0 .379-.08.509-.201.204-.189.217-.26.217-1.144 0-.885-.014-.956-.217-1.145a.767.767 0 0 0-.768-.154ZM25.06 20.908c.896.19 1.65.635 2.18 1.287.206.254.493.784.577 1.069.142.475.145.547.145 3.23 0 2.834.012 2.68-.216 2.891a.798.798 0 0 1-.51.201.752.752 0 0 0-.642.37l-.068.128-.015 3.404-.014 3.404-.095.178a1.169 1.169 0 0 1-.552.502c-.142.061-.205.072-.428.072-.224 0-.286-.011-.438-.076a1.183 1.183 0 0 1-.554-.515l-.081-.162-.015-3.067-.015-3.067-.067-.128a.698.698 0 0 0-.408-.329c-.345-.109-.721.032-.879.329l-.068.128-.014 3.067-.015 3.067-.081.162c-.107.212-.33.42-.555.515-.152.065-.214.075-.438.075s-.286-.01-.439-.075a1.183 1.183 0 0 1-.554-.515l-.081-.162-.015-3.403-.014-3.404-.068-.128a.752.752 0 0 0-.643-.37c-.291 0-.59-.197-.68-.45-.044-.123-.047-.364-.038-2.768.01-2.883.002-2.728.185-3.239.323-.9 1.095-1.663 2.053-2.03.593-.227.843-.255 2.21-.246.946.007 1.168.016 1.35.055Zm8.447 7.393c0 .033-.236 2.038-.524 4.456-.339 2.846-.539 4.431-.567 4.494a.783.783 0 0 1-.346.335c-.167.083-.5.08-.689-.006a.981.981 0 0 1-.433-.4l-.068-.127-.008-4.406-.007-4.406h2.642v.06Zm-4.142 8.792c-.071.213-.335.455-.571.523a.854.854 0 0 1-.59-.034c-.107-.051-.329-.249-.329-.294 0-.011.02-.115.044-.231.037-.18.044-.657.044-3.222v-3.012l.152-.064a2.125 2.125 0 0 0 1.23-1.347c.021-.074.043-.171.047-.216.004-.044.01 1.681.015 3.834.007 3.624.004 3.926-.042 4.063Z" fill="#fff"/></svg>