<svg width="86" height="87" fill="none" xmlns="http://www.w3.org/2000/svg"><g filter="url(#a)"><path fill-rule="evenodd" clip-rule="evenodd" d="M57.336 23.676c-4.38.442-8.525 2.078-11.894 4.693-2.388 1.853-4.112 3.627-7.543 7.762a408.742 408.742 0 0 1-3.177 3.786l-1.117 1.303-3.268-.03-3.268-.031-.575.629c-.925 1.012-3.38 4.243-3.283 4.32.075.06 1.527.392 3.02.69.858.172 1.81.388 2.115.48l.555.166v.482c0 .373-.11.684-.488 1.377-.43.788-.482.954-.435 1.372.035.312.186.668.44 1.037.59.857 3.402 3.561 4.005 3.851.713.344 1.334.272 2.206-.258.551-.335.769-.406 1.249-.412l.581-.008.13.687c.289 1.513 1.01 4.737 1.088 4.863.11.179.798-.223 1.882-1.1.446-.36 1.12-.89 1.498-1.177.378-.287.89-.707 1.136-.933l.45-.412.003-3.394.003-3.394.816-.696c.449-.383 1.91-1.591 3.247-2.684 4.83-3.949 6.903-5.928 8.708-8.31 3.026-3.996 4.528-8.274 4.81-13.695l.056-1.083-1.026.014a27.04 27.04 0 0 0-1.924.105Zm-7.23 8.762c.932.45 1.459 1.404 1.457 2.636-.001 1.026-.3 1.736-.996 2.36-1.774 1.595-4.718.38-4.935-2.035a2.952 2.952 0 0 1 2.17-3.142c.654-.185 1.722-.1 2.304.181ZM25.34 51.848c-2.024 1.931-3.013 4.523-3.264 8.55l-.073 1.18.463.067c.585.086 2.893-.1 3.976-.32 2.196-.446 3.75-1.235 5.137-2.609 1.018-1.008 1.118-1.27.508-1.329-.262-.025-.516.066-.97.346-1.345.83-3.327 1.326-5.297 1.326h-1.2l.07-1.294c.102-1.927.487-3.403 1.325-5.082.444-.889.459-.946.3-1.188-.092-.14-.206-.255-.253-.255-.048 0-.373.273-.723.608Z" fill="#3D5F95"/><path d="M80.895 53.02c-.623-.235-1.787-.678-2.587-.984l-1.455-.555.314-1.52c.88-4.264.966-8.361.269-12.867-.175-1.13-1.356-5.539-1.765-6.586-1.689-4.329-3.764-7.743-6.703-11.028a34.062 34.062 0 0 0-8.112-6.684c-3.59-2.14-7.132-3.505-11.171-4.302-4.443-.877-8.618-.903-13.183-.085-1.105.199-4.194 1.027-5.35 1.434-6.827 2.41-12.715 6.888-16.979 12.91-.683.965-2.12 3.395-2.694 4.555A34.904 34.904 0 0 0 9.46 53.297c1.544 4.897 3.814 8.936 7.142 12.7l3.265-3.01c-2.262-2.575-4.084-5.538-5.414-8.832-.778-1.925-1.653-5.33-1.919-7.468-1.373-11.044 3.289-21.872 12.278-28.515 2.043-1.51 4.629-2.917 7.194-3.917 1.243-.484 5.02-1.474 6.321-1.656 4.198-.587 8.333-.366 12.232.655a30.827 30.827 0 0 1 15.492 9.664c2.866 3.321 4.883 7.033 6.139 11.295 1.413 4.797 1.633 9.66.655 14.542l-.223 1.112-1.165-.445c-3.737-1.427-4.514-1.718-4.557-1.706-.044.011 1.718 15.364 1.766 15.392.024.013 13.155-9.458 13.279-9.579.058-.056-.25-.205-1.05-.508Z" fill="#FAFAFA"/><path fill-rule="evenodd" clip-rule="evenodd" d="m19.852 69.776 2.958-3.46a30.694 30.694 0 0 0 3.881 2.823l-2.382 3.88a35.229 35.229 0 0 1-4.457-3.243Zm9.366 5.749 1.744-4.206a30.298 30.298 0 0 0 4.557 1.48l-1.06 4.428a34.85 34.85 0 0 1-5.241-1.702Zm10.685 2.558.353-4.539a31.057 31.057 0 0 0 4.811 0l.353 4.54a35.612 35.612 0 0 1-5.517 0Zm10.961-.856-1.06-4.428a30.3 30.3 0 0 0 4.558-1.48l1.744 4.206a34.85 34.85 0 0 1-5.242 1.702Zm10.15-4.208a35.229 35.229 0 0 0 4.457-3.243l-2.958-3.46a30.693 30.693 0 0 1-3.88 2.823l2.382 3.88Z" fill="#FAFAFA"/></g><defs><filter id="a" x="3.847" y="7.815" width="82.105" height="78.375" filterUnits="userSpaceOnUse" color-interpolation-filters="sRGB"><feFlood flood-opacity="0" result="BackgroundImageFix"/><feColorMatrix in="SourceAlpha" values="0 0 0 0 0 0 0 0 0 0 0 0 0 0 0 0 0 0 127 0" result="hardAlpha"/><feOffset dy="4"/><feGaussianBlur stdDeviation="2"/><feComposite in2="hardAlpha" operator="out"/><feColorMatrix values="0 0 0 0 0 0 0 0 0 0 0 0 0 0 0 0 0 0 0.25 0"/><feBlend in2="BackgroundImageFix" result="effect1_dropShadow_279_11002"/><feBlend in="SourceGraphic" in2="effect1_dropShadow_279_11002" result="shape"/></filter></defs></svg>