<svg width="29" height="29" fill="none" xmlns="http://www.w3.org/2000/svg"><path d="M13.835.767C6.533 1.11.773 7.147.795 14.402a13.48 13.48 0 0 0 1.492 6.14L.833 27.556a.532.532 0 0 0 .646.622L8.4 26.55a13.722 13.722 0 0 0 5.89 1.42c7.462.114 13.683-5.769 13.915-13.173.25-7.94-6.348-14.411-14.371-14.032v.002Zm8.26 21.13a10.703 10.703 0 0 1-7.59 3.12 10.683 10.683 0 0 1-4.778-1.11l-.963-.478-4.245.998.894-4.305-.476-.924a10.478 10.478 0 0 1-1.166-4.835c0-2.847 1.116-5.524 3.143-7.535 2.02-2 4.748-3.122 7.59-3.123a10.7 10.7 0 0 1 7.59 3.121 10.55 10.55 0 0 1 3.145 7.535c0 2.822-1.134 5.541-3.145 7.537v-.002Z" fill="#19CF2B"/><path d="m21.158 17.312-2.655-.756a.995.995 0 0 0-.98.255l-.65.658a.971.971 0 0 1-1.052.22c-1.255-.505-3.898-2.837-4.573-4.004a.954.954 0 0 1 .077-1.065l.567-.728a.977.977 0 0 0 .122-.999l-1.116-2.508a.994.994 0 0 0-1.547-.352c-.741.623-1.621 1.568-1.727 2.617-.189 1.847.609 4.175 3.625 6.971 3.486 3.23 6.279 3.658 8.095 3.22 1.031-.248 1.856-1.242 2.375-2.055a.98.98 0 0 0-.561-1.474Z" fill="#19CF2B"/></svg>