<svg width="96" height="74" viewBox="0 0 96 74" fill="none" xmlns="http://www.w3.org/2000/svg"><g opacity=".9"><path d="M76.284 74c-6.05 0-10.641-1.986-13.77-5.958-3.339-3.971-5.008-9.51-5.008-16.618 0-10.452 2.19-19.755 6.572-27.907C68.46 15.364 74.928 7.525 83.482 0l8.763 8.466c-5.634 5.226-9.91 10.243-12.832 15.051-2.92 4.808-4.694 9.93-5.32 15.364C76.388 37.627 79.1 37 82.23 37c4.173 0 7.51 1.359 10.014 4.076C94.749 44.003 96 47.975 96 52.992c0 5.226-1.878 10.033-5.633 14.423C86.61 71.805 81.917 74 76.284 74Z" fill="url(#a)"/><path d="M18.777 74c-6.05 0-10.64-1.986-13.77-5.958C1.67 64.071 0 58.531 0 51.424c0-10.452 2.19-19.755 6.572-27.907C10.953 15.364 17.422 7.525 25.975 0l8.763 8.466c-5.633 5.226-9.91 10.243-12.83 15.05-2.922 4.809-4.695 9.93-5.321 15.365C18.882 37.627 21.594 37 24.724 37c4.172 0 7.51 1.359 10.014 4.076 2.504 2.927 3.756 6.899 3.756 11.916 0 5.226-1.878 10.033-5.633 14.423C29.105 71.805 24.41 74 18.778 74Z" fill="url(#b)"/></g><defs><linearGradient id="a" x1="128.936" y1="74" x2="-32.121" y2="66.724" gradientUnits="userSpaceOnUse"><stop offset=".011" stop-color="#3D5F95"/><stop offset="1" stop-color="#1E2F4B"/></linearGradient><linearGradient id="b" x1="128.936" y1="74" x2="-32.121" y2="66.724" gradientUnits="userSpaceOnUse"><stop offset=".011" stop-color="#3D5F95"/><stop offset="1" stop-color="#1E2F4B"/></linearGradient></defs></svg>