<svg width="41" height="41" fill="none" xmlns="http://www.w3.org/2000/svg"><path fill-rule="evenodd" clip-rule="evenodd" d="M3.668.2c-.196.195-.2.211-.208.72-.005.286-.011 6.035-.015 12.775l-.007 12.254-.833.03c-.776.027-.843.039-.982.17-.162.152-.321.599-.473 1.329a5.006 5.006 0 0 1-.15.587c-.028.065-.094.33-.147.588-.053.259-.112.51-.13.559-.048.12-.052.135-.185.705-.064.274-.211.87-.327 1.321L0 32.06v2.84c0 3.06.002 3.083.31 3.258.095.055.627.084 1.953.105l1.822.03.03 1.145c.016.63.052 1.194.08 1.252a.63.63 0 0 0 .235.202c.17.09 1.007.098 10.612.103L25.471 41l.18-.122c.33-.223.326-.176.327-3.232v-2.822l-.388-1.528c-.213-.84-.401-1.6-.418-1.69l-.03-.161h2.247v3.91c0 4.302-.014 4.124.368 4.506.903.903 3.441 1.351 5.898 1.041 1.914-.241 3.066-.853 3.228-1.715.042-.227.132-.275.516-.277.123 0 .335-.025.47-.055.136-.03.485-.1.776-.153.29-.054.555-.116.587-.139.033-.022.207-.089.388-.147.487-.159 1.063-.604 1.234-.955l.14-.285.006-5.584c.003-3.071-.017-5.703-.046-5.848a1.6 1.6 0 0 0-.192-.477c-.165-.251-.735-.647-1.132-.787a4.47 4.47 0 0 1-.373-.146c-.05-.026-.315-.09-.587-.142a92.87 92.87 0 0 1-.804-.157l-.308-.063-.015-9.429-.015-9.429-2.469-2.47C33.702 1.283 32.514.133 32.42.085 32.272.011 30.412 0 18.058 0H3.868l-.2.2Zm27.777 3.27c0 1.726.015 2.15.084 2.282.175.339.107.329 2.496.36l2.21.03.015 8.89.014 8.89h-.28c-.326 0-1.598.148-2.07.241-1.162.229-2.026.713-2.318 1.3-.15.302-.151.31-.151 1.784v1.48l-.456.046c-.545.054-.506.049-1.131.172-.936.184-1.614.483-2.09.923l-.247.227-1.368-.015-1.367-.016-.132-.47c-.169-.606-.181-.633-.337-.736-.105-.07-.453-.093-1.713-.117l-1.582-.03-.284-1.145c-.286-1.153-.382-1.38-.643-1.513-.11-.056-1.825-.073-7.738-.073l-7.596-.001V1.352h26.684V3.47Zm2.6.041c.639.638 1.161 1.194 1.161 1.236 0 .059-.254.072-1.19.06l-1.19-.017-.016-1.22c-.009-.67.004-1.219.029-1.219.024 0 .567.522 1.206 1.16Zm-15.002-.6c-3.208.681-5.482 3.638-5.331 6.934.052 1.129.268 1.934.785 2.914.956 1.814 2.747 3.134 4.786 3.527.487.094 1.843.097 2.39.006 2.064-.344 3.992-1.787 4.92-3.681.533-1.09.698-1.804.7-3.03.003-1.486-.318-2.564-1.127-3.792-.747-1.134-2.083-2.216-3.156-2.556a1.393 1.393 0 0 1-.299-.125c-.035-.028-.366-.114-.735-.192a7.602 7.602 0 0 0-2.933-.004Zm2.587 1.295c1.593.302 3.13 1.515 3.833 3.023.585 1.256.681 2.791.255 4.045-.599 1.758-1.938 3.039-3.742 3.578-.502.15-.635.165-1.463.165-.829 0-.962-.015-1.464-.165-.926-.277-1.62-.673-2.293-1.308a5.34 5.34 0 0 1-1.42-2.17c-.212-.593-.289-1.075-.29-1.827 0-1.17.295-2.13.955-3.102.767-1.131 2.173-2.05 3.467-2.265.519-.087 1.64-.073 2.162.026Zm-1.764 1.66v.4l-.25.11c-.749.33-1.361 1.526-1.071 2.092.056.111.668.764 1.36 1.451 1.367 1.359 1.34 1.315.982 1.596-.33.26-.818.101-1.02-.33l-.12-.253h-.618c-.477 0-.626.02-.65.083-.018.045.023.263.09.485.178.585.502.97 1.047 1.248l.25.126v.761h1.293v-.752l.314-.177c.746-.421 1.276-1.48 1.009-2.015-.055-.11-.67-.771-1.364-1.47-1.147-1.152-1.258-1.282-1.2-1.393.105-.195.308-.305.564-.304.319 0 .59.174.675.436l.07.21h1.355l-.038-.162c-.194-.821-.45-1.209-1.015-1.537l-.365-.211-.003-.397-.002-.397h-1.293v.4ZM8.229 19.131v.676h24.568v-1.352H8.227v.677Zm0 3.439v.646h24.568v-1.293H8.227v.647Zm29.76 2.85c.757.133 1.567.421 1.567.558 0 .13-.846.434-1.529.551-1.2.206-2.995.169-3.974-.082-.54-.138-1.094-.36-1.124-.45-.051-.158.92-.499 1.719-.603.799-.105.912-.11 1.88-.087.518.012 1.175.063 1.461.113ZM8.796 27.433a4.998 4.998 0 0 0-.066.515c-.02.226-.052.497-.07.602l-.033.191H7.276c-1.266 0-1.362.008-1.52.12-.19.136-.238.271-.575 1.643l-.224.912-1.721.015c-1.47.014-1.716.003-1.689-.068.018-.046.248-.953.513-2.014a72.99 72.99 0 0 1 .507-1.974c.014-.024 1.428-.044 3.142-.044 2.939 0 3.114.006 3.087.102Zm2.97.31.078.69.037.308h-.945c-.846 0-.944-.01-.944-.099 0-.14.122-1.15.15-1.24.018-.057.21-.07.804-.058l.78.016.04.382Zm7.609-.118c.094.31.256.982.256 1.061 0 .034-1.244.055-3.191.055h-3.191l-.075-.514c-.041-.283-.09-.6-.107-.706l-.032-.191 3.13.015 3.13.015.08.265Zm14.03.028c.65.197 1.548.326 2.536.364.977.037 2.37-.125 3.12-.363a4.53 4.53 0 0 1 .538-.147c.055 0 .074.153.074.585v.585l-.25.143c-.597.341-1.749.565-2.92.567-.597 0-.723-.018-1.146-.172a7.832 7.832 0 0 0-1.65-.384 24.548 24.548 0 0 1-.587-.078l-.294-.042-.017-.602c-.012-.42.004-.602.05-.602.037 0 .283.066.546.146Zm-20.578 2.413c.066.026.072.106.029.426-.065.483-.061.455-.215 1.717-.172 1.412-.172 1.407-.225 1.704l-.047.265-3.316.015c-1.824.009-3.334-.005-3.356-.03-.022-.024.078-.507.221-1.072.144-.566.323-1.28.398-1.587.276-1.131.348-1.383.41-1.425.071-.049 5.974-.062 6.1-.013Zm2.983.1c.031.073.111.609.178 1.19.066.583.17 1.442.229 1.911.06.469.097.872.083.896-.015.025-.594.044-1.289.044H13.75l.035-.279c.08-.653.269-2.218.355-2.953.05-.437.103-.827.116-.867.017-.054.223-.074.761-.074.71 0 .74.005.794.133Zm7.639.089c.034.121.099.379.145.573.046.194.154.63.24.97.086.339.22.881.3 1.204.079.324.16.641.178.706.019.064.047.203.063.308l.03.191h-6.711l-.03-.132a28.873 28.873 0 0 1-.15-1.19 83.81 83.81 0 0 0-.148-1.264c-.108-.751-.19-1.504-.166-1.542.016-.024 1.414-.045 3.108-.045h3.08l.06.22Zm9.861-.131c.798.108 1.353.221 1.573.322.065.03.217.093.338.141.121.048.22.126.22.172 0 .17-1.069.514-1.941.624-.637.08-2.123.08-2.762 0-.849-.106-1.859-.434-1.922-.625-.012-.035.174-.145.414-.245.453-.189 1.186-.344 1.891-.4.227-.017.425-.046.441-.063.03-.03 1.402.027 1.748.074Zm6.35.683c-.015.559-.025.603-.164.706-.34.254-1.631.579-2.3.579h-.285v-.672c0-.737-.005-.727.382-.73.366-.003 1.449-.195 1.862-.33.236-.077.45-.142.476-.145.026-.002.039.264.03.592Zm-10.216 1.669c.284.076.75.172 1.038.215.656.096 2.71.093 3.343-.005.412-.064 1.395-.3 1.646-.397.075-.029.088.058.088.58v.614l-.28.152c-.9.489-3.155.702-4.775.45-.536-.082-1.326-.33-1.595-.5l-.227-.143v-.591c0-.573.004-.59.123-.552.068.022.355.101.639.177Zm-24.895.541a13.69 13.69 0 0 1-.165.69l-.123.471-1.454.016-1.455.015v-1.412H4.59l-.041.22Zm35.124.54c0 .57-.004.586-.162.695-.362.25-1.253.484-2.174.573l-.426.04v-1.392l.844-.103c.465-.057 1.04-.167 1.279-.245.675-.22.64-.245.64.433ZM29.3 35.177c.976.283 2.413.41 3.664.32.94-.066 1.327-.129 2.006-.324.273-.078.518-.143.543-.143.026 0 .047.265.047.589v.589l-.191.116c-.23.14-.94.375-1.425.47-.535.106-2.437.143-3.133.063-.7-.082-1.524-.306-1.878-.511l-.25-.145v-.592c0-.676-.066-.63.617-.432ZM4.101 36.221l.017.69H1.352v-.666c0-.366.018-.684.04-.706.022-.023.637-.034 1.367-.025l1.326.016.016.69Zm8.149-.685c.077.03.093.15.093.705v.67H5.466v-.666c0-.366.018-.684.04-.705.048-.05 6.617-.053 6.744-.004Zm3.4.003.75.038-.016 2.034-.015 2.033-1.352-.01-1.352-.01V35.59l.177-.038c.247-.053.928-.058 1.808-.013Zm8.964.681.016.691h-6.88v-.666c0-.366.018-.684.04-.706.021-.022 1.562-.033 3.423-.024l3.384.015.017.69Zm15.057.06c-.001.554-.012.61-.133.697-.349.253-1.671.58-2.344.58h-.283v-.675c0-.5.019-.677.073-.68.517-.023 1.743-.236 2.171-.375a7.95 7.95 0 0 1 .474-.145c.024-.003.043.266.042.597Zm-10.254 1.65c1.745.489 4.178.422 6.01-.163.131-.042.132-.038.132.573v.616l-.2.118c-.267.157-1.078.403-1.622.492-.588.095-2.607.093-3.203-.003-.613-.099-1.224-.28-1.573-.466l-.279-.148v-.615c0-.558.01-.612.103-.583l.632.18Zm-17.104 1.037v.676l-3.423.015-3.424.016v-1.412l3.424.015 3.423.015v.676Zm12.314 0v.705H17.75v-1.41h6.877v.705Z" fill="#fff"/></svg>