<svg width="27" height="27" fill="none" xmlns="http://www.w3.org/2000/svg"><g clip-path="url(#a)"><path d="M12.995 1.096C6.47 1.403 1.323 6.797 1.343 13.281c.003 1.909.46 3.79 1.333 5.487l-1.3 6.267a.475.475 0 0 0 .577.557l6.186-1.455a12.263 12.263 0 0 0 5.264 1.268c6.668.102 12.226-5.154 12.434-11.771.224-7.096-5.673-12.878-12.842-12.54v.002Zm7.38 18.882c-21.1 21.025 19.557-19.407 0 .001v-.001Z" fill="#19CF2B"/><path d="M12.995 1.096C6.47 1.403 1.323 6.797 1.343 13.281c.003 1.909.46 3.79 1.333 5.487l-1.3 6.267a.475.475 0 0 0 .577.557l6.186-1.455a12.263 12.263 0 0 0 5.264 1.268c6.668.102 12.226-5.154 12.434-11.771.224-7.096-5.673-12.878-12.842-12.54v.002Zm7.38 18.882a9.564 9.564 0 0 1-6.782 2.79 9.547 9.547 0 0 1-4.269-.994l-.861-.426-3.793.892.799-3.847-.426-.826a9.363 9.363 0 0 1-1.041-4.321c0-2.544.997-4.936 2.808-6.734a9.645 9.645 0 0 1 6.783-2.79 9.56 9.56 0 0 1 6.782 2.79 9.427 9.427 0 0 1 2.81 6.733 9.503 9.503 0 0 1-2.81 6.734v-.001Z" fill="#FAFAFA"/><path d="m19.538 15.882-2.372-.676a.89.89 0 0 0-.876.229l-.58.587a.868.868 0 0 1-.94.196c-1.122-.45-3.484-2.534-4.087-3.578a.853.853 0 0 1 .069-.95l.506-.652a.873.873 0 0 0 .11-.892l-.998-2.241a.888.888 0 0 0-1.383-.315c-.662.557-1.448 1.401-1.543 2.339-.168 1.65.544 3.73 3.24 6.23 3.115 2.886 5.61 3.268 7.234 2.876.921-.221 1.659-1.11 2.122-1.836a.876.876 0 0 0-.502-1.317Z" fill="#FAFAFA"/></g><defs><clipPath id="a"><path fill="#fff" transform="translate(.632 .411)" d="M0 0h25.915v25.915H0z"/></clipPath></defs></svg>