<svg width="45" height="44" viewBox="0 0 45 44" fill="none" xmlns="http://www.w3.org/2000/svg"><path fill-rule="evenodd" clip-rule="evenodd" d="M29.602.098a13.385 13.385 0 0 0-6.342 2.554c-.298.22-.91.76-1.363 1.199l-.82.8.56.481.562.481.84-.81c.949-.915 1.796-1.526 2.859-2.058C30.536.419 36.01 1.34 39.592 5.05c.724.75 1.017 1.12 1.52 1.92 2.108 3.353 2.361 7.61.667 11.237-.955 2.047-2.67 3.916-4.68 5.104-2.544 1.503-5.81 1.985-8.65 1.277-1.976-.493-3.778-1.449-5.143-2.726l-.42-.395-.517.522-.516.521.432.397c2.106 1.934 4.733 3.112 7.616 3.416 3.195.336 6.506-.586 9.142-2.548a13.178 13.178 0 0 0 4.98-7.633c.881-3.784.032-7.761-2.333-10.923-.55-.734-1.87-2.055-2.572-2.57C36.312.587 32.944-.316 29.602.098Zm-.066 2.968c-1.133.175-2.638.722-3.605 1.31l-.216.132.366.572c.2.315.377.586.392.602.015.015.36-.135.767-.334 1.628-.797 3.18-1.079 4.905-.891 3.857.419 6.88 3.238 7.704 7.185.116.555.115 2.458-.002 3.066-.378 1.972-1.355 3.74-2.758 4.993a9.05 9.05 0 0 1-4.77 2.217c-2.01.276-4.285-.255-5.98-1.397-.269-.181-.517-.33-.551-.33-.067 0-.872 1.023-.872 1.108 0 .082 1.14.8 1.784 1.122 1.279.64 2.504.938 4.092.994 1.43.05 2.326-.07 3.576-.48 4.786-1.574 7.682-6.29 6.943-11.31-.642-4.361-4.199-7.92-8.557-8.563-.943-.14-2.3-.137-3.218.004Zm-17.343.684C9.913 4.165 8.24 4.948 6.75 6.3a10.259 10.259 0 0 0-3.074 5.053c-.218.835-.312 1.736-.313 3.007-.002 1.267 0 1.277.185 1.497.103.122.246.222.32.222.215 0 .336.183.389.59.156 1.201.773 2.907 1.47 4.064a13.041 13.041 0 0 0 2 2.483l.753.726v2.66l-2.974.988c-1.635.544-3.071 1.034-3.19 1.089a.858.858 0 0 0-.32.262c-.058.094-.154.662-.226 1.353-.07.654-.21 2.002-.315 2.994-.103.992-.283 2.697-.4 3.788l-.443 4.168-.232 2.184.146.197c.08.109.224.237.32.286.136.07 4.665.09 21.259.089 20.372 0 21.096-.005 21.375-.134.158-.074.376-.227.483-.341.435-.465.418-.208.416-6.5-.001-5.43-.009-5.774-.133-6.046a1.619 1.619 0 0 0-.762-.787c-.218-.103-1.148-.115-9.144-.115h-8.9l-.046-.226a2.525 2.525 0 0 1-.045-.403c0-.355-.207-.649-.564-.798-.185-.078-1.627-.571-3.203-1.095l-2.865-.953v-2.645l.887-.89c1.031-1.036 1.685-1.938 2.28-3.145a11.229 11.229 0 0 0 1.122-3.77c.078-.702.108-.794.264-.794.079 0 .239-.095.355-.211l.21-.211v-.926c-.002-2.9-1.056-5.433-3.089-7.416-.814-.794-1.404-1.22-2.58-1.862-.675-.37-1.88-.743-3.09-.96-.637-.114-2.307-.126-2.883-.022Zm3.024 1.543c3.225.564 5.958 3.072 6.84 6.277.177.643.336 1.64.336 2.104v.24h-1.251c-1.46 0-1.844-.058-2.545-.39-1.117-.53-2.039-1.893-2.042-3.021-.002-.425-.173-.755-.465-.894-.248-.118-.284-.116-1.104.081-3.578.861-6.716 2.15-9.534 3.918-.51.32-.617.364-.639.26-.014-.069.014-.484.063-.923.363-3.292 2.559-6.095 5.702-7.279 1.392-.524 3.023-.655 4.639-.373Zm15.25.576v.758h1.442V5.112h-1.441v.757Zm3.389 4.948c-1.09.63-2.152 1.24-2.36 1.357l-.377.21-1.588-.642c-.873-.353-1.628-.64-1.677-.64-.08.002-.56 1.09-.557 1.263 0 .039.848.407 1.882.818 1.45.576 1.933.74 2.107.71.125-.021.665-.29 1.2-.597a499.047 499.047 0 0 1 3.244-1.849c.416-.235.796-.466.843-.513.067-.067.01-.22-.252-.68-.186-.328-.371-.593-.41-.59-.04.004-.965.523-2.055 1.153Zm-18.612.724c.176.762.828 1.89 1.395 2.415a5.95 5.95 0 0 0 1.457.96c.734.333 1.349.442 2.5.442h1.021l-.047.487c-.226 2.306-1.293 4.519-2.978 6.176-1.076 1.059-2.05 1.625-3.377 1.963-.578.147-.89.182-1.617.182-2.134 0-3.922-.867-5.497-2.667-1.384-1.582-2.289-3.675-2.468-5.708l-.047-.542.6-.37a30.369 30.369 0 0 1 6.115-2.897c.74-.25 2.627-.797 2.78-.805.044-.002.117.161.163.364Zm22.505 1.652v.722h1.514v-1.443h-1.514v.721Zm-7.282 7.324v.757h1.442V19.76h-1.441v.758ZM10.276 24.95c.982.502 2.78.784 4.128.65.815-.082 2.009-.39 2.513-.647.148-.075.29-.117.314-.092.025.025.045.77.045 1.657v1.611l-1.838.92-1.839.919-1.838-.92-1.838-.919v-1.66c0-.912.017-1.66.039-1.66.021 0 .162.064.314.141ZM8.48 35.381v7.18l-3.262-.019c-3.215-.018-3.262-.02-3.245-.163.01-.08.117-1.102.239-2.273l.436-4.185.42-4.025c.112-1.084.22-1.986.24-2.005.058-.06 4.91-1.678 5.046-1.684.12-.006.126.382.126 7.174Zm12.914-6.347 2.498.834.044.303c.025.166.142 1.245.262 2.395l.43 4.113c.481 4.565.575 5.493.576 5.683v.2l-3.225-.02-3.226-.019-.019-7.16c-.014-5.706 0-7.162.072-7.162.05 0 1.215.375 2.588.833ZM10.85 30.24c.804.404.815.413.613.493-.182.071-1.475.494-1.522.497-.01 0-.018-.326-.018-.726 0-.4.024-.716.054-.702l.873.438Zm6.426.318c0 .541-.02.681-.095.652-.053-.02-.353-.118-.667-.218-1.112-.353-1.097-.281-.164-.756.45-.23.842-.405.872-.392.03.014.054.335.054.714Zm25.087.992c0 .016-.462.836-1.028 1.821l-1.028 1.793-2.36.019-2.36.019v-.387a2.33 2.33 0 0 0-.078-.61c-.153-.439-.205-.448-2.52-.448h-2.1l-.21.21c-.193.194-.21.254-.21.722v.51h-4.516l-.161-1.496c-.089-.824-.18-1.652-.203-1.84l-.042-.343h8.408c4.624 0 8.407.013 8.407.03Zm-29.845.427c0 .012-.094.362-.209.775-.114.414-.328 1.19-.473 1.726l-.435 1.588c-.582 2.097-.694 2.549-.696 2.793-.001.206.202.682.833 1.943.46.918.836 1.689.836 1.713 0 .025-.552.045-1.226.045H9.92l.018-4.883.019-4.883 1.19-.413c1.116-.387 1.369-.462 1.369-.404Zm3.496.399 1.226.419v9.728l-1.208.02c-.664.011-1.207-.005-1.207-.036 0-.03.377-.802.836-1.715.582-1.157.836-1.737.838-1.915.002-.14-.08-.546-.181-.902-.102-.356-.303-1.085-.448-1.62-.144-.536-.339-1.25-.432-1.588-.094-.337-.289-1.052-.433-1.587l-.299-1.1c-.02-.07-.008-.126.024-.125.032 0 .61.19 1.284.42Zm-1.689 3.853.69 2.543-.689 1.389c-.379.763-.706 1.388-.727 1.388-.02 0-.349-.625-.73-1.389l-.692-1.388.157-.542c.087-.297.399-1.441.693-2.542.295-1.101.553-2.002.572-2.002.02 0 .347 1.144.726 2.543Zm28.598 1.875-.019 4.42-8.084.018-8.084.018-.044-.307c-.024-.169-.142-1.265-.261-2.435-.12-1.17-.244-2.351-.276-2.623-.042-.342-.036-.503.019-.524.044-.017 1.02-.022 2.169-.011l2.09.02.036.52c.03.449.064.55.235.722l.2.2 1.927.023c1.272.016 2.019-.004 2.198-.057.363-.108.514-.361.558-.936l.036-.473 2.56-.036c2.73-.038 2.706-.035 3.117-.42.11-.101.498-.713.865-1.36.367-.646.692-1.176.722-1.177.03 0 .046 1.987.036 4.418ZM34.13 35.94l.02.703h-2.24v-1.447l1.1.02 1.1.02.02.704Z" fill="#fff"/></svg>