<svg width="44" height="45" fill="none" xmlns="http://www.w3.org/2000/svg"><path fill-rule="evenodd" clip-rule="evenodd" d="M0 20.66v19.661a1 1 0 0 0 1 1h33.939a1 1 0 0 0 1-1v-7.69c0-4.78-.01-8.691-.021-8.691-.012 0-.392.465-.844 1.033l-.607.76a1 1 0 0 0-.217.622l-.013 6.469-.012 5.82a1 1 0 0 1-1 .998H2.663a1 1 0 0 1-1-1V2.68a1 1 0 0 1 1-1h24.494a1 1 0 0 1 1 .996l.01 2.428.01 2.428a1 1 0 0 0 1 .996h1.995c1.645.001 3.01.02 3.033.044.023.024.049.879.056 1.9l.004.521a.472.472 0 0 0 .841.29l.615-.776a1 1 0 0 0 .217-.622V6.34a1 1 0 0 0-.334-.746l-.68-.608-1.86-1.659-2.292-2.04-1.16-1.033A1 1 0 0 0 28.946 0H1a1 1 0 0 0-1 1v19.66ZM12.943 4.538c-1.62.188-2.98 1.366-3.474 3.006-.137.46-.138 1.735-.001 2.186.488 1.607 1.656 2.683 3.242 2.991 1.577.306 3.249-.392 4.145-1.73.247-.37.467-.85.59-1.287.134-.479.134-1.65 0-2.106-.125-.423-.4-1.025-.61-1.334-.375-.549-1.1-1.146-1.721-1.415-.624-.27-1.475-.392-2.17-.311ZM38.87 8.503c-.48.6-.873 1.122-.872 1.16 0 .037.082.127.18.2.099.074.649.518 1.222.987 2.577 2.108 2.786 2.269 2.854 2.2.175-.18 1.758-2.203 1.746-2.232-.008-.02-.394-.345-.858-.723-2.585-2.108-3.303-2.684-3.348-2.684-.027 0-.443.491-.923 1.092Zm-3.412 4.273a16217.02 16217.02 0 0 1-5.93 7.431c-3.83 4.795-3.884 4.864-3.826 4.934.032.039.406.354.833.7l2.033 1.657c.692.565 1.277 1.027 1.3 1.027.023 0 .86-1.026 1.862-2.28l3.634-4.552a13405.7 13405.7 0 0 0 5.575-6.986c.413-.52.752-.968.752-.998 0-.029-.362-.35-.805-.713-.78-.638-3.225-2.625-3.344-2.715-.038-.03-.757.832-2.084 2.495Zm-26.082-.123a7.21 7.21 0 0 0-1.882 1.383 6.142 6.142 0 0 0-1.616 2.786l-.11.408a1 1 0 0 0-.034.254l-.02 3.27-.016 2.393a1 1 0 0 0 1 1.006h13.358a1 1 0 0 0 1-1v-2.186c0-2.65-.014-3.266-.082-3.665-.27-1.572-1.131-2.93-2.522-3.981-.442-.334-1.424-.898-1.563-.898-.035 0-.258.13-.495.287-.804.537-1.493.787-2.442.887-.713.074-1.396-.006-2.227-.262-.332-.102-1.039-.478-1.355-.72-.174-.133-.346-.243-.381-.244-.036 0-.312.126-.613.281Zm4.785 1.85c.014.014.066.218.115.453l.394 1.892c.027.132.134.648.239 1.147a357.624 357.624 0 0 1 .394 1.887c.072.342.1.59.072.647-.053.11-1.868 2.078-1.917 2.078-.07 0-1.928-2.045-1.944-2.139-.014-.083.048-.422.255-1.38l.184-.88c.079-.381.162-.777.185-.88.023-.102.106-.498.185-.88.145-.698.169-.812.315-1.492.044-.206.08-.39.08-.41 0-.02.042-.045.093-.057.13-.03 1.318-.019 1.35.013Zm9.82 1.785c-.014.06-.02.431-.01.827a.74.74 0 0 0 .734.723l2.09.01 1.985.01a.822.822 0 0 0 .826-.822.83.83 0 0 0-.826-.83l-1.974-.01c-2.76-.014-2.8-.013-2.825.092Zm15.742 1.038c-.514.644-.933 1.19-.932 1.213.002.023.262.246.579.495.316.25.576.494.577.542.001.05-.746 1.026-1.66 2.17-1.559 1.952-1.662 2.096-1.662 2.295 0 .16.03.233.117.295.156.11.426.106.558-.01.094-.082 1.625-1.99 4.848-6.038.526-.66.97-1.25.99-1.313.05-.168-.05-.378-.226-.47-.23-.12-.431-.027-.697.32-.121.16-.236.29-.254.29-.018 0-.3-.216-.625-.48s-.611-.48-.635-.48c-.023 0-.464.527-.978 1.17Zm-15.729 4.623c-.04.041-.048 1.467-.008 1.573.021.056.178.066.752.044l.267-.01a1 1 0 0 0 .744-.374l.332-.415c.34-.426.62-.791.62-.814.003-.049-2.658-.053-2.707-.004Zm14.293 3.79-.576.728a1 1 0 0 0-.217.618l-.025 7.944-.023 7.296a1 1 0 0 1-1 .996l-14.37.013-14.715.013a.67.67 0 0 0-.669.653c-.009.36-.009.731 0 .827.01.098.092.173.191.173h31.222a1 1 0 0 0 1-1v-9.13c0-5.572-.006-10.13-.013-10.13-.008.001-.37.45-.805 1Zm-13.182.213-.264.84c-.102.323-.272.874-.38 1.226a51.12 51.12 0 0 1-.29.933c-.054.162-.22.69-.37 1.173-.15.484-.316 1.012-.368 1.173-.053.162-.16.51-.237.774-.078.263-.164.536-.192.606-.04.097-.035.12.018.099.104-.04 6.286-3.613 6.336-3.66.023-.023-.428-.426-1.003-.896-1.965-1.607-3.102-2.52-3.136-2.52-.019 0-.07.113-.114.252Zm-19.37 2.235c-.02.02-.035.392-.035.827 0 .436.354.79.79.79h14.954a.826.826 0 0 0 0-1.652H14.02c-4.538 0-8.266.016-8.285.035ZM5.7 34.71c0 .784.002.799.118.827.066.017 5.439.023 11.94.015l11.008-.014c.452 0 .82-.362.828-.814a.799.799 0 0 0-.799-.813H6.498a.799.799 0 0 0-.798.799Z" fill="#fff"/></svg>