<svg width="112" height="26" viewBox="0 0 112 26" fill="none" xmlns="http://www.w3.org/2000/svg">
<path fill-rule="evenodd" clip-rule="evenodd" d="M55.3204 11.9309C56.2208 11.9309 57.0368 11.8465 57.5152 12.7469C57.8528 13.4222 57.8528 14.013 57.8528 14.8572H53.0693C53.0693 13.2814 53.7446 11.9309 55.3204 11.9309ZM50.6775 15.3356C50.6775 17.1927 50.7056 18.9093 51.803 20.288C53.0693 21.8638 54.5325 21.8918 56.3896 21.8918C57.0368 21.8918 57.7121 21.8356 58.303 21.723C59.9914 21.3853 59.71 21.3853 59.71 19.894C59.71 18.9654 58.5563 19.7533 55.7706 19.7533C55.2359 19.7533 54.9546 19.6971 54.5043 19.5282C54.0823 19.3875 54.026 19.2751 53.7446 18.9937C53.3507 18.5716 53.0693 17.6993 53.0693 16.9676H59.5693C59.8507 16.9676 59.9914 16.8832 60.1883 16.7988C60.4979 15.4763 60.1321 12.4373 59.2879 11.2555C58.9221 10.7771 58.4437 10.2988 57.8528 10.0737C55.855 9.3421 53.1818 9.62349 51.8875 11.2273C51.0996 12.184 50.6775 13.591 50.6775 15.3356Z" fill="#FEFEFE"/>
<path d="M13 26C20.1797 26 26 20.1797 26 13C26 5.8203 20.1797 0 13 0C5.8203 0 0 5.8203 0 13C0 20.1797 5.8203 26 13 26Z" fill="url(#paint0_linear_470_16529)"/>
<path fill-rule="evenodd" clip-rule="evenodd" d="M22.5953 4.2207C23.9741 5.74018 24.9871 7.56919 25.5499 9.6233H0.422122C0.984892 7.56919 1.99788 5.74018 3.37667 4.2207H22.5953ZM25.6343 16.0951C25.1278 18.1774 24.1148 20.0345 22.7641 21.5821H3.20783C1.85719 20.0345 0.872338 18.1774 0.365845 16.0951H25.6343Z" fill="#FFED00"/>
<path fill-rule="evenodd" clip-rule="evenodd" d="M43.3896 19.3593H39.7598V13.9286H43.7836C45.303 13.9286 46.4286 14.632 46.4286 16.0952C46.4286 17.9242 46.2598 19.3593 43.3896 19.3593ZM43.5585 11.5368H39.7598V6.75323H43.474C44.8247 6.75323 45.8658 7.42855 45.8658 8.75106V9.45452C45.8658 10.8052 44.9091 11.5368 43.5585 11.5368ZM37.368 4.72725V21.2164C37.368 21.4134 37.3961 21.4134 37.4524 21.5822C38.2403 21.7792 42.5736 21.6666 43.6991 21.6666C45.2749 21.6666 46.5411 21.1602 47.4697 20.4567C49.2706 19.106 49.5238 15.8701 48.342 14.013C48.0606 13.5909 47.329 12.7749 46.7944 12.6342C46.9351 12.1558 47.2165 12.4372 47.9199 11.2835C48.7359 9.93288 48.6797 7.90691 47.9199 6.64067C46.6818 4.58656 44.5152 4.36145 41.9264 4.36145H38.2121C37.8745 4.36145 37.368 4.38959 37.368 4.72725Z" fill="#FEFEFE"/>
<path fill-rule="evenodd" clip-rule="evenodd" d="M66.5195 11.9309C67.4762 11.9309 68.3485 11.7902 68.855 12.7469C69.1926 13.3659 69.2208 14.0694 69.2208 14.8573H64.4372C64.4372 13.4785 65.0562 11.9309 66.5195 11.9309ZM62.0454 15.3356C62.0454 17.1928 62.0454 18.9092 63.171 20.288C64.4653 21.8638 65.8441 21.8919 67.7575 21.8919C68.7705 21.8919 69.671 21.7512 70.5995 21.498C71.2186 21.301 71.0779 20.9352 71.0779 19.8941C71.0779 19.6971 71.0498 19.6689 70.9935 19.5001C70.1775 19.3031 69.9524 19.5845 68.9956 19.6689C67.7575 19.7534 65.9004 20.0066 65.0844 18.9936C64.7186 18.5434 64.4372 17.7274 64.4372 16.9677H70.9372C71.2186 16.9677 71.3593 16.8832 71.5562 16.7988C71.8376 15.5044 71.5 12.4092 70.684 11.3118C68.9956 8.97627 64.803 9.31393 63.2554 11.2274C62.4675 12.2122 62.0454 13.591 62.0454 15.3356Z" fill="#FEFEFE"/>
<path fill-rule="evenodd" clip-rule="evenodd" d="M85.4567 10.6083C85.2597 9.79224 85.1191 9.93293 84.0779 9.93293C83.881 9.93293 83.684 10.1299 83.684 10.2987V21.3572C83.684 21.8637 84.6688 21.6667 85.6818 21.6667C86.0758 21.6667 86.0195 21.2165 85.9913 20.8225V12.4654C87.1732 11.8464 87.6515 11.9308 88.9459 11.9308C89.8463 11.9308 90.3247 12.3528 90.3247 13.2533V21.4416C90.4935 21.5541 90.5217 21.6667 90.7186 21.6667C92.0411 21.6667 92.7165 21.8918 92.7165 21.1321V13.6191C92.7165 11.1148 91.3377 9.67969 88.6364 9.67969C87.961 9.67969 87.3983 9.82038 86.9199 9.98921C86.3853 10.158 85.8788 10.5238 85.4567 10.6083Z" fill="#FEFEFE"/>
<path fill-rule="evenodd" clip-rule="evenodd" d="M73.723 4.81178V21.3572C73.723 21.8637 74.6515 21.6667 75.6364 21.6667C75.8896 21.6667 76.0303 21.3853 76.0303 21.1321V4.98061C76.0303 4.24901 75.2987 4.41784 74.2576 4.41784C73.9762 4.41784 73.723 4.55853 73.723 4.81178Z" fill="#FEFEFE"/>
<path fill-rule="evenodd" clip-rule="evenodd" d="M79.1255 21.6667C80.448 21.6667 81.1233 21.8918 81.1233 21.1321V10.6083C81.1233 10.3269 81.0671 10.1862 80.9827 9.98923C80.3917 9.84854 79.9697 9.93295 79.2662 9.93295C78.6753 9.93295 78.7878 10.4113 78.816 10.8334C78.9004 13.4503 78.816 17.5585 78.816 20.3723C78.816 20.8226 78.6472 21.6667 79.1255 21.6667Z" fill="#FEFEFE"/>
<path fill-rule="evenodd" clip-rule="evenodd" d="M78.5909 6.27484C78.5909 6.86575 79.1818 7.59735 79.7446 7.59735H80.1385C81.5173 7.59735 81.855 4.98047 79.8853 4.98047C79.1818 4.98047 78.5909 5.62765 78.5909 6.27484Z" fill="#FEFEFE"/>
<path fill-rule="evenodd" clip-rule="evenodd" d="M99.3009 11.9308C100.229 11.9308 101.102 11.8464 101.58 12.8312C101.693 13.0563 101.805 13.4784 101.833 13.7316C101.862 14.0412 101.918 14.6321 101.918 14.8572H97.0498C97.2468 14.0974 97.2468 11.9308 99.3009 11.9308ZM94.6581 15.7857C94.6581 19.0217 95.8399 21.8918 99.3853 21.8918C100.286 21.8918 103.719 21.8355 103.719 21.1321C103.719 18.4308 104.141 19.7533 99.6948 19.7533C97.9221 19.7533 97.1342 18.6277 97.1342 16.9676H103.719C104.478 16.9676 104.253 16.2078 104.253 14.6321C104.253 11.4806 102.706 9.67969 99.6948 9.67969C95.9243 9.67969 94.6581 12.4091 94.6581 15.7857Z" fill="#FEFEFE"/>
<path fill-rule="evenodd" clip-rule="evenodd" d="M108.727 12.5499H109.206V10.7771L109.825 12.1559H110.191C110.387 11.7901 110.613 11.0867 110.81 10.8616C110.81 11.9027 110.641 12.5499 111.119 12.5499C111.316 12.5499 111.372 12.4936 111.372 12.3248V9.93298C111.372 9.6516 111.232 9.67974 110.978 9.67974C110.697 9.67974 110.556 10.2425 110.444 10.4958C110.331 10.7771 110.106 11.1992 110.05 11.4806C110.05 11.4525 110.022 11.3962 110.022 11.4243L109.262 9.67974H108.727V12.5499Z" fill="#FEFEFE"/>
<path fill-rule="evenodd" clip-rule="evenodd" d="M106.504 10.2425C106.87 10.1862 106.87 10.158 107.18 10.2425V12.5498H107.658V10.2425H108.333V9.67969H106.504V10.2425Z" fill="#FEFEFE"/>
<defs>
<linearGradient id="paint0_linear_470_16529" x1="-0.0166017" y1="13.0065" x2="25.9938" y2="13.0065" gradientUnits="userSpaceOnUse">
<stop stop-color="#242424"/>
<stop offset="0.658824" stop-color="#494644"/>
<stop offset="1" stop-color="#424242"/>
</linearGradient>
</defs>
</svg>
