<svg width="50" height="50" fill="none" xmlns="http://www.w3.org/2000/svg"><path fill-rule="evenodd" clip-rule="evenodd" d="M17.758 3.576c0-.632.456-1.07.918-1.07h10.552a.889.889 0 0 1 .505.184l.104.086c.18.17.309.394.309.724v2.064H17.758V3.576Zm-2.102-.114v2.102H3.116c-1.094 0-2.184.7-2.665 1.657-.146.291-.318.721-.318 1.134V40.09c0 1.354 1.4 2.79 2.944 2.79h24.737c.114 0 .938-.873.994-.955l-.434-.828c-.06-.12-.088-.212-.14-.32-1.29 0-25.023.048-25.32-.027a.907.907 0 0 1-.637-.587c-.085-.236-.041-2.712-.041-3.094v-9.902c.212.102.6.191.918.191h27.03c.161 0 .417-.416.715-.662.334-.276.537-.536 1.082-.944l.65-.497H5.256c-.65 0-1.3-.003-1.95.001-.654.004-1.07-.44-1.07-.918V8.508c0-.463.487-.84.88-.84h41.673c.269 0 .58.188.722.385.205.285.157.529.157.99v15.829c.718.48.822.497 1.584 1.092.129.1.398.367.519.399V8.547c.004-1.663-1.423-2.983-2.982-2.983h-12.54V3.462c0-1.008-.497-1.859-1.261-2.448-.42-.325-1.103-.61-1.683-.61H18.56c-.653 0-1.35.35-1.826.773-.66.585-1.08 1.351-1.08 2.285Z" fill="#fff"/><path fill-rule="evenodd" clip-rule="evenodd" d="M39.895 43.874c-.637 0-1.039.025-1.672-.087-.923-.163-1.484-.315-2.304-.717l-.658-.336c-2.36-1.488-4.045-3.885-4.045-7.157 0-3.026 1.826-5.873 4.078-7.086.127-.068.187-.131.309-.189l.709-.322c3.027-1.314 6.686-.546 9.06 1.814l.471.523c.323.415.562.71.831 1.195.068.122.102.21.172.326.089.143.1.204.173.362.546 1.169.881 2.942.693 4.235-.046.31-.066.633-.131.902-.317 1.301-.92 2.725-1.846 3.698-.104.11-.137.177-.248.287-1.116 1.11-1.743 1.443-3.031 2.016-.243.108-.502.163-.778.254-.403.132-1.342.282-1.783.282Zm-10.782-8.259c0 1.574.385 3.259 1.035 4.51.057.11.127.222.189.346.066.135.128.229.204.37.274.503.601.859.905 1.312l-6.165 6.184 1.453 1.472c.198-.06 1.394-1.337 1.567-1.51l4.45-4.459c.003-.003.05-.042.061-.053.088-.09.057-.031.087-.143l1.249.854c.452.27.942.522 1.427.714l.753.279c.51.203 1.203.312 1.748.392 1.258.186 2.806.12 3.985-.226l1.881-.68c.285-.114.554-.295.822-.44a7.09 7.09 0 0 0 1.468-1.055c.8-.762 1.158-1.103 1.807-2.017.949-1.336 1.514-2.948 1.742-4.604.051-.369.066-.856.087-1.213.018-.306-.047-.847-.074-1.176-.121-1.464-.813-3.43-1.706-4.64l-.535-.727c-.114-.155-.192-.208-.301-.35-.114-.146-.186-.21-.313-.337-1.039-1.039-2.408-2.05-3.828-2.518-1.55-.511-2.328-.646-4.019-.646-.746 0-1.527.123-2.204.32-.835.24-1.562.489-2.281.891a11.954 11.954 0 0 0-2.297 1.68c-.997.919-1.72 2.062-2.304 3.278a7.846 7.846 0 0 0-.352.91c-.22.66-.4 1.332-.463 2.06-.034.402-.078.785-.078 1.222Zm-7.226-14.719c0 .745.028 1.116.621 1.711.774.776 2.09.81 2.913-.014l.018-.019c.62-.643.784-1.574.4-2.341-.65-1.295-2.174-1.6-3.29-.664-.269.224-.662.852-.662 1.327Z" fill="#fff"/></svg>