<svg width="61" height="61" viewBox="0 0 61 61" fill="none" xmlns="http://www.w3.org/2000/svg"><g clip-path="url(#a)"><g filter="url(#b)"><path fill-rule="evenodd" clip-rule="evenodd" d="M37.208 18.32c0 2.129-.047 3.212-.666 5.215-.058.189-.135.32-.181.517h13.45c.612 0 4.248-.069 4.518.034l.002 27.445c-.001 1.134-.862 1.98-2.014 1.98H13.591c-.8 0-1.37-.388-1.688-.876-.41-.627-.325-1.266-.325-2.251V34.96c-.273-.063-.926-.418-1.166-.554-.095-.054-.176-.088-.275-.147l-.286-.17a23.035 23.035 0 0 1-2.077-1.43 13.633 13.633 0 0 0-.235-.185c-.118-.092-.138-.122-.267-.19v17.579c0 1.446-.088 2.18.366 3.53.457 1.36 1.457 2.538 2.684 3.264.735.435 1.936.883 3.092.883h39.08c.74 0 1.577-.204 2.244-.466.808-.317 1.502-.807 2.106-1.401.955-.938 1.792-2.517 1.792-4.386V17.625c0-1.517-.611-3.116-1.669-4.194-.09-.092-.102-.145-.193-.227a7.022 7.022 0 0 0-1.903-1.253c-1.551-.68-3.098-.544-4.813-.544v4.307c0 1.16-.513 2.15-1.298 2.927-2.063 2.043-5.75 1.336-6.872-1.314-.218-.515-.373-1.037-.373-1.752v-4.168h-6.037c.056.104.109.238.161.362.618 1.452 1.15 3.014 1.382 4.58.093.63.187 1.27.187 1.97Z" fill="#fff"/></g><g filter="url(#c)"><path fill-rule="evenodd" clip-rule="evenodd" d="M10.908 5.119c.89 0 1.75.531 2.16 1.139.087.128.182.269.253.412.152.306.23.651.376.95.346-.18.727-.334 1.099-.481 2.462-.974 5.275-.97 7.812-.263 1.32.367 2.526.971 3.642 1.731.531.362 1.023.776 1.505 1.193.339.294.613.65.919.973.764.808 1.327 1.79 1.827 2.787.717 1.433 1.164 3.342 1.164 4.968 0 2.004-.332 3.697-1.153 5.431l-.377.74a7.91 7.91 0 0 1-.739 1.184c-.445.583-.888 1.155-1.41 1.669a12.696 12.696 0 0 1-5.873 3.288c-2.861.703-5.69.388-8.346-.778a12.16 12.16 0 0 1-2.4-1.424c-.076-.057-.138-.108-.217-.17-.985-.772-1.041-.947-1.751-1.68-.131-.136-.23-.27-.347-.424-1.686-2.204-2.628-4.745-2.628-7.558l.212-.035c0-1.78.291-3.376 1.291-4.739.115-.156.24-.363.404-.471.24.103.503.385.71.55.34.27.736.584 1.045.883.44.426.976.322 1.095-.295.337-1.742.554-4.334.4-6.177-.032-.374.122-1.33-.707-1.32-.337.004-.617-.033-.99-.033-1.978 0-3.87.035-5.785.352-.185.03-.492.056-.635.14-.332.192-.351.712-.205.92.054.078.21.143.314.247l.584.503c.214.21.957.891 1.173 1.034l-.459.833c-.073.144-.124.274-.2.429-.08.164-.124.295-.2.463-.172.376-.438 1.01-.54 1.415a6.01 6.01 0 0 1-.15.512A15.156 15.156 0 0 0 3 18.588v.554a14.876 14.876 0 0 0 .466 3.444c.23.911.857 2.657 1.341 3.44.128.206.225.415.353.625l.756 1.167c.588.837 1.29 1.603 2.017 2.322l.78.691c.73.576 1.47 1.11 2.272 1.586.416.248.84.49 1.295.672l.66.288c.715.294 1.42.538 2.19.728 2.859.709 5.732.622 8.544-.2.291-.085.47-.156.741-.244.253-.081.467-.171.69-.26.67-.265 1.334-.598 1.956-.957.82-.474 1.531-1.019 2.274-1.583l.786-.686c.4-.396.83-.803 1.176-1.24.15-.19.274-.326.423-.521.425-.556.821-1.114 1.188-1.715.123-.203.216-.405.34-.604.111-.182.246-.44.334-.644.398-.918.775-1.822 1.028-2.81.64-2.499.64-5.176.007-7.677-.134-.53-.29-.969-.458-1.46l-.416-1.015c-.048-.117-.102-.203-.156-.333-.444-1.056-1.323-2.34-2.052-3.227-.083-.1-.15-.174-.223-.267L29.618 6.96c-.105-.08-.153-.145-.262-.228l-1.095-.834c-1.112-.792-2.547-1.547-3.845-1.982-1.003-.336-2.043-.613-3.105-.767A15.239 15.239 0 0 0 19.637 3h-1.045c-1.42.047-2.81.285-4.19.66-.77.21-1.512.515-2.244.814-.164.067-.268.136-.428.204-.215.09-.691.265-.822.441Z" fill="#3D5F95"/></g><g filter="url(#d)"><path fill-rule="evenodd" clip-rule="evenodd" d="M19.274 16.548c-.445-.036-.92-.161-1.518.104-2.162.96-1.177 3.886-.247 4.1l.459 5.21c.037 1.01 1.33 1.11 1.916.46.282-.313.269-.596.272-1.017.001-.205.033-.343.035-.59l.107-1.458c.02-.38.102-2.532.16-2.725.027-.088.188-.29.25-.38.336-.493.538-1.181.445-1.804-.042-.284.032-.224.219-.46l2.522-2.87c.06-.072.109-.105.17-.178l.338-.398c.078-.083.092-.101.162-.188.06-.073.11-.105.171-.178l1.192-1.364c.395-.565.23-1.405-.757-1.405-.484 0-.61.263-.888.481-.114.09-.23.219-.339.327-.133.132-.238.197-.37.33l-.885.832c-.298.245-.326.314-.546.505l-1.447 1.32c-.277.274-1.283 1.144-1.42 1.346Z" fill="#3D5F95"/></g><g filter="url(#e)"><path fill-rule="evenodd" clip-rule="evenodd" d="M43.633 9.357v6.184c0 .935.428 1.719 1.194 2.02 1.443.568 3.113-.152 3.113-1.916V9.253c0-2.696-4.307-2.825-4.307.104Z" fill="#3D5F95"/></g><g filter="url(#f)"><path fill-rule="evenodd" clip-rule="evenodd" d="M43.633 32.493h4.307v-4.238h-4.307v4.238Z" fill="#fff"/></g><g filter="url(#g)"><path fill-rule="evenodd" clip-rule="evenodd" d="M43.633 49.237c0 .08.024.105.106.105h4.2v-4.239h-4.306v4.134Z" fill="#fff"/></g><g filter="url(#h)"><path fill-rule="evenodd" clip-rule="evenodd" d="M43.633 36.766V40.9h4.307v-4.238h-4.201c-.082 0-.106.024-.106.104Z" fill="#fff"/></g><g filter="url(#i)"><path fill-rule="evenodd" clip-rule="evenodd" d="M17.968 40.9h4.307v-4.134c0-.08-.025-.104-.106-.104h-4.201V40.9Z" fill="#fff"/></g><g filter="url(#j)"><path fill-rule="evenodd" clip-rule="evenodd" d="M17.968 49.342h4.201c.081 0 .106-.024.106-.105v-4.134h-4.307v4.239Z" fill="#fff"/></g><g filter="url(#k)"><path fill-rule="evenodd" clip-rule="evenodd" d="M35.09 40.9h4.306v-4.134c0-.08-.024-.104-.105-.104H35.09V40.9Z" fill="#fff"/></g><g filter="url(#l)"><path fill-rule="evenodd" clip-rule="evenodd" d="M26.511 49.237c0 .08.025.105.106.105h4.201v-4.239h-4.307v4.134Z" fill="#fff"/></g><g filter="url(#m)"><path fill-rule="evenodd" clip-rule="evenodd" d="M35.09 49.342h4.2c.082 0 .107-.024.107-.105v-4.134H35.09v4.239Z" fill="#fff"/></g><g filter="url(#n)"><path fill-rule="evenodd" clip-rule="evenodd" d="M26.511 36.766V40.9h4.307v-4.238h-4.2c-.082 0-.107.024-.107.104Z" fill="#fff"/></g><g filter="url(#o)"><path fill-rule="evenodd" clip-rule="evenodd" d="M35.09 32.493h4.2c.082 0 .107-.024.107-.104v-4.134H35.09v4.238Z" fill="#fff"/></g></g><defs><filter id="b" x="-5.735" y="3.396" width="77.371" height="72.144" filterUnits="userSpaceOnUse" color-interpolation-filters="sRGB"><feFlood flood-opacity="0" result="BackgroundImageFix"/><feColorMatrix in="SourceAlpha" values="0 0 0 0 0 0 0 0 0 0 0 0 0 0 0 0 0 0 127 0" result="hardAlpha"/><feOffset dy="5"/><feGaussianBlur stdDeviation="6.5"/><feComposite in2="hardAlpha" operator="out"/><feColorMatrix values="0 0 0 0 0 0 0 0 0 0 0 0 0 0 0 0 0 0 0.15 0"/><feBlend in2="BackgroundImageFix" result="effect1_dropShadow_254_869"/><feBlend in="SourceGraphic" in2="effect1_dropShadow_254_869" result="shape"/></filter><filter id="c" x="-10" y="-5" width="58.091" height="57.584" filterUnits="userSpaceOnUse" color-interpolation-filters="sRGB"><feFlood flood-opacity="0" result="BackgroundImageFix"/><feColorMatrix in="SourceAlpha" values="0 0 0 0 0 0 0 0 0 0 0 0 0 0 0 0 0 0 127 0" result="hardAlpha"/><feOffset dy="5"/><feGaussianBlur stdDeviation="6.5"/><feComposite in2="hardAlpha" operator="out"/><feColorMatrix values="0 0 0 0 0 0 0 0 0 0 0 0 0 0 0 0 0 0 0.15 0"/><feBlend in2="BackgroundImageFix" result="effect1_dropShadow_254_869"/><feBlend in="SourceGraphic" in2="effect1_dropShadow_254_869" result="shape"/></filter><filter id="d" x="3.457" y="3.407" width="35.668" height="41.426" filterUnits="userSpaceOnUse" color-interpolation-filters="sRGB"><feFlood flood-opacity="0" result="BackgroundImageFix"/><feColorMatrix in="SourceAlpha" values="0 0 0 0 0 0 0 0 0 0 0 0 0 0 0 0 0 0 127 0" result="hardAlpha"/><feOffset dy="5"/><feGaussianBlur stdDeviation="6.5"/><feComposite in2="hardAlpha" operator="out"/><feColorMatrix values="0 0 0 0 0 0 0 0 0 0 0 0 0 0 0 0 0 0 0.15 0"/><feBlend in2="BackgroundImageFix" result="effect1_dropShadow_254_869"/><feBlend in="SourceGraphic" in2="effect1_dropShadow_254_869" result="shape"/></filter><filter id="e" x="30.633" y="-.804" width="30.307" height="36.556" filterUnits="userSpaceOnUse" color-interpolation-filters="sRGB"><feFlood flood-opacity="0" result="BackgroundImageFix"/><feColorMatrix in="SourceAlpha" values="0 0 0 0 0 0 0 0 0 0 0 0 0 0 0 0 0 0 127 0" result="hardAlpha"/><feOffset dy="5"/><feGaussianBlur stdDeviation="6.5"/><feComposite in2="hardAlpha" operator="out"/><feColorMatrix values="0 0 0 0 0 0 0 0 0 0 0 0 0 0 0 0 0 0 0.15 0"/><feBlend in2="BackgroundImageFix" result="effect1_dropShadow_254_869"/><feBlend in="SourceGraphic" in2="effect1_dropShadow_254_869" result="shape"/></filter><filter id="f" x="30.633" y="20.255" width="30.307" height="30.238" filterUnits="userSpaceOnUse" color-interpolation-filters="sRGB"><feFlood flood-opacity="0" result="BackgroundImageFix"/><feColorMatrix in="SourceAlpha" values="0 0 0 0 0 0 0 0 0 0 0 0 0 0 0 0 0 0 127 0" result="hardAlpha"/><feOffset dy="5"/><feGaussianBlur stdDeviation="6.5"/><feComposite in2="hardAlpha" operator="out"/><feColorMatrix values="0 0 0 0 0 0 0 0 0 0 0 0 0 0 0 0 0 0 0.15 0"/><feBlend in2="BackgroundImageFix" result="effect1_dropShadow_254_869"/><feBlend in="SourceGraphic" in2="effect1_dropShadow_254_869" result="shape"/></filter><filter id="g" x="30.633" y="37.103" width="30.307" height="30.238" filterUnits="userSpaceOnUse" color-interpolation-filters="sRGB"><feFlood flood-opacity="0" result="BackgroundImageFix"/><feColorMatrix in="SourceAlpha" values="0 0 0 0 0 0 0 0 0 0 0 0 0 0 0 0 0 0 127 0" result="hardAlpha"/><feOffset dy="5"/><feGaussianBlur stdDeviation="6.5"/><feComposite in2="hardAlpha" operator="out"/><feColorMatrix values="0 0 0 0 0 0 0 0 0 0 0 0 0 0 0 0 0 0 0.15 0"/><feBlend in2="BackgroundImageFix" result="effect1_dropShadow_254_869"/><feBlend in="SourceGraphic" in2="effect1_dropShadow_254_869" result="shape"/></filter><filter id="h" x="30.633" y="28.662" width="30.307" height="30.238" filterUnits="userSpaceOnUse" color-interpolation-filters="sRGB"><feFlood flood-opacity="0" result="BackgroundImageFix"/><feColorMatrix in="SourceAlpha" values="0 0 0 0 0 0 0 0 0 0 0 0 0 0 0 0 0 0 127 0" result="hardAlpha"/><feOffset dy="5"/><feGaussianBlur stdDeviation="6.5"/><feComposite in2="hardAlpha" operator="out"/><feColorMatrix values="0 0 0 0 0 0 0 0 0 0 0 0 0 0 0 0 0 0 0.15 0"/><feBlend in2="BackgroundImageFix" result="effect1_dropShadow_254_869"/><feBlend in="SourceGraphic" in2="effect1_dropShadow_254_869" result="shape"/></filter><filter id="i" x="4.968" y="28.662" width="30.307" height="30.238" filterUnits="userSpaceOnUse" color-interpolation-filters="sRGB"><feFlood flood-opacity="0" result="BackgroundImageFix"/><feColorMatrix in="SourceAlpha" values="0 0 0 0 0 0 0 0 0 0 0 0 0 0 0 0 0 0 127 0" result="hardAlpha"/><feOffset dy="5"/><feGaussianBlur stdDeviation="6.5"/><feComposite in2="hardAlpha" operator="out"/><feColorMatrix values="0 0 0 0 0 0 0 0 0 0 0 0 0 0 0 0 0 0 0.15 0"/><feBlend in2="BackgroundImageFix" result="effect1_dropShadow_254_869"/><feBlend in="SourceGraphic" in2="effect1_dropShadow_254_869" result="shape"/></filter><filter id="j" x="4.968" y="37.103" width="30.307" height="30.238" filterUnits="userSpaceOnUse" color-interpolation-filters="sRGB"><feFlood flood-opacity="0" result="BackgroundImageFix"/><feColorMatrix in="SourceAlpha" values="0 0 0 0 0 0 0 0 0 0 0 0 0 0 0 0 0 0 127 0" result="hardAlpha"/><feOffset dy="5"/><feGaussianBlur stdDeviation="6.5"/><feComposite in2="hardAlpha" operator="out"/><feColorMatrix values="0 0 0 0 0 0 0 0 0 0 0 0 0 0 0 0 0 0 0.15 0"/><feBlend in2="BackgroundImageFix" result="effect1_dropShadow_254_869"/><feBlend in="SourceGraphic" in2="effect1_dropShadow_254_869" result="shape"/></filter><filter id="k" x="22.09" y="28.662" width="30.307" height="30.238" filterUnits="userSpaceOnUse" color-interpolation-filters="sRGB"><feFlood flood-opacity="0" result="BackgroundImageFix"/><feColorMatrix in="SourceAlpha" values="0 0 0 0 0 0 0 0 0 0 0 0 0 0 0 0 0 0 127 0" result="hardAlpha"/><feOffset dy="5"/><feGaussianBlur stdDeviation="6.5"/><feComposite in2="hardAlpha" operator="out"/><feColorMatrix values="0 0 0 0 0 0 0 0 0 0 0 0 0 0 0 0 0 0 0.15 0"/><feBlend in2="BackgroundImageFix" result="effect1_dropShadow_254_869"/><feBlend in="SourceGraphic" in2="effect1_dropShadow_254_869" result="shape"/></filter><filter id="l" x="13.511" y="37.103" width="30.307" height="30.238" filterUnits="userSpaceOnUse" color-interpolation-filters="sRGB"><feFlood flood-opacity="0" result="BackgroundImageFix"/><feColorMatrix in="SourceAlpha" values="0 0 0 0 0 0 0 0 0 0 0 0 0 0 0 0 0 0 127 0" result="hardAlpha"/><feOffset dy="5"/><feGaussianBlur stdDeviation="6.5"/><feComposite in2="hardAlpha" operator="out"/><feColorMatrix values="0 0 0 0 0 0 0 0 0 0 0 0 0 0 0 0 0 0 0.15 0"/><feBlend in2="BackgroundImageFix" result="effect1_dropShadow_254_869"/><feBlend in="SourceGraphic" in2="effect1_dropShadow_254_869" result="shape"/></filter><filter id="m" x="22.09" y="37.103" width="30.307" height="30.238" filterUnits="userSpaceOnUse" color-interpolation-filters="sRGB"><feFlood flood-opacity="0" result="BackgroundImageFix"/><feColorMatrix in="SourceAlpha" values="0 0 0 0 0 0 0 0 0 0 0 0 0 0 0 0 0 0 127 0" result="hardAlpha"/><feOffset dy="5"/><feGaussianBlur stdDeviation="6.5"/><feComposite in2="hardAlpha" operator="out"/><feColorMatrix values="0 0 0 0 0 0 0 0 0 0 0 0 0 0 0 0 0 0 0.15 0"/><feBlend in2="BackgroundImageFix" result="effect1_dropShadow_254_869"/><feBlend in="SourceGraphic" in2="effect1_dropShadow_254_869" result="shape"/></filter><filter id="n" x="13.511" y="28.662" width="30.307" height="30.238" filterUnits="userSpaceOnUse" color-interpolation-filters="sRGB"><feFlood flood-opacity="0" result="BackgroundImageFix"/><feColorMatrix in="SourceAlpha" values="0 0 0 0 0 0 0 0 0 0 0 0 0 0 0 0 0 0 127 0" result="hardAlpha"/><feOffset dy="5"/><feGaussianBlur stdDeviation="6.5"/><feComposite in2="hardAlpha" operator="out"/><feColorMatrix values="0 0 0 0 0 0 0 0 0 0 0 0 0 0 0 0 0 0 0.15 0"/><feBlend in2="BackgroundImageFix" result="effect1_dropShadow_254_869"/><feBlend in="SourceGraphic" in2="effect1_dropShadow_254_869" result="shape"/></filter><filter id="o" x="22.09" y="20.255" width="30.307" height="30.238" filterUnits="userSpaceOnUse" color-interpolation-filters="sRGB"><feFlood flood-opacity="0" result="BackgroundImageFix"/><feColorMatrix in="SourceAlpha" values="0 0 0 0 0 0 0 0 0 0 0 0 0 0 0 0 0 0 127 0" result="hardAlpha"/><feOffset dy="5"/><feGaussianBlur stdDeviation="6.5"/><feComposite in2="hardAlpha" operator="out"/><feColorMatrix values="0 0 0 0 0 0 0 0 0 0 0 0 0 0 0 0 0 0 0.15 0"/><feBlend in2="BackgroundImageFix" result="effect1_dropShadow_254_869"/><feBlend in="SourceGraphic" in2="effect1_dropShadow_254_869" result="shape"/></filter><clipPath id="a"><path fill="#fff" transform="translate(3 3)" d="M0 0h56v55H0z"/></clipPath></defs></svg>