<svg width="121" height="91" viewBox="0 0 121 91" fill="none" xmlns="http://www.w3.org/2000/svg"><g filter="url(#a)"><path fill-rule="evenodd" clip-rule="evenodd" d="M106.802.048c-.585.11-3.551 2.918-3.856 3.649-.217.52-.38.624-1.13.727-1.477.203-5.874 2.95-6.453 4.032-.138.259-.845.837-1.57 1.285-.726.448-1.677 1.202-2.113 1.675-.674.732-.793.986-.79 1.688.004.52.145 1.004.383 1.309.518.662.497.706-.404.85-1.86.298-3.616 1.607-4.421 3.294l-.58 1.218-1.501-.36c-1.852-.443-3.296-.465-3.877-.058-.239.167-.69.813-1.005 1.436l-.57 1.131-1.406-.105c-1.262-.094-1.444-.063-1.774.305-.229.255-.601.41-.985.41-.443 0-.812.19-1.313.676-.383.372-.835.677-1.004.677-.596 0-1.857.797-2.23 1.41-.209.34-.434 1.033-.501 1.538-.118.885-.145.919-.759.919-.403 0-.855.184-1.232.501-.59.497-.604.498-1.499.194-1.775-.606-2.657-.286-2.61.947.015.4.082.913.15 1.139.205.679-1.41-.988-2.11-2.18-.338-.575-.85-1.22-1.138-1.435-.474-.355-.6-.368-1.342-.146-.78.234-1.764 1.055-2.2 1.835-.325.584-2.07.642-3.511.116-1.105-.403-1.199-.409-1.778-.109-.337.174-.71.53-.828.79-.243.535-.269.542-1.043.297a15.016 15.016 0 0 0-1.088-.292l-.527-.116.379-.819c.682-1.476 1.739-4.536 1.739-5.037 0-.858-.944-1.486-2.235-1.486-.626 0-.664-.037-.664-.654 0-.515-.16-.799-.756-1.337-2.428-2.195-4.052-1.77-4.638 1.21-.22 1.115-.229 1.127-1.069 1.338-.466.118-1.097.424-1.402.681l-.555.467-.448-.465c-.597-.62-1.7-.635-2.348-.031-.376.351-.654.425-1.437.384-.57-.03-1.094.05-1.27.193-.48.392-2.08 2.902-2.222 3.483-.155.637-.184.64-1.158.132-.608-.318-.977-.377-1.792-.287-1.32.145-1.911.546-2.193 1.487-.125.417-.321.717-.436.668-.115-.05-.536-.196-.934-.326-.399-.13-.725-.342-.725-.47 0-.493-.802-1.252-1.324-1.252-1.068 0-1.806.92-2.042 2.546-.13.892-.305 1.158-.902 1.37-.472.166-.127-1.623.465-2.415.635-.848 1.098-1.79 1.098-2.231 0-.502-.797-1.204-1.365-1.203-.735 0-2.693 1.022-3.738 1.95-.52.462-1.24 1.298-1.596 1.857-.357.558-.829 1.11-1.048 1.228-.219.117-.56.577-.757 1.02l-.358.808-.014-.616c-.021-.95-.315-1.533-1.31-2.596-.957-1.025-1.722-1.525-2.332-1.525-.199 0-.79.305-1.313.677-.523.372-1.042.677-1.153.677-.11 0-.528-.57-.928-1.266-.885-1.54-1.398-1.838-2.365-1.377-.804.384-1.018.299-2.11-.838-1.147-1.194-1.695-1.437-2.407-1.068-1.148.594-1.622.193-1.326-1.125.324-1.442-.24-3.027-1.164-3.268-.693-.181-1.53.377-2.29 1.53-.967 1.463-1.378 1.537-2.398.431-.847-.918-.885-.836.791-1.71.585-.304 1.295-.801 1.578-1.104.641-.685 1.01-2.024.86-3.12-.08-.581.001-1.164.266-1.918.442-1.258.388-1.615-.508-3.323-.357-.68-.65-1.385-.65-1.565 0-.45-.614-.968-1.149-.968-.243 0-.74-.26-1.103-.58-1.064-.935-1.63-.812-3.037.658-1.11 1.159-1.313 1.282-3.213 1.943-2.617.911-3.425 1.398-4.651 2.81-.553.635-1.289 1.323-1.637 1.528a2.177 2.177 0 0 0-.883 1.068c-.248.687-.262.694-1.359.694-1.292 0-1.927-.207-2.747-.897-.513-.433-.718-.486-1.51-.392-1.068.127-1.753.522-2.056 1.188-.21.46-.238.465-.895.19-.607-.253-.768-.25-1.505.035-.455.175-1.336.346-1.96.38-1.285.07-1.796.34-2.573 1.366-.3.395-1.045 1.206-1.656 1.802-1.331 1.3-1.392 1.71-.531 3.61.319.703.58 1.437.58 1.63 0 .197-.378.61-.867.947-1.041.716-1.26 1.082-1.26 2.116 0 .722-.04.786-.514.786-.282 0-.97-.144-1.53-.32-.856-.27-1.108-.282-1.614-.072-.776.321-1.559 1.258-1.559 1.863 0 .622.473 1.735 1.069 2.518.262.344.477.715.477.825 0 .11-.262.613-.582 1.118-.82 1.293-1.01 2.092-.683 2.872.145.348.36 1.258.479 2.023.119.765.353 1.657.521 1.982.262.507.272.75.069 1.707l-.237 1.117-1.86-.011c-1.024-.006-2.036.002-2.248.018-.213.017-.707-.025-1.1-.09-.58-.1-.926-.004-1.866.513l-1.154.635-.7-.615c-1.214-1.065-2.362-.708-2.8.87-.259.933-.266 2.129-.013 2.285.337.209.21 1.135-.374 2.737-.558 1.53-.561 1.562-.217 2.115.193.31.657.854 1.032 1.21.64.608.69.747.812 2.224.235 2.847.534 3.518 1.867 4.2l.705.36.137 2.47c.242 4.385.606 5.471 2.08 6.211.794.399.983.425 1.59.225 1.057-.35 1.369-.963 1.094-2.154-.35-1.517-.311-1.68.436-1.82.933-.175 1.397-.69 1.552-1.723.155-1.039 1.076-2.23 1.722-2.23.228 0 .872.174 1.431.386 1.161.442 2.15.497 2.603.145.172-.133.545-.927.83-1.764.438-1.287.502-1.735.412-2.9-.058-.758-.161-1.646-.23-1.973-.119-.57-.068-.63 1.197-1.384.727-.433 1.387-.747 1.467-.698.08.05.145.305.145.568 0 .722.495 1.76.958 2.008.227.122.69.194 1.031.16.518-.05.698-.21 1.102-.977.479-.909.493-.918 1.455-.918 1.043 0 1.83.392 1.83.913 0 .433 1.663 1.986 2.126 1.986.403 0 .47.179.685 1.837.275 2.122.931 2.788 3.154 3.199 1.905.352 2.278.607 2.949 2.012.756 1.583 1.273 2.06 2.37 2.183.784.088.934.037 1.48-.509.568-.569.598-.667.474-1.57-.12-.877-.098-.964.25-.964.21 0 .524-.218.699-.484.193-.295.498-.483.784-.483.532 0 1.07-.647 1.07-1.288 0-.237.09-.486.201-.555.335-.206 2.076.295 4.533 1.305 1.275.524 3.073 1.228 3.995 1.565l1.675.611.122.81c.176 1.173.83 2.044 1.727 2.295.728.205 1.056.508 2.046 1.898.752 1.054 1.966 1.756 3.694 2.136.492.108.507.158.6 1.92.073 1.412.207 2.055.611 2.938.285.622.605 1.743.71 2.49.107.748.323 1.559.482 1.801.333.508.974.574 1.442.15.291-.264.498-.191 2.141.75 2.062 1.18 2.58 1.784 2.748 3.206.064.541.229 1.22.366 1.506.49 1.02 3.446 2.229 5.521 2.257 1.138.016 1.242-.02 1.688-.59a1.942 1.942 0 0 1 1.196-.741c.397-.075.96-.259 1.25-.409.29-.15.935-.273 1.432-.273.832 0 .978.077 1.852.979 1.56 1.611 2.573 1.835 5.174 1.143.79-.21 1.677-.382 1.971-.382.294 0 .977-.095 1.518-.211 1.192-.256 1.53-.695 1.684-2.19.124-1.197.41-1.565 1.084-1.396.427.107.888.548 3.472 3.313l1.084 1.16 2.668.007c2.574.006 2.722.03 4.187.644 3.491 1.463 5.688 1.115 8.645-1.369l1.39-1.168.566.334c.382.226 1.077.351 2.146.388.87.03 2.027.119 2.573.197.946.136 1.027.111 1.7-.509.743-.683.728-.634 1.75-5.355.173-.802.227-1.81.155-2.922-.101-1.556-.076-1.731.303-2.11.51-.51 1.727-.547 4.148-.125 3.52.615 4.616 1.363 4.861 3.322.304 2.434.845 2.779 4.618 2.943l2.688.116.407.571c.826 1.158 1.233 1.46 1.97 1.46.765 0 1.297-.452 3.181-2.698.643-.766.967-1.014 1.208-.921.283.109.329.433.329 2.329 0 2.702-.16 3.996-.495 3.996-.462 0-1.453 1.011-1.969 2.007-.435.842-.523 1.295-.59 3.023-.085 2.216.12 3.327.761 4.144.947 1.203 2.304.933 3.271-.652.941-1.542 1.334-1.948 1.887-1.949 1.345-.001 2.841-1.82 3.5-4.252 1.01-3.734 1.776-10.587 1.395-12.485-.123-.613-.223-1.774-.223-2.58 0-1.44-.026-1.516-1.46-4.366-1.022-2.032-1.52-3.264-1.664-4.112-.387-2.301-1.463-3.206-3.682-3.095-1.773.088-2.253.468-2.771 2.194l-.398 1.326-.472-.638c-.39-.527-.571-.623-1.051-.555-.32.046-.746.154-.948.241-.349.15-.361.078-.253-1.469.065-.916.367-2.483.692-3.585a64.16 64.16 0 0 0 1.003-3.963c.468-2.206 1.095-3.616 2.534-5.706.991-1.439 1.705-1.942 3.37-2.376.912-.238 2.34-1.421 3.17-2.628.546-.794.605-.826 1.355-.726.64.086.87.024 1.259-.341.267-.251.475-.666.475-.946 0-.275-.348-1.706-.773-3.18-.885-3.07-.92-3.416-.38-3.753.216-.135.557-.517.758-.848.274-.45.526-.614 1.001-.652 1.77-.139 1.814-2.592.092-5.164-.348-.52-.348-.531.024-.531 1.23 0 2.552 1.894 2.944 4.216.191 1.136.176 1.438-.106 2.177-.486 1.271-.541 2.654-.176 4.463.664 3.297 1.769 5.255 4.835 8.571.985 1.066 2.343 2.629 3.018 3.473 1.364 1.705 2.404 2.368 4.014 2.56 1.192.14 1.875-.025 1.995-.483.051-.196-.064-.958-.256-1.694-.191-.736-.353-1.667-.359-2.07-.015-.943-.436-1.941-.98-2.322-.42-.295-.426-.35-.252-2.49.226-2.78.1-3.515-.718-4.198-.609-.509-.621-.545-.323-1 .283-.431.283-.527.004-1.103-.168-.346-.738-.948-1.266-1.336-.618-.454-1.083-.99-1.302-1.5-.479-1.119-.856-1.367-2.075-1.367h-1.043l-.612-1.105-.612-1.105.525-.55c.667-.695.671-1.37.016-2.488l-.509-.87.775-.808c2.04-2.127 3.073-5.79 2.273-8.059-.395-1.121-.364-2.436.094-3.898.522-1.664.498-2.175-.12-2.661-.28-.22-.606-.403-.725-.405-.118-.002-.598-.263-1.065-.58-1.074-.728-2.016-.759-2.989-.099l-.703.479.497-.982c.341-.674.479-1.222.441-1.751-.043-.602.027-.817.325-.981.545-.302.809-.696 1.16-1.73.305-.9.456-1.082 1.877-2.286.546-.462.725-.76.725-1.205 0-.824-.834-2.167-1.523-2.452-.488-.203-.59-.373-.7-1.172-.187-1.361-.68-1.808-1.766-1.602Zm.449 4.456c.181.133.616.241.968.241s.64.07.64.156c0 .087-.38.425-.845.752-.675.477-.938.841-1.313 1.824-.442 1.158-.51 1.235-1.198 1.347-.401.065-.872.261-1.046.436-.276.276-.285.422-.072 1.14.483 1.622.481 1.67-.082 2.518-.391.588-.567 1.13-.626 1.922-.076 1.028-.04 1.145.519 1.705.741.741 1.097.665 2.413-.516.516-.464 1.018-.843 1.115-.843.096 0 .598.221 1.115.492l.94.492-.364 1.169c-.444 1.43-.465 2.949-.055 4.156.741 2.185.051 4.683-1.882 6.806-1.198 1.316-1.299 1.733-.745 3.072.329.794.381 1.098.207 1.206-.128.08-.354.483-.501.898-.148.415-.273.626-.277.47-.005-.157-.194-.872-.421-1.59-.739-2.344-2.359-3.698-4.451-3.721-.911-.01-1.182.07-1.613.471-.44.412-.504.603-.428 1.286.05.451.395 1.307.791 1.959.386.636.702 1.2.702 1.252 0 .053-.25.2-.556.327-.347.144-.751.588-1.072 1.178-.284.521-.772 1.1-1.085 1.284a1.38 1.38 0 0 0-.688.965c-.12.644.48 3.85.995 5.31.376 1.066.362 1.134-.234 1.134-.36 0-.721.237-1.207.793-2.185 2.5-2.584 2.827-3.724 3.062-1.508.312-2.443 1.057-3.69 2.945-1.607 2.432-2.266 3.895-2.678 5.945-.205 1.016-.677 2.944-1.049 4.284-.853 3.072-1.122 5.243-.757 6.117.32.766 1.317 1.407 2.19 1.408.409 0 .86.18 1.223.484 1.425 1.2 2.299.75 3.126-1.611l.554-1.579h.81c1.198 0 1.472.3 1.778 1.948.252 1.355 2.018 5.425 2.68 6.173.153.173.303 1.03.373 2.126.065 1.01.166 2.498.226 3.305.113 1.53-.41 6.398-1.006 9.36-.506 2.513-1.397 4.019-2.521 4.258-1.302.276-1.765.637-2.494 1.94-.635 1.135-.745 1.246-.93.929-.116-.198-.208-1.103-.205-2.012.008-2.122.57-3.416 1.63-3.745.399-.125.766-.407.902-.694.346-.73.645-3.272.645-5.475 0-2.9-.574-3.796-2.434-3.802-1.04-.004-2.11.768-3.196 2.31l-.823 1.167-.783-.883c-.943-1.063-1.53-1.233-4.297-1.24-1.083-.002-2.192-.089-2.464-.192-.436-.166-.497-.301-.5-1.112-.008-1.766-1.025-3.16-2.893-3.962-2.704-1.161-7.362-1.602-8.691-.821-1.168.686-1.4 1.335-1.439 4.013-.026 1.854-.153 2.852-.589 4.652l-.555 2.292-.693-.149c-.38-.082-1.256-.17-1.945-.197-.689-.027-1.7-.2-2.248-.387-1.255-.427-1.698-.267-3.395 1.218-1.656 1.45-2.44 1.786-4.179 1.79-1.197.005-1.667-.103-3.092-.704-1.636-.69-1.74-.709-3.999-.688-2.653.025-2.588.057-4.3-2.154-1.187-1.533-2.34-2.25-3.612-2.246-.538.001-1.194.11-1.46.242-.617.306-1.353 1.756-1.353 2.667v.704l-1.52.117c-.836.065-1.9.25-2.367.413-.466.162-1.188.296-1.605.298-.668.002-.873-.12-1.74-1.043-.676-.721-1.221-1.111-1.754-1.256-1.196-.325-2.724-.26-3.534.151a6.98 6.98 0 0 1-1.394.508c-.372.08-.962.395-1.31.7-.758.663-1.038.68-2.609.155-1.768-.59-2.071-.834-2.071-1.66 0-1.886-.994-3.3-3.095-4.405-.757-.397-1.68-.99-2.05-1.315-.444-.39-.867-.586-1.243-.575-.525.015-.57-.037-.57-.66 0-.372-.251-1.214-.56-1.872-.43-.918-.588-1.593-.678-2.902-.17-2.459-.498-2.928-2.336-3.342-1.063-.24-1.986-.83-2.436-1.558-.755-1.223-1.514-1.965-2.26-2.208-.869-.283-.998-.46-1.002-1.364-.002-.387-.155-.886-.341-1.11-.422-.505-8.646-3.809-10.395-4.175-.841-.176-1.464-.206-1.866-.091-.688.197-1.508.896-1.508 1.284 0 .144-.24.35-.532.459-.292.108-.628.325-.747.48-.119.156-.508.48-.865.721-.555.375-.678.604-.852 1.593l-.204 1.156-.67-1.354c-.82-1.654-1.432-2.098-3.506-2.544-.845-.181-1.666-.425-1.825-.54-.17-.126-.368-.795-.487-1.648-.257-1.854-.55-2.397-1.504-2.779-.567-.227-.95-.588-1.448-1.368-.926-1.448-1.543-1.746-3.625-1.75-1.51-.004-1.724.042-2.174.464-.398.374-.5.405-.5.154 0-.922-.819-1.686-1.808-1.686-.24 0-1.176.377-2.078.838-.903.46-1.831.887-2.063.947-.7.183-.886 1.02-.55 2.469.54 2.335.544 2.423.138 3.58-.216.613-.435 1.157-.487 1.21-.053.053-.528-.09-1.056-.317-1.112-.479-1.9-.52-2.79-.148-.857.358-1.942 1.67-2.294 2.773-.236.74-.403.943-.921 1.118-.348.117-.85.465-1.115.773-.435.506-.473.684-.388 1.828l.094 1.267-.362-.808c-.273-.61-.4-1.557-.52-3.871-.176-3.405-.39-4.045-1.427-4.253-.852-.17-1.092-.735-1.292-3.043l-.182-2.096-.913-.928-.914-.928.447-1.027c.335-.772.448-1.394.45-2.498l.005-1.471.617.363c.711.42 1.007.349 2.596-.63.978-.601 1.032-.613 1.284-.268.145.198.263.42.263.494 0 .074.19.183.421.244.313.082.585-.065 1.065-.573.641-.68.647-.683 1.617-.474.536.115 1.354.209 1.817.209 1.13 0 1.703-.676 2.117-2.499.385-1.694.383-2.014-.017-2.78-.177-.34-.441-1.271-.586-2.069a105.14 105.14 0 0 0-.373-1.964c-.079-.372.09-.868.61-1.798.85-1.524.825-1.948-.223-3.65-.397-.644-.622-1.2-.526-1.297.097-.097.61-.04 1.199.132 1.913.562 3.698-.087 3.704-1.346.004-1.04.182-1.374.97-1.828 1.472-.848 1.713-2.43.68-4.468-.271-.537-.493-1.061-.493-1.166 0-.105.632-.825 1.405-1.602 1.329-1.334 1.424-1.393 1.735-1.077.386.391.712.306 1.777-.461.995-.717 1.445-.693 2.426.127 1.304 1.09 1.755.885 2.015-.914.073-.502.205-.958.293-1.012.087-.055.705.183 1.372.527 1.15.593 1.322.626 3.324.626 1.985 0 2.133-.027 2.482-.457.203-.25.37-.697.37-.991 0-.414.133-.59.585-.778.323-.134.956-.73 1.409-1.326.453-.596 1.085-1.259 1.406-1.473.59-.393 3.573-1.524 4.592-1.74.32-.068.978-.564 1.559-1.173l1.006-1.057.453.482c.249.265.59.528.76.584.17.056.643.667 1.054 1.358.739 1.243.743 1.262.435 1.912-.206.433-.312 1.181-.312 2.197 0 1.265-.071 1.63-.4 2.049-.22.28-.512.51-.648.51-.135 0-.629.256-1.096.57-1.006.676-1.032.645-1.228-1.454a53.568 53.568 0 0 0-.323-2.623c-.42-2.727-1.901-2.81-2.782-.156-.175.526-.437.956-.582.956-.146 0-.595.402-1 .895-.403.492-1.11 1.34-1.57 1.885-1.545 1.827-1.696 2.657-.671 3.683.653.653 1.194.627 2.109-.1l.751-.598.12.73c.129.778.744 1.432 1.347 1.432.2 0 .963-.103 1.697-.23l1.336-.228.649.683c.757.799 1.722 1.05 2.854.746.693-.187 1.211-.64 1.905-1.67.237-.352.242-.35.155.022-.317 1.36-.305 1.76.074 2.37.638 1.027 1.47 1.437 2.714 1.336 1.023-.083 1.092-.058 1.857.68.944.91 1.999 1.323 2.874 1.126.596-.135.648-.097 1.253.915 1.033 1.729 2.247 2.02 3.841.923l.98-.674.791.919c.758.88.793.979.838 2.366.053 1.594.316 2.188 1.117 2.52.89.369 1.59-.167 2.374-1.823.372-.784.808-1.476.969-1.538.16-.061.57-.605.91-1.207.582-1.033 1.99-2.596 2.337-2.596.087 0 .032.196-.124.435-.155.24-.343.914-.418 1.499-.073.584-.296 1.386-.494 1.78-.198.395-.36 1.009-.36 1.365 0 .386-.195.91-.483 1.302-.633.858-.61 1.45.082 2.141.671.673 1.198.712 1.987.15.616-.438 1.699-2.476 1.699-3.197 0-.26.157-.471.408-.551.224-.072.739-.429 1.143-.794.437-.395.786-.583.86-.464.232.376 1.137.207 1.68-.313.503-.483.544-.492.667-.145.072.203.295.552.495.775.3.334.328.5.16.944-.274.719-.091 1.204.582 1.552.71.368 1.154.364 1.692-.013.533-.373.568-1.332.11-2.982-.234-.84-.271-1.321-.139-1.785.256-.898.845-.925 2.076-.098 1.403.944 1.394.94 1.93.697.491-.224.675-.576 1.078-2.06.122-.453.465-1.106.761-1.45.297-.343.598-.787.67-.985.098-.266.245-.327.565-.232 1.23.366 1.823.349 2.21-.066.362-.39.42-.396 1.084-.118 1.032.432 1.456.365 2.251-.354.444-.4 1.006-.693 1.478-.768 1.13-.181 1.392-.476 1.746-1.969.177-.744.387-1.428.468-1.52.08-.09.42-.004.756.194.539.318.595.432.491.988-.165.881.482 1.488 1.899 1.782l1.09.227-.262.518c-.144.285-.45 1.09-.678 1.787-.23.697-.903 2.088-1.498 3.09-1.33 2.24-1.48 2.618-1.23 3.085.442.827 1.164.681 2.657-.537l.822-.67 1.352.35c1.613.42 2.273.269 2.705-.616l.29-.593.773.351c.81.369 2.296.454 4.11.236 1.01-.121 1.021-.13 1.229-.953.114-.457.368-.976.564-1.153.337-.305.371-.285.652.389.393.94 2.58 3.108 3.593 3.563.954.427 1.41.347 1.953-.342.31-.392.38-.696.31-1.33-.051-.452-.07-.822-.043-.822.027 0 .361.13.743.29 1.01.423 1.451.361 2.059-.29.608-.651.968-.714 1.622-.285.408.267.488.263.868-.049.333-.272.456-.672.6-1.959.205-1.813.345-2.072 1.223-2.262.338-.072.937-.296 1.332-.495.394-.2.935-.363 1.2-.363.267 0 .785-.264 1.153-.587.644-.566.715-.582 1.942-.457 1.528.157 1.713.036 2.518-1.65.304-.636.66-1.198.792-1.248.364-.14 2.62.378 3.73.856 1.406.605 1.352.648 2.514-1.985.478-1.08.733-1.4 1.507-1.893.513-.326 1.15-.639 1.416-.696 2.574-.553 4.058-1.304 4.058-2.055 0-.442-.513-1.112-.851-1.114-.117 0-.497-.174-.846-.387-.842-.514-.647-.868 1.065-1.934.72-.448 1.917-1.405 2.66-2.126.745-.722 2.068-1.723 2.941-2.224 1.322-.76 1.855-.95 3.189-1.132 2.059-.283 2.158-.351 2.015-1.395-.109-.796-.077-.865.702-1.533l.816-.699.143.834c.078.458.291.942.472 1.075ZM-12.427 18.197c.136 1.164.76 2.596 1.128 2.596.437 0-.133.335-.774.455-.5.093-.659.047-.743-.216-.48-1.5-.843-1.855-1.86-1.826l-.548.015.67-.904c.593-.802 1.066-1.114 1.785-1.178.121-.01.27.452.342 1.058Zm120.126 19.53c0 .234.167.63.371.881.366.449.386.451 1.208.145a38.1 38.1 0 0 0 1.175-.455c.266-.114.338-.05.338.3 0 .287.357.773 1.012 1.379.835.772 1.002 1.034.953 1.495-.07.67.383 1.628 1.16 2.447l.569.6-.219 2.033c-.245 2.28-.072 3.4.646 4.175.271.292.496.927.648 1.831.128.762.214 1.403.192 1.426-.023.023-.324-.096-.67-.263-.345-.167-1.079-.88-1.631-1.583s-1.897-2.22-2.99-3.37c-1.093-1.15-2.342-2.69-2.776-3.421-1.596-2.687-2.304-5.907-1.655-7.528.174-.437.317-1.333.317-1.997v-1.204l.676 1.342c.372.738.676 1.534.676 1.767Z" fill="#3D5F95"/></g><defs><filter id="a" x="-58" y="0" width="179" height="104" filterUnits="userSpaceOnUse" color-interpolation-filters="sRGB"><feFlood flood-opacity="0" result="BackgroundImageFix"/><feColorMatrix in="SourceAlpha" values="0 0 0 0 0 0 0 0 0 0 0 0 0 0 0 0 0 0 127 0" result="hardAlpha"/><feOffset dx="1" dy="4"/><feGaussianBlur stdDeviation="1"/><feComposite in2="hardAlpha" operator="out"/><feColorMatrix values="0 0 0 0 0 0 0 0 0 0 0 0 0 0 0 0 0 0 0.25 0"/><feBlend in2="BackgroundImageFix" result="effect1_dropShadow_482_9341"/><feBlend in="SourceGraphic" in2="effect1_dropShadow_482_9341" result="shape"/></filter></defs></svg>