<svg width="28" height="27" fill="none" xmlns="http://www.w3.org/2000/svg"><g clip-path="url(#a)"><path d="M14 0c-2.769 0-5.476.792-7.778 2.275a13.619 13.619 0 0 0-5.156 6.059 13.053 13.053 0 0 0-.797 7.8 13.358 13.358 0 0 0 3.832 6.912 14.168 14.168 0 0 0 7.168 3.695c2.716.52 5.53.253 8.089-.769A13.904 13.904 0 0 0 25.64 21 13.16 13.16 0 0 0 28 13.5c0-1.773-.362-3.528-1.066-5.166a13.48 13.48 0 0 0-3.035-4.38 14.046 14.046 0 0 0-4.541-2.926A14.452 14.452 0 0 0 14 0Zm4.452 20.455a.951.951 0 0 1-.234.334 1.022 1.022 0 0 1-1.17.141l-3.8-2.848-2.439 2.17a.429.429 0 0 1-.399.053l.468-4.035.014.012.01-.08s6.839-6.004 7.117-6.26c.283-.254.19-.31.19-.31.016-.31-.506 0-.506 0l-9.062 5.622-3.773-1.24s-.58-.2-.634-.64c-.058-.438.652-.676.652-.676L19.89 6.95s1.233-.53 1.233.348l-2.671 13.157Z" fill="#44A0DF"/></g><defs><clipPath id="a"><path fill="#fff" d="M0 0h28v27H0z"/></clipPath></defs></svg>