<svg width="39" height="39" fill="none" xmlns="http://www.w3.org/2000/svg"><path fill-rule="evenodd" clip-rule="evenodd" d="M8.804.017a3.462 3.462 0 0 0-1.583.622c-.145.105-1.084 1.062-3.345 3.41C1.183 6.843.71 7.345.584 7.548c-.202.321-.32.574-.421.903C-.012 9.02 0 7.892 0 23.188c0 12.622.004 13.945.043 14.14.164.827.786 1.468 1.582 1.634.193.04.878.043 7.126.033l6.992-.012 11.045.011c7.359.008 11.014.002 11.113-.017.536-.102.98-.577 1.075-1.148.048-.29.018-2.31-.038-2.584-.192-.93-.7-1.725-1.411-2.216-.166-.115-1.205-.666-2.94-1.56a366.978 366.978 0 0 1-2.696-1.395c-.007-.008.032-.099.088-.202.242-.446.57-1.193.752-1.709.037-.107.072-.146.199-.227.572-.367 1.014-1.136 1.218-2.117.047-.226.06-.38.06-.745.003-.533-.035-.742-.2-1.1-.162-.356-.364-.561-.686-.697l-.155-.065-.062-.288a8.36 8.36 0 0 0-.13-.52 1.5 1.5 0 0 1-.061-.242.966.966 0 0 1 .196.048c.166.05.206.053.343.023a.652.652 0 0 0 .454-.36c.097-.191.098-.36.006-.736-.342-1.405-.958-2.55-1.853-3.447a6.347 6.347 0 0 0-1.015-.827l-.176-.106V9.346c0-5.039-.01-7.47-.03-7.593-.107-.694-.582-1.321-1.205-1.591-.407-.177.414-.165-10.662-.16-5.54.003-10.116.01-10.168.015Zm20.28 1.42c.17.06.34.237.398.414.04.124.044.698.044 7.218v7.084l-.127-.041a10.295 10.295 0 0 0-1.12-.237c-.373-.052-1.953-.051-2.282 0-.918.144-1.66.39-2.295.759-.145.084-.22.107-.438.135-1.398.18-2.452 1.264-2.754 2.83-.091.475-.118.837-.118 1.574 0 .55.014.824.059 1.212.1.87.097.819.04.839-.633.222-.978.782-1.022 1.658-.062 1.243.553 2.664 1.338 3.09.075.041.11.086.145.187.22.62.487 1.227.739 1.684.076.137.133.254.128.259-.005.005-1.215.63-2.687 1.389-1.473.76-2.76 1.437-2.859 1.505-.73.505-1.222 1.246-1.435 2.164-.05.213-.056.35-.067 1.345l-.013 1.108-6.473-.008-6.473-.007-.127-.077a.683.683 0 0 1-.302-.38c-.036-.108-.04-1.629-.04-13.756V9.75h3.114c2.744 0 3.14-.006 3.322-.045.743-.159 1.323-.724 1.554-1.512.043-.144.047-.438.055-3.48l.008-3.322h9.779c9.031 0 9.788.003 9.909.046ZM8.053 4.757c0 3.379.012 3.17-.201 3.391-.213.221-.012.209-3.268.209H1.688l.047-.083c.061-.108 6.242-6.52 6.285-6.52.025 0 .033.654.033 3.003Zm-.893 7.819a.704.704 0 0 0-.362.316.753.753 0 0 0-.005.661.72.72 0 0 0 .395.347c.067.02 1.674.029 4.893.029 5.383 0 4.948.018 5.166-.209a.7.7 0 0 0-.254-1.142c-.102-.037-.69-.042-4.924-.04-3.947 0-4.826.007-4.909.038Zm12.08 0a.704.704 0 0 0-.363.316.753.753 0 0 0-.005.661.719.719 0 0 0 .395.347c.063.018.63.029 1.538.029 1.627 0 1.607.002 1.81-.209a.7.7 0 0 0-.254-1.142c-.161-.059-2.963-.061-3.122-.002ZM7.16 15.362a.704.704 0 0 0-.362.316.753.753 0 0 0-.005.662.72.72 0 0 0 .395.346c.067.02 1.883.03 5.564.03 6.135 0 5.618.018 5.838-.21a.7.7 0 0 0-.255-1.142c-.102-.037-.76-.042-5.595-.04-4.507 0-5.497.007-5.58.038Zm20.857 1.884c1.645.186 2.937.968 3.797 2.297.168.261.53 1 .53 1.082 0 .03-.02.047-.062.047-.087 0-.309.081-.42.154a.959.959 0 0 0-.419.598c-.065.265-.037.48.137 1.027.179.567.245.85.282 1.215.067.642.11.755.343.909.178.117.31.149.484.117.122-.023.147-.02.161.017.038.096.017.686-.032.908-.13.58-.455 1.157-.652 1.157-.115 0-.346.128-.436.242-.052.065-.13.257-.23.556-.602 1.827-1.69 3.387-2.914 4.18-1.263.819-2.554.74-3.824-.234-.328-.25-.944-.899-1.227-1.29a9.716 9.716 0 0 1-1.393-2.766c-.084-.26-.14-.388-.21-.47-.1-.123-.266-.217-.383-.218-.215-.002-.553-.57-.677-1.14a2.75 2.75 0 0 1-.058-.791l.02-.157.169.017c.223.021.33-.002.482-.107a.72.72 0 0 0 .296-.551c.01-.1.036-.346.06-.546.043-.359.043-.372-.027-1.031-.094-.895-.109-1.275-.073-1.838.066-1.02.276-1.605.733-2.034.281-.264.76-.46 1.123-.46a.96.96 0 0 0 .607-.184c.471-.323 1.19-.577 1.967-.695.286-.043 1.497-.05 1.846-.01ZM7.16 19.541a.704.704 0 0 0-.362.317.753.753 0 0 0-.005.66.72.72 0 0 0 .395.348c.067.019 1.674.028 4.893.029 5.383 0 4.948.017 5.166-.21a.7.7 0 0 0-.254-1.141c-.102-.037-.69-.042-4.924-.041-3.947 0-4.826.008-4.909.038Zm16.92.03a1.13 1.13 0 0 0-.52.316c-.162.174-.897 1.347-.935 1.491-.167.645.599 1.145 1.073.7.056-.052.24-.311.407-.576l.314-.493c.004-.007.201.085.439.203 1.231.615 2.368.929 3.689 1.02.446.03 1.634.037 1.792.01a.852.852 0 0 0 .24-.104c.431-.268.417-.907-.026-1.193-.099-.063-.117-.064-1.067-.082a20.373 20.373 0 0 1-1.221-.05c-1.1-.134-1.885-.382-3.033-.957a9.26 9.26 0 0 0-.562-.267 1.168 1.168 0 0 0-.59-.017ZM7.16 22.329a.704.704 0 0 0-.362.316.753.753 0 0 0-.005.661.72.72 0 0 0 .395.347c.066.019 1.256.029 3.55.029 3.88 0 3.61.015 3.825-.209a.7.7 0 0 0-.255-1.142c-.1-.037-.547-.042-3.581-.041-2.826.001-3.485.008-3.567.039ZM33.934 32.69c3.037 1.569 3.011 1.554 3.273 1.905a1.8 1.8 0 0 1 .307.553c.126.342.144.534.145 1.537v.926h-8.254l-.398-2.069c-.22-1.137-.404-2.102-.412-2.143-.013-.07.001-.083.235-.205.566-.295 1.028-.643 1.55-1.168.197-.198.437-.458.535-.578.097-.12.18-.217.185-.217.005 0 1.28.657 2.834 1.46Zm-11.236-1.327c.162.222.79.862 1.098 1.12.354.295.678.513 1.059.712.233.121.247.133.234.204l-.412 2.143-.398 2.07h-8.178l.01-1.039c.012-1.16.016-1.19.208-1.595a2.08 2.08 0 0 1 .525-.692c.124-.105.801-.468 2.95-1.582a299.183 299.183 0 0 1 2.81-1.445c.01 0 .052.047.094.104Zm-19.564.714a.715.715 0 0 0-.362.318l-.074.131-.009.836c-.005.59.002.871.024.956a.658.658 0 0 0 1.112.3c.189-.197.201-.27.201-1.184 0-.463-.012-.84-.028-.9a.734.734 0 0 0-.33-.409.719.719 0 0 0-.534-.048Zm3.355 0a.715.715 0 0 0-.362.318l-.074.131-.008.836c-.006.59 0 .871.024.956a.658.658 0 0 0 1.111.3c.19-.197.202-.27.201-1.184 0-.463-.011-.84-.027-.9a.734.734 0 0 0-.331-.409.719.719 0 0 0-.534-.048Zm3.355 0a.715.715 0 0 0-.361.318l-.075.131-.008.836c-.006.59.001.871.024.956a.658.658 0 0 0 1.112.3c.189-.197.2-.27.2-1.184 0-.463-.011-.84-.027-.9a.734.734 0 0 0-.331-.409.718.718 0 0 0-.534-.048Zm3.356 0a.716.716 0 0 0-.362.318l-.075.131-.008.836c-.006.59.001.871.024.956a.658.658 0 0 0 1.112.3c.189-.197.201-.27.201-1.184 0-.463-.012-.84-.028-.9a.733.733 0 0 0-.33-.409.718.718 0 0 0-.534-.048Zm14.496 3.772c.181.946.33 1.73.328 1.741 0 .012-.532.021-1.182.021-.65 0-1.181-.01-1.182-.02 0-.012.147-.796.328-1.742l.33-1.72h1.048l.33 1.72Z" fill="#fff"/></svg>