<svg width="77" height="78" fill="none" xmlns="http://www.w3.org/2000/svg"><g filter="url(#a)"><path fill-rule="evenodd" clip-rule="evenodd" d="M19.128 1.07c.383.533 1.102 1.529 1.597 2.213l.9 1.243 1.367-.686C26.828 1.913 30.707.787 35.175.3c1.12-.121 5.62-.121 6.72 0 4.553.504 8.334 1.609 12.211 3.57a33.577 33.577 0 0 1 8.435 6.018c2.953 2.872 5.156 5.897 6.945 9.539 1.969 4.006 3.06 7.975 3.444 12.53.093 1.103.093 4.256 0 5.46-.553 7.115-3.314 13.864-7.96 19.46-.745.897-2.691 2.885-3.65 3.728a34.407 34.407 0 0 1-24.23 8.552c-5.057-.22-9.482-1.352-13.915-3.56-2.678-1.334-5.079-2.92-7.214-4.767-.778-.673-2.66-2.544-3.373-3.354-3.05-3.463-5.436-7.638-6.898-12.073-.413-1.254-.97-3.505-1.195-4.822-1.06-6.243-.41-12.648 1.873-18.48.122-.309.227-.57.234-.58.012-.018 3.981 1.598 4.034 1.641.013.01-.118.394-.291.852-.9 2.38-1.452 4.648-1.785 7.346-.158 1.282-.18 5.065-.036 6.37.778 7.066 3.739 13.271 8.7 18.237 4.84 4.844 10.944 7.817 17.775 8.656 2.032.25 5.497.213 7.6-.079 10.866-1.51 19.987-8.711 24.018-18.965.916-2.33 1.597-5.152 1.894-7.85.145-1.306.123-5.155-.036-6.44-.511-4.147-1.777-8.028-3.744-11.48A30.388 30.388 0 0 0 51.578 7.524C47.684 5.643 43.634 4.67 39.257 4.56c-4.93-.121-9.615.91-14.013 3.087l-1.003.495.721.997c2.313 3.194 2.788 3.86 2.788 3.903 0 .045-15.067 2.284-15.106 2.245C12.624 15.267 18.293.35 18.376.2c.039-.069.259.186.752.87Z" fill="#FAFAFA"/></g><path fill-rule="evenodd" clip-rule="evenodd" d="M39.48 17.423c3.966.326 6.505 2.714 7.494 7.05.135.588.153.925.181 3.243.031 2.585.031 2.587.184 2.619l.521.105c1.22.24 2.434 1.238 3.044 2.503.555 1.15.52.64.545 7.884.016 4.391-.001 6.635-.053 6.968a5.67 5.67 0 0 1-.645 1.855c-.354.604-1.266 1.483-1.853 1.787-.98.506-.352.477-10.38.477-10.012 0-9.38.03-10.375-.471-.364-.183-.662-.416-1.1-.858-.646-.651-.973-1.185-1.275-2.085l-.165-.493-.02-6.617c-.022-7.466-.037-7.23.505-8.377.361-.763.87-1.393 1.473-1.824.71-.506 1.086-.657 2.135-.857.15-.028.152-.037.184-2.51.03-2.345.043-2.529.216-3.335.31-1.43.846-2.75 1.542-3.789.422-.63 1.617-1.781 2.211-2.13 1.12-.655 2.356-1.029 3.789-1.146.92-.076.903-.076 1.843.001Zm-2.122 4.468c-1.189.252-2.117.95-2.6 1.952-.456.95-.482 1.15-.515 3.943l-.03 2.517h8.61l-.03-2.552c-.028-2.389-.04-2.585-.187-3.08-.452-1.514-1.439-2.46-2.897-2.777-.601-.13-1.742-.131-2.35-.003Zm-.231 13.075a4.292 4.292 0 0 0-2.192 1.698c-.4.613-.576 1.159-.62 1.91-.041.733.1 1.27.5 1.893.287.445 1.092 1.204 1.577 1.486l.363.212.002 2.692.001 2.693h3.589v-5.34l.475-.316c.538-.357 1.185-.986 1.499-1.455.353-.528.515-1.178.47-1.89-.078-1.246-.706-2.334-1.757-3.048-.848-.577-1.532-.769-2.622-.738-.611.018-.882.06-1.285.203Z" fill="#3D5F95"/><defs><filter id="a" x="0" y=".189" width="77" height="77" filterUnits="userSpaceOnUse" color-interpolation-filters="sRGB"><feFlood flood-opacity="0" result="BackgroundImageFix"/><feColorMatrix in="SourceAlpha" values="0 0 0 0 0 0 0 0 0 0 0 0 0 0 0 0 0 0 127 0" result="hardAlpha"/><feOffset dy="4"/><feGaussianBlur stdDeviation="2"/><feComposite in2="hardAlpha" operator="out"/><feColorMatrix values="0 0 0 0 0 0 0 0 0 0 0 0 0 0 0 0 0 0 0.25 0"/><feBlend in2="BackgroundImageFix" result="effect1_dropShadow_279_10993"/><feBlend in="SourceGraphic" in2="effect1_dropShadow_279_10993" result="shape"/></filter></defs></svg>