<svg width="64" height="64" fill="none" xmlns="http://www.w3.org/2000/svg"><path fill-rule="evenodd" clip-rule="evenodd" d="M32.051 21.015c0 .01-.776.015-2.296.015-1.52 0-2.296.005-2.296.015 0 .008-.027.015-.061.015s-.061.007-.061.015c0 .009-.028.015-.061.015-.034 0-.062.007-.062.015 0 .009-.02.015-.046.015-.025 0-.046.007-.046.015 0 .009-.02.015-.046.015-.025 0-.045.007-.045.016 0 .008-.014.015-.031.015s-.03.006-.03.015c0 .008-.021.015-.046.015-.026 0-.046.006-.046.015 0 .008-.014.015-.031.015s-.03.007-.03.015-.015.015-.031.015c-.017 0-.03.007-.03.015s-.015.015-.032.015c-.016 0-.03.007-.03.015s-.014.015-.03.015c-.018 0-.031.007-.031.015 0 .009-.014.015-.031.015s-.03.007-.03.015-.013.015-.028.015c-.015 0-.037.014-.05.03-.011.017-.032.03-.045.03-.013 0-.034.014-.046.03-.012.017-.033.03-.046.03-.013 0-.034.014-.046.03-.012.017-.031.03-.043.03-.011 0-.047.028-.08.061a.251.251 0 0 1-.075.06c-.021 0-.399.371-.399.393a.249.249 0 0 1-.06.074c-.035.032-.062.067-.062.078 0 .011-.014.03-.03.042-.018.012-.031.032-.031.045 0 .013-.014.034-.031.046-.017.011-.03.032-.03.045 0 .013-.014.033-.031.045-.017.012-.03.034-.03.048 0 .015-.008.027-.016.027-.009 0-.015.014-.015.03 0 .017-.007.03-.016.03-.008 0-.015.014-.015.03 0 .017-.007.03-.015.03-.009 0-.016.014-.016.03 0 .017-.007.03-.015.03s-.015.014-.015.03c0 .017-.007.03-.016.03-.008 0-.015.015-.015.031 0 .017-.007.03-.015.03-.009 0-.015.014-.015.03 0 .017-.007.03-.016.03-.008 0-.015.014-.015.03 0 .017-.007.03-.015.03-.009 0-.016.02-.016.046 0 .024-.007.045-.015.045s-.015.02-.015.045c0 .025-.007.045-.016.045-.008 0-.015.027-.015.06 0 .034-.007.06-.015.06-.009 0-.015.046-.015.106s-.007.105-.016.105c-.01 0-.015.085-.015.226 0 .14-.006.226-.015.226-.01 0-.016.426-.016 1.249v1.25h-1.898c-1.255 0-1.898.004-1.898.014s-.107.015-.29.015c-.184 0-.291.006-.291.015s-.041.015-.092.015-.092.007-.092.015c0 .009-.027.015-.061.015s-.062.007-.062.015c0 .009-.027.015-.06.015-.034 0-.062.007-.062.015 0 .009-.02.016-.046.016-.025 0-.046.006-.046.015 0 .008-.02.015-.046.015-.025 0-.046.006-.046.015 0 .008-.013.015-.03.015s-.03.006-.03.015c0 .008-.021.015-.047.015-.025 0-.046.007-.046.015s-.014.015-.03.015c-.017 0-.03.007-.03.015s-.015.015-.031.015c-.017 0-.031.007-.031.015s-.014.015-.03.015c-.017 0-.031.007-.031.015 0 .009-.014.015-.03.015-.018 0-.032.007-.032.015 0 .009-.013.015-.03.015s-.03.007-.03.015c0 .009-.013.015-.028.015-.015 0-.037.014-.05.03-.012.017-.032.03-.045.03-.013 0-.034.014-.046.03-.012.017-.032.03-.043.03-.012 0-.04.021-.064.046-.024.025-.051.045-.061.045-.01 0-.045.027-.077.06a.25.25 0 0 1-.076.06c-.021 0-.337.311-.337.333a.246.246 0 0 1-.061.074.25.25 0 0 0-.062.075c0 .01-.02.037-.046.06-.025.024-.046.052-.046.063 0 .012-.013.03-.03.043-.017.012-.03.032-.03.045 0 .013-.015.033-.032.045-.016.012-.03.034-.03.048 0 .015-.007.027-.015.027-.009 0-.016.012-.016.027s-.014.037-.03.049c-.017.011-.03.033-.03.048s-.008.027-.016.027c-.009 0-.015.013-.015.03 0 .016-.007.03-.016.03-.008 0-.015.014-.015.03 0 .017-.007.03-.015.03-.009 0-.016.02-.016.045 0 .025-.007.046-.015.046s-.015.013-.015.03c0 .016-.007.03-.016.03-.008 0-.015.02-.015.045 0 .025-.007.045-.015.045-.009 0-.016.014-.016.03 0 .017-.006.03-.015.03-.008 0-.015.02-.015.045 0 .025-.007.045-.015.045-.009 0-.016.02-.016.046 0 .024-.007.045-.015.045-.01 0-.015.386-.015 1.128 0 .743-.006 1.13-.016 1.13S18 32.412 18 35.221c0 2.81.005 4.23.015 4.23.01 0 .016.115.016.316 0 .2.005.316.015.316.009 0 .015.045.015.105s.007.105.015.105c.009 0 .016.027.016.06 0 .034.007.06.015.06.009 0 .015.028.015.06 0 .034.007.061.016.061.008 0 .015.02.015.045 0 .025.007.045.015.045.009 0 .016.02.016.046 0 .024.007.045.015.045s.015.013.015.03c0 .016.007.03.016.03.008 0 .015.013.015.03s.007.03.015.03c.009 0 .015.014.015.03 0 .017.007.03.016.03.008 0 .015.014.015.03 0 .017.007.03.015.03.009 0 .016.014.016.03 0 .017.007.03.015.03s.015.014.015.03c0 .017.007.031.016.031.008 0 .015.012.015.027 0 .014.014.036.03.048.017.012.031.032.031.045 0 .013.014.033.03.045.018.012.031.032.031.043 0 .011.021.04.046.063.026.023.046.05.046.06 0 .01.028.043.062.075a.246.246 0 0 1 .06.075c0 .02.286.301.308.301.009 0 .05.034.09.076a.32.32 0 0 0 .096.075c.011 0 .03.014.042.03.013.017.032.03.044.03.011 0 .04.02.064.045.023.025.053.045.067.045.013 0 .024.007.024.016 0 .008.013.015.028.015.015 0 .037.013.049.03.012.016.034.03.05.03.014 0 .026.007.026.015s.014.015.031.015.03.007.03.015.015.015.031.015c.017 0 .03.007.03.015s.015.015.032.015c.016 0 .03.007.03.015s.014.015.03.015c.018 0 .031.007.031.015 0 .009.014.015.031.015s.03.007.03.015c0 .009.014.015.031.015s.03.007.03.016c0 .008.014.014.031.014s.031.007.031.016c0 .008.014.015.03.015.018 0 .031.006.031.015 0 .008.014.015.03.015.018 0 .032.007.032.015s.013.015.03.015.03.007.03.015c0 .01.51.015 1.5.015s1.5.005 1.5.015c0 .01.133.015.368.015h.367v1.46c0 .963.006 1.46.016 1.46s.015.379.015 1.107c0 1.156 0 1.15.061 1.15a.34.34 0 0 1 .092.076c.041.04.085.075.099.075.013 0 .024.007.024.015s.013.015.03.015.03.007.03.015c0 .009.062.015.154.015s.153-.006.153-.015c0-.008.012-.015.027-.015s.037-.014.05-.03c.012-.017.03-.03.041-.03.023 0 .555-.52.555-.542 0-.009.083-.097.184-.196.101-.099.184-.187.184-.195 0-.01.075-.09.168-.181.093-.09.168-.172.168-.18 0-.01.07-.084.154-.166.084-.082.152-.157.152-.166 0-.008.07-.083.154-.165.084-.083.153-.157.153-.166 0-.009.075-.09.168-.18.093-.091.168-.172.168-.181 0-.009.07-.083.153-.166.085-.082.154-.156.154-.165 0-.009.068-.084.152-.166.085-.082.154-.156.154-.165 0-.01.069-.084.153-.166.084-.082.153-.157.153-.165 0-.01.069-.084.153-.166.084-.082.153-.157.153-.165 0-.01.076-.09.168-.181.093-.09.169-.172.169-.18 0-.01.069-.084.153-.166.084-.082.153-.157.153-.166 0-.009.076-.09.168-.18.093-.09.169-.172.169-.18 0-.01.082-.098.183-.197a1.73 1.73 0 0 0 .184-.195.48.48 0 0 1 .157-.15c.01 0 .03-.014.042-.03.022-.03.04-.03 3.003-.03 1.977 0 2.981-.006 2.981-.016s.388-.015 1.133-.015 1.133-.005 1.133-.015c0-.01.081-.015.214-.015s.214-.006.214-.015.046-.015.108-.015c.06 0 .107-.007.107-.015 0-.009.034-.015.076-.015.042 0 .077-.007.077-.015 0-.009.027-.015.06-.015.035 0 .062-.007.062-.016 0-.008.02-.015.046-.015.025 0 .046-.006.046-.015 0-.008.014-.015.03-.015.017 0 .031-.006.031-.015 0-.008.014-.015.03-.015.018 0 .032-.007.032-.015s.02-.015.045-.015c.026 0 .046-.007.046-.015s.014-.015.03-.015c.018 0 .032-.007.032-.015s.013-.015.03-.015.03-.007.03-.015.013-.015.028-.015c.015 0 .037-.014.05-.03.011-.017.034-.03.049-.03.014 0 .027-.007.027-.015 0-.009.012-.016.027-.016s.037-.013.05-.03c.011-.016.032-.03.045-.03.013 0 .034-.013.046-.03.012-.016.032-.03.043-.03.011 0 .047-.027.08-.06a.251.251 0 0 1 .075-.06c.022 0 .338-.31.338-.332 0-.01.034-.05.076-.09a.343.343 0 0 0 .077-.09c0-.01.02-.037.046-.06.025-.023.046-.052.046-.063 0-.011.014-.03.03-.042.017-.013.031-.033.031-.046 0-.013.014-.033.03-.045.017-.012.031-.034.031-.048 0-.015.007-.027.016-.027.008 0 .015-.014.015-.03 0-.017.007-.03.015-.03.009 0 .016-.012.016-.027s.013-.037.03-.049c.017-.012.03-.033.03-.048s.008-.027.016-.027.015-.013.015-.03c0-.016.007-.03.016-.03.008 0 .015-.02.015-.045 0-.025.007-.045.015-.045.009 0 .016-.014.016-.03 0-.017.006-.03.015-.03.008 0 .015-.02.015-.046 0-.024.007-.045.016-.045.008 0 .015-.013.015-.03 0-.016.007-.03.015-.03.009 0 .015-.027.015-.06s.007-.06.016-.06c.008 0 .015-.027.015-.06 0-.034.007-.06.015-.06.009 0 .016-.04.016-.091 0-.05.006-.09.015-.09s.015-.056.015-.136c0-.08.006-.135.015-.135s.016-.027.016-.06c0-.05.005-.06.03-.06.017 0 .031.006.031.014 0 .009.014.015.03.015.018 0 .031.01.031.023s.097.118.215.233c.117.116.214.217.214.226 0 .009.083.097.184.196.1.099.183.187.183.195 0 .01.069.084.153.166.084.082.153.157.153.165 0 .01.062.077.138.151.076.074.138.142.138.15 0 .01.062.077.137.15.076.075.138.142.138.151 0 .01.07.084.153.166.084.082.154.157.154.165 0 .01.089.104.198.211.11.107.2.202.2.21 0 .022.163.181.184.181.01 0 .037.02.06.046.024.025.054.045.068.045.013 0 .024.007.024.015s.02.015.046.015c.025 0 .046.007.046.015s.027.015.061.015.061-.007.061-.015.041-.015.092-.015.092-.007.092-.015.01-.015.023-.015c.03 0 .16-.128.16-.158 0-.012.008-.023.016-.023s.015-.013.015-.03c0-.016.007-.03.016-.03.009 0 .015-.055.015-.135 0-.08.006-.136.015-.136.01 0 .016-.805.016-2.386 0-2.049.003-2.39.022-2.408.017-.018.092-.022.397-.022.241 0 .377-.005.377-.015 0-.008.04-.015.091-.015s.092-.007.092-.015.035-.015.077-.015c.042 0 .076-.007.076-.015s.028-.015.061-.015c.034 0 .062-.007.062-.015s.02-.015.046-.015c.025 0 .046-.007.046-.015 0-.009.02-.015.046-.015.025 0 .045-.007.045-.015 0-.009.021-.015.046-.015.026 0 .046-.007.046-.015 0-.009.014-.016.03-.016.018 0 .032-.006.032-.015 0-.008.02-.015.045-.015.026 0 .046-.006.046-.015 0-.008.014-.015.03-.015.018 0 .032-.007.032-.015s.013-.015.03-.015.03-.007.03-.015.015-.015.031-.015c.017 0 .03-.007.03-.015s.015-.015.032-.015c.016 0 .03-.007.03-.015s.012-.015.027-.015.037-.014.05-.03c.012-.017.034-.03.049-.03s.027-.007.027-.016c0-.008.013-.015.027-.015.015 0 .038-.013.05-.03.012-.016.031-.03.043-.03.012 0 .04-.02.064-.045.024-.025.05-.045.06-.045.01 0 .052-.034.093-.075a.36.36 0 0 1 .091-.076c.022 0 .246-.22.246-.241 0-.009.034-.05.076-.09a.342.342 0 0 0 .077-.09c0-.01.02-.037.046-.06.025-.023.046-.052.046-.063 0-.011.013-.03.03-.042.017-.012.03-.034.03-.049s.008-.027.016-.027c.009 0 .016-.012.016-.027 0-.014.013-.036.03-.048.017-.012.03-.034.03-.048 0-.015.008-.027.016-.027s.015-.014.015-.03c0-.017.007-.03.016-.03.008 0 .015-.014.015-.03 0-.017.007-.03.015-.03.009 0 .015-.014.015-.03 0-.017.007-.03.016-.03.008 0 .015-.021.015-.046 0-.025.007-.045.015-.045.009 0 .016-.014.016-.03 0-.017.007-.03.015-.03s.015-.02.015-.046c0-.024.007-.045.016-.045.008 0 .015-.02.015-.045 0-.025.007-.045.015-.045.009 0 .015-.02.015-.045 0-.025.007-.045.016-.045.008 0 .015-.027.015-.06 0-.034.007-.06.015-.06.01 0 .016-.056.016-.136 0-.08.006-.136.015-.136.01 0 .015-.165.015-.466 0-.301.006-.467.016-.467S48 32.227 48 29.308c0-2.92-.005-4.395-.015-4.395-.01 0-.016-.23-.016-.662 0-.432-.005-.662-.015-.662-.009 0-.015-.05-.015-.12 0-.071-.007-.121-.016-.121-.008 0-.015-.027-.015-.06 0-.034-.007-.06-.015-.06-.009 0-.016-.02-.016-.046 0-.025-.006-.045-.015-.045-.008 0-.015-.02-.015-.045 0-.025-.007-.045-.015-.045-.009 0-.016-.02-.016-.045 0-.025-.007-.046-.015-.046s-.015-.013-.015-.03c0-.016-.007-.03-.016-.03-.008 0-.015-.013-.015-.03 0-.016-.007-.03-.015-.03-.009 0-.016-.013-.016-.03s-.006-.03-.015-.03c-.008 0-.015-.014-.015-.03 0-.017-.007-.03-.016-.03-.008 0-.015-.014-.015-.03 0-.017-.007-.03-.015-.03-.009 0-.015-.014-.015-.03 0-.017-.007-.03-.016-.03-.008 0-.015-.013-.015-.027 0-.015-.014-.037-.03-.049-.017-.012-.031-.032-.031-.045 0-.013-.014-.033-.03-.045-.018-.012-.031-.032-.031-.045 0-.013-.014-.034-.031-.046-.017-.011-.03-.03-.03-.042 0-.01-.028-.046-.062-.078a.25.25 0 0 1-.061-.074c0-.022-.439-.453-.46-.453-.01 0-.037-.02-.06-.045-.024-.025-.052-.045-.062-.045-.01 0-.037-.02-.06-.045-.025-.025-.053-.045-.065-.045-.011 0-.031-.014-.043-.03-.012-.017-.034-.03-.05-.03-.014 0-.027-.007-.027-.016 0-.008-.013-.015-.03-.015s-.03-.006-.03-.015c0-.008-.015-.015-.032-.015-.016 0-.03-.006-.03-.015 0-.008-.012-.015-.027-.015s-.037-.013-.05-.03a.084.084 0 0 0-.064-.03c-.024 0-.043-.007-.043-.015s-.013-.015-.03-.015-.031-.007-.031-.015-.014-.015-.03-.015c-.017 0-.031-.007-.031-.015 0-.009-.02-.015-.046-.015-.025 0-.046-.007-.046-.015 0-.009-.02-.015-.046-.015-.025 0-.046-.007-.046-.015 0-.009-.027-.015-.061-.015s-.061-.007-.061-.016c0-.008-.051-.015-.123-.015-.071 0-.122-.006-.122-.015 0-.01-.153-.015-.429-.015-.275 0-.428-.005-.428-.015 0-.01-.495-.015-1.455-.015-.959 0-1.453-.005-1.453-.015 0-.01-1.404-.015-4.18-.015-2.775 0-4.178-.005-4.178-.015 0-.01-.23-.015-.658-.015-.428 0-.658.005-.658.015Zm8.235.993c0 .01.5.015 1.47.015.968 0 1.468.006 1.468.015 0 .01.281.015.812.015.53 0 .81.006.81.016s.134.015.368.015c.235 0 .368.005.368.015 0 .008.034.015.076.015.042 0 .077.006.077.015 0 .008.02.015.046.015.025 0 .046.007.046.015s.02.015.046.015c.025 0 .045.007.045.015s.014.015.031.015.03.007.03.015.013.015.028.015c.015 0 .037.014.05.03.011.017.032.03.045.03.013 0 .034.014.046.03.012.017.031.03.043.03.012 0 .04.02.064.046.024.024.05.045.06.045a.98.98 0 0 1 .216.212c0 .009.02.035.046.059.025.023.046.051.046.063 0 .011.013.03.03.042.017.012.03.032.03.045 0 .013.014.033.031.045.017.012.03.034.03.049s.008.027.016.027c.009 0 .016.013.016.03 0 .016.006.03.015.03.008 0 .015.013.015.03 0 .016.007.03.016.03.008 0 .015.02.015.045 0 .025.007.045.015.045.009 0 .015.02.015.045 0 .025.007.046.016.046.008 0 .015.02.015.045 0 .025.007.045.015.045.009 0 .016.034.016.075 0 .041.006.076.015.076.01 0 .015.085.015.225s.006.226.015.226c.01 0 .016 1.811.016 5.403 0 3.592-.005 5.403-.016 5.403-.008 0-.015.027-.015.06s-.007.06-.015.06c-.009 0-.016.014-.016.03 0 .017-.006.03-.015.03-.008 0-.015.02-.015.046 0 .024-.007.045-.015.045-.009 0-.016.013-.016.03 0 .016-.006.03-.015.03-.008 0-.015.014-.015.03 0 .017-.007.03-.016.03-.008 0-.015.014-.015.03 0 .017-.007.03-.015.03-.009 0-.015.012-.015.027s-.014.037-.031.049c-.017.012-.03.032-.03.045 0 .013-.015.033-.031.045-.017.012-.03.03-.03.042a.44.44 0 0 1-.093.108.475.475 0 0 0-.092.106c0 .022-.038.06-.06.06a.35.35 0 0 0-.093.075.322.322 0 0 1-.095.076c-.011 0-.03.013-.042.03-.013.016-.033.03-.046.03-.014 0-.034.013-.046.03-.012.016-.035.03-.05.03-.014 0-.027.007-.027.015s-.014.015-.03.015c-.017 0-.031.007-.031.015s-.014.015-.03.015c-.017 0-.031.007-.031.015 0 .009-.014.015-.03.015-.018 0-.031.007-.031.015 0 .009-.021.015-.046.015-.026 0-.046.007-.046.015 0 .009-.021.016-.046.016-.026 0-.046.006-.046.015 0 .008-.028.014-.061.014-.034 0-.062.007-.062.016 0 .008-.04.015-.092.015-.05 0-.091.006-.091.015s-.072.015-.184.015-.184.006-.184.015c0 .01-.188.015-.535.015-.347 0-.536.005-.536.015 0 .008-.02.015-.046.015-.025 0-.046.007-.046.015s-.01.015-.023.015a.584.584 0 0 0-.138.113c-.099.097-.114.12-.114.165 0 .03-.007.053-.016.053-.01 0-.015.381-.015 1.114 0 .732-.005 1.114-.015 1.114-.01 0-.016.33-.016.963 0 .953 0 .963-.03.963-.017 0-.03-.01-.03-.023a.924.924 0 0 0-.154-.173 1.217 1.217 0 0 1-.153-.165c0-.009-.069-.084-.153-.166a1.223 1.223 0 0 1-.153-.165.911.911 0 0 0-.138-.15 1.012 1.012 0 0 1-.138-.151c0-.01-.069-.084-.153-.166a1.22 1.22 0 0 1-.153-.165c0-.01-.069-.084-.153-.166a1.215 1.215 0 0 1-.153-.166 1.22 1.22 0 0 0-.153-.165 1.223 1.223 0 0 1-.153-.166c0-.009-.069-.083-.153-.165a1.214 1.214 0 0 1-.153-.166 1.01 1.01 0 0 0-.138-.15l-.138-.135v-4.177c0-2.774-.005-4.177-.015-4.177-.01 0-.015-.125-.015-.346 0-.22-.006-.346-.016-.346-.009 0-.015-.065-.015-.165s-.006-.166-.015-.166-.016-.04-.016-.09c0-.05-.006-.09-.015-.09-.008 0-.015-.028-.015-.06 0-.034-.007-.06-.015-.06-.009 0-.016-.028-.016-.061s-.006-.06-.015-.06c-.008 0-.015-.014-.015-.03 0-.017-.007-.03-.016-.03-.008 0-.015-.02-.015-.046 0-.024-.007-.045-.015-.045-.009 0-.015-.013-.015-.03 0-.016-.007-.03-.016-.03-.008 0-.015-.014-.015-.03 0-.017-.007-.03-.015-.03-.009 0-.016-.014-.016-.03 0-.017-.007-.03-.015-.03s-.015-.014-.015-.03c0-.017-.007-.03-.016-.03-.008 0-.015-.013-.015-.027 0-.015-.014-.037-.03-.049-.017-.012-.031-.034-.031-.048 0-.015-.007-.027-.015-.027-.009 0-.016-.012-.016-.027s-.014-.037-.03-.048c-.017-.012-.031-.031-.031-.043 0-.011-.02-.04-.046-.063-.025-.023-.046-.05-.046-.06 0-.01-.027-.043-.061-.075a.248.248 0 0 1-.061-.074c0-.022-.408-.423-.43-.423-.01 0-.037-.02-.06-.045-.024-.025-.051-.045-.061-.045-.01 0-.038-.02-.062-.045-.023-.025-.052-.046-.064-.046-.011 0-.03-.013-.043-.03-.012-.016-.034-.03-.049-.03s-.027-.006-.027-.015c0-.008-.014-.015-.03-.015-.018 0-.032-.006-.032-.015 0-.008-.012-.015-.027-.015s-.037-.013-.049-.03c-.012-.017-.034-.03-.05-.03-.014 0-.026-.007-.026-.015s-.014-.015-.031-.015-.03-.007-.03-.015-.021-.015-.047-.015c-.025 0-.045-.007-.045-.015 0-.009-.014-.015-.031-.015s-.03-.007-.03-.015c0-.009-.021-.015-.047-.015-.025 0-.046-.007-.046-.015 0-.009-.02-.015-.046-.015-.025 0-.046-.007-.046-.016 0-.008-.02-.015-.045-.015-.026 0-.046-.006-.046-.015 0-.008-.041-.015-.092-.015s-.092-.006-.092-.015c0-.01-.087-.015-.23-.015-.142 0-.23-.006-.23-.015 0-.01-2.033-.015-6.07-.015-5.24 0-6.072-.003-6.091-.021-.018-.019-.022-.167-.022-.964 0-.617.006-.941.015-.941.01 0 .016-.126.016-.347 0-.22.005-.346.015-.346.009 0 .015-.05.015-.12 0-.07.007-.12.016-.12.008 0 .015-.034.015-.076 0-.041.007-.075.015-.075.009 0 .016-.027.016-.06s.006-.06.015-.06c.008 0 .015-.02.015-.046 0-.024.007-.045.016-.045.008 0 .015-.02.015-.045 0-.025.007-.045.015-.045.009 0 .015-.014.015-.03 0-.017.007-.03.016-.03.008 0 .015-.014.015-.03 0-.017.007-.03.015-.03.009 0 .016-.014.016-.03 0-.017.007-.03.015-.03s.015-.014.015-.03c0-.017.007-.03.016-.03.008 0 .015-.013.015-.027 0-.015.014-.037.03-.049.017-.012.031-.031.031-.043 0-.01.02-.04.046-.062.025-.024.046-.05.046-.06a.98.98 0 0 1 .215-.211c.01 0 .037-.02.06-.045.024-.025.053-.046.064-.046.012 0 .032-.013.044-.03.012-.016.034-.03.049-.03s.027-.007.027-.015.014-.015.03-.015c.018 0 .031-.007.031-.015s.014-.015.031-.015.03-.007.03-.015.014-.015.031-.015.03-.007.03-.015.015-.015.031-.015c.017 0 .031-.007.031-.015 0-.009.02-.015.046-.015.025 0 .046-.007.046-.015 0-.009.02-.015.046-.015.025 0 .046-.007.046-.015 0-.009.046-.015.107-.015s.107-.007.107-.016c0-.01.204-.015.582-.015.377 0 .581-.005.581-.015 0-.01 1.94-.015 5.786-.015 3.847 0 5.786.005 5.786.015Zm-3.52 5.388c0 .01.25.015.719.015.47 0 .72.006.72.015 0 .01.06.015.152.015s.153.007.153.015c0 .009.028.016.062.016.033 0 .06.006.06.015 0 .008.028.015.062.015.033 0 .061.006.061.015 0 .008.014.015.03.015.018 0 .031.006.031.015 0 .008.021.015.046.015.026 0 .046.007.046.015s.014.015.03.015c.018 0 .031.007.031.015s.014.015.031.015.03.007.03.015.013.015.028.015c.015 0 .037.014.05.03.011.017.032.03.045.03.013 0 .034.014.046.03.012.017.031.03.042.03.024 0 .34.31.34.333 0 .01.021.036.046.059.026.023.046.053.046.066 0 .013.007.024.016.024.008 0 .015.014.015.03 0 .017.007.03.015.03.009 0 .016.012.016.027s.014.037.03.049c.017.012.03.033.03.048s.008.027.016.027c.009 0 .016.013.016.03s.006.03.015.03c.008 0 .015.02.015.045 0 .025.007.045.016.045.008 0 .015.014.015.03 0 .017.007.03.015.03s.015.014.015.03c0 .017.007.03.016.03.01 0 .015.713.015 2.108 0 1.394.005 2.107.015 2.107.01 0 .016 1.139.016 3.386 0 2.248-.005 3.386-.016 3.386-.01 0-.015.07-.015.181 0 .11-.006.18-.015.18s-.016.034-.016.076c0 .041-.007.075-.015.075s-.015.027-.015.06-.007.06-.015.06c-.009 0-.016.02-.016.046 0 .025-.007.045-.015.045-.009 0-.015.013-.015.03s-.007.03-.016.03c-.008 0-.015.02-.015.045 0 .025-.007.045-.015.045-.009 0-.016.014-.016.03 0 .017-.007.03-.015.03s-.015.013-.015.027c0 .015-.014.037-.03.049-.018.012-.032.032-.032.045 0 .013-.013.033-.03.045-.017.012-.03.031-.03.043 0 .01-.021.04-.047.062-.025.024-.046.05-.046.06a.504.504 0 0 1-.154.151.25.25 0 0 0-.075.06c-.032.033-.068.06-.08.06-.011 0-.03.014-.043.03-.012.017-.034.03-.049.03s-.027.008-.027.016-.014.015-.03.015c-.018 0-.031.007-.031.015s-.014.015-.031.015-.03.007-.03.015-.014.015-.031.015-.03.007-.03.015-.015.015-.032.015c-.016 0-.03.007-.03.015s-.02.015-.046.015c-.025 0-.046.007-.046.015 0 .009-.02.015-.046.015-.025 0-.046.007-.046.015 0 .009-.027.015-.061.015s-.061.007-.061.016c0 .008-.046.015-.107.015s-.107.006-.107.015c0 .01-.123.015-.337.015-.215 0-.337.005-.337.015 0 .01-1.168.015-3.474.015-2.307 0-3.475.005-3.475.015 0 .01-.21.015-.597.015-.388 0-.597.005-.597.015 0 .009-.054.015-.13.015h-.13l-.084.082a.44.44 0 0 0-.084.099c0 .008-.07.083-.154.165a1.229 1.229 0 0 0-.152.166c0 .008-.07.083-.154.165a1.217 1.217 0 0 0-.153.166c0 .009-.062.076-.137.15a1.008 1.008 0 0 0-.138.15c0 .01-.069.084-.153.166a1.217 1.217 0 0 0-.153.166.998.998 0 0 1-.138.15 1.001 1.001 0 0 0-.138.15c0 .01-.069.084-.153.166a1.226 1.226 0 0 0-.153.166c0 .009-.069.083-.153.166a1.226 1.226 0 0 0-.153.165c0 .009-.083.097-.184.196a1.724 1.724 0 0 0-.183.195c0 .01-.076.09-.169.181a1.46 1.46 0 0 0-.168.18c0 .01-.076.09-.168.181-.093.09-.169.172-.169.18 0 .01-.082.098-.183.196a1.75 1.75 0 0 0-.184.196c0 .009-.117.13-.26.271a2.35 2.35 0 0 0-.26.278c0 .013-.014.023-.031.023-.024 0-.03-.01-.03-.045 0-.025-.008-.045-.016-.045-.01 0-.015-.7-.015-2.07v-2.071l-.062-.058a.248.248 0 0 1-.06-.075.31.31 0 0 0-.07-.084l-.068-.067h-1.462c-.964 0-1.462-.005-1.462-.015 0-.01-.163-.015-.46-.015-.295 0-.458-.006-.458-.015 0-.01-.057-.015-.138-.015-.082 0-.138-.006-.138-.015s-.034-.015-.076-.015c-.043 0-.077-.007-.077-.015 0-.009-.027-.015-.061-.015s-.062-.007-.062-.015c0-.009-.02-.016-.045-.016-.026 0-.046-.006-.046-.015 0-.008-.014-.015-.03-.015-.018 0-.031-.006-.031-.015 0-.008-.021-.015-.046-.015-.026 0-.046-.007-.046-.015s-.014-.015-.031-.015-.03-.007-.03-.015-.014-.015-.031-.015-.03-.007-.03-.015-.013-.015-.028-.015c-.015 0-.037-.014-.05-.03-.012-.017-.032-.03-.045-.03-.013 0-.034-.014-.046-.03-.012-.017-.032-.03-.043-.03-.012 0-.047-.028-.08-.06a.247.247 0 0 0-.075-.06c-.023 0-.124-.1-.124-.122a.246.246 0 0 0-.06-.075c-.034-.031-.062-.067-.062-.078 0-.011-.014-.03-.03-.042-.018-.012-.031-.032-.031-.045 0-.013-.014-.033-.03-.045-.018-.012-.032-.034-.032-.049 0-.014-.006-.026-.015-.026-.008 0-.015-.014-.015-.03 0-.017-.007-.03-.015-.03-.009 0-.016-.014-.016-.03 0-.017-.007-.03-.015-.03s-.015-.014-.015-.031-.007-.03-.016-.03c-.008 0-.015-.014-.015-.03 0-.017-.007-.03-.015-.03-.009 0-.015-.014-.015-.03 0-.017-.008-.03-.016-.03s-.015-.02-.015-.046c0-.024-.007-.045-.015-.045-.01 0-.016-1.921-.016-5.734 0-3.813.005-5.734.015-5.734.009 0 .016-.02.016-.045 0-.025.007-.045.015-.045s.015-.014.015-.03c0-.017.007-.03.016-.03.008 0 .015-.014.015-.03 0-.017.007-.03.015-.03.009 0 .016-.014.016-.03 0-.017.007-.03.015-.03s.015-.014.015-.031.007-.03.015-.03c.009 0 .016-.014.016-.03 0-.017.007-.03.015-.03.009 0 .015-.012.015-.027s.014-.037.031-.049c.017-.012.03-.032.03-.045 0-.013.014-.033.031-.045.017-.012.03-.03.03-.041 0-.024.376-.395.4-.395.01 0 .037-.02.06-.046.024-.024.054-.045.067-.045.014 0 .025-.006.025-.015 0-.008.014-.015.03-.015.017 0 .031-.006.031-.015 0-.008.012-.015.027-.015s.038-.013.05-.03a.084.084 0 0 1 .064-.03c.024 0 .043-.007.043-.015s.014-.015.03-.015c.017 0 .031-.007.031-.015 0-.009.02-.015.046-.015.025 0 .046-.007.046-.015 0-.009.02-.015.046-.015.025 0 .046-.007.046-.015 0-.009.027-.015.061-.015s.061-.007.061-.016c0-.01.143-.015.398-.015s.398-.005.398-.015c0-.01.913-.015 2.71-.015 1.795 0 2.709-.005 2.709-.015 0-.01 1.683-.015 5.02-.015 3.337 0 5.02.005 5.02.015Zm-12.888 5.388c0 .009-.046.015-.108.015-.06 0-.107.007-.107.015 0 .009-.027.016-.061.016s-.061.006-.061.014c0 .009-.02.015-.046.015-.025 0-.046.007-.046.016 0 .008-.02.015-.046.015-.025 0-.046.006-.046.015 0 .008-.014.015-.03.015-.017 0-.031.006-.031.015 0 .008-.02.015-.046.015-.025 0-.046.007-.046.015s-.014.015-.03.015c-.017 0-.031.007-.031.015s-.012.015-.027.015-.038.014-.05.03c-.012.017-.032.03-.046.03-.013 0-.033.014-.046.03-.012.017-.032.03-.046.03-.013 0-.033.014-.045.03-.012.017-.031.03-.042.03-.024 0-.433.4-.433.423 0 .01-.02.036-.046.06-.025.023-.046.052-.046.066 0 .013-.007.024-.015.024s-.015.012-.015.026c0 .015-.014.037-.03.049-.018.012-.032.033-.032.048s-.006.027-.015.027c-.008 0-.015.014-.015.03 0 .017-.007.03-.015.03-.009 0-.016.014-.016.03 0 .017-.007.03-.015.03s-.015.02-.015.046c0 .024-.007.045-.016.045-.008 0-.015.02-.015.045 0 .025-.007.045-.015.045-.009 0-.015.02-.015.045 0 .025-.008.045-.016.045s-.015.034-.015.076c0 .041-.007.075-.015.075-.01 0-.016.095-.016.256 0 .16.006.256.015.256s.016.033.016.075c0 .041.007.075.015.075s.015.027.015.06.007.06.016.06c.008 0 .015.02.015.046 0 .024.007.045.015.045.009 0 .016.013.016.03 0 .016.007.03.015.03s.015.02.015.045c0 .025.007.045.015.045.009 0 .016.014.016.03 0 .017.007.03.015.03.009 0 .015.014.015.03 0 .017.007.03.016.03.008 0 .015.013.015.028 0 .014.014.036.03.048.017.012.031.032.031.045 0 .013.014.033.03.045.018.012.032.031.032.043 0 .011.02.04.046.063.025.023.045.05.045.059 0 .021.286.302.308.302.01 0 .036.02.06.045.023.025.052.045.064.045.011 0 .03.014.043.03.012.017.033.03.046.03.013 0 .034.014.046.03.012.017.034.03.049.03s.027.007.027.015c0 .009.014.016.03.016.018 0 .032.006.032.015 0 .008.013.015.03.015s.03.006.03.015c0 .008.021.015.047.015.025 0 .046.007.046.015s.02.015.045.015c.026 0 .046.007.046.015s.021.015.046.015c.026 0 .046.007.046.015s.028.015.061.015c.034 0 .062.007.062.015 0 .009.046.015.107.015s.107.007.107.015c0 .01.056.015.138.015.081 0 .137-.006.137-.015s.052-.015.123-.015c.071 0 .122-.006.122-.015 0-.008.028-.015.061-.015.034 0 .062-.007.062-.015s.02-.015.046-.015c.025 0 .046-.007.046-.015s.02-.015.046-.015c.025 0 .046-.007.046-.015s.013-.015.03-.015.03-.007.03-.015c0-.009.014-.015.031-.015s.03-.007.03-.015c0-.009.015-.015.031-.015.017 0 .031-.007.031-.016 0-.008.012-.015.027-.015s.038-.013.05-.03c.012-.016.034-.03.049-.03s.027-.007.027-.015.011-.015.025-.015c.013 0 .043-.02.067-.045.024-.025.05-.045.06-.045a.44.44 0 0 0 .108-.09.48.48 0 0 1 .108-.09c.022 0 .06-.039.06-.06a.47.47 0 0 1 .093-.106.43.43 0 0 0 .091-.109c0-.011.014-.03.031-.042.017-.012.03-.032.03-.045 0-.013.015-.033.031-.045.017-.012.03-.034.03-.048 0-.015.008-.027.016-.027.009 0 .015-.014.015-.03 0-.017.007-.03.016-.03.008 0 .015-.014.015-.03 0-.017.007-.03.015-.03.009 0 .016-.021.016-.046 0-.025.007-.045.015-.045s.015-.027.015-.06.007-.06.016-.06c.008 0 .015-.028.015-.06 0-.034.007-.06.015-.06.009 0 .015-.046.015-.106s.007-.105.016-.105c.01 0 .015-.1.015-.271s-.006-.271-.015-.271c-.008 0-.015-.034-.015-.076 0-.041-.007-.075-.016-.075-.008 0-.015-.02-.015-.045 0-.025-.007-.045-.015-.045-.009 0-.016-.02-.016-.045 0-.025-.007-.046-.015-.046s-.015-.013-.015-.03c0-.016-.007-.03-.015-.03-.009 0-.016-.013-.016-.03 0-.016-.007-.03-.015-.03-.009 0-.015-.013-.015-.03 0-.016-.007-.03-.016-.03-.008 0-.015-.014-.015-.03 0-.017-.007-.03-.015-.03-.009 0-.016-.012-.016-.027s-.013-.037-.03-.048c-.017-.012-.03-.032-.03-.043 0-.011-.022-.04-.047-.063s-.046-.05-.046-.059a2.42 2.42 0 0 0-.338-.332c-.01 0-.036-.02-.06-.045-.023-.025-.052-.046-.064-.046-.011 0-.03-.013-.043-.03-.012-.016-.033-.03-.046-.03-.013 0-.034-.013-.046-.03-.012-.016-.034-.03-.049-.03s-.027-.007-.027-.015-.014-.015-.03-.015c-.018 0-.032-.007-.032-.015s-.013-.015-.03-.015-.03-.007-.03-.015-.014-.015-.031-.015-.03-.007-.03-.015c0-.009-.022-.015-.047-.015s-.046-.007-.046-.015c0-.009-.013-.015-.03-.015s-.031-.007-.031-.015c0-.009-.027-.016-.061-.016s-.061-.006-.061-.015c0-.008-.028-.014-.062-.014-.033 0-.06-.007-.06-.016 0-.008-.052-.015-.123-.015-.072 0-.123-.006-.123-.015 0-.008-.04-.015-.092-.015-.05 0-.091.007-.091.015Zm5.54 0c0 .009-.05.015-.122.015s-.122.007-.122.015c0 .009-.028.016-.062.016s-.061.006-.061.014c0 .009-.027.015-.061.015s-.061.007-.061.016c0 .008-.021.015-.046.015-.026 0-.046.006-.046.015 0 .008-.014.015-.03.015-.018 0-.031.006-.031.015 0 .008-.014.015-.031.015s-.03.007-.03.015-.014.015-.031.015-.03.007-.03.015-.015.015-.032.015c-.016 0-.03.007-.03.015s-.014.015-.03.015c-.018 0-.031.007-.031.015s-.013.015-.028.015c-.015 0-.037.014-.049.03-.012.017-.032.03-.043.03-.012 0-.04.02-.064.046-.024.024-.05.045-.06.045-.022 0-.307.28-.307.302 0 .01-.021.036-.046.059-.026.023-.046.051-.046.063 0 .011-.014.03-.03.042-.018.012-.032.033-.032.045 0 .013-.013.034-.03.046-.017.011-.03.033-.03.048s-.008.027-.016.027-.015.013-.015.03-.007.03-.016.03c-.008 0-.015.014-.015.03 0 .017-.007.03-.015.03-.009 0-.015.014-.015.03 0 .017-.007.03-.016.03-.008 0-.015.014-.015.03 0 .017-.007.03-.015.03-.009 0-.016.021-.016.046 0 .025-.007.045-.015.045-.009 0-.015.02-.015.045 0 .025-.007.045-.016.045-.008 0-.015.034-.015.075 0 .042-.007.076-.015.076-.01 0-.016.11-.016.3 0 .191.006.302.016.302.008 0 .015.027.015.06s.007.06.015.06c.009 0 .016.027.016.06s.006.06.015.06c.008 0 .015.02.015.046 0 .025.007.045.016.045.008 0 .015.013.015.03s.007.03.015.03c.009 0 .015.02.015.045 0 .025.007.045.016.045.008 0 .015.014.015.03 0 .017.007.03.015.03.009 0 .016.013.016.027 0 .015.014.037.03.049.017.012.03.032.03.045 0 .013.015.033.031.045.017.012.031.032.031.045 0 .013.014.033.03.045.018.012.031.03.031.041 0 .026.377.396.402.396.011 0 .03.013.042.03.012.017.033.03.046.03.013 0 .034.014.046.03.012.017.033.03.046.03.013 0 .034.014.046.03.012.017.034.03.05.03.014 0 .026.007.026.015 0 .009.014.016.031.016s.03.006.03.015c0 .008.021.015.047.015.025 0 .046.006.046.015 0 .008.013.015.03.015s.03.007.03.015.021.015.047.015c.025 0 .046.007.046.015s.027.015.06.015c.034 0 .062.007.062.015s.027.015.061.015.062.007.062.015c0 .01.06.015.152.015s.154.006.154.015c0 .008.02.015.046.015.025 0 .046-.007.046-.015 0-.009.056-.015.137-.015.082 0 .138-.006.138-.015 0-.008.027-.015.061-.015s.061-.007.061-.015.021-.015.046-.015c.026 0 .046-.007.046-.015s.02-.015.046-.015c.025 0 .046-.007.046-.015s.014-.015.03-.015c.018 0 .031-.007.031-.015 0-.009.02-.015.043-.015a.085.085 0 0 0 .064-.03c.013-.017.035-.03.05-.03s.027-.007.027-.016c0-.008.014-.015.03-.015.017 0 .031-.006.031-.015 0-.008.012-.015.027-.015s.038-.013.05-.03c.012-.016.031-.03.043-.03.011 0 .04-.02.064-.045.023-.025.05-.045.06-.045.022 0 .338-.31.338-.333 0-.009.02-.035.046-.059.025-.023.046-.051.046-.063 0-.01.014-.03.03-.042.017-.012.03-.032.03-.045 0-.013.015-.033.031-.045.017-.012.031-.034.031-.049 0-.014.007-.026.015-.026.009 0 .016-.014.016-.03 0-.017.007-.03.015-.03s.015-.014.015-.03c0-.017.007-.03.016-.03.008 0 .015-.014.015-.03 0-.017.007-.031.015-.031.009 0 .016-.02.016-.045 0-.025.006-.045.015-.045.008 0 .015-.034.015-.076 0-.041.007-.075.015-.075.01 0 .016-.15.016-.421s-.006-.422-.015-.422-.016-.034-.016-.075c0-.041-.007-.075-.015-.075-.009 0-.015-.014-.015-.03 0-.017-.007-.03-.016-.03-.008 0-.015-.02-.015-.046 0-.024-.007-.045-.015-.045-.009 0-.016-.012-.016-.026 0-.015-.014-.037-.03-.049-.017-.012-.03-.034-.03-.048 0-.015-.008-.027-.016-.027-.009 0-.015-.012-.015-.027s-.014-.037-.031-.048c-.017-.012-.03-.033-.03-.046 0-.012-.015-.033-.031-.045-.017-.012-.031-.03-.031-.041a.427.427 0 0 0-.092-.11.482.482 0 0 1-.092-.104c0-.022-.07-.09-.092-.09a.356.356 0 0 1-.091-.076.347.347 0 0 0-.093-.075c-.01 0-.037-.02-.06-.046-.024-.024-.054-.045-.068-.045-.013 0-.024-.006-.024-.015 0-.008-.014-.015-.03-.015-.018 0-.032-.007-.032-.015s-.012-.015-.027-.015-.037-.013-.049-.03c-.012-.017-.034-.03-.05-.03-.014 0-.026-.007-.026-.015s-.021-.015-.046-.015c-.026 0-.046-.007-.046-.015 0-.009-.014-.015-.03-.015-.018 0-.032-.007-.032-.015 0-.009-.02-.015-.046-.015-.025 0-.045-.007-.045-.015 0-.009-.021-.016-.046-.016-.026 0-.046-.006-.046-.015 0-.008-.028-.014-.061-.014-.034 0-.062-.007-.062-.016 0-.008-.046-.015-.107-.015s-.107-.006-.107-.015c0-.008-.04-.015-.092-.015-.05 0-.092.007-.092.015Zm5.235.03c0 .009-.027.016-.061.016s-.061.006-.061.014c0 .009-.028.015-.062.015-.033 0-.06.007-.06.016 0 .008-.015.015-.032.015-.016 0-.03.006-.03.015 0 .008-.02.015-.046.015-.025 0-.046.006-.046.015 0 .008-.014.015-.03.015-.017 0-.031.007-.031.015s-.012.015-.027.015-.038.014-.05.03c-.012.017-.034.03-.049.03s-.027.007-.027.015-.012.015-.027.015-.038.014-.05.03c-.012.017-.031.03-.042.03-.012 0-.048.027-.08.06a.249.249 0 0 1-.076.06c-.021 0-.307.281-.307.303a.249.249 0 0 1-.061.074c-.034.032-.061.067-.061.078 0 .012-.014.03-.03.043-.018.011-.032.033-.032.048s-.006.027-.015.027c-.008 0-.015.013-.015.03 0 .016-.007.03-.015.03-.009 0-.016.014-.016.03 0 .017-.007.03-.015.03s-.015.014-.015.03c0 .017-.007.03-.016.03-.008 0-.015.014-.015.03 0 .017-.007.03-.015.03-.009 0-.015.02-.015.046 0 .025-.007.045-.016.045-.008 0-.015.027-.015.06s-.007.06-.015.06c-.009 0-.016.027-.016.06 0 .034-.007.06-.015.06-.01 0-.015.126-.015.347 0 .22.005.346.015.346.008 0 .015.034.015.075 0 .042.007.075.016.075.008 0 .015.02.015.046 0 .024.007.045.015.045.009 0 .016.013.016.03 0 .016.006.03.015.03.008 0 .015.02.015.045 0 .025.007.045.015.045.009 0 .016.012.016.027s.014.037.03.048c.017.012.03.034.03.049s.008.027.016.027c.009 0 .016.012.016.027 0 .014.013.036.03.048.017.012.03.032.03.045 0 .013.014.033.031.045.017.012.031.031.031.042 0 .012.027.047.061.079a.246.246 0 0 1 .061.074c0 .022.194.212.216.212.009 0 .043.027.075.06.033.033.068.06.08.06.011 0 .03.014.043.03.012.017.034.03.049.03s.027.007.027.015c0 .009.013.015.027.015.015 0 .038.014.05.03.012.017.034.03.049.03s.027.007.027.016c0 .008.021.015.046.015.025 0 .046.006.046.015 0 .008.014.015.03.015.018 0 .031.007.031.015s.021.015.046.015c.026 0 .046.007.046.015s.02.015.046.015c.025 0 .046.007.046.015s.028.015.061.015c.034 0 .062.007.062.015 0 .009.05.015.122.015.071 0 .122.006.122.015s.046.015.108.015c.06 0 .107-.006.107-.015s.05-.015.122-.015.123-.006.123-.015c0-.008.034-.015.076-.015.042 0 .077-.007.077-.015s.02-.015.046-.015c.025 0 .045-.007.045-.015s.021-.015.046-.015c.026 0 .046-.007.046-.015s.014-.015.03-.015c.018 0 .032-.007.032-.015 0-.009.013-.015.03-.015s.03-.007.03-.015c0-.009.015-.015.031-.015.017 0 .03-.007.03-.016 0-.008.015-.015.032-.015.016 0 .03-.006.03-.015 0-.008.012-.015.027-.015s.037-.013.05-.03c.012-.016.032-.03.046-.03.013 0 .033-.013.046-.03.012-.017.03-.03.042-.03a.32.32 0 0 0 .095-.075.359.359 0 0 1 .092-.075c.022 0 .123-.1.123-.121 0-.01.034-.05.076-.09a.315.315 0 0 0 .077-.094c0-.01.013-.03.03-.042.017-.012.03-.032.03-.045 0-.013.015-.033.031-.045.017-.012.031-.032.031-.045 0-.013.014-.033.03-.045.017-.012.031-.034.031-.049 0-.014.007-.027.016-.027.008 0 .015-.013.015-.03 0-.016.007-.03.015-.03.009 0 .016-.02.016-.045 0-.025.006-.045.015-.045.008 0 .015-.014.015-.03 0-.017.007-.03.016-.03.008 0 .015-.02.015-.045 0-.025.007-.046.015-.046s.015-.027.015-.06.007-.06.016-.06c.008 0 .015-.034.015-.075 0-.042.007-.075.015-.075.01 0 .016-.086.016-.226s-.006-.226-.016-.226c-.008 0-.015-.034-.015-.075 0-.042-.007-.075-.015-.075-.009 0-.016-.028-.016-.06 0-.034-.007-.06-.015-.06s-.015-.021-.015-.046c0-.025-.007-.045-.015-.045-.009 0-.016-.02-.016-.045 0-.025-.007-.046-.015-.046-.009 0-.015-.013-.015-.03 0-.016-.007-.03-.016-.03-.008 0-.015-.013-.015-.03 0-.016-.007-.03-.015-.03-.009 0-.016-.013-.016-.03 0-.016-.007-.03-.015-.03s-.015-.012-.015-.027c0-.014-.014-.036-.03-.048-.018-.012-.032-.032-.032-.045 0-.013-.013-.034-.03-.046-.017-.012-.03-.03-.03-.042 0-.011-.028-.046-.062-.078a.246.246 0 0 1-.061-.074 2.01 2.01 0 0 0-.308-.302c-.009 0-.036-.02-.06-.045-.023-.025-.052-.046-.063-.046-.012 0-.031-.013-.044-.03-.012-.016-.032-.03-.046-.03-.013 0-.033-.013-.046-.03-.012-.016-.034-.03-.049-.03s-.027-.007-.027-.015-.014-.015-.03-.015c-.017 0-.031-.007-.031-.015s-.014-.015-.03-.015c-.018 0-.032-.007-.032-.015 0-.009-.02-.015-.045-.015-.026 0-.046-.007-.046-.015 0-.009-.014-.015-.031-.015s-.03-.007-.03-.015c0-.009-.028-.016-.062-.016-.033 0-.061-.006-.061-.015 0-.008-.027-.014-.061-.014s-.061-.007-.061-.016c0-.01-.123-.015-.337-.015-.215 0-.337.006-.337.015Zm-10.622.934c0 .008.046.015.107.015s.107.006.107.015c0 .008.027.015.061.015s.061.006.061.015c0 .008.014.015.031.015s.03.007.03.015.014.015.031.015.03.007.03.015.014.015.031.015.031.007.031.015.01.015.023.015c.03 0 .252.218.252.248 0 .013.007.023.016.023.008 0 .015.014.015.03 0 .017.007.03.015.03.009 0 .016.02.016.045 0 .025.007.045.015.045.009 0 .015.02.015.046 0 .024.007.045.016.045.008 0 .015.045.015.105s.007.105.015.105c.009 0 .016.034.016.076 0 .041-.007.075-.016.075-.009 0-.015.05-.015.12 0 .07-.006.12-.015.12s-.016.021-.016.046c0 .025-.006.045-.015.045-.008 0-.015.02-.015.045 0 .025-.007.045-.016.045-.008 0-.015.014-.015.03 0 .017-.007.03-.015.03-.009 0-.015.011-.015.025 0 .013-.021.043-.046.066-.026.023-.046.05-.046.06 0 .022-.039.06-.062.06-.01 0-.037.02-.06.045-.024.025-.055.046-.068.046-.014 0-.025.006-.025.015 0 .008-.013.015-.03.015s-.03.006-.03.015c0 .008-.015.015-.032.015-.016 0-.03.007-.03.015s-.02.015-.046.015c-.025 0-.046.007-.046.015s-.04.015-.092.015c-.05 0-.091.007-.091.015s-.041.015-.092.015-.092-.007-.092-.015c0-.009-.046-.015-.107-.015-.062 0-.108-.007-.108-.015s-.027-.015-.06-.015c-.034 0-.062-.007-.062-.015s-.014-.015-.03-.015c-.017 0-.031-.007-.031-.015 0-.009-.014-.015-.03-.015-.018 0-.031-.007-.031-.015 0-.009-.013-.015-.028-.015-.015 0-.037-.014-.049-.03-.012-.017-.031-.03-.042-.03a.45.45 0 0 1-.157-.155c0-.01-.014-.03-.03-.041-.017-.012-.031-.033-.031-.045 0-.013-.014-.034-.03-.046-.018-.011-.031-.033-.031-.048s-.007-.027-.016-.027c-.008 0-.015-.02-.015-.045 0-.025-.007-.045-.015-.045-.009 0-.016-.027-.016-.06s-.006-.06-.015-.06c-.01 0-.015-.086-.015-.226s.006-.226.015-.226.015-.02.015-.045c0-.025.007-.045.016-.045.008 0 .015-.02.015-.046 0-.024.007-.045.015-.045.009 0 .016-.013.016-.03 0-.016.006-.03.015-.03.008 0 .015-.012.015-.027 0-.014.014-.036.03-.048.018-.012.032-.03.032-.041a.64.64 0 0 1 .187-.185c.011 0 .03-.013.042-.03.012-.016.034-.03.05-.03.014 0 .027-.007.027-.015s.013-.015.03-.015.03-.007.03-.015.015-.015.032-.015c.016 0 .03-.007.03-.015 0-.009.02-.015.046-.015.025 0 .046-.007.046-.015 0-.009.046-.015.107-.015s.107-.007.107-.015c0-.009.028-.016.061-.016.034 0 .062.007.062.016Zm5.663.03c0 .008.027.015.061.015s.061.006.061.015c0 .008.021.015.046.015.026 0 .046.007.046.015s.02.015.046.015c.025 0 .046.007.046.015s.012.015.027.015.037.014.05.03c.012.017.03.03.041.03.012 0 .058.037.104.083a.385.385 0 0 1 .084.102c0 .01.014.029.03.04.018.013.031.035.031.05 0 .014.007.026.016.026.008 0 .015.02.015.045 0 .025.007.045.015.045.009 0 .015.02.015.046 0 .024.008.045.016.045.009 0 .015.055.015.135 0 .08.006.136.015.136s.016.02.016.045c0 .025-.007.045-.015.045-.01 0-.016.05-.016.12 0 .07-.006.12-.015.12-.008 0-.015.021-.015.046 0 .025-.007.045-.016.045-.008 0-.015.02-.015.045 0 .025-.007.045-.015.045-.009 0-.016.014-.016.03 0 .017-.007.03-.015.03s-.015.01-.015.023c0 .028-.221.248-.25.248-.01 0-.029.014-.041.03-.012.017-.034.03-.05.03-.014 0-.027.007-.027.016 0 .008-.02.015-.046.015-.025 0-.045.007-.045.015s-.028.015-.062.015c-.033 0-.06.007-.06.015 0 .01-.103.015-.276.015-.174 0-.276-.006-.276-.015 0-.008-.027-.015-.061-.015s-.061-.007-.061-.015-.014-.015-.031-.015-.03-.007-.03-.015c0-.009-.014-.015-.031-.015s-.03-.007-.03-.015c0-.009-.013-.015-.028-.015-.015 0-.037-.014-.05-.03-.012-.017-.03-.03-.042-.03-.026 0-.126-.099-.126-.125 0-.01-.013-.03-.03-.041-.017-.012-.03-.032-.03-.045 0-.013-.015-.034-.032-.046a.082.082 0 0 1-.03-.063c0-.023-.007-.042-.015-.042-.009 0-.016-.013-.016-.03s-.007-.03-.015-.03-.015-.027-.015-.06-.007-.06-.016-.06c-.01 0-.015-.09-.015-.241 0-.15.006-.241.015-.241s.016-.027.016-.06.007-.06.015-.06.015-.014.015-.03c0-.017.007-.03.015-.03.009 0 .016-.014.016-.03 0-.017.007-.03.015-.03.009 0 .015-.014.015-.03 0-.018.007-.031.016-.031.008 0 .015-.01.015-.023 0-.028.221-.248.249-.248.01 0 .03-.013.042-.03.012-.017.034-.03.05-.03.014 0 .026-.007.026-.015s.021-.015.046-.015c.026 0 .046-.007.046-.015 0-.009.02-.015.046-.015.025 0 .046-.007.046-.015 0-.01.092-.015.245-.015s.245.005.245.015Zm5.54 0c0 .008.028.015.062.015s.061.006.061.015c0 .008.02.015.046.015.025 0 .046.007.046.015s.014.015.03.015c.017 0 .031.007.031.015s.013.015.027.015c.015 0 .038.014.05.03.012.017.03.03.042.03.028 0 .218.19.218.218 0 .013.007.023.015.023.009 0 .015.02.015.045 0 .025.007.045.016.045.008 0 .015.02.015.045 0 .025.007.046.015.046.01 0 .016.06.016.15s.006.15.015.15c.008 0 .015.034.015.076 0 .041-.007.075-.015.075-.009 0-.015.055-.015.136 0 .08-.006.135-.016.135-.008 0-.015.027-.015.06s-.007.06-.015.06c-.009 0-.016.014-.016.03 0 .017-.006.03-.015.03-.008 0-.015.01-.015.023 0 .028-.221.248-.249.248-.01 0-.03.014-.042.03-.012.017-.034.03-.05.03-.014 0-.026.007-.026.016 0 .008-.021.015-.046.015-.026 0-.046.007-.046.015s-.02.015-.046.015c-.025 0-.046.007-.046.015 0 .01-.112.015-.306.015s-.306-.006-.306-.015c0-.008-.021-.015-.046-.015-.026 0-.046-.007-.046-.015s-.02-.015-.046-.015c-.025 0-.046-.007-.046-.015 0-.009-.012-.015-.027-.015s-.037-.014-.05-.03c-.012-.017-.03-.03-.042-.03-.025 0-.095-.068-.095-.092 0-.01-.021-.036-.046-.059-.026-.023-.046-.052-.046-.063 0-.011-.014-.03-.03-.042-.017-.012-.031-.034-.031-.049s-.007-.027-.016-.027c-.008 0-.015-.013-.015-.03 0-.016-.007-.03-.015-.03-.009 0-.016-.02-.016-.045 0-.025-.006-.045-.015-.045-.008 0-.015-.02-.015-.045 0-.025-.007-.045-.015-.045-.009 0-.016-.04-.016-.09 0-.05-.007-.091-.015-.091s-.015-.02-.015-.045c0-.025.007-.045.015-.045s.015-.04.015-.09c0-.05.007-.09.016-.09.008 0 .015-.028.015-.061s.007-.06.015-.06c.009 0 .016-.02.016-.046 0-.024.006-.045.015-.045.008 0 .015-.013.015-.03 0-.016.007-.03.015-.03.009 0 .016-.013.016-.03s.006-.03.015-.03c.008 0 .015-.012.015-.027s.014-.036.03-.048c.018-.012.032-.03.032-.042 0-.027.131-.154.16-.154.013 0 .023-.007.023-.015s.014-.015.03-.015c.018 0 .031-.007.031-.015s.014-.015.031-.015.03-.007.03-.015.021-.015.047-.015c.025 0 .046-.007.046-.015 0-.009.027-.015.06-.015.034 0 .062-.007.062-.015 0-.01.092-.015.245-.015s.245.005.245.015Z" fill="#FAFAFA"/><path d="M32 63c17.12 0 31-13.88 31-31C63 14.88 49.12 1 32 1 14.88 1 1 14.88 1 32c0 17.12 13.88 31 31 31Zm24-50L11 55" stroke="red" stroke-width="2"/></svg>