<svg width="45" height="39" fill="none" xmlns="http://www.w3.org/2000/svg"><path fill-rule="evenodd" clip-rule="evenodd" d="M13.997.018a4.6 4.6 0 0 0-1.48.434c-1.168.558-1.984 1.563-2.268 2.794-.055.235-.066.366-.066.78 0 .415.011.545.066.78.378 1.635 1.666 2.83 3.429 3.18.44.086 1.244.086 1.683 0 1.763-.35 3.052-1.545 3.43-3.18.094-.406.094-1.152 0-1.56C18.415 1.62 17.116.41 15.376.072c-.33-.064-1.071-.093-1.379-.054Zm15.966 0a4.6 4.6 0 0 0-1.48.434c-1.168.558-1.984 1.563-2.268 2.794-.095.408-.095 1.153 0 1.56.377 1.635 1.666 2.83 3.429 3.18.44.086 1.244.086 1.683 0 1.763-.35 3.052-1.545 3.43-3.18.094-.406.094-1.152 0-1.56C34.38 1.62 33.08.41 31.342.072c-.33-.064-1.071-.093-1.379-.054ZM15.202 1.413c.836.194 1.527.707 1.913 1.421.557 1.03.336 2.271-.547 3.09-1.133 1.05-2.964 1.05-4.096 0a2.754 2.754 0 0 1-.787-1.32 3.042 3.042 0 0 1 0-1.156c.267-1.066 1.168-1.867 2.334-2.071a3.765 3.765 0 0 1 1.183.036Zm15.966 0c.836.194 1.527.707 1.913 1.421.556 1.03.336 2.271-.548 3.09-1.132 1.05-2.963 1.05-4.096 0a2.755 2.755 0 0 1-.786-1.32 3.042 3.042 0 0 1 0-1.156c.267-1.066 1.168-1.867 2.334-2.071a3.765 3.765 0 0 1 1.183.036ZM11.53 8.764c-.854.091-1.804.402-2.5.818-.945.565-1.633 1.306-2.247 2.422-.458.83-.732 1.652-.904 2.709-.045.274-.051.692-.06 4.192-.008 2.757-.002 3.948.02 4.096.055.35.206.7.437 1.016.142.195.522.528.741.652.65.366 1.448.444 2.169.212.091-.03.166-.045.166-.035l-.272 5.776c-.287 6.09-.284 6-.162 6.413.164.554.596 1.124 1.118 1.475.222.149.697.35.986.418.362.084 1.05.084 1.386 0 .57-.143.924-.331 1.33-.705.348-.32.558-.609.687-.947.044-.115.087-.21.095-.21.008 0 .05.095.094.21.093.244.294.558.5.779.881.95 2.318 1.215 3.529.652.224-.105.629-.37.748-.49l.068-.069.186.17c.932.851 2.392.911 3.386.139l.201-.157.122.104c.266.227.599.397.998.51.224.063.306.071.676.073.355.002.457-.008.653-.06.283-.074.658-.239.84-.368l.136-.096.18.126c.469.329 1.06.468 1.647.389.422-.057.89-.25 1.164-.48l.106-.088.195.136a2.407 2.407 0 0 0 2.562.157c.091-.05.272-.189.403-.31.194-.18.262-.267.382-.488.083-.154.165-.354.191-.467.026-.108.281-2.183.569-4.61.287-2.426.53-4.451.538-4.5l.016-.087h.996c.557 0 1.066-.012 1.153-.027.503-.089.947-.455 1.102-.91.09-.266.079-.522-.072-1.525a39.751 39.751 0 0 1-.133-.928c0-.026.098-.084.254-.152 1.018-.445 1.734-1.3 1.955-2.337.023-.109.04-.346.04-.565-.002-.343-.055-.717-.591-4.183a283.885 283.885 0 0 0-.643-4.05 5.545 5.545 0 0 0-.587-1.526c-1.023-1.848-3.01-3.089-5.247-3.277-.247-.021-.986-.027-2.308-.018-1.624.01-1.99.02-2.22.056-1.393.223-2.565.767-3.538 1.644-.576.519-.968 1.017-1.381 1.754a3.313 3.313 0 0 1-.262-.017 4.738 4.738 0 0 0-.934.04l-.12.018-.21-.359c-.32-.543-.475-.776-.7-1.046-.91-1.091-2.15-1.776-3.683-2.036-.248-.041-.557-.047-3.005-.051-1.5-.003-2.827.005-2.946.018Zm5.897 1.392c.912.192 1.697.598 2.296 1.187.303.299.47.52.77 1.021l.23.388-.22.155c-.896.63-1.458 1.585-1.538 2.61a3.47 3.47 0 0 0 .664 2.328c.194.269.731.768 1.016.945.771.478 1.633.69 2.535.623a3.895 3.895 0 0 0 2.446-1.057c.692-.641 1.064-1.382 1.141-2.275a3.439 3.439 0 0 0-.764-2.451 4.358 4.358 0 0 0-.959-.846 1.756 1.756 0 0 1-.248-.169c0-.009.054-.101.12-.206.81-1.275 2.248-2.138 3.834-2.3.375-.038 3.676-.038 4.052 0 1.519.155 2.863.915 3.721 2.106.332.46.627 1.125.737 1.659.026.126.31 1.936.63 4.022.619 4.02.612 3.968.518 4.336a2.5 2.5 0 0 1-.163.383 1.416 1.416 0 0 1-.367.474c-.202.189-.413.335-.438.305-.004-.005-.147-.966-.317-2.135-1.106-7.577-1.084-7.433-1.164-7.56-.24-.38-.794-.446-1.129-.135-.133.124-.222.305-.222.453 0 .043.418 2.935.929 6.425.51 3.49.928 6.37.928 6.4 0 .054-.006.054-3.715.054h-3.716v-1.479c0-1.598-.017-1.846-.16-2.376-.245-.902-.84-1.793-1.595-2.39a5.339 5.339 0 0 0-2.788-1.126c-.339-.036-2.187-.036-2.525 0a5.332 5.332 0 0 0-2.82 1.152c-.794.643-1.39 1.586-1.608 2.54-.112.495-.12.721-.109 3.437.011 2.835.002 2.659.165 3.035.19.44.669.89 1.148 1.08l.132.053v2.739c-.001 3.008.002 2.947-.177 3.285a1.873 1.873 0 0 1-.574.595c-.801.476-1.902.113-2.183-.72-.066-.198-.053.007-.49-8.022-.113-2.084-.218-3.802-.236-3.861-.072-.236-.287-.416-.563-.473-.344-.072-.733.148-.825.467-.018.062-.104 1.433-.192 3.046-.354 6.486-.48 8.642-.51 8.758-.165.648-.888 1.1-1.606 1.004a1.749 1.749 0 0 1-.721-.283 1.386 1.386 0 0 1-.511-.847c-.018-.106.012-.97.1-2.818l.316-6.688.19-4.023-.008-4.318-.007-4.318-.065-.112c-.08-.14-.276-.297-.412-.332a.795.795 0 0 0-.695.124.902.902 0 0 0-.187.208l-.064.112-.014 4.278c-.015 4.206-.016 4.28-.073 4.403a1.065 1.065 0 0 1-.401.467c-.497.306-1.138.205-1.486-.233-.236-.297-.222-.003-.21-4.328.009-3.445.015-3.863.06-4.116.161-.93.452-1.728.899-2.472.272-.452.523-.767.861-1.08.714-.662 1.571-1.039 2.657-1.167.048-.005 1.283-.008 2.744-.005 2.621.005 2.66.005 2.936.064Zm6.135 3.31c.88.236 1.566.874 1.822 1.691.087.281.094.971.011 1.246-.25.83-.95 1.49-1.839 1.728-.193.052-.294.061-.69.061-.396 0-.498-.009-.691-.06-.873-.235-1.573-.879-1.822-1.677-.089-.285-.11-.825-.044-1.13a2.31 2.31 0 0 1 .666-1.173 2.626 2.626 0 0 1 1.353-.722c.274-.057.962-.037 1.234.036ZM.472 18.871a.748.748 0 0 0-.419.397c-.07.194-.07 1.61 0 1.803.092.248.39.444.678.444.288 0 .586-.196.678-.444.07-.193.07-1.61 0-1.803-.126-.342-.553-.523-.937-.397Zm3.629 0a.748.748 0 0 0-.419.397c-.071.194-.071 1.61 0 1.803.091.248.39.444.678.444.287 0 .586-.196.677-.444.071-.193.071-1.61 0-1.803-.125-.342-.553-.523-.936-.397Zm36.286 0a.748.748 0 0 0-.419.397c-.04.11-.048.255-.048.902 0 .646.008.791.048.901.091.248.39.444.678.444.175 0 .378-.08.508-.201.204-.189.217-.26.217-1.144 0-.885-.013-.956-.217-1.145a.767.767 0 0 0-.767-.154Zm3.629 0a.748.748 0 0 0-.42.397c-.04.11-.047.255-.047.902 0 .646.007.791.048.901.09.248.39.444.677.444.176 0 .379-.08.509-.201.204-.189.217-.26.217-1.144 0-.885-.013-.956-.217-1.145a.767.767 0 0 0-.767-.154ZM24.68 20.908c.896.19 1.65.635 2.18 1.287.206.254.493.784.578 1.069.141.475.144.547.145 3.23 0 2.834.011 2.68-.217 2.891a.798.798 0 0 1-.509.201.752.752 0 0 0-.643.37l-.068.128-.015 3.404-.014 3.404-.094.178a1.169 1.169 0 0 1-.553.502c-.141.061-.205.072-.427.072-.224 0-.287-.011-.439-.076a1.183 1.183 0 0 1-.554-.515l-.081-.162-.015-3.067-.014-3.067-.068-.128a.697.697 0 0 0-.408-.329c-.345-.109-.72.032-.879.329l-.068.128-.014 3.067-.015 3.067-.081.162c-.107.212-.33.42-.555.515-.152.065-.213.075-.438.075-.224 0-.286-.01-.438-.075a1.183 1.183 0 0 1-.555-.515l-.081-.162-.014-3.403-.015-3.404-.068-.128a.752.752 0 0 0-.643-.37c-.291 0-.59-.197-.68-.45-.044-.123-.047-.364-.038-2.768.01-2.883.002-2.728.185-3.239.323-.9 1.095-1.663 2.053-2.03.593-.227.843-.255 2.21-.246.946.007 1.168.016 1.35.055Zm8.447 7.393c0 .033-.236 2.038-.524 4.456-.339 2.846-.539 4.431-.567 4.494a.783.783 0 0 1-.346.335c-.167.083-.5.08-.689-.006a.981.981 0 0 1-.433-.4l-.068-.127-.008-4.406-.007-4.406h2.642v.06Zm-4.142 8.792c-.071.213-.335.455-.571.523a.854.854 0 0 1-.59-.034c-.107-.051-.328-.249-.328-.294 0-.011.02-.115.043-.231.037-.18.044-.657.044-3.222v-3.012l.152-.064a2.125 2.125 0 0 0 1.23-1.347c.021-.074.043-.171.047-.216.004-.044.01 1.681.015 3.834.007 3.624.004 3.926-.042 4.063Z" fill="#fff"/></svg>