<svg width="43" height="46" viewBox="0 0 43 46" fill="none" xmlns="http://www.w3.org/2000/svg"><path fill-rule="evenodd" clip-rule="evenodd" d="M15.996.043c-3.541.315-7.027 1.85-9.733 4.283C2.725 7.508.528 11.941.065 16.831c-.134 1.41-.053 3.934.168 5.257.347 2.08.861 3.683 1.788 5.575 2.596 5.303 7.453 8.937 13.062 9.773 1.227.182 3.559.181 4.846-.003a16.351 16.351 0 0 0 8.098-3.602l.687-.569.573.621 1.96 2.126a995.92 995.92 0 0 0 2.269 2.453c.485.521 1.544 1.664 2.353 2.54 4.529 4.903 4.35 4.72 4.759 4.88 1.378.54 2.712-.858 2.294-2.403-.093-.343-.242-.517-2.893-3.38l-3.069-3.318a2715.996 2715.996 0 0 0-3.75-4.05c-.415-.45-1.042-1.127-1.392-1.503l-.636-.684.32-.436c1.872-2.557 3.154-6.106 3.442-9.528.339-4.03-.406-7.627-2.326-11.232C29.851 4.151 24.781.658 19.16.074c-.812-.084-2.393-.1-3.163-.031Zm4.181 3.986c3.631.804 6.7 2.99 8.815 6.28 1.835 2.853 2.677 6.202 2.422 9.639-.288 3.898-1.697 7.03-4.38 9.74-1.675 1.691-3.102 2.626-5.085 3.331-1.667.593-2.366.703-4.44.7-1.597-.004-1.97-.03-2.731-.2C7.66 31.946 2.845 24.914 3.606 17.208 4.27 10.497 8.98 5.105 15.188 3.946c1.227-.23 3.77-.187 4.99.083Zm-2.962 5.866c-.484.064-.675.175-1.03.6-.458.55-.483.742-.483 3.697v2.683h-2.49c-2.75 0-2.973.031-3.435.491-.449.448-.581.768-.581 1.404 0 .893.428 1.532 1.204 1.798.188.065 1.141.098 2.79.098h2.504l.025 2.866c.025 2.848.026 2.867.226 3.196.411.679.835.939 1.53.939.61 0 1.104-.265 1.458-.782l.256-.373.024-2.923.025-2.923H21.8c2.789 0 2.934-.02 3.426-.5.924-.9.719-2.466-.407-3.105-.217-.123-.624-.147-2.917-.17l-2.664-.027-.024-2.918-.025-2.917-.253-.37c-.416-.606-.99-.86-1.721-.764Z" fill="#FAFAFA"/></svg>