<svg width="24" height="24" viewBox="0 0 24 24" fill="none" xmlns="http://www.w3.org/2000/svg"><path fill-rule="evenodd" clip-rule="evenodd" d="M11.168.015A12.05 12.05 0 0 0 4.31 2.778a17.3 17.3 0 0 0-1.533 1.536 11.984 11.984 0 0 0-2.752 6.91 12.036 12.036 0 0 0 2.072 7.553c.679.987 1.54 1.906 2.495 2.663a12.018 12.018 0 0 0 5.878 2.463c3.646.461 7.265-.742 9.866-3.28 1.417-1.382 2.405-2.937 3.03-4.77a12.026 12.026 0 0 0-1.484-10.669 11.58 11.58 0 0 0-1.534-1.802C18.424 1.498 15.963.346 13.226.05a18.165 18.165 0 0 0-2.057-.035Zm1.544 1.74c1.4.108 2.586.428 3.808 1.028a10.275 10.275 0 0 1 5.227 6 10.276 10.276 0 0 1-.218 7.023 10.275 10.275 0 0 1-8.12 6.358c-1.622.22-3.194.069-4.74-.459a10.3 10.3 0 0 1-6.196-5.897 10.292 10.292 0 0 1-.414-6.354 10.29 10.29 0 0 1 6.61-7.166c1.305-.446 2.736-.634 4.043-.533Zm-1.311.823c-1.341.107-2.49.416-3.591.967a9.414 9.414 0 0 0-5.23 8.696 9.272 9.272 0 0 0 .978 3.958 9.456 9.456 0 0 0 5.418 4.734c2.09.71 4.439.653 6.478-.156a9.438 9.438 0 0 0 5.67-6.392c.212-.806.293-1.462.293-2.389 0-.747-.03-1.091-.148-1.74-.477-2.606-2.085-4.931-4.383-6.335a12.075 12.075 0 0 0-1.395-.694 9.557 9.557 0 0 0-2.412-.604 15.863 15.863 0 0 0-1.678-.045Zm.896 3.357c.07.038.152.103.184.144.138.182.132.077.132 2.37v2.114l.141.072c.183.094.51.42.607.608l.073.14 2.77.007 2.769.006.12.074a.693.693 0 0 1 .29.428.642.642 0 0 1-.29.624l-.12.075-2.77.006-2.77.007-.072.14a1.705 1.705 0 0 1-.27.34c-.308.31-.658.458-1.09.458a1.38 1.38 0 0 1-.685-.16 1.238 1.238 0 0 1-.405-.298 1.428 1.428 0 0 1-.453-1.094c0-.449.137-.78.45-1.09.115-.114.258-.228.34-.27l.14-.073V6.32l.066-.13a.607.607 0 0 1 .843-.256Z" fill="#fff"/></svg>