<svg width="27" height="29" fill="none" xmlns="http://www.w3.org/2000/svg"><g clip-path="url(#a)"><path d="M23.955 2.824C23.25 2.16 20.391.049 14.02.02c0 0-7.513-.46-11.171 2.961C.812 5.055.095 8.096.018 11.862-.062 15.63-.156 22.686 6.522 24.6h.006l-.006 2.923s-.044 1.183.723 1.421c.923.295 1.468-.606 2.352-1.574a88.373 88.373 0 0 0 1.657-1.909c4.57.391 8.08-.504 8.48-.634.923-.306 6.144-.985 6.99-8.042.878-7.283-.423-11.882-2.77-13.96Zm.773 13.428c-.717 5.89-4.949 6.263-5.727 6.518-.334.108-3.42.89-7.296.634 0 0-2.891 3.551-3.792 4.474-.295.3-.617.272-.611-.322 0-.391.022-4.854.022-4.854-.006 0-.006 0 0 0-5.66-1.597-5.327-7.606-5.266-10.749.061-3.143.645-5.72 2.369-7.453 3.097-2.86 9.475-2.435 9.475-2.435 5.388.023 7.968 1.676 8.569 2.231 1.985 1.733 2.997 5.879 2.257 11.956ZM17 11.676c.022.487-.695.52-.717.034-.061-1.246-.634-1.852-1.813-1.92-.478-.029-.434-.76.039-.73 1.551.084 2.413.99 2.491 2.616Zm1.129.64c.055-2.402-1.418-4.282-4.215-4.491-.473-.034-.423-.765.05-.731 3.225.238 4.943 2.498 4.882 5.239-.005.487-.728.464-.717-.017Zm2.613.758c.006.488-.717.493-.717.006-.033-4.615-3.053-7.13-6.717-7.158-.473-.006-.473-.73 0-.73 4.098.027 7.395 2.91 7.434 7.883Zm-.628 5.556v.012c-.6 1.076-1.724 2.265-2.88 1.886l-.012-.017c-1.173-.335-3.936-1.784-5.682-3.2a14.649 14.649 0 0 1-2.358-2.402 18.41 18.41 0 0 1-1.713-2.639c-1.184-2.18-1.445-3.154-1.445-3.154-.373-1.178.79-2.322 1.851-2.934h.011c.512-.272 1.001-.181 1.33.221 0 0 .689.838.983 1.252.278.385.651 1.002.846 1.348.339.617.128 1.245-.206 1.506l-.667.544c-.34.277-.295.793-.295.793s.99 3.811 4.688 4.774c0 0 .505.045.778-.3l.534-.68c.256-.34.873-.555 1.479-.21.817.47 1.857 1.201 2.547 1.864.389.322.478.815.21 1.336Z" fill="#7845AA"/></g><defs><clipPath id="a"><path fill="#fff" d="M0 0h27v29H0z"/></clipPath></defs></svg>