<svg width="119" height="87" viewBox="0 0 119 87" fill="none" xmlns="http://www.w3.org/2000/svg"><g filter="url(#a)"><path fill-rule="evenodd" clip-rule="evenodd" d="M68.413.057c-.326.045-1.392.18-2.37.3-7.428.914-14.806 3.936-20.93 8.574-2.165 1.64-5.936 5.249-7.487 7.165l-1.139 1.407H1V90l36.667-.124c23.976-.08 37.351-.198 38.642-.338 21.425-2.331 37.988-19.743 39.578-41.604.704-9.668-1.909-19.727-7.203-27.737-2.027-3.067-3.645-5.034-6.247-7.598C95.815 6.075 87.49 1.882 78.283.436c-1.879-.295-8.614-.554-9.87-.38Zm1.837 14.658c-.064 8.126-.157 11.645-.311 11.801-.458.463-9.39-.593-14.061-1.661-3.144-.72-3.948-1.022-3.948-1.486 0-.502 1.685-4.681 2.775-6.882 2.66-5.373 6.704-9.929 10.58-11.921 1.254-.645 3.64-1.42 4.388-1.425l.668-.006-.091 11.58Zm5.1-11.158c4.13 1.289 7.68 4.257 10.833 9.057 1.993 3.034 4.033 7.251 4.947 10.225.326 1.06.346 1.048-2.916 1.843-4.11 1.003-9.389 1.75-13.09 1.851l-1.776.05-.052-11.475c-.028-6.31-.008-11.586.044-11.723.13-.343.444-.316 2.01.172Zm11.666 2.397c3.798 1.509 7.839 3.982 11.33 6.936 2.191 1.852 4.908 4.73 4.908 5.197 0 .175-.2.446-.444.602-2.055 1.317-6.911 3.703-7.973 3.918-.659.133-.75.001-1.462-2.137-1.292-3.877-4.779-9.913-7.68-13.295-.778-.906-1.359-1.736-1.292-1.846.153-.25.795-.096 2.612.625ZM58.64 5.6c0 .148-.541.89-1.204 1.646-3.096 3.54-6.172 9.01-7.98 14.19-.2.573-.483 1.087-.628 1.143-.36.14-1.837-.465-4.946-2.025-2.66-1.335-3.6-1.996-3.6-2.532 0-.684 2.725-3.502 5.823-6.023 2.71-2.206 5.923-4.142 9.46-5.7C57.8 5.312 58.64 5.121 58.64 5.6ZM37.914 53.72v33.824H26.465V71.98H14.818v15.564H3.35l.06-33.574c.032-18.465.13-33.686.218-33.823.126-.196 3.79-.25 17.223-.25h17.064v33.824Zm68.45-31.627c1.41 2.114 3.703 6.949 4.561 9.616 1.186 3.685 1.803 6.95 1.942 10.288l.118 2.844h-7.506c-5.768 0-7.552-.058-7.705-.25-.11-.137-.26-1.416-.334-2.843-.261-5.014-.87-9.522-1.965-14.567-.148-.682-.187-1.292-.09-1.417.093-.12.77-.472 1.502-.782 1.865-.787 5.664-2.733 6.959-3.563.598-.383 1.214-.68 1.37-.66.156.02.673.62 1.148 1.334Zm-63.758 1.071c.948.48 2.51 1.213 3.47 1.628.96.416 1.785.863 1.835.994.05.131-.131 1.217-.403 2.413a73.726 73.726 0 0 0-1.517 9.458c-.136 1.482-.332 2.806-.435 2.944-.134.176-.93.249-2.73.249h-2.543v-9.146c0-5.03.06-9.206.132-9.279.223-.225.412-.161 2.191.74Zm-35.29 1.722v1.197h3.357V23.69H7.317v1.197Zm7.7 0v1.197h3.553V23.69h-3.554v1.197Zm7.896 0v1.197h3.355V23.69h-3.355v1.197Zm7.83-1.064c-.073.073-.132.612-.132 1.197v1.064h3.553V23.69H32.52c-.905 0-1.705.06-1.777.133Zm23.4 3.64c4.305 1.066 9.325 1.827 14.024 2.126l2.122.135V40.85H48.771l.002-.848c.005-2.17.956-8.658 1.705-11.624.336-1.33.6-1.763.981-1.615.14.054 1.348.37 2.683.7Zm38.228-.231c1.023 1.944 2.708 16.45 2.01 17.3-.224.273-1.508.31-10.693.31H73.25v-7.267c0-3.997-.05-7.4-.111-7.56-.092-.243.275-.317 2.122-.432 4.56-.283 11.66-1.406 15.064-2.382 1.35-.387 1.83-.38 2.046.03ZM7.317 31.545v1.323h1.06c.584 0 1.34-.056 1.679-.125.599-.12.617-.155.617-1.197v-1.073l-.938-.002a12.597 12.597 0 0 1-1.678-.126l-.74-.123v1.323Zm15.595.026v1.297h3.355v-2.594h-3.355v1.297Zm7.779-1.022c-.057.15-.077.712-.043 1.247l.061.972 1.727.058 1.727.058v-2.61H32.48c-1.249 0-1.712.071-1.789.275ZM15.016 31.67v1.197h1.16c.637 0 1.437-.056 1.776-.125.599-.12.617-.155.617-1.197v-1.073h-3.554v1.198Zm-7.7 6.585v1.197h3.357V37.06H7.317v1.197Zm7.7-.008v1.205h3.573l-.06-1.147-.059-1.148-1.727-.057-1.727-.058v1.205Zm7.896.008v1.197h3.355V37.06h-3.355v1.197Zm7.698 0v1.197h3.553V37.06H30.61v1.197Zm39.63 27.088-.05 22.1-14.954.052-14.953.05V65.783c0-14.622.067-21.892.204-22.152.2-.376.574-.386 15.004-.386H70.29l-.05 22.1ZM7.317 44.933v1.305h3.374l-.058-1.247-.059-1.248-1.629-.058-1.628-.058v1.306Zm7.698.008v1.297h3.554v-1.176c0-1.396-.034-1.418-2.09-1.418h-1.463v1.297Zm7.897-.008v1.305h3.374l-.058-1.247-.06-1.248-1.628-.058-1.628-.058v1.306Zm7.896.008v1.297h3.356v-2.594h-3.356v1.297Zm15.99 5.288v2.793h2.17v-5.587h-2.172v2.794Zm7.55-2.662c-.18.074-.247.823-.247 2.778v2.677h2.369v-5.587l-.938.016c-.515.008-1.048.06-1.184.116Zm7.197-.008c-.077.078-.14 1.34-.14 2.803v2.66h2.577l-.055-2.743-.054-2.744-1.094-.059c-.602-.032-1.157.005-1.234.083Zm32.77.498c.234.236.214.648-.247 5.178-.251 2.47-1.011 6.957-1.492 8.817-.241.931-.323.934-3.498.15-4.316-1.065-8.387-1.674-14.102-2.11l-1.727-.133V47.834h10.423c7.407 0 10.487.065 10.643.223Zm18.533.03c.203.206-.424 4.383-1.013 6.747a44.087 44.087 0 0 1-3.059 8.465c-1.274 2.627-2.997 5.44-3.437 5.61-.154.06-1.047-.349-1.985-.908-2.189-1.307-3.973-2.213-6.153-3.123-1.83-.765-2.035-.919-1.923-1.451l.557-2.622c.552-2.6 1.21-6.951 1.389-9.18.066-.823.17-2.016.233-2.652l.113-1.156 7.564.058c4.16.033 7.631.127 7.714.212ZM7.317 51.625v1.198h3.356v-2.395H7.317v1.198Zm7.698-.007v1.205h3.574l-.06-1.148-.059-1.147-1.727-.058-1.727-.057v1.205Zm7.897.008v1.197h3.355v-2.395h-3.355v1.198Zm7.698 0v1.197h3.553v-2.395H30.61v1.198ZM7.317 58.41v1.198h3.356v-2.395H7.317v1.197Zm7.698.008v1.205l1.728-.058 1.727-.057.06-1.148.058-1.147h-3.573v1.205Zm7.897-.008v1.198h3.355v-2.395h-3.355v1.197Zm7.698 0v1.198h3.553v-2.395H30.61v1.197Zm16.187 1.996v2.793h2.172v-5.587h-2.172v2.794Zm7.436-2.66c-.073.072-.132 1.33-.132 2.793v2.66h2.369v-5.587h-1.053c-.579 0-1.112.06-1.184.133Zm7.172 2.66v2.793h2.566v-5.587h-2.566v2.794Zm17.075 3.017c5.333.502 12.551 2.004 12.802 2.665.134.354-2.05 5.8-3.163 7.887-2.073 3.885-5.014 7.518-7.74 9.56-1.637 1.228-4.25 2.507-5.896 2.89l-1.234.286V74.988c0-6.447.063-11.786.14-11.863.138-.14.907-.095 5.091.298ZM7.317 64.995v1.197h3.356v-2.394H7.317v1.197Zm7.698 0v1.197h3.554v-2.394h-3.554v1.197Zm7.897 0v1.197h3.355v-2.394h-3.355v1.197Zm7.698 0v1.197h3.553v-2.394H30.61v1.197Zm65.143 2.408c1.542.585 5.25 2.449 6.413 3.224.542.361 1.013.805 1.047.986.084.442-3.081 3.767-5.36 5.631a42.878 42.878 0 0 1-8.458 5.401c-3.393 1.64-4.608 2.075-4.92 1.76-.18-.182.034-.54.932-1.558 3.248-3.681 6.357-9.022 8.065-13.854.508-1.437.81-2.002 1.071-2.002.069 0 .613.185 1.21.412Zm-48.956 2.98v2.794h2.172v-5.588h-2.172v2.794Zm7.304 0v2.794h2.369v-5.588H54.1v2.794Zm7.399-2.345c-.061.247-.085 1.482-.054 2.744l.058 2.295 1.064.061c.586.034 1.145-.02 1.243-.119.102-.103.12-1.303.04-2.805l-.136-2.625h-1.053c-.927 0-1.065.054-1.162.45ZM24.096 80.96v6.585h-6.909v-13.17h6.909v6.585Zm22.701-.499v2.694h2.172v-5.388h-2.172v2.694Zm7.304 0v2.694h2.369v-5.388H54.1v2.694Zm7.304 0v2.694h2.566v-5.388h-2.566v2.694Z" fill="#3D5F95"/></g><defs><filter id="a" x="0" y="0" width="119" height="96" filterUnits="userSpaceOnUse" color-interpolation-filters="sRGB"><feFlood flood-opacity="0" result="BackgroundImageFix"/><feColorMatrix in="SourceAlpha" values="0 0 0 0 0 0 0 0 0 0 0 0 0 0 0 0 0 0 127 0" result="hardAlpha"/><feOffset dx="1" dy="4"/><feGaussianBlur stdDeviation="1"/><feComposite in2="hardAlpha" operator="out"/><feColorMatrix values="0 0 0 0 0 0 0 0 0 0 0 0 0 0 0 0 0 0 0.25 0"/><feBlend in2="BackgroundImageFix" result="effect1_dropShadow_482_9357"/><feBlend in="SourceGraphic" in2="effect1_dropShadow_482_9357" result="shape"/></filter></defs></svg>