<svg width="45" height="44" viewBox="0 0 45 44" fill="none" xmlns="http://www.w3.org/2000/svg"><path fill-rule="evenodd" clip-rule="evenodd" d="M10.313.019c-.6.064-1.264.325-1.787.702C8.363.84 7.303 1.92 4.753 4.567c-3.038 3.154-3.57 3.72-3.714 3.95a3.96 3.96 0 0 0-.475 1.018C.366 10.177.38 8.904.38 26.16c0 14.241.004 15.734.048 15.953.186.933.887 1.657 1.786 1.844.217.046.99.05 8.038.037l7.89-.014 12.46.013c8.302.01 12.426.003 12.538-.019.604-.115 1.105-.65 1.212-1.295.055-.328.022-2.607-.042-2.916-.217-1.048-.789-1.945-1.592-2.5-.187-.129-1.36-.75-3.316-1.759a421.64 421.64 0 0 1-3.042-1.575c-.009-.009.036-.11.099-.227.273-.504.643-1.346.848-1.928.042-.12.081-.165.225-.257.645-.413 1.144-1.281 1.374-2.387.053-.256.067-.43.068-.841.003-.602-.04-.838-.226-1.242-.183-.401-.411-.633-.774-.786l-.175-.073-.07-.325a9.472 9.472 0 0 0-.147-.587 1.685 1.685 0 0 1-.069-.273c.006-.006.106.018.222.054.187.057.232.06.386.027a.736.736 0 0 0 .513-.407c.109-.216.11-.405.007-.83-.387-1.585-1.082-2.877-2.091-3.889-.354-.354-.826-.739-1.145-.933l-.198-.12v-8.361c-.001-5.685-.012-8.427-.033-8.566-.122-.783-.658-1.49-1.36-1.795-.46-.2.467-.186-12.03-.18-6.25.002-11.413.01-11.471.016Zm22.88 1.602a.802.802 0 0 1 .449.467c.046.14.05.788.05 8.144v7.991l-.144-.045a11.58 11.58 0 0 0-1.265-.268c-.419-.058-2.202-.057-2.574 0-1.035.163-1.872.44-2.589.856-.162.095-.248.122-.494.153-1.577.204-2.766 1.426-3.106 3.193-.103.535-.134.944-.133 1.776 0 .62.015.93.066 1.367.113.982.11.924.045.946-.714.25-1.103.882-1.153 1.871-.07 1.403.624 3.006 1.51 3.487.084.046.123.096.163.21.249.7.55 1.385.833 1.9a1.9 1.9 0 0 1 .145.292c-.006.005-1.37.71-3.032 1.567-1.661.857-3.112 1.621-3.225 1.699-.824.569-1.378 1.405-1.62 2.441-.055.24-.063.395-.075 1.517l-.014 1.25-7.303-.008-7.303-.008-.143-.088a.77.77 0 0 1-.34-.43c-.042-.12-.047-1.836-.047-15.518V11h3.514c3.096 0 3.542-.006 3.748-.05.838-.18 1.493-.817 1.754-1.707.047-.162.053-.494.061-3.925l.01-3.749h11.032c10.19 0 11.043.004 11.18.052ZM9.464 5.367c0 3.812.014 3.577-.226 3.826-.24.25-.014.235-3.688.235H2.284l.053-.093c.07-.122 7.043-7.357 7.09-7.357.03 0 .038.739.038 3.39Zm-1.007 8.821a.794.794 0 0 0-.408.357.85.85 0 0 0-.007.746.812.812 0 0 0 .446.391c.076.022 1.889.033 5.52.033 6.074 0 5.583.02 5.83-.236a.79.79 0 0 0-.288-1.288c-.115-.042-.777-.048-5.555-.046-4.452 0-5.445.008-5.538.043Zm13.627 0a.794.794 0 0 0-.408.357.85.85 0 0 0-.006.746.811.811 0 0 0 .446.391c.07.02.71.033 1.735.033 1.836 0 1.814.002 2.043-.236a.79.79 0 0 0-.287-1.288c-.182-.067-3.344-.07-3.523-.003ZM8.458 17.331a.795.795 0 0 0-.408.357.85.85 0 0 0-.007.746.811.811 0 0 0 .446.391c.076.022 2.124.033 6.278.033 6.922 0 6.338.021 6.586-.235a.79.79 0 0 0-.288-1.289c-.115-.042-.857-.047-6.312-.046-5.085.001-6.202.009-6.295.043Zm23.531 2.126c1.856.21 3.314 1.092 4.283 2.592.19.294.6 1.127.6 1.22 0 .035-.025.053-.07.053-.1 0-.35.092-.476.174-.244.16-.4.382-.471.675-.074.3-.042.541.153 1.159.202.639.277.959.32 1.37.074.725.122.852.386 1.025.2.133.35.169.546.132.138-.026.165-.023.182.02.043.108.019.773-.037 1.025-.145.653-.513 1.304-.736 1.304-.128 0-.39.145-.492.274-.057.073-.147.29-.258.627-.68 2.06-1.907 3.821-3.288 4.716-1.425.923-2.882.834-4.315-.264-.37-.283-1.064-1.014-1.384-1.455a10.965 10.965 0 0 1-1.572-3.121c-.094-.294-.158-.438-.235-.531-.114-.138-.301-.244-.434-.245-.242-.002-.624-.644-.763-1.286a3.1 3.1 0 0 1-.065-.893l.02-.177.192.019c.252.024.372-.002.544-.12.194-.134.312-.352.335-.622.01-.114.04-.391.067-.616.049-.405.048-.42-.03-1.163-.106-1.01-.123-1.439-.083-2.074.074-1.152.311-1.81.828-2.295.316-.298.856-.518 1.266-.518.279 0 .462-.056.685-.209.531-.364 1.342-.65 2.22-.783.322-.049 1.688-.057 2.082-.013Zm-23.531 2.59a.795.795 0 0 0-.408.357.85.85 0 0 0-.007.745.811.811 0 0 0 .446.392c.076.021 1.889.032 5.52.032 6.074 0 5.583.02 5.83-.235a.79.79 0 0 0-.288-1.289c-.115-.041-.777-.047-5.555-.046-4.452.001-5.445.01-5.538.044Zm19.09.034a1.275 1.275 0 0 0-.587.356c-.183.196-1.013 1.52-1.055 1.682-.189.728.675 1.292 1.21.79.063-.059.27-.352.46-.65l.353-.557c.005-.007.228.096.495.23 1.39.693 2.673 1.047 4.162 1.15.504.034 1.844.042 2.022.011a.963.963 0 0 0 .272-.117c.485-.302.47-1.023-.03-1.345-.112-.072-.133-.074-1.204-.094a22.93 22.93 0 0 1-1.378-.055c-1.24-.152-2.126-.432-3.422-1.08a11.51 11.51 0 0 0-.633-.302 1.317 1.317 0 0 0-.666-.019Zm-19.09 3.11a.794.794 0 0 0-.408.356.85.85 0 0 0-.007.746.812.812 0 0 0 .446.391c.075.022 1.418.033 4.006.033 4.377 0 4.072.017 4.315-.236a.79.79 0 0 0-.287-1.288c-.114-.042-.618-.048-4.041-.046-3.188 0-3.931.009-4.024.043Zm30.207 11.692c3.426 1.769 3.397 1.752 3.692 2.148.186.249.254.372.347.624.141.387.161.603.163 1.734v1.045h-9.312l-.45-2.334-.464-2.418c-.015-.08.001-.093.266-.231.638-.333 1.159-.726 1.747-1.318.222-.223.494-.517.604-.652.11-.135.204-.245.21-.245.004 0 1.443.74 3.197 1.647Zm-12.677-1.498c.183.25.891.973 1.239 1.263.399.333.765.58 1.194.803.263.138.28.151.265.23l-.465 2.42-.45 2.333h-9.224l.011-1.17c.013-1.309.018-1.344.234-1.8.143-.304.349-.574.593-.78.139-.12.903-.529 3.328-1.786a335.03 335.03 0 0 1 3.169-1.63c.011 0 .06.052.107.117Zm-22.073.806a.808.808 0 0 0-.408.358l-.084.148-.009.944c-.007.665.001.982.027 1.078.154.57.85.758 1.254.338.213-.222.227-.303.227-1.336 0-.521-.013-.947-.031-1.015a.827.827 0 0 0-.374-.46c-.176-.095-.437-.119-.602-.056Zm3.786 0a.808.808 0 0 0-.408.358l-.084.148-.01.944c-.006.665.002.982.027 1.078.154.57.85.758 1.255.338.213-.222.227-.303.227-1.336 0-.521-.014-.947-.032-1.015a.827.827 0 0 0-.373-.46c-.176-.095-.438-.119-.602-.056Zm3.785 0a.807.807 0 0 0-.408.358l-.084.148-.01.944c-.006.665.002.982.028 1.078.154.57.85.758 1.254.338.213-.222.227-.303.227-1.336 0-.521-.013-.947-.031-1.015a.827.827 0 0 0-.374-.46c-.176-.095-.438-.119-.602-.056Zm3.786 0a.808.808 0 0 0-.408.358l-.084.148-.01.944c-.006.665.002.982.027 1.078.154.57.85.758 1.255.338.213-.222.227-.303.227-1.336 0-.521-.014-.947-.032-1.015a.827.827 0 0 0-.373-.46c-.177-.095-.438-.119-.602-.056Zm16.355 4.255a178.9 178.9 0 0 1 .37 1.965c0 .013-.6.023-1.334.023-.733 0-1.333-.01-1.334-.023 0-.013.166-.897.371-1.965l.372-1.941h1.182l.372 1.941Z" fill="#fff"/></svg>