<svg width="89" height="87" fill="none" xmlns="http://www.w3.org/2000/svg"><g filter="url(#a)"><path fill-rule="evenodd" clip-rule="evenodd" d="M54.773.201c-4.69.582-9.092 2.354-12.976 5.224-.608.45-1.862 1.553-2.786 2.452l-1.68 1.635 1.149.985 1.148.985 1.718-1.657c1.94-1.873 3.675-3.121 5.848-4.21C56.682.855 67.88 2.741 75.206 10.33c1.482 1.536 2.08 2.292 3.108 3.926 4.314 6.86 4.831 15.566 1.367 22.986-1.955 4.187-5.46 8.01-9.572 10.44-5.205 3.076-11.884 4.062-17.695 2.612-4.042-1.009-7.727-2.962-10.52-5.576l-.86-.806-1.056 1.066-1.056 1.067.884.812c4.308 3.955 9.68 6.364 15.578 6.986 6.535.689 13.307-1.199 18.699-5.212 5.148-3.83 8.718-9.303 10.188-15.613 1.802-7.738.064-15.874-4.774-22.342-1.123-1.501-3.825-4.202-5.26-5.256C68.498 1.2 61.61-.646 54.774.2Zm-.136 6.07c-2.317.358-5.396 1.478-7.373 2.68l-.441.27.747 1.17c.41.645.772 1.198.802 1.23.03.033.736-.275 1.57-.682 3.33-1.63 6.502-2.207 10.032-1.823 7.89.857 14.075 6.625 15.759 14.697.237 1.136.234 5.027-.004 6.272-.774 4.033-2.772 7.65-5.642 10.213-2.745 2.45-6.172 4.043-9.758 4.535-4.112.564-8.764-.523-12.232-2.858-.549-.37-1.056-.673-1.127-.673-.137 0-1.781 2.09-1.781 2.264 0 .168 2.332 1.635 3.648 2.295 2.615 1.31 5.122 1.92 8.37 2.034 2.924.103 4.758-.144 7.315-.984 9.79-3.218 15.712-12.864 14.2-23.13-1.314-8.923-8.587-16.203-17.502-17.518-1.929-.285-4.705-.28-6.583.009Zm-35.475 1.4c-4.662.849-8.083 2.45-11.133 5.214-3.097 2.806-5.238 6.327-6.286 10.337-.447 1.707-.639 3.551-.642 6.15-.002 2.593 0 2.612.38 3.063.21.25.503.454.652.454.442 0 .688.374.797 1.208.32 2.456 1.582 5.945 3.008 8.312 1.017 1.688 2.559 3.602 4.09 5.079l1.54 1.484v5.44l-6.082 2.023c-3.346 1.113-6.283 2.114-6.527 2.226-.244.112-.537.353-.652.536-.12.192-.316 1.355-.464 2.767-.142 1.34-.43 4.096-.643 6.125-.212 2.03-.58 5.516-.818 7.748l-.907 8.526L-5 88.831l.299.403c.164.221.458.485.653.585.279.143 9.543.182 43.486.181 41.67-.001 43.151-.01 43.721-.274a3.8 3.8 0 0 0 .987-.698c.89-.95.856-.424.853-13.297-.003-11.105-.019-11.808-.274-12.365a3.311 3.311 0 0 0-1.558-1.61c-.445-.21-2.348-.235-18.702-.235H46.258l-.093-.461a5.169 5.169 0 0 1-.092-.826c0-.725-.424-1.326-1.153-1.632-.38-.16-3.328-1.168-6.551-2.24l-5.862-1.95v-5.41l1.814-1.82c2.11-2.118 3.448-3.963 4.666-6.433 1.244-2.525 2-5.064 2.293-7.712.16-1.434.222-1.624.54-1.624.162 0 .489-.194.726-.431l.43-.431v-1.893c-.003-5.934-2.16-11.115-6.317-15.17-1.666-1.624-2.872-2.495-5.278-3.81-1.38-.754-3.844-1.519-6.32-1.962-1.304-.233-4.719-.26-5.899-.044Zm6.186 3.156c6.598 1.154 12.189 6.283 13.992 12.838.362 1.317.688 3.355.688 4.304v.493h-2.56c-2.988 0-3.772-.12-5.205-.8-2.286-1.085-4.17-3.872-4.178-6.178-.003-.87-.354-1.544-.952-1.83-.506-.241-.58-.236-2.256.167-7.319 1.761-13.739 4.4-19.502 8.014-1.043.654-1.262.743-1.306.531-.03-.14.028-.99.127-1.887.743-6.734 5.235-12.468 11.663-14.889 2.848-1.072 6.183-1.34 9.489-.763Zm31.195 1.179v1.55h2.949v-3.1h-2.949v1.55Zm6.93 10.12a767.841 767.841 0 0 1-4.826 2.774l-.771.43-3.248-1.312c-1.787-.722-3.331-1.31-3.432-1.309-.164.003-1.146 2.23-1.138 2.583.001.08 1.734.832 3.85 1.674 2.964 1.178 3.953 1.511 4.31 1.451.254-.042 1.359-.592 2.454-1.22a1018.5 1018.5 0 0 1 6.635-3.782c.852-.48 1.628-.953 1.725-1.05.137-.136.02-.449-.516-1.392-.381-.67-.759-1.21-.84-1.204-.081.007-1.972 1.067-4.203 2.357Zm-38.068 1.48c.36 1.559 1.691 3.866 2.852 4.94.785.728 1.955 1.498 2.98 1.964 1.503.681 2.759.903 5.114.903h2.089l-.098.997c-.461 4.717-2.643 9.243-6.09 12.633-2.202 2.166-4.193 3.323-6.907 4.015-1.182.301-1.82.373-3.307.373-4.366 0-8.023-1.774-11.245-5.456C7.962 40.74 6.112 36.46 5.746 32.3l-.097-1.107 1.227-.756c3.999-2.465 8.284-4.496 12.508-5.927 1.515-.513 5.374-1.63 5.688-1.647.088-.005.237.33.333.744Zm46.031 3.38v1.476h3.097V25.51h-3.097v1.476Zm-14.893 14.98v1.55h2.949v-3.1h-2.949v1.55ZM15.24 51.035c2.008 1.025 5.685 1.603 8.444 1.327 1.666-.167 4.108-.794 5.14-1.32.302-.155.591-.24.642-.19.05.05.092 1.576.092 3.389v3.296l-3.76 1.88-3.76 1.88-3.76-1.88-3.76-1.88v-3.395c0-1.867.035-3.395.079-3.395s.333.13.643.288ZM11.568 72.37v14.687l-6.672-.039c-6.575-.037-6.672-.042-6.637-.333.02-.163.239-2.255.488-4.65.248-2.394.65-6.246.892-8.56l.858-8.234c.23-2.215.45-4.06.49-4.1.121-.121 10.045-3.433 10.323-3.446.244-.01.258.782.258 14.675Zm26.416-12.982 5.109 1.705.09.62c.05.34.291 2.546.536 4.9.245 2.354.64 6.14.88 8.412.984 9.339 1.176 11.236 1.178 11.624l.001.408-6.598-.039-6.599-.038-.038-14.648c-.03-11.669 0-14.648.148-14.648.102 0 2.484.767 5.293 1.704Zm-21.57 2.467c1.645.827 1.668.845 1.253 1.008-.37.146-3.017 1.01-3.113 1.017-.02.001-.037-.667-.037-1.486 0-.818.05-1.464.111-1.434l1.786.895Zm13.144.65c0 1.107-.042 1.393-.195 1.334A54.68 54.68 0 0 0 28 63.393c-2.274-.723-2.242-.576-.335-1.547.92-.469 1.723-.829 1.784-.801.06.028.11.685.11 1.46Zm51.315 2.028c0 .034-.946 1.71-2.103 3.727l-2.103 3.666-4.827.039-4.828.039v-.792c0-.435-.071-.996-.158-1.247-.313-.898-.421-.917-5.156-.917h-4.293l-.431.431c-.395.396-.431.519-.431 1.476V72H47.31l-.33-3.063a500.295 500.295 0 0 0-.417-3.763l-.085-.701h17.197c9.46 0 17.198.027 17.198.06Zm-61.047.874c0 .026-.192.74-.427 1.586-.234.846-.67 2.435-.969 3.531a927.882 927.882 0 0 1-.89 3.247c-1.19 4.29-1.42 5.214-1.423 5.714-.002.422.415 1.394 1.705 3.973.94 1.878 1.709 3.455 1.709 3.505 0 .05-1.129.09-2.508.09h-2.508l.038-9.987.038-9.988 2.433-.844c2.285-.791 2.802-.944 2.802-.827Zm7.152.816 2.506.857v19.9l-2.47.04c-1.358.023-2.47-.01-2.468-.073 0-.063.77-1.642 1.709-3.51 1.191-2.366 1.71-3.552 1.715-3.916.003-.287-.164-1.117-.372-1.845-.208-.727-.62-2.219-.915-3.315a585.44 585.44 0 0 0-.885-3.247c-.191-.69-.59-2.15-.886-3.247a712.47 712.47 0 0 0-.61-2.25c-.04-.142-.018-.257.048-.255.066.002 1.249.39 2.628.86Zm-3.455 7.881 1.41 5.201-1.409 2.841c-.775 1.563-1.444 2.841-1.486 2.841-.043 0-.715-1.278-1.494-2.84l-1.416-2.842.322-1.107c.177-.608.815-2.949 1.418-5.2.603-2.252 1.13-4.094 1.17-4.095.04 0 .708 2.34 1.485 5.201Zm58.494 3.836-.038 9.04-16.535.037-16.535.038-.09-.628c-.05-.345-.29-2.587-.535-4.982a536.5 536.5 0 0 0-.565-5.364c-.084-.7-.072-1.029.04-1.072.089-.034 2.085-.044 4.436-.023l4.274.04.074 1.067c.063.916.131 1.124.482 1.475l.409.41 3.941.047c2.603.031 4.13-.008 4.495-.117.743-.22 1.053-.74 1.142-1.916l.074-.967 5.235-.073c5.585-.079 5.536-.073 6.377-.858.224-.208 1.02-1.46 1.77-2.782.75-1.323 1.414-2.406 1.476-2.408.061-.002.094 4.065.073 9.036Zm-17.985-4.427.042 1.439h-4.582v-2.96l2.249.04 2.248.042.043 1.439Z" fill="#3D5F95"/></g><defs><filter id="a" x="-9" y="0" width="98" height="98" filterUnits="userSpaceOnUse" color-interpolation-filters="sRGB"><feFlood flood-opacity="0" result="BackgroundImageFix"/><feColorMatrix in="SourceAlpha" values="0 0 0 0 0 0 0 0 0 0 0 0 0 0 0 0 0 0 127 0" result="hardAlpha"/><feOffset dy="4"/><feGaussianBlur stdDeviation="2"/><feComposite in2="hardAlpha" operator="out"/><feColorMatrix values="0 0 0 0 0 0 0 0 0 0 0 0 0 0 0 0 0 0 0.25 0"/><feBlend in2="BackgroundImageFix" result="effect1_dropShadow_274_10054"/><feBlend in="SourceGraphic" in2="effect1_dropShadow_274_10054" result="shape"/></filter></defs></svg>