<svg width="44" height="47" viewBox="0 0 44 47" fill="none" xmlns="http://www.w3.org/2000/svg"><path fill-rule="evenodd" clip-rule="evenodd" d="M26.981 34.376c-.386.887-.582 1.882-.582 3.043 0 .506.108 1.089.279 1.659.19.636.456 1.251.735 1.726.16.27.317.516.496.755.176.235.369.46.6.688.259.257.479.461.712.644.233.182.483.347.803.527.131.074.241.123.353.173.07.031.141.063.208.096.36.174.863.358 1.403.49.444.108.914.18 1.35.18.487 0 1.104-.042 1.677-.139.455-.076.88-.187 1.188-.339.19-.093.331-.16.445-.215.436-.209.473-.227 1.25-.746.253-.17.447-.373.654-.589.073-.076.148-.154.23-.237.591-.587.656-.702.898-1.137.066-.118.144-.257.237-.418a3.522 3.522 0 0 0 .265-.537c.46-1.16.633-2.403.514-3.602a6.873 6.873 0 0 0-1.194-3.274 7.31 7.31 0 0 0-.827-.968 6.378 6.378 0 0 0-.933-.773l-.198-.136a6.035 6.035 0 0 0-1.217-.666 9.057 9.057 0 0 0-.926-.309c-.99-.283-2.067-.312-3.096-.128-1.056.189-2.059.601-2.863 1.193a9.18 9.18 0 0 0-.262.2 4.42 4.42 0 0 0-.237.197 1.09 1.09 0 0 0-.116.113c-.024.028-.051.06-.107.113-.77.742-1.351 1.528-1.739 2.416Zm-15.44.61c-.584-.092-1.016-.16-1.016-.881 0-.175.043-.325.12-.45.142-.23.389-.358.698-.397.272-.035.597 0 .939.095a4.46 4.46 0 0 1 1.894 1.108l.12.123.141.156c.027.03.044.048.086.1.032.04.04.048.044.052.028.032.044.058.069.094.06.088.119.193.172.299.063.126.118.258.16.367.09.237.29.777.331 1.268.05.594-.114 1.114-.844 1.114-.733 0-.8-.454-.878-.988a4.058 4.058 0 0 0-.057-.33 2.113 2.113 0 0 0-.233-.581 3.245 3.245 0 0 0-.373-.511c-.427-.488-.953-.572-1.372-.638Zm25.956 2.015c0 .743 0 1.033-.923 1.033-.568 0-.641-.378-.746-.92-.097-.5-.23-1.187-1.004-1.747-.365-.264-.779-.328-1.1-.378-.198-.03-.366-.057-.5-.119a.76.76 0 0 1-.431-.491.903.903 0 0 1-.006-.452c.034-.144.1-.28.186-.39.132-.168.315-.279.518-.279.627 0 1.164.107 1.651.319.486.21.917.523 1.333.933a.429.429 0 0 1 .042.042c.26.266.506.685.686 1.126.178.438.295.907.295 1.278v.045ZM9.552 41.56c.559.224 1.211.33 2.05.33.2 0 .473-.035.74-.092.264-.055.52-.13.696-.209.066-.029.135-.07.207-.111.052-.03.106-.062.179-.1l.187-.098c.398-.205.494-.255.87-.608a5.686 5.686 0 0 0 1.205-1.68 3.965 3.965 0 0 0 .285-.872 11.047 11.047 0 0 0 .103-.991 5.764 5.764 0 0 0-.145-1.025 4.41 4.41 0 0 0-.306-.886 4.862 4.862 0 0 0-2.608-2.41c-1.037-.402-2.247-.445-3.474.055a4.569 4.569 0 0 0-1.364.887 4.667 4.667 0 0 0-.994 1.304c-.476.95-.627 1.945-.48 2.883.15.946.607 1.839 1.344 2.576.48.479.951.824 1.505 1.047Zm4.077 1.647c-.697.257-1.46.376-2.334.376a6.651 6.651 0 0 1-1.976-.296 5.55 5.55 0 0 1-1.687-.85c-.579-.436-1.003-.833-1.353-1.291-.35-.458-.62-.972-.893-1.645a6.52 6.52 0 0 1-.444-2.215c-.021-.743.08-1.491.322-2.14.489-1.303 1.301-2.415 2.357-3.188a6.012 6.012 0 0 1 3.597-1.166c1.39 0 1.705.132 2.64.524l.234.098a5.1 5.1 0 0 1 1.167.691c.391.305.743.66 1.045 1.031a6.94 6.94 0 0 1 .968 1.615c.234.549.397 1.128.439 1.682.094 1.235-.028 2.24-.383 3.134-.356.894-.941 1.666-1.774 2.433-.599.553-1.226.949-1.925 1.207Zm15.485-7.418a5.067 5.067 0 0 0-.248 1.476c0 .513.181 1.21.459 1.847.26.6.6 1.138.947 1.409l.09.07c.098.076.134.103.26.22l.284.243a4.27 4.27 0 0 0 2.191.811 4.999 4.999 0 0 0 2.459-.417c.48-.214.91-.514 1.282-.877.383-.374.702-.816.945-1.301a4.564 4.564 0 0 0 .422-2.934c-.188-.974-.703-1.896-1.509-2.65-.06-.057-.073-.073-.083-.084a1.53 1.53 0 0 0-.32-.226l-.09-.052a9.553 9.553 0 0 1-.236-.143 3.844 3.844 0 0 0-.478-.265 4.649 4.649 0 0 0-3.14-.257 4.727 4.727 0 0 0-2.604 1.809c-.254.353-.474.823-.631 1.321Zm-1.788 2.77a6.447 6.447 0 0 1-.153-1.449c0-.4.068-.89.172-1.354.111-.496.264-.966.416-1.268.347-.685.757-1.306 1.264-1.835a5.547 5.547 0 0 1 1.854-1.282c1.02-.434 1.912-.615 2.8-.588.883.026 1.754.259 2.74.652.275.11.565.29.842.495.36.268.7.58.959.837l.102.099c.107.101.213.203.299.318.183.244.444.704.606.98.06.111.099.2.14.295.028.062.056.126.086.189a5.74 5.74 0 0 1 .483 3.51c-.216 1.246-.814 2.44-1.676 3.462-.137.162-.485.44-.847.7-.38.273-.787.532-.99.618-.752.318-1.167.478-1.599.56-.435.084-.863.085-1.641.085-.803 0-1.67-.25-2.458-.65-.829-.42-1.576-1.007-2.072-1.64a2.216 2.216 0 0 0-.146-.169 2.31 2.31 0 0 1-.177-.205 3.323 3.323 0 0 1-.269-.426 7.154 7.154 0 0 1-.276-.572 7.648 7.648 0 0 1-.46-1.361Zm7.122-13.587c.04.05.087.104.149.167 1.099 1.099 2.122 2.39 3.21 3.515.292.331.628.683.981 1.052 1.088 1.138 2.334 2.441 2.844 3.706l.059.144c.334.825.74 1.825.74 2.938v.412c.008.958.015 1.92-.324 2.828-.199.534-.376.998-.585 1.437a7.67 7.67 0 0 1-.812 1.34 9.876 9.876 0 0 1-1.001 1.141c-.348.338-.722.65-1.121.925-.303.209-.73.412-1.105.59l-.243.115c-.46.223-.947.397-1.452.524a8.71 8.71 0 0 1-1.597.243 9.371 9.371 0 0 1-2.846-.267 8.498 8.498 0 0 1-1.603-.577 9.368 9.368 0 0 1-1.939-1.26 8.222 8.222 0 0 1-1.5-1.633c-.347-.508-.406-.638-.53-.913a13.48 13.48 0 0 0-.194-.412 7.82 7.82 0 0 1-.72-2.164c-.112-.637-.146-1.286-.152-2.022h-4.474c-.002.277-.007.565-.02.86a9.779 9.779 0 0 1-.1 1.063c-.122.76-.426 1.634-.827 2.442-.4.806-.9 1.553-1.412 2.062-.196.194-.385.376-.585.555a9.233 9.233 0 0 1-.626.514c-.28.21-.714.489-1.145.732-.376.213-.755.402-1.034.499a9.449 9.449 0 0 1-1.34.355 10.135 10.135 0 0 1-2.343.166 9.113 9.113 0 0 1-1.333-.16 7.764 7.764 0 0 1-1.229-.348c-.603-.228-1.3-.603-1.933-1.038-.594-.409-1.137-.874-1.498-1.327l-.008-.008-1.176-1.62-.008-.017a5.803 5.803 0 0 0-.183-.323 4.407 4.407 0 0 1-.335-.652c-.16-.398-.363-1.2-.498-1.962-.116-.65-.183-1.282-.135-1.633.025-.188.049-.395.073-.606.105-.938.221-1.967.727-2.87l.084-.149c.146-.261.287-.513.407-.74.133-.251.426-.64.759-1.04.415-.501.9-1.032 1.205-1.333.127-.125.22-.237.311-.349.1-.122.2-.244.343-.384.525-.518 1.231-1.313 1.93-2.098a65.111 65.111 0 0 1 1.601-1.761c.21-.21.41-.425.607-.642.66.13 1.317.25 1.974.36l-2.03 2.207c-.037.039-.055.062-.078.091-.019.024-.04.052-.09.11l-.003.002-.66.739.073-.01c.491-.07 1.153-.162 2.136-.162 1.066 0 2.305.357 3.44.92.946.468 1.825 1.08 2.475 1.75-.236-.369-.504-.711-.712-.979-.247-.315-.423-.541-.423-.69 0-.894.314-1.014 1.185-1.014.077 0 .225.003.392.006l.352.006.01-.513c.012-.598.025-1.211-.033-1.768.57.037 1.142.066 1.714.086v2.196h4.472v-2.208a60.94 60.94 0 0 0 1.698-.091c-.055.51-.04 1.055-.023 1.628.007.223.013.45.017.666l.132-.005c.532-.021 1.25-.05 1.525.158.552.416.289.954-.152 1.54a14.6 14.6 0 0 1-.284.362c-.169.21-.341.425-.474.629a2.752 2.752 0 0 0-.141.247c.676-.733 1.781-1.78 3.145-2.25.925-.32 1.737-.55 2.565-.648.827-.099 1.663-.065 2.635.145a6.018 6.018 0 0 0-.457-.48c-.13-.126-.253-.244-.398-.418a64.378 64.378 0 0 0-2.025-2.278 71.692 71.692 0 0 0 1.98-.351ZM10.022 44.245c.498.085 1.035.111 1.735.111a5.24 5.24 0 0 0 1.853-.34c.556-.206 1.056-.484 1.524-.759 1.059-.62 1.528-1.247 2.194-2.136l.038-.051c.348-.464.677-1.218.901-2.001.215-.752.33-1.522.266-2.074-.093-.802-.2-1.474-.406-2.109-.204-.63-.508-1.228-.994-1.89-.164-.225-.315-.392-.476-.571-.102-.114-.21-.234-.33-.376a2.627 2.627 0 0 0-.343-.31 11.18 11.18 0 0 0-.64-.466 7.486 7.486 0 0 0-1.842-.919 6.743 6.743 0 0 0-2.13-.335c-.717 0-1.518.127-2.262.359-.7.217-1.348.525-1.825.903l-.963.808c-.235.197-.481.49-.712.813-.29.408-.554.86-.739 1.228-.613 1.22-.8 2.695-.594 4.11.203 1.398.79 2.734 1.729 3.701.053.054.092.1.13.143.028.032.055.063.091.1.31.324.683.644 1.087.927a6.64 6.64 0 0 0 1.194.671 6.603 6.603 0 0 0 1.514.463ZM25.746 30.02h-6.531l.061.127c.964 1.63.96 3.141.957 4.876v.086h4.473v-1.234c0-1.949.57-2.99.928-3.647.041-.075.08-.144.112-.208Z" fill="#fff"/><path fill-rule="evenodd" clip-rule="evenodd" d="M7.419 17.62c0 .691.558.956 1.131 1.123a48.926 48.926 0 0 0 7.471 1.601 41 41 0 0 0 4.19.354c.22.007.264.045.512.046l1.118-.003c.263-.001.358.037.559.045l2.746-.086c3.134-.166 6.301-.702 9.348-1.443.39-.096 2.32-.569 2.574-.803.645-.595.346-1.148.193-2.028-.07-.4-.195-.835-.227-1.212.646.148 2.195.783 2.747 1.055.433.212.822.436 1.189.73 1.276 1.022.896 1.83-.605 2.713-.616.363-1.355.687-2.05.94-2.456.892-5.937 1.58-8.67 1.855-1.111.113-3.24.306-4.243.302-.293-.001-.392.045-.685.044h-4.465c-.314.001-.447-.044-.728-.045-1.045 0-1.89-.127-2.834-.167-.456-.019-.924-.09-1.372-.128-2.358-.198-5.324-.81-7.571-1.46C6.39 20.66 4.764 20 3.697 19.126c-.145-.12-.25-.264-.356-.409-.779-1.067.92-2.036 1.732-2.434.714-.35 1.272-.584 2.03-.832.25-.082.503-.182.745-.237-.045.539-.429 1.95-.429 2.405Zm7.726-15.066c.489 0 1.166.167 1.62.263 2.675.563 3.503.665 6.32.665 1.153 0 2.428-.157 3.423-.348.509-.098 2.773-.58 3.23-.58 1.326 0 2.513.822 2.98 1.964.23.56.32 1.367.45 2.006l1.567 8.25c.147.71.25 1.408.41 2.086-.27.127-1.739.458-2.137.557l-2.234.461-1.582.26c-5.327.871-11.25.56-16.547-.55l-2.179-.517c-.194-.05-.57-.137-.73-.211l.387-1.9 2.621.588c2.568.523 6.047.974 8.71.974 1.608 0 2.635-.007 4.25-.084.39-.019.683-.086.928-.27.393-.294.586-1.008.12-1.52-.07-.077-.048-.054-.134-.123-.47-.376-.913-.224-1.43-.197l-2.747.084c-.587 0-1.043-.044-1.63-.042-1.043.002-3.669-.254-4.66-.398-2.513-.365-3.272-.579-5.642-1.121L11.7 6.594c.293-1.477.365-2.89 1.942-3.66.417-.204.879-.38 1.503-.38ZM8.32 12.85l-2.385.736c-.366.137-.765.287-1.092.446-1.203.582-1.894.924-2.843 1.846-.427.416-1.019 1.27-1.019 2.079 0 .667.04 1.055.388 1.644.216.367.458.643.76.94 1.855 1.826 5.215 2.63 7.72 3.256.928.232 4.123.76 5.126.826.625.04 1.738.2 2.315.213.322.008.488.033.818.04.206.006.195.034.384.044l1.245.042c.338 0 .524.043.814.044l5.798-.085c.205-.006.196-.034.384-.043l1.577-.096c1.005-.13 1.9-.175 3.046-.339 1.671-.238 4.689-.766 6.35-1.31a24.323 24.323 0 0 0 3.02-1.21c1.312-.641 3.176-1.993 3.176-3.586 0-.648-.028-.968-.343-1.563-.353-.666-.913-1.167-1.503-1.603-1.151-.85-2.874-1.565-4.264-1.968-.417-.12-.804-.255-1.23-.352 0-.3-.806-4.342-.92-4.962l-.57-2.984c-.29-1.69-1.46-3.346-3.096-4.003-2.315-.93-3.556-.244-5.923.139-8.197 1.323-9.99-2.107-13.841.233-.177.107-.34.23-.491.36-1.446 1.246-1.708 2.122-2.045 3.982l-1.098 5.758c-.056.334-.258 1.207-.258 1.476Z" fill="#fff"/><path fill-rule="evenodd" clip-rule="evenodd" d="M28.407 14.834v.253c0 .447.494.929 1.03.929.509 0 2.633-.382 2.945-.565.352-.207.606-.642.48-1.156a1.066 1.066 0 0 0-1.021-.811c-.29 0-.762.111-1.034.165-.938.183-2.4.154-2.4 1.185Zm8.327 10.761h.043l-.036-.05-.007.05Z" fill="#fff"/></svg>