<svg width="65" height="62" viewBox="0 0 65 62" fill="none" xmlns="http://www.w3.org/2000/svg"><path fill-rule="evenodd" clip-rule="evenodd" d="M27.834 45.61c0-17.354.888-9.956-7.267-26.018l-3.692-7.215H26.92c.3 1.174 1.161 2.544 1.657 3.653.522 1.188 1.07 2.257 1.644 3.484.3.64 2.845 6.498 3.458 7.02l6.576-14.157 10.072-.013-9.537 18.28c-.914 1.67-1.462 2.022-1.448 4.175.012 3.6 0 7.215 0 10.816-1.123.196-10.57.209-11.509-.026Zm35.699 15.826c1.657-3.327-1.37-9.147-1.957-12.448-.079-.43 1.043-5.114 1.213-6.171 1.148-6.98 1.827-13.87 2.1-21.007.314-8.298.47-14.104-7.006-16.1-9.081-2.427-24.53-3.863-34.015-4.28-4.567-.196-10.438-.744-14.926-.378C4.297 1.43 1.478 3.948.63 8.189c-1.422 7.084 6.615 29.644 9.134 36.259 1.696 4.475 3.679 9.616 7.176 12.03.717.495 1.54.926 2.583 1.252 4.997 1.54 14.835-.952 19.832-2.087 1.853-.418 11.365-2.675 12.435-2.688.887 1.33 8.846 9.146 11.743 8.48Z" fill="#fff"/></svg>