<svg width="53" height="44" fill="none" xmlns="http://www.w3.org/2000/svg"><path fill-rule="evenodd" clip-rule="evenodd" d="M40.974.054c0 .03.16.054.372.054.213 0 .373.023.373.054 0 .03.096.054.213.054.117 0 .213.024.213.054s.071.054.16.054c.087 0 .159.024.159.053 0 .03.048.054.106.054.059 0 .107.025.107.054 0 .03.042.054.094.054.053 0 .13.049.172.108.042.06.11.108.15.108.04 0 .14.073.222.162.082.089.176.161.21.161.083 0 .535.467.535.553 0 .039.048.106.107.148.058.043.106.116.106.162s.048.12.106.162c.06.043.107.12.107.174 0 .052.024.096.053.096.03 0 .053.048.053.107 0 .06.024.108.054.108.029 0 .053.073.053.162 0 .089.024.162.053.162.03 0 .053.073.053.162 0 .089.024.161.053.161.03 0 .054.144.054.324 0 .18.023.323.053.323s.053.18.053.432c0 .251-.022.431-.053.431-.03 0-.053.144-.053.324 0 .18-.024.323-.054.323-.029 0-.053.073-.053.162 0 .089-.024.162-.053.162-.03 0-.053.072-.053.161 0 .09-.024.162-.053.162-.03 0-.054.049-.054.108 0 .06-.024.108-.053.108-.03 0-.053.043-.053.096 0 .053-.048.13-.106.174-.059.042-.107.109-.107.147 0 .09-.989 1.093-1.078 1.093-.038 0-.104.048-.146.108-.042.059-.12.107-.171.107-.052 0-.095.025-.095.054 0 .03-.048.054-.106.054-.059 0-.107.025-.107.054 0 .03-.048.054-.106.054-.059 0-.107.024-.107.054s-.071.054-.16.054c-.087 0-.159.024-.159.054s-.096.054-.213.054c-.117 0-.213.024-.213.054 0 .033-.319.054-.851.054s-.851-.02-.851-.054c0-.03-.072-.054-.16-.054-.088 0-.16-.025-.16-.054 0-.03-.072-.054-.16-.054-.087 0-.159-.024-.159-.054s-.048-.054-.106-.054c-.059 0-.107-.024-.107-.054s-.048-.054-.106-.054c-.059 0-.107-.024-.107-.054s-.047-.054-.106-.054-.106-.024-.106-.054-.039-.053-.086-.053c-.046 0-.152-.073-.234-.162-.082-.09-.176-.162-.209-.162-.078 0-.536-.464-.536-.543 0-.033-.072-.129-.16-.212-.087-.083-.159-.19-.159-.237 0-.048-.024-.086-.053-.086-.03 0-.053-.049-.053-.108 0-.06-.024-.108-.054-.108-.029 0-.053-.049-.053-.108 0-.06-.024-.108-.053-.108-.03 0-.053-.048-.053-.108 0-.059-.024-.107-.053-.107-.03 0-.054-.073-.054-.162 0-.09-.024-.162-.053-.162-.03 0-.053-.097-.053-.216 0-.118-.024-.215-.053-.215-.033 0-.054-.288-.054-.755 0-.468.02-.755.054-.755.029 0 .053-.097.053-.216 0-.118.024-.216.053-.216.03 0 .053-.072.053-.161 0-.09.024-.162.053-.162.03 0 .054-.073.054-.162 0-.089.024-.162.053-.162.03 0 .053-.043.053-.096 0-.052.048-.13.107-.173.058-.043.106-.116.106-.162s.048-.119.106-.162c.059-.042.107-.109.107-.147 0-.091.775-.877.865-.877.038 0 .104-.049.146-.108.042-.06.12-.108.171-.108.052 0 .095-.024.095-.054s.048-.054.106-.054c.059 0 .107-.024.107-.054s.048-.054.106-.054c.059 0 .107-.024.107-.054s.072-.053.16-.053c.087 0 .159-.025.159-.054 0-.03.072-.054.16-.054.087 0 .16-.025.16-.054 0-.032.177-.054.425-.054s.426-.023.426-.054c0-.03.072-.054.16-.054.087 0 .159.024.159.054ZM13.09.485c0 .03.12.054.266.054.147 0 .267.024.267.054s.071.054.16.054c.087 0 .159.024.159.054s.072.054.16.054c.087 0 .159.024.159.054s.048.054.107.054c.058 0 .106.024.106.054s.043.054.095.054c.052 0 .129.048.171.107.042.06.11.108.15.108.04 0 .14.073.222.162.082.089.177.162.21.162.078 0 .429.355.429.435 0 .033.072.129.16.212.087.083.16.19.16.237 0 .048.023.086.052.086.03 0 .054.044.054.096 0 .053.048.131.106.174.063.046.107.14.107.228 0 .082.023.15.053.15.029 0 .053.048.053.107 0 .06.024.108.053.108.03 0 .053.097.053.216 0 .118.024.216.054.216.033 0 .053.341.053.916s-.02.917-.053.917c-.03 0-.054.097-.054.216 0 .118-.024.215-.053.215-.03 0-.053.073-.053.162 0 .089-.024.162-.053.162-.03 0-.053.048-.053.108 0 .059-.024.107-.054.107-.029 0-.053.044-.053.096 0 .053-.048.131-.106.174-.059.043-.107.116-.107.162s-.048.119-.106.162c-.059.042-.107.109-.107.147 0 .086-.559.661-.642.661-.033 0-.127.073-.209.162-.082.09-.187.162-.234.162-.047 0-.085.024-.085.054s-.048.054-.107.054c-.058 0-.106.024-.106.054s-.048.054-.107.054c-.058 0-.106.024-.106.054s-.048.053-.106.053c-.059 0-.107.025-.107.054 0 .03-.072.054-.16.054-.087 0-.16.025-.16.054 0 .03-.119.054-.265.054-.146 0-.266.024-.266.054 0 .033-.249.054-.639.054s-.638-.021-.638-.054c0-.03-.12-.054-.266-.054-.147 0-.266-.024-.266-.054s-.072-.054-.16-.054c-.088 0-.16-.024-.16-.054s-.048-.054-.106-.054c-.059 0-.107-.024-.107-.053 0-.03-.048-.054-.106-.054-.059 0-.106-.025-.106-.054 0-.03-.048-.054-.107-.054-.058 0-.106-.025-.106-.054 0-.03-.038-.054-.085-.054-.047 0-.153-.073-.235-.162-.082-.089-.176-.162-.208-.162-.084 0-.643-.575-.643-.66 0-.04-.048-.106-.106-.148-.059-.043-.107-.116-.107-.162s-.048-.12-.106-.162c-.059-.043-.107-.12-.107-.174 0-.052-.024-.096-.053-.096-.03 0-.053-.072-.053-.161 0-.09-.024-.162-.053-.162-.03 0-.054-.049-.054-.108 0-.06-.023-.108-.053-.108-.029 0-.053-.097-.053-.215 0-.12-.024-.216-.053-.216-.034 0-.053-.342-.053-.917s.02-.916.053-.916c.03 0 .053-.098.053-.216 0-.119.024-.216.053-.216.03 0 .053-.048.053-.108 0-.059.024-.108.054-.108.029 0 .053-.072.053-.161 0-.09.024-.162.053-.162.03 0 .053-.043.053-.096 0-.053.048-.13.107-.174.058-.042.106-.11.106-.152 0-.04.072-.142.16-.225.088-.083.16-.179.16-.212 0-.08.35-.435.429-.435.033 0 .127-.073.209-.162.082-.089.182-.162.222-.162.04 0 .108-.048.15-.108.043-.059.12-.107.172-.107.052 0 .095-.025.095-.054 0-.03.047-.054.106-.054.058 0 .106-.025.106-.054 0-.03.072-.054.16-.054.088 0 .16-.024.16-.054s.071-.054.16-.054c.087 0 .159-.024.159-.054s.12-.054.266-.054c.146 0 .266-.024.266-.054 0-.032.213-.054.532-.054.32 0 .532.022.532.054Zm30.864 8.628c0 .03.096.054.213.054.117 0 .212.024.212.054s.072.054.16.054c.088 0 .16.024.16.053 0 .03.072.054.16.054.087 0 .16.025.16.054 0 .03.047.054.105.054.059 0 .107.024.107.054s.042.054.095.054c.052 0 .129.049.171.108.042.06.114.108.16.108.045 0 .117.048.16.108.041.059.107.107.145.107.083 0 1.397 1.323 1.397 1.407 0 .033.072.128.16.211.088.083.16.18.16.216 0 .035.072.132.16.215.087.084.159.185.159.226 0 .04.048.11.106.152.059.043.107.115.107.162 0 .046.048.119.106.161.059.043.107.116.107.162s.048.12.106.162c.059.043.106.116.106.162s.048.119.107.162c.058.042.106.12.106.173 0 .053.024.096.054.096.029 0 .053.043.053.096 0 .053.048.13.106.174.059.042.107.12.107.173 0 .053.024.096.053.096.03 0 .053.043.053.096 0 .053.048.131.107.174.058.043.106.12.106.174 0 .052.024.095.053.095.03 0 .053.049.053.108 0 .06.024.108.054.108.029 0 .053.043.053.096 0 .053.048.131.106.174.059.043.107.12.107.174 0 .052.024.095.053.095.03 0 .053.049.053.108 0 .06.024.108.053.108.03 0 .053.049.053.108 0 .06.025.108.054.108.029 0 .053.048.053.108 0 .059.024.108.053.108.03 0 .053.048.053.107 0 .06.024.108.054.108.029 0 .053.049.053.108 0 .06.024.108.053.108.03 0 .053.048.053.108 0 .059.024.107.053.107.03 0 .054.05.054.108 0 .06.024.108.053.108.03 0 .053.049.053.108 0 .06.024.108.053.108.03 0 .053.048.053.108s.024.108.054.108c.029 0 .053.048.053.107 0 .06.024.108.053.108.03 0 .053.049.053.108 0 .06.024.108.054.108.029 0 .053.049.053.108 0 .06.024.108.053.108.03 0 .053.072.053.161 0 .09.024.162.053.162.03 0 .054.049.054.108 0 .06.024.108.053.108.03 0 .053.048.053.108 0 .059.024.107.053.107.03 0 .053.05.053.108 0 .06.024.108.054.108.029 0 .053.073.053.162 0 .089.024.162.053.162.03 0 .053.048.053.108 0 .059.024.108.053.108.03 0 .054.072.054.161 0 .09.024.162.053.162.03 0 .053.049.053.108 0 .06.024.108.053.108.03 0 .054.072.054.161 0 .09.023.162.053.162s.053.049.053.108c0 .06.024.108.053.108.03 0 .053.073.053.162 0 .089.024.161.054.161.029 0 .053.073.053.162 0 .09.024.162.053.162.03 0 .053.048.053.108s.024.108.053.108c.03 0 .054.072.054.161 0 .09.024.162.053.162.03 0 .053.073.053.162 0 .089.024.162.053.162.03 0 .054.072.054.162 0 .088.023.161.053.161s.053.162.053.378c0 .215-.023.377-.053.377s-.053.073-.053.162c0 .089-.024.162-.054.162-.029 0-.053.037-.053.082 0 .107-.452.565-.557.565-.045 0-.081.024-.081.054s-.048.053-.107.053c-.058 0-.106.025-.106.055s-.178.053-.426.053-.426-.022-.426-.053c0-.03-.066-.055-.148-.055a.29.29 0 0 1-.224-.107c-.042-.06-.109-.108-.147-.108-.097 0-.332-.246-.332-.348 0-.046-.024-.084-.053-.084-.03 0-.053-.048-.053-.107 0-.06-.024-.108-.054-.108-.029 0-.053-.073-.053-.162 0-.089-.024-.162-.053-.162-.03 0-.053-.048-.053-.108 0-.059-.024-.107-.054-.107-.029 0-.053-.073-.053-.162 0-.09-.024-.162-.053-.162-.03 0-.053-.073-.053-.162 0-.089-.024-.162-.053-.162-.03 0-.054-.048-.054-.107 0-.06-.024-.108-.053-.108-.03 0-.053-.073-.053-.162 0-.089-.024-.162-.053-.162-.03 0-.053-.048-.053-.107 0-.06-.024-.108-.054-.108-.029 0-.053-.049-.053-.108 0-.06-.024-.108-.053-.108-.03 0-.053-.049-.053-.108 0-.06-.024-.108-.053-.108-.03 0-.054-.073-.054-.162 0-.088-.024-.161-.053-.161-.03 0-.053-.049-.053-.108 0-.06-.024-.108-.053-.108-.03 0-.054-.049-.054-.108 0-.06-.023-.108-.053-.108s-.053-.043-.053-.096c0-.052-.048-.13-.107-.173-.058-.043-.106-.121-.106-.174 0-.053-.024-.096-.053-.096-.03 0-.053-.048-.053-.108 0-.059-.024-.107-.053-.107-.03 0-.054-.044-.054-.096 0-.053-.048-.131-.106-.174-.059-.043-.107-.121-.107-.174 0-.053-.023-.096-.053-.096s-.053-.043-.053-.096c0-.053-.048-.13-.106-.173-.059-.043-.107-.116-.107-.162s-.048-.12-.106-.162c-.059-.043-.107-.11-.107-.15 0-.073-.124-.227-.182-.227-.017 0-.03.51-.03 1.132 0 .719.019 1.132.053 1.132.035 0 .053 1.06.053 3.074 0 2.013.018 3.073.053 3.073.03 0 .053.122.053.27 0 .148-.024.27-.053.27-.03 0-.053.18-.053.431 0 .252.053.378.053.431v.162c0 .09.03.162 0 .162s0 .073 0 .162c0 .089-.03.161 0 .161.035 0 .053 2.355.053 6.956 0 4.602-.018 6.956-.053 6.956-.03 0-.053.121-.053.27 0 .148-.024.27-.053.27-.03 0-.054.043-.054.095 0 .053-.047.131-.106.174-.059.043-.106.12-.106.174 0 .056-.04.096-.095.096-.052 0-.13.048-.172.107-.042.06-.119.108-.17.108-.053 0-.096.025-.096.054 0 .033-.23.054-.585.054s-.585-.021-.585-.054c0-.03-.06-.054-.135-.054-.15 0-.61-.425-.61-.565 0-.045-.024-.082-.053-.082-.03 0-.054-.048-.054-.108 0-.059-.024-.107-.053-.107-.032 0-.053-.252-.053-.647 0-.396-.02-.648-.053-.648s-.053-.287-.053-.754c0-.468-.02-.755-.054-.755-.033 0-.053-.306-.053-.81 0-.502-.02-.808-.053-.808s-.053-.306-.053-.809c0-.503-.02-.809-.053-.809s-.054-.287-.054-.755c0-.467-.02-.754-.053-.754s-.053-.306-.053-.81c0-.503-.02-.808-.053-.808-.034 0-.054-.306-.054-.809 0-.503-.02-.809-.053-.809s-.053-.305-.053-.809c0-.503-.02-.808-.053-.808s-.053-.288-.053-.755v-.755h-.533v.27c0 .148-.023.269-.053.269-.032 0-.053.27-.053.701 0 .431-.02.701-.053.701s-.053.287-.053.755c0 .467-.02.755-.054.755-.032 0-.053.27-.053.7 0 .432-.02.702-.053.702s-.053.27-.053.7c0 .432-.02.702-.053.702s-.054.287-.054.755c0 .467-.02.755-.053.755s-.053.27-.053.7c0 .432-.02.701-.053.701s-.054.288-.054.755c0 .468-.02.755-.053.755-.032 0-.053.27-.053.701 0 .432-.02.701-.053.701s-.053.288-.053.755-.02.755-.054.755c-.029 0-.053.097-.053.216 0 .118-.024.215-.053.215-.03 0-.053.037-.053.082 0 .107-.559.673-.664.673-.045 0-.081.025-.081.054 0 .033-.23.054-.586.054-.354 0-.585-.021-.585-.054 0-.03-.036-.054-.081-.054-.106 0-.558-.457-.558-.565 0-.045-.023-.082-.053-.082-.029 0-.053-.048-.053-.108 0-.059-.024-.107-.053-.107-.03 0-.053-.073-.053-.162 0-.09-.024-.162-.054-.162-.035 0-.053-1.348-.053-3.936s.018-3.937.053-3.937c.036 0 .054-2.768.054-8.196 0-4.507-.013-8.196-.028-8.196-.053 0-.717.7-.717.755 0 .03-.623.686-1.384 1.456-.76.77-1.383 1.425-1.383 1.456 0 .081-.891.97-.972.97-.038 0-.104.05-.146.108a.29.29 0 0 1-.224.108h-.148v.755c0 .468-.02.755-.054.755-.03 0-.053.144-.053.324 0 .18-.023.323-.053.323s-.053.122-.053.27c0 .148-.024.27-.053.27-.03 0-.054.072-.054.161 0 .09-.024.162-.053.162-.03 0-.053.073-.053.162 0 .089-.024.161-.053.161-.03 0-.053.073-.053.162 0 .09-.024.162-.054.162-.029 0-.053.048-.053.108s-.024.108-.053.108c-.03 0-.053.048-.053.108 0 .059-.024.107-.053.107-.03 0-.054.049-.054.108 0 .06-.024.108-.053.108-.03 0-.053.049-.053.108 0 .06-.024.108-.053.108-.03 0-.054.043-.054.096 0 .052-.047.13-.106.173-.059.043-.106.116-.106.162s-.048.12-.107.162c-.058.043-.106.109-.106.147 0 .085-1.2 1.309-1.282 1.309-.033 0-.126.072-.208.162-.082.088-.188.161-.235.161-.046 0-.085.024-.085.054s-.047.054-.106.054c-.106 0-.106.036-.106 6.579 0 4.35-.018 6.578-.054 6.578-.029 0-.053.037-.053.083 0 .108-.237.348-.343.348-.046 0-.082.025-.082.054 0 .032-.196.054-.48.054-.283 0-.478-.022-.478-.054 0-.03-.038-.054-.084-.054-.108 0-.236-.13-.236-.239 0-.046-.024-.084-.053-.084-.03 0-.053-.073-.053-.162 0-.089-.024-.162-.053-.162-.031 0-.053-.18-.053-.431 0-.252-.023-.431-.054-.431-.03 0-.053-.18-.053-.432s-.022-.431-.053-.431c-.03 0-.053-.162-.053-.378 0-.215-.023-.377-.054-.377-.03 0-.053-.162-.053-.378 0-.215-.023-.377-.053-.377-.031 0-.053-.18-.053-.431 0-.252-.022-.432-.053-.432-.03 0-.054-.135-.054-.3 0-.372-.072-.455-.395-.455h-.243v.216c0 .119-.024.216-.053.216-.031 0-.054.18-.054.431 0 .252-.022.431-.053.431-.03 0-.053.18-.053.432s-.022.431-.053.431c-.03 0-.053.162-.053.378 0 .215-.023.377-.054.377-.03 0-.053.18-.053.431 0 .252-.022.432-.053.432-.03 0-.053.162-.053.377 0 .216-.023.378-.053.378s-.054.134-.054.298c0 .28-.013.311-.238.539l-.238.241h-.495c-.434 0-.505-.013-.572-.108-.042-.059-.12-.108-.171-.108-.06 0-.095-.04-.095-.107 0-.06-.024-.108-.053-.108-.035 0-.053-2.22-.053-6.554v-6.554l-.131-.132c-.072-.073-.162-.133-.201-.133-.039 0-.105-.048-.147-.108-.043-.059-.11-.108-.15-.108-.039 0-.163-.096-.276-.215-.112-.119-.23-.216-.263-.216-.077 0-.535-.464-.535-.542 0-.033-.096-.153-.213-.267-.117-.114-.213-.24-.213-.28 0-.04-.048-.108-.106-.151-.059-.043-.107-.116-.107-.162s-.048-.119-.106-.162c-.059-.042-.107-.12-.107-.173 0-.053-.023-.096-.053-.096s-.053-.049-.053-.108c0-.06-.024-.108-.053-.108-.03 0-.053-.048-.053-.108 0-.059-.024-.107-.054-.107-.029 0-.053-.05-.053-.108 0-.06-.024-.108-.053-.108-.03 0-.053-.073-.053-.162 0-.089-.024-.162-.053-.162-.03 0-.054-.073-.054-.162 0-.088-.024-.161-.053-.161-.03 0-.053-.073-.053-.162 0-.089-.024-.162-.053-.162-.03 0-.054-.121-.054-.27 0-.148-.023-.269-.053-.269s-.053-.121-.053-.27c0-.148-.024-.27-.053-.27-.032 0-.053-.197-.053-.485v-.485h-.267c-.146 0-.266-.024-.266-.054s-.066-.054-.147-.054a.29.29 0 0 1-.225-.107c-.042-.06-.109-.108-.148-.108-.04 0-.188-.122-.331-.27-.142-.148-.287-.27-.321-.27-.034 0-.13-.072-.211-.161-.082-.09-.177-.162-.212-.162-.034 0-.154-.097-.267-.216-.113-.118-.232-.216-.266-.216s-.154-.096-.266-.215c-.113-.119-.232-.216-.266-.216s-.154-.097-.266-.215c-.113-.12-.232-.216-.266-.216s-.154-.097-.266-.216c-.113-.119-.232-.216-.266-.216-.033 0-.177-.12-.32-.27-.142-.148-.287-.269-.32-.269-.035 0-.133-.076-.219-.169-.085-.093-.173-.15-.194-.127-.021.023-.008.052.028.065.037.014.067.095.067.182 0 .086.024.157.053.157.03 0 .053.073.053.162 0 .089.024.162.053.162.03 0 .054.097.054.215 0 .119.023.216.053.216.029 0 .053.073.053.162 0 .089.024.162.053.162.03 0 .053.072.053.161 0 .09.024.162.054.162.029 0 .053.073.053.162 0 .089.024.162.053.162.03 0 .053.072.053.161 0 .09.024.162.053.162.03 0 .054.097.054.216 0 .118.024.215.053.215.03 0 .053.073.053.162 0 .09.024.162.053.162.03 0 .053.073.053.162 0 .089.024.162.054.162.029 0 .053.072.053.161 0 .09.024.162.053.162.03 0 .053.073.053.162 0 .089.024.162.054.162.029 0 .053.072.053.161 0 .09.024.162.053.162.03 0 .053.097.053.216 0 .118.024.216.053.216.03 0 .054.072.054.161 0 .09.024.162.053.162.03 0 .053.073.053.162 0 .089.024.162.053.162.03 0 .053.072.053.161 0 .09.024.162.054.162.029 0 .053.073.053.162 0 .089.024.162.053.162.03 0 .053.072.053.161 0 .09.024.162.054.162.029 0 .053.097.053.216 0 .118.024.216.053.216.03 0 .053.072.053.161 0 .09.024.162.053.162.03 0 .054.073.054.162 0 .089.024.162.053.162.03 0 .053.072.053.161 0 .09.024.162.053.162.03 0 .053.073.053.162 0 .089.024.162.054.162.029 0 .053.072.053.161 0 .09.024.162.053.162.03 0 .053.097.053.216 0 .118.024.215.054.215.029 0 .053.073.053.162 0 .09.024.162.053.162.03 0 .053.073.053.162 0 .089.024.162.053.162.03 0 .054.072.054.161 0 .09.024.162.053.162.03 0 .053.073.053.162 0 .089.024.162.053.162.03 0 .053.072.053.161 0 .09.024.162.054.162.029 0 .053.097.053.216v.215h-3.831v3.99c0 2.625.018 3.99.053 3.99.034 0 .053.594.053 1.672 0 1.079-.019 1.672-.053 1.672-.03 0-.053.073-.053.162 0 .089-.024.162-.054.162-.029 0-.053.048-.053.107 0 .06-.024.108-.053.108-.03 0-.053.037-.053.082 0 .108-.452.565-.558.565-.044 0-.08.025-.08.054 0 .03-.097.054-.214.054-.117 0-.213.024-.213.054s-.071.054-.16.054c-.087 0-.159-.024-.159-.054s-.096-.054-.213-.054c-.117 0-.213-.024-.213-.054s-.036-.054-.08-.054c-.14 0-.665-.574-.665-.726 0-.075-.023-.136-.053-.136-.029 0-.053-.097-.053-.216s-.024-.216-.053-.216c-.033 0-.053-.252-.053-.647s-.021-.647-.054-.647c-.032 0-.053-.27-.053-.7 0-.432-.02-.702-.053-.702s-.053-.252-.053-.647-.02-.647-.053-.647-.054-.27-.054-.701c0-.431-.02-.701-.053-.701s-.053-.27-.053-.7c0-.432-.02-.702-.053-.702s-.053-.27-.053-.7c0-.432-.021-.702-.054-.702-.032 0-.053-.252-.053-.647s-.02-.647-.053-.647-.053-.27-.053-.701c0-.431-.02-.701-.053-.701-.03 0-.054-.073-.054-.162v-.162h-.745v.701c0 .432-.02.701-.053.701s-.053.288-.053.755c0 .468-.02.755-.053.755s-.054.288-.054.755-.02.755-.053.755-.053.288-.053.755-.02.755-.053.755-.053.27-.053.7c0 .432-.02.702-.054.702-.033 0-.053.287-.053.755 0 .467-.02.755-.053.755s-.053.287-.053.755c0 .467-.02.755-.053.755s-.054.233-.054.593-.02.593-.053.593c-.03 0-.053.067-.053.15a.296.296 0 0 1-.107.227c-.058.043-.106.11-.106.15 0 .098-.243.335-.343.335-.046 0-.083.025-.083.054 0 .03-.048.054-.106.054-.059 0-.107.025-.107.054 0 .03-.071.054-.16.054-.087 0-.159.024-.159.054S8.95 44 8.833 44c-.117 0-.213-.024-.213-.054s-.095-.054-.212-.054c-.117 0-.213-.024-.213-.054s-.037-.054-.081-.054c-.045 0-.212-.133-.373-.295-.16-.162-.291-.332-.291-.377 0-.046-.024-.083-.053-.083-.03 0-.054-.12-.054-.27 0-.148-.024-.269-.053-.269-.081 0-.069-.847.013-.88.05-.021.047-.044-.013-.09-.06-.047-.063-.07-.013-.09.052-.022.066-1.09.066-5.091v-5.064H5.321c-1.312 0-2.022-.02-2.022-.054 0-.03.024-.054.053-.054.03 0 .054-.097.054-.216s.024-.216.053-.216c.03 0 .053-.072.053-.162 0-.088.024-.161.053-.161.03 0 .053-.097.053-.216s.024-.216.054-.216c.029 0 .053-.097.053-.215 0-.119.024-.216.053-.216.03 0 .053-.097.053-.216 0-.118.024-.215.054-.215.029 0 .053-.097.053-.216s.024-.216.053-.216c.03 0 .053-.073.053-.162 0-.088.024-.161.053-.161.03 0 .054-.097.054-.216s.024-.216.053-.216c.03 0 .053-.097.053-.215 0-.119.024-.216.053-.216.03 0 .053-.097.053-.216 0-.118.024-.215.054-.215.029 0 .053-.097.053-.216s.024-.216.053-.216c.03 0 .053-.097.053-.215 0-.12.024-.216.054-.216.029 0 .053-.073.053-.162 0-.089.024-.162.053-.162.03 0 .053-.097.053-.215 0-.119.024-.216.053-.216.03 0 .054-.097.054-.216 0-.118.024-.215.053-.215.03 0 .053-.097.053-.216s.024-.216.053-.216c.03 0 .053-.073.053-.162 0-.088.024-.161.054-.161.029 0 .053-.097.053-.216s.024-.216.053-.216c.03 0 .053-.097.053-.215 0-.119.024-.216.054-.216.029 0 .053-.097.053-.216 0-.118.024-.215.053-.215.03 0 .053-.098.053-.216 0-.119.024-.216.053-.216.03 0 .054-.073.054-.162 0-.088.024-.161.053-.161.029 0 .053-.097.053-.216s.024-.216.053-.216c.03 0 .053-.097.053-.215 0-.119.024-.216.054-.216.029 0 .053-.097.053-.216 0-.118.024-.215.053-.215.03 0 .053-.098.053-.216 0-.119.024-.216.053-.216.03 0 .054-.097.054-.215 0-.12.024-.216.053-.216.03 0 .053-.073.053-.162 0-.089.024-.162.053-.162.03 0 .054-.097.054-.215 0-.119.023-.216.053-.216.029 0 .053-.097.053-.216 0-.118.024-.216.053-.216.03 0 .053-.072.053-.161 0-.09-.012-.162-.027-.162-.055 0-.93.917-.93.974 0 .032-.096.152-.213.266-.117.114-.213.236-.213.27 0 .036-.072.132-.16.215-.088.084-.16.18-.16.216 0 .036-.071.133-.16.216-.087.083-.159.184-.159.225 0 .041-.048.11-.106.152-.059.043-.107.116-.107.162s-.047.12-.106.162c-.059.043-.106.12-.106.174 0 .052-.024.096-.054.096-.029 0-.053.043-.053.095 0 .053-.048.131-.106.174-.059.043-.107.121-.107.174 0 .052-.024.096-.053.096-.03 0-.053.043-.053.096 0 .052-.048.13-.107.173-.058.043-.106.121-.106.174 0 .053-.024.096-.053.096-.03 0-.053.048-.053.108s-.024.108-.054.108c-.029 0-.053.048-.053.107 0 .06-.024.108-.053.108-.03 0-.053.049-.053.108 0 .06-.024.108-.053.108-.03 0-.054.049-.054.108 0 .06-.024.108-.053.108-.03 0-.053.048-.053.108 0 .059-.024.107-.053.107-.03 0-.054.049-.054.108 0 .06-.023.108-.053.108-.029 0-.053.037-.053.082 0 .107-.452.565-.557.565-.045 0-.081.024-.081.054s-.072.054-.16.054c-.088 0-.16.024-.16.054s-.12.054-.266.054c-.146 0-.266-.024-.266-.054s-.096-.054-.213-.054c-.117 0-.213-.024-.213-.054s-.036-.054-.08-.054c-.106 0-.558-.458-.558-.565 0-.045-.024-.082-.053-.082-.03 0-.054-.049-.054-.108 0-.06-.024-.108-.053-.108-.031 0-.053-.197-.053-.485 0-.287.022-.485.053-.485.03 0 .053-.049.053-.108 0-.06.024-.108.054-.108.029 0 .053-.073.053-.162 0-.089.024-.162.053-.162.03 0 .053-.048.053-.107 0-.06.024-.108.053-.108.03 0 .054-.049.054-.108 0-.06.024-.108.053-.108.03 0 .053-.048.053-.108 0-.059.024-.107.053-.107.03 0 .054-.05.054-.108 0-.06.023-.108.053-.108.029 0 .053-.049.053-.108 0-.06.024-.108.053-.108.03 0 .053-.048.053-.108s.024-.108.054-.108c.029 0 .053-.048.053-.107 0-.06.024-.108.053-.108.03 0 .053-.044.053-.096 0-.053.048-.131.107-.174.058-.043.106-.12.106-.174 0-.052.024-.096.053-.096.03 0 .054-.048.054-.107 0-.06.023-.108.053-.108.029 0 .053-.049.053-.108 0-.06.024-.108.053-.108.03 0 .053-.043.053-.096 0-.053.048-.13.107-.174.058-.042.106-.12.106-.173 0-.053.024-.096.053-.096.03 0 .054-.043.054-.096 0-.053.048-.13.106-.174.059-.042.107-.12.107-.173 0-.053.023-.096.053-.096.029 0 .053-.044.053-.096 0-.053.048-.131.106-.174.059-.043.107-.116.107-.162s.048-.119.106-.161c.059-.043.107-.116.107-.162s.048-.12.106-.162c.059-.043.106-.115.106-.162 0-.046.048-.119.107-.162.058-.042.106-.115.106-.161s.048-.12.107-.162c.058-.043.106-.116.106-.162s.048-.119.107-.162c.058-.042.106-.11.106-.152 0-.04.072-.142.16-.225.087-.083.16-.18.16-.216 0-.035.071-.132.159-.215.088-.083.16-.18.16-.216 0-.036.071-.133.16-.216.087-.083.159-.18.159-.214 0-.035.096-.157.213-.271.117-.114.213-.235.213-.27 0-.034.095-.155.212-.27.118-.113.213-.234.213-.267s.192-.252.426-.487c.234-.235.426-.452.426-.484 0-.074 1.844-1.943 1.917-1.943.031 0 .246-.194.477-.431.232-.237.453-.431.492-.431.038 0 .105-.049.147-.108.042-.06.12-.108.171-.108.052 0 .095-.024.095-.054s.048-.054.106-.054c.059 0 .107-.024.107-.054s.048-.054.106-.054c.059 0 .107-.024.107-.054s.095-.054.212-.054c.117 0 .213-.024.213-.054s.142-.053.32-.053c.177 0 .319-.024.319-.054 0-.032.195-.054.479-.054s.479.022.479.054c0 .03.142.054.319.054.177 0 .32.024.32.053 0 .03.095.054.212.054.117 0 .213.025.213.054 0 .03.048.054.106.054.059 0 .107.024.107.054s.048.054.106.054c.059 0 .107.024.107.054s.047.054.106.054.107.024.107.054.036.054.08.054c.092 0 1.197 1.1 1.197 1.19 0 .034.071.129.16.212.087.083.159.184.159.225 0 .041.048.11.106.152.059.043.107.116.107.162s.048.119.106.162c.059.043.107.11.107.152 0 .04.071.142.16.225.087.083.159.185.159.226 0 .04.048.109.106.152.059.042.107.115.107.161 0 .047.048.12.106.162.059.043.107.111.107.152 0 .041.071.143.16.226.087.083.159.184.159.225 0 .04.048.11.106.152.059.043.107.111.107.152 0 .04.072.142.16.226.087.083.159.184.159.225 0 .04.048.11.106.152.059.043.107.111.107.152 0 .04.072.142.16.225.087.084.16.185.16.226 0 .04.047.11.105.152.059.043.107.111.107.152 0 .04.072.142.16.225.087.083.16.18.16.216 0 .035.071.133.159.216.088.083.16.18.16.215 0 .036.071.133.16.216.087.083.159.18.159.215s.096.156.213.27c.117.114.212.235.212.269 0 .033.144.204.32.378.175.175.319.345.319.378 0 .033.144.203.32.377.175.175.319.345.319.377 0 .033.191.251.425.486.234.235.426.453.426.485 0 .032.192.25.426.486.234.234.425.459.425.498 0 .039.048.106.107.149.058.043.106.12.106.173 0 .053.024.096.053.096.03 0 .054.049.054.108 0 .06.024.108.053.108.03 0 .053.144.053.323 0 .256.017.324.082.324.107 0 .344.24.344.348 0 .046.024.083.053.083.032 0 .053.198.053.486 0 .287.022.485.053.485.03 0 .054.144.054.323 0 .18.023.324.053.324s.053.097.053.216c0 .118.024.216.053.216.03 0 .053.048.053.107 0 .06.024.108.054.108.029 0 .053.049.053.108 0 .06.024.108.053.108.03 0 .053.048.053.108 0 .059.024.107.054.107.029 0 .053.049.053.108 0 .06.024.108.053.108.03 0 .053.039.053.086 0 .048.072.155.16.238.088.083.16.178.16.212 0 .079.457.543.535.543.033 0 .128.072.21.161.081.09.182.162.222.162.04 0 .108.049.15.108.042.06.12.108.171.108.052 0 .095.024.095.054s.048.054.106.054c.059 0 .107.024.107.054s.048.053.106.053c.059 0 .107.025.107.055s.048.053.106.053c.059 0 .107.025.107.054 0 .03.071.054.16.054.087 0 .159.024.159.054 0 .034.39.054 1.064.054s1.064-.02 1.064-.054c0-.03.072-.054.16-.054.088 0 .16-.024.16-.054s.047-.054.106-.054.107-.024.107-.053c0-.03.047-.055.106-.055.058 0 .106-.024.106-.053 0-.03.048-.054.107-.054.058 0 .106-.025.106-.054 0-.03.043-.054.095-.054.052 0 .13-.049.171-.108.043-.06.114-.108.16-.108.045 0 .117-.048.16-.108.042-.059.107-.107.145-.107.085 0 .653-.567.653-.652 0-.033.072-.128.16-.211.087-.083.159-.19.159-.238 0-.047.024-.086.053-.086.03 0 .053-.048.053-.108 0-.059.024-.108.054-.108.029 0 .053-.048.053-.107 0-.06.024-.108.053-.108.03 0 .053-.049.053-.108 0-.06.024-.108.053-.108.03 0 .054-.073.054-.162 0-.089.024-.161.053-.161.03 0 .053-.073.053-.162 0-.09.024-.162.053-.162.03 0 .054-.162.054-.377 0-.216.022-.378.053-.378.029 0 .053-.073.053-.162 0-.089-.024-.161-.053-.161-.03 0-.053-.049-.053-.108 0-.06.023-.108.053-.108.029 0 .053-.073.053-.162 0-.089.024-.162.053-.162.03 0 .053-.043.053-.095 0-.053.048-.131.107-.174.11-.08.147-.27.053-.27-.03 0-.053-.048-.053-.108 0-.059-.024-.108-.053-.108-.03 0-.054-.072-.054-.161 0-.09-.023-.162-.053-.162s-.053-.121-.053-.27c0-.148.024-.27.053-.27.03 0 .053-.072.053-.161 0-.089.024-.162.054-.162.029 0 .053-.043.053-.096 0-.053.048-.13.106-.173.059-.043.107-.11.107-.15 0-.039.191-.263.425-.497.235-.235.426-.454.426-.486 0-.032.192-.25.426-.485.234-.235.425-.453.425-.486 0-.033.144-.202.32-.377.175-.174.32-.344.32-.377 0-.033.143-.203.318-.378.176-.174.32-.345.32-.378 0-.034.095-.155.212-.269.117-.114.213-.235.213-.27 0-.034.096-.155.213-.269.117-.114.213-.24.213-.28 0-.04.048-.108.106-.151.059-.043.107-.116.107-.162s.048-.12.106-.162c.059-.043.107-.115.107-.162 0-.046.048-.119.106-.161.059-.043.107-.116.107-.162s.047-.12.106-.162c.058-.043.106-.115.106-.162 0-.046.048-.119.107-.161.058-.043.106-.116.106-.162s.048-.12.107-.162c.058-.043.106-.116.106-.162s.048-.119.107-.162c.058-.042.106-.12.106-.173 0-.053.024-.096.053-.096.03 0 .053-.043.053-.096 0-.053.048-.13.107-.174.058-.042.106-.12.106-.173 0-.053.024-.096.053-.096.03 0 .054-.043.054-.096 0-.053.048-.131.106-.174.059-.043.106-.12.106-.174 0-.052.025-.095.054-.095.029 0 .053-.044.053-.096 0-.053.048-.131.106-.174.059-.043.107-.121.107-.174 0-.053.024-.096.053-.096.03 0 .053-.043.053-.096 0-.052.048-.13.107-.173.058-.043.106-.121.106-.174 0-.053.024-.096.053-.096.03 0 .053-.049.053-.108 0-.06.024-.108.054-.108.029 0 .053-.043.053-.096 0-.052.048-.13.106-.173.059-.043.107-.121.107-.174 0-.053.024-.096.053-.096.03 0 .053-.048.053-.108 0-.059.024-.107.053-.107.03 0 .054-.044.054-.096 0-.053.048-.131.106-.174.059-.043.107-.11.107-.15 0-.092.24-.335.331-.335.039 0 .105-.049.147-.108.043-.06.114-.108.16-.108s.117-.049.16-.108c.042-.06.119-.108.171-.108.052 0 .095-.024.095-.054s.072-.054.16-.054c.087 0 .159-.024.159-.054s.072-.053.16-.053c.088 0 .16-.025.16-.054 0-.03.119-.054.265-.054.147 0 .266-.025.266-.054 0-.034.302-.054.799-.054.496 0 .798.02.798.054ZM28.203 21.515c0 .03.096.054.213.054.117 0 .212.024.212.053 0 .03.048.055.107.055s.106.024.106.053c0 .03.048.054.107.054.058 0 .106.025.106.054 0 .03.043.054.095.054.052 0 .13.049.171.108.043.06.108.108.147.108.09 0 .439.352.439.444 0 .04.047.106.106.149s.107.116.107.162.047.119.106.162c.062.045.106.14.106.227 0 .082.024.15.053.15.03 0 .054.073.054.162 0 .089.024.162.053.162.033 0 .053.287.053.754 0 .468-.02.755-.053.755-.03 0-.053.073-.053.162 0 .089-.024.162-.053.162-.03 0-.054.048-.054.108 0 .059-.024.107-.053.107-.03 0-.053.044-.053.096 0 .053-.048.131-.107.174-.058.043-.106.11-.106.148 0 .091-.562.66-.652.66-.038 0-.104.05-.146.109-.042.06-.12.108-.171.108-.053 0-.095.024-.095.053 0 .03-.048.055-.107.055-.058 0-.106.024-.106.053 0 .03-.072.054-.16.054-.087 0-.16.025-.16.054 0 .034-.283.054-.744.054-.462 0-.745-.02-.745-.054 0-.03-.096-.054-.213-.054-.117 0-.213-.024-.213-.054s-.048-.053-.106-.053c-.059 0-.107-.025-.107-.055s-.038-.053-.085-.053c-.047 0-.152-.073-.234-.162-.082-.09-.176-.162-.21-.162-.083 0-.429-.358-.429-.445 0-.038-.048-.105-.106-.148-.059-.043-.107-.12-.107-.174 0-.053-.023-.096-.053-.096-.029 0-.053-.048-.053-.108 0-.059-.024-.107-.053-.107-.03 0-.053-.049-.053-.108 0-.06-.024-.108-.054-.108-.029 0-.053-.073-.053-.162 0-.089-.024-.162-.053-.162-.032 0-.053-.251-.053-.647 0-.395.02-.647.053-.647.03 0 .053-.097.053-.215 0-.119.024-.216.053-.216.03 0 .054-.049.054-.108 0-.06.024-.108.053-.108.03 0 .053-.048.053-.108 0-.059.024-.107.053-.107.03 0 .053-.037.053-.082 0-.045.204-.288.452-.54.248-.25.488-.457.532-.457.044 0 .08-.024.08-.054s.049-.054.107-.054c.059 0 .107-.024.107-.054s.048-.053.106-.053c.058 0 .106-.025.106-.055s.096-.053.213-.053c.117 0 .213-.025.213-.054 0-.033.23-.054.585-.054s.586.021.586.054Z" fill="#fff"/></svg>