<svg width="38" height="38" fill="none" xmlns="http://www.w3.org/2000/svg"><path fill-rule="evenodd" clip-rule="evenodd" d="M25.238.085c-1.981.246-3.84.994-5.48 2.205-.256.19-.785.656-1.175 1.036l-.71.69.485.416.485.416.725-.7c.82-.79 1.552-1.317 2.47-1.778C26.043.362 30.77 1.158 33.864 4.362c.626.649.878.968 1.312 1.658 1.821 2.896 2.04 6.572.577 9.705-.825 1.768-2.305 3.382-4.041 4.408-2.198 1.299-5.018 1.715-7.472 1.103-1.706-.426-3.262-1.251-4.441-2.355l-.363-.34-.446.45-.446.45.373.344c1.82 1.67 4.088 2.686 6.578 2.949 2.759.29 5.618-.506 7.895-2.2a11.38 11.38 0 0 0 4.301-6.593c.761-3.267.027-6.702-2.015-9.433-.475-.634-1.616-1.774-2.221-2.22-2.423-1.78-5.331-2.56-8.217-2.202Zm-.058 2.563c-.978.151-2.278.624-3.113 1.132l-.186.113.315.495c.174.272.326.505.339.519.012.013.31-.116.662-.288 1.407-.689 2.746-.932 4.236-.77 3.332.362 5.943 2.797 6.654 6.205.1.48.1 2.123-.002 2.649-.326 1.702-1.17 3.23-2.382 4.312a7.817 7.817 0 0 1-4.12 1.915c-1.736.238-3.7-.221-5.164-1.207-.232-.157-.446-.284-.476-.284-.058 0-.752.882-.752.956 0 .07.984.69 1.54.968 1.104.553 2.163.81 3.534.86 1.235.043 2.009-.061 3.089-.416 4.133-1.359 6.634-5.432 5.995-9.766-.554-3.768-3.625-6.842-7.39-7.397-.814-.12-1.986-.118-2.779.004Zm-14.978.591c-1.969.358-3.413 1.035-4.7 2.201a8.86 8.86 0 0 0-2.655 4.365c-.189.72-.27 1.5-.27 2.597-.002 1.094-.001 1.102.16 1.293.088.105.212.192.275.192.186 0 .29.157.336.51.135 1.037.668 2.51 1.27 3.509.43.713 1.08 1.52 1.727 2.145l.65.626v2.297l-2.568.854c-1.412.47-2.652.893-2.755.94a.74.74 0 0 0-.276.226c-.05.082-.133.572-.196 1.169l-.27 2.585-.346 3.272-.384 3.6-.2 1.887.126.17c.07.093.194.204.276.246.118.061 4.03.077 18.36.077 17.595 0 18.22-.004 18.46-.116.138-.063.325-.196.418-.294.375-.401.361-.18.36-5.615-.002-4.688-.008-4.985-.116-5.22a1.398 1.398 0 0 0-.658-.68c-.188-.09-.991-.1-7.896-.1h-7.688l-.039-.194a2.184 2.184 0 0 1-.039-.349c0-.306-.179-.56-.487-.69-.16-.067-1.405-.492-2.766-.945l-2.475-.823V20.69l.766-.769c.891-.894 1.456-1.673 1.97-2.716a9.696 9.696 0 0 0 .969-3.256c.067-.606.093-.686.227-.686.069 0 .207-.082.307-.182l.182-.182v-.8c-.002-2.504-.913-4.692-2.668-6.404-.703-.686-1.212-1.054-2.228-1.608-.583-.319-1.623-.642-2.669-.83-.55-.098-1.992-.109-2.49-.018Zm2.611 1.333c2.786.486 5.147 2.652 5.908 5.42.153.556.29 1.416.29 1.817v.208h-1.08c-1.262 0-1.593-.05-2.198-.338-.965-.457-1.76-1.634-1.764-2.608 0-.367-.15-.652-.402-.772-.214-.103-.245-.1-.952.07-3.09.743-5.801 1.857-8.234 3.383-.44.277-.533.314-.552.225-.012-.06.012-.418.054-.797.313-2.843 2.21-5.264 4.924-6.286 1.203-.453 2.61-.566 4.006-.322Zm13.172.497v.654h1.245V4.415h-1.245v.654Zm2.926 4.273c-.942.544-1.859 1.072-2.038 1.171l-.325.182-1.372-.554c-.754-.305-1.406-.554-1.449-.553-.07.001-.483.942-.48 1.091 0 .033.732.351 1.625.706 1.252.498 1.67.639 1.82.613.107-.018.574-.25 1.036-.515 1.15-.66 2.026-1.16 2.802-1.597.36-.203.687-.402.728-.443.058-.058.009-.19-.218-.588-.16-.282-.32-.511-.355-.508-.034.003-.832.45-1.774.995Zm-16.073.625c.151.658.714 1.633 1.204 2.086a5.14 5.14 0 0 0 1.258.829c.634.288 1.165.381 2.16.381h.881l-.04.421c-.196 1.992-1.117 3.903-2.572 5.334-.93.915-1.77 1.403-2.917 1.695-.499.128-.768.158-1.396.158-1.844 0-3.387-.75-4.748-2.304-1.195-1.366-1.976-3.173-2.13-4.93l-.042-.467.518-.32a26.227 26.227 0 0 1 5.281-2.502c.64-.216 2.27-.688 2.402-.695.037-.002.1.14.14.314Zm19.435 1.427v.623h1.308v-1.246h-1.308v.623Zm-6.288 6.325v.654h1.245v-1.308h-1.245v.654Zm-17.44 3.83c.848.432 2.401.676 3.566.56.704-.071 1.735-.336 2.17-.558.128-.066.25-.102.271-.08.022.021.04.665.04 1.43v1.392l-1.588.794-1.588.794-1.588-.794-1.587-.794V22.86c0-.788.015-1.433.033-1.433.019 0 .14.054.272.121Zm-1.55 9.007v6.201l-2.817-.016c-2.776-.016-2.817-.018-2.802-.14l.206-1.964a5852.544 5852.544 0 0 1 .74-7.09c.096-.936.19-1.715.206-1.732.051-.051 4.241-1.45 4.359-1.455.103-.004.108.33.108 6.196Zm11.154-5.481 2.157.72.038.261c.021.145.123 1.075.226 2.07.104.993.27 2.592.372 3.551.415 3.943.496 4.744.497 4.908v.172l-2.785-.016-2.787-.016-.015-6.185c-.013-4.927 0-6.185.062-6.185.043 0 1.049.324 2.235.72ZM9.04 26.116c.695.35.705.357.53.426-.157.062-1.274.427-1.315.43-.008 0-.015-.282-.015-.628 0-.345.02-.618.046-.606l.754.378Zm5.55.275c0 .468-.017.588-.082.563a22.772 22.772 0 0 0-.576-.188c-.96-.305-.947-.243-.142-.653.389-.198.728-.35.753-.338.026.011.047.289.047.616Zm21.667.856c0 .014-.4.723-.888 1.574l-.888 1.548-2.038.016-2.039.017v-.335c0-.183-.03-.42-.067-.526-.132-.38-.177-.387-2.177-.387h-1.81l-.182.182c-.167.167-.182.219-.182.623v.44h-3.899l-.14-1.292c-.076-.711-.155-1.426-.175-1.59l-.036-.295h7.261c3.994 0 7.262.011 7.262.025Zm-25.776.37c0 .01-.081.312-.18.669-.1.357-.283 1.028-.41 1.49-.125.463-.294 1.08-.375 1.372-.502 1.811-.6 2.201-.6 2.412-.002.178.174.589.72 1.678.396.793.72 1.459.72 1.48 0 .02-.476.038-1.058.038h-1.06l.017-4.217.016-4.217 1.027-.356c.965-.335 1.183-.4 1.183-.35Zm3.02.344 1.058.362v8.402l-1.043.017c-.573.01-1.042-.005-1.042-.031 0-.027.325-.693.722-1.482.503-.999.722-1.5.724-1.653.001-.122-.07-.472-.157-.78-.088-.306-.262-.936-.387-1.399l-.373-1.371c-.081-.291-.25-.908-.374-1.37l-.258-.951c-.017-.06-.008-.108.02-.108.028.001.527.165 1.11.364Zm-1.46 3.328.597 2.195-.595 1.2c-.328.66-.61 1.2-.628 1.2-.018 0-.302-.54-.63-1.2l-.599-1.2.136-.467c.075-.257.344-1.245.599-2.196.255-.95.477-1.728.494-1.729.017 0 .3.989.627 2.197Zm24.699 1.62-.016 3.816-6.982.016-6.982.016-.038-.266c-.02-.145-.122-1.092-.225-2.103a224.4 224.4 0 0 0-.239-2.265c-.035-.295-.03-.434.017-.452.037-.015.88-.02 1.873-.01l1.805.016.03.45c.027.388.056.476.204.624l.173.173 1.664.02c1.099.013 1.744-.004 1.898-.05.314-.093.444-.312.482-.808l.031-.409 2.21-.03c2.359-.034 2.338-.031 2.693-.363.095-.088.43-.616.747-1.175.317-.558.598-1.015.623-1.016.026-.001.04 1.716.032 3.815Zm-7.594-1.87.018.607H27.23v-1.249l.95.017.949.017.018.608Z" fill="#fff"/></svg>