<svg width="169" height="30" viewBox="0 0 169 30" fill="none" xmlns="http://www.w3.org/2000/svg">
<path fill-rule="evenodd" clip-rule="evenodd" d="M105.536 4.01205H102.17C100.708 4.01205 99.722 4.72605 99.11 5.67805L94.52 14.4841L89.828 5.67805C89.216 4.72605 88.23 4.01205 86.768 4.01205H83.436C82.518 4.01205 82.28 4.86205 82.824 5.67805L91.562 20.2301V27.6421C91.562 28.5261 92.344 29.2741 93.228 29.2741H95.846C96.764 29.2741 97.512 28.5261 97.512 27.6421V20.2301L106.148 5.67805C106.658 4.86205 106.42 4.01205 105.536 4.01205ZM52.666 4.01205H32.198C31.28 4.01205 30.532 4.72605 30.532 5.67805V6.76605C30.532 7.71805 31.28 8.43205 32.198 8.43205H39.508V27.6421C39.508 28.5601 40.256 29.2741 41.174 29.2741H43.792C44.676 29.2741 45.458 28.5261 45.458 27.6421V8.43205H52.666C53.584 8.43205 54.332 7.71805 54.332 6.76605V5.67805C54.332 4.72605 53.584 4.01205 52.666 4.01205ZM14.178 3.46805C5.168 3.46805 0 7.27605 0 16.6261C0 26.0101 5.168 29.8181 14.178 29.8181C23.188 29.8181 28.356 26.0101 28.356 16.6261C28.356 7.27605 23.188 3.46805 14.178 3.46805ZM14.178 25.0581C8.772 25.0581 6.63 22.0661 6.63 16.6261C6.63 11.2201 8.772 8.22805 14.178 8.22805C19.584 8.22805 21.726 11.2201 21.726 16.6261C21.726 22.0661 19.584 25.0581 14.178 25.0581ZM77.962 24.8541H65.416L77.792 10.3021C78.506 9.58805 79.458 8.73805 79.458 7.14005V5.67805C79.458 4.72605 78.744 4.01205 77.792 4.01205H58.99C58.072 4.01205 57.358 4.72605 57.358 5.67805V6.83405C57.358 7.75205 58.072 8.50005 58.99 8.50005H71.91L59.024 22.8481C58.242 23.6301 57.358 24.5481 57.358 26.2141V27.6081C57.358 28.5261 58.072 29.2741 59.024 29.2741H77.962C78.914 29.2741 79.628 28.5261 79.628 27.6081V26.4861C79.628 25.5681 78.914 24.8541 77.962 24.8541ZM134.946 4.01205H131.104C130.152 4.01205 129.404 4.76005 128.996 5.67805L122.808 21.9301L116.552 5.67805C116.144 4.76005 115.396 4.01205 114.444 4.01205H110.602C109.786 4.01205 109.072 4.72605 109.446 5.50805L119.238 27.4721C119.748 28.5261 120.496 29.2741 121.754 29.2741H123.692C124.95 29.2741 125.698 28.5261 126.208 27.4721L136.102 5.50805C136.476 4.72605 135.762 4.01205 134.946 4.01205Z" fill="white"/>
<path fill-rule="evenodd" clip-rule="evenodd" d="M150.858 5.984H148.682V7.718H150.858C151.436 7.718 152.184 7.514 152.184 6.834C152.184 6.188 151.436 5.984 150.858 5.984ZM154.156 0C146.166 0 139.672 3.468 139.672 7.752C139.672 10.302 141.95 12.546 145.486 13.94C145.52 14.518 145.52 15.096 145.418 15.64C145.044 17.918 142.358 19.21 142.358 19.21C142.358 19.21 145.452 18.87 147.832 17.476C148.92 16.864 149.838 15.98 150.518 15.232C151.674 15.402 152.898 15.504 154.156 15.504C162.146 15.504 168.64 12.036 168.64 7.752C168.64 3.468 162.146 0 154.156 0ZM154.088 11.832H152.864C152.592 11.832 152.252 11.628 152.082 11.356L151.198 9.996C150.96 9.588 150.586 9.18 149.906 9.18H148.682V11.356C148.682 11.628 148.478 11.832 148.206 11.832H147.22C146.982 11.832 146.744 11.628 146.744 11.356V4.998C146.744 4.726 146.948 4.522 147.22 4.522H151.436C152.966 4.522 154.088 5.406 154.088 6.834C154.088 7.99 153.238 8.5 152.184 8.704C152.592 8.874 152.898 9.214 153.34 9.894L154.258 11.356C154.428 11.628 154.36 11.832 154.088 11.832ZM162.452 8.942C162.452 10.778 161.364 11.866 159.222 11.866H158.304C156.162 11.866 155.108 10.778 155.108 8.942V4.998C155.108 4.726 155.312 4.522 155.584 4.522H156.536C156.808 4.522 157.012 4.726 157.012 4.998V8.942C157.012 9.962 157.42 10.438 158.372 10.438H159.188C160.106 10.438 160.514 9.962 160.514 8.942V4.998C160.514 4.726 160.752 4.522 160.99 4.522H161.942C162.214 4.522 162.452 4.726 162.452 4.998V8.942Z" fill="white"/>
</svg>
