<svg width="44" height="53" viewBox="0 0 44 53" fill="none" xmlns="http://www.w3.org/2000/svg"><path d="M6 23.58C6.005-.762 5.97.54 6.626.173c.241-.135 3.6-.166 18.343-.17 19.863-.005 18.605-.055 18.885.759.194.563.194 45.3 0 45.864-.244.708-.512.763-3.743.763h-2.843v-2.307h4.44V2.305l-16.687-.032c-13.286-.025-16.7 0-16.748.125-.032.086-.044 9.725-.027 21.42l.032 21.263 7.803.032 7.802-.032v2.307h-8.456c-9.312 0-9.023.024-9.294-.763-.099-.285-.136-6.78-.133-23.044Z" fill="#fff"/><path d="M13.891 10.245V8h19.985v2.245H13.89Zm0 6.859v-2.245h22.205v2.245H13.891Zm0 6.734v-2.245h16.654v2.245H13.89Zm0 6.735v-2.245h6.662v2.245h-6.661Z" fill="#3D5F95"/><path fill-rule="evenodd" clip-rule="evenodd" d="m37.33 44.841-.033-2.275c-.03-2.077-.012-2.319.216-2.77.272-.539.337-1.63.13-2.18-.102-.27-.059-.41.275-.889.34-.488.402-.694.438-1.465.052-1.115-.264-1.805-1.125-2.455-.52-.392-.579-.488-.581-.935-.004-.685-.357-1.41-.95-1.95-.614-.56-1.213-.768-2.045-.71-.578.04-.67.01-.935-.306-.971-1.16-2.934-1.215-4.018-.112-.44.447-.52.48-1.013.425a2.865 2.865 0 0 0-2.08.63c-.546.454-1.043 1.461-1.045 2.114 0 .406-.065.509-.502.8-1.256.841-1.582 2.637-.717 3.957.348.53.364.605.227 1.025-.182.558-.105 1.486.169 2.042.17.344.205.824.205 2.767v4.594h2.226c-.002-.445-.001-.983 0-1.633.004-3.53.018-3.766.2-3.417.106.205.34.535.519.733.752.832 2.223 1.105 3.232.6l.52-.26.491.253c1.228.634 2.895.137 3.616-1.077l.296-.499.002 3.648c0 .594-.003 1.156-.007 1.652h2.228l.062-2.307Zm-3.937-13.314c-.92.16-1.48-.047-2.089-.773-.261-.311-.572-.566-.69-.566s-.448.28-.733.621c-.612.734-1.006.872-2.017.707-.526-.085-.763-.078-.868.028-.08.08-.18.576-.222 1.1-.072.888-.106.98-.506 1.337a5.27 5.27 0 0 1-.82.597c-.49.266-.517.686-.071 1.106.694.656.826 1.352.455 2.398-.276.778-.15.982.717 1.158.367.075.796.215.954.312.304.186.671.819.806 1.388.143.599.489.663 1.238.229.77-.446 1.321-.483 1.926-.13.937.544.967.553 1.217.324.128-.117.303-.465.388-.771.168-.609.67-1.128 1.21-1.25 1.42-.323 1.468-.38 1.109-1.333-.367-.973-.3-1.328.41-2.207.58-.715.452-1.051-.628-1.652-.486-.27-.747-.886-.747-1.76 0-.891-.153-1.018-1.04-.863Zm-9.447 15.621v4.883l.36.365c.416.42.907.474 1.37.152.168-.117 1.252-.979 2.408-1.916 1.156-.936 2.216-1.775 2.355-1.863.232-.146.473.018 2.816 1.916 1.737 1.407 2.659 2.075 2.862 2.075.39 0 .978-.31 1.076-.566.042-.111.076-1.292.076-2.624v-2.422h-2.228c-.01 1.182-.03 1.996-.053 1.996-.034 0-.932-.702-1.997-1.56-.197-.158-.379-.304-.546-.436h-3.623c-.941.75-2.146 1.72-2.44 1.973-.167.145-.205.048-.21-1.973h-2.226Z" fill="#3D5F95"/><path d="M28.822 47.148h3.623c-1.582-1.25-1.872-1.317-2.457-.91-.11.075-.588.451-1.166.91Z" fill="#3D5F95"/></svg>