<svg width="211" height="75" viewBox="0 0 211 75" fill="none" xmlns="http://www.w3.org/2000/svg">
<path d="M210.105 0H0.105469V74.9999H210.105V0Z" fill="#C10F3B"/>
<path fill-rule="evenodd" clip-rule="evenodd" d="M16.8999 19.9388H27.9745V33.5555L39.441 19.9388H54.107L41.1779 33.8662L54.6947 56.7228H41.0865L33.6555 41.8228L28.1051 47.7126L28.0137 56.7228H16.8999V19.9388Z" fill="white"/>
<path fill-rule="evenodd" clip-rule="evenodd" d="M73.984 56.7499H82.2899L89.0549 29.3949V56.7499H98.1705V19.9388H83.6481L78.2153 41.8228L72.6519 19.9388H57.9336V56.5742H67.2452L67.2321 29.5975L73.984 56.7499Z" fill="white"/>
<path d="M115.187 46.5372H104.322V56.7498H115.187V46.5372Z" fill="#FEE9B2"/>
<path fill-rule="evenodd" clip-rule="evenodd" d="M150.527 44.6731C149.169 42.3226 147.693 41.2419 145.904 40.7421C145.839 40.7286 145.8 40.6746 145.774 40.6206C145.734 40.5125 145.813 40.3909 145.93 40.3774C146.753 40.2693 149.757 39.6209 152.212 36.1762C154.445 33.0422 154.302 26.7607 152.277 24.14C152.277 24.1265 152.264 24.1265 152.264 24.113C150.031 19.9253 142.6 19.9118 142.796 19.9388H121.835C121.731 19.9388 121.652 20.0199 121.652 20.128V56.5607C121.652 56.6688 121.731 56.7499 121.835 56.7499H132.727C132.831 56.7499 132.91 56.6688 132.91 56.5607L132.74 41.9579C132.74 41.8633 132.805 41.7823 132.897 41.7688C134.673 41.5256 136.501 42.7144 137.115 43.4303C137.128 43.4439 137.128 43.4439 137.141 43.4574L138.643 46.024C138.643 46.024 138.643 46.024 138.643 46.0375L144.063 56.4932C144.089 56.5607 144.18 56.7499 144.18 56.7499H156.678C156.678 56.7363 151.154 45.7538 150.527 44.6731ZM139.152 34.6092H132.622V27.301H139.152C139.152 27.301 142.718 27.166 142.665 30.9619C142.626 34.7443 139.152 34.6092 139.152 34.6092Z" fill="#FEE9B2"/>
<path fill-rule="evenodd" clip-rule="evenodd" d="M160.23 19.9254H170.939L170.979 43.0927C170.979 43.0927 171.501 48.7393 176.751 48.7393C182.001 48.7393 182.68 45.916 182.85 43.3629C182.863 41.9175 183.085 19.9254 183.085 19.9254H193.938V42.4038C193.938 42.4038 194.068 57.574 177.091 57.5064C160.113 57.4389 160.244 43.7817 160.244 43.7817V19.9254H160.23Z" fill="#FEE9B2"/>
</svg>
