<svg width="157" height="65" fill="none" xmlns="http://www.w3.org/2000/svg"><g clip-path="url(#a)"><path fill-rule="evenodd" clip-rule="evenodd" d="M7.22 33.99c-2.375 0-4.18-.48-5.415-1.536C.57 31.494 0 29.959 0 27.943v-3.167c0-4.032 2.375-6.047 7.22-6.047h13.302v5.279H7.98c-.855 0-1.52.192-1.995.48-.475.288-.666.863-.666 1.535v.672c0 .672.19 1.152.666 1.536.475.288 1.14.48 1.995.48h5.89c2.47 0 4.276.48 5.51 1.536 1.236 1.055 1.806 2.591 1.806 4.51v3.264c0 4.031-2.47 6.047-7.316 6.047H0l5.225-5.28h7.981c.855 0 1.52-.191 1.995-.48.475-.287.665-.863.665-1.439v-.768c0-.672-.19-1.151-.665-1.44-.38-.383-1.045-.48-1.995-.48H7.221v-.191Zm16.532-15.261h5.32v13.725l3.706-3.743h6.745v-9.982h5.321v25.339h-5.32V33.99H29.072v10.078h-5.32v-25.34Zm37.624 0c2.47 0 4.275.48 5.51 1.536 1.235.96 1.805 2.495 1.805 4.51v3.168c0 2.015-.57 3.551-1.805 4.511-1.235 1.056-3.04 1.536-5.51 1.536h-8.551v10.078h-5.32v-25.34h13.87Zm1.995 7.966v-.672c0-.672-.19-1.151-.665-1.535-.38-.384-1.046-.48-1.996-.48h-7.79v8.446l3.61-3.743h4.18c.855 0 1.52-.192 1.996-.48.38-.384.665-.864.665-1.536Zm7.98-7.966h5.32v25.339h-5.32v-25.34Zm78.668 0h5.32v25.339h-6.461l-9.405-16.509v16.509h-5.321v-25.34h6.461l9.406 16.413V18.73Z" fill="#fff"/><path fill-rule="evenodd" clip-rule="evenodd" d="M98.675 2.836c.669-.282 17.582-.094 18.442.282-1.911.376-3.822.751-5.638 1.127.478.282 4.778.94 5.543 1.127-1.625.564-3.345 1.127-4.969 1.69 2.102.188 4.204.376 6.211.564-.956.845-3.822 1.315-5.256 2.066 2.389.094 4.874.094 7.262.188-7.548 1.033-15.097 2.16-22.55 3.194.764-.564 4.777-1.221 5.351-1.785l-6.307-.563c1.242-.752 5.256-1.034 6.689-1.879-2.102-.282-4.205-.47-6.307-.751 1.147-.282 5.925-1.315 6.498-1.69-1.242-.283-5.256-.658-6.02-1.222 2.102-.376 4.204-.845 6.307-1.22a58.91 58.91 0 0 0-5.256-1.128Zm4.013 22.26c.287.939.669 1.878.956 2.723.382-.375 1.624-1.315 2.198-1.502.669.375 1.911 1.314 2.484 1.69 2.867-1.69 5.638-3.381 8.504-5.072-.955 0-1.815.094-2.771.094h-2.293c.669-.375 1.433-.657 2.102-.939.478-.188.669-.282 1.147-.47.382-.187.669-.375 1.051-.563-1.338 0-2.675.188-4.013.282-2.007.094-1.72.188-3.345.939-2.197 1.033-4.3 1.972-6.02 2.818Zm-9.746-8.453c1.433-.282 2.867-.564 4.3-.94-4.205 2.067-12.423 5.542-16.818 8.453 1.146.282 5.733 1.127 6.689.94 1.815-.282 4.395-1.221 6.21-1.41-.19 3.1-1.432 3.006.096 4.603.765.845 2.198 2.348 2.39 3.569.382 3.1.382 2.536-.86 4.696-1.147 1.785-2.294 3.57-3.44 5.447-.478.658-.956 1.315-1.243 2.067 2.102-.752 6.402-4.039 9.46-5.354.956-.375 2.007-.563 3.058-.939-.956-1.033-2.007-2.066-2.962-3.193-1.242-1.315-1.53-1.879-1.625-4.415.287 0 .574 0 .765.094.955.282 1.72 2.254 3.058 2.818-.574-2.442-1.243-4.884-1.816-7.232-1.338-.282-2.771-.47-4.109-.751.096-.282.096-.282.669-.752.669-.563 1.433-1.033 2.102-1.597.86-.657 10.702-2.535 12.231-2.911a123.35 123.35 0 0 0 4.205-.94c2.484-.563 1.72-.657 3.535.658 2.676 1.973 3.058 1.127 3.058 7.044l1.911-1.22c.382-.376.764-1.128 1.147-1.691 1.624-2.348 1.433-3.288 1.624-7.232 1.147-.188 9.364-1.973 10.033-2.348-.286-.47-1.242-1.503-1.72-1.879-.382-.281-.669-.188-1.815-.188-1.051 0-2.102.094-3.154.094-2.484 0-4.968 0-7.453.094 1.147-.375 2.198-.845 3.345-1.22-2.007-3.288-4.014-6.575-6.211-9.956-.287-.376-.192-.47-1.052-.564-3.344-.282-23.41-.563-23.793-.47-.669 5.542-1.242 11.083-1.815 16.625Z" fill="#3D5F95"/><path fill-rule="evenodd" clip-rule="evenodd" d="M109.647 37.321c4.574-2.763 10.27-6.262 11.763-7.091-1.307 1.29-2.52 2.67-3.828 3.96 1.308-.276 2.521-1.381 3.922-1.658-.841 1.013-3.361 3.408-4.202 4.329.841-.184 1.588-.369 2.428-.553-2.521 2.487-6.816 6.355-10.083 9.21v3.315c4.481-3.868 10.923-9.21 12.697-11.972 1.4-2.026 2.334-4.513 3.361-6.631 1.4-3.039 3.548-7.183 4.295-8.196-2.708 1.473-9.71 5.618-11.484 6.63 0-.92 0-3.96-.373-4.42-.654 1.75-1.494 3.592-2.148 5.341-.56 1.474-.653 1.29-1.867 2.026-.934.553-2.614 1.474-4.481 2.671v3.04Zm-11.764 7.276c1.4-1.014 4.388-2.763 5.882-3.684.84-.553 3.174-2.026 5.882-3.592v-3.039c-6.816 4.144-18.02 10.96-18.207 11.42 4.762 1.934 10.084 4.604 14.845 6.078.841-.737 2.054-1.75 3.362-2.947v-3.316a26.332 26.332 0 0 1-3.081 2.395c.373-1.197 1.4-1.934 2.147-3.408-.934.277-4.015 2.395-5.322 3.04.747-1.474 2.334-2.947 2.988-4.329-1.587.921-4.108 2.67-5.509 3.131.841-1.013 3.175-3.5 3.548-4.328-1.494.737-5.041 2.118-6.535 2.578Z" fill="#3D5F95"/><path d="M4.003 53.983H5.79l2.986 7.87h1.035V65h-1.71v-1.433H1.71V65H0v-3.147h1.03l2.973-7.87Zm.909 2.54-2.033 5.33h4.06l-2.027-5.33ZM17.653 60.537h-5.537c.08.504.293.906.638 1.206.349.295.793.442 1.332.442.644 0 1.197-.232 1.66-.697l1.452.704c-.361.53-.795.923-1.3 1.18-.505.251-1.105.377-1.8.377-1.077 0-1.955-.35-2.632-1.049-.678-.704-1.017-1.583-1.017-2.638 0-1.082.337-1.979 1.01-2.691.678-.717 1.526-1.075 2.545-1.075 1.082 0 1.961.358 2.639 1.075.678.712 1.016 1.655 1.016 2.827l-.006.34Zm-1.73-1.4a1.778 1.778 0 0 0-.675-.965 1.892 1.892 0 0 0-1.162-.371c-.48 0-.9.139-1.263.417-.227.173-.438.48-.631.918h3.731ZM18.442 56.478h6.402v1.694h-2.279v5.395h-1.73v-5.395h-2.393v-1.694ZM32.856 60.537H27.32c.08.504.293.906.638 1.206.35.295.793.442 1.332.442.644 0 1.198-.232 1.66-.697l1.453.704c-.362.53-.796.923-1.3 1.18-.506.251-1.106.377-1.8.377-1.078 0-1.955-.35-2.633-1.049-.678-.704-1.017-1.583-1.017-2.638 0-1.082.337-1.979 1.01-2.691.678-.717 1.527-1.075 2.545-1.075 1.082 0 1.962.358 2.64 1.075.677.712 1.016 1.655 1.016 2.827l-.007.34Zm-1.73-1.4a1.777 1.777 0 0 0-.675-.965 1.892 1.892 0 0 0-1.162-.371c-.48 0-.9.139-1.263.417-.227.173-.437.48-.63.918h3.73ZM34.258 56.478h1.724v2.652l2.374-2.652h2.102l-3.062 3.453 3.1 3.636h-2.285l-2.046-2.502-.183.221v2.28h-1.724v-7.088ZM40.59 56.478h6.403v1.694h-2.28v5.395h-1.73v-5.395h-2.392v-1.694ZM49.032 63.567h-.915v-7.089h1.68v4.163l3.516-4.163h.827v7.089h-1.68v-4.079l-3.428 4.079ZM55.889 63.567v-7.089h2.759c.905 0 1.52.185 1.843.554.325.365.487.78.487 1.244 0 .691-.333 1.188-.998 1.492.91.322 1.364.928 1.364 1.818 0 .482-.12.882-.36 1.199-.24.313-.545.521-.916.625-.366.105-.88.157-1.54.157h-2.64Zm1.73-4.3h.663c.282 0 .499-.072.65-.215.156-.148.234-.31.234-.489 0-.265-.074-.471-.221-.619a.715.715 0 0 0-.524-.221l-.221.006h-.581v1.538Zm0 2.931h.865c.337 0 .572-.08.707-.24.139-.166.208-.326.208-.483 0-.23-.078-.44-.233-.632-.152-.19-.428-.286-.827-.286h-.72v1.642ZM64.532 59.032h2.564v-2.554h1.73v7.089h-1.73v-2.939h-2.564v2.939h-1.73v-7.089h1.73v2.554ZM73.8 56.296c.649 0 1.257.167 1.825.502a3.563 3.563 0 0 1 1.339 1.361c.32.574.48 1.192.48 1.857 0 .669-.162 1.294-.486 1.876a3.544 3.544 0 0 1-1.314 1.368 3.567 3.567 0 0 1-1.837.49c-.985 0-1.827-.361-2.525-1.082-.695-.726-1.042-1.605-1.042-2.639 0-1.108.393-2.03 1.18-2.769.69-.643 1.484-.964 2.38-.964Zm.026 1.674c-.535 0-.98.194-1.338.58-.354.382-.53.873-.53 1.473 0 .616.174 1.116.523 1.498.354.382.8.573 1.339.573.539 0 .987-.193 1.345-.58.357-.386.536-.883.536-1.492 0-.608-.177-1.1-.53-1.478-.35-.383-.798-.574-1.345-.574ZM85.74 60.537h-5.537c.08.504.292.906.638 1.206.349.295.793.442 1.332.442.644 0 1.197-.232 1.66-.697l1.452.704c-.362.53-.795.923-1.3 1.18-.505.251-1.105.377-1.8.377-1.077 0-1.955-.35-2.633-1.049-.677-.704-1.016-1.583-1.016-2.638 0-1.082.337-1.979 1.01-2.691.678-.717 1.526-1.075 2.545-1.075 1.081 0 1.961.358 2.639 1.075.677.712 1.016 1.655 1.016 2.827l-.006.34Zm-1.73-1.4a1.778 1.778 0 0 0-.676-.965 1.892 1.892 0 0 0-1.161-.371c-.48 0-.901.139-1.263.417-.227.173-.438.48-.631.918h3.731ZM95.842 56.478h1.717v7.089h-1.717v-.75c-.337.33-.676.57-1.017.717a2.776 2.776 0 0 1-1.098.215c-.888 0-1.657-.354-2.305-1.062-.648-.712-.972-1.596-.972-2.651 0-1.095.313-1.992.94-2.691.628-.7 1.39-1.05 2.286-1.05.413 0 .8.081 1.162.242.362.16.697.402 1.004.723v-.782Zm-1.812 1.46a1.72 1.72 0 0 0-1.332.586c-.354.387-.53.884-.53 1.492 0 .612.178 1.116.536 1.512.362.395.806.592 1.332.592.543 0 .993-.193 1.351-.58.358-.39.537-.9.537-1.53 0-.617-.179-1.117-.537-1.499-.358-.382-.81-.573-1.357-.573ZM99.295 56.478h4.01v1.694h-2.28v5.395h-1.73v-7.089ZM111.361 60.537h-5.537c.08.504.292.906.637 1.206.35.295.794.442 1.333.442a2.26 2.26 0 0 0 1.66-.697l1.452.704c-.362.53-.795.923-1.3 1.18-.505.251-1.105.377-1.8.377-1.077 0-1.955-.35-2.633-1.049-.677-.704-1.016-1.583-1.016-2.638 0-1.082.337-1.979 1.01-2.691.678-.717 1.526-1.075 2.545-1.075 1.081 0 1.961.358 2.639 1.075.677.712 1.016 1.655 1.016 2.827l-.006.34Zm-1.73-1.4a1.78 1.78 0 0 0-.676-.965 1.889 1.889 0 0 0-1.161-.371c-.48 0-.901.139-1.263.417-.227.173-.438.48-.631.918h3.731ZM114.486 59.032h2.564v-2.554h1.73v7.089h-1.73v-2.939h-2.564v2.939h-1.73v-7.089h1.73v2.554ZM119.916 56.478h6.402v1.694h-2.279v5.395h-1.73v-5.395h-2.393v-1.694ZM134.172 57.912l-1.433.814c-.269-.291-.537-.493-.802-.606a2.308 2.308 0 0 0-.922-.17c-.644 0-1.165.2-1.565.6-.396.395-.594.904-.594 1.525 0 .603.192 1.096.575 1.478.383.383.886.574 1.509.574.77 0 1.37-.272 1.799-.815l1.358.958c-.737.986-1.777 1.48-3.119 1.48-1.208 0-2.156-.37-2.842-1.108-.681-.739-1.022-1.603-1.022-2.594 0-.686.166-1.318.498-1.895a3.582 3.582 0 0 1 1.389-1.362 4.072 4.072 0 0 1 2.002-.495c.682 0 1.294.141 1.837.423.543.278.987.676 1.332 1.193ZM135.119 56.478h6.402v1.694h-2.279v5.395h-1.73v-5.395h-2.393v-1.694ZM142.652 63.567v-7.089h2.759c.905 0 1.519.185 1.843.554.324.365.486.78.486 1.244 0 .691-.332 1.188-.997 1.492.909.322 1.364.928 1.364 1.818 0 .482-.12.882-.36 1.199-.24.313-.545.521-.916.625-.366.105-.879.157-1.54.157h-2.639Zm1.73-4.3h.662c.282 0 .499-.072.651-.215.156-.148.233-.31.233-.489 0-.265-.073-.471-.221-.619a.715.715 0 0 0-.524-.221l-.221.006h-.58v1.538Zm0 2.931h.865c.336 0 .572-.08.707-.24.139-.166.208-.326.208-.483 0-.23-.078-.44-.234-.632-.151-.19-.427-.286-.827-.286h-.719v1.642ZM152.798 56.296c.648 0 1.256.167 1.824.502a3.56 3.56 0 0 1 1.339 1.361c.32.574.48 1.192.48 1.857 0 .669-.162 1.294-.486 1.876a3.544 3.544 0 0 1-1.314 1.368 3.565 3.565 0 0 1-1.837.49c-.985 0-1.827-.361-2.525-1.082-.695-.726-1.042-1.605-1.042-2.639 0-1.108.393-2.03 1.18-2.769.691-.643 1.484-.964 2.381-.964Zm.025 1.674a1.75 1.75 0 0 0-1.339.58c-.353.382-.53.873-.53 1.473 0 .616.175 1.116.524 1.498.354.382.8.573 1.339.573.538 0 .987-.193 1.344-.58.358-.386.537-.883.537-1.492 0-.608-.177-1.1-.53-1.478-.35-.383-.798-.574-1.345-.574Z" fill="#FAFAFA"/></g><defs><clipPath id="a"><path fill="#fff" d="M0 0h156.441v65H0z"/></clipPath></defs></svg>