<svg width="478" height="95" fill="none" xmlns="http://www.w3.org/2000/svg"><g filter="url(#a)" fill="#1B1C20"><path d="M36.014 94.82c-9.013 0-16.597-1.993-22.75-5.98-6.153-4.073-10.487-9.577-13-16.51l15.34-8.97c3.553 9.273 10.53 13.91 20.93 13.91 5.027 0 8.71-.91 11.05-2.73 2.34-1.82 3.51-4.117 3.51-6.89 0-3.207-1.43-5.677-4.29-7.41-2.86-1.82-7.973-3.77-15.34-5.85-4.073-1.213-7.54-2.426-10.4-3.64-2.773-1.213-5.59-2.816-8.45-4.81a20.619 20.619 0 0 1-6.37-7.8c-1.473-3.12-2.21-6.76-2.21-10.92 0-8.233 2.903-14.776 8.71-19.63C18.637 2.65 25.701.18 33.934.18c7.367 0 13.824 1.82 19.37 5.46 5.633 3.554 10.01 8.537 13.13 14.95l-15.08 8.71c-3.64-7.8-9.447-11.7-17.42-11.7-3.726 0-6.673.867-8.84 2.6-2.08 1.647-3.12 3.814-3.12 6.5 0 2.86 1.17 5.2 3.51 7.02 2.427 1.733 7.02 3.64 13.78 5.72 2.773.867 4.853 1.56 6.24 2.08 1.474.433 3.424 1.17 5.85 2.21 2.514.954 4.42 1.864 5.72 2.73 1.387.867 2.947 2.037 4.68 3.51 1.733 1.474 3.033 2.99 3.9 4.55.954 1.56 1.734 3.467 2.34 5.72.694 2.167 1.04 4.55 1.04 7.15 0 8.407-3.077 15.08-9.23 20.02-6.067 4.94-13.997 7.41-23.79 7.41ZM137.04 2h17.81v91h-17.81V55.3h-33.8V93H85.3V2h17.94v36.14h33.8V2Zm73.845 0c8.754 0 16.12 2.947 22.1 8.84s8.97 13.13 8.97 21.71-2.99 15.817-8.97 21.71c-5.98 5.894-13.346 8.84-22.1 8.84h-15.99V93h-17.94V2h33.93Zm0 44.33c3.814 0 6.977-1.3 9.49-3.9 2.514-2.687 3.77-5.98 3.77-9.88 0-3.986-1.256-7.28-3.77-9.88-2.513-2.6-5.676-3.9-9.49-3.9h-15.99v27.56h15.99ZM258.835 2h17.94v91h-17.94V2ZM375.39 81.17c-9.186 9.1-20.366 13.65-33.54 13.65-13.173 0-24.353-4.55-33.54-13.65-9.1-9.186-13.65-20.41-13.65-33.67 0-13.26 4.55-24.44 13.65-33.54C317.497 4.774 328.677.18 341.85.18c13.174 0 24.354 4.594 33.54 13.78 9.187 9.1 13.78 20.28 13.78 33.54 0 13.26-4.593 24.484-13.78 33.67Zm-54.47-12.22c5.634 5.547 12.61 8.32 20.93 8.32s15.297-2.773 20.93-8.32c5.634-5.633 8.45-12.783 8.45-21.45 0-8.666-2.816-15.817-8.45-21.45-5.633-5.633-12.61-8.45-20.93-8.45s-15.296 2.817-20.93 8.45c-5.633 5.633-8.45 12.784-8.45 21.45 0 8.667 2.817 15.817 8.45 21.45ZM459.629 2h17.94v91h-13.65l-39-55.64V93h-17.94V2h13.65l39 55.51V2Z"/></g><defs><filter id="a" x=".264" y=".18" width="481.305" height="97.64" filterUnits="userSpaceOnUse" color-interpolation-filters="sRGB"><feFlood flood-opacity="0" result="BackgroundImageFix"/><feBlend in="SourceGraphic" in2="BackgroundImageFix" result="shape"/><feColorMatrix in="SourceAlpha" values="0 0 0 0 0 0 0 0 0 0 0 0 0 0 0 0 0 0 127 0" result="hardAlpha"/><feOffset dx="4" dy="3"/><feGaussianBlur stdDeviation="3.5"/><feComposite in2="hardAlpha" operator="arithmetic" k2="-1" k3="1"/><feColorMatrix values="0 0 0 0 0 0 0 0 0 0 0 0 0 0 0 0 0 0 0.25 0"/><feBlend in2="shape" result="effect1_innerShadow_163_2062"/></filter></defs></svg>