<svg width="293" height="68" viewBox="0 0 293 68" fill="none" xmlns="http://www.w3.org/2000/svg">
<path fill-rule="evenodd" clip-rule="evenodd" d="M118.435 37.0139L104.651 47.2999L107.05 37.0418H100.12L93.2524 65.7409H100.889L102.942 56.2901L106.701 53.9076L113.139 65.7409H121.803L112.806 49.0703L121.586 43.0047H132.137L127.101 65.7409H134.344L139.633 43.0047H150.122L151.529 37.0133H130.253H122.188H118.435V37.0139ZM158.095 60.0341C158.095 60.0341 157.084 60.0341 155.657 60.0341L157.369 52.012C158.396 52.012 157.875 52.012 159.837 52.012C166.29 51.914 163.725 60.0789 158.095 60.0341ZM158.759 45.8784C159.143 44.1178 160.313 36.8943 160.313 36.8943H152.965L146.477 65.7409H156.978C172.28 65.4277 178.216 44.7251 158.759 45.8784ZM98.0122 34.2049L104.045 10.955H112.825L117.51 23.1062L108.375 34.1375L116.641 34.1239L136.66 9.94265L131.483 34.2049H138.189L142.331 18.3447L144.44 34.2049H151.952L161.583 17.7334L157.811 34.2049H165.025L172.057 4.84123H161.65L150.717 23.3368L148.379 4.84123H140.875H137.744H132.492L123.147 16.0176L118.249 4.84123H97.6401L90.9963 34.2049H98.0122ZM219.537 15.7601H207.382L209.927 4.84123H202.31L195.651 34.1199H203.288L205.894 22.0945H218.029L215.778 34.1199H222.873L229.471 4.84123H222.365L219.537 15.7601ZM175.879 36.8943L169.129 65.7409H177.187L183.818 36.8943H175.879ZM194.029 21.9568L195.234 16.0663L180.238 16.0591L181.586 10.324H199.169L200.306 4.84123H174.873L167.981 34.2049H193.416L194.989 27.3428L177.591 27.3052L178.851 21.9568H194.029ZM71.1813 34.2049L73.608 25.5881C74.7931 25.5881 82.5259 25.5881 82.5259 25.5881C91.579 24.9716 97.5214 14.6126 92.1827 7.43181C90.3972 5.95241 88.3654 4.80173 85.4623 4.84123H70.8981L64.0821 34.2049H71.1813ZM85.5737 55.3535L81.6145 55.2553L87.0027 49.521L85.5737 55.3535ZM89.0097 37.0418L63.8838 65.7409H71.7841C71.7841 65.7409 75.3511 61.8815 75.8427 61.4034H84.0864L83.0161 65.7409H90.8892L97.703 37.0139L89.0097 37.0418ZM57.5064 51.7288L59.3813 43.3203C60.4847 43.3203 66.4344 43.3203 66.4344 43.3203C71.7484 43.5871 68.9978 51.7288 64.8439 51.7288C64.8446 51.7288 59.1726 51.7288 57.5064 51.7288ZM54.8587 25.6987H44.8098L57.5699 11.4681L54.8587 25.6987ZM49.0537 51.7591C47.8686 51.7591 41.4122 51.7591 41.4122 51.7591C37.5876 51.2151 38.1413 42.8109 44.6279 43.2848C44.6279 43.2848 49.1355 43.2848 50.711 43.2848L49.0537 51.7591ZM67.9021 37.2257C67.9021 37.2257 62.239 37.2257 60.5793 37.2257C61.0539 35.1421 68.5782 0 68.5782 0H58.1321L11.0076 52.4481L14.4826 37.2405H7.18329L0 65.7409H8.1298L21.3845 50.9555L18.2104 65.7409H25.581C25.581 65.7409 32.306 39.7101 32.3927 39.3062C32.6439 39.0685 38.7578 32.491 39.1762 32.007H53.1017L52.3756 37.2353C51.2683 37.2353 43.7473 37.2353 43.7473 37.2353C39.4723 37.3057 34.2523 40.2269 32.0621 44.5295C31.6266 45.7303 31.2588 47.1722 31.2005 48.6963C31.137 50.5401 31.4639 52.5455 32.5068 54.1487C33.4023 55.6722 36.8771 57.7175 40.7404 57.7175C40.7404 57.7175 45.5508 57.7175 47.6833 57.7175C47.3079 59.4029 45.1089 68 45.1089 68H53.4649C53.4649 68 55.7689 58.8654 56.1269 57.6668C57.2284 57.6668 63.9414 57.6668 63.9414 57.6668C76.3372 58.1113 83.4238 39.147 67.9021 37.2257ZM74.7574 19.5494L76.6329 11.1401C77.735 11.1401 83.6768 11.1401 83.6768 11.1401C88.996 11.4095 86.2409 19.5494 82.0961 19.5494C82.0961 19.5494 76.4156 19.5494 74.7574 19.5494ZM267.176 27.3052C267.176 27.3052 266.155 27.3052 264.735 27.3052L266.454 19.2886C267.476 19.2886 266.954 19.2886 268.913 19.2886C276.906 19.5046 272.12 27.549 267.176 27.3052ZM268.081 12.9594C268.451 11.1994 269.837 4.86497 269.837 4.86497L262.496 4.84123L255.882 34.1199H266.035C281.512 33.8247 287.563 11.9984 268.081 12.9594ZM260.706 4.96375H231.723L230.312 10.955H240.766L235.269 34.1199H243.241L248.82 10.955H259.298L260.706 4.96375ZM285.267 4.84123L278.427 34.1199H286.481L293 4.84123H285.267Z" fill="#DA2429"/>
</svg>
