<svg width="255" height="2" viewBox="0 0 255 2" fill="none" xmlns="http://www.w3.org/2000/svg"><path fill-rule="evenodd" clip-rule="evenodd" d="M2.452 1.5H0v-1h2.452v1Zm9.808 0H7.356v-1h4.904v1Zm9.807 0h-4.904v-1h4.904v1Zm9.808 0h-4.904v-1h4.904v1Zm9.808 0h-4.904v-1h4.904v1Zm9.807 0h-4.904v-1h4.904v1Zm9.808 0h-4.904v-1h4.904v1Zm9.808 0h-4.904v-1h4.904v1Zm9.808 0H76.01v-1h4.903v1Zm9.807 0h-4.904v-1h4.904v1Zm9.808 0h-4.904v-1h4.904v1Zm9.808 0h-4.904v-1h4.904v1Zm9.807 0h-4.904v-1h4.904v1Zm9.808 0h-4.904v-1h4.904v1Zm9.808 0h-4.904v-1h4.904v1Zm9.807 0h-4.904v-1h4.904v1Zm9.808 0h-4.904v-1h4.904v1Zm9.808 0h-4.904v-1h4.904v1Zm9.807 0h-4.904v-1h4.904v1Zm9.808 0h-4.904v-1h4.904v1Zm9.808 0h-4.904v-1h4.904v1Zm9.807 0h-4.903v-1h4.903v1Zm9.808 0h-4.904v-1h4.904v1Zm9.808 0h-4.904v-1h4.904v1Zm9.807 0h-4.903v-1h4.903v1Zm9.808 0h-4.904v-1h4.904v1Zm7.356 0h-2.452v-1H255v1Z" fill="#3C3C3D"/></svg>