<svg width="49" height="48" viewBox="0 0 49 48" fill="none" xmlns="http://www.w3.org/2000/svg"><g clip-path="url(#a)"><path fill-rule="evenodd" clip-rule="evenodd" d="m20.842 38.587.735-.014c.264.336.984 2.14 1.214 2.64.264.576.514.749.26 1.344-.222.504-.356.936-.591 1.397l-2.482.004c-.22-.36-.393-.936-.566-1.339-.279-.629-.029-.777.22-1.349l1.21-2.683Zm5.28-18.235c1.469-.95 3.552-.922 4.752-.5 1.239.442 2.472 1.143 3.413 2.79 1.742 3.062.336 6.686-2.323 8.14-3.11 1.704-6.595.39-8.127-2.284-.96-1.68-.888-3.408-.504-4.738.461-1.603 1.43-2.525 2.79-3.408Zm-3.456 8.674c.931 1.838 2.789 3.038 4.143 3.436 1.694.495 3.552.615 5.712-.528 3.374-1.78 4.9-6.158 2.913-9.868-1.752-3.27-6.192-4.973-9.873-2.89-3.39 1.915-4.839 6-2.895 9.85Zm2.227-10.584c4.167-2.482 9.245-.682 11.295 2.99 2.414 4.334.691 9.043-3.005 11.246-2.165 1.296-4.742 1.306-6.504.773l-1.349-.528c-5.688-2.899-6.177-11.073-.437-14.481Zm13.637 8.63c-.177-.83.883-4.109-2.443-7.94.845-.518 1.435-1.223 1.176-2.222-.24-.945-1.262-1.521-2.174-1.905a12.77 12.77 0 0 0-1.532-.528c-.499-.144-1.128-.24-1.622-.418-.24-3.7-.331-7.128-2.314-9.561-.796-.98-2.188-1.94-4.09-1.834-2.404.134-4.094 1.522-4.382 1.522-.086 0-1.646-.84-1.968-.97-.73-.293-1.564-.518-2.41-.552-1.929-.082-3.254.82-4.094 1.829-1.944 2.342-2.088 5.928-2.313 9.561-1.407.476-4.776.965-5.319 2.794-.71 2.39 3.452 3.14 4.503 3.547.13 1.752.206 2.789.734 4.359.49 1.459 1.301 3.048 2.15 4.214.193.264.36.432.36.883 0 .423-.009.85-.009 1.277 0 .533.086.7-.211 1.032l-2.693 2.458c-.557.288-1.21.518-1.795.763-.629.259-1.152.533-1.762.777-2.232.903-4.953 1.11-5.678 4.575-.23 1.104-.096 3.705-.096 4.992H41.75c0-3.72.744-7.46-3.792-8.87-.797-.25-5.011-1.877-5.467-2.228l-.149-.139a9.83 9.83 0 0 0 4.022-2.822c.188-.212.293-.418.5-.605.604.216 1.156.465 1.756.705.332.135 1.359.754 1.752.116.485-.788-.787-1.133-1.123-1.268-.523-.206-1.248-.456-1.699-.7.115-.303.235-.543.34-.816.097-.245.16-.552.342-.788l8.385 3.404c.86.552.293 1.905-.787 1.555-.662-.211-1.42-.567-2.088-.84-.38-.154-.686-.279-1.066-.427-.264-.11-.73-.384-1.128-.101-.388.283-.268.854.135 1.094.25.149.72.303 1.017.418.73.293 1.397.566 2.132.859.595.245 1.435.614 2.404.062 1.565-.888 1.397-3.283-.364-3.921-1.412-.509-2.78-1.114-4.172-1.675l-4.17-1.666Zm-3.816-9.22c-1.253-.918-2.784-1.513-4.401-1.72.868-.407.638-.455 2.016-.12.854.207 2.74.692 3.12 1.335-.188.183-.437.35-.735.504Zm-11.025-.164a9.412 9.412 0 0 0-2.17 2.02h-.37c-3.312 0-12.504-.489-14.299-2.36.346-.63 2.28-1.138 3.125-1.34 1.258-.302 1.027-.326 1.805.043 3.105 1.483 7.757 1.983 11.909 1.637Zm-3.26 3.806c-1.756 3.778-.883 8.51 2.43 11.314-.562.24-1.158.403-1.71.398-1.785 0-4.219-1.819-5.337-2.961-2.443-2.501-4.287-5.741-4.445-9.48 1.531.187 3.158.485 4.694.566 1.628.087 3.015.144 4.368.163Zm4.138 12.461a9.867 9.867 0 0 0 1.69.696l-.341.85c-.38-.14-1.92-.893-2.127-1.123.202-.173.504-.284.778-.423Zm3.485 1.066a9.465 9.465 0 0 0 2.213-.024c.158.168.268.302.292.37l-1.953 1.516c-.706.773.441 2.04.048 2.731l-2.64 4.35-1.565-.006 3.605-8.937Zm-13.786 8.928-11.885.014c-.11-.648-.062-2.654.106-3.216.634-2.117 2.65-2.155 4.162-2.774.37-.154 3.384-1.541 3.614-1.517.163.02 1.195.883 1.498 1.1.201.143.37.158.355.484-.015.413-.327 1.013-.312 1.498.024.672 2.246 3.715 2.462 4.41ZM30.28 37.91c.149-.22.936-.777 1.238-1.012.764-.596.6-.437 1.57-.044 1.104.447 2.05.946 3.278 1.388 1.517.542 3.5.816 3.572 3.412.019.557.062 1.8-.02 2.3l-11.745.01c.057-.284 1.368-2.353 1.622-2.775.922-1.512.994-1.31.485-3.279Zm-6.115 1.892c-1.114-2.088-.384-1.114-.322-2.17.024-.36 0-.758.01-1.123l1.349.657-1.037 2.636Zm-6.95-2.607 1.219-.633c.028.379-.01.796.024 1.137.048.48.216.552.436.778l-.566 1.31c-.202-.144-.984-2.217-1.114-2.592Zm4.838-1.617-.005 1.17-1.786.02a7.305 7.305 0 0 1-.024-.912c.034-.36.168-.317.495-.485.36-.182.571-.374 1.32.207Zm-10.186-.279c.269-.326.586-.533.912-.883.245-.269.667-.629.955-.864.125.13 3.994 9.586 4.263 10.392l-1.58.02-1.3-2.132c-.447-.744-.898-1.45-1.335-2.208-.408-.715.759-1.94.044-2.726l-1.47-1.143c-.35-.259-.45-.427-.489-.456Zm3.298-3.173 1.627 1.239c.802.58.95.561 1.57.902.052.029.081.048.13.082.076.057.071.062.105.1l-2.035 1.052c-.168-.178-1.272-2.981-1.397-3.375ZM30.11 14.227c-3.326 1.959-9.605 1.983-13.445 1.397-.739-.115-4.161-.893-4.45-1.426-.139-.259-.009-1.425.01-1.795.197-4.377 1.469-9.979 7.003-7.2 1.484.744 1.618 1.421 2.645.715 3.029-2.073 5.823-2.318 7.315 1.493.538 1.383 1.114 5.117.922 6.816Z" fill="#fff"/></g><defs><clipPath id="a"><path fill="#fff" transform="translate(.38)" d="M0 0h48v48H0z"/></clipPath></defs></svg>