<svg width="59" height="49" fill="none" xmlns="http://www.w3.org/2000/svg"><path fill-rule="evenodd" clip-rule="evenodd" d="M20.952 38.197c0-.297.504-1.033.627-1.357.061-.162.068-.23.137-.38.548-1.166.333-.936 1.133-.936.28 0 .258.273.654.984.46.827.764 1.49.647 2.472l-.092.773-.08.425c-.004.016-.013.04-.016.055l-.413 3.061c-.067.574-.157.42-.254 1.384-.06.582-.072 1.041-.187 1.538h-.69c-.327-.683-.432-2.683-.703-3.523-.02-.065-.008.036-.058-.2l-.421-2.497c-.133-.61-.284-1.107-.284-1.8ZM21.54 0h1.813c.432.027.856.072 1.26.133.334.05.593.063.889.146 1.808.51 2.182.931 3.105 2.155.385.51 2.103.076 2.787 2.472.024.08.08.268.127.39.1.265.043.019.134.383.082.325.161 1.475.161 1.909 0 1.423-.078 1.783-.33 2.946-.032.15-.062.44-.076.528-.047.298-.105.818-.197 1.01.446.235.635.568.802 1.008l.238.624c.211.802.182 2.726-.058 3.488l-.591 1.047c-.36.41-.864.65-1.34.902 0 .567-.09 1.045-.255 1.556l-.107.41c-.054.182-.11.292-.222.468-.117.183-.191.27-.311.465-.206.335-.714.735-.771 1l.07 1.226c.06.256.046.379.044.653-.005.637.133.727.173 1.206.368.031.453.148.733.302.26.142.426.221.705.33.3.116.49.125.768.267.41.21 1.083.318 1.51.472.932.334 1.657.358 2.333.6.13.046.116.073.38.136.179.043.254.041.444.073l2.416.516c.224.041.55.121.836.199l1.428.555c.22.126.325.22.59.358.904.47 1.894 1.827 2.17 2.83l.243.707c.113.28.124.532.192.844l.232.74.017.053c.06.19-.005-.047.061.182l.28 1.192c.095.38.177.371.264.771.059.268.11.57.154.795l.381 1.602c.16.957.317 2.552-.05 3.512-.295.772-.708 1.048-1.412 1.347l-10.824 2.667c-1.355.278-2.811.308-4.247.541-1.247.203-2.194.093-3.375.247-.498.065-.946.15-1.575.15-.81 0-5.684-.178-6.493-.319l-4.707-.649c-.785-.195-1.702-.254-2.507-.454l-.099-.021-.21-.06-.064-.018c-.543-.134-1.064-.195-1.605-.304-.231-.046-.144-.038-.373-.09l-.92-.25c-.262-.05-.513-.102-.775-.172l-2.803-.819c-.284-.089-.49-.142-.742-.207l-.697-.25c-.2-.099-.4-.15-.574-.289a2.51 2.51 0 0 1-.761-1.05A3.762 3.762 0 0 1 0 42.111v-1.077c.032-.533.103-1.049.171-1.459.108-.64.255-.949.383-1.6.058-.298.097-.577.183-.853l.5-1.833c.234-.803.628-2.42 1.073-3.232.14-.257.18-.458.349-.686a6.311 6.311 0 0 1 2.139-1.827c.567-.3 1.672-.631 2.283-.735l4.092-.909c.297-.066.464-.1.778-.17.459-.102.365-.167.76-.275 1.102-.3.805-.27 1.483-.5.294-.1.467-.118.725-.223.473-.193.849-.563 1.377-.607.04-.48.178-.57.173-1.206l.1-1.93-1.109-1.46-.408-1.057c-.133-.39-.135-.843-.135-1.33l-.848-.446c-.312-.184-.05-.035-.309-.295-.566-.57-.913-1.271-.913-2.105 0-1.376-.275-3.486 1.121-4.225-.109-.227-.15-.75-.199-1.094-.024-.169-.033-.286-.059-.545-.05-.501-.038-.19-.124-.479-.092-.31-.135-1.842-.135-2.28 0-1.309.353-3.11 1.202-4.142.195-.237.023-.086.276-.242.086-.053.038-.008.166-.093 1.715-1.132.75.16 1.826-1.364.175-.247.454-.415.687-.606C18.17.763 19.03.438 19.75.263A10.556 10.556 0 0 1 21.54 0Zm1.482 33.455c-.76 0-1.159.09-1.75-.58-.395-.448-.515-1.291-.297-1.898.219-.606.938-1.144 1.702-1.144l.65.212c.3.1.317.185.473.39.31.407.515.628.515 1.209 0 1.176-.975 1.81-1.293 1.81Zm2.931-3.104.758-.536c.23-.202.477-.392.72-.574l.748-.545c.28-.163.519-.308.706-.587.454.105 2.255.885 3.285 1.112.228.05.163.02.345.086.261.094.08.053.299.132.632.23 1.333.256 1.858.384l.385.133c.548.186 1.52.237 2.156.436 1.692.527 1.337.08 3.093 1.212.499.322.32.188.807.917.288.43.303.608.464 1.041l1.37 4.972c.048.242.089.475.164.698.237.703.804 3.26-.202 3.677-.619.257-2.12.6-2.674.775l-1.686.47a3.01 3.01 0 0 0-.537.152c-.233.09.08 0-.253.092l-1.512.299c-.094.02-.202.032-.293.052l-.27.074c-.929.313-5.667 1.032-6.626 1.135-.4.043-.897.07-1.33.135-.438.065-.856.02-1.294.086-.452.069-.957.036-1.43.036l.091-.77c.005-.028.006-.05.012-.076.091-.472.118-.202.235-1.23l.44-3.005c.047-.364.08-.683.134-1.078l.296-2.377-1.552-3.017c1.076-.721 1.833-2.393 1.482-3.685l-.189-.627Zm-5.432 4.31c-.32.479-.348.67-.63 1.181-.126.23-.206.41-.324.624-.312.566-.687 1.415-.562 2.053l.564 2.87c.09.539.171 1.092.262 1.637l.332 1.564c.055.396.152 1.377.272 1.625-1.115 0-3.468-.08-4.62-.294-.287-.053-.351-.098-.645-.131-1.145-.129-1.995-.149-3.075-.46L5.13 43.759c-.372-.157-1.085-.252-1.681-.475-1.721-.643-1.973-.12-1.558-3.282l.267-1.138c.128-.476.221-1.182.386-1.572l.198-.664c.066-.289.127-.493.19-.759l.187-.675c.283-.67.117-.743.415-1.456l.037-.089c.266-.669.622-1.633 1.196-1.98 2.14-1.299.799-.539 3.083-1.237.49-.15.915-.195 1.499-.304.255-.047.479-.078.711-.15 1.078-.336 1.237-.237 2.175-.499l2.015-.657c.633-.235.653-.106 1.344-.467.219-.115.446-.186.702-.246.117.174.108.166.291.312l2.64 1.93c-.148.31-.244.765-.257 1.115-.037.973-.004.702.202 1.355.193.611.161.57.522 1.03.238.303.53.611.827.81ZM18.28 24.316c.659.176 1.23 1.353 3.025 1.717l.98.228c.351.118-.076.124.306.124l1.215-.337c.979-.201.537-.122 1.202-.437 1.132-.536 1.282-1.132 1.895-1.295.098.423.085 1 .145 1.407.089.604.174.788.286 1.266-.291.078-.108.032-.328.19l-2.173 1.62c-.328-.219-1.388-.776-1.638-.776h-1.207l-.887.32c-.117.054-.123.065-.17.09l-.223.121c-.18.103-.188.131-.358.245-.018-.012-.048-.046-.056-.03-.01.021-.057-.03-.106-.067-.117-.088-.01-.002-.14-.119l-1.823-1.366c-.233-.165-.043-.14-.376-.228.111-.478.197-.662.286-1.266.06-.406.047-.984.145-1.407Zm10.778-11.21c0 .44.395.863.949.863.362 0 .603-.449.603.949 0 1.055-.177 1.777-.603 2.414h-1.294c-.368.55-.44.472-.435 1.203.005.703.043.925-.128 1.51-.148.51-.325.664-.604 1.034l-1.773 1.504c-1.143.77-1.861 2.32-4.347 1.519-.65-.21-.955-.623-1.605-1.154l-.833-.633c-.98-.858-1.873-1.372-2.082-2.747-.125-.82-.178-.093-.178-.684 0-.396.173.079.173-.69 0-.2-.016-.077-.165-.44-.214-.522-.517-.422-1.56-.422-.955-1.427-.544-2.233-.517-3.45.332.08.753.193 1.151-.141.461-.388.283-.92.213-1.222l-.591-3.375c-.053-.514-.17-.191-.17-.52 0-2.045-.086-1.102.28-2.74l.487-.978c.138-.155.08-.085.19-.154l.114-.06.056-.03c.68-.362 1.335-.085 1.623-.705.406-.875-.013-.913 1.296-1.635 1.02-.564 5.167-.655 6.61.042.585.283.917.556 1.115 1.214.09.298.05.38.214.562.264.294.61.286 1.109.357.987.14 1.176.86 1.395 1.45l.05.124c.29.766.244 2.188.104 2.968-.07.391-.094.088-.16.616-.04.32-.052.423-.108.755-.064.386-.145.954-.283 1.354-.164.475-.296.788-.296 1.343Zm6.035-7.329.085 2.846c.026.693.213.816.26 1.379 1.95-.163 1.311-1.268 1.376-4.143.014-.638.128-1.117.78-1.117 4.089 0 3.882-.364 3.88 1.638-.004 2.95-.316 3.177 1.103 3.553 1.763.467 2.547 1.17 3.248 1.415.324.114.537.101.818-.053.493-.27.85-.756 1.19-1.142.265-.3 1.626-1.703 1.918-1.703.64 0 3.018 2.566 3.018 2.931 0 .823-2.932 2.726-2.932 3.45 0 .866.09.618.461 1.349 2.01 3.957.03 3.565 4.023 3.565 2.51 0 2.155-.493 2.155 3.966 0 1.512-4.318.036-4.971 1.065-.172.27-.236.762-.343 1.122-.127.431-.245.74-.412 1.14-1 2.395-1.647 1.76.488 3.894 1.955 1.955 2.038 1.627.259 3.406-2.454 2.454-1.727.95-2.781.668.303.632.194 2.328.69 2.328 1.854 0 1.785-.276 3.298-1.789 1.104-1.104 1.789-1.514 1.789-3.04 0-.89-.71-1.447-1.186-1.917-.301-.297-.431-.523-.732-.82-.19-.189-.743-.663-.841-.797.09-.338-.009.002.127-.304.316-.71.978-1.85.994-2.542 1.36 0 3.03.35 4.244-.412.491-.307 1.102-.988 1.102-1.743v-3.794c0-.94-.884-1.746-1.626-1.996-1.04-.35-2.42-.16-3.72-.16-.011-.502-.562-1.702-.804-2.214-.141-.3-.29-.396-.317-.717.3-.08.974-.81 1.228-1.1l.77-.782c1.654-1.971.377-3.202-1.028-4.607-1.33-1.33-1.383-1.789-3.384-1.789-1.052 0-2.461 2.127-3.277 2.673-.582-.308-2.213-1.068-2.845-1.12 0-1.31.362-2.85-.371-4.2-.287-.527-1.014-1.146-1.785-1.146h-3.794c-1.294 0-2.155 1.398-2.155 2.759Z" fill="#fff"/><path fill-rule="evenodd" clip-rule="evenodd" d="M36.041 14.658c.013.578.26.767.26 1.81.48-.111 1.834-.861 3.312-.642 2.231.332 3.68.97 4.983 3.125 1.008 1.668 1.1 4.074.213 5.854-.67 1.343-.846 1.168-1.352 1.924.24.36 1.028.76 1.465.863.202-.135.715-.815.859-1.04 2.473-3.876 1.533-8.666-2.104-11.08-1.818-1.207-3.956-1.712-6.236-1.225-.494.105-.918.299-1.4.411Z" fill="#fff"/></svg>