<svg width="64" height="64" fill="none" xmlns="http://www.w3.org/2000/svg"><path d="M32 63c17.12 0 31-13.88 31-31C63 14.88 49.12 1 32 1 14.88 1 1 14.88 1 32c0 17.12 13.88 31 31 31ZM56 12 11 56" stroke="red" stroke-width="2"/><path fill-rule="evenodd" clip-rule="evenodd" d="M45.127 40.213v3.384a.476.476 0 0 1-.188.392c-.156.108-.242.091-.48.091h-7.853c.027-.045.081-.108.119-.153l.592-.761c.043-.051.076-.097.119-.153l.84-1.09c.555-.75 1.244-1.574 1.81-2.329.038-.05.075-.102.118-.147.367-.438.076-.67-.22-1.09l-.782-1.102c-.032-.046-.097-.12-.102-.165l.285-2.163c.054-.386.006-.262.394-.091l2.111 1.062c.232.102 1.174.596 1.395.732l.313.227c.048.046.091.08.145.12.388.335.813.93 1.013 1.408a4.44 4.44 0 0 1 .371 1.828ZM27.17 27.766l.022.205c.054.579.544 1.811.883 2.209.426.5 1.697 1.01 2.78 1.13.63.062.797.022 1.303-.364.474-.352.614-.415.948-.386.226.017.29.045.749.375.587.42.727.454 1.368.375 1.088-.148 2.22-.62 2.618-1.085.36-.42.85-1.664.894-2.26 0-.04.005-.097.005-.153.092-.035.151-.103.248-.108.027.096.086.102.124.335.097.59-.076 1.357-.372 1.84-.41.68-.49.3-.754.59-.08.09-.108.17-.145.312-.189.704-.604 1.607-.965 2.22-.123.21-.29.483-.441.676-.038.051-.06.091-.097.137-.286.369-.361.437-.63.72-.189.2-.27.268-.464.438a4.688 4.688 0 0 1-.813.528c-.78.335-1.287.471-2.198.25-.323-.08-.786-.301-1.066-.483-.2-.136-.576-.42-.743-.602-.043-.045-.076-.073-.119-.119l-.215-.233a6.806 6.806 0 0 1-.787-1.022c-.404-.641-.937-1.737-1.136-2.498-.167-.642-.404-.296-.711-.636a2.375 2.375 0 0 1-.092-.125c-.237-.318-.377-.738-.452-1.147-.049-.256-.07-.744.027-1.022.027-.063.059-.097.075-.16.06.006.108.035.156.063Zm3.415.875c.851.08 1.158.233 1.148.573-.006.244-.173.5-.42.659-.19.113-.232.125-.669.125-.538 0-.829-.085-1.136-.307-.334-.238-.506-.71-.323-.886.097-.09.404-.164.83-.198.048-.006.3.017.57.034Zm5.661 0c.167.022.361.074.437.113.102.057.123.091.123.239 0 .284-.22.579-.597.783-.431.239-.96.301-1.385.17-.404-.13-.69-.539-.608-.88.048-.22.393-.346 1.082-.42.496-.05.604-.05.948-.005Zm-.85-5.355c0 .244.198.483.42.483.177 0 1.093-.17 1.211-.262.393-.3.151-.851-.226-.851-.14 0-.29.05-.425.074-.14.028-.28.056-.431.079-.178.034-.388.051-.49.261a.704.704 0 0 0-.06.216Zm5.838 18.466v1.016c0 .21.205.404.42.404.14 0 .27-.046.345-.154a.567.567 0 0 0 .113-.363v-.83c0-.658-.878-.607-.878-.073Zm-17.339.074v.829c0 .164.043.261.103.352.22.324.775.142.775-.239v-1.016c0-.204-.194-.409-.387-.409-.302 0-.49.176-.49.483Zm15.163-.057v.977c0 .227.188.426.474.426.2 0 .404-.216.404-.426v-.977c0-.238-.194-.426-.474-.426-.205 0-.404.21-.404.426Zm-12.987 0v.977c0 .232.189.426.47.426.198 0 .403-.216.403-.426v-.977c0-.233-.189-.426-.474-.426-.205 0-.399.21-.399.426Zm-4.33 0v.977c0 .232.188.426.468.426.2 0 .404-.216.404-.426v-.977c0-.233-.188-.426-.474-.426-.199 0-.398.21-.398.426Zm21.648 0v.977c0 .227.188.426.474.426.199 0 .404-.216.404-.426v-.977c0-.238-.194-.426-.474-.426-.2 0-.404.216-.404.426Zm-17.76-2.737c0 .205.06.261.168.415l.657.92c.29.414.582.823.878 1.237l1.75 2.476h-7.573c-.237 0-.302.012-.452-.096a.466.466 0 0 1-.178-.387v-3.384c0-.704.119-1.21.36-1.811.055-.13.114-.239.179-.352.075-.142.323-.528.436-.648.275-.295.237-.278.533-.528.097-.085.2-.164.313-.233.118-.073.21-.13.333-.198l3.346-1.687c.263-.136.199-.159.269.38l.188 1.443c.011.085.027.17.033.244.01.08.032.165.037.239 0 .08-.048.113-.086.17-.043.063-.075.102-.113.159l-.792 1.113c-.038.057-.07.102-.113.159-.064.09-.172.21-.172.369Zm3.351-4.656c.323.392.34.426.733.835.167.181.328.318.511.477.275.227.507.374.82.562.215.125.57.278.823.352l.302.085c.635.159 1.336.108 1.96-.08a4.669 4.669 0 0 0 1.304-.658c.328-.227.996-.812 1.233-1.136l.361-.437c-.01.102-.318 1-.388 1.215l-1.395 4.225c-.032.107-.059.198-.096.3L33.95 43.74c-.038.12-.081.188-.081.341h-1.734c0-.193-.308-1.039-.372-1.238-.442-1.385-.948-2.816-1.395-4.224l-.194-.602a4.87 4.87 0 0 1-.102-.301c-.216-.687-.49-1.431-.7-2.107-.07-.21-.135-.403-.2-.608-.043-.142-.178-.505-.194-.624Zm9.221 2.862c0 .215.119.329.248.516l.313.432c.037.057.598.829.598.863l-.469.619c-.043.051-.075.096-.118.153l-.83 1.068c-.463.607-.98 1.243-1.433 1.845l-.71.914c-.125.16-.195.205-.195.432h-.824c.006-.08.253-.806.296-.948l.733-2.203c.07-.216.14-.41.21-.625l.62-1.902c.064-.21.145-.42.21-.63.285-.915.646-1.903.937-2.834l.253-.79c.021-.056.043-.107.054-.158l.49.244c.005.108-.172 1.351-.189 1.488-.026.204-.194 1.351-.194 1.516Zm-10.783-3.01.49-.25.722 2.203c.425 1.352.916 2.738 1.352 4.106.29.92.652 1.914.943 2.834.043.141.29.88.296.96h-1.034l-1.66-2.352c-.043-.056-.075-.096-.118-.159l-1.497-2.112c-.054-.08-.264-.335-.28-.409.183-.295.83-1.17 1.066-1.499.162-.227.108-.403.065-.693l-.345-2.629Zm-.49-9.795c0 .136.064.261.134.335.092.096.168.12.302.165.646.215 1.568.443 2.236.567.834.154 1.432.21 2.256.279l.684.017c.097.006.108.023.21.023h.474c.098 0 .119-.017.205-.017.151-.006.313.01.447-.012l.431-.028c.162 0 .296-.034.442-.034.382-.017 1.223-.16 1.627-.228.527-.09 1.028-.215 1.513-.346.13-.034.226-.068.356-.102.177-.046.549-.148.678-.25.189-.159.162-.369.119-.59l-.14-.796.57.21c.308.131 1.326.569 1.326 1.046 0 .295-.383.556-.566.68-.054.04-.135.086-.188.114-.065.034-.13.069-.2.103-1.125.55-2.72.84-3.937.988-.183.022-.377.05-.566.056l-.549.046c-.2.028-.377.011-.587.028-1.697.148-4.228-.096-5.672-.38a15.155 15.155 0 0 1-.991-.233c-.544-.142-1.282-.415-1.745-.71a1.726 1.726 0 0 1-.356-.272c-.054-.057-.097-.097-.14-.165-.027-.045-.091-.17-.091-.238 0-.358.522-.67.775-.807.183-.096.345-.165.539-.25.086-.034.183-.074.28-.108.08-.028.22-.068.302-.108l-.135.75c-.01.085-.043.188-.043.267Zm5.785-6.099c.765 0 1.05.006 1.837-.136.382-.068.764-.159 1.158-.238a1.27 1.27 0 0 1 1.373.67c.092.193.124.306.167.562.242 1.391.507 2.918.77 4.304.043.216.07.42.113.619-.053.028-.183.062-.258.085-.097.029-.178.046-.275.074-.975.295-2.553.522-3.57.585-.4.023-1.622.034-2.048-.006-1.233-.102-1.756-.153-3.005-.437-.119-.023-.991-.244-1.1-.301l.14-.812c.082 0 .47.108.572.136.194.051.372.091.576.137 1.47.306 2.521.403 4.11.414.124 0 .178-.023.28-.023.097 0 .189.006.286 0 .113 0 .156-.017.28-.017.113 0 .404-.017.5-.073a.462.462 0 0 0 .157-.154c.205-.295-.027-.715-.307-.715-.291 0-.55.04-.824.04-.162 0-.291.005-.426.017-.253.022-1.352-.046-1.68-.074a40.428 40.428 0 0 1-.404-.034 18.085 18.085 0 0 1-2.597-.483c-.123-.029-.231-.063-.35-.097l.544-3.032c.06-.392.113-.624.302-.886.15-.21.398-.403.679-.477.382-.102.62-.017.98.057.646.136 1.336.295 2.02.295Zm-8.381 6.28c0 .733.452 1.148.91 1.466.436.306.932.516 1.427.693l.103.045c-.571.136-.792.982-.792 1.516 0 .857.226 1.613.684 2.254.172.244.388.449.646.574.086.04.097.176.13.267l.226.596c.038.096.086.193.124.295.059.142.231.443.258.557l-.614.318c-.716.38-1.465.71-2.181 1.096l-.614.312c-.571.3-1.158.573-1.73.874l-.312.154c-.059.028-.091.056-.145.085a4.426 4.426 0 0 0-.69.494 2.48 2.48 0 0 0-.123.108c-.114.125-.248.221-.345.358-.081.113-.183.21-.323.403-.55.778-.97 1.817-.97 2.879v3.713c0 .693.603 1.329 1.266 1.329H44.74c.657 0 1.26-.636 1.26-1.329v-3.68c0-1.521-.776-2.975-1.864-3.872a5.35 5.35 0 0 0-.856-.556l-.943-.466c-.204-.108-.415-.21-.625-.324-.721-.38-1.465-.71-2.186-1.096l-1.406-.715c-.06-.029-.113-.051-.167-.085a11.05 11.05 0 0 0 .603-1.42l.075-.233c.027-.068-.01-.022.049-.056l.248-.148a.564.564 0 0 0 .107-.085l.081-.08c.011-.011.022-.023.027-.034.07-.08.119-.12.183-.21.173-.244.329-.517.431-.806.237-.659.42-1.732.07-2.43-.032-.057-.07-.131-.108-.182l-.129-.16c-.086-.079-.231-.187-.355-.215l.086-.04c.662-.238 1.594-.636 2.025-1.226.372-.506.442-1.017.124-1.573-.275-.489-.91-.88-1.384-1.09-.2-.086-.372-.17-.577-.245l-.764-.25c-.054-.028-.022.006-.038-.068l-.469-2.612c-.086-.431-.15-1.027-.312-1.368-.178-.375-.399-.699-.733-.931a1.873 1.873 0 0 0-.533-.284c-.517-.188-.889-.131-1.411-.023-.226.051-.442.09-.674.136-.98.21-2.165.21-3.145 0-.366-.074-1.023-.244-1.384-.244-.566 0-1.05.227-1.45.596-.042.04-.064.046-.102.097l-.097.119c-.07.074-.118.159-.172.244-.296.466-.345 1.056-.453 1.647-.091.477-.172.97-.263 1.442-.017.085-.194 1.198-.232 1.238-.022.023-.119.04-.156.051-.711.205-1.66.58-2.198 1.085-.296.284-.592.63-.592 1.096Z" fill="#FAFAFA"/></svg>