<svg width="25" height="25" fill="none" xmlns="http://www.w3.org/2000/svg"><g clip-path="url(#a)"><circle cx="12.704" cy="12.369" r="12.158" fill="#FAFAFA"/><path d="M12.704.21a12.158 12.158 0 1 0 0 24.317 12.158 12.158 0 0 0 0-24.316Zm3.867 18.423a.858.858 0 0 1-1.219.428l-3.3-2.566-2.118 1.955a.365.365 0 0 1-.347.048l.406-3.634.012.01.009-.071s5.94-5.408 6.181-5.638c.246-.23.164-.28.164-.28.015-.279-.439 0-.439 0l-7.87 5.063-3.276-1.116s-.503-.18-.55-.578c-.05-.393.566-.607.566-.607L17.82 6.47s1.07-.477 1.07.313l-2.32 11.85Z" fill="#44A0DF"/></g><defs><clipPath id="a"><path fill="#fff" transform="translate(.547 .21)" d="M0 0h24.316v24.316H0z"/></clipPath></defs></svg>