<svg width="28" height="30" fill="none" xmlns="http://www.w3.org/2000/svg"><path d="M24.666 4.604c-.667-.612-3.36-2.558-9.362-2.585 0 0-7.078-.424-10.528 2.724C2.856 6.655 2.18 9.451 2.11 12.92c-.071 3.467-.163 9.965 6.131 11.727h.007l-.005 2.688s-.04 1.089.68 1.31c.872.27 1.383-.557 2.215-1.45a70.487 70.487 0 0 0 1.562-1.757c4.305.36 7.616-.464 7.993-.586.869-.28 5.788-.907 6.587-7.405.826-6.697-.399-10.933-2.613-12.842Z" fill="#FAFAFA"/><path d="M23.458 5.762c-.576-.514-3.065-2.05-8.257-2.073 0 0-6.148-.397-9.133 2.26-1.66 1.611-2.22 4.007-2.282 6.932-.061 2.924-.379 8.511 5.065 9.997 0 0-.021 4.148-.024 4.512 0 .255.041.43.19.466.106.025.266-.03.402-.162.87-.86 3.657-4.163 3.657-4.163 3.74.24 6.715-.485 7.035-.588.754-.238 4.834-.583 5.525-6.063.714-5.65-.262-9.506-2.178-11.118Z" fill="#77499A"/><path fill-rule="evenodd" clip-rule="evenodd" d="M15.442 10.68a.363.363 0 0 1 .385-.337c.755.038 1.384.261 1.831.712.446.45.665 1.078.703 1.832a.36.36 0 0 1-.347.375.363.363 0 0 1-.384-.34c-.033-.645-.215-1.085-.498-1.37-.282-.284-.711-.464-1.343-.496a.36.36 0 0 1-.347-.375Z" fill="#FAFAFA"/><path fill-rule="evenodd" clip-rule="evenodd" d="M15.025 8.978a.338.338 0 0 1 .367-.304c1.437.101 2.593.572 3.436 1.453.833.873 1.23 1.958 1.2 3.231a.336.336 0 0 1-.349.321.334.334 0 0 1-.335-.335c.026-1.123-.319-2.04-1.021-2.774-.7-.732-1.678-1.15-2.981-1.242a.333.333 0 0 1-.317-.35Z" fill="#FAFAFA"/><path fill-rule="evenodd" clip-rule="evenodd" d="M14.19 7.337a.34.34 0 0 1 .35-.332c2.013.014 3.716.658 5.082 1.94 1.378 1.29 2.06 3.049 2.077 5.233a.34.34 0 0 1-.345.336.34.34 0 0 1-.35-.331c-.015-2.046-.649-3.62-1.866-4.761-1.23-1.152-2.756-1.737-4.603-1.75a.34.34 0 0 1-.345-.335Z" fill="#FAFAFA"/><path d="M15.795 17.418s.487.04.749-.282l.51-.642c.247-.32.841-.522 1.424-.198.436.249.86.52 1.269.81.386.285 1.178.945 1.18.945.377.318.464.785.208 1.278l-.003.01c-.282.49-.641.932-1.063 1.31-.005.002-.005.004-.01.007-.365.306-.725.48-1.079.521a1.437 1.437 0 0 1-.617-.06l-.01-.017c-.545-.154-1.455-.538-2.969-1.373a17.67 17.67 0 0 1-2.493-1.647c-.392-.31-.767-.642-1.121-.994l-.038-.038-.038-.038-.038-.038-.037-.038a13.062 13.062 0 0 1-.995-1.12 17.696 17.696 0 0 1-1.647-2.494c-.835-1.514-1.22-2.422-1.373-2.967l-.017-.012a1.437 1.437 0 0 1-.07-.459.692.692 0 0 1 .01-.158c.043-.352.218-.713.522-1.08.003-.004.005-.004.007-.01.378-.42.82-.78 1.31-1.062l.01-.002c.493-.257.96-.17 1.278.205.002.002.661.794.944 1.18.291.41.562.834.81 1.27.325.582.122 1.178-.197 1.423l-.642.511c-.325.262-.282.749-.282.749s.952 3.602 4.508 4.51Z" fill="#FAFAFA"/></svg>