<svg width="169" height="30" viewBox="0 0 169 30" fill="none" xmlns="http://www.w3.org/2000/svg"><path fill-rule="evenodd" clip-rule="evenodd" d="M105.536 4.012h-3.366c-1.462 0-2.448.714-3.06 1.666l-4.59 8.806-4.692-8.806c-.612-.952-1.598-1.666-3.06-1.666h-3.332c-.918 0-1.156.85-.612 1.666l8.738 14.552v7.412c0 .884.782 1.632 1.666 1.632h2.618c.918 0 1.666-.748 1.666-1.632V20.23l8.636-14.552c.51-.816.272-1.666-.612-1.666Zm-52.87 0H32.198c-.918 0-1.666.714-1.666 1.666v1.088c0 .952.748 1.666 1.666 1.666h7.31v19.21c0 .918.748 1.632 1.666 1.632h2.618c.884 0 1.666-.748 1.666-1.632V8.432h7.208c.918 0 1.666-.714 1.666-1.666V5.678c0-.952-.748-1.666-1.666-1.666Zm-38.488-.544C5.168 3.468 0 7.276 0 16.626c0 9.384 5.168 13.192 14.178 13.192 9.01 0 14.178-3.808 14.178-13.192 0-9.35-5.168-13.158-14.178-13.158Zm0 21.59c-5.406 0-7.548-2.992-7.548-8.432 0-5.406 2.142-8.398 7.548-8.398 5.406 0 7.548 2.992 7.548 8.398 0 5.44-2.142 8.432-7.548 8.432Zm63.784-.204H65.416l12.376-14.552c.714-.714 1.666-1.564 1.666-3.162V5.678c0-.952-.714-1.666-1.666-1.666H58.99c-.918 0-1.632.714-1.632 1.666v1.156c0 .918.714 1.666 1.632 1.666h12.92L59.024 22.848c-.782.782-1.666 1.7-1.666 3.366v1.394c0 .918.714 1.666 1.666 1.666h18.938c.952 0 1.666-.748 1.666-1.666v-1.122c0-.918-.714-1.632-1.666-1.632Zm56.984-20.842h-3.842c-.952 0-1.7.748-2.108 1.666l-6.188 16.252-6.256-16.252c-.408-.918-1.156-1.666-2.108-1.666h-3.842c-.816 0-1.53.714-1.156 1.496l9.792 21.964c.51 1.054 1.258 1.802 2.516 1.802h1.938c1.258 0 2.006-.748 2.516-1.802l9.894-21.964c.374-.782-.34-1.496-1.156-1.496Zm15.912 1.972h-2.176v1.734h2.176c.578 0 1.326-.204 1.326-.884 0-.646-.748-.85-1.326-.85ZM154.156 0c-7.99 0-14.484 3.468-14.484 7.752 0 2.55 2.278 4.794 5.814 6.188.034.578.034 1.156-.068 1.7-.374 2.278-3.06 3.57-3.06 3.57s3.094-.34 5.474-1.734c1.088-.612 2.006-1.496 2.686-2.244 1.156.17 2.38.272 3.638.272 7.99 0 14.484-3.468 14.484-7.752S162.146 0 154.156 0Zm-.068 11.832h-1.224c-.272 0-.612-.204-.782-.476l-.884-1.36c-.238-.408-.612-.816-1.292-.816h-1.224v2.176a.465.465 0 0 1-.476.476h-.986a.486.486 0 0 1-.476-.476V4.998c0-.272.204-.476.476-.476h4.216c1.53 0 2.652.884 2.652 2.312 0 1.156-.85 1.666-1.904 1.87.408.17.714.51 1.156 1.19l.918 1.462c.17.272.102.476-.17.476Zm8.364-2.89c0 1.836-1.088 2.924-3.23 2.924h-.918c-2.142 0-3.196-1.088-3.196-2.924V4.998c0-.272.204-.476.476-.476h.952c.272 0 .476.204.476.476v3.944c0 1.02.408 1.496 1.36 1.496h.816c.918 0 1.326-.476 1.326-1.496V4.998c0-.272.238-.476.476-.476h.952c.272 0 .51.204.51.476v3.944Z" fill="#fff"/></svg>