<svg width="91" height="32" viewBox="0 0 91 32" fill="none" xmlns="http://www.w3.org/2000/svg">
<g clip-path="url(#clip0_470_16548)">
<path fill-rule="evenodd" clip-rule="evenodd" d="M17.8166 4.46528C17.6905 4.43056 17.4468 4.35826 17.275 4.30458C16.8464 4.17078 15.9654 4.17503 15.6003 4.31272C15.4602 4.3656 15.305 4.40891 15.2555 4.40902C15.1007 4.40937 14.0761 4.94722 13.7351 5.20726C13.1301 5.66853 12.2169 6.53218 11.9283 6.91601C11.8465 7.0247 11.7664 7.12504 11.7503 7.13894C11.5767 7.28826 10.7498 8.47933 10.3814 9.1104C10.2598 9.31891 10.0945 9.59907 10.0143 9.73298C9.93404 9.86688 9.86791 10.0034 9.8673 10.0363C9.86669 10.0692 9.82134 10.153 9.76652 10.2225C9.7117 10.292 9.66635 10.3842 9.66574 10.4274C9.66513 10.4707 9.59583 10.6136 9.51177 10.7451C9.4277 10.8767 9.35841 11.0347 9.3578 11.0963C9.35718 11.1578 9.31185 11.2651 9.25702 11.3346C9.2022 11.4041 9.15685 11.5129 9.15624 11.5765C9.15563 11.64 9.11542 11.7521 9.06693 11.8255C8.96441 11.9807 8.64995 12.8792 8.64602 13.028C8.64455 13.0837 8.59854 13.186 8.54371 13.2556C8.48889 13.3251 8.44354 13.4504 8.44293 13.5343C8.44232 13.6181 8.39596 13.8111 8.33992 13.9632C8.28387 14.1153 8.23765 14.2971 8.23725 14.3669C8.23685 14.4368 8.19873 14.5964 8.15252 14.7215C8.0735 14.9356 8.04787 15.0716 7.93344 15.8841C7.90796 16.0648 7.85915 16.3379 7.82496 16.4908C7.73596 16.8886 7.7359 19.8712 7.82491 20.1809C7.86083 20.3061 7.90918 20.5562 7.93231 20.7369C8.00207 21.2821 8.17804 21.9069 8.45191 22.5821C8.5083 22.7211 8.5807 22.904 8.6128 22.9887C8.64491 23.0734 8.71125 23.2033 8.76031 23.2776C8.80932 23.3518 8.84942 23.4454 8.84942 23.4853C8.84942 23.5711 9.45119 24.4878 9.82588 24.9729C10.1532 25.3967 10.7039 25.9411 11.162 26.2935C11.5538 26.5949 12.289 27.0551 12.3814 27.0568C12.4145 27.0575 12.4987 27.1024 12.5688 27.1568C12.6389 27.2112 12.7257 27.2563 12.7619 27.2568C12.7981 27.2574 12.9175 27.3034 13.0273 27.3591C13.1372 27.4146 13.2751 27.4601 13.3336 27.4601C13.3921 27.4601 13.5134 27.4981 13.6031 27.5445C13.7776 27.6349 14.0064 27.6941 14.4539 27.7651C14.608 27.7894 14.8603 27.8368 15.0144 27.8703C15.4064 27.9555 17.6136 27.9556 17.9186 27.8703C18.0446 27.8351 18.274 27.787 18.4281 27.7635C18.8007 27.7065 19.0675 27.6425 19.3451 27.5435C19.4712 27.4984 19.6203 27.4608 19.6764 27.4598C19.7324 27.4588 19.8356 27.4134 19.9056 27.3591C19.9757 27.3047 20.0624 27.2597 20.0983 27.2591C20.2899 27.2558 21.134 26.7553 21.8417 26.2256C22.3862 25.8181 22.5668 25.6514 22.804 25.3382C22.8773 25.2415 23.0031 25.0936 23.0836 25.0096C23.2576 24.828 23.9307 23.8458 23.9307 23.7734C23.9307 23.7456 23.9995 23.6153 24.0836 23.4838C24.1676 23.3523 24.2369 23.2093 24.2374 23.1661C24.2381 23.1229 24.2834 23.0307 24.3382 22.9612C24.3931 22.8917 24.4385 22.7828 24.439 22.719C24.4397 22.6555 24.4818 22.5189 24.5327 22.4158C24.5836 22.3126 24.6769 22.0576 24.7401 21.8491L24.9024 21.3146C24.9285 21.2293 24.95 21.0815 24.9505 20.9861C24.9508 20.8908 24.9902 20.7104 25.0379 20.5853C25.2504 20.0279 25.2613 17.0703 25.0545 16.0863C25.0222 15.9334 24.9751 15.6832 24.9497 15.5303C24.8468 14.9124 24.8084 14.7368 24.7287 14.5193C24.683 14.3942 24.6451 14.2056 24.6448 14.1003C24.6443 13.9949 24.5981 13.8195 24.5421 13.7104C24.486 13.6015 24.4402 13.4651 24.4402 13.4072C24.4402 13.3494 24.3943 13.2128 24.3382 13.1039C24.2823 12.9949 24.2364 12.8582 24.2364 12.8C24.2364 12.742 24.2028 12.63 24.1618 12.5512C24.1206 12.4725 24.0316 12.2518 23.9638 12.0608C23.896 11.87 23.7896 11.5886 23.7274 11.4357C23.6652 11.2828 23.588 11.0884 23.5559 11.0038C23.5238 10.9191 23.4575 10.7891 23.4084 10.7149C23.3594 10.6407 23.3193 10.5495 23.3193 10.5122C23.3193 10.475 23.2505 10.3369 23.1664 10.2054C23.0823 10.0738 23.0136 9.94579 23.0136 9.92082C23.0136 9.89581 22.9479 9.76578 22.8677 9.63187C22.7874 9.49797 22.6223 9.21782 22.5006 9.0093C22.184 8.46634 21.4581 7.4201 21.2476 7.20294C21.1277 7.07929 20.9452 6.86369 20.725 6.58546C20.4767 6.2719 19.848 5.68769 19.5006 5.44787C18.5992 4.82551 18.4358 4.71839 18.2498 4.62775C18.1377 4.57311 17.9428 4.50001 17.8166 4.46528Z" fill="white"/>
<path fill-rule="evenodd" clip-rule="evenodd" d="M3.14302 0.213428C3.10099 0.240422 2.99751 0.262866 2.91303 0.263321C2.53718 0.265192 1.82866 0.629913 1.38773 1.04847C1.14572 1.27822 0.697414 1.92279 0.697414 2.04102C0.697414 2.06736 0.658437 2.16168 0.610747 2.25071C0.56311 2.33967 0.502224 2.54895 0.475474 2.71577C0.407965 3.1369 0.409851 29.0513 0.477411 29.4568C0.579872 30.0719 0.843437 30.568 1.33429 31.07C1.81831 31.5648 2.14363 31.7478 2.91375 31.958C3.18364 32.0316 29.7949 32.0009 30.1721 31.9265C30.5819 31.8457 31.2561 31.468 31.6003 31.1267C31.9116 30.8179 32.3038 30.1539 32.4074 29.7601C32.4705 29.5209 32.4782 2.8521 32.4154 2.48829C32.3937 2.36318 32.333 2.20046 32.2804 2.12665C32.2277 2.05285 32.1837 1.96186 32.1826 1.92446C32.1814 1.88705 32.0611 1.68722 31.915 1.48047C31.6669 1.12894 31.1463 0.667371 30.8439 0.530632C30.4054 0.332425 30.2967 0.292539 30.0702 0.246993C29.7254 0.177689 3.25002 0.14468 3.14302 0.213428ZM17.2751 4.30456C17.4468 4.35825 17.6906 4.43054 17.8167 4.46527C17.9428 4.49999 18.1377 4.57309 18.2498 4.62773C18.4358 4.71837 18.5992 4.82549 19.5007 5.44786C19.8481 5.68767 20.4768 6.27188 20.725 6.58544C20.9452 6.86367 21.1277 7.07927 21.2476 7.20292C21.4582 7.42008 22.1839 8.46632 22.5007 9.00928C22.6223 9.2178 22.7875 9.49796 22.8678 9.63185C22.9479 9.76576 23.0136 9.89578 23.0136 9.9208C23.0136 9.94577 23.0824 10.0738 23.1665 10.2053C23.2505 10.3369 23.3193 10.4749 23.3193 10.5122C23.3193 10.5495 23.3594 10.6406 23.4085 10.7148C23.4575 10.7891 23.5238 10.9191 23.5559 11.0037C23.588 11.0884 23.6652 11.2828 23.7274 11.4357C23.7896 11.5886 23.8961 11.87 23.9638 12.0608C24.0316 12.2518 24.1207 12.4725 24.1618 12.5512C24.2028 12.63 24.2365 12.742 24.2365 12.8C24.2365 12.8581 24.2823 12.9949 24.3383 13.1039C24.3944 13.2128 24.4402 13.3493 24.4402 13.4071C24.4402 13.4649 24.4861 13.6015 24.5422 13.7104C24.5981 13.8195 24.6443 13.9949 24.6448 14.1003C24.6451 14.2056 24.683 14.3942 24.7288 14.5192C24.8085 14.7368 24.8468 14.9123 24.9497 15.5303C24.9752 15.6832 25.0223 15.9334 25.0544 16.0863C25.2613 17.0703 25.2505 20.0279 25.0379 20.5853C24.9903 20.7104 24.9509 20.8908 24.9505 20.9861C24.9501 21.0814 24.9285 21.2293 24.9025 21.3147C24.8764 21.4 24.8034 21.6405 24.7402 21.8491C24.6769 22.0576 24.5836 22.3126 24.5327 22.4157C24.4818 22.5189 24.4396 22.6553 24.4391 22.719C24.4385 22.7828 24.3931 22.8917 24.3383 22.9612C24.2834 23.0307 24.2382 23.1229 24.2375 23.1661C24.2369 23.2093 24.1676 23.3523 24.0836 23.4838C23.9995 23.6153 23.9307 23.7456 23.9307 23.7734C23.9307 23.8459 23.2577 24.828 23.0836 25.0095C23.0031 25.0936 22.8772 25.2414 22.8041 25.3381C22.5669 25.6515 22.3862 25.818 21.8418 26.2256C21.134 26.7553 20.2899 27.2558 20.0984 27.259C20.0624 27.2597 19.9757 27.3046 19.9057 27.359C19.8356 27.4134 19.7324 27.4588 19.6763 27.4597C19.6203 27.4608 19.4713 27.4984 19.3451 27.5433C19.0675 27.6424 18.8008 27.7064 18.4281 27.7635C18.274 27.787 18.0447 27.8351 17.9186 27.8703C17.6135 27.9556 15.4065 27.9555 15.0145 27.8703C14.8603 27.8368 14.6081 27.7894 14.454 27.7651C14.0063 27.6941 13.7777 27.6349 13.603 27.5445C13.5134 27.4981 13.3921 27.4601 13.3336 27.4601C13.275 27.4601 13.1372 27.4147 13.0273 27.359C12.9175 27.3035 12.798 27.2574 12.7619 27.2568C12.7258 27.2563 12.6389 27.2112 12.5689 27.1568C12.4987 27.1024 12.4145 27.0574 12.3815 27.0568C12.2891 27.0551 11.5538 26.5948 11.1621 26.2934C10.704 25.9411 10.1532 25.3967 9.82591 24.9729C9.45122 24.4878 8.84945 23.571 8.84945 23.4853C8.84945 23.4453 8.80935 23.3518 8.76034 23.2776C8.71128 23.2033 8.64493 23.0733 8.61283 22.9887C8.58073 22.904 8.50833 22.7211 8.45194 22.5821C8.17807 21.9069 8.0021 21.2821 7.93234 20.7369C7.90921 20.5563 7.86086 20.306 7.82494 20.1809C7.73593 19.8712 7.73599 16.8886 7.82499 16.4908C7.85918 16.3379 7.90799 16.0648 7.93347 15.8841C8.0479 15.0716 8.07353 14.9356 8.15255 14.7215C8.19876 14.5964 8.23687 14.4368 8.23728 14.3669C8.23768 14.2969 8.2839 14.1153 8.33995 13.9632C8.39599 13.8111 8.44235 13.6181 8.44296 13.5342C8.44357 13.4504 8.48892 13.3251 8.54374 13.2555C8.59856 13.186 8.64458 13.0837 8.64606 13.028C8.64997 12.8792 8.96444 11.9807 9.06696 11.8255C9.11545 11.7521 9.15566 11.64 9.15627 11.5765C9.15688 11.5129 9.20223 11.4041 9.25705 11.3346C9.31188 11.2651 9.35721 11.1578 9.35783 11.0963C9.35844 11.0346 9.42773 10.8767 9.5118 10.7451C9.59587 10.6136 9.66516 10.4706 9.66577 10.4274C9.66638 10.3842 9.71172 10.292 9.76655 10.2225C9.82137 10.153 9.86672 10.0692 9.86733 10.0363C9.86794 10.0034 9.93407 9.86687 10.0143 9.73296C10.0946 9.59905 10.2598 9.3189 10.3815 9.11038C10.7498 8.47932 11.5767 7.28824 11.7503 7.13892C11.7665 7.12502 11.8465 7.02468 11.9283 6.91599C12.217 6.53216 13.1302 5.66852 13.7352 5.20724C14.0761 4.94721 15.1006 4.40935 15.2556 4.409C15.3051 4.4089 15.4603 4.36558 15.6003 4.3127C15.9654 4.17501 16.8464 4.17076 17.2751 4.30456ZM83.7776 7.88302C83.756 7.90471 83.5393 7.93868 83.2964 7.95854C82.4629 8.02669 81.748 8.14345 81.4025 8.26801C81.2764 8.31345 81.1338 8.35096 81.0854 8.35137C81.0372 8.35177 80.8996 8.3952 80.7798 8.44786C80.6599 8.50049 80.4368 8.59719 80.2838 8.66271C79.8193 8.86167 79.4331 9.13929 78.9534 9.61942C78.5603 10.0128 78.4569 10.1546 78.2171 10.6292C78.0635 10.9328 77.938 11.2283 77.938 11.2857C77.938 11.3431 77.8993 11.463 77.852 11.5519C77.8047 11.6409 77.7464 11.8275 77.7223 11.9664C77.6981 12.1055 77.6532 12.3557 77.6222 12.5225C77.585 12.7236 77.566 13.9253 77.566 16.0863C77.566 18.2475 77.585 19.4491 77.6222 19.6501C77.6532 19.8169 77.6991 20.0671 77.7243 20.2062C77.7648 20.4303 77.8826 20.7879 78.099 21.3436C78.2172 21.647 78.6672 22.3553 78.8813 22.5747C79.2371 22.9393 79.5484 23.1527 80.3071 23.5516C80.5544 23.6816 80.9031 23.8206 80.9836 23.8213C81.0319 23.8216 81.1746 23.8592 81.3006 23.9046C81.5433 23.9921 81.8141 24.0476 82.396 24.1288C83.2705 24.2511 83.8601 24.2845 85.1219 24.2836C86.3746 24.2827 86.878 24.2582 88.3572 24.1263C88.6655 24.0988 89.1165 24.0585 89.3594 24.0368C89.6023 24.0152 89.8173 23.9814 89.8369 23.9619C89.889 23.9099 89.8631 22.1005 89.8087 21.9997C89.7835 21.9528 89.7498 21.7121 89.7339 21.4647C89.6649 20.3913 89.6445 20.2024 89.5915 20.139C89.5329 20.0688 89.5048 20.07 88.4082 20.1859C87.6758 20.2632 84.4811 20.3003 84.243 20.2341C84.138 20.2048 83.9546 20.1541 83.8355 20.1213C83.0683 19.9099 82.5281 19.3123 82.4042 18.538C82.3419 18.148 82.3408 13.9332 82.4028 13.5335C82.4809 13.0312 82.893 12.4217 83.293 12.2165C83.5673 12.0758 84.067 11.9271 84.4341 11.8771C85.1453 11.78 87.4814 11.8439 88.4592 11.987C88.6553 12.0158 88.9144 12.0539 89.0349 12.0716C89.3793 12.1224 89.4295 12.0457 89.4768 11.3969C89.6429 9.11488 89.6756 8.30957 89.6058 8.2261C89.5738 8.18784 89.3995 8.14573 89.2078 8.12996C89.0202 8.11454 88.6489 8.07779 88.3827 8.04832C87.066 7.90253 83.8731 7.78793 83.7776 7.88302ZM41.7258 8.21256C41.6058 8.3631 41.5437 8.96126 41.4592 10.7785C41.434 11.3207 41.3886 12.0259 41.3583 12.3456C41.3281 12.6653 41.2801 13.3136 41.2515 13.7863C41.2229 14.2589 41.1786 14.9755 41.1529 15.3787C41.1271 15.7817 41.0933 16.3504 41.0778 16.6424C41.0622 16.9343 41.0339 17.2187 41.0148 17.2743C40.9957 17.3299 40.9622 17.8416 40.9405 18.4117C40.9187 18.9816 40.8765 19.7323 40.8468 20.0798C40.8171 20.4273 40.7709 21.0643 40.7443 21.4952C40.6705 22.6863 40.6053 23.4748 40.566 23.6504C40.5456 23.742 40.5549 23.8541 40.5883 23.9158C40.6456 24.0221 40.6586 24.0228 42.8288 24.0228C44.525 24.0228 45.0235 24.0085 45.065 23.9589C45.0945 23.9238 45.1319 23.6679 45.1484 23.3902C45.1648 23.1125 45.2004 22.51 45.2275 22.0512C45.2546 21.5925 45.3009 20.9101 45.3304 20.5348C45.36 20.1595 45.4058 19.3632 45.4324 18.7655C45.5265 16.6447 45.5298 16.611 45.6416 16.5105C45.7652 16.3995 45.8801 16.4533 45.9876 16.6727C46.0273 16.7533 46.0913 16.8761 46.1299 16.9456C46.1686 17.0152 46.2362 17.1517 46.2801 17.2489C46.3242 17.3463 46.4524 17.6307 46.5651 17.8808C46.6777 18.1311 46.7898 18.3757 46.8141 18.4243C46.8384 18.4729 46.8781 18.5526 46.9022 18.6012C46.9263 18.6499 47.0671 18.9512 47.215 19.271C47.5255 19.9428 47.5384 19.9701 47.6072 20.1051C47.844 20.5703 48.1832 21.3061 48.1841 21.3568C48.1848 21.3912 48.23 21.4763 48.2849 21.5457C48.3397 21.6152 48.3855 21.7062 48.3868 21.7479C48.3881 21.7896 48.4339 21.8806 48.4888 21.9502C48.5435 22.0197 48.5889 22.1128 48.5894 22.1572C48.5901 22.2015 48.6325 22.2755 48.6838 22.3214C48.766 22.3953 48.953 22.4051 50.2808 22.4051C51.6731 22.4051 51.7909 22.3982 51.869 22.3127C51.9153 22.2619 51.9538 22.1652 51.9545 22.0979C51.9551 22.0305 52.0004 21.9185 52.0553 21.8491C52.11 21.7796 52.1554 21.6949 52.1559 21.6608C52.1566 21.6269 52.2003 21.5017 52.253 21.3829C52.3057 21.2639 52.4231 20.996 52.5137 20.7875C52.6045 20.579 52.7218 20.3111 52.7745 20.1921C52.8273 20.0733 52.8709 19.9481 52.8715 19.9142C52.8722 19.8801 52.9175 19.7955 52.9723 19.726C53.0271 19.6565 53.0725 19.5476 53.0731 19.484C53.0737 19.4205 53.114 19.3083 53.1627 19.2347C53.2113 19.1609 53.3008 18.9627 53.3616 18.7941C53.5269 18.3352 53.6045 18.1471 53.6857 18.0072C53.726 17.9377 53.786 17.8126 53.8188 17.7292C53.8518 17.6459 53.9294 17.4525 53.9914 17.2996C54.0532 17.1467 54.1377 16.9305 54.1789 16.8193C54.3061 16.4767 54.5072 16.3409 54.6445 16.5051C54.6745 16.5408 54.7106 16.8764 54.725 17.2507C54.7394 17.6251 54.7761 18.1931 54.8065 18.5127C54.8369 18.8325 54.8821 19.5376 54.907 20.0798C54.932 20.622 54.9784 21.2589 55.0102 21.4952C55.042 21.7316 55.0836 22.3491 55.1028 22.8676C55.1334 23.6942 55.1497 23.8233 55.2347 23.9165C55.3305 24.0213 55.3617 24.0228 57.5086 24.0228C59.3235 24.0228 59.6952 24.0109 59.7451 23.9511C59.7877 23.9004 59.7974 23.6699 59.7789 23.155C59.7511 22.3861 59.6746 21.3343 59.6252 21.0403C59.6087 20.943 59.5848 20.488 59.572 20.0293C59.5591 19.5705 59.5233 19.0019 59.4923 18.7655C59.4614 18.5292 59.4153 17.8923 59.3901 17.3501C59.3648 16.8079 59.3201 16.0573 59.2909 15.682C59.2137 14.6919 59.1426 13.6078 59.0883 12.5983C59.0621 12.1118 59.0153 11.4976 58.9842 11.2335C58.9531 10.9694 58.9077 10.3097 58.8833 9.76753C58.8306 8.60098 58.7936 8.27417 58.7063 8.2022C58.6624 8.1661 57.9343 8.15311 56.4576 8.16201L54.2737 8.1752L54.1357 8.45323C54.0598 8.60614 53.9963 8.76047 53.9945 8.79621C53.9928 8.83196 53.9515 8.92148 53.9029 8.99512C53.8542 9.06878 53.7647 9.26704 53.704 9.43567C53.5085 9.97813 53.4579 10.098 53.3672 10.2356C53.3181 10.3098 53.278 10.3935 53.278 10.4216C53.278 10.4496 53.2349 10.5698 53.1822 10.6887C52.9967 11.1068 52.7784 11.6155 52.6663 11.8907C52.604 12.0436 52.5292 12.2142 52.5 12.2697C52.4046 12.4513 52.3741 12.5189 52.2593 12.8006C52.197 12.9535 52.0822 13.2264 52.0042 13.4071C51.9264 13.5879 51.8115 13.8608 51.7492 14.0137C51.687 14.1667 51.6157 14.3316 51.5908 14.3803C51.5661 14.4288 51.5254 14.5086 51.5006 14.5572C51.4757 14.6059 51.4044 14.7708 51.3421 14.9237C51.23 15.1988 51.0118 15.7075 50.8264 16.1256C50.7737 16.2445 50.73 16.3696 50.7294 16.4037C50.7287 16.4376 50.6835 16.5223 50.6286 16.5918C50.5738 16.6613 50.5284 16.7773 50.5278 16.8494C50.5266 16.9931 50.3872 17.1479 50.2589 17.1479C50.1544 17.1479 50.0127 16.9684 49.8955 16.6871C49.8022 16.4637 49.7713 16.3973 49.6743 16.2127C49.6451 16.1571 49.5703 15.9865 49.508 15.8336C49.372 15.4997 49.1047 14.8824 49.0427 14.7593C49.0183 14.7108 48.9779 14.6311 48.9531 14.5824C48.9282 14.5339 48.8568 14.3688 48.7944 14.2159C48.732 14.063 48.6605 13.8981 48.6357 13.8495C48.5223 13.6271 48.4916 13.5613 48.3359 13.2049C48.18 12.8486 48.1494 12.7828 48.0359 12.5605C48.0112 12.5118 47.9399 12.3469 47.8776 12.194C47.6596 11.6589 47.2876 10.816 46.8064 9.76753C46.5925 9.30136 46.4199 8.89984 46.3284 8.65543C46.3128 8.61373 46.2459 8.48861 46.1798 8.37741L46.0594 8.1752L43.918 8.16201C42.2433 8.15169 41.7656 8.16271 41.7258 8.21256ZM61.4877 8.19527C61.4322 8.2302 61.4199 8.43725 61.4268 9.21466C61.4315 9.7512 61.4514 10.2146 61.471 10.2443C61.5098 10.3034 61.5723 10.8643 61.6149 11.5365C61.6298 11.7727 61.6659 11.9944 61.6952 12.0294C61.7362 12.0785 62.2357 12.0928 63.9006 12.0928C66.0007 12.0928 66.056 12.0953 66.187 12.1976L66.3213 12.3024V18.102C66.3213 22.5453 66.3356 23.9156 66.3825 23.9621C66.4281 24.0075 67.0113 24.0228 68.6927 24.0228C70.807 24.0228 70.947 24.0172 71.0262 23.9303C71.1038 23.8454 71.1105 23.3647 71.1105 18.0489C71.1105 12.5051 71.1145 12.2566 71.2037 12.1765C71.2874 12.1014 71.5173 12.0928 73.4393 12.0928C75.0917 12.0928 75.5935 12.0784 75.6335 12.0296C75.6619 11.9949 75.6997 11.8527 75.7175 11.7137C75.7353 11.5747 75.7737 11.279 75.8028 11.0566C75.8321 10.8342 75.8744 10.2086 75.897 9.66644C75.9196 9.12429 75.9551 8.60589 75.9761 8.51445C76.0049 8.38812 75.9922 8.32432 75.9235 8.24905C75.8346 8.15149 75.7211 8.14992 68.6953 8.15069C64.7585 8.15114 61.5262 8.17111 61.4877 8.19527Z" fill="#E30611"/>
</g>
<defs>
<clipPath id="clip0_470_16548">
<rect width="91" height="32" fill="white"/>
</clipPath>
</defs>
</svg>
