<svg width="52" height="52" fill="none" xmlns="http://www.w3.org/2000/svg"><path fill-rule="evenodd" clip-rule="evenodd" d="M2.084 5.034c0-1.265 1.082-2.347 2.347-2.347h30.4c1.265 0 2.347 1.082 2.347 2.347v7.042H2.084V5.034Zm-1.996.352v28.64c0 2.824 2.048 4.694 4.93 4.694h16.55c.651 0 1.405-1.437.159-1.92-.384-.148-.99-.077-1.45-.075H5.605c-1.276 0-1.651.094-2.495-.44-.539-.342-1.026-1.078-1.026-1.908v-7.981H21.45c1.359 0 1.17-1.995-.117-1.995H2.083V14.07h35.095v6.104c0 1.268 1.995 1.268 1.995 0V5.386a5.23 5.23 0 0 0-.398-1.95 4.2 4.2 0 0 0-2.432-2.38 5.825 5.825 0 0 0-2.1-.365H5.019c-1.966 0-3.71.839-4.498 2.662a5.318 5.318 0 0 0-.432 2.033Z" fill="#fff"/><path fill-rule="evenodd" clip-rule="evenodd" d="m29.197 29.917.419-.52c.335-.449 1.162-1.475 1.694-1.475.492 0 2.03 2.112 2.347 2.112.501 0 1.315-.675 2.48-1.04.97-.305.93-.153.924-2.011-.007-2.259-.302-1.76 3.051-1.76.5 2.147-.717 3.26 1.054 3.758 2.006.565 2.077 1.654 3.206.501.657-.67.48-.696 1.61-1.678.541.287 2.157 1.831 2.112 2.23-.064.56-2.105 1.874-2.082 2.567.005.144.756 1.614.998 2.508.17.634.124.808.855.906 2.87.386 2.811-1.324 2.811 2.822 0 .64-.868.474-1.526.47-.78-.004-1.246-.03-1.878.117-.343.715-.393 1.607-.962 2.56-.142.237-.324.528-.295.831.069.731 1.817 1.616 2.079 2.595-.353.667-1.446 1.76-2.113 2.113-.694-.603-1.695-1.793-2.347-2.23-.63.147-1.254.581-1.96.857-1.46.569-1.49.03-1.44 2.903.014.796.176.943-.46 1.074-.395.082-2.139.08-2.596-.14-.245-.244-.05-2.306-.123-2.81a1.6 1.6 0 0 0-.018-.1c-.154-.75-.533-.551-1.69-1.01-1.785-.707-1.129-1.394-2.834.312-.467.466-.738.836-1.321 1.144-.706-.614-1.468-1.326-1.995-2.113.76-1.438 2.113-1.992 2.113-2.7 0-.228-.478-1.046-.587-1.29-1.065-2.377.453-2.113-3.874-2.113-.358-.746-.233-1.838-.167-2.599.031-.367-.044-.124.05-.57.631-.147 1.098-.122 1.879-.117.752.006 1.311.13 1.566-.429.079-.173.146-.527.208-.73.87-2.842 1.695-1.707-.645-4.197-.023-.025-.096-.09-.12-.115-.017-.017-.044-.04-.06-.057l-.363-.576Zm22.653 6.338v2.147c-.053 2.111-.509 2.196-3.639 2.196-.258.537-.384 1.17-.822 1.995 1.064 1.589 3.337 2.126.617 4.842-.431.43-1.034 1.262-1.79 1.262-1.607 0-1.754-1.167-2.817-1.878-.706.164-1.065.636-1.878.704 0 .814.068 1.98-.109 2.591-.25.87-.745 1.183-1.475 1.282h-2.642c-1.53 0-1.82-2.898-1.408-3.756-.775-.371-1.27-.452-1.995-.939-.31.463-.738.793-1.145 1.204-1.484 1.498-2.207.778-3.462-.47-1.53-1.52-1.714-2.244-.42-3.648L29.9 42.71c-.193-.827-.685-1.255-.704-2.113-1.434 0-3.756.36-3.756-1.76 0-4.025-.19-4.109 3.756-4.109.02-.912.53-1.25.704-1.995l-1.283-1.417-.054-.063c-1.045-1.24-.468-2.188.661-3.304.443-.437 1.082-1.32 1.85-1.32 1.728 0 1.493.992 2.817 1.879.412-.096.583-.251.987-.421.37-.156.696-.251 1.008-.401-.412-.858-.121-3.756 1.408-3.756 3.94 0 4.226-.366 4.226 3.873.704.059 1.254.56 1.878.705.685-.46 1.501-1.878 2.465-1.878 1.193 0 1.476.596 2.142 1.261 2.72 2.716.447 3.253-.617 4.842.456.861.678 1.695.822 1.995 1.03 0 3.639-.336 3.639 1.526Z" fill="#fff"/><path fill-rule="evenodd" clip-rule="evenodd" d="M34.361 38.016c0-1.381.237-2.495 1.141-3.437 2.845-2.96 7.427-.78 7.427 2.733v.821c0 1.993-1.997 3.99-3.99 3.99h-.587c-2.036 0-3.99-2.055-3.99-4.107Zm-1.29-.47c0 1.489.743 3.251 1.493 4.023 3.988 4.105 9.657.9 9.657-3.905 0-3.164-2.629-5.752-5.165-5.752-1.958 0-3.078.329-4.432 1.789-.84.905-1.554 2.554-1.554 3.845ZM6.309 19.236c0 .43.324.94.704.94h9.39c.892 0 1.026-1.879-.352-1.879H7.248c-.568 0-.939.371-.939.94Zm0 12.324c0 .568.371.94.939.94h8.92c1.322 0 1.212-1.879-.117-1.879H7.248c-.568 0-.939.372-.939.94Zm0-23.71c0 .569.371.94.939.94h8.803c1.279 0 1.459-1.878.117-1.878h-8.92c-.568 0-.939.371-.939.939Z" fill="#fff"/></svg>