<svg width="178" height="30" viewBox="0 0 178 30" fill="none" xmlns="http://www.w3.org/2000/svg"><path d="M0 .716h5.617c3.077 0 5.295.25 6.583.822 1.324.537 2.361 1.467 3.148 2.72.787 1.287 1.18 2.79 1.18 4.507 0 1.825-.428 3.363-1.287 4.58-.894 1.252-2.218 2.182-3.971 2.79l6.583 12.38h-5.796L5.832 16.743h-.537v11.77H0V.716Zm5.295 10.876h1.646c1.717 0 2.898-.215 3.542-.68.644-.43.966-1.18.966-2.218 0-.608-.18-1.11-.501-1.574-.322-.466-.716-.788-1.252-.966-.537-.215-1.539-.287-2.97-.287H5.295v5.725Zm37.566 8.085H26.33c.215 1.467.86 2.612 1.897 3.506 1.037.859 2.361 1.288 3.971 1.288 1.896 0 3.542-.68 4.937-2.039l4.33 2.04c-1.074 1.538-2.398 2.683-3.9 3.434-1.503.715-3.292 1.109-5.367 1.109-3.184 0-5.831-1.038-7.835-3.041-2.04-2.04-3.041-4.58-3.041-7.62 0-3.149 1.002-5.76 3.041-7.8 2.003-2.075 4.544-3.112 7.585-3.112 3.255 0 5.867 1.037 7.906 3.076 2.004 2.075 3.041 4.794 3.041 8.193l-.035.966Zm-5.116-4.043c-.358-1.109-1.002-2.039-2.004-2.719-1.038-.715-2.182-1.073-3.506-1.073-1.431 0-2.683.394-3.793 1.216-.68.466-1.323 1.36-1.896 2.576h11.199ZM45.687.716H61.07v5.223h-5.08v22.575h-5.367V5.94h-4.937V.716Zm17.638 0h5.188l4.006 17.745L77.493.716h4.4l5.045 17.745L90.945.716h5.187l-6.297 27.798h-5.044l-5.152-17.996-5.009 17.996h-4.973L63.325.716ZM114.128 0c3.935 0 7.298 1.431 10.125 4.293 2.826 2.827 4.257 6.297 4.257 10.411 0 4.043-1.395 7.478-4.186 10.268-2.79 2.826-6.189 4.222-10.16 4.222-4.186 0-7.657-1.431-10.411-4.33-2.755-2.897-4.115-6.296-4.115-10.267 0-2.648.644-5.116 1.932-7.334 1.288-2.218 3.041-4.007 5.295-5.295C109.119.644 111.516 0 114.128 0Zm-.072 5.188c-2.576 0-4.722.894-6.475 2.683-1.753 1.789-2.612 4.078-2.612 6.833 0 3.077 1.109 5.51 3.292 7.299 1.717 1.395 3.685 2.075 5.867 2.075 2.504 0 4.651-.895 6.404-2.72 1.753-1.824 2.647-4.042 2.647-6.69 0-2.647-.894-4.901-2.683-6.726-1.753-1.824-3.9-2.754-6.44-2.754ZM134.628.716h5.617c3.077 0 5.295.25 6.583.822 1.324.537 2.361 1.467 3.148 2.72.787 1.287 1.181 2.79 1.181 4.507 0 1.825-.429 3.363-1.288 4.58-.895 1.252-2.218 2.182-3.971 2.79l6.583 12.38h-5.796l-6.261-11.771h-.537v11.77h-5.259V.716Zm5.259 10.876h1.682c1.717 0 2.898-.215 3.542-.68.608-.43.93-1.18.93-2.218 0-.608-.143-1.11-.465-1.574a2.485 2.485 0 0 0-1.288-.966c-.501-.215-1.503-.287-2.934-.287h-1.467v5.725ZM157.525.716h5.367v9.588l7.513-9.588h6.368l-9.695 12.414 10.661 15.384h-6.297l-8.55-12.379v12.38h-5.367V.714Z" fill="#fff"/></svg>