<svg width="64" height="64" fill="none" xmlns="http://www.w3.org/2000/svg"><path d="M32 63c17.12 0 31-13.88 31-31C63 14.88 49.12 1 32 1 14.88 1 1 14.88 1 32c0 17.12 13.88 31 31 31Zm24-50L11 55" stroke="red" stroke-width="2"/><path fill-rule="evenodd" clip-rule="evenodd" d="M43.59 20.017c0 .01-.022.017-.049.017-.027 0-.05.007-.05.017 0 .009-.029.016-.065.016-.036 0-.065.008-.065.017 0 .01-.03.017-.066.017-.036 0-.066.008-.066.017 0 .01-.022.017-.049.017-.027 0-.049.007-.049.017 0 .009-.03.017-.065.017-.037 0-.066.007-.066.016 0 .01-.03.017-.066.017-.036 0-.065.008-.065.017 0 .01-.022.017-.05.017-.026 0-.049.008-.049.017 0 .01-.029.017-.065.017-.036 0-.066.007-.066.017 0 .009-.03.016-.065.016-.036 0-.066.008-.066.017 0 .01-.022.017-.049.017-.027 0-.05.008-.05.017 0 .01-.029.017-.065.017-.036 0-.065.007-.065.017 0 .009-.03.016-.066.016-.036 0-.065.008-.065.017 0 .01-.023.017-.05.017-.027 0-.049.008-.049.017 0 .01-.03.017-.065.017-.037 0-.066.008-.066.017 0 .01-.03.017-.066.017-.036 0-.065.007-.065.016 0 .01-.03.017-.066.017-.036 0-.065.008-.065.017 0 .01-.022.017-.05.017-.026 0-.049.008-.049.017 0 .01-.03.017-.065.017-.036 0-.066.007-.066.017 0 .009-.03.016-.065.016-.036 0-.066.008-.066.017 0 .01-.022.017-.05.017-.026 0-.048.008-.048.017 0 .01-.03.017-.066.017-.036 0-.065.008-.065.017 0 .009-.03.017-.066.017-.036 0-.066.007-.066.016 0 .01-.022.017-.049.017-.027 0-.049.008-.049.017 0 .01-.03.017-.066.017-.036 0-.065.008-.065.017 0 .01-.03.017-.066.017-.036 0-.065.007-.065.017 0 .009-.022.016-.05.016-.026 0-.049.008-.049.017 0 .01-.03.017-.065.017-.036 0-.066.008-.066.017 0 .01-.03.017-.065.017-.036 0-.066.007-.066.017 0 .009-.03.017-.066.017-.035 0-.065.007-.065.016 0 .01-.022.017-.05.017-.026 0-.048.008-.048.017 0 .01-.03.017-.066.017-.036 0-.066.007-.066.017 0 .01-.029.017-.065.017-.036 0-.066.007-.066.017 0 .009-.022.016-.049.016-.027 0-.049.008-.049.017 0 .01-.03.017-.066.017-.036 0-.065.008-.065.017 0 .01-.03.017-.066.017-.036 0-.065.007-.065.017 0 .009-.022.017-.05.017-.027 0-.049.007-.049.016 0 .01-.03.017-.065.017-.036 0-.066.008-.066.017 0 .01-.03.017-.065.017-.037 0-.066.008-.066.017 0 .01-.022.017-.05.017-.026 0-.048.007-.048.016 0 .01-.03.017-.066.017-.036 0-.066.008-.066.017 0 .01-.029.017-.065.017-.036 0-.066.008-.066.017 0 .01-.03.017-.065.017-.036 0-.066.007-.066.017 0 .009-.022.016-.049.016-.027 0-.05.008-.05.017 0 .01-.029.017-.065.017-.036 0-.065.008-.065.017 0 .01-.03.017-.066.017-.036 0-.065.007-.065.017 0 .009-.023.017-.05.017-.027 0-.049.007-.049.016 0 .01-.03.017-.065.017-.036 0-.066.008-.066.017 0 .01-.03.017-.066.017-.036 0-.065.008-.065.017 0 .01-.022.017-.05.017-.026 0-.049.007-.049.017 0 .009-.029.016-.065.016-.036 0-.066.008-.066.017 0 .01-.03.017-.065.017-.036 0-.066.008-.066.017 0 .01-.022.017-.049.017-.027 0-.05.007-.05.017 0 .009-.029.017-.065.017-.036 0-.065.007-.065.016 0 .01-.03.017-.066.017-.036 0-.065.008-.065.017 0 .01-.03.017-.066.017-.036 0-.066.008-.066.017 0 .01-.022.017-.049.017-.027 0-.049.007-.049.016 0 .01-.03.017-.066.017-.036 0-.065.008-.065.017 0 .01-.03.017-.066.017-.036 0-.065.008-.065.017 0 .01-.022.017-.05.017-.026 0-.049.007-.049.017 0 .009-.03.016-.065.016-.036 0-.066.008-.066.017 0 .01-.03.017-.065.017-.036 0-.066.008-.066.017 0 .01-.022.017-.049.017-.027 0-.05.008-.05.017 0 .009-.029.017-.065.017-.036 0-.065.007-.065.016 0 .01-.03.017-.066.017-.036 0-.066.008-.066.017 0 .01-.022.017-.049.017-.027 0-.049.008-.049.017 0 .01-.03.017-.065.017-.037 0-.066.007-.066.017 0 .009-.03.016-.066.016-.036 0-.065.008-.065.017 0 .01-.022.017-.05.017-.026 0-.049.008-.049.017 0 .01-.03.017-.065.017-.036 0-.066.007-.066.017 0 .009-.03.017-.065.017-.036 0-.066.007-.066.016 0 .01-.03.017-.065.017-.037 0-.066.008-.066.017 0 .01-.022.017-.05.017-.026 0-.048.008-.048.017 0 .01-.03.017-.066.017-.036 0-.066.007-.066.017 0 .009-.029.016-.065.016-.036 0-.066.008-.066.017 0 .01-.022.017-.049.017-.027 0-.049.008-.049.017 0 .01-.03.017-.066.017-.036 0-.065.007-.065.017 0 .009-.03.017-.066.017-.036 0-.065.007-.065.016 0 .01-.022.017-.05.017-.027 0-.049.008-.049.017 0 .01-.03.017-.065.017-.036 0-.066.008-.066.017 0 .01-.03.017-.065.017-.036 0-.066.007-.066.017 0 .009-.03.016-.066.016-.036 0-.065.008-.065.017 0 .01-.022.017-.05.017-.026 0-.049.008-.049.017 0 .01-.029.017-.065.017-.036 0-.066.007-.066.017 0 .009-.03.016-.065.016-.036 0-.066.008-.066.017 0 .01-.022.017-.049.017-.027 0-.05.008-.05.017 0 .01-.029.017-.065.017-.036 0-.065.008-.065.017 0 .009-.03.017-.066.017-.036 0-.065.007-.065.016 0 .01-.023.017-.05.017-.027 0-.049.008-.049.017 0 .01-.03.017-.065.017-.036 0-.066.008-.066.017 0 .01-.03.017-.066.017-.036 0-.065.007-.065.017 0 .009-.022.016-.05.016-.026 0-.048.008-.048.017 0 .01-.03.017-.066.017-.036 0-.066.008-.066.017 0 .01-.03.017-.065.017-.036 0-.066.007-.066.017 0 .009-.022.017-.049.017-.027 0-.05.007-.05.016 0 .01-.029.017-.065.017-.036 0-.065.008-.065.017 0 .01-.03.017-.066.017-.036 0-.065.008-.065.017 0 .01-.03.017-.066.017-.036 0-.066.007-.066.017 0 .009-.022.016-.049.016-.027 0-.049.008-.049.017 0 .01-.03.017-.066.017-.036 0-.065.008-.065.017 0 .01-.03.017-.066.017-.036 0-.065.007-.065.017 0 .009-.022.016-.05.016-.026 0-.049.008-.049.017 0 .01-.029.017-.065.017-.036 0-.066.008-.066.017 0 .01-.03.017-.065.017-.036 0-.066.008-.066.017 0 .01-.022.017-.049.017-.027 0-.05.007-.05.016 0 .01-.029.017-.065.017-.036 0-.065.008-.065.017 0 .01-.03.017-.066.017-.036 0-.066.008-.066.017 0 .01-.022.017-.049.017-.027 0-.049.007-.049.017 0 .009-.03.016-.065.016-.037 0-.066.008-.066.017 0 .01-.03.017-.066.017-.036 0-.065.008-.065.017 0 .01-.03.017-.066.017-.036 0-.065.008-.065.017 0 .009-.023.017-.05.017-.026 0-.049.007-.049.016 0 .01-.03.017-.065.017-.036 0-.066.008-.066.017 0 .01-.03.017-.065.017-.037 0-.066.008-.066.017 0 .01-.022.017-.05.017-.026 0-.048.007-.048.017 0 .009-.03.016-.066.016-.036 0-.066.008-.066.017 0 .01-.029.017-.065.017-.036 0-.066.008-.066.017 0 .01-.022.017-.049.017-.027 0-.049.007-.049.017 0 .009-.03.017-.066.017-.036 0-.065.007-.065.016 0 .01-.03.017-.066.017-.036 0-.065.008-.065.017 0 .01-.022.017-.05.017-.026 0-.049.007-.049.017 0 .01-.03.017-.065.017-.036 0-.066.007-.066.017 0 .009-.03.016-.065.016-.036 0-.066.008-.066.017 0 .01-.03.017-.066.017-.036 0-.065.008-.065.017 0 .01-.022.017-.05.017-.026 0-.049.007-.049.017 0 .009-.029.017-.065.017-.036 0-.066.007-.066.016 0 .01-.03.017-.065.017-.036 0-.066.008-.066.017 0 .01-.022.017-.049.017-.027 0-.05.008-.05.017 0 .01-.029.017-.065.017-.036 0-.065.007-.065.016 0 .01-.03.017-.066.017-.036 0-.065.008-.065.017 0 .01-.023.017-.05.017-.027 0-.049.008-.049.017 0 .01-.03.017-.065.017-.036 0-.066.007-.066.017 0 .009-.03.016-.066.016-.035 0-.065.008-.065.017 0 .01-.022.017-.05.017-.026 0-.048.008-.048.017 0 .01-.03.017-.066.017-.036 0-.066.007-.066.017 0 .009-.03.017-.065.017-.036 0-.066.007-.066.016 0 .01-.03.017-.065.017-.036 0-.066.008-.066.017 0 .01-.022.017-.049.017-.027 0-.05.008-.05.017 0 .01-.029.017-.065.017-.036 0-.065.007-.065.017 0 .009-.03.016-.066.016-.036 0-.066.008-.066.017 0 .01-.022.017-.049.017-.027 0-.049.008-.049.017 0 .01-.03.017-.065.017-.037 0-.066.007-.066.017 0 .009-.03.017-.066.017-.036 0-.065.007-.065.016 0 .01-.022.017-.05.017-.026 0-.049.008-.049.017 0 .01-.029.017-.065.017-.036 0-.066.008-.066.017 0 .01-.03.017-.065.017-.036 0-.066.007-.066.016 0 .01-.022.017-.049.017-.027 0-.05.008-.05.017 0 .01-.029.017-.065.017-.036 0-.065.008-.065.017 0 .01-.03.017-.066.017-.036 0-.066.007-.066.017 0 .009-.022.016-.049.016-.027 0-.049.008-.049.017 0 .01-.03.017-.065.017-.036 0-.066.008-.066.017 0 .01-.03.017-.066.017-.036 0-.065.008-.065.017 0 .009-.03.017-.066.017-.036 0-.065.007-.065.016 0 .01-.022.017-.05.017-.026 0-.049.008-.049.017 0 .01-.03.017-.065.017-.036 0-.066.008-.066.017 0 .01-.03.017-.065.017-.036 0-.066.007-.066.017 0 .009-.022.016-.05.016-.026 0-.048.008-.048.017 0 .01-.03.017-.066.017-.036 0-.065.008-.065.017 0 .01-.03.017-.066.017-.036 0-.066.007-.066.017 0 .009-.022.017-.049.017-.027 0-.049.007-.049.016 0 .01-.03.017-.066.017-.036 0-.065.008-.065.017 0 .01-.03.017-.066.017-.036 0-.065.008-.065.017 0 .01-.022.017-.05.017-.027 0-.049.007-.049.017 0 .009-.03.016-.065.016-.036 0-.066.008-.066.017 0 .01-.03.017-.065.017-.036 0-.066.008-.066.017 0 .01-.03.017-.065.017-.037 0-.066.007-.066.017 0 .009-.022.017-.05.017-.026 0-.048.007-.048.016 0 .01-.03.017-.066.017-.036 0-.066.008-.066.017 0 .01-.03.017-.065.017-.036 0-.066.008-.066.017 0 .01-.022.017-.049.017-.027 0-.05.007-.05.017 0 .009-.029.016-.065.016-.036 0-.065.008-.065.017 0 .01-.03.017-.066.017-.036 0-.065.008-.065.017 0 .01-.023.017-.05.017-.027 0-.049.007-.049.017 0 .009-.03.016-.065.016-.036 0-.066.008-.066.017 0 .01-.03.017-.066.017-.036 0-.065.008-.065.017 0 .01-.022.017-.05.017-.026 0-.048.008-.048.017 0 .009-.03.017-.066.017-.036 0-.066.007-.066.016 0 .01-.029.017-.065.017-.036 0-.066.008-.066.017 0 .01-.03.017-.065.017-.036 0-.066.008-.066.017 0 .01-.022.017-.049.017-.027 0-.05.007-.05.017 0 .009-.029.016-.065.016-.036 0-.065.008-.065.017 0 .01-.03.017-.066.017-.036 0-.066.008-.066.017 0 .01-.022.017-.049.017-.027 0-.049.007-.049.017 0 .009-.03.017-.065.017-.037 0-.066.007-.066.016 0 .01-.03.017-.066.017-.036 0-.065.008-.065.017 0 .01-.022.017-.05.017-.026 0-.048.008-.048.017 0 .01-.03.017-.066.017-.036 0-.066.007-.066.017 0 .009-.03.016-.065.016-.036 0-.066.008-.066.017 0 .01-.022.017-.049.017-.027 0-.05.008-.05.017 0 .01-.029.017-.065.017-.036 0-.065.007-.065.017 0 .009-.03.016-.066.016-.036 0-.065.008-.065.017 0 .01-.03.017-.066.017-.036 0-.066.008-.066.017 0 .01-.022.017-.049.017-.027 0-.049.008-.049.017 0 .01-.03.017-.066.017-.036 0-.065.007-.065.016 0 .01-.03.017-.066.017-.036 0-.065.008-.065.017 0 .01-.015.017-.033.017-.018 0-.033.008-.033.017 0 .01-.011.017-.025.017-.032 0-.172.143-.172.176 0 .014-.007.026-.016.026-.009 0-.016.015-.016.034 0 .018-.008.033-.017.033-.009 0-.016.03-.016.068 0 .037-.008.067-.017.067-.008 0-.016.023-.016.05 0 .029.008.051.016.051.01 0 .017.03.017.068 0 .037.007.067.016.067.01 0 .017.015.017.034 0 .018.007.034.016.034.01 0 .017.011.017.025 0 .032.138.177.167.177.012 0 .033.015.046.034.013.018.036.033.052.033s.03.008.03.017c0 .01.013.017.029.017s.04.015.053.034c.012.018.036.033.052.033s.03.008.03.017c0 .01.013.017.029.017s.04.015.052.034c.013.018.037.034.053.034s.03.007.03.016c0 .01.012.017.029.017.016 0 .04.015.052.034.013.018.036.034.05.034.014 0 .036.015.049.033.013.019.037.034.053.034s.029.008.029.017c0 .01.013.017.029.017s.04.015.053.033c.013.019.036.034.052.034.017 0 .03.008.03.017 0 .01.013.017.029.017s.04.015.053.034c.013.018.036.033.052.033s.03.008.03.017c0 .01.013.017.029.017s.04.015.053.034c.012.018.036.033.052.033s.03.008.03.017c0 .01.013.017.029.017s.04.015.052.034c.014.018.036.034.05.034.014 0 .036.015.049.033.013.019.037.034.053.034s.029.008.029.017c0 .01.013.017.029.017s.04.015.053.033c.013.019.036.034.053.034.016 0 .029.008.029.017 0 .01.013.017.029.017s.04.015.053.034c.013.018.036.033.053.033.016 0 .029.008.029.017 0 .01.013.017.029.017s.04.015.053.034c.013.018.035.033.049.033.014 0 .036.015.049.034.013.019.037.034.053.034s.029.007.029.017c0 .009.013.016.03.016.015 0 .039.016.052.034.013.019.037.034.053.034s.029.008.029.017c0 .009.013.017.03.017.015 0 .039.015.052.033.013.019.033.034.045.034.03 0 .102.077.102.109 0 .014.008.026.017.026.009 0 .016.015.016.034 0 .018.008.033.017.033.009 0 .016.015.016.034 0 .018.007.034.016.034.01 0 .017.015.017.033 0 .019.007.034.016.034.01 0 .017.015.017.034 0 .018.007.034.016.034.009 0 .016.015.016.033 0 .019.008.034.017.034.009 0 .016.015.016.034 0 .018.008.033.017.033.009 0 .016.015.016.034 0 .019.007.034.016.034.01 0 .017.015.017.033 0 .019.007.034.016.034.01 0 .016.015.016.034 0 .018.008.034.017.034.009 0 .016.015.016.033 0 .019.008.034.017.034.009 0 .016.015.016.034 0 .018.008.033.017.033.008 0 .016.016.016.034 0 .019.007.034.016.034.01 0 .017.015.017.034 0 .018.007.033.016.033.009 0 .016.015.016.034 0 .018.008.034.017.034.009 0 .016.015.016.033 0 .019.008.034.017.034.009 0 .016.015.016.034 0 .018.007.034.016.034.01 0 .017.015.017.033 0 .019.007.034.016.034.01 0 .017.015.017.034 0 .018.007.033.016.033.009 0 .016.015.016.034 0 .019.008.034.017.034.009 0 .016.015.016.033 0 .019.008.034.017.034.009 0 .016.015.016.034 0 .018.007.034.016.034.01 0 .017.015.017.033 0 .019.007.034.016.034.01 0 .017.023.017.05 0 .028.007.051.016.051.009 0 .016.015.016.034 0 .018.008.034.017.034.009 0 .016.015.016.033 0 .019.007.034.016.034.01 0 .017.015.017.034 0 .018.007.033.016.033.01 0 .017.015.017.034 0 .019.007.034.016.034.009 0 .016.015.016.033 0 .019.008.034.017.034.009 0 .016.015.016.034 0 .018.008.034.017.034.009 0 .016.015.016.033 0 .019.007.034.016.034.01 0 .017.015.017.034 0 .018.007.033.016.033.01 0 .017.016.017.034 0 .019.007.034.016.034.009 0 .016.015.016.034 0 .018.008.033.017.033.009 0 .016.015.016.034 0 .018.008.034.017.034.009 0 .016.015.016.033 0 .019.007.034.016.034.01 0 .017.015.017.034 0 .018.007.034.016.034.01 0 .017.015.017.033 0 .019.007.034.016.034.009 0 .016.015.016.034 0 .018.008.033.017.033.009 0 .016.015.016.034 0 .019.008.034.016.034.01 0 .017.015.017.033 0 .019.007.034.016.034.01 0 .017.015.017.034 0 .018.007.034.016.034.01 0 .016.015.016.033 0 .019.008.034.017.034.009 0 .016.023.016.05 0 .028.008.051.017.051.009 0 .016.014.016.03 0 .017.015.041.033.054.018.014.033.035.033.048 0 .013.022.044.049.07.027.026.049.056.049.067 0 .025.075.102.099.102.01 0 .047.03.081.067.035.037.073.068.086.068.012 0 .033.015.045.033.014.019.037.034.053.034s.03.008.03.017c0 .01.014.017.032.017.018 0 .033.008.033.017 0 .009.022.017.05.017.026 0 .048.007.048.016 0 .01.023.017.05.017.027 0 .049.008.049.017 0 .01.022.017.049.017.027 0 .05.008.05.017 0 .01.029.017.065.017.036 0 .065.007.065.017 0 .01.055.016.131.016.077 0 .132.008.132.017 0 .01.087.017.229.017.142 0 .23-.006.23-.017 0-.01.06-.017.147-.017.088 0 .148-.006.148-.016s.043-.017.098-.017c.055 0 .098-.008.098-.017 0-.01.03-.017.066-.017.036 0 .066-.008.066-.017 0-.01.036-.017.081-.017.046 0 .082-.007.082-.017 0-.009.03-.016.066-.016.036 0 .066-.008.066-.017 0-.01.022-.017.049-.017.027 0 .049-.008.049-.017 0-.01.03-.017.066-.017.035 0 .065-.007.065-.017 0-.009.022-.017.05-.017.026 0 .048-.007.048-.016 0-.01.022-.017.05-.017.027 0 .049-.008.049-.017 0-.01.022-.017.049-.017.027 0 .05-.008.05-.017 0-.01.021-.017.048-.017s.05-.007.05-.017c0-.009.022-.016.049-.016.027 0 .049-.008.049-.017 0-.01.015-.017.033-.017.018 0 .032-.008.032-.017 0-.01.023-.017.05-.017.027 0 .049-.007.049-.017 0-.009.015-.017.033-.017.018 0 .032-.007.032-.016 0-.01.023-.017.05-.017.027 0 .049-.008.049-.017 0-.01.015-.017.033-.017.017 0 .032-.008.032-.017 0-.01.023-.017.05-.017.027 0 .049-.007.049-.017 0-.009.014-.016.032-.016.018 0 .033-.008.033-.017 0-.01.022-.017.05-.017.027 0 .049-.008.049-.017 0-.01.014-.017.032-.017.018 0 .033-.007.033-.017 0-.009.022-.016.05-.016.026 0 .049-.008.049-.017 0-.01.014-.017.032-.017.018 0 .033-.008.033-.017 0-.01.022-.017.05-.017.026 0 .048-.008.048-.017 0-.009.015-.017.033-.017.018 0 .033-.007.033-.016 0-.01.022-.017.05-.017.026 0 .048-.008.048-.017 0-.01.015-.017.033-.017.018 0 .033-.008.033-.017 0-.01.022-.017.05-.017.026 0 .048-.007.048-.017 0-.009.015-.016.033-.016.018 0 .033-.008.033-.017 0-.01.022-.017.05-.017.026 0 .048-.008.048-.017 0-.01.015-.017.033-.017.018 0 .033-.007.033-.017 0-.009.022-.017.049-.017.027 0 .05-.007.05-.016 0-.01.014-.017.032-.017.018 0 .033-.008.033-.017 0-.01.022-.017.049-.017.027 0 .05-.008.05-.017 0-.01.021-.017.048-.017s.05-.007.05-.017c0-.009.014-.016.032-.016.018 0 .033-.008.033-.017 0-.01.022-.017.05-.017.026 0 .048-.008.048-.017 0-.01.023-.017.05-.017.027 0 .049-.007.049-.017 0-.009.014-.016.033-.016.018 0 .032-.008.032-.017 0-.01.023-.017.05-.017.027 0 .049-.008.049-.017 0-.01.022-.017.049-.017.027 0 .05-.008.05-.017 0-.01.021-.017.048-.017s.05-.007.05-.016c0-.01.014-.017.032-.017.018 0 .033-.008.033-.017 0-.01.022-.017.05-.017.026 0 .048-.008.048-.017 0-.01.023-.017.05-.017.027 0 .049-.007.049-.017 0-.009.015-.016.033-.016.018 0 .032-.008.032-.017 0-.01.023-.017.05-.017.026 0 .049-.008.049-.017 0-.01.022-.017.049-.017.027 0 .049-.008.049-.017 0-.009.022-.017.05-.017.026 0 .048-.007.048-.016 0-.01.023-.017.05-.017.027 0 .049-.008.049-.017 0-.01.015-.017.033-.017.018 0 .032-.008.032-.017 0-.01.023-.017.05-.017.027 0 .049-.007.049-.017 0-.009.022-.016.049-.016.027 0 .05-.008.05-.017 0-.01.021-.017.048-.017s.05-.008.05-.017c0-.01.022-.017.049-.017.027 0 .049-.007.049-.017 0-.009.015-.017.032-.017.019 0 .033-.007.033-.016 0-.01.023-.017.05-.017.027 0 .049-.008.049-.017 0-.01.022-.017.049-.017.027 0 .05-.007.05-.017 0-.01.021-.017.048-.017s.05-.007.05-.017c0-.009.022-.016.049-.016.027 0 .049-.008.049-.017 0-.01.022-.017.049-.017.027 0 .05-.008.05-.017 0-.01.021-.017.048-.017s.05-.007.05-.017c0-.009.022-.017.049-.017.027 0 .049-.007.049-.016 0-.01.015-.017.033-.017.018 0 .032-.008.032-.017 0-.01.023-.017.05-.017.027 0 .049-.008.049-.017 0-.01.022-.017.049-.017.027 0 .05-.007.05-.016 0-.01.021-.017.048-.017s.05-.008.05-.017c0-.01.022-.017.049-.017.027 0 .049-.008.049-.017 0-.01.022-.017.05-.017.026 0 .048-.007.048-.017 0-.009.022-.016.05-.016.026 0 .049-.008.049-.017 0-.01.022-.017.049-.017.027 0 .049-.008.049-.017 0-.01.022-.017.05-.017.026 0 .048-.007.048-.017 0-.009.022-.017.05-.017.027 0 .049-.007.049-.016 0-.026.08-.02.107.007a.111.111 0 0 1 .024.067c0 .024.007.044.016.044.01 0 .017.022.017.05 0 .028.007.05.016.05.009 0 .016.023.016.051 0 .028.008.05.017.05.009 0 .016.024.016.051 0 .028.008.05.017.05.009 0 .016.024.016.051 0 .028.007.051.016.051.01 0 .017.03.017.067 0 .038.007.068.016.068.01 0 .017.023.017.05 0 .028.007.051.016.051.009 0 .016.023.016.05 0 .028.008.051.017.051.009 0 .016.023.016.05 0 .029.008.051.017.051.009 0 .016.023.016.05 0 .029.007.051.016.051.01 0 .017.023.017.05 0 .029.007.052.016.052.01 0 .017.022.017.05 0 .028.007.05.016.05.009 0 .016.023.016.051 0 .028.008.05.017.05.009 0 .016.023.016.051 0 .028.007.05.016.05.01 0 .017.024.017.051 0 .028.007.051.016.051.01 0 .017.023.017.05 0 .028.007.051.016.051.01 0 .016.023.016.05 0 .028.008.051.017.051.009 0 .016.023.016.05 0 .029.008.051.017.051.009 0 .016.023.016.05 0 .029.007.051.016.051.01 0 .017.023.017.051 0 .028.007.05.016.05.01 0 .017.023.017.051 0 .028.007.05.016.05.009 0 .016.023.016.051 0 .028.008.05.017.05.009 0 .016.024.016.051 0 .028.008.051.017.051.009 0 .016.023.016.05 0 .028.007.051.016.051.01 0 .017.023.017.05 0 .029.007.051.016.051.01 0 .017.03.017.068 0 .037.007.067.016.067.009 0 .016.023.016.05 0 .028.008.051.017.051.009 0 .016.023.016.05 0 .029.007.051.017.051.008 0 .016.023.016.05 0 .029.007.051.016.051.01 0 .017.023.017.051 0 .028.007.05.016.05.01 0 .016.023.016.051 0 .028.008.05.017.05.009 0 .016.023.016.051 0 .028.008.05.017.05.009 0 .016.024.016.051 0 .028.007.05.016.05.01 0 .017.024.017.051 0 .028.007.051.016.051.01 0 .017.023.017.05 0 .028.007.051.016.051.009 0 .016.023.016.05 0 .029.008.051.017.051.009 0 .016.023.016.05 0 .029.008.051.017.051.009 0 .016.023.016.051 0 .028.007.05.016.05.01 0 .017.023.017.051 0 .028.007.05.016.05.01 0 .017.023.017.051 0 .028.007.05.016.05.009 0 .016.023.016.051 0 .028.008.05.017.05.009 0 .016.024.016.052 0 .027.008.05.017.05.009 0 .016.023.016.05 0 .028.007.051.016.051.01 0 .017.023.017.05 0 .029.007.051.016.051.01 0 .017.023.017.05 0 .029-.008.051-.017.051-.009 0-.016.016-.016.034 0 .019-.008.034-.017.034-.009 0-.016.015-.016.034 0 .018-.008.033-.017.033-.008 0-.016.015-.016.034 0 .019-.007.034-.016.034-.01 0-.017.022-.017.05 0 .028-.007.05-.016.05-.01 0-.017.031-.017.068 0 .037-.007.068-.016.068-.009 0-.016.044-.016.1 0 .057-.008.102-.017.102-.01 0-.016.084-.016.219s.006.22.016.22.017.044.017.1c0 .056.007.101.016.101.01 0 .017.023.017.05 0 .029.007.051.016.051.009 0 .016.023.016.051 0 .028.008.05.017.05.009 0 .016.023.016.051 0 .028.008.05.017.05.009 0 .016.016.016.034 0 .019.007.034.016.034.01 0 .017.015.017.034 0 .018.007.033.016.033.01 0 .017.016.017.034 0 .019.007.034.016.034.009 0 .016.014.016.03s.015.04.033.054c.018.014.033.035.033.048 0 .013.022.044.049.07.027.026.05.056.05.066 0 .01.054.076.122.145.067.07.13.126.14.126.01 0 .04.023.065.05.025.029.058.051.072.051.015 0 .026.008.026.017 0 .01.014.017.03.017s.04.015.052.034c.013.018.037.034.053.034s.03.007.03.016c0 .01.014.017.032.017.018 0 .033.008.033.017 0 .01.022.017.05.017.026 0 .048.008.048.017 0 .01.015.017.033.017.018 0 .033.007.033.017 0 .009.03.016.065.016.036 0 .066.008.066.017 0 .01.03.017.066.017.036 0 .065.008.065.017 0 .01.126.017.344.017.219 0 .345-.006.345-.017 0-.01.03-.017.065-.017.036 0 .066-.008.066-.017 0-.01.022-.017.049-.017.027 0 .05-.007.05-.016 0-.01.021-.017.048-.017s.05-.008.05-.017c0-.01.014-.017.032-.017.018 0 .033-.008.033-.017 0-.01.015-.017.033-.017.018 0 .033-.007.033-.017 0-.009.014-.017.032-.017.018 0 .033-.007.033-.016 0-.01.015-.017.033-.017.018 0 .033-.008.033-.017 0-.01.013-.017.029-.017s.04-.015.053-.034c.013-.018.033-.033.045-.033.03 0 .398-.382.398-.413 0-.023.255-.026 2.262-.026h2.262v.944c0 .618.006.944.016.944s.017.03.017.068c0 .037.007.067.016.067.01 0 .017.03.017.067 0 .037.007.068.016.068.009 0 .016.023.016.05 0 .028.008.05.017.05.009 0 .016.024.016.051 0 .028.008.051.017.051.009 0 .016.015.016.034 0 .018.007.033.016.033.01 0 .017.016.017.034 0 .019.007.034.016.034.01 0 .017.013.017.03 0 .016.014.04.032.054.018.014.033.038.033.054 0 .017.008.03.017.03.009 0 .016.012.016.027s.03.056.066.091a.275.275 0 0 1 .065.084c0 .024.174.203.198.203.01 0 .04.023.064.05.026.028.056.051.069.051.012 0 .033.015.046.034.013.018.035.033.05.033.013 0 .035.016.048.034.014.019.037.034.053.034s.03.007.03.017c0 .009.014.017.032.017.018 0 .033.007.033.016 0 .01.022.017.05.017.026 0 .048.008.048.017 0 .01.023.017.05.017.027 0 .049.008.049.017 0 .01.022.017.049.017.027 0 .05.007.05.017 0 .009.029.016.065.016.036 0 .065.008.065.017 0 .01.071.017.18.017.11 0 .18.007.18.017 0 .01.127.017.345.017.219 0 .344-.006.344-.017 0-.01.044-.017.099-.017.054 0 .098-.007.098-.017 0-.01.015-.017.033-.017.018 0 .033-.007.033-.016 0-.01.011-.017.025-.017.032 0 .171-.143.171-.177 0-.014.008-.026.017-.026.009 0 .016-.015.016-.033 0-.019.008-.034.017-.034.01 0 .016-1.433.016-4.264 0-2.831-.005-4.264-.016-4.264-.01 0-.017-.021-.017-.047a.093.093 0 0 0-.033-.071c-.018-.013-.032-.034-.032-.047 0-.03-.075-.105-.106-.105-.014 0-.026-.007-.026-.017 0-.009-.014-.016-.032-.016-.018 0-.033-.008-.033-.017 0-.01-.015-.017-.033-.017-.018 0-.033-.008-.033-.017 0-.01-.19-.017-.54-.017-.35 0-.542.006-.542.017 0 .01-.043.017-.098.017-.055 0-.098.007-.098.017 0 .009-.03.017-.066.017-.036 0-.066.007-.066.016 0 .01-.022.017-.049.017-.027 0-.049.008-.049.017 0 .01-.015.017-.033.017-.018 0-.032.008-.032.017 0 .01-.015.017-.033.017-.018 0-.033.007-.033.017 0 .009-.02.016-.046.016a.089.089 0 0 0-.069.034c-.013.019-.036.034-.052.034-.017 0-.03.007-.03.017 0 .009-.011.017-.026.017-.014 0-.047.022-.072.05-.025.028-.054.05-.064.05-.026 0-.33.316-.33.342 0 .012-.014.033-.032.046-.018.014-.033.036-.033.05 0 .015-.015.038-.033.051-.018.014-.033.038-.033.055 0 .016-.007.03-.016.03-.01 0-.016.015-.016.033 0 .019-.008.034-.017.034-.009 0-.016.015-.016.034 0 .018-.008.033-.017.033-.009 0-.016.016-.016.034 0 .019-.007.034-.016.034-.01 0-.017.023-.017.05 0 .028-.007.051-.016.051-.01 0-.017.023-.017.05 0 .028-.007.051-.016.051-.009 0-.016.03-.016.068 0 .037-.008.067-.017.067-.01 0-.016.067-.016.169 0 .1-.007.168-.017.168-.01 0-.016.315-.016.91v.91h-2.213c-2.202 0-2.213 0-2.213-.033 0-.019-.008-.034-.017-.034-.009 0-.016-.012-.016-.027s-.022-.048-.05-.074c-.026-.026-.048-.056-.048-.066a.8.8 0 0 0-.123-.145.779.779 0 0 0-.141-.126c-.01 0-.039-.023-.064-.05-.026-.029-.056-.051-.069-.051-.012 0-.033-.016-.046-.034-.013-.019-.037-.034-.053-.034s-.029-.008-.029-.017c0-.009-.015-.017-.033-.017-.018 0-.032-.007-.032-.016 0-.01-.015-.017-.033-.017-.018 0-.033-.008-.033-.017 0-.01-.015-.017-.033-.017-.018 0-.033-.008-.033-.017 0-.01-.022-.017-.049-.017-.027 0-.049-.007-.049-.017 0-.009-.022-.016-.05-.016-.026 0-.048-.008-.048-.017 0-.01-.03-.017-.066-.017-.036 0-.066-.008-.066-.017 0-.01-.04-.017-.09-.017-.103 0-.139-.024-.139-.091 0-.024-.007-.044-.016-.044-.01 0-.017-.022-.017-.05 0-.028-.007-.05-.016-.05-.01 0-.017-.023-.017-.051 0-.028-.007-.05-.016-.05-.009 0-.016-.024-.016-.051 0-.028-.008-.051-.017-.051-.009 0-.016-.023-.016-.05 0-.028-.008-.051-.017-.051-.009 0-.016-.023-.016-.05 0-.029-.007-.051-.016-.051-.01 0-.017-.023-.017-.05 0-.029-.007-.051-.016-.051-.01 0-.017-.023-.017-.051 0-.028-.007-.05-.016-.05-.009 0-.016-.023-.016-.051 0-.028-.008-.05-.017-.05-.009 0-.016-.023-.016-.051 0-.028-.008-.05-.017-.05-.009 0-.016-.023-.016-.051 0-.028-.007-.05-.016-.05-.01 0-.017-.024-.017-.051 0-.028-.007-.051-.016-.051-.01 0-.016-.023-.016-.05 0-.028-.008-.051-.017-.051-.009 0-.016-.023-.016-.05 0-.029-.008-.051-.017-.051-.009 0-.016-.023-.016-.05 0-.029-.007-.051-.016-.051-.01 0-.017-.023-.017-.05 0-.029-.007-.052-.016-.052-.01 0-.017-.03-.017-.067 0-.037-.007-.067-.016-.067-.01 0-.016-.023-.016-.05 0-.029-.008-.051-.017-.051-.009 0-.016-.023-.016-.051 0-.028-.008-.05-.017-.05-.009 0-.016-.023-.016-.051 0-.028-.007-.05-.016-.05-.01 0-.017-.023-.017-.051 0-.028-.007-.05-.016-.05-.01 0-.017-.024-.017-.051 0-.028-.007-.051-.016-.051-.009 0-.016-.023-.016-.05 0-.028-.008-.051-.017-.051-.009 0-.016-.023-.016-.05 0-.029-.008-.051-.017-.051-.008 0-.016-.023-.016-.05 0-.029-.007-.051-.016-.051-.01 0-.017-.023-.017-.05 0-.029-.007-.051-.016-.051-.01 0-.017-.023-.017-.051 0-.028-.007-.05-.016-.05-.009 0-.016-.023-.016-.051 0-.028-.008-.05-.017-.05-.009 0-.016-.024-.016-.051 0-.028-.007-.05-.017-.05-.008 0-.016-.024-.016-.051 0-.028-.007-.05-.016-.05-.01 0-.017-.024-.017-.052 0-.027-.007-.05-.016-.05-.01 0-.016-.023-.016-.05 0-.028-.008-.051-.017-.051-.009 0-.016-.023-.016-.05 0-.029-.008-.051-.017-.051-.009 0-.016-.023-.016-.05 0-.029-.007-.051-.016-.051-.01 0-.017-.023-.017-.051 0-.028-.007-.05-.016-.05-.01 0-.017-.023-.017-.051 0-.028-.007-.05-.016-.05-.009 0-.016-.023-.016-.051 0-.028-.008-.05-.017-.05-.009 0-.016-.024-.016-.051 0-.028-.008-.05-.017-.05-.008 0-.016-.031-.016-.068 0-.037-.007-.068-.016-.068-.01 0-.017-.023-.017-.05 0-.028-.007-.05-.016-.05-.01 0-.017-.023-.017-.05 0-.027-.009-.052-.02-.056-.034-.012.029-.063.077-.063.023 0 .042-.008.042-.017 0-.01.022-.017.049-.017.027 0 .05-.008.05-.017 0-.01.021-.017.048-.017s.05-.007.05-.017c0-.009.022-.017.049-.017.027 0 .049-.007.049-.016 0-.01.022-.017.05-.017.026 0 .048-.008.048-.017 0-.01.022-.017.05-.017.027 0 .049-.008.049-.017 0-.01.022-.017.049-.017.027 0 .049-.007.049-.017 0-.009.022-.016.05-.016.026 0 .048-.008.048-.017 0-.01.023-.017.05-.017.027 0 .049-.008.049-.017 0-.01.022-.017.049-.017.027 0 .05-.007.05-.017 0-.009.021-.017.048-.017s.05-.007.05-.016c0-.01.022-.017.049-.017.027 0 .049-.008.049-.017 0-.01.022-.017.049-.017.027 0 .05-.008.05-.017 0-.01.029-.017.065-.017.036 0 .065-.007.065-.017 0-.009.023-.016.05-.016.027 0 .049-.008.049-.017 0-.01.022-.017.049-.017.027 0 .049-.008.049-.017 0-.01.022-.017.05-.017.026 0 .048-.007.048-.017 0-.009.023-.016.05-.016.027 0 .049-.008.049-.017 0-.01.022-.017.049-.017.027 0 .05-.008.05-.017 0-.01.021-.017.048-.017s.05-.008.05-.017c0-.009.022-.017.049-.017.027 0 .049-.007.049-.016 0-.01.022-.017.05-.017.026 0 .048-.008.048-.017 0-.01.022-.017.05-.017.026 0 .049-.008.049-.017 0-.01.022-.017.049-.017.027 0 .049-.007.049-.017 0-.009.022-.016.05-.016.026 0 .048-.008.048-.017 0-.01.022-.017.05-.017.027 0 .049-.008.049-.017 0-.01.022-.017.049-.017.027 0 .049-.007.049-.017 0-.009.022-.017.05-.017.026 0 .048-.007.048-.016 0-.01.023-.017.05-.017.027 0 .049-.008.049-.017 0-.01.022-.017.049-.017.027 0 .05-.008.05-.017 0-.01.021-.017.048-.017s.05-.007.05-.017c0-.009.022-.016.049-.016.027 0 .049-.008.049-.017 0-.01.03-.017.065-.017.037 0 .066-.008.066-.017 0-.01.022-.017.05-.017.026 0 .048-.007.048-.017 0-.009.023-.016.05-.016.027 0 .049-.008.049-.017 0-.01.022-.017.049-.017.027 0 .049-.008.049-.017 0-.01.022-.017.05-.017.026 0 .048-.008.048-.017 0-.01.023-.017.05-.017.027 0 .049-.007.049-.016 0-.01.022-.017.049-.017.027 0 .05-.008.05-.017 0-.01.021-.017.048-.017s.05-.008.05-.017c0-.01.022-.017.049-.017.027 0 .049-.007.049-.017 0-.009.022-.016.049-.016.027 0 .05-.008.05-.017 0-.01.021-.017.048-.017.028 0 .05-.008.05-.017 0-.01.022-.017.049-.017.027 0 .049-.008.049-.017 0-.009.022-.017.05-.017.026 0 .048-.007.048-.016 0-.01.022-.017.05-.017.027 0 .049-.008.049-.017 0-.01.022-.017.049-.017.027 0 .049-.008.049-.017 0-.01.022-.017.05-.017.026 0 .048-.007.048-.017 0-.009.023-.016.05-.016.027 0 .049-.008.049-.017 0-.01.022-.017.049-.017.027 0 .05-.008.05-.017 0-.01.021-.017.048-.017s.05-.007.05-.017c0-.009.022-.017.049-.017.027 0 .049-.007.049-.016 0-.01.03-.017.065-.017.036 0 .066-.008.066-.017 0-.01.022-.017.05-.017.026 0 .048-.007.048-.017 0-.01.022-.017.05-.017.027 0 .049-.007.049-.017 0-.009.022-.016.049-.016.027 0 .05-.008.05-.017 0-.01.021-.017.048-.017s.05-.008.05-.017c0-.01.022-.017.049-.017.027 0 .049-.007.049-.017 0-.009.022-.017.049-.017.027 0 .05-.007.05-.016 0-.01.021-.017.048-.017s.05-.008.05-.017c0-.01.022-.017.049-.017.027 0 .049-.008.049-.017 0-.01.022-.017.049-.017.027 0 .05-.007.05-.016 0-.01.021-.017.048-.017s.05-.008.05-.017c0-.01.022-.017.049-.017.027 0 .049-.008.049-.017 0-.01.022-.017.05-.017.026 0 .048-.007.048-.017 0-.009.022-.016.05-.016.027 0 .049-.008.049-.017 0-.01.022-.017.049-.017.027 0 .049-.008.049-.017 0-.01.022-.017.05-.017.026 0 .048-.007.048-.017 0-.009.023-.017.05-.017.027 0 .049-.007.049-.016 0-.01.022-.017.049-.017.027 0 .05-.008.05-.017 0-.01.021-.017.048-.017s.05-.008.05-.017c0-.01.022-.017.049-.017.027 0 .049-.007.049-.017 0-.009.022-.016.049-.016.027 0 .05-.008.05-.017 0-.01.029-.017.065-.017.036 0 .065-.008.065-.017 0-.01.023-.017.05-.017.027 0 .049-.007.049-.017 0-.009.022-.017.049-.017.027 0 .049-.007.049-.016 0-.01.022-.017.05-.017.026 0 .048-.008.048-.017 0-.01.023-.017.05-.017.027 0 .049-.008.049-.017 0-.01.015-.017.033-.017.018 0 .032-.007.032-.016 0-.01.015-.017.033-.017.018 0 .033-.008.033-.017 0-.01.011-.017.025-.017.028 0 .467-.445.467-.474 0-.01.022-.04.049-.065.027-.026.05-.057.05-.068 0-.01.021-.041.048-.067.027-.026.05-.058.05-.07 0-.013.014-.035.032-.048.018-.014.033-.036.033-.05 0-.015.015-.038.033-.051.018-.014.033-.036.033-.05 0-.015.014-.038.032-.051.018-.014.033-.038.033-.055 0-.016.007-.03.016-.03.01 0 .017-.013.017-.03 0-.016.015-.04.033-.054.018-.013.032-.038.032-.054 0-.017.008-.03.017-.03.009 0 .016-.015.016-.034 0-.018.008-.034.017-.034.009 0 .016-.015.016-.033 0-.019.008-.034.017-.034.008 0 .016-.015.016-.034 0-.018.007-.034.016-.034.01 0 .017-.015.017-.033 0-.019.007-.034.016-.034.01 0 .017-.015.017-.034 0-.018.007-.033.016-.033.009 0 .016-.015.016-.034 0-.019.008-.034.017-.034.009 0 .016-.023.016-.05 0-.028.007-.05.016-.05.01 0 .017-.016.017-.035 0-.018.007-.033.016-.033.01 0 .017-.023.017-.05 0-.029.007-.051.016-.051.009 0 .016-.016.016-.034 0-.019.008-.034.017-.034.009 0 .016-.023.016-.05 0-.028.008-.05.017-.05.009 0 .016-.024.016-.052 0-.027.007-.05.016-.05.01 0 .017-.023.017-.05 0-.028.007-.051.016-.051.01 0 .017-.023.017-.05 0-.029.007-.051.016-.051.009 0 .016-.023.016-.05 0-.029.008-.051.017-.051.009 0 .016-.03.016-.068 0-.037.008-.067.017-.067.009 0 .016-.03.016-.068 0-.037.007-.067.016-.067.01 0 .017-.03.017-.067 0-.038.007-.068.016-.068.01 0 .017-.038.017-.084 0-.047.007-.084.016-.084.009 0 .016-.038.016-.085 0-.046.008-.084.017-.084.009 0 .016-.05.016-.118 0-.067.007-.118.016-.118.01 0 .017-.056.017-.135 0-.078.007-.135.016-.135.01 0 .017-.084.017-.219s.006-.219.016-.219.016-.168.016-.472c0-.303-.005-.472-.016-.472-.01 0-.016-.084-.016-.219s-.007-.219-.017-.219c-.01 0-.016-.062-.016-.152s-.007-.151-.017-.151c-.01 0-.016-.056-.016-.135 0-.079-.007-.135-.016-.135-.01 0-.017-.045-.017-.101 0-.056-.007-.101-.016-.101-.01 0-.017-.045-.017-.101 0-.056-.007-.101-.016-.101-.009 0-.016-.038-.016-.085 0-.046-.008-.084-.017-.084-.009 0-.016-.015-.016-.034 0-.018-.007-.033-.017-.033-.008 0-.016-.012-.016-.026 0-.034-.14-.177-.172-.177-.013 0-.025-.007-.025-.016 0-.01-.014-.017-.032-.017-.019 0-.033-.008-.033-.017 0-.01-.071-.017-.18-.017-.11 0-.18.007-.18.017Zm-.23 1.247c0 .046.008.084.017.084.01 0 .017.068.017.169s.006.168.016.168.016.118.016.32c0 .31 0 .32-.032.32-.019 0-.033.008-.033.018 0 .009-.03.017-.066.017-.036 0-.066.007-.066.016 0 .01-.029.017-.065.017-.036 0-.066.008-.066.017 0 .01-.022.017-.049.017-.027 0-.049.008-.049.017 0 .01-.03.017-.066.017-.036 0-.065.007-.065.017 0 .009-.022.016-.05.016-.026 0-.049.008-.049.017 0 .01-.029.017-.065.017-.036 0-.066.008-.066.017 0 .01-.03.017-.065.017-.036 0-.066.007-.066.017 0 .009-.022.017-.049.017-.027 0-.05.007-.05.016 0 .01-.029.017-.065.017-.036 0-.065.008-.065.017 0 .01-.03.017-.066.017-.036 0-.065.008-.065.017 0 .01-.023.017-.05.017-.027 0-.049.007-.049.017 0 .009-.03.016-.065.016-.037 0-.066.008-.066.017 0 .01-.03.017-.066.017-.036 0-.065.008-.065.017 0 .01-.022.017-.05.017-.026 0-.048.007-.048.017 0 .009-.03.016-.066.016-.036 0-.066.008-.066.017 0 .01-.03.017-.065.017-.036 0-.066.008-.066.017 0 .01-.022.017-.049.017-.027 0-.05.008-.05.017 0 .009-.029.017-.065.017-.036 0-.065.007-.065.016 0 .01-.022.017-.05.017-.026 0-.049.008-.049.017 0 .01-.03.017-.065.017-.036 0-.066.008-.066.017 0 .01-.03.017-.065.017-.036 0-.066.007-.066.017 0 .009-.022.016-.05.016-.026 0-.048.008-.048.017 0 .01-.03.017-.066.017-.036 0-.066.008-.066.017 0 .01-.029.017-.065.017-.036 0-.066.007-.066.017 0 .009-.022.017-.049.017-.027 0-.049.007-.049.016 0 .01-.03.017-.066.017-.036 0-.065.008-.065.017 0 .01-.03.017-.066.017-.036 0-.065.008-.065.017 0 .01-.022.017-.05.017-.026 0-.049.007-.049.017 0 .009-.03.016-.065.016-.036 0-.066.008-.066.017 0 .01-.03.017-.065.017-.036 0-.066.008-.066.017 0 .01-.022.017-.05.017-.026 0-.048.007-.048.017 0 .009-.03.016-.066.016-.036 0-.065.008-.065.017 0 .01-.023.017-.05.017-.027 0-.049.008-.049.017 0 .01-.03.017-.065.017-.036 0-.066.008-.066.017 0 .01-.03.017-.066.017-.035 0-.065.007-.065.016 0 .01-.022.017-.05.017-.026 0-.048.008-.048.017 0 .01-.03.017-.066.017-.036 0-.066.008-.066.017 0 .01-.03.017-.065.017-.036 0-.066.007-.066.017 0 .009-.022.016-.049.016-.027 0-.05.008-.05.017 0 .01-.029.017-.065.017-.036 0-.065.008-.065.017 0 .01-.03.017-.066.017-.036 0-.065.008-.065.017 0 .009-.023.017-.05.017-.027 0-.049.007-.049.016 0 .01-.03.017-.065.017-.036 0-.066.008-.066.017 0 .01-.022.017-.05.017-.026 0-.048.008-.048.017 0 .01-.03.017-.066.017-.036 0-.065.007-.065.017 0 .009-.03.016-.066.016-.036 0-.066.008-.066.017 0 .01-.022.017-.049.017-.027 0-.049.008-.049.017 0 .01-.03.017-.066.017-.036 0-.065.007-.065.017 0 .009-.03.017-.066.017-.036 0-.065.007-.065.016 0 .01-.022.017-.05.017-.026 0-.048.008-.048.017 0 .01-.03.017-.066.017-.036 0-.066.007-.066.017 0 .01-.03.017-.065.017-.036 0-.066.007-.066.017 0 .009-.022.016-.049.016-.027 0-.05.008-.05.017 0 .01-.029.017-.065.017-.036 0-.065.008-.065.017 0 .01-.03.017-.066.017-.036 0-.066.007-.066.017 0 .009-.022.017-.049.017-.027 0-.049.007-.049.016 0 .01-.03.017-.065.017-.036 0-.066.008-.066.017 0 .01-.022.017-.05.017-.026 0-.048.008-.048.017 0 .01-.03.017-.066.017-.036 0-.066.007-.066.016 0 .01-.03.017-.065.017-.036 0-.066.008-.066.017 0 .01-.022.017-.049.017-.027 0-.049.008-.049.017 0 .01-.03.017-.066.017-.036 0-.065.007-.065.017 0 .009-.03.016-.066.016-.036 0-.065.008-.065.017 0 .01-.023.017-.05.017-.027 0-.049.008-.049.017 0 .01-.03.017-.065.017-.036 0-.066.007-.066.017 0 .009-.03.017-.065.017-.036 0-.066.007-.066.016 0 .01-.022.017-.05.017-.026 0-.048.008-.048.017 0 .01-.03.017-.066.017-.036 0-.066.008-.066.017 0 .01-.029.017-.065.017-.036 0-.066.007-.066.017 0 .009-.022.016-.049.016-.027 0-.049.008-.049.017 0 .01-.03.017-.066.017-.036 0-.065.008-.065.017 0 .01-.022.017-.05.017-.026 0-.049.007-.049.017 0 .009-.029.017-.065.017-.036 0-.066.007-.066.016 0 .01-.03.017-.065.017-.036 0-.066.008-.066.017 0 .01-.022.017-.049.017-.027 0-.05.008-.05.017 0 .01-.029.017-.065.017-.036 0-.065.007-.065.016 0 .01-.03.017-.066.017-.036 0-.066.008-.066.017 0 .01-.022.017-.049.017-.027 0-.049.008-.049.017 0 .01-.03.017-.065.017-.036 0-.066.007-.066.017 0 .009-.03.016-.066.016-.036 0-.065.008-.065.017 0 .01-.022.017-.05.017-.026 0-.049.008-.049.017 0 .01-.029.017-.065.017-.036 0-.066.008-.066.017 0 .009-.022.017-.049.017-.027 0-.049.007-.049.016 0 .01-.03.017-.066.017-.036 0-.065.008-.065.017 0 .01-.03.017-.066.017-.036 0-.065.008-.065.017 0 .01-.022.017-.05.017-.026 0-.049.007-.049.017 0 .009-.03.016-.065.016-.036 0-.066.008-.066.017 0 .01-.03.017-.065.017-.036 0-.066.008-.066.017 0 .01-.022.017-.05.017-.026 0-.048.007-.048.017 0 .009-.03.017-.066.017-.036 0-.065.007-.065.016 0 .01-.03.017-.066.017-.036 0-.066.008-.066.017 0 .01-.022.017-.049.017-.027 0-.049.008-.049.017 0 .01-.03.017-.066.017-.036 0-.065.007-.065.017 0 .009-.03.016-.066.016-.036 0-.065.008-.065.017 0 .01-.022.017-.05.017-.026 0-.049.008-.049.017 0 .01-.03.017-.065.017-.036 0-.066.007-.066.017 0 .009-.022.017-.049.017-.027 0-.05.007-.05.016 0 .01-.029.017-.065.017-.036 0-.065.008-.065.017 0 .01-.03.017-.066.017-.036 0-.065.008-.065.017 0 .01-.022.017-.05.017-.027 0-.049.007-.049.017 0 .009-.03.016-.065.016-.036 0-.066.008-.066.017 0 .01-.03.017-.066.017-.035 0-.065.008-.065.017 0 .01-.022.017-.05.017-.026 0-.049.007-.049.017 0 .009-.029.016-.065.016-.036 0-.066.008-.066.017 0 .01-.03.017-.065.017-.036 0-.066.008-.066.017 0 .01-.022.017-.049.017-.027 0-.05.008-.05.017 0 .009-.029.017-.065.017-.036 0-.065.007-.065.016 0 .01-.022.017-.05.017-.026 0-.049.008-.049.017 0 .01-.03.017-.065.017-.036 0-.066.008-.066.017 0 .01-.03.017-.065.017-.036 0-.066.007-.066.017 0 .009-.022.016-.049.016-.027 0-.05.008-.05.017 0 .01-.029.017-.065.017-.036 0-.065.008-.065.017 0 .01-.03.017-.066.017-.036 0-.066.007-.066.017 0 .009-.022.017-.049.017-.027 0-.049.007-.049.016 0 .01-.03.017-.066.017-.035 0-.065.008-.065.017 0 .01-.03.017-.066.017-.036 0-.065.008-.065.017 0 .01-.022.017-.05.017-.026 0-.049.007-.049.017 0 .009-.03.016-.065.016-.036 0-.066.008-.066.017 0 .01-.03.017-.065.017-.036 0-.066.008-.066.017 0 .01-.022.017-.05.017-.026 0-.048.007-.048.017 0 .009-.03.016-.066.016-.036 0-.065.008-.065.017 0 .01-.023.017-.05.017-.027 0-.049.008-.049.017 0 .01-.03.017-.065.017-.036 0-.066.008-.066.017 0 .01-.03.017-.066.017-.036 0-.065.007-.065.016 0 .01-.022.017-.05.017-.026 0-.048.008-.048.017 0 .01-.03.017-.066.017-.036 0-.066.008-.066.017 0 .01-.029.017-.065.017-.036 0-.066.007-.066.017 0 .009-.022.016-.049.016-.027 0-.049.008-.049.017 0 .01-.03.017-.066.017-.036 0-.065.008-.065.017 0 .01-.03.017-.066.017-.036 0-.065.008-.065.017 0 .009-.022.017-.05.017-.026 0-.049.007-.049.016 0 .01-.03.017-.065.017-.036 0-.066.008-.066.017 0 .01-.03.017-.065.017-.037 0-.066.008-.066.017 0 .01-.022.017-.05.017-.026 0-.048.007-.048.017 0 .009-.03.016-.066.016-.036 0-.066.008-.066.017 0 .01-.022.017-.049.017-.027 0-.049.008-.049.017 0 .01-.03.017-.065.017-.037 0-.066.007-.066.017 0 .009-.03.017-.066.017-.036 0-.065.007-.065.016 0 .01-.022.017-.05.017-.026 0-.049.008-.049.017 0 .01-.029.017-.065.017-.036 0-.066.007-.066.017 0 .01-.03.017-.065.017-.036 0-.066.007-.066.017 0 .009-.022.016-.049.016-.027 0-.05.008-.05.017 0 .01-.029.017-.065.017-.036 0-.065.008-.065.017 0 .01-.03.017-.066.017-.036 0-.066.007-.066.017 0 .009-.022.017-.049.017-.027 0-.049.007-.049.016 0 .01-.03.017-.065.017-.036 0-.066.008-.066.017 0 .01-.022.017-.05.017-.026 0-.048.008-.048.017 0 .01-.03.017-.066.017-.036 0-.066.007-.066.016 0 .01-.029.017-.065.017-.036 0-.066.008-.066.017 0 .01-.022.017-.049.017-.027 0-.049.008-.049.017 0 .01-.03.017-.066.017-.036 0-.065.007-.065.017 0 .009-.03.016-.066.016-.036 0-.065.008-.065.017 0 .01-.022.017-.05.017-.026 0-.049.008-.049.017 0 .01-.03.017-.065.017-.036 0-.066.007-.066.017 0 .009-.03.017-.065.017-.036 0-.066.007-.066.016 0 .01-.022.017-.05.017-.026 0-.048.008-.048.017 0 .01-.03.017-.066.017-.036 0-.065.008-.065.017 0 .01-.03.017-.066.017-.036 0-.066.007-.066.017 0 .009-.022.016-.049.016-.027 0-.049.008-.049.017 0 .01-.03.017-.066.017-.036 0-.065.008-.065.017 0 .01-.022.017-.05.017-.026 0-.048.007-.048.017 0 .009-.03.017-.066.017-.036 0-.066.007-.066.016 0 .01-.03.017-.065.017-.036 0-.066.008-.066.017 0 .01-.022.017-.049.017-.027 0-.05.008-.05.017 0 .01-.029.017-.065.017-.036 0-.065.007-.065.016 0 .01-.03.017-.066.017-.036 0-.065.008-.065.017 0 .01-.022.017-.05.017-.027 0-.049.008-.049.017 0 .01-.03.017-.065.017-.036 0-.066.007-.066.017 0 .009-.03.016-.066.016-.036 0-.065.008-.065.017 0 .01-.022.017-.05.017-.026 0-.048.008-.048.017 0 .01-.043.017-.095.017-.076 0-.1-.007-.119-.034-.012-.018-.036-.034-.052-.034s-.03-.007-.03-.016c0-.01-.013-.017-.029-.017s-.04-.015-.052-.034c-.014-.018-.036-.034-.05-.034-.014 0-.036-.015-.049-.033-.013-.019-.037-.034-.053-.034s-.029-.008-.029-.017c0-.01-.013-.017-.029-.017s-.04-.015-.053-.034c-.013-.018-.036-.033-.053-.033-.016 0-.029-.008-.029-.017 0-.01-.013-.017-.029-.017s-.04-.015-.053-.034c-.013-.018-.037-.033-.053-.033s-.029-.008-.029-.017c0-.01-.013-.017-.029-.017s-.04-.015-.053-.034c-.013-.018-.036-.033-.052-.033s-.03-.008-.03-.017c0-.01-.013-.017-.029-.017s-.04-.015-.053-.034c-.013-.018-.035-.034-.049-.034-.014 0-.036-.015-.049-.033-.013-.019-.037-.034-.053-.034s-.029-.008-.029-.017c0-.01-.013-.017-.029-.017s-.04-.015-.053-.033c-.013-.019-.037-.034-.053-.034s-.029-.008-.029-.017c0-.01.022-.017.05-.017.026 0 .049-.007.049-.017 0-.009.022-.017.049-.017.027 0 .049-.007.049-.016 0-.01.03-.017.065-.017.037 0 .066-.008.066-.017 0-.01.03-.017.066-.017.036 0 .065-.008.065-.017 0-.01.022-.017.05-.017.026 0 .049-.007.049-.016 0-.01.029-.017.065-.017.036 0 .066-.008.066-.017 0-.01.03-.017.065-.017.036 0 .066-.008.066-.017 0-.01.03-.017.065-.017.036 0 .066-.007.066-.017 0-.009.022-.016.05-.016.026 0 .048-.008.048-.017 0-.01.03-.017.066-.017.036 0 .066-.008.066-.017 0-.01.029-.017.065-.017.036 0 .066-.008.066-.017 0-.009.022-.017.049-.017.027 0 .049-.007.049-.016 0-.01.03-.017.066-.017.036 0 .065-.008.065-.017 0-.01.03-.017.066-.017.036 0 .065-.008.065-.017 0-.01.022-.017.05-.017.026 0 .049-.007.049-.017 0-.009.03-.016.065-.016.036 0 .066-.008.066-.017 0-.01.03-.017.065-.017.037 0 .066-.008.066-.017 0-.01.022-.017.05-.017.026 0 .048-.007.048-.017 0-.009.03-.017.066-.017.036 0 .065-.007.065-.016 0-.01.03-.017.066-.017.036 0 .066-.008.066-.017 0-.01.022-.017.049-.017.027 0 .049-.008.049-.017 0-.01.03-.017.066-.017.036 0 .065-.007.065-.017 0-.009.03-.016.066-.016.036 0 .065-.008.065-.017 0-.01.03-.017.066-.017.036 0 .065-.008.065-.017 0-.01.023-.017.05-.017.027 0 .049-.007.049-.017 0-.009.03-.017.065-.017.036 0 .066-.007.066-.016 0-.01.03-.017.066-.017.036 0 .065-.008.065-.017 0-.01.022-.017.05-.017.026 0 .048-.008.048-.017 0-.01.03-.017.066-.017.036 0 .066-.007.066-.017 0-.009.03-.016.065-.016.036 0 .066-.008.066-.017 0-.01.022-.017.049-.017.027 0 .05-.008.05-.017 0-.01.029-.017.065-.017.036 0 .065-.007.065-.017 0-.009.03-.016.066-.016.036 0 .065-.008.065-.017 0-.01.023-.017.05-.017.027 0 .049-.008.049-.017 0-.01.03-.017.065-.017.036 0 .066-.008.066-.017 0-.009.03-.017.066-.017.035 0 .065-.007.065-.016 0-.01.03-.017.066-.017.036 0 .065-.008.065-.017 0-.01.022-.017.05-.017.026 0 .049-.008.049-.017 0-.01.029-.017.065-.017.036 0 .066-.007.066-.017 0-.009.03-.016.065-.016.036 0 .066-.008.066-.017 0-.01.022-.017.049-.017.027 0 .05-.008.05-.017 0-.01.029-.017.065-.017.036 0 .065-.007.065-.017 0-.009.03-.017.066-.017.036 0 .066-.007.066-.016 0-.01.022-.017.049-.017.027 0 .049-.008.049-.017 0-.01.03-.017.065-.017.037 0 .066-.008.066-.017 0-.01.03-.017.066-.017.036 0 .065-.007.065-.017 0-.009.022-.016.05-.016.026 0 .049-.008.049-.017 0-.01.029-.017.065-.017.036 0 .066-.008.066-.017 0-.01.03-.017.065-.017.036 0 .066-.007.066-.017 0-.009.03-.016.065-.016.036 0 .066-.008.066-.017 0-.01.022-.017.05-.017.026 0 .048-.008.048-.017 0-.01.03-.017.066-.017.036 0 .065-.008.065-.017 0-.01.03-.017.066-.017.036 0 .066-.007.066-.016 0-.01.022-.017.049-.017.027 0 .049-.008.049-.017 0-.01.03-.017.066-.017.036 0 .065-.008.065-.017 0-.01.03-.017.066-.017.036 0 .065-.007.065-.017 0-.009.022-.016.05-.016.027 0 .049-.008.049-.017 0-.01.03-.017.065-.017.036 0 .066-.008.066-.017 0-.01.03-.017.065-.017.036 0 .066-.008.066-.017 0-.009.022-.017.05-.017.026 0 .048-.007.048-.016 0-.01.03-.017.066-.017.036 0 .066-.008.066-.017 0-.01.029-.017.065-.017.036 0 .066-.008.066-.017 0-.01.022-.017.049-.017.027 0 .049-.007.049-.017 0-.009.03-.016.066-.016.036 0 .065-.008.065-.017 0-.01.03-.017.066-.017.036 0 .065-.008.065-.017 0-.01.03-.017.066-.017.036 0 .065-.007.065-.017 0-.009.023-.017.05-.017.027 0 .049-.007.049-.016 0-.01.03-.017.065-.017.036 0 .066-.008.066-.017 0-.01.03-.017.065-.017.037 0 .066-.007.066-.017 0-.01.022-.017.05-.017.026 0 .048-.007.048-.017 0-.009.03-.016.066-.016.036 0 .066-.008.066-.017 0-.01.03-.017.065-.017.036 0 .066-.008.066-.017 0-.01.022-.017.049-.017.027 0 .049-.007.049-.017 0-.009.03-.017.066-.017.036 0 .065-.007.065-.016 0-.01.03-.017.066-.017.036 0 .065-.008.065-.017 0-.01.023-.017.05-.017.027 0 .049-.008.049-.017 0-.01.03-.017.065-.017.036 0 .066-.007.066-.016 0-.01.03-.017.065-.017.037 0 .066-.008.066-.017 0-.01.03-.017.066-.017.036 0 .065-.008.065-.017 0-.01.022-.017.05-.017.026 0 .049-.007.049-.017 0-.009.029-.016.065-.016.036 0 .066-.008.066-.017 0-.01.03-.017.065-.017.036 0 .066-.008.066-.017 0-.01.022-.017.049-.017.027 0 .05-.007.05-.017 0-.009.029-.017.065-.017.036 0 .065-.007.065-.016 0-.01.03-.017.066-.017.036 0 .066-.008.066-.017 0-.01.022-.017.049-.017.027 0 .049-.008.049-.017 0-.01.03-.017.065-.017.037 0 .066-.007.066-.017 0-.009.03-.016.066-.016.036 0 .065-.008.065-.017 0-.01.022-.017.05-.017.026 0 .049-.008.049-.017 0-.01.029-.017.065-.017.036 0 .066-.007.066-.017 0-.009.03-.017.065-.017.036 0 .066-.007.066-.016 0-.01.03-.017.065-.017.036 0 .066-.008.066-.017 0-.01.022-.017.05-.017.026 0 .048-.008.048-.017 0-.01.03-.017.066-.017.036 0 .065-.007.065-.016 0-.01.03-.017.066-.017.036 0 .066-.008.066-.017 0-.01.022-.017.049-.017.027 0 .049-.008.049-.017 0-.01.03-.017.066-.017.036 0 .065-.007.065-.017 0-.009.03-.016.066-.016.036 0 .065-.008.065-.017 0-.01.022-.017.05-.017.026 0 .049-.008.049-.017 0-.01.03-.017.065-.017.036 0 .066-.008.066-.017 0-.009.03-.017.065-.017.036 0 .066-.007.066-.016 0-.01.022-.017.05-.017.026 0 .048-.008.048-.017 0-.01.03-.017.066-.017.036 0 .065-.008.065-.017 0-.01.03-.017.066-.017.036 0 .066-.007.066-.017 0-.009.022-.016.049-.016.027 0 .049-.008.049-.017 0-.01.03-.017.066-.017.036 0 .065-.008.065-.017 0-.01.03-.017.066-.017.036 0 .065-.007.065-.017 0-.009.03-.017.066-.017.036 0 .065-.007.065-.016 0-.01.022-.017.05-.017.027 0 .049-.008.049-.017 0-.01.03-.017.065-.017.036 0 .066-.008.066-.017 0-.01.03-.017.066-.017.035 0 .065-.007.065-.017 0-.009.022-.016.05-.016.026 0 .048-.008.048-.017 0-.01.03-.017.066-.017.036 0 .066-.008.066-.017 0-.01.029-.017.065-.017.036 0 .066-.007.066-.017 0-.009.022-.017.049-.017.027 0 .049-.007.049-.016 0-.01.03-.017.066-.017.036 0 .065-.008.065-.017 0-.01.03-.017.066-.017.036 0 .065-.008.065-.017 0-.01.023-.017.05-.017.026 0 .049-.007.049-.017 0-.009.03-.016.065-.016.036 0 .066-.008.066-.017 0-.01.03-.017.065-.017.037 0 .066-.008.066-.017 0-.01.03-.017.066-.017.036 0 .065-.007.065-.017 0-.009.022-.016.05-.016.026 0 .048-.008.048-.017 0-.01.03-.017.066-.017.036 0 .066-.008.066-.017 0-.01.03-.017.065-.017.036 0 .066-.008.066-.017 0-.009.022-.017.049-.017.027 0 .05-.007.05-.016 0-.01.029-.017.065-.017.036 0 .065-.008.065-.017 0-.01.03-.017.066-.017.036 0 .065-.008.065-.017 0-.01.023-.017.05-.017.027 0 .049-.007.049-.017 0-.009.03-.016.065-.016.036 0 .066-.008.066-.017 0-.01.03-.017.066-.017.036 0 .065-.008.065-.017 0-.01.022-.017.05-.017.026 0 .049-.007.049-.017 0-.009.029-.017.065-.017.036 0 .066-.007.066-.016 0-.01.03-.017.065-.017.036 0 .066-.008.066-.017 0-.01.03-.017.065-.017.036 0 .066-.008.066-.017 0-.01.022-.017.05-.017.026 0 .048-.007.048-.017 0-.009.03-.016.066-.016.036 0 .065-.008.065-.017 0-.01.03-.017.066-.017.036 0 .066-.008.066-.017 0-.01.022-.017.049-.017.027 0 .049-.007.049-.017 0-.009.03-.016.066-.016.035 0 .065-.008.065-.017 0-.01.03-.017.066-.017.036 0 .065-.008.065-.017 0-.01.022-.017.05-.017.026 0 .049-.008.049-.017 0-.01.03-.017.065-.017.036 0 .066-.007.066-.016 0-.01.03-.017.065-.017.036 0 .066-.008.066-.017 0-.01.022-.017.049-.017.027 0 .05-.008.05-.017 0-.01.029-.017.065-.017.036 0 .065-.007.065-.017 0-.009.03-.016.066-.016.036 0 .066-.008.066-.017 0-.01.022-.017.049-.017.027 0 .049-.008.049-.017 0-.01.03-.017.065-.017.036 0 .066-.008.066-.017 0-.009.03-.017.066-.017.036 0 .065-.007.065-.016 0-.01.03-.017.066-.017.036 0 .065-.008.065-.017 0-.01.022-.017.05-.017.027 0 .049-.008.049-.017 0-.01.03-.017.065-.017.036 0 .066-.007.066-.017 0-.009.03-.016.065-.016.036 0 .066-.008.066-.017 0-.01.022-.017.05-.017.026 0 .048-.008.048-.017 0-.01.03-.017.066-.017.036 0 .066-.007.066-.017 0-.009.029-.017.065-.017.036 0 .066-.007.066-.016 0-.01.022-.017.049-.017.027 0 .049-.008.049-.017 0-.01.03-.017.066-.017.036 0 .065-.007.065-.017 0-.01.03-.017.066-.017.036 0 .065-.007.065-.017 0-.009.022-.016.05-.016.026 0 .049-.008.049-.017 0-.01.03-.017.065-.017.036 0 .066-.008.066-.017 0-.01.03-.017.065-.017.036 0 .066-.007.066-.017 0-.009.022-.017.05-.017.026 0 .048-.007.048-.016 0-.01.03-.017.066-.017.036 0 .065-.008.065-.017 0-.01.03-.017.066-.017.036 0 .066-.008.066-.017 0-.01.03-.017.065-.017.036 0 .066-.007.066-.016 0-.01.022-.017.049-.017.027 0 .05-.008.05-.017 0-.01.029-.017.065-.017.036 0 .065-.008.065-.017 0-.01.03-.017.066-.017.036 0 .065-.007.065-.017 0-.009.023-.016.05-.016.027 0 .049-.008.049-.017 0-.01.03-.017.065-.017.036 0 .066-.008.066-.017 0-.01.03-.017.066-.017.035 0 .065-.007.065-.017 0-.009.022-.017.05-.017.026 0 .048-.007.048-.016 0-.01.03-.017.066-.017.036 0 .066-.008.066-.017 0-.01.03-.017.065-.017.036 0 .066-.008.066-.017 0-.01.03-.017.065-.017.036 0 .066-.007.066-.017 0-.009.022-.016.05-.016.026 0 .048-.008.048-.017 0-.01.03-.017.066-.017.036 0 .065-.008.065-.017 0-.01.03-.017.066-.017.036 0 .066-.007.066-.017 0-.009.022-.017.049-.017.027 0 .049-.007.049-.016 0-.01.007-.017.016-.017.01 0 .017.038.017.084Zm0 2.242c0 .037-.007.067-.016.067-.009 0-.016.045-.016.101 0 .056-.007.101-.017.101-.009 0-.016.038-.016.085 0 .046-.007.084-.016.084-.01 0-.017.03-.017.067 0 .037-.007.068-.016.068-.01 0-.017.03-.017.067 0 .037-.007.067-.016.067-.009 0-.016.023-.016.051 0 .028-.008.05-.017.05-.009 0-.016.03-.016.068 0 .037-.008.067-.017.067-.008 0-.016.023-.016.051 0 .028-.007.05-.016.05-.01 0-.017.016-.017.034 0 .019-.007.034-.016.034-.009 0-.016.023-.016.05 0 .028-.008.051-.017.051-.009 0-.016.023-.016.05 0 .029-.008.051-.017.051-.009 0-.016.015-.016.034 0 .018-.007.034-.016.034-.01 0-.017.015-.017.033 0 .019-.007.034-.016.034-.01 0-.017.023-.017.05 0 .028-.007.051-.016.051-.009 0-.016.015-.016.034 0 .018-.008.034-.017.034-.009 0-.016.015-.016.033 0 .019-.008.034-.017.034-.009 0-.016.014-.016.03 0 .017-.015.04-.033.054-.018.014-.032.038-.032.055 0 .016-.008.03-.017.03-.009 0-.016.015-.016.033 0 .019-.008.034-.017.034-.009 0-.016.014-.016.03 0 .017-.015.04-.033.054-.018.014-.033.036-.033.05 0 .015-.014.038-.032.051-.018.014-.033.035-.033.048 0 .013-.022.044-.05.07-.026.026-.049.056-.049.067 0 .011-.03.05-.065.085a.273.273 0 0 0-.066.083.49.49 0 0 1-.172.17c-.013 0-.024.007-.024.017 0 .009-.023.017-.05.017-.027 0-.049.007-.049.016 0 .01-.022.017-.049.017-.027 0-.05.008-.05.017 0 .01-.021.017-.048.017s-.05.008-.05.017c0 .01-.022.017-.049.017-.027 0-.049.007-.049.017 0 .009-.022.016-.05.016-.026 0-.048.008-.048.017 0 .01-.022.017-.05.017-.026 0-.049.008-.049.017 0 .01-.022.017-.049.017-.027 0-.049.007-.049.017 0 .009-.022.016-.05.016-.026 0-.048.008-.048.017 0 .01-.022.017-.05.017-.027 0-.049.008-.049.017 0 .01-.022.017-.049.017-.027 0-.05.008-.05.017 0 .01-.021.017-.048.017s-.05.007-.05.016c0 .01-.014.017-.032.017-.022 0-.033-.01-.033-.033 0-.019-.007-.034-.016-.034-.01 0-.017-.03-.017-.068 0-.037-.007-.067-.016-.067-.01 0-.017-.03-.017-.067 0-.037-.007-.068-.016-.068-.009 0-.016-.03-.016-.067 0-.037-.008-.068-.017-.068-.009 0-.016-.038-.016-.084 0-.046-.008-.084-.017-.084-.008 0-.016-.03-.016-.068 0-.037-.007-.067-.016-.067-.01 0-.017-.03-.017-.067 0-.037-.007-.068-.016-.068-.01 0-.017-.03-.017-.067 0-.037-.007-.068-.016-.068-.009 0-.016-.03-.016-.067 0-.037-.008-.067-.017-.067-.009 0-.016-.03-.016-.068 0-.037-.008-.067-.017-.067-.009 0-.016-.038-.016-.085 0-.046-.007-.084-.016-.084-.01 0-.017-.03-.017-.067 0-.037-.007-.068-.016-.068-.01 0-.017-.03-.017-.067 0-.037-.007-.067-.016-.067-.009 0-.016-.03-.016-.068 0-.037-.008-.067-.017-.067-.009 0-.016-.03-.016-.068 0-.037-.007-.067-.016-.067-.01 0-.017-.03-.017-.068 0-.037-.007-.067-.016-.067-.01 0-.017-.03-.017-.067 0-.064.003-.068.05-.068.027 0 .049-.007.049-.017 0-.009.022-.017.049-.017.027 0 .05-.007.05-.016 0-.01.029-.017.065-.017.036 0 .065-.008.065-.017 0-.01.03-.017.066-.017.036 0 .065-.008.065-.017 0-.01.023-.017.05-.017.027 0 .049-.007.049-.016 0-.01.03-.017.065-.017.036 0 .066-.008.066-.017 0-.01.022-.017.05-.017.026 0 .048-.008.048-.017 0-.01.03-.017.066-.017.036 0 .065-.007.065-.017 0-.009.03-.016.066-.016.036 0 .066-.008.066-.017 0-.01.022-.017.049-.017.027 0 .049-.008.049-.017 0-.01.03-.017.066-.017.036 0 .065-.008.065-.017 0-.009.03-.017.066-.017.036 0 .065-.007.065-.016 0-.01.022-.017.05-.017.026 0 .049-.008.049-.017 0-.01.03-.017.065-.017.036 0 .066-.008.066-.017 0-.01.03-.017.065-.017.036 0 .066-.007.066-.017 0-.009.022-.016.05-.016.026 0 .048-.008.048-.017 0-.01.03-.017.066-.017.036 0 .065-.008.065-.017 0-.01.03-.017.066-.017.036 0 .066-.007.066-.017 0-.009.022-.017.049-.017.027 0 .049-.007.049-.016 0-.01.03-.017.066-.017.036 0 .065-.008.065-.017 0-.01.03-.017.066-.017.036 0 .065-.008.065-.017 0-.01.022-.017.05-.017.026 0 .049-.007.049-.017 0-.009.03-.016.065-.016.036 0 .066-.008.066-.017 0-.01.022-.017.049-.017.027 0 .05-.008.05-.017 0-.01.014-.017.032-.017.027 0 .033.011.033.068Zm-3.868 1.112c0 .037.007.067.016.067.01 0 .017.03.017.068 0 .037.007.067.016.067.009 0 .016.03.016.068 0 .037.008.067.017.067.009 0 .016.038.016.084 0 .047.008.085.017.085.009 0 .016.03.016.067 0 .037.007.067.016.067.01 0 .017.03.017.068 0 .037.007.067.016.067.01 0 .017.03.017.068 0 .037.007.067.016.067.009 0 .016.03.016.068 0 .037.008.067.017.067.009 0 .016.038.016.084 0 .047.007.084.017.084.008 0 .016.03.016.068 0 .037.007.067.016.067.01 0 .017.03.017.068 0 .037.007.067.016.067.01 0 .017.03.017.068 0 .037.007.067.016.067.009 0 .016.03.016.067 0 .037.008.068.017.068.009 0 .016.03.016.067 0 .037.007.068.016.068.01 0 .017.038.017.084 0 .046.007.084.016.084.01 0 .017.03.017.068 0 .037.007.067.016.067.009 0 .016.015.016.034 0 .022-.01.033-.032.033-.018 0-.033.008-.033.017 0 .01-.022.017-.05.017-.026 0-.049.008-.049.017 0 .01-.022.017-.049.017-.027 0-.049.007-.049.017 0 .009-.022.017-.05.017-.026 0-.048.007-.048.016 0 .01-.022.017-.05.017-.026 0-.049.008-.049.017 0 .01-.022.017-.049.017-.027 0-.049.007-.049.017 0 .01-.022.017-.05.017-.026 0-.048.007-.048.017 0 .009-.022.016-.05.016-.027 0-.049.008-.049.017 0 .01-.022.017-.049.017-.027 0-.049.008-.049.017 0 .01-.022.017-.05.017-.026 0-.048.007-.048.017 0 .009-.023.017-.05.017-.027 0-.049.007-.049.016 0 .01-.022.017-.049.017-.027 0-.05.008-.05.017 0 .01-.021.017-.048.017s-.05.008-.05.017c0 .01-.022.017-.049.017-.027 0-.049.007-.049.016 0 .01-.022.017-.049.017-.027 0-.05.008-.05.017 0 .01-.021.017-.048.017s-.05.008-.05.017c0 .01-.03.017-.065.017-.036 0-.066.007-.066.017 0 .009-.022.016-.049.016-.027 0-.05.008-.05.017 0 .01-.021.017-.048.017s-.05.008-.05.017c0 .01-.022.017-.049.017-.027 0-.049.007-.049.017 0 .009-.022.017-.049.017-.027 0-.05.007-.05.016 0 .01-.021.017-.048.017s-.05.008-.05.017c0 .01-.022.017-.049.017-.027 0-.049.008-.049.017 0 .01-.022.017-.05.017-.026 0-.048.007-.048.017 0 .009-.022.016-.05.016-.026 0-.049.008-.049.017 0 .01-.022.017-.049.017-.027 0-.049.008-.049.017 0 .01-.022.017-.05.017-.026 0-.048.007-.048.017 0 .009-.022.017-.05.017-.027 0-.049.007-.049.016 0 .01-.022.017-.049.017-.027 0-.05.008-.05.017 0 .01-.021.017-.048.017s-.05.008-.05.017c0 .01-.022.017-.049.017-.027 0-.049.007-.049.016 0 .01-.022.017-.049.017-.027 0-.05.008-.05.017 0 .01-.021.017-.048.017s-.05.008-.05.017c0 .01-.022.017-.049.017-.027 0-.049.007-.049.017 0 .009-.022.016-.049.016-.027 0-.05.008-.05.017 0 .01-.029.017-.065.017-.036 0-.065.008-.065.017 0 .01-.023.017-.05.017-.027 0-.049.008-.049.017 0 .009-.022.017-.049.017-.027 0-.05.007-.05.016 0 .01-.021.017-.048.017s-.05.008-.05.017c0 .01-.022.017-.049.017-.027 0-.049.008-.049.017 0 .01-.022.017-.049.017-.027 0-.05.007-.05.017 0 .009-.021.016-.048.016s-.05.008-.05.017c0 .01-.022.017-.049.017-.027 0-.049.008-.049.017 0 .01-.022.017-.05.017-.026 0-.048.007-.048.017 0 .009-.022.017-.05.017-.026 0-.049.007-.049.016 0 .01-.022.017-.049.017-.027 0-.049.008-.049.017 0 .01-.022.017-.05.017-.026 0-.048.008-.048.017 0 .01-.022.017-.05.017-.027 0-.049.007-.049.017 0 .009-.022.016-.049.016-.027 0-.05.008-.05.017 0 .01-.021.017-.048.017s-.05.008-.05.017c0 .01-.022.017-.049.017-.027 0-.049.007-.049.017 0 .009-.022.017-.049.017-.027 0-.05.007-.05.016 0 .01-.021.017-.048.017s-.05.008-.05.017c0 .01-.029.017-.065.017-.036 0-.066.008-.066.017 0 .01-.022.017-.049.017-.027 0-.049.007-.049.017 0 .009-.022.016-.05.016-.026 0-.048.008-.048.017 0 .01-.023.017-.05.017-.027 0-.049.008-.049.017 0 .01-.022.017-.049.017-.027 0-.05.007-.05.017 0 .009-.021.016-.048.016s-.05.008-.05.017c0 .01-.022.017-.049.017-.027 0-.049.008-.049.017 0 .01-.022.017-.049.017-.027 0-.05.008-.05.017 0 .009-.021.017-.048.017s-.05.007-.05.016c0 .01-.022.017-.049.017-.027 0-.049.008-.049.017 0 .01-.03.017-.066.017-.035 0-.065.008-.065.017 0 .01-.022.017-.05.017-.026 0-.048.007-.048.017 0 .009-.023.016-.05.016-.027 0-.049.008-.049.017 0 .01-.022.017-.049.017-.027 0-.05.008-.05.017 0 .01-.021.017-.048.017s-.05.007-.05.017c0 .009-.022.017-.049.017-.027 0-.049.007-.049.016 0 .01-.022.017-.049.017-.027 0-.05.008-.05.017 0 .01-.021.017-.048.017-.028 0-.05.008-.05.017 0 .01-.022.017-.049.017-.027 0-.049.007-.049.017 0 .009-.022.016-.05.016-.026 0-.048.008-.048.017 0 .01-.022.017-.05.017-.027 0-.049.008-.049.017 0 .01-.022.017-.049.017-.027 0-.049.007-.049.017 0 .009-.022.016-.05.016-.026 0-.048.008-.048.017 0 .01-.023.017-.05.017-.027 0-.049.008-.049.017 0 .01-.022.017-.049.017-.027 0-.05.008-.05.017 0 .01-.021.017-.048.017s-.05.007-.05.016c0 .01-.022.017-.049.017-.027 0-.049.008-.049.017 0 .01-.022.017-.049.017-.027 0-.05.008-.05.017 0 .01-.021.017-.048.017s-.05.007-.05.017c0 .009-.022.016-.049.016-.027 0-.049.008-.049.017 0 .01-.022.017-.05.017-.026 0-.048.008-.048.017 0 .01-.022.017-.05.017-.027 0-.049.008-.049.017 0 .009-.022.017-.049.017-.027 0-.049.007-.049.016 0 .01-.022.017-.05.017-.026 0-.048.008-.048.017 0 .01-.022.017-.05.017-.027 0-.049.008-.049.017 0 .01-.014.017-.032.017-.018 0-.033.007-.033.017 0 .009-.022.016-.05.016-.026 0-.049.008-.049.017 0 .01-.022.017-.049.017-.027 0-.049.008-.049.017 0 .01-.022.017-.05.017-.026 0-.048.007-.048.017 0 .009-.023.017-.05.017-.027 0-.049.007-.049.016 0 .01-.022.017-.049.017-.027 0-.05.008-.05.017 0 .01-.021.017-.048.017s-.05.007-.05.017c0 .01-.014.017-.032.017-.018 0-.033.007-.033.017 0 .009-.022.016-.05.016-.026 0-.048.008-.048.017 0 .01-.023.017-.05.017-.027 0-.049.008-.049.017 0 .01-.022.017-.049.017-.027 0-.05.007-.05.017 0 .009-.021.017-.048.017s-.05.007-.05.016c0 .01-.014.017-.032.017-.018 0-.033.008-.033.017 0 .01-.022.017-.05.017-.026 0-.048.008-.048.017 0 .01-.023.017-.05.017-.027 0-.049.007-.049.016 0 .01-.022.017-.049.017-.027 0-.05.008-.05.017 0 .01-.014.017-.032.017-.018 0-.033.008-.033.017 0 .01-.022.017-.049.017-.027 0-.049.007-.049.017 0 .009-.022.016-.05.016-.026 0-.048.008-.048.017 0 .01-.015.017-.033.017-.018 0-.033.008-.033.017 0 .01-.022.017-.05.017-.026 0-.048.007-.048.017 0 .009-.023.017-.05.017-.027 0-.049.007-.049.016 0 .01-.014.017-.032.017-.018 0-.033.008-.033.017 0 .01-.022.017-.05.017-.026 0-.049.008-.049.017 0 .01-.022.017-.049.017-.027 0-.049.007-.049.017 0 .009-.021.016-.048.016-.026 0-.05.01-.054.02-.008.026-.128-.092-.128-.125 0-.012-.014-.033-.032-.046-.018-.014-.033-.035-.033-.048 0-.013-.022-.044-.05-.07-.026-.026-.049-.057-.049-.068 0-.01-.022-.041-.049-.067-.027-.026-.049-.058-.049-.07 0-.013-.015-.035-.033-.048-.018-.014-.032-.035-.032-.048 0-.012-.023-.044-.05-.07-.027-.026-.049-.056-.049-.067 0-.012-.022-.042-.049-.068-.027-.026-.05-.056-.05-.067 0-.011-.021-.042-.048-.068-.027-.026-.05-.057-.05-.07 0-.013-.014-.034-.032-.048-.018-.013-.033-.035-.033-.047 0-.013-.022-.045-.05-.07-.026-.027-.048-.057-.048-.068 0-.011-.023-.042-.05-.068-.027-.026-.049-.057-.049-.07 0-.013-.015-.034-.033-.047-.018-.014-.032-.035-.032-.048 0-.013-.022-.044-.05-.07-.026-.027-.049-.057-.049-.068 0-.011-.022-.041-.049-.067-.027-.026-.049-.058-.049-.07 0-.013-.015-.035-.033-.048-.018-.014-.033-.035-.033-.048 0-.013-.022-.044-.049-.07-.027-.026-.049-.057-.049-.068 0-.01-.022-.041-.05-.067-.026-.026-.048-.058-.048-.07 0-.013-.015-.035-.033-.048-.018-.013-.033-.035-.033-.048 0-.012-.022-.044-.05-.07-.026-.026-.048-.056-.048-.067 0-.011-.022-.042-.05-.068-.026-.026-.049-.058-.049-.07 0-.013-.014-.035-.032-.048-.018-.013-.033-.038-.033-.054 0-.017-.008-.03-.017-.03a.017.017 0 0 1-.016-.017c0-.01.015-.017.033-.017.018 0 .033-.007.033-.017 0-.009.03-.017.065-.017.036 0 .066-.007.066-.016 0-.01.03-.017.065-.017.036 0 .066-.008.066-.017 0-.01.022-.017.049-.017.027 0 .05-.007.05-.017 0-.01.029-.017.065-.017.036 0 .065-.007.065-.017 0-.009.023-.016.05-.016.027 0 .049-.008.049-.017 0-.01.03-.017.065-.017.036 0 .066-.008.066-.017 0-.01.03-.017.065-.017.037 0 .066-.007.066-.017 0-.009.022-.017.05-.017.026 0 .048-.007.048-.016 0-.01.03-.017.066-.017.036 0 .066-.008.066-.017 0-.01.029-.017.065-.017.036 0 .066-.008.066-.017 0-.01.022-.017.049-.017.027 0 .05-.007.05-.016 0-.01.029-.017.065-.017.036 0 .065-.008.065-.017 0-.01.03-.017.066-.017.036 0 .065-.008.065-.017 0-.01.022-.017.05-.017.027 0 .049-.007.049-.017 0-.009.03-.016.065-.016.036 0 .066-.008.066-.017 0-.01.03-.017.066-.017.036 0 .065-.008.065-.017 0-.01.022-.017.05-.017.026 0 .048-.007.048-.017 0-.009.03-.017.066-.017.036 0 .066-.007.066-.016 0-.01.022-.017.049-.017.027 0 .049-.008.049-.017 0-.01.03-.017.065-.017.037 0 .066-.008.066-.017 0-.01.03-.017.066-.017.036 0 .065-.007.065-.017 0-.009.022-.016.05-.016.026 0 .049-.008.049-.017 0-.01.03-.017.065-.017.036 0 .066-.008.066-.017 0-.01.03-.017.065-.017.036 0 .066-.007.066-.017 0-.009.022-.017.049-.017.027 0 .05-.007.05-.016 0-.01.029-.017.065-.017.036 0 .065-.008.065-.017 0-.01.03-.017.066-.017.036 0 .066-.008.066-.017 0-.01.022-.017.049-.017.027 0 .049-.007.049-.016 0-.01.03-.017.065-.017.037 0 .066-.008.066-.017 0-.01.022-.017.05-.017.026 0 .048-.008.048-.017 0-.01.03-.017.066-.017.036 0 .066-.007.066-.017 0-.009.029-.016.065-.016.036 0 .066-.008.066-.017 0-.01.022-.017.049-.017.027 0 .049-.008.049-.017 0-.01.03-.017.066-.017.036 0 .065-.008.065-.017 0-.009.022-.017.05-.017.026 0 .049-.007.049-.016 0-.01.029-.017.065-.017.036 0 .066-.008.066-.017 0-.01.03-.017.065-.017.036 0 .066-.008.066-.017 0-.01.03-.017.065-.017.036 0 .066-.007.066-.017 0-.009.022-.016.05-.016.026 0 .048-.008.048-.017 0-.01.03-.017.066-.017.036 0 .066-.008.066-.017 0-.01.029-.017.065-.017.036 0 .066-.007.066-.017 0-.009.022-.017.049-.017.027 0 .049-.007.049-.016 0-.01.03-.017.066-.017.036 0 .065-.008.065-.017 0-.01.022-.017.05-.017.026 0 .049-.008.049-.017 0-.01.029-.017.065-.017.036 0 .066-.007.066-.017 0-.009.03-.016.065-.016.036 0 .066-.008.066-.017 0-.01.022-.017.049-.017.027 0 .05-.008.05-.017 0-.01.029-.017.065-.017.036 0 .065-.007.065-.017 0-.009.03-.017.066-.017.036 0 .065-.007.065-.016 0-.01.023-.017.05-.017.027 0 .049-.008.049-.017 0-.01.03-.017.065-.017.036 0 .066-.008.066-.017 0-.01.03-.017.066-.017.036 0 .065-.007.065-.017 0-.009.022-.016.05-.016.026 0 .048-.008.048-.017 0-.01.03-.017.066-.017.036 0 .066-.008.066-.017 0-.01.022-.017.049-.017.027 0 .049-.007.049-.017 0-.009.03-.016.066-.016.036 0 .065-.008.065-.017 0-.01.03-.017.066-.017.036 0 .065-.008.065-.017 0-.01.022-.017.05-.017.026 0 .049-.008.049-.017 0-.009.03-.017.065-.017.036 0 .066-.007.066-.016 0-.01.03-.017.065-.017.036 0 .066-.008.066-.017 0-.01.022-.017.05-.017.026 0 .048-.008.048-.017 0-.01.03-.017.066-.017.036 0 .065-.007.065-.017 0-.009.03-.016.066-.016.036 0 .066-.008.066-.017 0-.01.022-.017.049-.017.027 0 .049-.008.049-.017 0-.01.03-.017.066-.017.036 0 .065-.007.065-.017 0-.009.03-.017.066-.017.036 0 .065-.007.065-.016 0-.01.022-.017.05-.017.026 0 .049-.008.049-.017 0-.01.03-.017.065-.017.036 0 .066-.008.066-.017 0-.01.022-.017.049-.017.027 0 .05-.007.05-.017 0-.009.029-.016.065-.016.036 0 .065-.008.065-.017 0-.01.03-.017.066-.017.036 0 .065-.008.065-.017 0-.01.023-.017.05-.017.027 0 .049-.007.049-.017 0-.009.03-.016.065-.016.036 0 .066-.008.066-.017 0-.01.03-.017.065-.017.037 0 .066-.008.066-.017 0-.01.022-.017.05-.017.026 0 .048-.008.048-.017 0-.01.03-.017.066-.017.036 0 .066-.007.066-.016 0-.01.03-.017.065-.017.036 0 .066-.008.066-.017 0-.01.022-.017.049-.017.027 0 .049-.008.049-.017 0-.01.03-.017.066-.017.036 0 .065-.007.065-.017 0-.009.03-.016.066-.016.036 0 .065-.008.065-.017 0-.01.022-.017.05-.017.027 0 .049-.008.049-.017 0-.01.03-.017.065-.017.036 0 .066-.008.066-.017 0-.009.022-.017.05-.017.026 0 .048-.007.048-.016 0-.01.03-.017.066-.017.036 0 .065-.008.065-.017 0-.01.03-.017.066-.017.036 0 .066-.008.066-.017 0-.01.022-.017.049-.017.027 0 .049-.007.049-.017 0-.009.03-.016.066-.016.035 0 .065-.008.065-.017 0-.01.03-.017.066-.017.036 0 .065-.008.065-.017 0-.01.022-.017.05-.017.026 0 .048-.007.048-.017 0-.009.03-.017.066-.017.036 0 .066-.007.066-.016 0-.01.03-.017.065-.017.036 0 .066-.008.066-.017 0-.01.022-.017.049-.017.027 0 .05-.007.05-.017 0-.01.029-.017.065-.017.036 0 .065-.007.065-.017 0-.009.023-.016.05-.016.027 0 .049-.008.049-.017 0-.01.03-.017.065-.017.036 0 .066-.008.066-.017 0-.01.03-.017.065-.017.036 0 .066-.007.066-.017 0-.009.022-.017.05-.017.026 0 .048-.007.048-.016 0-.01.03-.017.066-.017.036 0 .066-.008.066-.017 0-.01.029-.017.065-.017.036 0 .066-.008.066-.017 0-.01.022-.017.049-.017.027 0 .049-.007.049-.016 0-.01.03-.017.066-.017.036 0 .065-.008.065-.017 0-.01.03-.017.066-.017.036 0 .065-.008.065-.017 0-.01.022-.017.05-.017.027 0 .049-.007.049-.017 0-.009.03-.016.065-.016h.066v.067Zm-13.532 3.8c.03.032.056.067.056.078 0 .01.023.04.05.066.027.026.049.056.049.067 0 .011.022.042.049.068.027.026.05.057.05.07 0 .013.014.034.032.048.018.013.033.034.033.047 0 .013.022.045.049.07.027.027.049.057.049.068 0 .011.022.041.05.067.026.026.048.058.048.07 0 .014.015.035.033.048.018.014.033.035.033.048 0 .013.022.044.05.07.026.026.048.057.048.068 0 .01.023.041.05.067.027.026.049.058.049.07 0 .013.015.035.032.048.018.014.033.035.033.048 0 .012.022.044.05.07.026.026.049.056.049.068 0 .01.022.041.049.067.027.026.049.058.049.07 0 .013.015.035.033.048.018.013.033.035.033.047 0 .013.022.045.049.07.027.027.049.057.049.068 0 .012.022.042.05.068.026.026.048.058.048.07 0 .013.015.034.033.048.018.013.033.035.033.047 0 .013.022.045.049.07.027.027.05.057.05.068 0 .011.021.042.048.068.027.026.05.057.05.07 0 .013.014.034.032.048.018.013.033.034.033.047 0 .013.022.044.05.07.026.026.049.057.049.068 0 .011.022.041.049.067.027.026.049.058.049.07 0 .014.015.035.033.048.018.014.032.035.032.047 0 .031-.04.071-.072.071-.014 0-.026.008-.026.017 0 .01-.022.017-.05.017-.026 0-.048.008-.048.017 0 .01-.015.017-.033.017-.018 0-.033.007-.033.017 0 .009-.022.016-.049.016-.027 0-.05.008-.05.017 0 .01-.014.017-.032.017-.018 0-.033.008-.033.017 0 .01-.022.017-.049.017-.027 0-.05.007-.05.017 0 .009-.014.017-.032.017-.018 0-.033.007-.033.016 0 .01-.022.017-.049.017-.027 0-.049.008-.049.017 0 .01-.015.017-.033.017-.018 0-.033.008-.033.017 0 .01-.022.017-.049.017-.027 0-.049.007-.049.017 0 .009-.022.016-.05.016-.026 0-.048.008-.048.017 0 .01-.015.017-.033.017-.018 0-.033.008-.033.017 0 .01-.022.017-.05.017-.026 0-.048.007-.048.017 0 .009-.022.017-.05.017-.026 0-.049.007-.049.016 0 .01-.03.017-.065.017-.036 0-.066.008-.066.017 0 .01-.022.017-.049.017-.027 0-.05.008-.05.017 0 .01-.029.017-.065.017-.036 0-.065.007-.065.017 0 .009-.03.016-.066.016-.036 0-.066.008-.066.017 0 .01-.036.017-.081.017-.046 0-.082.008-.082.017 0 .01-.044.017-.099.017-.054 0-.098.007-.098.017 0 .01-.115.016-.312.016-.196 0-.311-.006-.311-.016s-.03-.017-.066-.017c-.036 0-.065-.008-.065-.017 0-.01-.019-.017-.042-.017-.046 0-.155-.1-.155-.143 0-.014-.007-.025-.016-.025-.01 0-.017-.016-.017-.034 0-.019-.007-.034-.016-.034-.01 0-.017-.015-.017-.034 0-.018-.007-.033-.016-.033-.009 0-.016-.015-.016-.034 0-.019-.008-.034-.017-.034-.009 0-.016-.015-.016-.033 0-.019-.007-.034-.016-.034-.01 0-.017-.015-.017-.034 0-.018-.007-.034-.016-.034-.01 0-.017-.015-.017-.033 0-.019-.007-.034-.016-.034-.009 0-.016-.015-.016-.034 0-.018-.008-.033-.017-.033-.009 0-.016-.016-.016-.034 0-.019-.008-.034-.017-.034-.009 0-.016-.015-.016-.034 0-.018-.007-.033-.016-.033-.01 0-.017-.015-.017-.034 0-.018-.007-.034-.016-.034-.01 0-.017-.015-.017-.033 0-.019-.007-.034-.016-.034-.009 0-.016-.015-.016-.034 0-.018-.008-.034-.017-.034-.009 0-.016-.022-.016-.05 0-.028-.008-.05-.017-.05-.009 0-.016-.016-.016-.034 0-.019-.007-.034-.016-.034-.01 0-.017-.015-.017-.034 0-.018-.007-.033-.016-.033-.01 0-.017-.016-.017-.034 0-.019-.007-.034-.016-.034-.009 0-.016-.015-.016-.034 0-.018-.008-.033-.017-.033-.009 0-.016-.015-.016-.034 0-.019-.008-.034-.016-.034-.01 0-.017-.015-.017-.033 0-.019-.007-.034-.016-.034-.01 0-.017-.015-.017-.034 0-.018-.007-.034-.016-.034-.01 0-.016-.015-.016-.033 0-.019-.008-.034-.017-.034-.009 0-.016-.015-.016-.034 0-.018-.008-.033-.017-.033-.009 0-.016-.015-.016-.034 0-.019-.007-.034-.016-.034-.01 0-.017-.015-.017-.033 0-.019-.007-.034-.016-.034-.01 0-.017-.015-.017-.034 0-.018-.007-.034-.016-.034-.009 0-.016-.015-.016-.033 0-.019-.008-.034-.017-.034-.009 0-.016-.015-.016-.034 0-.018-.008-.033-.017-.033-.009 0-.016-.016-.016-.034 0-.019-.007-.034-.016-.034-.01 0-.017-.015-.017-.034 0-.018-.007-.033-.016-.033-.01 0-.017-.015-.017-.034 0-.018-.007-.034-.016-.034-.009 0-.016-.015-.016-.033 0-.019-.008-.034-.017-.034-.009 0-.016-.015-.016-.034 0-.018-.008-.034-.017-.034-.008 0-.016-.015-.016-.033 0-.019-.007-.034-.016-.034-.01 0-.017-.015-.017-.034 0-.018-.007-.033-.016-.033-.01 0-.016-.015-.016-.034 0-.019-.008-.034-.017-.034-.009 0-.016-.015-.016-.033 0-.019-.008-.034-.017-.034-.009 0-.016-.03-.016-.068 0-.063.003-.067.05-.067.026 0 .048-.008.048-.017 0-.01.03-.017.066-.017.036 0 .065-.007.065-.017 0-.009.03-.016.066-.016.036 0 .066-.008.066-.017 0-.01.022-.017.049-.017.027 0 .049-.008.049-.017 0-.01.03-.017.066-.017.036 0 .065-.007.065-.017 0-.009.022-.017.05-.017.026 0 .048-.007.048-.016 0-.01.03-.017.066-.017.036 0 .066-.008.066-.017 0-.01.03-.017.065-.017.036 0 .066-.008.066-.017 0-.01.022-.017.049-.017.027 0 .05-.007.05-.017 0-.009.029-.016.065-.016.036 0 .065-.008.065-.017 0-.01.03-.017.066-.017.036 0 .065-.008.065-.017 0-.01.023-.017.05-.017.027 0 .049-.007.049-.017 0-.009.03-.016.065-.016.036 0 .066-.008.066-.017 0-.01.03-.017.066-.017.036 0 .065-.008.065-.017 0-.01.022-.017.05-.017.026 0 .049-.008.049-.017 0-.01.029-.017.065-.017.036 0 .066-.007.066-.016 0-.01.03-.017.065-.017.036 0 .066-.008.066-.017 0-.01.022-.017.049-.017.027 0 .05-.008.05-.017 0-.01.029-.017.065-.017.036 0 .065-.007.065-.017 0-.027.015-.02.075.042Zm18.024 7.509v3.556h-.164c-.099 0-.164-.007-.164-.017 0-.009-.03-.017-.066-.017-.036 0-.065-.007-.065-.016 0-.01-.023-.017-.05-.017-.027 0-.049-.008-.049-.017 0-.01-.013-.017-.029-.017s-.04-.015-.053-.034c-.013-.018-.033-.033-.045-.033-.03 0-.2-.18-.2-.21 0-.015-.008-.026-.017-.026-.009 0-.016-.016-.016-.034 0-.019-.008-.034-.017-.034-.009 0-.016-.015-.016-.033 0-.019-.008-.034-.017-.034-.009 0-.016-.023-.016-.05 0-.029-.007-.051-.016-.051-.011 0-.017-.99-.017-2.933 0-1.944.006-2.932.017-2.932.009 0 .016-.023.016-.051 0-.028.007-.05.016-.05.01 0 .017-.016.017-.034 0-.019.007-.034.016-.034.01 0 .017-.014.017-.03 0-.017.014-.04.032-.054.018-.014.033-.035.033-.047 0-.012.026-.048.057-.08.031-.032.066-.059.078-.059.012 0 .032-.015.046-.033.013-.019.036-.034.052-.034s.03-.008.03-.017c0-.01.014-.017.032-.017.018 0 .033-.007.033-.017 0-.009.022-.017.05-.017.026 0 .048-.007.048-.016 0-.01.082-.017.213-.017h.214v3.556ZM15.36 32.893c0 .01-.015.017-.033.017-.018 0-.033.008-.033.017 0 .01-.013.017-.03.017-.015 0-.039.015-.052.034-.013.018-.033.033-.046.033-.028 0-.069.042-.069.071 0 .013-.014.034-.032.047a.093.093 0 0 0-.033.071c0 .026-.008.047-.017.047-.01 0-.016.163-.016.455 0 .292.006.455.016.455s.017.073.017.186c0 .112.006.185.016.185s.017.056.017.135c0 .079.006.135.016.135s.016.05.016.118c0 .067.007.118.017.118.009 0 .016.045.016.1 0 .057.007.102.017.102.009 0 .016.045.016.101 0 .056.007.101.016.101.01 0 .017.038.017.084 0 .047.007.085.016.085.01 0 .017.03.017.067 0 .037.007.068.016.068.009 0 .016.03.016.067 0 .037.008.067.017.067.009 0 .016.038.016.085 0 .046.007.084.016.084.01 0 .017.023.017.05 0 .028.007.051.016.051.01 0 .017.03.017.068 0 .037.007.067.016.067.01 0 .016.023.016.05 0 .028.008.051.017.051.009 0 .016.03.016.067 0 .038.008.068.017.068.009 0 .016.023.016.05 0 .028.007.051.016.051.01 0 .017.023.017.05 0 .028.007.051.016.051.01 0 .017.023.017.05 0 .029.007.051.016.051.009 0 .016.023.016.05 0 .029.008.051.017.051.009 0 .016.023.016.05 0 .029.008.051.017.051.009 0 .016.016.016.034 0 .019.007.034.016.034.01 0 .017.023.017.05 0 .028.007.051.016.051.01 0 .016.023.016.05 0 .028.008.051.017.051.009 0 .016.015.016.034 0 .018.008.034.017.034.009 0 .016.015.016.033 0 .019.007.034.017.034.008 0 .016.023.016.05 0 .028.007.051.016.051.01 0 .017.015.017.034 0 .018.007.034.016.034.01 0 .016.015.016.033 0 .019.008.034.017.034.009 0 .016.023.016.05 0 .028.008.051.017.051.009 0 .016.015.016.034 0 .018.007.033.016.033.01 0 .017.016.017.034 0 .019.007.034.016.034.01 0 .017.015.017.034 0 .018.007.033.016.033.009 0 .016.015.016.034 0 .019.008.034.017.034.009 0 .016.015.016.033 0 .019.008.034.017.034.009 0 .016.015.016.034 0 .018.007.034.016.034.01 0 .017.015.017.033 0 .019.007.034.016.034.01 0 .017.015.017.034 0 .018.007.033.016.033.009 0 .016.016.016.034 0 .019.008.034.017.034.009 0 .016.015.016.033 0 .019.008.034.017.034.008 0 .016.014.016.03 0 .017.015.041.033.054.018.014.032.038.032.055 0 .016.008.03.017.03.009 0 .016.015.016.033 0 .019.008.034.017.034.009 0 .016.014.016.03 0 .017.015.041.033.054.018.014.033.038.033.055 0 .016.007.03.016.03.009 0 .016.013.016.03 0 .016.015.04.033.054.018.013.033.038.033.054 0 .017.007.03.016.03.01 0 .017.014.017.03 0 .017.014.041.032.055.019.013.033.036.033.05 0 .014.015.037.033.05.018.014.033.037.033.051 0 .015.015.037.033.05.018.014.032.037.032.051 0 .015.015.038.033.05.018.014.033.036.033.048 0 .013.022.045.05.07.026.027.048.057.048.068 0 .011.023.042.05.068.027.026.049.056.049.067 0 .011.022.041.049.067.027.026.05.057.05.068 0 .011.021.041.048.067.027.026.05.056.05.067 0 .01.036.057.081.102.046.045.082.09.082.1 0 .011.045.064.099.119a.551.551 0 0 1 .098.117c0 .023.83.877.853.877.01 0 .061.046.114.102a.522.522 0 0 0 .115.1c.01 0 .055.038.098.085a.372.372 0 0 0 .1.084c.01 0 .04.023.064.05.026.029.055.051.066.051.01 0 .047.03.082.068.035.037.073.067.085.067.012 0 .033.015.046.034.013.018.034.034.046.034.013 0 .044.022.069.05.025.028.056.05.068.05.013 0 .034.016.047.034.013.019.035.034.049.034.014 0 .036.015.049.034.013.018.035.034.05.034.013 0 .035.015.048.033.013.019.035.034.05.034.014 0 .036.015.049.034.013.018.035.033.049.033.014 0 .036.016.05.034.012.019.036.034.052.034s.029.007.029.017c0 .009.013.016.03.016.015 0 .039.016.052.034.013.019.037.034.053.034s.029.007.029.017c0 .009.015.017.033.017.018 0 .033.007.033.016 0 .01.013.017.029.017s.04.015.053.034c.012.018.036.034.052.034s.03.007.03.017c0 .009.014.016.032.016.018 0 .033.008.033.017 0 .01.015.017.033.017.018 0 .033.008.033.017 0 .01.014.017.032.017.018 0 .033.007.033.017 0 .009.013.016.03.016.015 0 .04.016.052.034.013.019.037.034.053.034s.03.008.03.017c0 .01.014.017.032.017.018 0 .033.007.033.017 0 .009.015.016.032.016.018 0 .033.008.033.017 0 .01.022.017.05.017.026 0 .049.008.049.017 0 .01.014.017.032.017.018 0 .033.007.033.017 0 .009.015.016.033.016.018 0 .033.008.033.017 0 .01.015.017.033.017.018 0 .032.008.032.017 0 .01.015.017.033.017.018 0 .033.007.033.017 0 .009.022.017.05.017.026 0 .048.007.048.016 0 .01.015.017.033.017.018 0 .033.008.033.017 0 .01.022.017.049.017.027 0 .05.008.05.017 0 .01.014.017.032.017.018 0 .033.007.033.017 0 .009.022.016.049.016.027 0 .05.008.05.017 0 .01.014.017.032.017.018 0 .033.008.033.017 0 .01.022.017.049.017.027 0 .05.007.05.017 0 .009.021.017.048.017s.05.007.05.016c0 .01.014.017.032.017.018 0 .033.008.033.017 0 .01.022.017.05.017.026 0 .048.008.048.017 0 .01.03.017.066.017.036 0 .066.007.066.017 0 .009.022.016.049.016.027 0 .049.008.049.017 0 .01.022.017.05.017.026 0 .048.008.048.017 0 .01.022.017.05.017.027 0 .049.007.049.017 0 .009.03.017.065.017.036 0 .066.007.066.016 0 .01.03.017.065.017.036 0 .066.008.066.017 0 .01.03.017.066.017.036 0 .065.008.065.017 0 .01.03.017.066.017.036 0 .065.007.065.017 0 .009.03.016.066.016.036 0 .065.008.065.017 0 .01.037.017.082.017.045 0 .082.008.082.017 0 .01.037.017.082.017.045 0 .082.007.082.017 0 .009.044.016.099.016.054 0 .098.008.098.017 0 .01.05.017.115.017s.114.007.114.017c0 .01.055.017.132.017.076 0 .13.007.13.017 0 .01.066.017.165.017.098 0 .164.006.164.016 0 .011.109.017.295.017s.295.006.295.017c0 .01.06.017.147.017.088 0 .148-.007.148-.017 0-.01.03-.017.066-.017.036 0 .065-.007.065-.017 0-.009.015-.016.033-.016.018 0 .033-.008.033-.017 0-.01.01-.017.025-.017.032 0 .171-.143.171-.177 0-.014.008-.025.017-.025.009 0 .016-.016.016-.034 0-.019.008-.034.016-.034.01 0 .017-.067.017-.168s-.007-.169-.017-.169c-.008 0-.016-.015-.016-.034 0-.018-.007-.033-.016-.033-.01 0-.017-.012-.017-.026 0-.033-.172-.21-.204-.21-.014 0-.025-.008-.025-.017 0-.01-.022-.017-.05-.017-.026 0-.049-.008-.049-.017 0-.01-.13-.017-.36-.017-.23 0-.36-.006-.36-.017 0-.01-.077-.016-.198-.016-.12 0-.196-.007-.196-.017 0-.01-.055-.017-.131-.017-.077 0-.132-.007-.132-.017 0-.01-.043-.017-.098-.017-.055 0-.098-.007-.098-.017 0-.009-.044-.017-.099-.017-.054 0-.098-.007-.098-.016 0-.01-.044-.017-.098-.017-.055 0-.099-.008-.099-.017 0-.01-.03-.017-.065-.017-.036 0-.066-.008-.066-.017 0-.01-.037-.017-.082-.017-.045 0-.082-.007-.082-.016 0-.01-.03-.017-.065-.017-.037 0-.066-.008-.066-.017 0-.01-.022-.017-.05-.017-.026 0-.048-.008-.048-.017 0-.01-.03-.017-.066-.017-.036 0-.066-.007-.066-.017 0-.009-.022-.016-.049-.016-.027 0-.049-.008-.049-.017 0-.01-.03-.017-.066-.017-.036 0-.065-.008-.065-.017 0-.01-.022-.017-.05-.017-.026 0-.048-.007-.048-.017 0-.009-.023-.017-.05-.017-.027 0-.049-.007-.049-.016 0-.01-.022-.017-.049-.017-.027 0-.05-.008-.05-.017 0-.01-.021-.017-.048-.017s-.05-.008-.05-.017c0-.01-.022-.017-.049-.017-.027 0-.049-.007-.049-.017 0-.009-.015-.016-.033-.016-.018 0-.032-.008-.032-.017 0-.01-.023-.017-.05-.017-.027 0-.049-.008-.049-.017 0-.01-.015-.017-.033-.017-.018 0-.032-.007-.032-.017 0-.009-.022-.016-.05-.016-.027 0-.049-.008-.049-.017 0-.01-.015-.017-.032-.017-.018 0-.033-.008-.033-.017 0-.01-.015-.017-.033-.017-.018 0-.033-.008-.033-.017 0-.01-.022-.017-.049-.017-.027 0-.05-.007-.05-.017 0-.009-.014-.016-.032-.016-.018 0-.033-.008-.033-.017 0-.01-.014-.017-.033-.017-.018 0-.032-.008-.032-.017 0-.01-.015-.017-.033-.017-.018 0-.033-.007-.033-.017 0-.009-.015-.016-.033-.016-.018 0-.032-.008-.032-.017 0-.01-.015-.017-.033-.017-.018 0-.033-.008-.033-.017 0-.01-.015-.017-.033-.017-.018 0-.033-.007-.033-.017 0-.009-.014-.017-.032-.017-.018 0-.033-.007-.033-.016 0-.01-.015-.017-.033-.017-.018 0-.033-.008-.033-.017 0-.01-.014-.017-.033-.017-.018 0-.032-.008-.032-.017 0-.01-.014-.017-.03-.017s-.04-.015-.052-.033c-.013-.019-.037-.034-.053-.034s-.03-.008-.03-.017c0-.01-.014-.017-.032-.017-.018 0-.033-.007-.033-.017 0-.009-.013-.017-.03-.017-.015 0-.039-.015-.052-.033-.013-.019-.037-.034-.053-.034s-.029-.008-.029-.017c0-.01-.013-.017-.029-.017s-.04-.015-.053-.033c-.013-.019-.036-.034-.053-.034-.016 0-.029-.008-.029-.017 0-.01-.013-.017-.029-.017s-.04-.015-.053-.034c-.013-.018-.035-.033-.049-.033-.014 0-.036-.015-.05-.034-.012-.018-.033-.034-.045-.034-.013 0-.043-.022-.069-.05-.025-.028-.056-.05-.068-.05-.013 0-.034-.016-.047-.034-.013-.019-.033-.034-.046-.034-.012 0-.043-.023-.068-.05-.026-.029-.055-.051-.066-.051-.01 0-.04-.023-.066-.05-.025-.029-.054-.051-.065-.051-.01 0-.047-.03-.082-.068-.035-.037-.071-.067-.082-.067a.38.38 0 0 1-.098-.084.386.386 0 0 0-.098-.085.868.868 0 0 1-.148-.135.901.901 0 0 0-.147-.134c-.023 0-.46-.45-.46-.473a.907.907 0 0 0-.131-.151.88.88 0 0 1-.131-.152.394.394 0 0 0-.082-.1.382.382 0 0 1-.082-.102c0-.01-.03-.049-.066-.084-.036-.036-.065-.074-.065-.085 0-.01-.022-.041-.05-.067-.026-.026-.049-.056-.049-.067 0-.011-.022-.042-.049-.068-.027-.026-.049-.057-.049-.07 0-.013-.015-.034-.033-.048-.018-.013-.032-.036-.032-.05 0-.015-.015-.038-.033-.05-.018-.014-.033-.037-.033-.051 0-.015-.015-.038-.033-.051-.018-.013-.033-.036-.033-.05 0-.015-.014-.038-.032-.051-.018-.014-.033-.036-.033-.05 0-.015-.015-.038-.033-.051-.018-.014-.033-.036-.033-.05 0-.015-.015-.038-.033-.051-.018-.014-.032-.038-.032-.055 0-.016-.008-.03-.017-.03-.009 0-.016-.013-.016-.03 0-.016-.015-.04-.033-.054-.018-.013-.033-.038-.033-.054 0-.017-.007-.03-.016-.03-.01 0-.016-.015-.016-.034 0-.018-.008-.034-.017-.034-.009 0-.016-.015-.016-.033 0-.019-.008-.034-.017-.034-.009 0-.016-.014-.016-.03 0-.017-.015-.04-.033-.054-.018-.014-.033-.038-.033-.055 0-.016-.007-.03-.016-.03-.01 0-.016-.015-.016-.033 0-.019-.008-.034-.017-.034-.009 0-.016-.015-.016-.034 0-.018-.008-.033-.017-.033-.009 0-.016-.016-.016-.034 0-.019-.007-.034-.016-.034-.01 0-.017-.015-.017-.033 0-.019-.007-.034-.016-.034-.01 0-.017-.015-.017-.034 0-.018-.007-.034-.016-.034-.009 0-.016-.015-.016-.033 0-.019-.008-.034-.017-.034-.009 0-.016-.023-.016-.05 0-.028-.008-.051-.017-.051-.009 0-.016-.015-.016-.034 0-.018-.007-.034-.016-.034-.01 0-.017-.015-.017-.033 0-.019-.007-.034-.016-.034-.01 0-.017-.015-.017-.034 0-.018-.007-.033-.016-.033-.009 0-.016-.023-.016-.051 0-.028-.008-.05-.017-.05-.009 0-.016-.016-.016-.034 0-.019-.007-.034-.016-.034-.01 0-.017-.023-.017-.05 0-.028-.007-.051-.016-.051-.01 0-.017-.015-.017-.034 0-.018-.007-.034-.016-.034-.01 0-.017-.022-.017-.05 0-.028-.007-.05-.016-.05-.009 0-.016-.023-.016-.051 0-.028-.008-.05-.017-.05-.009 0-.016-.023-.016-.051 0-.028-.007-.05-.016-.05-.01 0-.017-.024-.017-.051 0-.028-.007-.051-.016-.051-.01 0-.017-.023-.017-.05 0-.028-.007-.051-.016-.051-.009 0-.016-.023-.016-.05 0-.029-.008-.051-.017-.051-.009 0-.016-.023-.016-.05 0-.029-.008-.051-.017-.051-.009 0-.016-.03-.016-.068 0-.037-.007-.067-.016-.067-.01 0-.017-.023-.017-.05 0-.029-.007-.051-.016-.051-.01 0-.017-.03-.017-.068 0-.037-.007-.067-.016-.067-.009 0-.016-.03-.016-.068 0-.037-.008-.067-.017-.067-.009 0-.016-.038-.016-.084 0-.047-.008-.084-.016-.084-.01 0-.017-.038-.017-.085 0-.046-.007-.084-.016-.084-.01 0-.017-.038-.017-.084 0-.047-.007-.085-.016-.085-.01 0-.017-.044-.017-.1 0-.057-.007-.102-.016-.102-.01 0-.016-.05-.016-.118 0-.067-.007-.118-.017-.118-.01 0-.016-.062-.016-.151 0-.09-.007-.152-.016-.152-.01 0-.017-.09-.017-.236s-.006-.236-.016-.236-.017-.112-.017-.303c0-.192-.006-.304-.016-.304-.009 0-.016-.015-.016-.033 0-.02-.008-.034-.017-.034-.009 0-.016-.012-.016-.026 0-.033-.172-.21-.205-.21-.013 0-.025-.008-.025-.017 0-.01-.014-.017-.033-.017-.018 0-.032-.007-.032-.017 0-.01-.06-.017-.148-.017-.087 0-.147.007-.147.017Zm3.573 0c0 .01-.022.017-.049.017-.027 0-.049.008-.049.017 0 .01-.011.017-.025.017a.386.386 0 0 0-.115.092.393.393 0 0 0-.09.118c0 .014-.007.026-.016.026-.009 0-.016.023-.016.05 0 .028-.008.05-.017.05-.01 0-.016.102-.016.27 0 .17.006.27.016.27s.017.073.017.186c0 .112.006.185.016.185s.017.056.017.135c0 .078.006.135.016.135s.016.045.016.1c0 .057.008.102.017.102.009 0 .016.038.016.084 0 .047.008.084.017.084.009 0 .016.03.016.068 0 .037.007.067.016.067.01 0 .017.038.017.085 0 .046.007.084.016.084.01 0 .016.023.016.05 0 .028.008.051.017.051.009 0 .016.03.016.067 0 .037.008.068.017.068.009 0 .016.023.016.05 0 .028.007.05.016.05.01 0 .017.024.017.051 0 .028.007.051.016.051.01 0 .017.023.017.05 0 .028.007.051.016.051.01 0 .016.023.016.05 0 .029.008.051.017.051.009 0 .016.023.016.05 0 .029.008.051.017.051.009 0 .016.016.016.034 0 .019.007.034.016.034.01 0 .017.023.017.05 0 .028.007.05.016.05.01 0 .017.016.017.035 0 .018.007.033.016.033.009 0 .016.016.016.034 0 .019.008.034.017.034.009 0 .016.015.016.034 0 .018.008.033.017.033.009 0 .016.023.016.05 0 .029.007.051.016.051.01 0 .017.016.017.034 0 .019.007.034.016.034.01 0 .017.015.017.033 0 .019.007.034.016.034.009 0 .016.015.016.034 0 .018.008.034.017.034.009 0 .016.015.016.033 0 .019.007.034.016.034.01 0 .017.015.017.034 0 .018.007.033.016.033.01 0 .017.014.017.03 0 .017.014.041.032.055.018.013.033.037.033.054 0 .016.008.03.017.03.009 0 .016.014.016.03s.015.04.033.054c.018.014.033.038.033.054 0 .017.007.03.016.03.009 0 .016.014.016.03 0 .017.015.041.033.055.018.013.033.036.033.05 0 .015.015.038.033.05.018.014.033.037.033.051 0 .015.014.038.032.051.018.013.033.035.033.047 0 .013.022.045.05.071.026.026.049.056.049.067 0 .011.022.042.049.068.027.026.049.056.049.067 0 .011.022.042.049.068.027.026.05.056.05.066a.47.47 0 0 0 .098.119.548.548 0 0 1 .098.117c0 .024.535.574.558.574.01 0 .06.046.114.101a.516.516 0 0 0 .115.101c.01 0 .047.03.082.068.034.037.071.067.082.067.01 0 .04.023.065.05.026.029.056.051.069.051.012 0 .033.015.046.034.013.018.035.034.05.034.013 0 .035.015.048.033.013.019.036.034.05.034.014 0 .036.015.049.034.013.018.035.034.049.034.014 0 .036.015.05.033.012.019.034.034.048.034.014 0 .037.015.05.034.012.018.036.033.052.033s.03.008.03.017c0 .01.014.017.032.017.018 0 .033.008.033.017 0 .01.013.017.03.017.015 0 .039.015.052.033.013.019.037.034.053.034s.029.008.029.017c0 .01.015.017.033.017.018 0 .033.007.033.017 0 .009.014.017.032.017.018 0 .033.007.033.016 0 .01.015.017.033.017.018 0 .033.008.033.017 0 .01.014.017.032.017.018 0 .033.008.033.017 0 .01.015.017.033.017.018 0 .033.007.033.017 0 .009.015.016.033.016.018 0 .032.008.032.017 0 .01.015.017.033.017.018 0 .033.008.033.017 0 .01.022.017.05.017.026 0 .048.007.048.017 0 .009.015.016.033.016.018 0 .033.008.033.017 0 .01.022.017.05.017.026 0 .048.008.048.017 0 .01.015.017.033.017.018 0 .033.008.033.017 0 .01.022.017.049.017.027 0 .05.007.05.017 0 .009.014.016.032.016.018 0 .033.008.033.017 0 .01.022.017.049.017.027 0 .05.008.05.017 0 .01.021.017.048.017s.05.007.05.017c0 .009.029.016.065.016.036 0 .066.008.066.017 0 .01.022.017.049.017.027 0 .049.008.049.017 0 .01.03.017.066.017.036 0 .065.007.065.017 0 .009.03.017.066.017.036 0 .065.007.065.016 0 .01.03.017.066.017.036 0 .065.008.065.017 0 .01.037.017.082.017.046 0 .082.008.082.017 0 .01.044.017.099.017.054 0 .098.007.098.017 0 .01.05.016.115.016s.115.008.115.017c0 .01.065.017.164.017.098 0 .163.007.163.017 0 .01.12.017.328.017.208 0 .328-.006.328-.017 0-.01.02-.017.046-.017a.089.089 0 0 0 .069-.034c.013-.018.033-.033.045-.033.029 0 .103-.076.103-.105 0-.013.014-.034.032-.047.018-.013.033-.038.033-.054 0-.017.008-.03.016-.03.01 0 .017-.073.017-.186 0-.112-.007-.185-.017-.185-.008 0-.016-.015-.016-.034 0-.018-.007-.033-.016-.033-.01 0-.017-.012-.017-.026 0-.034-.139-.177-.171-.177-.014 0-.025-.007-.025-.017 0-.009-.015-.016-.033-.016-.018 0-.033-.008-.033-.017 0-.01-.082-.017-.213-.017s-.213-.007-.213-.017c0-.01-.082-.017-.213-.017s-.213-.006-.213-.017c0-.01-.05-.016-.115-.016-.066 0-.115-.008-.115-.017 0-.01-.044-.017-.098-.017-.055 0-.099-.008-.099-.017 0-.01-.03-.017-.065-.017-.036 0-.066-.008-.066-.017 0-.01-.037-.017-.082-.017-.045 0-.082-.007-.082-.017 0-.009-.022-.016-.049-.016-.027 0-.05-.008-.05-.017 0-.01-.029-.017-.065-.017-.036 0-.065-.008-.065-.017 0-.01-.022-.017-.05-.017-.027 0-.049-.007-.049-.017 0-.009-.022-.016-.049-.016-.027 0-.049-.008-.049-.017 0-.01-.022-.017-.05-.017-.026 0-.048-.008-.048-.017 0-.01-.023-.017-.05-.017-.027 0-.049-.007-.049-.017 0-.009-.014-.017-.032-.017-.018 0-.033-.007-.033-.016 0-.01-.022-.017-.05-.017-.026 0-.049-.008-.049-.017 0-.01-.014-.017-.032-.017-.018 0-.033-.008-.033-.017 0-.01-.015-.017-.033-.017-.018 0-.033-.007-.033-.017 0-.009-.022-.016-.049-.016-.027 0-.05-.008-.05-.017 0-.01-.014-.017-.032-.017-.018 0-.033-.008-.033-.017 0-.01-.014-.017-.033-.017-.018 0-.032-.007-.032-.017 0-.009-.015-.017-.033-.017-.018 0-.033-.007-.033-.016 0-.01-.013-.017-.029-.017s-.04-.015-.053-.034c-.013-.019-.037-.034-.053-.034s-.029-.007-.029-.017c0-.009-.015-.016-.033-.016-.018 0-.032-.008-.032-.017 0-.01-.014-.017-.03-.017s-.04-.015-.052-.034c-.013-.018-.037-.034-.053-.034s-.03-.007-.03-.016c0-.01-.012-.017-.028-.017-.017 0-.04-.015-.053-.034-.013-.018-.035-.034-.05-.034-.013 0-.036-.015-.049-.033-.013-.019-.033-.034-.046-.034-.012 0-.043-.023-.068-.05-.026-.028-.055-.051-.066-.051-.01 0-.04-.023-.066-.05-.025-.029-.054-.051-.065-.051-.01 0-.047-.03-.082-.068a.268.268 0 0 0-.08-.067c-.024 0-.723-.719-.723-.743 0-.01-.03-.047-.066-.083-.036-.036-.066-.074-.066-.085 0-.01-.022-.04-.049-.067-.027-.026-.049-.057-.049-.07 0-.013-.015-.034-.033-.048-.018-.013-.032-.036-.032-.05 0-.015-.015-.037-.033-.05-.018-.014-.033-.037-.033-.051 0-.015-.015-.038-.033-.05-.018-.014-.033-.037-.033-.051 0-.015-.014-.038-.032-.051-.018-.013-.033-.038-.033-.054 0-.017-.008-.03-.017-.03-.009 0-.016-.014-.016-.03 0-.017-.015-.041-.033-.055-.018-.013-.033-.037-.033-.054 0-.016-.007-.03-.016-.03-.009 0-.016-.015-.016-.033 0-.02-.008-.034-.017-.034-.009 0-.016-.015-.016-.034 0-.018-.007-.034-.016-.034-.01 0-.017-.015-.017-.033 0-.019-.007-.034-.016-.034-.01 0-.017-.015-.017-.034 0-.018-.007-.033-.016-.033-.01 0-.017-.016-.017-.034 0-.019-.007-.034-.016-.034-.009 0-.016-.015-.016-.034 0-.018-.008-.033-.017-.033-.009 0-.016-.015-.016-.034 0-.019-.007-.034-.016-.034-.01 0-.017-.015-.017-.033 0-.019-.007-.034-.016-.034-.01 0-.017-.023-.017-.05 0-.029-.007-.051-.016-.051-.009 0-.016-.015-.016-.034 0-.019-.008-.034-.017-.034-.009 0-.016-.022-.016-.05 0-.028-.008-.05-.017-.05-.009 0-.016-.023-.016-.051 0-.028-.007-.05-.016-.05-.01 0-.017-.024-.017-.052 0-.027-.007-.05-.016-.05-.01 0-.017-.023-.017-.05 0-.028-.007-.051-.016-.051-.009 0-.016-.023-.016-.05 0-.029-.008-.051-.017-.051-.009 0-.016-.03-.016-.068 0-.037-.008-.067-.017-.067-.008 0-.016-.03-.016-.068 0-.037-.007-.067-.016-.067-.01 0-.017-.03-.017-.067 0-.037-.007-.068-.016-.068-.01 0-.016-.038-.016-.084 0-.046-.008-.084-.017-.084-.009 0-.016-.045-.016-.101 0-.057-.008-.102-.017-.102-.01 0-.016-.061-.016-.151s-.007-.152-.017-.152c-.01 0-.016-.118-.016-.32s-.006-.32-.016-.32-.017-.023-.017-.051c0-.028-.007-.05-.016-.05-.009 0-.016-.016-.016-.034 0-.019-.008-.034-.017-.034-.009 0-.016-.012-.016-.026 0-.031-.105-.142-.135-.142-.012 0-.032-.016-.046-.034a.089.089 0 0 0-.069-.034c-.025 0-.045-.007-.045-.017 0-.01-.055-.017-.131-.017-.077 0-.132.008-.132.017Zm3.082 0c0 .01-.014.017-.032.017-.018 0-.033.008-.033.017 0 .01-.013.017-.03.017-.015 0-.04.015-.052.034-.013.018-.034.033-.046.033-.028 0-.069.042-.069.071 0 .013-.015.034-.033.047a.093.093 0 0 0-.032.071c0 .026-.008.047-.017.047-.01 0-.016.112-.016.304 0 .19.006.303.016.303s.017.045.017.101c0 .056.007.101.016.101.009 0 .016.038.016.084 0 .047.008.085.017.085.009 0 .016.03.016.067 0 .037.007.068.016.068.01 0 .017.03.017.067 0 .037.007.067.016.067.01 0 .017.023.017.05 0 .029.007.052.016.052.01 0 .016.022.016.05 0 .028.008.05.017.05.009 0 .016.016.016.034 0 .019.008.034.017.034.009 0 .016.023.016.05 0 .028.007.051.016.051.01 0 .017.015.017.034 0 .018.007.034.016.034.01 0 .017.015.017.033 0 .019.007.034.016.034.009 0 .016.015.016.034 0 .018.008.033.017.033.009 0 .016.016.016.034 0 .019.008.034.017.034.009 0 .016.015.016.034 0 .018.007.033.016.033.01 0 .017.015.017.034 0 .019.007.034.016.034.01 0 .017.013.017.03 0 .016.014.04.032.054.018.013.033.036.033.05 0 .015.015.038.033.051.018.013.033.036.033.05 0 .015.014.038.032.051.018.014.033.035.033.047 0 .013.03.052.066.088a.274.274 0 0 1 .065.083c0 .024.503.54.526.54.01 0 .04.023.065.051.025.028.054.05.065.05.01 0 .04.023.066.051.025.028.058.05.072.05.014 0 .026.008.026.018 0 .009.013.017.03.017.015 0 .04.015.052.033.013.019.037.034.053.034s.029.008.029.017c0 .01.013.017.03.017.015 0 .039.015.052.033.013.019.037.034.053.034s.029.008.029.017c0 .01.015.017.033.017.018 0 .033.007.033.017 0 .009.014.016.032.016.018 0 .033.008.033.017 0 .01.022.017.05.017.026 0 .048.008.048.017 0 .01.015.017.033.017.018 0 .033.008.033.017 0 .01.022.017.05.017.026 0 .048.007.048.017 0 .009.023.016.05.016.027 0 .049.008.049.017 0 .01.015.017.033.017.018 0 .032.008.032.017 0 .01.03.017.066.017.036 0 .065.007.065.017 0 .009.03.016.066.016.036 0 .066.008.066.017 0 .01.03.017.065.017.036 0 .066.008.066.017 0 .01.043.017.098.017.055 0 .098.007.098.017 0 .01.077.017.197.017.12 0 .197.006.197.016s.037.017.082.017c.045 0 .082-.007.082-.017 0-.009.03-.016.066-.016.036 0 .065-.008.065-.017 0-.01.015-.017.033-.017.018 0 .033-.008.033-.017 0-.01.01-.017.025-.017.032 0 .171-.143.171-.176 0-.015.008-.026.017-.026.009 0 .016-.015.016-.034 0-.018.008-.034.016-.034.01 0 .017-.067.017-.168s-.007-.169-.017-.169c-.008 0-.016-.015-.016-.033 0-.019-.007-.034-.016-.034-.01 0-.017-.011-.017-.026a.394.394 0 0 0-.09-.118.385.385 0 0 0-.114-.092c-.014 0-.025-.008-.025-.017 0-.01-.022-.017-.05-.017-.026 0-.049-.007-.049-.017 0-.01-.082-.016-.213-.016-.13 0-.213-.007-.213-.017 0-.01-.043-.017-.098-.017-.055 0-.099-.008-.099-.017 0-.01-.036-.017-.081-.017-.046 0-.082-.007-.082-.017 0-.009-.023-.016-.05-.016-.027 0-.049-.008-.049-.017 0-.01-.022-.017-.049-.017-.027 0-.05-.008-.05-.017 0-.01-.021-.017-.048-.017s-.05-.007-.05-.017c0-.009-.014-.017-.032-.017-.018 0-.033-.007-.033-.016 0-.01-.015-.017-.033-.017-.018 0-.033-.008-.033-.017 0-.01-.014-.017-.032-.017-.018 0-.033-.008-.033-.017 0-.01-.015-.017-.033-.017-.018 0-.033-.007-.033-.017 0-.009-.015-.016-.033-.016-.018 0-.032-.008-.032-.017 0-.01-.014-.017-.03-.017s-.04-.015-.052-.034c-.013-.018-.036-.034-.05-.034-.014 0-.036-.015-.049-.033-.013-.019-.033-.034-.046-.034-.012 0-.05-.03-.085-.067a.269.269 0 0 0-.08-.068c-.024 0-.264-.246-.264-.27 0-.01-.03-.048-.066-.084a.264.264 0 0 1-.065-.084c0-.011-.022-.041-.05-.067-.026-.026-.049-.06-.049-.075 0-.014-.007-.027-.016-.027-.01 0-.016-.013-.016-.03 0-.016-.015-.04-.033-.054-.018-.013-.033-.038-.033-.054 0-.017-.007-.03-.016-.03-.01 0-.017-.015-.017-.034 0-.018-.007-.033-.016-.033-.01 0-.017-.016-.017-.034 0-.019-.007-.034-.016-.034-.009 0-.016-.015-.016-.034 0-.018-.008-.033-.017-.033-.009 0-.016-.023-.016-.05 0-.029-.008-.051-.017-.051-.009 0-.016-.023-.016-.051 0-.028-.007-.05-.016-.05-.01 0-.017-.023-.017-.051 0-.028-.007-.05-.016-.05-.01 0-.017-.023-.017-.051 0-.028-.007-.05-.016-.05-.009 0-.016-.039-.016-.085 0-.046-.008-.084-.017-.084-.009 0-.016-.05-.016-.118 0-.068-.007-.118-.016-.118-.01 0-.017-.079-.017-.203 0-.123-.006-.202-.016-.202s-.017-.015-.017-.033c0-.02-.007-.034-.016-.034-.01 0-.017-.014-.017-.03 0-.017-.014-.041-.032-.054-.018-.014-.033-.038-.033-.055s-.012-.03-.03-.03c-.015 0-.039-.015-.052-.033-.013-.019-.037-.034-.053-.034s-.029-.008-.029-.017c0-.01-.015-.017-.033-.017-.018 0-.033-.007-.033-.017 0-.01-.06-.017-.147-.017-.088 0-.148.007-.148.017Zm14.132 2.225c0 .01.022.017.049.017.027 0 .049.007.049.017 0 .009.015.017.033.017.018 0 .032.007.032.016 0 .01.012.017.027.017.014 0 .047.023.072.05.025.029.058.051.072.051.014 0 .026.013.026.027 0 .015.022.049.05.075.026.026.049.057.049.07 0 .013.014.034.032.047.02.015.033.044.033.072 0 .025.008.046.017.046.008 0 .016.023.016.051 0 .028.007.05.016.05.01 0 .017.068.017.17 0 .1-.007.168-.017.168-.009 0-.016.03-.016.067 0 .037-.008.068-.017.068-.009 0-.016.015-.016.033 0 .019-.007.034-.016.034-.01 0-.017.013-.017.03 0 .016-.014.04-.032.054-.018.014-.033.034-.033.046a.48.48 0 0 1-.168.173c-.012 0-.032.015-.045.034-.013.018-.037.034-.053.034s-.03.007-.03.017c0 .009-.014.016-.032.016-.018 0-.033.008-.033.017 0 .01-.03.017-.065.017-.037 0-.066.008-.066.017 0 .01-.066.017-.164.017s-.164-.007-.164-.017c0-.01-.022-.017-.05-.017-.026 0-.048-.008-.048-.017 0-.01-.015-.017-.033-.017-.018 0-.033-.007-.033-.016 0-.01-.015-.017-.033-.017-.018 0-.032-.008-.032-.017 0-.01-.012-.017-.025-.017a.637.637 0 0 1-.148-.126.645.645 0 0 1-.122-.152c0-.014-.008-.025-.017-.025-.009 0-.016-.016-.016-.034 0-.019-.008-.034-.017-.034-.009 0-.016-.023-.016-.05 0-.028-.007-.05-.017-.05-.01 0-.016-.085-.016-.22s.007-.22.017-.22c.009 0 .016-.022.016-.05 0-.027.007-.05.016-.05.01 0 .017-.015.017-.034 0-.019.007-.034.016-.034.01 0 .017-.013.017-.03 0-.016.014-.04.032-.054.018-.013.033-.034.033-.046 0-.013.026-.049.057-.08.031-.033.066-.06.078-.06.012 0 .032-.014.045-.033.013-.019.037-.034.053-.034s.03-.007.03-.017c0-.009.014-.016.032-.016.018 0 .033-.008.033-.017 0-.01.022-.017.05-.017.026 0 .048-.008.048-.017 0-.01.082-.017.213-.017.132 0 .214.007.214.017Z" fill="#FAFAFA"/></svg>