<svg width="64" height="64" fill="none" xmlns="http://www.w3.org/2000/svg"><path d="M32 63c17.12 0 31-13.88 31-31C63 14.88 49.12 1 32 1 14.88 1 1 14.88 1 32c0 17.12 13.88 31 31 31Zm24-50L11 55" stroke="red" stroke-width="2"/><path fill-rule="evenodd" clip-rule="evenodd" d="m41.347 19.392.22.392.49-.24c.535-.262.56-.267.778-.169.09.04.106.068 1.062 1.758 1.095 1.934 1.086 1.916 1.102 2.373.016.453-.163.902-.507 1.27l-.151.162-3.617 1.853-3.618 1.853.059.072c.032.04.246.325.475.635.476.641.586.844.657 1.206.062.312.045.597-.054.907-.1.31-.245.552-.478.79l-.167.171-2.572 1.32-2.572 1.32.47 3.956c.453 3.798.47 3.96.416 4.082l-.056.126-2.614 1.341c-1.8.924-2.661 1.355-2.763 1.383a1.423 1.423 0 0 1-1.165-.207.928.928 0 0 1-.333-.347 1.24 1.24 0 0 1-.171-.365c-.021-.085-.212-2.144-.425-4.576-.213-2.432-.4-4.487-.414-4.566-.163-.845-.915-1.532-1.8-1.642-.12-.015-.543-.02-.94-.01-.585.014-.743.007-.844-.037l-.123-.055-.852-1.519c-.839-1.496-.852-1.52-.837-1.614a.765.765 0 0 1 .057-.182c.04-.083.079-.106.933-.55l.892-.463-.22-.393-.22-.393.41-.209.41-.21.22.395.22.393 9.022-4.599 9.021-4.599-.22-.393-.22-.394.41-.209.41-.209.219.392ZM26.759 29.11l.33.59-.41.21-.41.208-.33-.59-.332-.59-.41.208-.41.21.331.59.331.59-.41.21-.41.208-.33-.59-.332-.59-.41.209-.41.209.331.59.331.59-.41.21-.41.209-.331-.59-.331-.591-.615.313-.615.314.551.984.552.984 10.662-5.435 10.661-5.435-.551-.984-.552-.984-7.996 4.076-7.997 4.076.332.59Zm12.506-3.085.221.394 2.156-1.107 2.155-1.108.097-.137c.18-.255.227-.565.126-.824l-.048-.124-2.464 1.256-2.464 1.256.221.394Zm-9.432 4.807.221.394-.41.21-.41.208-.22-.393-.221-.394-2.47 1.26-2.471 1.258.312.087c.542.15 1.003.43 1.422.862.165.17.229.26.398.559.22.391.29.588.348.98.019.128.206 2.194.415 4.593.307 3.521.392 4.38.44 4.464.045.082.086.116.182.15a.606.606 0 0 0 .21.037c.063-.006.736-.342 2.465-1.229l2.378-1.22-.601-5.074c-.35-2.955-.599-5.172-.595-5.312a2.8 2.8 0 0 1 .772-1.832c.382-.404.307-.361 3.65-2.065l3.017-1.539-.22-.393-.221-.394-4.306 2.195-4.305 2.195.22.393Zm3.45-.168c.12.118.527.322.803.403.353.104.625.12.98.058.144-.025.267-.044.273-.043.007 0 .07.191.143.424l.13.422-.105.024c-.623.142-1.125.132-1.688-.033a3.687 3.687 0 0 1-1.071-.528l-.224-.16-.07.104a2.08 2.08 0 0 0-.3.988c-.005.137.152 1.585.186 1.732.011.048.124-.007 2.363-1.157l2.35-1.207.125-.16a1 1 0 0 0 .175-.934c-.04-.132-.105-.232-.493-.758a78.509 78.509 0 0 0-.513-.69l-.066-.085-1.523.777-1.524.776.048.047Zm-4.115 12.15.221.393-.41.21-.41.208-.22-.394-.221-.393.41-.21.41-.208.22.393Z" fill="#FAFAFA"/></svg>