<svg width="41" height="55" viewBox="0 0 41 55" fill="none" xmlns="http://www.w3.org/2000/svg">
<path d="M0.000175703 23.5808C0.00498678 -0.763123 -0.0299248 0.539608 0.626233 0.171961C0.867033 0.0368989 4.22517 0.00584585 18.9688 0.00222924C38.8316 -0.00263449 37.5736 -0.0531425 37.8544 0.76097C37.9831 1.13446 37.9845 34.3869 37.9845 34.3869H35.7089V23.6929V2.30502L19.0206 2.27334C5.73486 2.24827 2.32035 2.27359 2.27347 2.39805C2.24115 2.4841 2.22894 12.1229 2.24633 23.8176L2.27804 45.0809L10.0806 45.1129L17.8832 45.0809V47.388H9.42681C0.114778 47.388 0.403936 47.4117 0.132542 46.6249C0.0343465 46.3402 -0.00290832 39.8449 0.000175703 23.5808Z" fill="white"/>
<path d="M16 12.2448V11.1224V10H25.9922H33V11.1224V12.2448H25.9922H16Z" fill="#3D5F95"/>
<path d="M16 19.1039V17.9815V16.8591H27.1025H33V17.9815V19.1039H27.1025H16Z" fill="#3D5F95"/>
<path d="M16 25.8383V24.7159V23.5935H24.3269H30V24.7159V25.8383H24.3269H16Z" fill="#3D5F95"/>
<path d="M16 32.5727V31.4503V30.3279H19.3307H22.6615V31.4503V32.5727H19.3307H16Z" fill="#3D5F95"/>
<path fill-rule="evenodd" clip-rule="evenodd" d="M12.6985 7.88995L9.14998 12.7565L6.29297 10.0138L6.9855 9.29241L9.01655 11.2422L11.8905 7.30078L12.6985 7.88995Z" fill="white"/>
<path fill-rule="evenodd" clip-rule="evenodd" d="M12.6985 14.89L9.14998 19.7565L6.29297 17.0138L6.9855 16.2924L9.01655 18.2422L11.8905 14.3008L12.6985 14.89Z" fill="white"/>
<path fill-rule="evenodd" clip-rule="evenodd" d="M12.6985 21.89L9.14998 26.7565L6.29297 24.0138L6.9855 23.2924L9.01655 25.2422L11.8905 21.3008L12.6985 21.89Z" fill="white"/>
<path fill-rule="evenodd" clip-rule="evenodd" d="M12.6985 28.89L9.14998 33.7565L6.29297 31.0138L6.9855 30.2924L9.01655 32.2422L11.8905 28.3008L12.6985 28.89Z" fill="white"/>
<circle cx="31" cy="45" r="10" fill="#3D5F95"/>
<path fill-rule="evenodd" clip-rule="evenodd" d="M36.03 40.1521C36.4983 40.4448 36.6407 41.0618 36.348 41.5301L31.6997 48.9674C31.1712 49.8131 29.9799 49.9171 29.3128 49.1758L25.2567 44.6691C24.8873 44.2586 24.9205 43.6263 25.331 43.2568C25.7416 42.8874 26.3738 42.9207 26.7433 43.3312L30.3554 47.3447L34.652 40.4701C34.9447 40.0018 35.5617 39.8594 36.03 40.1521Z" fill="white"/>
</svg>
