<svg width="179" height="28" viewBox="0 0 179 28" fill="none" xmlns="http://www.w3.org/2000/svg"><path fill-rule="evenodd" clip-rule="evenodd" d="M5.336 8.919c-.252-2.052 1.296-3.672 3.06-3.852a3.475 3.475 0 0 1 3.852 3.096c.216 2.016-1.296 3.636-3.096 3.816a3.42 3.42 0 0 1-3.816-3.06Zm4.032 8.136c-.072.216-1.548 9.432-1.656 10.152 0 .18-.072.468-.072.684l1.332-1.98c.432-.684.864-1.332 1.296-2.016a111.372 111.372 0 0 0 3.276-5.112c.936-1.62 1.836-3.24 2.52-4.932.252-.612.504-1.224.684-1.872.108-.324.324-1.044.324-1.368l.036-.036c.252-.72.216-2.412.144-3.06-.036-.468-.144-.936-.252-1.368l-.396-1.08c-.036 0-.072-.072-.072-.072-.324-.72-.504-1.008-.972-1.656-.072-.108-.108-.144-.18-.252-.684-.864-1.836-1.728-2.808-2.232-.108-.036-.216-.072-.288-.108-1.26-.612-2.844-.828-4.32-.72-1.26.108-2.736.612-3.78 1.296-.72.504-1.26.936-1.8 1.584-.828.972-1.44 1.944-1.8 3.276-1.404 5.148 1.944 10.08 7.128 10.8.54.072 1.08.072 1.656.072Z" fill="#fff"/><path d="M38.096 12.77V5.284h-2.592c-.576 0-1.116.072-1.584.216-.504.144-.936.36-1.296.648-.36.288-.648.684-.828 1.152-.216.468-.324 1.008-.324 1.656 0 1.224.324 2.16 1.008 2.808.648.648 1.584 1.008 2.772 1.008h2.844Zm0 1.729h-3.204l-4.248 6.408h-2.772l4.752-6.984c-1.116-.36-2.016-.972-2.628-1.8-.612-.828-.9-1.908-.9-3.168 0-.936.144-1.728.468-2.412a4.723 4.723 0 0 1 1.332-1.692 5.583 5.583 0 0 1 2.016-1.008 9.828 9.828 0 0 1 2.592-.324H40.4v17.388h-2.304v-6.408Zm14.364.648h-6.084v5.76h-2.124V8.343h2.124v5.328h6.084V8.343h2.124v12.564H52.46v-5.76Zm7.776 3.276a4.167 4.167 0 0 1-.504.864h6.372V9.819H61.46c-.108 2.16-.216 3.924-.396 5.328-.18 1.368-.432 2.484-.828 3.276Zm7.848 2.484H58.58l-.432 3.96h-1.62v-5.58h.9c.576-.36 1.044-1.044 1.332-1.98.324-.972.504-2.16.612-3.672.108-1.476.18-3.24.216-5.292h8.64v10.944h1.908v5.58h-1.62l-.432-3.96Zm9.36-11.34c-.9 0-1.656.324-2.304.972-.648.648-1.044 1.584-1.224 2.88h6.372c.108-1.296-.108-2.268-.648-2.916-.54-.612-1.26-.936-2.196-.936Zm4.644 10.26c-.468.396-1.044.72-1.764.972-.72.216-1.548.36-2.448.36-2.016 0-3.528-.576-4.608-1.728-1.08-1.116-1.584-2.736-1.584-4.824 0-1.008.144-1.944.432-2.736a5.351 5.351 0 0 1 1.26-2.052 4.746 4.746 0 0 1 1.836-1.296 6.1 6.1 0 0 1 2.304-.432c.828 0 1.584.144 2.268.432.684.288 1.224.72 1.692 1.296.432.576.72 1.296.9 2.16.144.864.144 1.836-.036 2.952h-8.496c.108 2.988 1.512 4.464 4.212 4.464.72 0 1.368-.108 1.944-.288a8.14 8.14 0 0 0 1.584-.792l.504 1.512Zm10.908 1.08-5.256-6.732 5.148-5.832h2.232l-5.112 5.616 5.472 6.948h-2.484Zm-5.58-12.564v12.564h-2.124V8.343h2.124Zm15.264 12.816a6.866 6.866 0 0 1-2.448-.432 5.562 5.562 0 0 1-1.98-1.296 6.642 6.642 0 0 1-1.296-2.052 7.458 7.458 0 0 1-.504-2.772c0-1.008.18-1.944.504-2.736.324-.828.756-1.512 1.332-2.052a5.539 5.539 0 0 1 2.052-1.296 7.267 7.267 0 0 1 2.52-.432c.756 0 1.44.072 2.016.216.612.144 1.116.36 1.512.612l-.612 1.908c-.504-.36-.972-.648-1.44-.828-.432-.18-1.008-.288-1.62-.288-.54 0-1.08.108-1.584.288-.504.216-.936.54-1.296.936s-.648.936-.864 1.512c-.216.612-.324 1.332-.324 2.124 0 1.62.36 2.844 1.152 3.636.792.792 1.872 1.188 3.204 1.188a5.63 5.63 0 0 0 1.476-.216c.504-.18 1.008-.396 1.44-.684l.468 1.548c-.432.36-.972.612-1.584.828a7.77 7.77 0 0 1-2.124.288Zm7.344-.108c-.432 0-.792-.144-1.044-.396-.288-.288-.432-.612-.432-1.008s.144-.756.432-1.008c.252-.288.612-.396 1.044-.396.396 0 .756.108 1.008.396.288.252.396.612.396 1.008s-.108.72-.396 1.008a1.414 1.414 0 0 1-1.008.396Zm12.132-.144-5.256-6.732 5.184-5.832h2.232l-5.112 5.616 5.472 6.948h-2.52Zm-5.58-12.564v12.564h-2.124V8.343h2.124Zm13.788 11.304c.9 0 1.584-.216 2.124-.648.504-.468.9-.972 1.152-1.548v-2.412h-1.08c-1.62 0-2.808.18-3.492.54-.72.324-1.08 1.008-1.08 1.98 0 .684.252 1.224.72 1.584a2.903 2.903 0 0 0 1.656.504Zm3.672 1.26c-.072-.216-.108-.504-.18-.828a89.262 89.262 0 0 1-.108-1.008c-.144.252-.324.468-.54.72-.216.252-.468.504-.756.684-.324.216-.684.36-1.08.504-.432.108-.9.18-1.44.18a5.19 5.19 0 0 1-1.548-.216 3.712 3.712 0 0 1-1.296-.684c-.396-.288-.684-.684-.9-1.116a3.292 3.292 0 0 1-.324-1.476c0-1.368.54-2.376 1.656-2.988 1.08-.648 2.7-.936 4.824-.936h1.296v-1.044c0-1.008-.216-1.764-.648-2.232-.432-.504-1.188-.756-2.304-.756-.756 0-1.44.144-2.016.396a8.774 8.774 0 0 0-1.62.972l-.576-1.764a3.51 3.51 0 0 1 .756-.432 7.53 7.53 0 0 1 1.08-.396 11.57 11.57 0 0 1 1.296-.288c.432-.072.9-.108 1.368-.108 1.584 0 2.772.324 3.564 1.008.828.72 1.224 1.8 1.224 3.312v6.48c0 .288.036.612.072 1.044 0 .432.072.756.108.972h-1.908Zm11.16-1.26c1.116 0 2.016-.396 2.7-1.188.72-.792 1.044-2.052 1.044-3.852 0-1.728-.324-2.988-1.044-3.816-.684-.792-1.584-1.224-2.7-1.224-.54 0-1.08.108-1.584.288a3.652 3.652 0 0 0-1.296.9c-.396.432-.684.936-.9 1.584-.216.648-.324 1.404-.324 2.268 0 .9.108 1.692.324 2.304.216.648.504 1.152.9 1.584.36.396.792.684 1.296.864.504.216 1.044.288 1.584.288Zm.324 1.512c-.936 0-1.764-.216-2.448-.612-.72-.396-1.296-.972-1.764-1.692v6.732h-2.124V8.343h1.872l.18 2.196a5.267 5.267 0 0 1 1.764-1.8c.72-.432 1.584-.648 2.628-.648.72 0 1.44.108 2.088.396.684.252 1.26.648 1.764 1.188.504.54.936 1.224 1.224 2.052.288.828.432 1.764.432 2.88 0 1.116-.144 2.052-.432 2.88-.324.828-.72 1.512-1.26 2.052-.504.54-1.116.936-1.8 1.224a5.864 5.864 0 0 1-2.124.396Zm13.14-11.34v11.088h-2.16V9.819h-3.816V8.343h9.864v1.476h-3.888Zm19.692 11.088h-2.124V8.343h2.124v12.564Zm-11.16-7.056v5.544h1.944c.9 0 1.656-.216 2.232-.684.576-.468.864-1.188.864-2.124 0-.972-.252-1.656-.756-2.088-.54-.432-1.26-.648-2.196-.648h-2.088Zm-2.124-5.508h2.124v3.996h2.088c1.62 0 2.88.36 3.78 1.008.864.648 1.332 1.692 1.332 3.096 0 .756-.144 1.404-.396 1.944a3.509 3.509 0 0 1-1.08 1.404c-.468.396-1.044.648-1.656.828a7.97 7.97 0 0 1-2.124.288h-4.068V8.343Z" fill="#fff"/></svg>