<svg width="151" height="30" viewBox="0 0 151 30" fill="none" xmlns="http://www.w3.org/2000/svg"><path fill-rule="evenodd" clip-rule="evenodd" d="M116.421.604h-3.715c-1.6 0-2.718.785-3.382 1.842l-5.043 9.694-5.165-9.694C98.422 1.39 97.304.604 95.734.604h-3.715c-.996 0-1.268.906-.664 1.842l9.664 16.067v8.154c0 .996.846 1.781 1.842 1.781h2.869c.997 0 1.842-.785 1.842-1.781v-8.154l9.513-16.067c.604-.936.302-1.842-.664-1.842Zm-58.316 0h-22.59c-1.027 0-1.812.785-1.812 1.842v1.208a1.78 1.78 0 0 0 1.812 1.812h8.064v21.2c0 .997.845 1.782 1.842 1.782h2.899c.966 0 1.812-.785 1.812-1.781v-21.2h7.973a1.78 1.78 0 0 0 1.812-1.813V2.446c0-1.057-.785-1.842-1.812-1.842ZM15.644 0C5.708 0 0 4.168 0 14.526c0 10.359 5.708 14.526 15.644 14.526 9.935 0 15.643-4.167 15.643-14.526C31.287 4.168 25.58 0 15.644 0Zm0 23.798c-5.98 0-8.305-3.292-8.305-9.272s2.325-9.271 8.305-9.271c5.98 0 8.305 3.292 8.305 9.271 0 5.98-2.326 9.272-8.305 9.272Zm70.366-.212H72.178L85.828 7.52c.786-.755 1.812-1.722 1.812-3.473v-1.6c0-1.058-.785-1.843-1.812-1.843H65.081c-1.027 0-1.812.785-1.812 1.842v1.238c0 1.057.785 1.843 1.812 1.843h14.254L65.081 21.382c-.815.845-1.812 1.872-1.812 3.714v1.54a1.78 1.78 0 0 0 1.812 1.812H86.01c1.026 0 1.842-.785 1.842-1.812v-1.238c0-1.027-.816-1.812-1.842-1.812ZM148.886.604h-4.258c-1.027 0-1.873.846-2.295 1.842l-6.856 17.909-6.916-17.909c-.422-.996-1.268-1.842-2.295-1.842h-4.258c-.876 0-1.691.785-1.299 1.63l10.842 24.221c.544 1.208 1.389 1.993 2.779 1.993h2.114c1.389 0 2.234-.785 2.778-1.993l10.932-24.22c.393-.846-.392-1.631-1.268-1.631Z" fill="#fff"/></svg>