<svg width="45" height="42" viewBox="0 0 45 42" fill="none" xmlns="http://www.w3.org/2000/svg"><path fill-rule="evenodd" clip-rule="evenodd" d="M16.126.078C12.151.526 9.327 2.464 8.76 5.13c-.198.937-.135 1.791.213 2.86.153.47.155.536.037 1.313-.142.944-.152 1.634-.04 2.787.35 3.593 1.531 6.917 3.232 9.094.345.441.378.526.432 1.103.14 1.495-.104 2.637-.67 3.133-.728.637-1.499.898-3.654 1.235-1.727.27-2.428.462-3.245.888-1.199.625-2.305 2.104-3.293 4.405C.69 34.468.004 37.924 0 40.875c0 .658.017.74.201.924L.403 42h34.825l.25-.248.248-.248-.055-1.127c-.153-3.106-.662-5.69-1.58-8.019-.636-1.611-1.667-3.309-2.48-4.08-.941-.893-1.737-1.206-4.042-1.588-2.543-.422-3.085-.6-3.806-1.248-.571-.513-.673-.846-.71-2.324l-.032-1.28.587-.771c1.454-1.912 2.603-4.995 3.01-8.074.158-1.2.168-3.352.018-3.98-.1-.417-.093-.499.086-1.067.663-2.095.232-3.897-1.296-5.416-1.36-1.353-3.354-2.177-5.943-2.457-.917-.1-2.456-.097-3.357.005Zm4.042 1.518c2.123.361 3.956 1.318 4.776 2.493.603.864.796 2.013.518 3.077-.07.268-.139.498-.153.512-.047.047-1.713-.224-3.176-.517-3.087-.617-5.995-1.533-8.425-2.652-.402-.186-.852-.337-.999-.337-.355 0-.609.22-.666.58-.08.501.213.704 2.314 1.597l.33.14-.741.354c-.921.441-2.19.78-2.996.8l-.61.016-.07-.246c-.427-1.514-.11-2.807.95-3.86 1.12-1.114 2.972-1.85 5.256-2.09.907-.095 2.74-.029 3.692.133ZM17.221 7.37c1.87.603 4.947 1.303 7.297 1.66l.698.106.058.328c.103.58.072 2.302-.06 3.299-.445 3.395-1.731 6.503-3.392 8.199-1.4 1.43-3.202 2.017-5.023 1.635-2.467-.518-4.456-2.85-5.6-6.568-.654-2.129-1.01-4.758-.833-6.153l.04-.29c.03-.215.057-.368.067-.378.013-.013.3-.064.638-.114 1.916-.278 3.44-.813 4.645-1.63.272-.183.542-.335.601-.336.06-.001.448.107.864.242Zm12.126 12.265c-.473.168-.9.479-1.146.834-.39.563-.442 1.002-.395 3.342.035 1.733.071 1.744.19 1.78a.238.238 0 0 1 .09.045c.194.156.537.202.79.105l.072-.026c.208-.072.259-.09.259-.881v-.846l6.4.022c2.703.012 7.805.038 7.861.059.081.03.103 1.245.103 5.702v5.664h-4.977c-2.105 0-2.138.003-2.354.188a.68.68 0 0 0 0 1.02c.218.187.228.187 2.827.185 2.741-.003 5.606-.006 5.807-.382.137-.257.137-16.288 0-16.545-.203-.38-2.776-.38-8.075-.378h-.391c-4.218 0-6.81.023-7.06.112Zm14.224 2.138v.861h-7.529c-3.458 0-6.226-.025-6.385-.098-.256-.116-.45-.457-.45-.789 0-.27.265-.65.525-.755.096-.039 3.759-.073 6.327-.076l7.512-.005v.862Zm-28.502 1.75c1.036.458 1.488.546 2.826.547 1.415 0 2.005-.134 3.065-.7.316-.168.475-.27.563-.228.091.045.106.244.139.684l.015.203c.026.339.067.727.091.862.043.243.018.262-1.938 1.49l-1.982 1.244-1.828-1.149-2-1.258c-.165-.105-.168-.13-.063-.628.06-.286.11-.771.11-1.079l.002-.56.239.17c.131.093.474.274.761.401Zm20.665 1.115-.23.198v2.982l.23.198c.335.287.6.25 1.218-.171l.544-.37.553.37c.577.386.76.433 1.06.274.359-.19.38-.29.38-1.792s-.021-1.601-.38-1.792c-.29-.154-.516-.111-.773.145-.224.223-.24.283-.24.863v.624l-.206-.135c-.2-.13-.49-.128-.803.005-.127.054-.144.008-.144-.401 0-1.03-.597-1.523-1.209-.998Zm-20.835 2.8c.834.525 1.599 1.009 1.701 1.074.185.117.184.12-.448.854-.349.404-.668.736-.708.736-.058 0-1.54-1.361-3.103-2.849-.182-.174-.19-.204-.07-.273.074-.042.29-.206.48-.364.265-.22.378-.27.489-.21.079.042.825.506 1.659 1.032Zm8.159-.742c.257.18.466.347.464.37-.005.063-3.162 2.982-3.26 3.015-.047.015-.37-.304-.715-.71l-.629-.74.517-.327.354-.225 1.439-.92c.701-.45 1.295-.813 1.318-.805.024.008.254.162.512.342Zm-10.095 3.087c1.09 1.02 2.082 1.92 2.203 2a.642.642 0 0 0 .487.095c.261-.046.28-.027.823.764.306.447.556.85.556.898 0 .074-1.4 4.513-2.027 6.43l-.209.635h-.616l-1.503-4.287c-.827-2.359-1.568-4.38-1.648-4.493-.228-.324-.513-.385-.996-.212-.228.082-.435.129-.46.104-.034-.034.705-2.916 1.01-3.94.013-.04.013-.08.032-.093.06-.042.32.2 1.837 1.62l.51.479Zm12.661-.056c.296 1.08.523 1.979.506 1.996-.018.018-.24-.032-.493-.112-.425-.133-.481-.134-.735-.014-.267.127-.3.202-1.251 2.908-.537 1.527-1.238 3.515-1.557 4.418l-.58 1.641h-.647l-1.092-3.446c-.601-1.896-1.094-3.498-1.095-3.56-.002-.062.242-.473.54-.914l.544-.801.312.042c.352.047.384.02 3.415-2.833.814-.767 1.506-1.37 1.538-1.342.032.03.3.937.595 2.017ZM9.05 28.004c0 .02-.296 1.119-.658 2.441-.362 1.323-.658 2.472-.658 2.555 0 .207.442.63.658.63.098 0 .496-.112.884-.249.389-.136.733-.22.765-.184.032.035.615 1.652 1.295 3.592a687.514 687.514 0 0 0 1.295 3.672c.054.136-.243.144-5.542.144-3.08 0-5.615-.028-5.634-.061-.057-.1.095-2.04.232-2.975.412-2.794 1.357-5.483 2.551-7.262.963-1.435 1.635-1.826 3.736-2.175 1.011-.168 1.076-.176 1.076-.128Zm18.872.174c1.388.228 2.296.62 2.862 1.236.643.7 1.62 2.468 2.16 3.91.697 1.86 1.284 4.968 1.284 6.797v.484h-5.595c-3.077 0-5.595-.02-5.595-.046 0-.058 2.567-7.37 2.602-7.412.015-.018.346.083.737.225.806.293.99.312 1.256.127.398-.278.387-.373-.316-2.96-.362-1.332-.659-2.459-.659-2.503 0-.044.102-.06.227-.036.124.025.591.105 1.037.178Zm-9.557 1.99.461.56-.448.65c-.247.359-.484.652-.526.652-.042 0-.28-.292-.53-.65-.38-.543-.437-.67-.352-.779.304-.39.84-.992.884-.992.027 0 .257.252.511.56Zm.254 7.997c.398 1.274.722 2.345.72 2.379-.002.033-.693.061-1.535.061-1.39 0-1.526-.012-1.478-.136.028-.075.373-1.145.766-2.38.393-1.234.735-2.243.76-2.242.023 0 .37 1.044.767 2.318ZM34.26 6.039l.244-.393c.163-.26.41-.506.67-.668.358-.222.414-.292.414-.52 0-.405.275-.697.655-.697.047 0 .095.004.143.012a.92.92 0 0 1 .143-.012c.38 0 .655.292.655.696 0 .229.056.3.414.52.261.163.508.409.67.67l.245.392c.257.02.728.02 1.61.02h1.89l.04.04c.196.018.295.043.341.078.083.062.238.366.345.675C44.171 10.968 45 13.432 45 13.575c0 .45-.612.78-1.883 1.017a5.055 5.055 0 0 1-.68.075l-.03.03-.597-.027a8.838 8.838 0 0 1-.185-.009l-.18-.008c-1.006-.046-2.295-.348-2.58-.605-.308-.278-.269-.451.792-3.529.567-1.646 1.032-3.01 1.032-3.03 0-.019-.556-.035-1.234-.035-.372 0-.706.009-.933.023l-.14.244c-.227.396-.543.713-.89.89l-.309.16v7.612l.817.028c.73.025.839.05 1.028.227.4.375.227 1.066-.3 1.198-.102.026-1.15.036-2.343.023-1.192.013-2.24.002-2.342-.023-.527-.132-.7-.823-.3-1.198.189-.178.298-.202 1.028-.227l.816-.028V8.77l-.308-.158c-.347-.178-.664-.495-.891-.891l-.14-.244a15.825 15.825 0 0 0-.932-.023c-.679 0-1.234.016-1.234.036 0 .02.464 1.383 1.032 3.03 1.06 3.077 1.1 3.25.79 3.528-.284.257-1.572.559-2.579.605l-.18.008a8.85 8.85 0 0 1-.184.009l-.598.027-.03-.03a5.054 5.054 0 0 1-.68-.075c-1.27-.237-1.883-.568-1.883-1.017 0-.143.83-2.607 2.262-6.723.108-.31.263-.613.345-.675.047-.035.146-.06.34-.078l.04-.04h1.891c.882 0 1.353 0 1.61-.02Zm2.126 1.403c.623-.118.752-1.089.108-1.325a.937.937 0 0 0-.108-.033.935.935 0 0 0-.107.033c-.644.236-.516 1.207.107 1.325Zm6.952 5.637c-.077.076-.933.2-1.381.2-.447 0-1.305-.124-1.38-.2-.035-.034 1.25-3.842 1.352-4.006.029-.046.365.828.748 1.943.383 1.115.68 2.043.66 2.063Zm-12.522.2c-.449 0-1.305-.124-1.381-.2-.02-.02.277-.948.66-2.063.383-1.115.72-1.99.748-1.943.102.164 1.388 3.972 1.353 4.006-.076.076-.934.2-1.38.2Z" fill="#fff"/></svg>