<svg width="64" height="64" fill="none" xmlns="http://www.w3.org/2000/svg"><path fill-rule="evenodd" clip-rule="evenodd" d="M27.495 20.441c0 .016-.078.028-.183.028s-.183.011-.183.027c0 .015-.036.027-.079.027-.043 0-.078.012-.078.027 0 .016-.024.028-.053.028-.029 0-.052.012-.052.027s-.021.027-.047.027c-.025 0-.063.025-.084.055-.02.03-.053.054-.072.054-.044 0-.373.344-.373.39 0 .02-.024.053-.052.075-.03.021-.053.06-.053.087 0 .027-.012.049-.026.049-.014 0-.026.037-.026.082 0 .045-.012.082-.026.082-.015 0-.027.037-.027.082 0 .045-.011.081-.026.081-.017 0-.026 3.566-.026 10.644s.009 10.644.026 10.644c.015 0 .026.036.026.081 0 .046.012.082.027.082.014 0 .026.037.026.082 0 .045.012.082.026.082.014 0 .026.022.026.049 0 .026.024.066.053.088.028.021.052.055.052.074 0 .047.329.39.373.39.019 0 .051.024.072.054.02.03.059.055.084.055.026 0 .047.012.047.027s.023.027.052.027c.03 0 .053.013.053.028 0 .015.035.027.078.027s.079.012.079.027c0 .016.078.027.183.027s.183.012.183.028c0 .018 1.728.027 5.131.027 3.404 0 5.132-.01 5.132-.027 0-.016.078-.028.183-.028s.183-.011.183-.027c0-.015.035-.027.079-.027.043 0 .078-.012.078-.027s.024-.028.053-.028c.028 0 .052-.012.052-.027s.021-.027.047-.027c.025 0 .063-.025.084-.055.02-.03.053-.054.072-.054.044 0 .373-.343.373-.39 0-.02.023-.053.052-.074.03-.022.053-.062.053-.088 0-.027.011-.049.026-.049.014 0 .026-.037.026-.082 0-.045.012-.082.026-.082.015 0 .026-.036.026-.081 0-.046.012-.082.027-.082.017 0 .026-3.566.026-10.644s-.009-10.644-.026-10.644c-.015 0-.027-.036-.027-.081 0-.046-.011-.082-.026-.082-.014 0-.026-.037-.026-.082 0-.045-.012-.082-.026-.082-.015 0-.026-.022-.026-.049 0-.026-.024-.066-.053-.087-.029-.022-.052-.056-.052-.075 0-.046-.33-.39-.373-.39-.02 0-.051-.024-.072-.054-.02-.03-.059-.055-.084-.055-.026 0-.047-.012-.047-.027s-.024-.027-.052-.027c-.03 0-.053-.012-.053-.027s-.035-.028-.078-.028c-.044 0-.079-.012-.079-.027 0-.016-.078-.027-.183-.027s-.183-.012-.183-.028c0-.018-1.728-.027-5.132-.027-3.403 0-5.13.01-5.13.027Zm6.874 1.213c.06.062.046.2-.027.276l-.064.067h-3.303l-.065-.067c-.07-.074-.086-.21-.031-.274.05-.059 3.434-.06 3.49-.002Zm3.808 10.44v9.116h-11.1V22.979h11.1v9.116Zm-18.87-7.489c-.133.141-.242.27-.242.286 0 .016-.059.09-.13.163a.617.617 0 0 0-.131.164c0 .018-.036.066-.079.108-.043.043-.079.092-.079.11 0 .018-.035.067-.078.109-.043.042-.079.091-.079.109 0 .018-.035.067-.078.11-.043.041-.079.093-.079.113 0 .02-.023.056-.052.077-.029.022-.053.061-.053.088 0 .027-.011.049-.026.049-.014 0-.026.021-.026.048s-.023.067-.052.088c-.029.022-.053.061-.053.088 0 .027-.011.049-.026.049-.014 0-.026.024-.026.054s-.012.055-.026.055c-.015 0-.026.022-.026.048 0 .027-.024.066-.053.088-.028.022-.052.061-.052.088 0 .027-.012.049-.026.049-.015 0-.026.024-.026.054s-.012.055-.027.055c-.014 0-.026.024-.026.054s-.012.055-.026.055c-.014 0-.026.024-.026.055 0 .03-.012.054-.026.054-.015 0-.026.025-.026.055s-.012.054-.027.054c-.014 0-.026.025-.026.055s-.012.055-.026.055c-.014 0-.026.034-.026.075a.152.152 0 0 1-.053.116c-.028.021-.052.06-.052.087 0 .027-.012.049-.026.049-.014 0-.026.037-.026.082 0 .045-.012.082-.026.082-.015 0-.027.037-.027.082 0 .045-.011.081-.026.081-.014 0-.026.037-.026.082 0 .045-.012.082-.026.082-.015 0-.026.037-.026.082 0 .045-.012.082-.027.082-.014 0-.026.024-.026.054s-.011.055-.026.055c-.014 0-.026.037-.026.082 0 .045-.012.082-.026.082-.015 0-.026.037-.026.082 0 .045-.012.082-.027.082-.014 0-.026.049-.026.109s-.011.109-.026.109c-.014 0-.026.061-.026.136 0 .075-.012.137-.026.137-.015 0-.026.049-.026.109s-.012.11-.027.11c-.014 0-.026.048-.026.108s-.012.11-.026.11c-.014 0-.026.072-.026.163 0 .091-.012.164-.026.164-.015 0-.027.082-.027.191 0 .11-.01.191-.026.191-.015 0-.026.11-.026.273 0 .164-.01.273-.026.273-.017 0-.026.255-.026.71 0 .454.01.71.026.71s.026.117.026.3c0 .181.01.3.026.3.015 0 .026.081.026.19 0 .11.012.191.027.191.014 0 .026.073.026.164 0 .091.012.164.026.164.014 0 .026.037.026.082 0 .045.012.082.026.082.015 0 .027.061.027.136 0 .075.011.137.026.137.014 0 .026.049.026.109s.012.109.026.109c.015 0 .026.062.026.136 0 .075.012.137.026.137.015 0 .027.037.027.082 0 .045.011.082.026.082.014 0 .026.024.026.054s.012.055.026.055c.015 0 .026.037.026.082 0 .045.012.082.026.082.015 0 .027.037.027.081 0 .045.011.082.026.082.014 0 .026.037.026.082 0 .045.012.082.026.082.015 0 .026.037.026.082 0 .045.012.082.027.082.014 0 .026.024.026.054s.012.055.026.055c.014 0 .026.025.026.055s.012.054.026.054c.015 0 .026.025.026.055s.012.054.027.054c.014 0 .026.025.026.055s.012.055.026.055c.014 0 .026.036.026.081 0 .045.012.082.026.082.015 0 .027.025.027.055s.011.054.026.054c.014 0 .026.025.026.055s.012.055.026.055c.014 0 .026.024.026.054s.012.055.026.055c.015 0 .027.022.027.048 0 .027.023.067.052.088.029.022.052.061.052.088 0 .027.012.049.027.049.014 0 .026.024.026.054s.011.055.026.055c.014 0 .026.022.026.048 0 .027.024.067.052.088.03.022.053.059.053.082 0 .024.023.06.052.082.029.022.052.061.052.088 0 .027.012.048.027.048.014 0 .026.022.026.05 0 .026.023.065.052.087.029.022.053.056.053.077 0 .02.035.072.078.114.043.042.079.091.079.11 0 .017.035.066.078.108.043.042.079.091.079.11 0 .017.035.067.078.109.043.042.079.09.079.107s.094.129.21.247c.114.12.209.23.209.246 0 .037.225.273.261.273.036 0 .995-1.001.995-1.038 0-.016-.094-.126-.21-.245-.114-.118-.209-.23-.209-.246a.634.634 0 0 0-.13-.163.615.615 0 0 1-.131-.165c0-.017-.036-.066-.079-.108-.043-.042-.078-.093-.078-.114 0-.02-.024-.055-.053-.077-.029-.022-.052-.059-.052-.082 0-.023-.024-.06-.052-.082-.03-.021-.053-.058-.053-.082 0-.023-.023-.06-.052-.082-.029-.021-.053-.058-.053-.081 0-.024-.023-.06-.052-.082-.029-.022-.052-.062-.052-.088 0-.027-.012-.049-.026-.049-.015 0-.027-.024-.027-.054s-.011-.055-.026-.055c-.014 0-.026-.022-.026-.048 0-.027-.024-.067-.052-.088-.03-.022-.053-.062-.053-.088 0-.027-.012-.049-.026-.049-.014 0-.026-.024-.026-.054s-.012-.055-.026-.055c-.015 0-.026-.025-.026-.055s-.012-.054-.027-.054c-.014 0-.026-.037-.026-.082 0-.045-.012-.082-.026-.082-.014 0-.026-.024-.026-.054s-.012-.055-.026-.055c-.015 0-.026-.025-.026-.055s-.012-.054-.027-.054c-.014 0-.026-.025-.026-.055s-.012-.054-.026-.054c-.014 0-.026-.025-.026-.055s-.012-.055-.026-.055c-.015 0-.027-.036-.027-.081 0-.045-.011-.082-.026-.082-.014 0-.026-.037-.026-.082 0-.045-.012-.082-.026-.082-.015 0-.026-.037-.026-.082 0-.045-.012-.082-.027-.082-.014 0-.026-.037-.026-.082 0-.045-.012-.081-.026-.081-.014 0-.026-.037-.026-.082 0-.046-.012-.082-.026-.082-.015 0-.026-.05-.026-.11s-.012-.109-.027-.109c-.014 0-.026-.049-.026-.109s-.012-.109-.026-.109c-.014 0-.026-.061-.026-.136 0-.076-.012-.137-.026-.137-.015 0-.027-.073-.027-.164 0-.09-.011-.163-.026-.163s-.026-.082-.026-.191c0-.11-.011-.191-.026-.191-.016 0-.026-.137-.026-.355 0-.219-.01-.355-.026-.355s-.027-.127-.027-.328c0-.2.01-.327.027-.327.016 0 .026-.127.026-.328 0-.2.01-.327.026-.327.015 0 .026-.082.026-.191 0-.11.011-.191.026-.191s.026-.073.026-.164c0-.09.012-.164.027-.164.014 0 .026-.061.026-.136 0-.075.012-.136.026-.136.014 0 .026-.05.026-.11s.012-.109.026-.109c.015 0 .027-.049.027-.109s.011-.11.026-.11c.014 0 .026-.036.026-.081 0-.045.012-.082.026-.082.014 0 .026-.037.026-.082 0-.045.012-.082.026-.082.015 0 .027-.037.027-.081 0-.046.011-.082.026-.082.014 0 .026-.037.026-.082 0-.045.012-.082.026-.082.015 0 .026-.037.026-.082 0-.045.012-.082.027-.082.014 0 .026-.024.026-.055 0-.03.012-.054.026-.054.014 0 .026-.025.026-.055s.012-.054.026-.054c.015 0 .026-.025.026-.055s.012-.054.027-.054c.014 0 .026-.037.026-.082 0-.045.012-.082.026-.082.014 0 .026-.025.026-.055s.012-.054.026-.054c.015 0 .027-.025.027-.055s.011-.055.026-.055c.014 0 .026-.024.026-.054s.012-.055.026-.055c.014 0 .026-.024.026-.054s.012-.055.026-.055c.015 0 .027-.022.027-.048 0-.027.023-.067.052-.088.029-.022.052-.061.052-.088 0-.027.012-.049.026-.049.015 0 .027-.024.027-.054s.012-.055.026-.055c.014 0 .026-.022.026-.048 0-.027.024-.067.052-.088.03-.022.053-.059.053-.082 0-.024.023-.06.052-.082.029-.022.052-.058.052-.082 0-.023.024-.06.053-.082.029-.022.052-.056.052-.076 0-.02.047-.085.105-.142.058-.058.105-.122.105-.142 0-.02.023-.055.052-.076.029-.022.052-.056.052-.076 0-.02.118-.158.262-.306.144-.15.262-.29.262-.314 0-.023.012-.041.026-.041.081 0-.023-.134-.458-.587a19.617 19.617 0 0 0-.49-.503 9.582 9.582 0 0 0-.25.26Zm25.892.246c-.43.452-.532.585-.451.585.014 0 .026.018.026.041 0 .024.118.164.262.314.144.148.261.287.261.306 0 .02.024.054.053.075.029.022.052.056.052.077 0 .02.047.084.105.142.058.058.105.121.105.142 0 .02.023.054.052.076.029.022.052.059.052.082 0 .024.024.06.053.082.029.022.052.058.052.082 0 .023.024.06.053.082.028.021.052.06.052.088 0 .026.012.048.026.048.014 0 .026.025.026.055s.012.054.026.054c.015 0 .027.022.027.049 0 .026.023.066.052.088.029.021.052.06.052.088 0 .026.012.048.026.048.015 0 .027.025.027.055s.011.054.026.054c.014 0 .026.025.026.055s.012.055.026.055c.015 0 .026.024.026.054s.012.055.026.055c.015 0 .027.024.027.054s.011.055.026.055c.014 0 .026.037.026.082 0 .045.012.082.026.082.015 0 .026.024.026.054s.012.055.026.055c.015 0 .027.024.027.054s.011.055.026.055c.014 0 .026.024.026.054s.012.055.026.055c.015 0 .026.037.026.082 0 .045.012.082.027.082.014 0 .026.037.026.082 0 .045.012.082.026.082.014 0 .026.036.026.082 0 .044.012.081.026.081.015 0 .027.037.027.082 0 .045.011.082.026.082.014 0 .026.037.026.082 0 .045.012.082.026.082.014 0 .026.049.026.109s.012.11.026.11c.015 0 .027.048.027.108s.011.11.026.11c.014 0 .026.06.026.136 0 .075.012.136.026.136.015 0 .026.073.026.164 0 .091.012.164.026.164.015 0 .027.082.027.19 0 .11.01.192.026.192s.026.127.026.328c0 .2.01.327.026.327s.026.127.026.328c0 .2-.01.327-.026.327s-.026.136-.026.355c0 .218-.01.355-.026.355-.015 0-.026.081-.026.19 0 .11-.012.192-.027.192-.014 0-.026.072-.026.163 0 .091-.011.164-.026.164-.014 0-.026.061-.026.137 0 .075-.012.136-.026.136-.015 0-.026.05-.026.11s-.012.108-.026.108c-.015 0-.027.05-.027.11s-.012.109-.026.109c-.014 0-.026.036-.026.082 0 .045-.012.081-.026.081-.015 0-.026.037-.026.082 0 .045-.012.082-.027.082-.014 0-.026.037-.026.082 0 .045-.012.082-.026.082-.014 0-.026.037-.026.082 0 .045-.012.082-.026.082-.015 0-.027.036-.027.082 0 .045-.011.081-.026.081-.014 0-.026.025-.026.055s-.012.055-.026.055c-.014 0-.026.024-.026.054s-.012.055-.027.055c-.014 0-.026.024-.026.054s-.011.055-.026.055c-.014 0-.026.024-.026.054s-.012.055-.026.055c-.015 0-.026.037-.026.082 0 .045-.012.082-.026.082-.015 0-.027.024-.027.054s-.011.055-.026.055c-.014 0-.026.025-.026.055s-.012.054-.026.054c-.015 0-.026.022-.026.049 0 .026-.024.066-.053.088-.029.021-.052.06-.052.087 0 .027-.012.05-.026.05-.015 0-.026.024-.026.054s-.012.054-.027.054c-.014 0-.026.022-.026.049 0 .026-.023.066-.052.088-.029.021-.053.058-.053.082 0 .023-.023.06-.052.081-.029.022-.052.059-.052.082 0 .024-.024.06-.053.082-.028.022-.052.059-.052.082 0 .023-.024.06-.052.082-.03.022-.053.056-.053.077 0 .02-.035.072-.078.114-.044.042-.079.09-.079.108a.615.615 0 0 1-.13.165.634.634 0 0 0-.132.163c0 .017-.094.127-.21.246-.114.119-.209.23-.209.245 0 .037.96 1.038.996 1.038.036 0 .261-.236.261-.273 0-.016.094-.127.21-.246.115-.118.209-.23.209-.247 0-.017.035-.065.078-.107.044-.042.08-.092.08-.11 0-.018.035-.067.078-.109.043-.042.078-.09.078-.109 0-.018.035-.067.079-.109.043-.042.078-.093.078-.114 0-.02.024-.055.053-.077.028-.022.052-.061.052-.088 0-.027.012-.049.026-.049.015 0 .026-.021.026-.048s.024-.066.053-.088c.028-.022.052-.058.052-.082 0-.023.024-.06.052-.082.03-.021.053-.06.053-.088 0-.026.011-.048.026-.048.014 0 .026-.025.026-.055s.012-.054.026-.054c.015 0 .026-.022.026-.049 0-.027.024-.066.053-.088.029-.021.052-.061.052-.088 0-.026.012-.048.026-.048.015 0 .027-.025.027-.055s.011-.054.026-.054c.014 0 .026-.025.026-.055s.012-.055.026-.055c.014 0 .026-.024.026-.054s.012-.055.026-.055c.015 0 .027-.037.027-.082 0-.045.011-.081.026-.081.014 0 .026-.025.026-.055s.012-.055.026-.055c.015 0 .026-.024.026-.054s.012-.055.027-.055c.014 0 .026-.024.026-.054s.011-.055.026-.055c.014 0 .026-.025.026-.055s.012-.054.026-.054c.015 0 .026-.037.026-.082 0-.045.012-.082.027-.082.014 0 .026-.037.026-.082 0-.045.012-.082.026-.082.014 0 .026-.037.026-.082 0-.044.012-.081.026-.081.015 0 .026-.037.026-.082 0-.045.012-.082.027-.082.014 0 .026-.025.026-.055s.012-.054.026-.054c.014 0 .026-.037.026-.082 0-.045.012-.082.026-.082.015 0 .027-.062.027-.137 0-.075.011-.136.026-.136.014 0 .026-.05.026-.11s.012-.108.026-.108c.015 0 .026-.062.026-.137 0-.075.012-.136.026-.136.015 0 .027-.037.027-.082 0-.045.011-.082.026-.082.014 0 .026-.073.026-.164 0-.09.012-.164.026-.164.015 0 .026-.081.026-.19 0-.11.012-.191.027-.191s.026-.119.026-.3c0-.183.01-.3.026-.3.017 0 .026-.256.026-.71 0-.455-.01-.71-.026-.71s-.026-.11-.026-.273c0-.164-.01-.273-.026-.273-.015 0-.027-.082-.027-.191 0-.11-.01-.191-.026-.191-.014 0-.026-.073-.026-.164 0-.09-.012-.163-.026-.163-.014 0-.026-.05-.026-.11s-.012-.109-.026-.109c-.015 0-.027-.049-.027-.109s-.011-.11-.026-.11c-.014 0-.026-.06-.026-.136 0-.075-.012-.136-.026-.136-.015 0-.026-.05-.026-.11s-.012-.108-.026-.108c-.015 0-.027-.037-.027-.082 0-.045-.011-.082-.026-.082-.014 0-.026-.037-.026-.082 0-.045-.012-.082-.026-.082-.015 0-.026-.024-.026-.055 0-.03-.012-.054-.027-.054-.014 0-.026-.037-.026-.082 0-.045-.012-.082-.026-.082-.014 0-.026-.037-.026-.082 0-.045-.012-.082-.026-.082-.015 0-.027-.036-.027-.081 0-.045-.011-.082-.026-.082-.014 0-.026-.037-.026-.082 0-.045-.012-.082-.026-.082-.015 0-.026-.022-.026-.049 0-.026-.024-.066-.053-.087a.151.151 0 0 1-.052-.116c0-.041-.012-.076-.026-.076-.015 0-.026-.024-.026-.054s-.012-.055-.027-.055c-.014 0-.026-.024-.026-.054s-.011-.055-.026-.055c-.014 0-.026-.024-.026-.054s-.012-.055-.026-.055c-.015 0-.026-.025-.026-.055s-.012-.054-.027-.054c-.014 0-.026-.025-.026-.055s-.012-.054-.026-.054c-.014 0-.026-.022-.026-.049 0-.027-.024-.066-.053-.088-.028-.022-.052-.061-.052-.088 0-.026-.012-.048-.026-.048-.015 0-.026-.025-.026-.055s-.012-.054-.026-.054c-.015 0-.027-.022-.027-.049 0-.027-.023-.066-.052-.088-.029-.021-.052-.061-.052-.088 0-.026-.012-.048-.027-.048-.014 0-.026-.022-.026-.049 0-.027-.023-.066-.052-.088-.029-.021-.052-.056-.052-.077 0-.02-.036-.072-.079-.114-.043-.042-.078-.091-.078-.109 0-.018-.036-.067-.079-.11-.043-.041-.079-.09-.079-.108 0-.018-.035-.067-.078-.11-.043-.042-.079-.09-.079-.108a.617.617 0 0 0-.13-.164.646.646 0 0 1-.131-.163c0-.025-.486-.55-.504-.545a37.09 37.09 0 0 0-.485.505Zm-24.033 1.418c-.032.036-.059.079-.059.095s-.082.114-.183.218c-.1.104-.183.202-.183.22 0 .017-.035.065-.079.107-.043.042-.078.094-.078.114 0 .021-.024.056-.053.077-.028.022-.052.057-.052.077 0 .021-.035.072-.078.114-.044.043-.08.094-.08.114 0 .021-.023.056-.051.078-.03.021-.053.06-.053.087 0 .027-.012.049-.026.049-.014 0-.026.024-.026.055 0 .03-.012.054-.026.054-.015 0-.026.022-.026.049 0 .026-.024.066-.053.088-.029.021-.052.06-.052.088 0 .026-.012.048-.026.048-.015 0-.027.025-.027.055s-.011.054-.026.054c-.014 0-.026.025-.026.055s-.012.054-.026.054c-.014 0-.026.025-.026.055s-.012.054-.026.054c-.015 0-.027.035-.027.076a.152.152 0 0 1-.052.116.151.151 0 0 0-.052.115c0 .041-.012.076-.027.076-.014 0-.026.024-.026.054s-.011.055-.026.055c-.014 0-.026.049-.026.109s-.012.11-.026.11c-.015 0-.026.036-.026.081 0 .045-.012.082-.027.082-.014 0-.026.024-.026.054s-.012.055-.026.055c-.014 0-.026.037-.026.082 0 .045-.012.082-.026.082-.015 0-.027.049-.027.109s-.011.11-.026.11c-.014 0-.026.048-.026.108s-.012.11-.026.11c-.014 0-.026.06-.026.136 0 .075-.012.136-.026.136-.016 0-.027.091-.027.219 0 .127-.01.218-.026.218s-.026.11-.026.273c0 .164-.01.273-.026.273-.017 0-.026.173-.026.464 0 .29.01.464.026.464s.026.109.026.273c0 .163.01.273.026.273.015 0 .026.081.026.19 0 .11.012.192.026.192.015 0 .027.061.027.136 0 .075.012.136.026.136.014 0 .026.05.026.11s.012.109.026.109c.015 0 .026.061.026.136 0 .075.012.137.027.137.014 0 .026.024.026.054s.012.055.026.055c.014 0 .026.037.026.082 0 .045.012.082.026.082.015 0 .026.036.026.082 0 .045.012.081.027.081.014 0 .026.037.026.082 0 .045.012.082.026.082.015 0 .026.037.026.082 0 .045.012.082.026.082.015 0 .027.024.027.054s.011.055.026.055c.014 0 .026.025.026.055s.012.054.026.054c.015 0 .026.025.026.055s.012.054.027.054c.014 0 .026.025.026.055s.012.055.026.055c.014 0 .026.037.026.081 0 .045.012.082.026.082.015 0 .026.025.026.055s.012.054.027.054c.014 0 .026.022.026.049 0 .027.023.066.052.088.029.022.053.059.053.082 0 .023.023.06.052.082.029.021.052.06.052.088 0 .026.012.048.026.048.015 0 .027.025.027.055s.011.054.026.054c.014 0 .026.02.026.043 0 .024.047.09.105.148.057.058.104.122.104.142 0 .02.024.055.053.077.029.021.052.056.052.077 0 .02.035.072.079.114.043.042.078.09.078.107 0 .016.112.146.249.29l.248.258.485-.505c.266-.277.484-.52.484-.54 0-.02-.023-.053-.052-.074-.029-.022-.053-.056-.053-.076 0-.02-.07-.109-.157-.197-.086-.089-.157-.175-.157-.192 0-.018-.035-.066-.078-.108-.043-.042-.079-.091-.079-.11 0-.017-.035-.067-.078-.109-.044-.042-.079-.096-.079-.12 0-.024-.012-.043-.026-.043-.014 0-.026-.022-.026-.049 0-.027-.024-.066-.052-.088-.03-.021-.053-.061-.053-.088 0-.026-.012-.048-.026-.048-.015 0-.026-.022-.026-.049 0-.027-.024-.066-.053-.088a.152.152 0 0 1-.052-.115c0-.042-.012-.076-.026-.076-.014 0-.026-.024-.026-.054s-.012-.055-.026-.055c-.015 0-.027-.024-.027-.054s-.011-.055-.026-.055c-.014 0-.026-.025-.026-.055s-.012-.054-.026-.054c-.015 0-.026-.025-.026-.055s-.012-.055-.027-.055c-.014 0-.026-.036-.026-.081 0-.045-.012-.082-.026-.082-.014 0-.026-.037-.026-.082 0-.045-.012-.082-.026-.082-.015 0-.026-.037-.026-.082 0-.045-.012-.082-.027-.082-.014 0-.026-.049-.026-.109s-.012-.109-.026-.109c-.014 0-.026-.037-.026-.082 0-.045-.012-.082-.026-.082-.015 0-.027-.049-.027-.109s-.011-.11-.026-.11-.026-.081-.026-.19c0-.11-.011-.191-.026-.191-.016 0-.026-.128-.026-.328s-.01-.327-.026-.327c-.015 0-.027-.082-.027-.191 0-.11.012-.191.027-.191.016 0 .026-.137.026-.355 0-.218.01-.355.026-.355.014 0 .026-.073.026-.164 0-.09.012-.163.026-.163.015 0 .026-.05.026-.11s.012-.109.027-.109c.014 0 .026-.049.026-.109s.012-.109.026-.109c.014 0 .026-.037.026-.082 0-.045.012-.082.026-.082.015 0 .027-.037.027-.082 0-.045.011-.081.026-.081.014 0 .026-.037.026-.082 0-.045.012-.082.026-.082.014 0 .026-.037.026-.082 0-.045.012-.082.026-.082.015 0 .027-.024.027-.055 0-.03.011-.054.026-.054.014 0 .026-.025.026-.055s.012-.054.026-.054c.015 0 .026-.037.026-.082 0-.045.012-.082.027-.082.014 0 .026-.025.026-.055s.012-.054.026-.054c.014 0 .026-.025.026-.055s.012-.054.026-.054c.015 0 .026-.022.026-.049 0-.027.024-.066.053-.088.029-.022.052-.061.052-.088 0-.027.012-.048.026-.048.015 0 .027-.022.027-.049 0-.027.023-.066.052-.088.029-.021.052-.058.052-.082 0-.023.024-.06.052-.082.03-.021.053-.056.053-.076 0-.021.035-.073.078-.115.044-.042.079-.093.079-.114 0-.02.024-.055.052-.077.03-.021.053-.055.053-.075 0-.02.082-.121.183-.225.109-.112.183-.211.183-.244 0-.037-.162-.225-.458-.534-.489-.51-.524-.532-.635-.408Zm22.28.41c-.291.306-.452.496-.452.532 0 .033.074.132.183.244.1.104.183.205.183.225 0 .02.024.054.053.075.028.022.052.057.052.077 0 .021.035.072.078.114.044.042.079.094.079.114 0 .021.023.056.052.078.03.021.053.058.053.081 0 .024.023.06.052.082.029.022.052.061.052.088 0 .027.012.049.027.049.014 0 .026.021.026.048s.023.066.052.088c.029.022.053.061.053.088 0 .027.011.049.026.049.014 0 .026.024.026.054s.012.055.026.055c.014 0 .026.024.026.054s.012.055.026.055c.015 0 .026.037.026.082 0 .045.012.082.027.082.014 0 .026.024.026.054s.012.055.026.055c.015 0 .026.024.026.054s.012.055.026.055c.015 0 .027.037.027.082 0 .045.011.082.026.082.014 0 .026.037.026.082 0 .045.012.082.026.082.015 0 .026.036.026.081 0 .045.012.082.027.082.014 0 .026.037.026.082 0 .045.011.082.026.082.014 0 .026.05.026.11s.012.108.026.108c.015 0 .026.05.026.11s.012.109.027.109c.014 0 .026.073.026.163 0 .091.011.164.026.164.016 0 .026.137.026.355 0 .218.01.355.026.355.015 0 .026.082.026.19 0 .11-.01.192-.026.192s-.026.127-.026.327-.01.328-.026.328c-.015 0-.026.082-.026.19 0 .11-.011.192-.026.192s-.027.049-.027.11c0 .06-.011.108-.026.108-.014 0-.026.037-.026.082 0 .045-.012.082-.026.082-.014 0-.026.05-.026.11s-.012.108-.026.108c-.015 0-.027.037-.027.082 0 .045-.011.082-.026.082-.014 0-.026.037-.026.082 0 .045-.012.082-.026.082-.015 0-.026.037-.026.082 0 .045-.012.081-.026.081-.015 0-.027.025-.027.055s-.011.055-.026.055c-.014 0-.026.024-.026.054s-.012.055-.026.055c-.015 0-.026.024-.026.055 0 .03-.012.054-.027.054-.014 0-.026.025-.026.055s-.012.054-.026.054c-.014 0-.026.034-.026.076a.152.152 0 0 1-.052.115c-.03.022-.053.061-.053.088 0 .027-.012.049-.026.049-.014 0-.026.022-.026.048 0 .027-.024.067-.053.088-.028.022-.052.061-.052.088 0 .027-.012.049-.026.049-.014 0-.026.02-.026.043 0 .024-.036.078-.079.12-.043.042-.078.091-.078.11 0 .017-.036.067-.079.109-.043.042-.078.09-.078.108 0 .017-.071.103-.158.192-.086.088-.157.177-.157.197 0 .02-.023.054-.052.076-.029.021-.052.055-.052.074 0 .02.218.263.484.54l.484.505.25-.259c.136-.142.248-.273.248-.29 0-.016.035-.064.078-.106.044-.042.079-.094.079-.114 0-.021.023-.056.052-.077.029-.022.053-.056.053-.077 0-.02.047-.084.104-.142.058-.057.105-.124.105-.148 0-.023.012-.043.026-.043.014 0 .026-.024.026-.054s.012-.055.027-.055c.014 0 .026-.022.026-.048 0-.027.023-.067.052-.088.029-.022.052-.059.052-.082 0-.023.024-.06.053-.082.029-.022.052-.061.052-.088 0-.027.012-.048.026-.048.015 0 .026-.025.026-.055s.012-.055.027-.055c.014 0 .026-.037.026-.082 0-.044.012-.081.026-.081.014 0 .026-.025.026-.055s.012-.055.026-.055c.015 0 .027-.024.027-.054s.011-.055.026-.055c.014 0 .026-.024.026-.054s.012-.055.026-.055c.014 0 .026-.024.026-.054s.012-.055.026-.055c.015 0 .027-.037.027-.082 0-.045.011-.082.026-.082.014 0 .026-.037.026-.082 0-.045.012-.081.026-.081.015 0 .026-.037.026-.082 0-.046.012-.082.026-.082.015 0 .027-.037.027-.082 0-.045.012-.082.026-.082.014 0 .026-.025.026-.055s.012-.054.026-.054c.015 0 .026-.062.026-.137 0-.075.012-.136.027-.136.014 0 .026-.05.026-.11s.012-.109.026-.109c.014 0 .026-.06.026-.136 0-.075.012-.136.026-.136.015 0 .027-.082.027-.191 0-.11.01-.191.026-.191.015 0 .026-.11.026-.273 0-.164.01-.273.026-.273.017 0 .026-.173.026-.464 0-.291-.01-.464-.026-.464s-.026-.11-.026-.273c0-.164-.01-.273-.026-.273s-.026-.091-.026-.218c0-.128-.011-.219-.027-.219-.014 0-.026-.061-.026-.136 0-.075-.012-.137-.026-.137-.014 0-.026-.049-.026-.109s-.012-.109-.026-.109c-.015 0-.026-.049-.026-.11 0-.06-.012-.108-.027-.108-.014 0-.026-.037-.026-.082 0-.045-.012-.082-.026-.082-.014 0-.026-.024-.026-.055 0-.03-.012-.054-.026-.054-.015 0-.027-.037-.027-.082 0-.045-.011-.082-.026-.082-.014 0-.026-.049-.026-.11 0-.06-.012-.108-.026-.108-.015 0-.026-.025-.026-.055s-.012-.054-.027-.054c-.014 0-.026-.034-.026-.076a.151.151 0 0 0-.052-.115.152.152 0 0 1-.052-.116c0-.041-.012-.076-.027-.076-.014 0-.026-.024-.026-.054s-.012-.055-.026-.055c-.014 0-.026-.024-.026-.054s-.012-.055-.026-.055c-.015 0-.026-.024-.026-.054S45.285 28 45.27 28c-.014 0-.026-.022-.026-.049 0-.026-.023-.066-.052-.087-.029-.022-.053-.062-.053-.088 0-.027-.011-.049-.026-.049-.014 0-.026-.024-.026-.055 0-.03-.012-.054-.026-.054-.014 0-.026-.022-.026-.049 0-.026-.024-.066-.053-.087-.028-.022-.052-.057-.052-.078 0-.02-.035-.072-.079-.114-.043-.042-.078-.093-.078-.114 0-.02-.024-.055-.053-.077-.028-.021-.052-.056-.052-.077 0-.02-.035-.072-.078-.114-.044-.042-.079-.09-.079-.107 0-.018-.082-.116-.183-.22-.101-.104-.184-.202-.184-.218 0-.055-.127-.164-.188-.162-.042.001-.199.148-.512.477ZM22.92 28.207a.752.752 0 0 0-.137.178.442.442 0 0 1-.105.135c-.058.057-.105.121-.105.142 0 .02-.023.054-.052.076-.029.021-.052.061-.052.088 0 .026-.012.048-.027.048-.014 0-.026.022-.026.049 0 .027-.023.066-.052.088-.029.021-.052.061-.052.088 0 .026-.012.048-.027.048-.014 0-.026.025-.026.055s-.012.054-.026.054c-.014 0-.026.025-.026.055s-.012.055-.026.055c-.015 0-.027.024-.027.054s-.011.055-.026.055c-.014 0-.026.024-.026.054s-.012.055-.026.055c-.014 0-.026.024-.026.055 0 .03-.012.054-.026.054-.015 0-.027.025-.027.055s-.011.054-.026.054c-.014 0-.026.05-.026.11s-.012.109-.026.109c-.015 0-.026.036-.026.081 0 .046-.012.082-.026.082-.015 0-.027.05-.027.11s-.012.109-.026.109c-.014 0-.026.049-.026.109s-.012.109-.026.109c-.015 0-.026.073-.026.164 0 .09-.012.163-.027.163s-.026.119-.026.3c0 .183-.01.3-.026.3-.014 0-.026.025-.026.056 0 .03.012.054.026.054.016 0 .026.127.026.328 0 .2.01.327.026.327.015 0 .027.073.027.164 0 .09.011.164.026.164.014 0 .026.049.026.109s.012.109.026.109c.014 0 .026.049.026.11 0 .06.012.108.027.108.014 0 .026.037.026.082 0 .045.011.082.026.082.014 0 .026.037.026.082 0 .045.012.082.026.082.015 0 .026.036.026.082 0 .045.012.081.027.081.014 0 .026.025.026.055s.012.055.026.055c.014 0 .026.024.026.054s.012.055.026.055c.015 0 .026.024.026.054s.012.055.027.055c.014 0 .026.024.026.054s.012.055.026.055c.014 0 .026.025.026.055s.012.054.026.054c.015 0 .027.022.027.049 0 .027.023.066.052.088.029.021.052.058.052.082 0 .023.024.06.053.081.028.022.052.059.052.082 0 .024.024.06.052.082.03.022.053.056.053.076 0 .02.059.097.13.17a.64.64 0 0 1 .132.163c0 .016.04.072.09.125l.092.095.512-.534.512-.533-.132-.134c-.073-.074-.132-.15-.132-.17 0-.02-.023-.055-.052-.076-.03-.022-.053-.057-.053-.078 0-.02-.035-.072-.078-.114-.043-.042-.079-.096-.079-.12 0-.024-.012-.043-.026-.043-.014 0-.026-.025-.026-.055s-.012-.055-.026-.055c-.015 0-.026-.024-.026-.054s-.012-.055-.027-.055c-.014 0-.026-.024-.026-.054s-.012-.055-.026-.055c-.014 0-.026-.024-.026-.054s-.012-.055-.026-.055c-.015 0-.027-.037-.027-.082 0-.045-.011-.082-.026-.082-.014 0-.026-.037-.026-.082 0-.045-.012-.081-.026-.081-.015 0-.026-.05-.026-.11s-.012-.109-.027-.109-.026-.082-.026-.19c0-.11-.01-.192-.026-.192s-.026-.154-.026-.41c0-.254.01-.409.026-.409.015 0 .026-.081.026-.19 0-.11.011-.192.026-.192s.027-.049.027-.109.011-.109.026-.109c.014 0 .026-.037.026-.082 0-.045.012-.082.026-.082.015 0 .026-.037.026-.082 0-.045.012-.081.027-.081.014 0 .026-.025.026-.055s.012-.055.026-.055c.014 0 .026-.024.026-.054s.012-.055.026-.055c.015 0 .026-.024.026-.054s.012-.055.027-.055c.014 0 .026-.024.026-.055 0-.03.012-.054.026-.054.014 0 .026-.022.026-.049 0-.026.024-.066.053-.088.028-.021.052-.058.052-.081 0-.024.024-.06.052-.082.03-.022.053-.056.053-.076 0-.02.07-.109.157-.197a.885.885 0 0 0 .157-.19c0-.043-.963-1.039-1.001-1.036a.7.7 0 0 0-.17.15Zm18.719.356c-.263.276-.478.515-.478.531 0 .016.07.101.157.19.087.088.157.177.157.197 0 .02.024.054.053.076.028.021.052.058.052.082 0 .023.023.06.052.081.03.022.053.062.053.088 0 .027.011.049.026.049.014 0 .026.024.026.054s.012.055.026.055c.015 0 .026.025.026.055s.012.054.027.054c.014 0 .026.025.026.055s.011.054.026.054c.014 0 .026.025.026.055s.012.055.026.055c.015 0 .026.036.026.081 0 .045.012.082.027.082.014 0 .026.037.026.082 0 .045.012.082.026.082.014 0 .026.05.026.11s.012.108.026.108c.015 0 .026.073.026.164 0 .091.012.164.027.164.016 0 .026.164.026.436 0 .273-.01.437-.026.437-.015 0-.027.082-.027.191 0 .11-.01.191-.026.191-.014 0-.026.05-.026.11s-.012.109-.026.109c-.014 0-.026.036-.026.081 0 .045-.012.082-.026.082-.015 0-.026.037-.026.082 0 .045-.012.082-.027.082-.014 0-.026.025-.026.055s-.012.054-.026.054c-.015 0-.026.025-.026.055s-.012.054-.026.054c-.015 0-.027.025-.027.055s-.011.054-.026.054c-.014 0-.026.025-.026.055s-.012.055-.026.055c-.015 0-.026.02-.026.043 0 .024-.036.078-.079.12-.043.043-.078.094-.078.114 0 .021-.024.056-.053.078-.029.021-.052.055-.052.076 0 .02-.06.096-.132.17l-.132.134.512.533.512.534.091-.095a.384.384 0 0 0 .091-.125.64.64 0 0 1 .131-.163c.072-.073.131-.15.131-.17 0-.02.024-.054.052-.076.03-.021.053-.058.053-.082 0-.023.023-.06.052-.082.029-.021.053-.058.053-.081 0-.024.023-.06.052-.082.029-.022.052-.061.052-.088 0-.027.012-.049.026-.049.015 0 .027-.024.027-.054s.011-.055.026-.055c.014 0 .026-.025.026-.055s.012-.054.026-.054c.015 0 .026-.025.026-.055s.012-.054.026-.054c.015 0 .027-.025.027-.055s.011-.054.026-.054c.014 0 .026-.025.026-.055s.012-.054.026-.054c.015 0 .026-.037.026-.082 0-.046.012-.082.027-.082.014 0 .026-.037.026-.082 0-.045.012-.082.026-.082.014 0 .026-.037.026-.082 0-.045.012-.082.026-.082.015 0 .026-.049.026-.109s.012-.11.027-.11c.014 0 .026-.048.026-.108s.012-.11.026-.11c.015 0 .026-.072.026-.163 0-.091.012-.164.026-.164.016 0 .027-.127.027-.327s.01-.328.026-.328c.014 0 .026-.024.026-.055 0-.03-.012-.054-.026-.054-.016 0-.026-.118-.026-.3s-.01-.3-.027-.3c-.014 0-.026-.073-.026-.164 0-.091-.011-.164-.026-.164-.014 0-.026-.05-.026-.11s-.012-.108-.026-.108c-.015 0-.026-.05-.026-.11s-.012-.109-.027-.109c-.014 0-.026-.037-.026-.082 0-.045-.012-.081-.026-.081-.014 0-.026-.05-.026-.11s-.012-.109-.026-.109c-.015 0-.027-.024-.027-.054s-.011-.055-.026-.055c-.014 0-.026-.024-.026-.055 0-.03-.012-.054-.026-.054-.014 0-.026-.025-.026-.055s-.012-.054-.027-.054c-.014 0-.026-.025-.026-.055s-.011-.054-.026-.054c-.014 0-.026-.025-.026-.055s-.012-.055-.026-.055c-.015 0-.026-.024-.026-.054s-.012-.055-.026-.055c-.015 0-.027-.022-.027-.048 0-.027-.023-.067-.052-.088-.029-.022-.052-.061-.052-.088 0-.027-.012-.049-.027-.049-.014 0-.026-.021-.026-.048s-.023-.067-.052-.088c-.029-.022-.053-.056-.053-.076 0-.02-.047-.085-.104-.142a.444.444 0 0 1-.105-.135c0-.044-.28-.33-.32-.327-.018.001-.248.228-.511.505Zm-8.75 13.275c0 .015.02.027.046.027.025 0 .063.025.084.055.02.03.053.054.073.054.047 0 .163.125.163.176 0 .023.011.043.026.043.014 0 .026.024.026.054s.012.055.026.055c.016 0 .026.116.026.294 0 .263-.005.298-.052.333-.029.022-.052.056-.052.075 0 .047-.172.226-.216.226-.019 0-.052.024-.072.054a.14.14 0 0 1-.11.055c-.04 0-.074.012-.074.027s-.07.027-.157.027-.157-.012-.157-.027-.032-.027-.072-.027a.14.14 0 0 1-.11-.055c-.022-.03-.054-.054-.073-.054-.045 0-.216-.179-.216-.225 0-.02-.023-.054-.052-.076-.047-.035-.053-.07-.053-.333 0-.178.01-.294.027-.294.014 0 .026-.025.026-.055s.011-.054.026-.054c.014 0 .026-.02.026-.043 0-.051.116-.176.163-.176.02 0 .052-.024.073-.054.02-.03.058-.055.084-.055.026 0 .047-.012.047-.027 0-.017.104-.028.261-.028.157 0 .262.011.262.028Z" fill="#FAFAFA"/><path d="M32 63c17.12 0 31-13.88 31-31C63 14.88 49.12 1 32 1 14.88 1 1 14.88 1 32c0 17.12 13.88 31 31 31Zm23.915-50.272-45.09 42.586" stroke="red" stroke-width="2"/></svg>