<svg width="41" height="44" fill="none" xmlns="http://www.w3.org/2000/svg"><path fill-rule="evenodd" clip-rule="evenodd" d="M12.504 2.038c-.295.018-.437.047-.592.123-.273.133-.632.5-.772.785-.102.21-.116.296-.149.877-.02.355-.036.825-.037 1.044l-.002.398H12.584l.011-.827.011-.826h26.733l.01 14.184.01 14.184-3.232.03-3.233.03-.409.209c-.748.384-1.31 1.07-1.413 1.728-.027.172-.053 1.469-.067 3.331l-.023 3.05H12.585V30.36h-1.642l.03 5.214.028 5.213.156.265c.183.31.414.543.755.76l.244.156 10.22.016L32.595 42l4.202-4.197L41 33.605l-.027-15.22-.027-15.218-.15-.246c-.213-.352-.386-.528-.721-.737L39.78 2l-13.444.007c-7.395.004-13.62.018-13.832.03Zm5.55 3.349c-.74.06-1.866.334-2.836.692-1.02.375-2.373 1.145-3.227 1.838a13.01 13.01 0 0 0-2.167 2.306c-1.098 1.552-1.875 3.518-2.062 5.223-.084.767-.072 2.705.02 3.264.236 1.439.688 2.74 1.38 3.973l.33.586-3.568 3.577c-4.935 4.948-4.887 4.89-4.92 5.76-.021.524.053.914.257 1.342.242.51.898 1.08 1.418 1.232.072.022.416.039.764.04.742 0 .957-.05 1.256-.285.416-.329 1.802-1.675 4.994-4.851l3.293-3.277.748.383c1.275.652 2.486 1.084 3.565 1.273.821.144 2.963.154 3.862.018.395-.059 1.17-.254 1.72-.431a11.7 11.7 0 0 0 5.7-4.055 11.595 11.595 0 0 0 2.203-8.937c-.505-3.043-2.264-5.827-4.812-7.617-1.555-1.093-3.575-1.86-5.286-2.009-.706-.061-2.133-.086-2.632-.045Zm2.918 1.711c3.63.632 6.69 3.265 7.832 6.738.37 1.124.474 1.792.474 3.05 0 1.59-.225 2.782-.762 4.044-.483 1.134-1.155 2.091-2.194 3.127-1.31 1.305-2.65 2.088-4.472 2.612-.787.226-1.132.264-2.414.264-1.679 0-2.14-.064-3.3-.456a9.956 9.956 0 0 1-3.899-2.419 10.186 10.186 0 0 1-2.653-4.656c-.216-.844-.279-1.38-.28-2.405 0-1.25.1-1.921.448-3 .79-2.454 2.4-4.462 4.595-5.729 1.123-.648 2.78-1.17 4.013-1.265.112-.009.636-.01 1.163-.003.744.01 1.07.032 1.45.098ZM18.727 8.73c-.919.09-1.642.524-2.133 1.282-.361.557-.455.964-.46 1.986-.003.8-.046 1.072-.195 1.243-.158.179-.188.342-.157.834.042.662.232 1.191.601 1.677.094.123.299.49.455.816.155.325.353.702.44.837.252.395.252.397-.069.582-.405.234-1.455.79-2.481 1.314-1.011.517-1.301.707-1.623 1.062-.235.26-.747 1.147-.713 1.235.053.137.664.872 1.028 1.237 1.296 1.3 2.906 2.1 4.764 2.364.559.08 1.665.078 2.243-.003a8.302 8.302 0 0 0 4.178-1.862 8 8 0 0 0 1.526-1.682l.248-.364-.173-.324a3.187 3.187 0 0 0-.906-1.03 8.87 8.87 0 0 0-.883-.494c-1.432-.71-2.957-1.542-2.99-1.629-.021-.053 0-.094.295-.589.099-.164.247-.469.33-.677a5.41 5.41 0 0 1 .399-.76c.316-.49.426-.712.555-1.12.198-.628.184-1.168-.036-1.387-.159-.16-.181-.236-.183-.614-.002-.62-.075-1.574-.14-1.83a3.96 3.96 0 0 0-.232-.591c-.136-.278-.239-.416-.52-.698-.605-.604-1.107-.782-2.33-.828a7.92 7.92 0 0 0-.838.013ZM14.34 31.177v.816h9.918v-1.632H14.34v.816Zm0 3.305v.776h9.918V33.707H14.34v.775Zm0 3.346v.817h9.918v-1.633H14.34v.816Z" fill="#fff"/></svg>