<svg width="24" height="24" viewBox="0 0 24 24" fill="none" xmlns="http://www.w3.org/2000/svg"><path fill-rule="evenodd" clip-rule="evenodd" d="M7.253.052c-.249.083-1.367.779-2.067 1.286C3.7 2.416 3.136 3.26 3.136 4.412c0 .548.107 1.115.482 2.537.259.984.467 1.61 1.037 3.118 1.053 2.786 2.085 4.543 3.75 6.38.598.66 1.622 1.627 2.466 2.326.4.333 2.664 1.838 3.684 2.45 2.006 1.203 3.14 1.552 4.185 1.286.58-.148 1.237-.536 2.132-1.261.757-.614 1.573-1.32 1.615-1.398.142-.266.154-.695.032-1.1-.132-.435-.482-1.054-.905-1.598-.747-.96-1.878-2.024-2.755-2.591-.335-.217-.486-.28-.664-.281-.549 0-1.37.676-2.072 1.708-.247.363-.592 1-.772 1.427a5.598 5.598 0 0 1-.128.291c-.016.017-.587-.31-1.01-.579-2.01-1.277-3.677-3.001-4.99-5.162a18.195 18.195 0 0 1-1.285-2.62c-.254-.667-.545-1.613-.517-1.683.007-.019.125-.057.275-.09.145-.031.478-.116.74-.19 1.577-.439 2.638-1.014 2.931-1.59.078-.154.086-.188.084-.378-.002-.204-.006-.218-.206-.674-.938-2.138-1.65-3.346-2.418-4.106C8.287.1 7.73-.106 7.253.052Zm3.973.737a4.988 4.988 0 0 0-.387.03c-.005.005.059.112.141.239.16.245.494.815.588 1.003l.056.113.598.015c.668.016.925.038 1.497.128 4.3.678 7.767 3.918 8.621 8.056a9.93 9.93 0 0 1-.175 4.735c-.05.166-.09.316-.09.333 0 .017.137.19.304.384.168.194.398.482.513.64.114.157.216.286.225.287.04.004.382-.979.515-1.48.261-.988.368-1.828.368-2.891 0-.865-.058-1.456-.218-2.24-.552-2.696-2.061-5.098-4.29-6.827a14.18 14.18 0 0 0-1.506-1c-2.054-1.14-4.364-1.662-6.76-1.525ZM1.73 6.374a11.33 11.33 0 0 0-1.671 4.77A14.658 14.658 0 0 0 .02 13.18a11.156 11.156 0 0 0 1.204 4.32c1.554 3.063 4.436 5.32 7.848 6.15 1.61.39 3.279.455 4.927.19.455-.072 1.382-.29 1.607-.377l.076-.029-.227-.103a16.27 16.27 0 0 1-1.254-.663l-.392-.226-.33.045a9.843 9.843 0 0 1-1.706.089 10.36 10.36 0 0 1-2.876-.439c-2.162-.64-4.156-2.033-5.482-3.832a10.348 10.348 0 0 1-1.43-2.715 9.98 9.98 0 0 1-.213-5.707c.107-.411.345-1.093.51-1.464l.14-.314-.16-.604a54.786 54.786 0 0 1-.252-.997 8.35 8.35 0 0 0-.1-.4 2.63 2.63 0 0 0-.18.27Z" fill="#fff"/></svg>