<svg width="45" height="45" viewBox="0 0 45 45" fill="none" xmlns="http://www.w3.org/2000/svg"><path fill-rule="evenodd" clip-rule="evenodd" d="M4.45 1.258c-.67.692-1.944 1.996-2.833 2.898L0 5.797.018 21.66l.019 15.864 8.35.018 8.352.018V45H45V7.512H28.261V0H5.667L4.45 1.258Zm20.785.857c.875.078.812-.136.837 2.848l.022 2.549h-9.355v.637l-5.851.018-5.852.018-.02.762-.02.762h11.743v1.797c0 2.087.017 2.035-.755 2.392l-.44.204H5v1.56h8.704l-.329.442c-1.016 1.369-1.521 2.334-1.826 3.49-.112.425-.22.68-.323.762-.142.114-.407.124-3.193.124H4.995l.02.762.021.762 2.952.018 2.951.019.108.204c.06.112.141.545.181.961.084.857.11.966.553 2.347.176.55.32 1.02.32 1.046 0 .025-1.597.047-3.55.047h-3.55v1.417h3.83c2.108 0 3.942.021 4.075.047.185.037.431.239 1.032.848.616.625.986.927 1.686 1.375.493.316.946.643 1.006.727.091.128.11.492.11 2.228v2.074H2.246V6.754l.216-.293c.283-.382 4.082-4.197 4.295-4.312.127-.07 2.072-.088 9.04-.086 4.882.001 9.128.025 9.437.052ZM42.59 9.738l.163.058v33.149l-11.178.017-11.701.018c-.476 0-.542-.017-.725-.196l-.2-.197-.02-5.49c-.011-3.18.008-5.49.045-5.49.036 0 .224.07.418.158.316.14.466.157 1.404.154 1.37-.004 2.49-.172 3.551-.532.458-.156.884-.29.946-.298.064-.008.777.649 1.62 1.492l1.508 1.506h-6.683v1.488h8.019l.327.212c.18.116 1.074.94 1.987 1.833 1.75 1.708 1.99 1.886 2.833 2.101 1.433.365 3.042-.289 3.7-1.503.329-.609.453-1.1.453-1.797 0-.719.043-.78.582-.83l.36-.034v-1.492l-.689.044c-1.322.085-1.175.17-3.321-1.92-1.733-1.687-2.44-2.45-2.44-2.635 0-.05 1.036-.074 3.225-.074H40v-1.488l-4.076-.002c-3.06-.002-4.115-.024-4.232-.089-.087-.047-.487-.4-.891-.783l-.734-.698.213-.543c.289-.736.495-1.442.584-1.995.124-.77-.291-.709 4.76-.709H40v-1.482l-4.366-.024c-2.401-.014-4.44-.05-4.529-.083-.141-.05-.163-.108-.163-.434 0-.461-.356-1.84-.658-2.55a7.2 7.2 0 0 0-.506-.952l-.282-.427H40v-1.56H28.484l-.383-.319c-.791-.659-1.924-1.458-2.454-1.73-.66-.34-1.624-.665-2.585-.87-.793-.169-2.214-.21-3.442-.1l-.707.064V9.63l11.757.025c6.467.014 11.831.05 11.92.082Zm-19.982 4.5c2.33.505 4.165 1.699 5.398 3.51.738 1.085 1.248 2.477 1.33 3.635.134 1.883-.184 3.362-1.04 4.831l-.265.454 4.563 4.436c3.135 3.047 4.605 4.524 4.698 4.719.088.185.135.444.135.75 0 .395-.034.519-.22.813a1.85 1.85 0 0 1-.574.561c-.308.186-.424.214-.868.214-.428 0-.568-.032-.85-.194-.194-.111-1.097-.956-2.123-1.986a355.421 355.421 0 0 0-4.468-4.37l-2.683-2.578-.919.434c-.971.458-1.366.579-2.476.754-1.633.259-3.072.028-4.825-.773-.897-.41-1.452-.803-2.17-1.536-1.248-1.273-1.954-2.544-2.286-4.116-.212-1.004-.17-2.532.1-3.528.398-1.477 1.078-2.638 2.185-3.728 1.072-1.056 2.42-1.828 3.811-2.183.917-.235.912-.234 1.989-.243.682-.006 1.112.028 1.558.125Zm-1.894 1.913c-.146.116-.177.216-.208.688l-.036.553-.555.184c-.625.207-1.029.455-1.41.869-.42.453-.569.848-.57 1.505 0 .5.027.625.237 1.042.345.686.898 1.07 2.364 1.641 1.325.516 1.724.851 1.724 1.445 0 .467-.5.9-1.123.973-.45.053-1.475-.054-2.03-.212-.356-.1-.429-.102-.655-.01-.57.233-.637.982-.123 1.37.158.118 1.113.36 1.652.417l.453.048v.448c0 .524.093.763.337.872.283.126.457.093.683-.128.197-.192.212-.246.212-.739v-.53l.489-.158c1.107-.356 1.68-.783 2.017-1.502.181-.386.208-.528.21-1.116 0-.545-.029-.737-.157-1.008-.324-.687-1.004-1.145-2.767-1.866-1.245-.508-1.623-.932-1.34-1.498.302-.602.84-.738 2.2-.556.849.114.939.115 1.146.01.478-.242.448-1.026-.048-1.277-.12-.06-.497-.154-.838-.207-.34-.054-.669-.138-.73-.187-.073-.06-.11-.216-.11-.474 0-.314-.033-.416-.178-.558a.664.664 0 0 0-.846-.039Z" fill="#fff"/></svg>