<svg width="168" height="49" viewBox="0 0 168 49" fill="none" xmlns="http://www.w3.org/2000/svg"><path fill-rule="evenodd" clip-rule="evenodd" d="m36.26 4.076 8.716.235c-3.331 8.076-5.822 16.085-7.874 24.666l11.44-.37-2.287 6.965c-6.562.337-13.09.64-19.652.942 2.524-10.801 5.451-21.401 9.658-32.438ZM6.615 4.21l27.256-.773-1.884 6.326-14.84.168-1.985 6.191 13.292-.336-1.548 5.822c-4.778.134-10.432.437-13.292.437-.336 0-1.447 4.038-2.12 6.663 4.341-.27 12.417-.539 14.84-.539l-1.75 6.26L.894 35.47c1.851-8.278 4.341-16.555 7.47-24.8l-3.532.202L6.615 4.21Zm71.069-.942 8.21.034c-4.172 10.398-6.259 20.493-8.917 31.227l-8.514-.135c1.01-3.634 1.818-7.2 2.693-10.767h-11.61a175.643 175.643 0 0 0-3.5 12.08l-8.48-.135c2.861-10.465 6.091-20.964 10.97-31.462l8.211.067a352.933 352.933 0 0 0-4.98 12.921h11.037c1.245-4.576 2.726-9.186 4.88-13.83Zm5.014 18.844C84.01 5.725 96.124 1.552 100.8 1.182c4.678-.404 6.596-.303 9.22.37 6.259 1.582 12.35 9.59 11.845 16.118-.942 11.845-13.157 19.988-23.05 19.282-5.384-.37-7.37-.471-12.72-2.76l2.39-8.513c6.023 2.928 8.816 3.769 15.546 2.995 3.903-.471 10.128-5.25 8.984-13.19-1.11-3.097-3.701-8.413-11.171-6.73-5.183 1.143-9.22 5.686-8.884 13.358H82.698Z" fill="#fff"/><path d="M89.562 48.056c3.383 0 6.125-2.154 6.125-4.812 0-2.657-2.742-4.812-6.125-4.812-3.382 0-6.124 2.155-6.124 4.812 0 2.658 2.742 4.812 6.124 4.812Z" fill="#fff"/><path fill-rule="evenodd" clip-rule="evenodd" d="m124.154 4.883 8.312.101-.438 20.224 8.85-15.109V5.39l8.648-.135-.134 18.271 9.926-20.391H168L153.261 32.88l-12.013.909-.303-10.465-6.528 11.037-11.542.202 1.279-29.68Z" fill="#fff"/></svg>