<svg width="51" height="40" viewBox="0 0 51 40" fill="none" xmlns="http://www.w3.org/2000/svg"><path fill-rule="evenodd" clip-rule="evenodd" d="M20.152.027c-.28.073-.544.236-1.362.844-.436.325-.885.65-.998.724-.158.104-1.981.6-8.103 2.205-4.345 1.139-7.997 2.117-8.117 2.175-.445.212-.786.772-.786 1.291 0 .112.368 1.358.85 2.878.466 1.474.848 2.693.848 2.708 0 .015-.353.29-.784.611-.432.322-.871.686-.976.81-.38.444-.352-.633-.337 12.647L.4 38.865l.12.242c.156.32.448.614.76.768l.252.125h19.015c18.492 0 19.02-.003 19.195-.097.368-.198.61-.443.782-.793l.17-.346V28.492l-.605-.014-.605-.015v4.652c0 4.272-.006 4.649-.083 4.62-.046-.019-2.838-1.846-6.205-4.062s-6.198-4.06-6.29-4.1c-.374-.156-.801.147-.801.568 0 .143.036.267.102.352.057.072 2.886 1.962 6.286 4.2l6.183 4.069-9.06.013c-4.983.007-13.151.007-18.15 0l-9.09-.014 6.113-4.019c3.363-2.21 6.17-4.068 6.237-4.128.29-.259.313-.645.053-.906a.54.54 0 0 0-.613-.136c-.1.035-2.956 1.891-6.35 4.125C4.425 35.931 1.64 37.75 1.63 37.74c-.011-.01-.014-4.932-.007-10.936l.013-10.916 9.212 5.826c5.082 3.214 9.248 5.817 9.294 5.806.045-.011 2.859-1.738 6.252-3.837 3.394-2.1 6.714-4.149 7.38-4.553.664-.404 1.301-.8 1.415-.877.298-.207 4.231-2.636 4.267-2.636.016 0 .03 1.776.03 3.948v3.947h1.238l-.015-4.296c-.013-4.004-.02-4.31-.107-4.502-.204-.456-.36-.599-1.882-1.72l-1.588-1.171c-.059-.044-.04-.17.112-.73.213-.787.217-.844.081-1.123-.185-.38-.251-.402-2.332-.775l-1.893-.34-1.336-.984c-.734-.542-1.346-1.002-1.359-1.023-.013-.021-.116-.726-.229-1.566-.119-.886-.238-1.593-.284-1.682a.83.83 0 0 0-.557-.4c-.141-.023-2.657.18-3.307.265-.203.027-.239.004-2.419-1.605-1.217-.9-2.31-1.678-2.431-1.732-.244-.112-.78-.164-1.026-.1Zm1.356 1.827c1.941 1.421 2.384 1.756 2.357 1.783-.045.046-3.958.416-3.992.378-.017-.02-.108-.337-.203-.706-.095-.369-.236-.792-.314-.942l-.142-.27.268-.198.595-.439c.18-.132.38-.24.446-.24.07 0 .47.256.985.634Zm-3.241 1.081c.097.15.361 1.235.305 1.252-.032.01-.312.043-.624.075-1.017.104-3.138.36-3.854.466-1.456.214-1.894.353-2.036.646-.041.085-.082.317-.09.516-.01.198.223 3.81.516 8.024.293 4.215.528 7.67.522 7.678-.009.013-7.995-5.024-8.046-5.075-.048-.048-2.94-9.241-2.927-9.306a.222.222 0 0 1 .092-.121c.093-.059 15.826-4.205 15.988-4.214.061-.003.131.024.154.06Zm10.606 1.91c.185 1.285.44 3.29.42 3.307-.013.012-1.297-.208-2.854-.488-1.556-.28-2.875-.51-2.93-.51-.181 0-.538.211-.643.382-.085.137-.366 1.876-1.502 9.298a2081.05 2081.05 0 0 1-1.411 9.146c-.01.012-5.53-3.453-5.627-3.533-.03-.023-1.143-16.285-1.118-16.31.077-.078 2.694-.42 5.41-.71 2.817-.3 9.523-.941 9.938-.95l.264-.006.053.374ZM17.097 7.252c-1.484.122-1.695.15-1.852.25-.404.251-.428.41-.273 1.807.15 1.35.208 1.52.586 1.69.213.097.237.096 2.152-.046 1.065-.079 2.022-.166 2.127-.192a.896.896 0 0 0 .345-.204c.263-.264.274-.406.131-1.62-.157-1.339-.157-1.338-.317-1.528-.301-.36-.385-.364-2.899-.157Zm-8.463-.008c-.057.013-.775.207-1.595.431-1.461.4-1.497.412-1.682.609-.33.349-.324.417.163 1.887.466 1.405.527 1.513.917 1.63.195.06.338.04 1.662-.226.796-.16 1.52-.332 1.609-.383.095-.054.213-.196.287-.347l.127-.255-.289-1.441c-.2-1.002-.32-1.482-.389-1.576-.175-.236-.547-.387-.81-.329Zm21.459 2.33c5.534.995 5.968 1.08 5.952 1.172-.025.145-1.75 6.584-1.768 6.599a902.9 902.9 0 0 1-5.29 3.213 1709.8 1709.8 0 0 0-5.145 3.127c-1.372.838-2.499 1.52-2.503 1.514-.005-.005.567-3.76 1.27-8.344.704-4.583 1.28-8.34 1.282-8.346.004-.043.793.093 6.202 1.065Zm-4.611 1.205c-.25.167-.426.543-.38.816.035.212.255.519.444.62.105.056 7.468 1.08 7.769 1.08.353 0 .71-.347.75-.73.03-.287-.146-.647-.381-.782-.127-.073-1.052-.218-3.886-.608-2.045-.282-3.814-.512-3.93-.512a.722.722 0 0 0-.386.116Zm12.295 3.057c.538.398.968.734.955.747-.044.043-2.875 1.793-2.888 1.784-.007-.005.159-.646.368-1.425l.44-1.638c.033-.122.079-.215.102-.206.024.009.484.341 1.023.738Zm-12.83.02c-.57.353-.553 1.125.03 1.428.195.101 7.477 1.125 7.7 1.082.197-.037.452-.24.557-.443a.92.92 0 0 0 0-.715c-.1-.193-.35-.4-.528-.438-.38-.08-7.171-1.01-7.373-1.01a.818.818 0 0 0-.386.095Zm-21.846.918c.114.359.2.66.19.67-.017.017-1.048-.624-1.134-.705-.032-.03.628-.591.724-.616.006-.001.105.292.22.65Zm21.276 2.392c-.405.201-.565.77-.318 1.135.236.348.245.35 2.336.675 1.072.167 2.053.304 2.18.304.405 0 .725-.289.798-.724.058-.342-.19-.768-.51-.873-.173-.057-3.936-.62-4.148-.62a.99.99 0 0 0-.338.103Zm21.125 4.4c-.203.137-.333.433-.282.641.023.095.544.656 1.536 1.654l1.5 1.51H30.84v1.238h8.697c4.783 0 8.697.017 8.697.038 0 .021-.677.718-1.505 1.549-1.505 1.509-1.506 1.51-1.506 1.73 0 .279.132.487.373.587.4.168.371.191 2.575-2.012 1.328-1.327 2.056-2.092 2.123-2.231.2-.413.242-.357-2-2.615-1.12-1.128-2.11-2.085-2.201-2.129-.228-.108-.388-.098-.59.04Z" fill="#fff"/></svg>