<svg width="113" height="20" viewBox="0 0 113 20" fill="none" xmlns="http://www.w3.org/2000/svg">
<g clip-path="url(#clip0_470_16544)">
<path fill-rule="evenodd" clip-rule="evenodd" d="M9.71027 0.0248715C9.69659 0.0386445 9.48069 0.0601882 9.23045 0.0727941C8.77769 0.0956047 8.46038 0.131821 8.14311 0.196985C8.05159 0.215794 7.90182 0.245707 7.8103 0.263482C7.5711 0.30997 7.4031 0.351323 7.19459 0.415019C7.09391 0.445767 6.95912 0.485819 6.89506 0.504027C6.83099 0.522203 6.71118 0.564522 6.62881 0.598038C6.54643 0.631587 6.39667 0.692448 6.29599 0.733267C5.96417 0.867829 5.64907 1.00556 5.51388 1.07509C4.83044 1.42666 3.93796 2.00662 3.64386 2.29032C3.60239 2.33034 3.51236 2.40538 3.4438 2.45707C3.28215 2.57896 2.47984 3.3829 2.35819 3.54487C2.30661 3.61357 2.23172 3.70378 2.19179 3.74533C1.81081 4.14188 0.989059 5.51005 0.751197 6.14378C0.634978 6.45349 0.328222 7.35994 0.302429 7.46999C0.287386 7.53419 0.258498 7.65424 0.238196 7.73678C0.0631021 8.44911 0 9.05883 0 10.0379C0 11.0135 0.0648664 11.6421 0.236665 12.3306C0.256135 12.4085 0.285322 12.5286 0.30153 12.5974C0.37242 12.898 0.447669 13.121 0.757586 13.9486C0.831205 14.1453 1.19624 14.8639 1.36281 15.1402C1.63169 15.5862 2.01483 16.1432 2.16127 16.3012C2.18443 16.3261 2.24434 16.4011 2.29439 16.4678C2.41258 16.6252 3.34965 17.5641 3.50674 17.6826C3.57327 17.7327 3.64808 17.7927 3.67301 17.816C3.8306 17.9627 4.38653 18.3466 4.83161 18.616C5.1101 18.7846 5.82755 19.1501 6.02082 19.2219C6.08981 19.2475 6.2286 19.3018 6.32927 19.3424C6.80839 19.5361 7.49878 19.7402 7.71045 19.7507L7.87686 19.759L7.8935 15.1569L7.91014 10.5548L7.9818 10.4214C8.09642 10.2079 8.23727 10.1033 8.56346 9.98953C8.67269 9.95141 8.85886 9.93864 9.31112 9.9383C9.85192 9.93784 9.91898 9.93157 9.96843 9.87681C10.0192 9.82065 10.0235 9.4318 10.0235 4.96303C10.0235 0.304068 10.0211 0.108043 9.96264 0.0550521C9.89991 -0.00184095 9.75407 -0.0192824 9.71027 0.0248715ZM11.2686 0.157666C11.2286 0.197785 11.2216 0.977481 11.2216 5.43975C11.2216 11.1887 11.2379 10.7506 11.0165 10.9597C10.773 11.1895 10.7031 11.2051 9.91352 11.2051C9.2663 11.2051 9.19681 11.2106 9.14672 11.2661C9.09606 11.3221 9.09163 11.6729 9.09163 15.6306C9.09163 19.261 9.09886 19.9403 9.13783 19.9727C9.19614 20.0212 11.0266 20.0004 11.3714 19.9473C11.8703 19.8705 12.0091 19.8461 12.1535 19.8101C12.2359 19.7895 12.3632 19.7577 12.4364 19.7393C12.5096 19.721 12.622 19.6935 12.686 19.6782C12.8439 19.6406 13.5694 19.3962 13.7344 19.3251C13.8076 19.2935 13.9724 19.2225 14.1005 19.1673C14.2286 19.1121 14.3709 19.0458 14.4167 19.0201C14.4624 18.9944 14.6334 18.9048 14.7966 18.8211C15.1748 18.6272 16.0906 18.0179 16.3075 17.816C16.3324 17.7927 16.4072 17.7327 16.4737 17.6826C16.5403 17.6324 16.8348 17.351 17.1281 17.0574C17.8393 16.3454 18.3275 15.6994 18.7784 14.8734C19.0004 14.4667 19.0576 14.3519 19.1689 14.0897C19.2234 13.9613 19.2938 13.7963 19.3253 13.7229C19.3991 13.5509 19.6412 12.8266 19.6792 12.6641C19.7084 12.5391 19.7433 12.3974 19.8108 12.1305C19.8513 11.9703 19.8945 11.7127 19.9466 11.3218C19.9661 11.175 19.9821 10.5973 19.9821 10.0379C19.9821 9.47842 19.9661 8.90066 19.9466 8.75392C19.8945 8.36301 19.8513 8.10539 19.8108 7.94521C19.7911 7.86728 19.7607 7.74722 19.7432 7.67842C19.7258 7.60966 19.6975 7.49334 19.6805 7.41997C19.6017 7.08111 19.4057 6.50608 19.2372 6.11937C19.0381 5.66252 18.8334 5.24873 18.6844 5.00218C18.4949 4.68864 18.0137 3.96663 17.9545 3.90711C17.9302 3.88259 17.8693 3.80766 17.8192 3.7406C17.7691 3.67353 17.6955 3.58512 17.6556 3.54417C17.6156 3.50319 17.5407 3.41341 17.4891 3.34468C17.3675 3.18257 16.8972 2.71158 16.7348 2.58916C16.6652 2.53674 16.5607 2.4467 16.5025 2.38907C16.2288 2.11804 15.3194 1.48848 14.8647 1.25531C14.7006 1.1712 14.529 1.08143 14.4832 1.05582C14.0395 0.807568 13.1943 0.498091 12.4198 0.300366C12.3374 0.279322 12.224 0.248142 12.1678 0.231034C12.1116 0.213959 12.0095 0.199953 11.941 0.199953C11.8724 0.199953 11.7911 0.186813 11.7603 0.170739C11.6544 0.115613 11.3195 0.106709 11.2686 0.157666ZM27.0636 3.70038C27.0362 3.71882 26.9688 3.73436 26.9139 3.73489C26.6313 3.73773 26.0314 4.05728 25.749 4.35538C25.4951 4.62337 25.2814 5.06758 25.1892 5.51909C25.1386 5.7668 25.1204 15.3679 25.1704 15.4283C25.222 15.4906 27.4943 15.4957 27.5562 15.4337C27.5869 15.403 27.5961 14.3766 27.5961 11.0169C27.5961 8.50794 27.6087 6.6324 27.6257 6.62193C27.6737 6.59215 27.721 6.68426 28.1286 7.60339C28.2019 7.76846 28.3217 8.03859 28.3949 8.20367C28.4681 8.36874 28.5879 8.63887 28.6611 8.80394C28.7344 8.96902 28.8542 9.23915 28.9274 9.40422C29.2544 10.1415 29.3255 10.303 29.4266 10.5381C29.5277 10.7732 29.5988 10.9347 29.9258 11.6719C29.9991 11.837 30.1189 12.1071 30.1921 12.2722C30.2653 12.4373 30.3851 12.7074 30.4583 12.8725C30.5316 13.0376 30.6514 13.3077 30.7246 13.4728C31.1719 14.4813 31.283 14.6707 31.6266 15.0102C31.7909 15.1725 31.9429 15.2835 32.1333 15.3799C32.483 15.5571 32.5861 15.5808 33.0785 15.5973C33.4609 15.6101 33.5026 15.605 33.7695 15.5128C34.5198 15.2536 34.8753 14.8552 35.3515 13.7396C35.4517 13.505 35.5163 13.358 35.8499 12.6057C35.9232 12.4406 36.043 12.1705 36.1162 12.0054C36.1894 11.8404 36.3092 11.5702 36.3824 11.4052C36.4557 11.2401 36.5755 10.9699 36.6487 10.8049C36.9757 10.0676 37.0468 9.90612 37.1479 9.67101C37.249 9.4359 37.3201 9.27443 37.6471 8.53715C37.7204 8.37208 37.8402 8.10195 37.9134 7.93688C38.1542 7.39399 38.3196 7.02248 38.4009 6.8422C38.4468 6.74032 38.4982 6.67042 38.5216 6.67826C38.5534 6.68886 38.5642 7.64567 38.5708 11.0378C38.5769 14.1823 38.5896 15.3962 38.6165 15.4288C38.6678 15.4906 40.9404 15.4953 41.0019 15.4337C41.052 15.3835 41.0605 5.75176 41.0106 5.58815C40.9934 5.53183 40.9398 5.35631 40.8915 5.19814C40.8066 4.91998 40.5438 4.46623 40.3631 4.28595C40.2075 4.13074 39.766 3.87032 39.5278 3.79332C39.104 3.65629 38.4534 3.65629 38.0296 3.79332C37.884 3.84038 37.5867 3.99505 37.415 4.11297C37.0724 4.34844 36.643 4.8949 36.4539 5.33624C36.4108 5.43682 36.3189 5.64665 36.2497 5.80255C36.1267 6.07968 36.0099 6.34917 35.8086 6.81969C35.7537 6.94808 35.6638 7.15818 35.6089 7.28657C35.554 7.41497 35.466 7.62133 35.4133 7.74512C35.221 8.19683 35.1074 8.45975 34.9846 8.73725C34.8478 9.04646 34.6667 9.46709 34.3563 10.1963C34.0585 10.8959 33.8745 11.3227 33.7199 11.6719C33.651 11.8278 33.5479 12.0642 33.4908 12.1972C33.1841 12.9122 33.1369 13.0059 33.0832 13.0059C33.0537 13.0059 32.954 12.8036 32.7585 12.3473C32.5844 11.9409 32.4598 11.6492 32.3594 11.4135C32.3067 11.2897 32.2187 11.0833 32.1637 10.9549C32.1088 10.8265 32.019 10.6165 31.9641 10.4881C31.7685 10.0309 31.647 9.75052 31.5233 9.47092C31.4544 9.31501 31.3531 9.08241 31.2983 8.95401C31.2435 8.82562 31.15 8.60802 31.0907 8.47046C31.0313 8.33289 30.9379 8.11529 30.8829 7.9869C30.828 7.85851 30.7382 7.64841 30.6833 7.52002C30.6283 7.39162 30.5385 7.18153 30.4837 7.05313C30.4289 6.92474 30.3276 6.69213 30.2587 6.53623C30.1897 6.38032 30.0849 6.14021 30.0258 6.00265C29.8183 5.51969 29.5752 5.02239 29.4526 4.83033C29.2239 4.47173 28.7209 4.01789 28.4282 3.90581C28.3641 3.88129 28.2518 3.83807 28.1786 3.80976C27.9005 3.70228 27.1678 3.63038 27.0636 3.70038ZM76.806 3.9596C76.7922 3.97344 76.681 3.99521 76.5589 4.00802C75.7742 4.09022 75.0067 4.36298 74.3936 4.77748C73.9306 5.09052 73.4344 5.65608 73.1787 6.16219C73.0695 6.37815 72.8274 7.09255 72.7863 7.31992C72.7026 7.7823 72.6848 7.92274 72.6558 8.35374C72.6385 8.61052 72.6243 8.91816 72.6242 9.03739C72.6237 9.68822 72.7452 10.6605 72.8701 11.005C72.9 11.0875 72.9247 11.1809 72.925 11.2125C72.9261 11.3366 73.248 12.0116 73.4657 12.346C73.8104 12.8756 74.1703 13.1867 74.8725 13.5624C75.1023 13.6853 75.7141 13.8988 75.9708 13.9457C76.7649 14.0906 77.0102 14.112 78.0486 14.1273C78.6876 14.1367 79.0434 14.1544 79.072 14.1782C79.1052 14.2058 79.1159 14.3573 79.1159 14.8041C79.1159 15.2182 79.1277 15.4056 79.1558 15.4337C79.213 15.491 81.4815 15.491 81.5387 15.4337C81.5668 15.4056 81.5787 15.2182 81.5787 14.8041C81.5787 14.3575 81.5893 14.2058 81.6225 14.1782C81.6509 14.1546 81.9983 14.1367 82.6126 14.1273C83.6185 14.1119 83.8482 14.0916 84.6572 13.9461C84.8033 13.9199 85.1682 13.8 85.6355 13.6247C85.8036 13.5617 86.2267 13.3103 86.4193 13.159C86.6163 13.0044 86.9361 12.6773 87.0916 12.4715C87.2521 12.2589 87.5795 11.6164 87.6762 11.324C87.8683 10.7436 88.0058 9.81548 88.0053 9.10408C88.0048 8.43881 87.8852 7.48763 87.7579 7.1365C87.7279 7.05397 87.7032 6.96059 87.703 6.92898C87.7025 6.87151 87.6754 6.80418 87.4651 6.3374C87.2915 5.95212 86.9992 5.53046 86.6929 5.22345C86.0188 4.54804 85.2182 4.18407 83.9916 3.99545C83.7205 3.95376 76.8461 3.91945 76.806 3.9596ZM66.2359 5.30355C66.1902 5.31866 66.0853 5.34978 66.003 5.37272C65.7215 5.45116 65.2512 5.72212 65.0544 5.91927C64.8145 6.15972 64.5875 6.60056 63.7065 8.53715C63.6106 8.74809 63.4458 9.10825 63.3404 9.33753C63.235 9.5668 63.0703 9.92697 62.9743 10.1379C62.7939 10.5345 62.562 11.04 62.217 11.7887C62.1071 12.0271 61.9387 12.3948 61.8428 12.6057C61.7468 12.8166 61.5821 13.1768 61.4767 13.4061C61.3713 13.6354 61.2065 13.9955 61.1105 14.2065C61.0146 14.4174 60.8532 14.7644 60.7519 14.9776C60.6436 15.2055 60.5763 15.3877 60.5885 15.4195C60.6072 15.4682 60.737 15.4737 61.8709 15.4737C62.8418 15.4737 63.1397 15.4641 63.1632 15.432C63.18 15.4091 63.2285 15.3078 63.2707 15.2069C63.3131 15.106 63.3894 14.926 63.4403 14.8067C63.4912 14.6875 63.5661 14.5074 63.6067 14.4065C63.6473 14.3057 63.7226 14.1256 63.7741 14.0064C63.8255 13.8871 63.8859 13.7402 63.9082 13.6798C63.9305 13.6195 63.9777 13.5332 64.0131 13.4881L64.0775 13.4061H66.6492C69.0984 13.4061 69.2236 13.409 69.276 13.4671C69.3063 13.5006 69.3311 13.5452 69.3311 13.5662C69.3311 13.5872 69.3593 13.6686 69.3937 13.747C69.5164 14.0263 69.6578 14.3593 69.7305 14.5399C69.7711 14.6408 69.8469 14.8209 69.8991 14.9401C69.9512 15.0593 70.0026 15.1894 70.0133 15.2292C70.024 15.2689 70.0632 15.3402 70.1004 15.3876L70.168 15.4737H71.4147C72.5232 15.4737 72.6636 15.4678 72.6817 15.4207C72.7024 15.3666 72.6634 15.2698 72.327 14.5399C72.2213 14.3107 72.0563 13.9505 71.9603 13.7396C71.8644 13.5286 71.6996 13.1685 71.5942 12.9392C71.4888 12.7099 71.3241 12.3498 71.2281 12.1388C71.1322 11.9279 70.9675 11.5677 70.8621 11.3385C70.7567 11.1092 70.5919 10.749 70.496 10.5381C70.4 10.3272 70.2353 9.96698 70.1299 9.73771C70.0245 9.50844 69.8597 9.14827 69.7638 8.93734C69.6678 8.72641 69.5013 8.36251 69.3936 8.12863C68.8935 7.04176 68.7997 6.83773 68.6996 6.6196C68.5915 6.38376 68.3994 6.10529 68.2162 5.91877C68.0124 5.71131 67.5707 5.45709 67.2677 5.37279C67.1853 5.34991 67.0719 5.31716 67.0157 5.30005C66.8926 5.26264 66.3525 5.26504 66.2359 5.30355ZM94.0461 5.42671C94.0321 5.44082 93.9057 5.46266 93.7653 5.4752C93.625 5.48774 93.4315 5.51402 93.3354 5.53356C93.2393 5.5531 93.0895 5.58208 93.0026 5.59796C92.5016 5.68933 91.5327 6.13397 91.269 6.39343C91.2446 6.4175 91.1697 6.47823 91.1026 6.52839C91.0356 6.57855 90.9657 6.6346 90.9474 6.65295C90.9291 6.67129 90.8732 6.74129 90.8231 6.80845C90.7731 6.87565 90.7125 6.95068 90.6884 6.9752C90.4491 7.21938 90.0915 7.9939 89.9596 8.55383C89.8144 9.17031 89.7909 9.44147 89.7909 10.5047C89.7909 11.4478 89.8078 11.7156 89.8951 12.1555C89.9698 12.5321 89.9969 12.6211 90.2135 13.2025C90.2436 13.2831 90.3536 13.4913 90.458 13.6652C90.8388 14.2993 91.5591 14.9067 92.2263 15.1562C92.3009 15.1841 92.4255 15.2314 92.5033 15.2614C92.5811 15.2913 92.6972 15.3281 92.7613 15.3432C92.8253 15.3583 92.9451 15.3872 93.0275 15.4076C93.6437 15.5596 93.9411 15.5815 95.3905 15.5811C96.6664 15.5808 97.1087 15.5589 97.5122 15.4762C97.6083 15.4565 97.758 15.4274 97.845 15.4116C98.0482 15.3747 98.7751 15.1302 98.9595 15.0368C99.7128 14.655 100.17 14.2447 100.559 13.6026C100.709 13.3543 100.734 13.2993 100.906 12.8225C101.009 12.5367 101.045 12.389 101.154 11.7887C101.202 11.529 101.202 9.49853 101.154 9.18746C101.092 8.77773 101.06 8.62416 101.004 8.47046C100.974 8.38792 100.949 8.29454 100.949 8.26293C100.948 8.19549 100.87 8.01231 100.646 7.55336C100.487 7.22635 100.232 6.85154 100.033 6.65278C99.7059 6.32453 99.0082 5.91964 98.4462 5.73162C98.0024 5.58315 97.8452 5.54927 97.2043 5.46406C96.8909 5.42234 94.0835 5.38916 94.0461 5.42671ZM43.7344 5.53386C43.5946 5.58722 43.3054 5.7656 43.2202 5.85098C43.0667 6.00478 42.8687 6.37515 42.827 6.58625C42.8066 6.68993 42.7942 8.13387 42.7942 10.4047C42.7942 12.6755 42.8066 14.1194 42.827 14.2231C42.8687 14.4342 43.0667 14.8046 43.2202 14.9584C43.3738 15.1123 43.7434 15.3107 43.954 15.3522C44.2048 15.4017 51.588 15.4186 51.6466 15.3699C51.7086 15.3183 51.7137 13.3746 51.652 13.3127C51.6215 13.2822 50.8975 13.2727 48.5964 13.2727C45.9965 13.2727 45.572 13.2794 45.5162 13.3216C45.4189 13.3954 45.374 13.3835 45.3015 13.2643C45.2404 13.1639 45.2355 13.0945 45.2354 12.3206C45.2353 11.7152 45.2463 11.4742 45.2753 11.4452C45.3057 11.4146 46.037 11.4052 48.3638 11.4052C50.6905 11.4052 51.4218 11.3957 51.4523 11.3651C51.5093 11.308 51.5093 9.43467 51.4523 9.37754C51.4218 9.347 50.6905 9.33753 48.3638 9.33753C46.037 9.33753 45.3057 9.32805 45.2753 9.29751C45.2466 9.26876 45.2353 9.04702 45.2353 8.51048V7.76346L45.3485 7.65008L45.4616 7.53669H48.5368C50.8843 7.53669 51.6215 7.52722 51.652 7.49667C51.709 7.43954 51.709 5.56621 51.652 5.50908C51.6213 5.47837 50.713 5.4698 47.7497 5.47223C44.1541 5.4752 43.8769 5.47944 43.7344 5.53386ZM54.2361 5.66245C53.8615 5.86178 53.6309 6.13541 53.4961 6.5406L53.4226 6.76176V11.0777C53.4226 14.3901 53.4318 15.403 53.4625 15.4337C53.5197 15.491 55.7882 15.491 55.8455 15.4337C55.876 15.403 55.8854 14.5044 55.8854 11.5921V7.79044L55.9748 7.69693L56.0642 7.60339H59.1632C61.5291 7.60339 62.2716 7.59392 62.3021 7.56337C62.3312 7.53412 62.342 7.26693 62.342 6.56957C62.342 5.87222 62.3312 5.60503 62.3021 5.57578C62.2714 5.5451 61.353 5.53596 58.3665 5.53663L54.4709 5.53753L54.2361 5.66245ZM102.985 5.57578C102.927 5.63394 102.927 15.3755 102.985 15.4337C103.043 15.491 105.311 15.491 105.368 15.4337C105.398 15.4035 105.408 14.9183 105.408 13.4546C105.408 11.6184 105.411 11.5126 105.469 11.4603C105.525 11.4101 105.747 11.4052 107.977 11.4052C110.305 11.4052 110.426 11.4081 110.478 11.4661C110.528 11.5214 110.534 11.7083 110.534 13.4604C110.534 14.9196 110.543 15.4035 110.574 15.4337C110.631 15.491 112.899 15.491 112.956 15.4337C113.015 15.3755 113.015 5.63394 112.956 5.57578C112.899 5.51842 110.631 5.51842 110.574 5.57578C110.543 5.6059 110.534 6.05747 110.534 7.4033C110.534 8.74912 110.524 9.2007 110.494 9.23081C110.436 9.28874 105.506 9.28874 105.448 9.23081C105.418 9.2007 105.408 8.74912 105.408 7.4033C105.408 6.05747 105.398 5.6059 105.368 5.57578C105.311 5.51842 103.043 5.51842 102.985 5.57578ZM8.58492 5.91587C8.86822 6.05934 9.03506 6.22652 9.17823 6.51038C9.27801 6.70824 9.29132 6.76527 9.29132 6.99441C9.29132 7.70944 8.74893 8.27143 8.06037 8.26986C7.56644 8.26876 7.17196 8.01935 6.94158 7.56254C6.83855 7.35817 6.82849 7.31222 6.82849 7.04516C6.82849 6.54186 6.97593 6.26974 7.40832 5.97493C7.60705 5.83944 7.71634 5.81086 8.05242 5.80652C8.34124 5.80282 8.37552 5.80986 8.58492 5.91587ZM79.0094 6.04266C79.0398 6.07318 79.0493 6.78778 79.0493 9.05556C79.0493 11.9217 79.0471 12.0305 78.9868 12.0851C78.9314 12.1354 78.857 12.14 78.3295 12.1255C77.2918 12.0969 76.9772 12.0592 76.5199 11.908C76.0506 11.7529 75.6408 11.3748 75.3796 10.8559C75.2871 10.6719 75.1973 10.4614 75.1801 10.388C75.0491 9.82789 75.0499 8.48446 75.1815 7.95355C75.3725 7.18279 75.7397 6.62624 76.2537 6.3283C76.4927 6.18973 76.8353 6.07141 77.0025 6.06971C77.0757 6.06894 77.1581 6.05377 77.1855 6.03599C77.2622 5.9863 78.9593 5.99251 79.0094 6.04266ZM83.6588 6.06014C84.2354 6.17793 84.6228 6.4144 84.9538 6.85077C85.1059 7.05127 85.34 7.50791 85.3781 7.67842C85.3935 7.74722 85.4225 7.86728 85.4426 7.94521C85.4996 8.16675 85.5446 8.59335 85.5436 8.90399C85.5419 9.43524 85.4445 10.3194 85.3655 10.5214C85.3368 10.5948 85.2932 10.7073 85.2686 10.7715C85.2196 10.8995 84.9569 11.3048 84.8344 11.4413C84.7134 11.5762 84.4488 11.7671 84.2272 11.8791C83.8102 12.0901 83.6594 12.1129 82.5818 12.1281C81.9259 12.1373 81.6583 12.1302 81.6249 12.1024C81.5605 12.0488 81.5552 6.10619 81.6196 6.04166C81.67 5.99117 83.3978 6.00685 83.6588 6.06014ZM96.5387 7.53039C97.1665 7.60866 97.4789 7.72965 97.9233 8.06667C98.2839 8.34013 98.5722 8.85854 98.695 9.45425C98.7413 9.67888 98.7396 11.3419 98.6928 11.5552C98.6727 11.6469 98.6429 11.782 98.6265 11.8554C98.6102 11.9287 98.5718 12.0368 98.5412 12.0955C98.5107 12.1542 98.4857 12.2186 98.4857 12.2387C98.4857 12.291 98.1793 12.7379 98.0656 12.8515C97.8695 13.0474 97.4451 13.2929 97.2127 13.3449C97.144 13.3602 97.0242 13.389 96.9464 13.409C96.6288 13.4904 96.2979 13.5143 95.4903 13.5138C94.2526 13.5132 93.9371 13.4635 93.3759 13.1805C93.0807 13.0318 92.7689 12.7505 92.5778 12.4608C92.4508 12.2682 92.2692 11.7589 92.2192 11.4552C92.1742 11.1814 92.1758 9.72901 92.2214 9.52094C92.3239 9.05279 92.3592 8.93957 92.4734 8.71387C92.6097 8.44421 92.824 8.17795 93.0329 8.01878C93.2693 7.83866 93.4072 7.77006 93.7264 7.67382C93.8637 7.63243 94.022 7.58464 94.0782 7.56764C94.1345 7.5506 94.2692 7.53646 94.3778 7.53619C94.4863 7.53589 94.5976 7.52085 94.625 7.50271C94.6868 7.46189 96.1602 7.4832 96.5387 7.53039ZM66.7281 7.68539C66.7635 7.73051 66.8108 7.81679 66.8331 7.87715C66.8554 7.93751 66.9192 8.09195 66.9748 8.22034C67.1344 8.58848 67.2543 8.87214 67.3342 9.07073C67.3748 9.17161 67.4531 9.3592 67.5083 9.48759C67.6977 9.9287 67.793 10.1549 67.8667 10.338C67.9389 10.5173 68.0497 10.7794 68.201 11.1288C68.3283 11.4227 68.432 11.4052 66.5636 11.4052C65.1224 11.4052 64.9336 11.3992 64.916 11.3533C64.8965 11.3023 64.9195 11.2351 65.104 10.8049C65.1551 10.6857 65.2302 10.5056 65.2708 10.4047C65.3114 10.3038 65.3879 10.12 65.4408 9.99616C65.4937 9.87237 65.5803 9.66975 65.6332 9.54596C65.6862 9.42216 65.7627 9.23831 65.8033 9.13743C65.8792 8.94871 65.9864 8.69483 66.1621 8.28704C66.2174 8.15865 66.2898 7.98777 66.323 7.90733C66.4483 7.60315 66.5989 7.52072 66.7281 7.68539ZM11.2733 13.0639C11.8402 13.1927 12.2548 13.7288 12.2602 14.3398C12.2646 14.842 11.8478 15.3592 11.3381 15.484C10.6699 15.6476 10.0473 15.2883 9.80858 14.6014C9.67376 14.2136 9.80805 13.7308 10.1446 13.3936C10.316 13.2219 10.5716 13.0729 10.6964 13.0721C10.7382 13.0718 10.7948 13.0563 10.8223 13.0377C10.8746 13.0022 11.0454 13.0121 11.2733 13.0639ZM14.2371 13.0646C14.7457 13.1488 15.2145 13.7285 15.2145 14.2731C15.2145 14.812 14.7885 15.3563 14.2669 15.484C14.0955 15.5259 13.8057 15.5257 13.6284 15.4833C13.282 15.4007 12.887 15.0248 12.7948 14.69C12.7746 14.6166 12.7395 14.4928 12.7167 14.4149C12.6838 14.302 12.6838 14.2443 12.7167 14.1314C12.7395 14.0535 12.7746 13.9297 12.7948 13.8563C12.8704 13.5817 13.0829 13.3434 13.3924 13.1863C13.5155 13.1237 13.6503 13.0724 13.692 13.0721C13.7336 13.0718 13.7901 13.0563 13.8176 13.0377C13.8451 13.0191 13.9125 13.0112 13.9674 13.0202C14.0223 13.0291 14.1437 13.0491 14.2371 13.0646ZM17.1957 13.0641C17.449 13.1227 17.6705 13.2759 17.9372 13.577C17.9789 13.6241 18.0426 13.7435 18.0786 13.8423C18.2081 14.1972 18.1399 14.7405 17.9372 14.9693C17.68 15.2597 17.5028 15.3858 17.2071 15.489C16.8591 15.6104 16.4139 15.4877 16.0974 15.1831C15.8683 14.9626 15.8144 14.889 15.7469 14.7039C15.6175 14.3491 15.6857 13.8058 15.8884 13.577C16.1488 13.283 16.453 13.0732 16.6205 13.0721C16.6623 13.0718 16.7189 13.0563 16.7464 13.0377C16.7988 13.0021 16.9718 13.0123 17.1957 13.0641Z" fill="#00985F"/>
</g>
<defs>
<clipPath id="clip0_470_16544">
<rect width="113" height="20" fill="white"/>
</clipPath>
</defs>
</svg>
