<svg width="38" height="36" fill="none" xmlns="http://www.w3.org/2000/svg"><path fill-rule="evenodd" clip-rule="evenodd" d="m18.575.178-.188.178V9.29h-1.65c-2.16 0-2.027-.098-2.027 1.5v1.144l-1.403-1.322C12.034 9.413 11.879 9.29 11.64 9.29c-.246 0-.628.347-5.952 5.39L0 20.07v15.574l.188.178.188.178h22.538l.188-.178.188-.178V25.548h14.334l.188-.178.188-.178V3.814l-2.013-1.907L33.975 0H18.763l-.188.178Zm14.522 2.547c0 2.089-.178 1.92 2.027 1.92h1.65v17.42H23.29v-1.987l-1.226-1.169-1.225-1.169V9.647l-.188-.178c-.155-.147-.264-.179-.613-.179h-.425V1.161h13.484v1.564Zm2.03.033.763.726H34.323v-.726c0-.4.009-.726.02-.726.011 0 .364.327.784.726Zm-14.288.145v.58H31.87v-1.16H20.839v.58Zm0 2.323v.58H31.87v-1.16H20.839v.58Zm0 2.322v.581h14.709V6.968H20.84v.58Zm13.236 2.884-.976.924-.367-.343c-.203-.19-.403-.344-.445-.344-.101 0-.8.673-.8.77 0 .041.307.359.68.705.974.903.872.927 2.476-.583.709-.667 1.288-1.248 1.288-1.29 0-.097-.705-.763-.807-.763-.04 0-.513.416-1.05.924Zm-14.462 3.086v3.066l-1.839-1.741-1.839-1.741v-2.65h3.678v3.066Zm-2.74 2.141 5.191 4.917V34.84h-5.516V22.42l-.188-.178-.188-.178H7.118l-.188.178-.188.178v12.418H1.226V20.577l5.19-4.918c2.855-2.704 5.208-4.917 5.229-4.917.02 0 2.374 2.213 5.229 4.917Zm5.191-3.466v.581h8.581v-1.161h-8.58v.58Zm12.01 1.723-.975.924-.367-.344c-.203-.188-.403-.343-.445-.343-.101 0-.8.673-.8.77 0 .041.307.358.68.705.974.903.872.927 2.476-.583.709-.667 1.288-1.248 1.288-1.29 0-.098-.705-.763-.807-.763-.04 0-.513.416-1.05.924Zm-12.01 1.761v.581h8.581v-1.161h-8.58v.58Zm12.01 1.723-.975.924-.367-.344c-.203-.189-.403-.343-.445-.343-.101 0-.8.673-.8.77 0 .041.307.358.68.705.974.903.872.927 2.476-.583.709-.667 1.288-1.248 1.288-1.291 0-.097-.705-.762-.807-.762-.04 0-.513.416-1.05.924Zm-9.558 1.761v.58h6.129v-1.16h-6.129v.58Zm-9.193 9.871v5.807H7.968V23.226h7.355v5.806Zm21.451-5.226v.581H23.29v-1.161h13.484v.58Zm-27.58 5.807v.58h1.225v-1.16H9.194v.58Z" fill="#fff"/></svg>