<svg width="97" height="90" fill="none" xmlns="http://www.w3.org/2000/svg"><g filter="url(#a)"><path fill-rule="evenodd" clip-rule="evenodd" d="M16.768.12c-1.058.15-2.357.657-3.336 1.302-.638.421-2.919 2.623-8.79 8.488-4.681 4.678-8.082 8.169-8.308 8.529a9.006 9.006 0 0 0-1.168 3.03c-.133.736-.162 6.841-.166 34.322-.003 21.914.037 33.648.116 34.07.38 2.02 2.048 3.67 4.091 4.045.423.077 16.338.108 45.992.088l45.344-.03.611-.32a3.738 3.738 0 0 0 1.622-1.7c.196-.431.222-.829.224-3.54.002-2.652-.028-3.174-.234-3.972-.478-1.862-1.652-3.589-3.164-4.657-.406-.287-3.788-2.038-7.516-3.89-3.727-1.852-6.8-3.388-6.826-3.412-.026-.025.306-.757.738-1.628.433-.87.934-1.969 1.114-2.44.29-.757.394-.898.898-1.21 1.049-.648 2.226-2.5 2.706-4.257.266-.974.363-3.248.174-4.103-.285-1.293-1.164-2.451-2.091-2.755-.353-.116-.39-.19-.689-1.346-.173-.673-.301-1.24-.285-1.258.017-.018.24.012.497.068.635.138 1.196-.002 1.617-.403.573-.546.635-1.027.301-2.335-.609-2.39-1.815-4.882-3.197-6.61-.856-1.07-2.574-2.644-3.576-3.276l-.851-.537-.003-18.036c-.003-17.641-.009-18.054-.241-18.803-.537-1.73-1.995-3.036-3.817-3.42-.77-.163-50.643-.166-51.787-.004Zm51.63 3.509c.223.131.506.426.63.654.214.4.223 1.063.223 17.525v17.11l-.33-.084c-2.289-.578-2.406-.59-5.608-.595-2.61-.003-3.286.033-4.139.219-1.484.324-3.016.846-4.062 1.385-.504.26-1.16.506-1.456.548-2.019.287-3.272.905-4.682 2.313-1.685 1.68-2.398 3.463-2.648 6.62-.122 1.542-.104 2.023.216 5.815l.067.793-.525.236c-1.483.666-2.241 2.355-2.104 4.681.159 2.678 1.419 5.268 3.135 6.442.412.282.555.485.773 1.099.147.414.649 1.52 1.116 2.456.467.936.827 1.716.8 1.733-.025.016-3.07 1.524-6.764 3.35-3.695 1.826-7.05 3.556-7.456 3.844a8.021 8.021 0 0 0-2.427 2.787c-.834 1.602-.888 1.887-.965 5.14l-.069 2.923H15.848c-16.252 0-16.277 0-16.607-.246a3.419 3.419 0 0 1-.579-.576l-.247-.33-.03-32.982-.032-32.983 8.255-.034 8.254-.034.914-.45c1.094-.537 1.876-1.337 2.42-2.474l.372-.775.034-8.206.034-8.205 24.677.031c24.434.03 24.682.033 25.084.27Zm-53.13 7.906c0 8.002.024 7.744-.758 8.315-.332.242-.468.247-7.767.28-4.086.017-7.429-.01-7.429-.06 0-.119 15.745-15.785 15.865-15.785.05 0 .09 3.262.09 7.25Zm-2.201 18.768c-1.376.41-1.563 2.374-.292 3.064.373.203 1.078.215 12.63.215h12.236l.438-.27a1.64 1.64 0 0 0-.258-2.939c-.435-.173-1.703-.192-12.448-.182-6.58.005-12.118.056-12.306.112Zm30.452-.037c-.466.113-1.01.632-1.15 1.1-.29.96.224 1.892 1.185 2.149.328.088 1.695.122 4.01.1 3.892-.037 3.994-.055 4.509-.81.38-.556.329-1.515-.106-1.985-.569-.613-.776-.64-4.635-.626-1.965.008-3.68.04-3.813.072Zm-30.853 6.95c-1.087.66-.97 2.309.206 2.9.392.197 1.26.208 14.338.179 13.068-.029 13.94-.044 14.244-.241 1.026-.669 1.041-2.209.03-2.83-.387-.238-.565-.241-14.413-.241-13.695 0-14.03.006-14.405.233Zm53.66 4.482c3.761.638 6.67 2.444 8.611 5.346.711 1.063 1.44 2.533 1.338 2.697-.034.054-.237.134-.452.176-.606.12-1.263.62-1.552 1.177-.383.739-.343 1.67.13 3.013.443 1.256.676 2.284.795 3.5.066.68.153.955.383 1.228.42.497.924.725 1.51.682l.499-.036.035.792c.06 1.364-.448 2.966-1.239 3.9-.174.207-.423.376-.552.376-.347 0-.881.306-1.091.624-.1.153-.356.787-.567 1.408-.502 1.478-1.618 3.739-2.47 5.01-2.04 3.035-4.338 5.005-6.864 5.881-.896.31-1.22.363-2.247.364-2.493.002-4.613-1.012-6.87-3.283-2.205-2.22-3.948-5.111-5.005-8.302-.35-1.06-.888-1.702-1.421-1.702-.98 0-2.314-3.293-1.923-4.744.063-.236.15-.269.714-.269.546 0 .704-.054 1.064-.369.478-.417.591-.756.776-2.325.101-.853.09-1.384-.05-2.506-.242-1.924-.237-5.158.009-6.35.49-2.375 1.817-3.81 3.884-4.2.35-.067.806-.12 1.013-.12.206 0 .563-.108.793-.238 1.663-.946 2.626-1.314 4.377-1.67 1.415-.29 4.834-.321 6.372-.06Zm-53.516 5.53c-.594.365-.812.693-.865 1.299-.062.708.235 1.295.812 1.603.389.207 1.024.218 12.659.218h12.25l.408-.271c1.077-.716 1.052-2.17-.05-2.837-.373-.227-.702-.233-12.618-.233-11.703 0-12.252.01-12.596.222Zm42.409.024c-.637.267-1.093.758-2.07 2.226-1.274 1.917-1.293 1.953-1.292 2.503 0 .89.758 1.621 1.679 1.621.75 0 1.101-.291 2.03-1.69l.875-1.315 1.037.517c2.166 1.08 4.896 1.918 7.438 2.283.88.126 2.281.202 3.958.214 2.98.021 3.175-.03 3.633-.971.292-.602.25-1.154-.129-1.683-.445-.623-.954-.728-3.52-.73-4.17-.005-6.406-.501-10.104-2.245-1.462-.69-1.78-.795-2.459-.822-.429-.018-.913.024-1.076.092Zm-42.347 6.646c-1.176.588-1.293 2.24-.206 2.899.372.225.67.233 9.425.233h9.04l.449-.447c.589-.589.7-1.15.374-1.883-.189-.425-.35-.59-.755-.773-.495-.224-.85-.233-9.212-.235-8.044-.002-8.729.013-9.115.206Zm42.504 24.815c.451.329 1.248.825 1.77 1.101.521.277.948.542.948.588 0 .047-.458 2.364-1.02 5.15a1061.71 1061.71 0 0 0-1.019 5.097c0 .018-4.619.034-10.264.034H35.526l.038-2.722.038-2.722.452-.908c.776-1.562.819-1.59 8.715-5.517l7.01-3.487 1.389 1.393c.763.767 1.757 1.663 2.208 1.993Zm25.043.102c7.947 3.953 7.931 3.943 8.718 5.525l.447.9.038 2.722.038 2.722-10.355-.03-10.354-.031-.978-4.833c-.538-2.658-1.009-4.978-1.046-5.156-.063-.3-.01-.35.737-.716 1.544-.755 3.595-2.39 4.826-3.845.362-.43.7-.781.75-.782.05-.001 3.28 1.584 7.179 3.524ZM2.67 77.42c-.801.427-.897.76-.897 3.12 0 2.332.066 2.598.767 3.068.625.418 1.442.38 1.985-.095.569-.498.665-.935.666-3.038 0-1.627-.025-1.843-.27-2.318-.456-.885-1.394-1.192-2.25-.737Zm8.522-.02a2.21 2.21 0 0 0-.69.621c-.258.384-.272.52-.272 2.542 0 1.695.038 2.21.186 2.493.582 1.122 2.434 1.084 2.98-.06.292-.613.28-4.256-.018-4.835-.427-.834-1.392-1.17-2.186-.76Zm8.403.007c-.84.426-.904.63-.946 3.021-.035 2.009-.021 2.168.222 2.598.142.252.41.548.596.657.457.268 1.289.251 1.763-.036.688-.417.756-.7.756-3.152V78.29l-.324-.383c-.578-.683-1.342-.868-2.067-.5Zm8.387.009c-.26.135-.52.416-.688.74-.245.476-.27.692-.27 2.32.002 2.044.093 2.504.597 2.984.48.458 1.436.55 2.006.194.767-.48.816-.663.816-3.05 0-1.939-.024-2.193-.24-2.557a1.663 1.663 0 0 0-2.221-.631Zm36.672 8.969c.462 2.296.813 4.203.779 4.236-.103.102-5.9.07-5.9-.033 0-.097 1.504-7.627 1.62-8.11.061-.258.115-.268 1.362-.268h1.298l.84 4.175Z" fill="#3D5F95"/></g><defs><filter id="a" x="-9" y="0" width="106" height="102" filterUnits="userSpaceOnUse" color-interpolation-filters="sRGB"><feFlood flood-opacity="0" result="BackgroundImageFix"/><feColorMatrix in="SourceAlpha" values="0 0 0 0 0 0 0 0 0 0 0 0 0 0 0 0 0 0 127 0" result="hardAlpha"/><feOffset dy="4"/><feGaussianBlur stdDeviation="2"/><feComposite in2="hardAlpha" operator="out"/><feColorMatrix values="0 0 0 0 0 0 0 0 0 0 0 0 0 0 0 0 0 0 0.25 0"/><feBlend in2="BackgroundImageFix" result="effect1_dropShadow_274_10063"/><feBlend in="SourceGraphic" in2="effect1_dropShadow_274_10063" result="shape"/></filter></defs></svg>