<svg width="53" height="54" viewBox="0 0 53 54" fill="none" xmlns="http://www.w3.org/2000/svg"><path fill-rule="evenodd" clip-rule="evenodd" d="M16.566 2.619c.608-.26 15.96-.087 16.74.26-1.734.347-3.47.694-5.117 1.041.433.26 4.337.867 5.03 1.04-1.474.521-3.035 1.042-4.51 1.562 1.908.174 3.817.347 5.638.52-.867.781-3.47 1.215-4.77 1.909 2.168.086 4.423.086 6.591.173-6.852.954-13.704 1.995-20.469 2.95.694-.521 4.337-1.129 4.857-1.649l-5.724-.52c1.127-.694 4.77-.954 6.071-1.735-1.908-.26-3.816-.434-5.724-.694 1.04-.26 5.377-1.214 5.898-1.561-1.128-.26-4.77-.607-5.465-1.128 1.908-.347 3.817-.78 5.725-1.127a52.647 52.647 0 0 0-4.77-1.041Zm3.643 20.556c.26.867.607 1.735.868 2.515.346-.347 1.474-1.214 1.994-1.387.608.347 1.735 1.214 2.256 1.56 2.602-1.56 5.117-3.122 7.719-4.683-.867 0-1.648.087-2.515.087h-2.082c.607-.347 1.301-.607 1.908-.867.434-.174.607-.26 1.041-.434.347-.174.607-.347.954-.52-1.214 0-2.428.173-3.643.26-1.821.087-1.561.173-3.035.867-1.995.954-3.904 1.822-5.465 2.602Zm-8.847-7.806c1.301-.26 2.602-.52 3.903-.867C11.45 16.41 3.99 19.619 0 22.308c1.04.26 5.204 1.04 6.071.867 1.648-.26 3.99-1.127 5.638-1.3-.173 2.861-1.3 2.775.087 4.25.694.78 1.995 2.168 2.168 3.295.347 2.862.347 2.342-.78 4.337a257.568 257.568 0 0 0-3.123 5.03c-.433.608-.867 1.215-1.127 1.909 1.908-.694 5.811-3.73 8.586-4.944.868-.347 1.822-.52 2.776-.868-.867-.954-1.822-1.908-2.689-2.949-1.127-1.214-1.388-1.734-1.474-4.076.26 0 .52 0 .694.086.867.26 1.56 2.082 2.775 2.603-.52-2.255-1.128-4.51-1.648-6.679-1.214-.26-2.515-.434-3.73-.694.087-.26.087-.26.608-.694.607-.52 1.3-.954 1.908-1.474.78-.607 9.714-2.342 11.102-2.689 1.214-.26 2.428-.52 3.816-.867 2.255-.52 1.561-.608 3.21.607 2.428 1.821 2.775 1.04 2.775 6.505l1.735-1.128c.346-.347.693-1.04 1.04-1.56 1.475-2.17 1.301-3.037 1.475-6.68 1.04-.173 8.5-1.82 9.107-2.168-.26-.433-1.128-1.388-1.561-1.734-.347-.26-.607-.174-1.648-.174-.954 0-1.908.087-2.862.087-2.256 0-4.51 0-6.766.087 1.041-.348 1.995-.781 3.036-1.128-1.821-3.036-3.643-6.071-5.638-9.194-.26-.347-.173-.434-.954-.52C31.572.19 13.357-.07 13.01.017c-.607 5.117-1.127 10.235-1.648 15.352Z" fill="#3D5F95"/><path fill-rule="evenodd" clip-rule="evenodd" d="M26.628 34.277c4.25-2.602 9.54-5.898 10.928-6.679-1.214 1.215-2.342 2.516-3.556 3.73 1.214-.26 2.342-1.301 3.643-1.561-.78.954-3.123 3.209-3.903 4.076.78-.173 1.474-.347 2.255-.52-2.342 2.342-6.332 5.984-9.367 8.673v3.123c4.163-3.643 10.148-8.674 11.795-11.276 1.301-1.908 2.169-4.25 3.123-6.245 1.3-2.862 3.296-6.765 3.99-7.72-2.516 1.389-9.02 5.292-10.669 6.246 0-.868 0-3.73-.347-4.163-.607 1.648-1.387 3.382-1.995 5.03-.52 1.388-.607 1.214-1.734 1.908-.867.52-2.429 1.388-4.163 2.516v2.862Zm-10.929 6.852c1.301-.954 4.077-2.602 5.464-3.47.78-.52 2.95-1.908 5.465-3.382v-2.862C20.296 35.318 9.888 41.736 9.714 42.17c4.424 1.821 9.368 4.336 13.791 5.724.78-.694 1.908-1.648 3.123-2.775v-3.123a24.429 24.429 0 0 1-2.863 2.255c.347-1.127 1.301-1.821 1.995-3.209-.867.26-3.73 2.255-4.944 2.862.694-1.387 2.169-2.775 2.776-4.076-1.475.867-3.816 2.515-5.117 2.949.78-.954 2.948-3.296 3.295-4.077-1.387.694-4.683 1.995-6.071 2.429Z" fill="#3D5F95"/><path fill-rule="evenodd" clip-rule="evenodd" d="M44 37.692a7.308 7.308 0 1 0 0 14.616 7.308 7.308 0 0 0 0-14.616ZM35 45a9 9 0 1 1 18 0 9 9 0 0 1-18 0Z" fill="#FAFAFA"/><path fill-rule="evenodd" clip-rule="evenodd" d="M44.078 44.13c.524 0 .948.425.948.948v3.653a.947.947 0 1 1-1.895 0v-3.653c0-.523.424-.947.947-.947Zm-.948-2.704c0-.523.425-.948.948-.948h.01a.947.947 0 1 1 0 1.895h-.01a.947.947 0 0 1-.947-.947Z" fill="#FAFAFA"/></svg>