<svg width="61" height="61" viewBox="0 0 61 61" fill="none" xmlns="http://www.w3.org/2000/svg"><g filter="url(#a)" fill-rule="evenodd" clip-rule="evenodd" clip-path="url(#b)"><path d="m42.607 52.508 1.192-.732c.586-.337 4.01-2.419 4.081-2.163.014.047.073.05.091.065l3.218 2.682c-1.425 0-2.851.002-4.277 0-1.586-.002-2.662.148-4.305.148Zm-2.22-21.742v-1.34c-.688.057-2.507 1.97-3.21 2.559-.279.233-.411.419-.671.66l-2.333 2.108c.385.574 1.277 1.512 1.923 1.775.009.355.196.43.628.851.336.327.558.556.89.888 1.662 1.662 1.19.905 1.323 2.25.198 2.006-.018 1.733 2.318 3.893l.235.213c.25.217.016.034.23.191a16.381 16.381 0 0 0-.761 1.607c-.24.594-.53 1.072-.819 1.697l-3.846 8.287c-.255.504-.673 1.214-.642 1.726-.36-.284-.357-.54-.579-1.617-.135-.659-.236-1.153-.397-1.84-.156-.669-.229-.948-.418-1.808l-2.008-8.94c1.313 0 1.013-.134 1.225-1.438.085-.521.383-1.576.402-2.126-.468-.568-2.115-.283-2.81-.283h-2.96l.629 3.385c.013.038.02.08.037.115.171.38-.031.176.276.306.192.082.474.041.685.041v.604c-.084.126-.053.048-.14.294L27.1 55.659c-.1.41-.311 1.116-.325 1.733-.248-.134-.16.02-.497-.682l-2.119-3.948c-.199-.368-.236-.361-.44-.749-.085-.159-.126-.272-.198-.395l-.297-.39-1.432-2.738c-.117-.235-.131-.284-.243-.517-.293-.608-.55-.925-.84-1.53-.271-.565-.584-1.052-.888-1.628.655-.438 1.554-1.489 2.19-2.1.658-.634.439-.703.608-2.64.09-1.038.09-.586 1.456-1.955l3.292-3.366c-.281-.42-.265-.341-.676-.656l-3.825-3.425c-1.127-.87-.922-1.18-1.713-1.246 0 1.741-1.07 7.879-.741 8.73-1.944-.307-4.083-.08-5.933.135-2.627.304-5.053.994-7.47 1.998-1.741.723-2.283 1.456-2.716 3.498-.394 1.857.033 2.468 1.606 4.452l3.684 4.159c.796.843.848.71 1.63 1.481l3.108 2.228c.976.58 2.9 1.795 3.868 2.024l.791.396c.361.161.59.243.966.388 4.73 1.823 10.357 2.274 15.427 1.577 6.22-.856 12.374-4.023 16.815-8.464.875-.876 1.647-1.65 2.426-2.605l2.098-2.933c.706-1.183 1.033-1.802.192-3.986-.56-1.454-1.37-1.798-2.691-2.343-1.588-.654-3.544-1.261-5.227-1.559l-.123-.021-.508-.092c-2.01-.34-2.719-.256-3.592-.397-1.04-.167-2.62-.138-3.487.064 0-.562-.694-6.999-.888-7.39Z" fill="#fff"/><path d="M23.964 24.395c1.898-.001 6.032-1.795 6.51-3.847.627.013.619.18.866.634.243.445.417.615.723.883 2.05 1.793 6.991 3.9 8.775.413.516-1.008.9-2.72.023-3.731l-.872-.588c-1.749-.82-6.177-.822-7.843.067-.718.384-.218.512-1.22.568-.938.051-.851-.145-1.347-.46a2.25 2.25 0 0 0-.494-.23c-.14-.052-.185-.063-.325-.11-.092-.032-.152-.061-.336-.118l-1.5-.285c-.918-.064-2.623-.074-3.495.055-2.445.362-3.516 1.058-3.163 3.49.152 1.051.685 2.1 1.52 2.648.576.379 1.457.612 2.178.611Z" fill="url(#c)"/><path d="m14.642 17.589 6.68-.422c3.106-.35 18.798-.23 22.213.233.945.128 2.418.189 3.363.189-.271-.405-2.23-1.802-2.777-2.254-1.206-.996-2-1.859-3.132-1.898l-20.207.082-6.14 4.07Zm7.546-6.215h15.536c2.697.001 2.585 1.185 1.27-4.65L37.575.277l-2.765.92c-1.7.453-3.967.721-5.834.293C26.752.98 25.753.384 25.295.277l-3.107 11.097Z" fill="#FAFAFA"/></g><defs><linearGradient id="c" x1="4.156" y1="30.54" x2="57.404" y2="30.54" gradientUnits="userSpaceOnUse"><stop stop-color="#2B6594"/><stop offset="1" stop-color="#2E75A9"/></linearGradient><clipPath id="b"><path fill="#fff" d="M0 0h61v61H0z"/></clipPath><filter id="a" x="-8.844" y="-7.723" width="79.249" height="86.526" filterUnits="userSpaceOnUse" color-interpolation-filters="sRGB"><feFlood flood-opacity="0" result="BackgroundImageFix"/><feColorMatrix in="SourceAlpha" values="0 0 0 0 0 0 0 0 0 0 0 0 0 0 0 0 0 0 127 0" result="hardAlpha"/><feOffset dy="5"/><feGaussianBlur stdDeviation="6.5"/><feComposite in2="hardAlpha" operator="out"/><feColorMatrix values="0 0 0 0 0 0 0 0 0 0 0 0 0 0 0 0 0 0 0.15 0"/><feBlend in2="BackgroundImageFix" result="effect1_dropShadow_254_892"/><feBlend in="SourceGraphic" in2="effect1_dropShadow_254_892" result="shape"/></filter></defs></svg>