<svg width="41" height="41" fill="none" xmlns="http://www.w3.org/2000/svg"><path fill-rule="evenodd" clip-rule="evenodd" d="M.679.646C1.153.21 1.442.076 1.981.04 2.191.026 7.106.01 12.903.007L23.444 0l.432.24c.504.281.803.564 1.01.957.122.23.151.344.18.7.027.337.045 2.877.054 6.49h-1.542V7.278H1.532v26.48h22.046v-2.077h1.517c-.018 4.247-.044 7.308-.075 7.628-.03.303-.064.426-.163.585-.194.311-.714.765-1.087.947l-.324.158-10.834-.015c-8.526-.012-10.878-.027-11.046-.068-.466-.115-1.105-.663-1.424-1.22L0 39.447.02 20.78C.033 8.473.055 1.98.085 1.724.14 1.266.278 1.014.68.646Zm22.9 1.26-.258-.242-.256-.242H2.045l-.256.242-.257.242v3.909h22.046V1.906ZM7.923 3.903c-.172-.383.008-.778.433-.95a.902.902 0 0 1 .247-.064c.127-.002.523.178.623.283.114.12.171.433.12.649-.078.322-.51.576-.874.512-.197-.034-.466-.245-.55-.43Zm3.477-.951.69-.027c1.226-.049 4.533-.02 4.685.04.432.17.593.595.387 1.028-.036.076-.058.135-.098.18-.141.16-.5.154-2.46.17-2.324.018-3.063-.013-3.268-.138-.373-.228-.415-.766-.086-1.101l.15-.152ZM23.578 39.09v-3.867H1.532v3.872l.26.239.259.24h21.014l.256-.243.257-.241Zm-12.15-2.726c.143-.157.59-.374.88-.426.522-.093 1.2.167 1.524.584.208.268.286.541.263.918-.026.421-.176.714-.509.998-.312.265-.596.36-1.076.36-.457 0-.772-.131-1.082-.45-.33-.34-.392-.51-.368-.991.023-.44.132-.733.368-.993Z" fill="#fff"/><path fill-rule="evenodd" clip-rule="evenodd" d="M22.485 9.36c-3.513.371-6.565 2.082-8.515 4.77-.159.219-.39.574-.513.79a9.11 9.11 0 0 1-.256.43 8.447 8.447 0 0 0-.265.548c-.854 1.868-1.123 3.828-.81 5.893.086.562.337 1.482.57 2.085.207.537.735 1.55 1.056 2.026 1.133 1.68 2.763 3.059 4.682 3.964 2.104.992 4.591 1.372 6.988 1.066 1.638-.21 3.41-.834 4.822-1.701l.587-.36.112.118c.062.065.637.553 1.277 1.086.64.532 1.337 1.113 1.546 1.29.21.177 1.115.934 2.012 1.683s1.8 1.505 2.007 1.68c.62.524.851.635 1.41.677a1.81 1.81 0 0 0 1.088-.276 1.53 1.53 0 0 0 .34-2.303c-.068-.08-.57-.518-1.118-.975a987.318 987.318 0 0 1-2.668-2.232l-1.779-1.488a157.491 157.491 0 0 1-1.76-1.474c-.044-.04.014-.143.299-.538.43-.594.924-1.503 1.205-2.213.538-1.358.787-2.96.683-4.382-.202-2.759-1.369-5.157-3.43-7.052a11.479 11.479 0 0 0-3.816-2.349l-.53-.197a9.98 9.98 0 0 0-.444-.133l-.487-.138a17.447 17.447 0 0 0-1.589-.28c-.472-.068-2.12-.078-2.704-.016Zm2.662 1.566c.563.074.87.136 1.468.296.737.197 1.274.412 2.281.914.047.023.295.177.55.342 2.423 1.558 3.941 3.845 4.319 6.508.097.684.09 1.841-.016 2.475-.129.779-.37 1.637-.596 2.112-.224.475-.42.857-.537 1.048a3.116 3.116 0 0 0-.142.245c0 .007-.13.195-.29.417a9.818 9.818 0 0 1-2.655 2.527c-.96.631-2.111 1.12-3.302 1.401-3.464.818-7.11-.123-9.636-2.487-1.53-1.433-2.482-3.177-2.826-5.179-.106-.62-.104-2.178.003-2.788.537-3.04 2.564-5.59 5.521-6.947 1.224-.562 2.337-.841 3.825-.96.382-.03 1.558.014 2.033.076ZM11.254 22.334l-.019.03h.025l-.006-.03Zm-6.382-2.929.973-1.7h.875l-1.434 2.303 1.479 2.356h-.867L4.885 20.62 3.87 22.364H3l1.48-2.356-1.435-2.303h.867l.96 1.7Zm4.118 0 .973-1.7h.875l-1.435 2.303 1.48 2.356h-.868L9.002 20.62l-1.013 1.744h-.871l1.479-2.356-1.435-2.303h.867l.96 1.7Z" fill="#fff"/><path d="M19.95 20.925h.814v.857h-.813v1.425h-1.092v-1.425H16.03l-.031-.65 2.823-4.329h1.128v4.122Zm-2.804 0h1.713V18.25l-.081.14-1.632 2.534Zm5.094-.893.355-3.229h3.515v.924h-2.607l-.18 1.53c.303-.17.645-.254 1.025-.254.624 0 1.108.195 1.452.585.348.39.521.915.521 1.574 0 .651-.191 1.17-.575 1.557-.383.384-.91.576-1.577.576-.6 0-1.097-.165-1.493-.497-.392-.334-.605-.774-.638-1.319h1.056c.042.31.156.55.342.717.186.164.428.246.728.246.336 0 .596-.117.782-.352.189-.234.283-.554.283-.959 0-.39-.103-.698-.31-.923-.207-.229-.491-.343-.854-.343-.198 0-.365.026-.503.079a1.39 1.39 0 0 0-.45.299l-.872-.211Zm8.798-3.259v.884h-.135c-.61.009-1.1.173-1.465.492-.365.32-.583.773-.652 1.36.351-.361.799-.541 1.344-.541.579 0 1.034.199 1.367.598.335.399.503.913.503 1.544 0 .65-.196 1.178-.589 1.583-.39.401-.902.602-1.537.602-.653 0-1.183-.236-1.591-.708-.405-.472-.607-1.09-.607-1.856v-.365c0-1.123.279-2.003.836-2.639.56-.636 1.365-.954 2.414-.954h.112Zm-1.173 3.056a1.178 1.178 0 0 0-1.096.726v.326c0 .475.101.853.305 1.134.204.28.467.418.791.418s.58-.118.769-.356c.189-.237.283-.55.283-.937s-.096-.702-.288-.945a.924.924 0 0 0-.764-.366Z" fill="#fff"/></svg>