<svg width="51" height="42" viewBox="0 0 51 42" fill="none" xmlns="http://www.w3.org/2000/svg"><path fill-rule="evenodd" clip-rule="evenodd" d="M29.384.038c-.307.07-.51.163-.765.35-.498.363-.782.9-.824 1.566-.031.48-.166.74-.493.948-.11.07-.18.079-.805.098-.619.02-.71.03-.94.113a1.862 1.862 0 0 0-1.185 1.309c-.063.249-.07 1.283-.01 1.488.056.191.284.443.489.54l.173.083h4.745c3.165 0 4.788-.012 4.873-.036.195-.055.41-.242.523-.455.098-.184.103-.211.114-.717.01-.383-.002-.596-.041-.788-.146-.712-.614-1.24-1.288-1.453-.136-.043-.379-.066-.857-.083-.647-.021-.673-.025-.827-.118a.966.966 0 0 1-.397-.442 2.508 2.508 0 0 1-.078-.498c-.071-.894-.583-1.572-1.394-1.85a2.1 2.1 0 0 0-1.012-.055Zm.862 1.156c.322.18.483.462.483.849 0 .401-.21.726-.577.892-.191.086-.573.074-.774-.026-.414-.205-.617-.688-.484-1.155.07-.25.331-.537.568-.625.231-.087.56-.06.784.065ZM18.16 4.223c-.614.164-1.078.605-1.305 1.239l-.089.249v29.42l.076.245c.197.636.616 1.07 1.243 1.288l.223.078 7.7.01c4.353.004 7.702-.005 7.702-.022 0-.017-.046-.21-.102-.43a12.05 12.05 0 0 1-.26-1.458l-.022-.22H18.839V10.597l10.956.01 10.956.008.009 7.049c.006 5.603.017 7.048.05 7.047a6.6 6.6 0 0 0 .37-.054 9.87 9.87 0 0 1 .985-.075l.66-.02-.01-9.46-.008-9.46-.082-.21c-.186-.474-.491-.832-.897-1.05-.424-.228-.42-.228-3.23-.228-2.393 0-2.528.002-2.51.06.086.283.117 1.27.054 1.69-.046.298-.26.742-.463.956-.201.213-.46.389-.72.49l-.204.078-4.866.01c-3.328.005-4.92-.003-5.04-.029-.48-.101-.992-.496-1.206-.93-.203-.411-.221-.534-.202-1.375.01-.417.028-.802.041-.855l.025-.096-2.548.002c-2.397.002-2.563.006-2.799.069Zm7.023 8.273c-.06.044-.465.528-.9 1.077a36.268 36.268 0 0 1-.814 1.007c-.012.005-.176-.127-.364-.292-.362-.318-.44-.364-.604-.364-.32 0-.524.394-.347.671.05.08.79.742 1.118 1.002a.443.443 0 0 0 .475.016c.121-.078 2.003-2.439 2.07-2.597.071-.165.033-.339-.107-.482-.095-.097-.14-.116-.267-.116a.424.424 0 0 0-.26.079Zm-14.26.611c-1.49.044-2.386.208-2.87.524-.37.241-.749.569-.955.825-.508.63-1.21 1.79-2.172 3.583-.175.327-.374.653-.442.723-.167.173-.346.218-.756.191-.81-.053-1.524-.063-1.876-.025-1.12.12-1.626.521-1.431 1.132.157.49.51.768 1.423 1.114.847.323.873.374.462.93-.707.956-1.143 2.403-1.284 4.26-.027.343-.035 1.94-.028 5.072l.01 4.57.076.167c.112.248.386.525.636.643l.214.1h2.98l.228-.11c.28-.135.487-.34.607-.602.088-.193.091-.22.108-1.04.019-.93.026-.964.25-1.103.107-.067.21-.068 4.624-.069h4.514v-1.786h-1.286c-1.362 0-1.43-.007-1.57-.168-.079-.09-.364-1.063-.364-1.245 0-.162.077-.308.206-.386.084-.05.265-.057 1.555-.057h1.46v-8.756h-4.875c-3.295 0-4.916-.012-5.003-.037a.764.764 0 0 1-.424-.373.675.675 0 0 1-.013-.446c.057-.153 3.05-4.926 3.247-5.178a3.283 3.283 0 0 1 1.39-1.012c.604-.225.552-.222 3.236-.222h2.441v-1.243l-1.996.007a212.05 212.05 0 0 0-2.321.017Zm16.739.672c-.533.248-.578 1.024-.08 1.361l.143.097 4.598.01 4.598.008.184-.098c.265-.141.39-.357.39-.67 0-.19-.016-.26-.095-.398a.942.942 0 0 0-.238-.262l-.14-.096-4.612-.008c-4.402-.008-4.617-.005-4.748.056Zm-2.437 3.927c-.04.016-.44.492-.888 1.057-.447.565-.826 1.042-.842 1.06-.016.017-.158-.082-.329-.23a16.42 16.42 0 0 0-.4-.338c-.187-.147-.514-.077-.62.131-.062.123-.066.34-.008.445.053.096 1.111 1.023 1.217 1.066.124.05.29.037.39-.03.148-.097 2.074-2.545 2.1-2.668.056-.26-.151-.53-.404-.526a.75.75 0 0 0-.216.033Zm2.437 1.326c-.533.248-.578 1.024-.08 1.362l.143.097 4.577.01c5.053.01 4.734.024 4.968-.21.172-.172.223-.299.225-.553 0-.188-.016-.257-.095-.395a.94.94 0 0 0-.238-.263l-.14-.095-4.612-.008c-4.402-.008-4.617-.006-4.748.055Zm-2.458 3.93c-.033.02-.425.496-.87 1.059-.447.563-.824 1.037-.839 1.054-.015.018-.159-.084-.322-.227a8.885 8.885 0 0 0-.404-.338c-.2-.146-.517-.08-.623.13a.52.52 0 0 0 .003.45c.057.098 1.107 1.022 1.207 1.063a.499.499 0 0 0 .39-.032c.146-.096 2.073-2.547 2.1-2.67a.484.484 0 0 0-.16-.437c-.078-.068-.14-.089-.262-.088a.585.585 0 0 0-.22.036Zm2.664 1.256c-.382.067-.634.377-.634.779 0 .331.213.633.511.725.095.029 1.36.04 4.65.039 5.09 0 4.659.023 4.92-.272.396-.45.147-1.154-.45-1.268-.208-.04-8.77-.042-8.997-.003Zm-22.683.321c.075.021.861.427 1.747.902 1.198.643 1.646.9 1.75 1.006.433.44.284 1.237-.284 1.526l-.164.083H6.35c-2.122 0-2.045.008-2.455-.272a1.526 1.526 0 0 1-.646-1.232c0-.398.096-.958.204-1.19.172-.37.51-.67.892-.795.215-.071.634-.085.84-.028Zm36.268 1.45c-1.82.268-3.356 1.072-4.625 2.42-1.148 1.22-1.866 2.735-2.114 4.46-.07.487-.078 1.665-.015 2.087.285 1.906 1.016 3.428 2.25 4.69 2.63 2.689 6.763 3.126 9.867 1.044.497-.333.75-.542 1.193-.985a7.361 7.361 0 0 0 1.063-1.309c1.536-2.35 1.734-5.415.515-7.959-1.101-2.295-3.155-3.894-5.632-4.384-.408-.08-.564-.092-1.32-.102-.596-.007-.955.004-1.182.037ZM25.19 28.23c-.056.04-1.595 1.943-1.696 2.097-.012.019-.166-.09-.342-.244a9.318 9.318 0 0 0-.405-.339c-.105-.074-.314-.077-.447-.006-.19.1-.267.41-.15.607.057.094 1.04.962 1.185 1.043a.41.41 0 0 0 .393-.014c.146-.082 2.09-2.533 2.12-2.67a.485.485 0 0 0-.16-.437c-.12-.103-.378-.122-.498-.037Zm2.644 1.242a.82.82 0 0 0-.565.51 1.105 1.105 0 0 0-.027.337c.02.276.148.469.402.6l.185.096h5.94l.143-.382c.079-.21.228-.558.33-.773.104-.214.188-.397.188-.405 0-.027-6.488-.01-6.596.017Zm18.44.508c.387.184.614.572.585 1-.009.14-.044.287-.09.38-.078.155-4.273 5.459-4.554 5.756-.305.324-.755.419-1.128.238-.19-.092-2.488-2.068-2.7-2.322-.321-.383-.29-1.004.07-1.371.216-.22.37-.281.719-.281.398 0 .406.005 1.383.855.421.368.779.668.794.668.015 0 .863-1.052 1.884-2.338 1.02-1.286 1.897-2.374 1.947-2.42a1.033 1.033 0 0 1 1.09-.165Z" fill="#fff"/></svg>