<svg width="46" height="38" fill="none" xmlns="http://www.w3.org/2000/svg"><path fill-rule="evenodd" clip-rule="evenodd" d="M26.684.035a1.74 1.74 0 0 0-.704.315c-.459.33-.72.816-.759 1.418-.028.435-.152.67-.453.858-.1.063-.166.07-.74.089-.57.017-.653.027-.865.101a1.695 1.695 0 0 0-1.09 1.185c-.058.225-.065 1.16-.01 1.346.052.173.261.401.45.49l.16.074h4.365c2.912 0 4.405-.01 4.484-.033.179-.05.376-.219.48-.411.09-.167.095-.191.106-.649.008-.347-.003-.54-.039-.713a1.698 1.698 0 0 0-1.185-1.315c-.124-.039-.348-.06-.788-.074-.595-.02-.62-.024-.761-.107a.88.88 0 0 1-.365-.4 2.237 2.237 0 0 1-.072-.451C28.832.949 28.362.335 27.616.084a1.963 1.963 0 0 0-.932-.05Zm.793 1.046c.296.162.444.417.444.767a.854.854 0 0 1-.53.807c-.177.079-.528.067-.712-.023a.879.879 0 0 1-.446-1.045.978.978 0 0 1 .522-.566.949.949 0 0 1 .722.06Zm-11.12 2.74c-.564.149-.991.547-1.2 1.12l-.082.226v26.618l.07.222c.181.575.567.968 1.144 1.165l.205.07 7.084.009c4.004.005 7.085-.003 7.085-.02 0-.014-.042-.19-.093-.388a10.778 10.778 0 0 1-.239-1.32l-.02-.198h-13.33V9.587l10.08.008 10.08.008.007 6.377c.007 5.07.016 6.378.048 6.377.021 0 .174-.023.338-.05a9.24 9.24 0 0 1 .907-.067l.607-.018-.008-8.56-.008-8.559-.076-.19a1.79 1.79 0 0 0-.824-.95c-.391-.206-.387-.205-2.972-.206-2.202 0-2.326.003-2.31.055.08.255.108 1.15.05 1.53-.042.268-.24.67-.426.864a1.863 1.863 0 0 1-.662.442l-.188.071-4.477.009c-3.062.006-4.527-.002-4.637-.025-.44-.092-.912-.45-1.109-.842-.187-.372-.203-.484-.186-1.244.009-.377.026-.725.038-.773l.023-.087-2.344.001c-2.206.002-2.358.006-2.575.063Zm6.462 7.485c-.055.04-.427.478-.828.975-.4.496-.737.906-.749.91-.01.005-.162-.114-.335-.264-.333-.287-.404-.33-.555-.33-.295 0-.482.357-.32.608.047.072.728.672 1.029.906a.414.414 0 0 0 .437.015c.111-.07 1.842-2.207 1.905-2.35.065-.15.03-.306-.1-.436-.087-.087-.128-.105-.245-.105a.395.395 0 0 0-.24.071ZM9.7 11.86c-1.373.04-2.196.188-2.642.474-.34.218-.688.514-.878.746-.467.571-1.113 1.62-1.998 3.242-.162.296-.345.59-.408.654-.153.157-.317.197-.694.173-.747-.048-1.403-.057-1.727-.023-1.03.109-1.496.472-1.316 1.024.144.444.47.695 1.309 1.009.78.291.803.337.425.84-.65.866-1.052 2.175-1.182 3.854-.024.311-.032 1.756-.025 4.59l.01 4.135.069.15c.103.225.355.476.586.583l.196.091h2.742l.21-.1c.257-.122.448-.309.558-.545.081-.174.084-.2.1-.94.017-.842.024-.873.23-.999.098-.06.192-.062 4.253-.062h4.153V29.14H12.49c-1.253 0-1.315-.007-1.444-.152-.073-.082-.335-.962-.335-1.127a.4.4 0 0 1 .19-.349c.077-.046.243-.052 1.43-.052h1.342v-7.923H9.188c-3.032 0-4.522-.01-4.603-.033a.7.7 0 0 1-.39-.337.601.601 0 0 1-.012-.404c.053-.138 2.806-4.457 2.987-4.685a3.018 3.018 0 0 1 1.28-.916c.555-.203.507-.2 2.976-.2h2.246v-1.125l-1.836.007c-1.01.003-1.97.01-2.135.015Zm15.398.607c-.49.225-.532.927-.072 1.232l.131.088 4.23.008 4.23.008.17-.088c.243-.128.359-.324.359-.607 0-.171-.016-.235-.089-.36a.855.855 0 0 0-.218-.237l-.13-.087-4.242-.007c-4.05-.007-4.248-.005-4.369.05Zm-2.242 3.554c-.037.015-.404.445-.816.956-.412.511-.76.942-.775.958-.014.017-.145-.073-.303-.207-.152-.13-.318-.268-.368-.306-.172-.133-.473-.07-.57.119a.516.516 0 0 0-.008.402c.05.088 1.023.926 1.12.964a.424.424 0 0 0 .36-.026c.135-.088 1.907-2.303 1.931-2.415.052-.235-.14-.478-.372-.475a.703.703 0 0 0-.199.03Zm2.242 1.2c-.49.224-.532.926-.072 1.232l.13.087 4.212.009c4.648.01 4.355.022 4.57-.19.158-.155.205-.27.207-.5 0-.17-.015-.233-.088-.357a.857.857 0 0 0-.218-.238l-.13-.086-4.242-.008c-4.05-.007-4.248-.005-4.369.05Zm-2.26 3.556c-.031.017-.391.448-.802.957-.41.51-.757.939-.771.954-.014.016-.146-.076-.297-.206a8.154 8.154 0 0 0-.37-.306c-.184-.131-.477-.071-.574.118a.464.464 0 0 0 .003.408c.053.088 1.018.924 1.11.962a.47.47 0 0 0 .359-.03c.134-.087 1.907-2.304 1.932-2.415a.434.434 0 0 0-.146-.396c-.073-.061-.13-.08-.243-.08a.546.546 0 0 0-.202.034Zm2.45 1.136a.688.688 0 0 0-.584.704c0 .3.196.573.47.656.088.026 1.253.036 4.278.036 4.684-.001 4.287.02 4.527-.247.364-.407.135-1.044-.413-1.147-.192-.036-8.07-.038-8.278-.002Zm-20.869.29c.07.02.793.386 1.608.816 1.103.581 1.515.814 1.61.91.398.398.261 1.12-.262 1.38l-.15.076H5.492c-1.952 0-1.88.008-2.258-.246a1.374 1.374 0 0 1-.595-1.115c0-.36.089-.867.188-1.076a1.41 1.41 0 0 1 .821-.72 1.75 1.75 0 0 1 .772-.025Zm33.368 1.311c-1.675.243-3.088.97-4.256 2.19-1.056 1.104-1.717 2.475-1.944 4.036-.065.44-.073 1.506-.015 1.887.263 1.725.935 3.102 2.071 4.245a7.213 7.213 0 0 0 9.077.944 6.17 6.17 0 0 0 1.098-.891c.407-.401.664-.712.978-1.184a7.309 7.309 0 0 0 .473-7.201 7.254 7.254 0 0 0-5.181-3.967c-.375-.073-.52-.084-1.214-.092-.549-.007-.879.003-1.087.033Zm-14.963 2.029c-.052.036-1.468 1.757-1.56 1.897-.012.017-.153-.082-.316-.221a8.534 8.534 0 0 0-.372-.307c-.097-.067-.29-.07-.412-.006-.174.091-.245.372-.137.55.052.085.957.87 1.09.944a.382.382 0 0 0 .362-.013c.133-.075 1.922-2.292 1.949-2.416a.434.434 0 0 0-.146-.395c-.111-.094-.348-.11-.458-.033Zm2.432 1.123a.75.75 0 0 0-.52.462.982.982 0 0 0-.025.304c.018.25.137.425.37.543l.17.087h5.465l.132-.345c.072-.19.21-.505.304-.7.095-.194.172-.359.172-.366 0-.025-5.968-.01-6.068.015Zm16.965.46a.92.92 0 0 1 .538.905.975.975 0 0 1-.084.343c-.07.14-3.93 4.94-4.188 5.208-.281.293-.695.38-1.038.215-.175-.083-2.29-1.87-2.485-2.1-.295-.347-.265-.909.065-1.241.199-.2.34-.254.661-.254.366 0 .374.004 1.273.774.387.332.716.604.73.604.014 0 .794-.952 1.734-2.115a123.313 123.313 0 0 1 1.79-2.19.963.963 0 0 1 1.004-.15Z" fill="#fff"/></svg>