<svg width="46" height="53" viewBox="0 0 46 53" fill="none" xmlns="http://www.w3.org/2000/svg"><path fill-rule="evenodd" clip-rule="evenodd" d="M21.7 12.374c-.208.073-.743.437-1.203.82-.457.378-.89.687-.963.687-.073 0-.502-.081-.955-.181-1.965-.435-2.913.073-3.745 2.005-.492 1.142-.552 1.198-1.552 1.48-1.174.331-1.727.736-2.122 1.555-.299.62-.352 1.05-.265 2.132.04.497.038.96-.005 1.082-.04.118-.42.587-.843 1.044C9.18 23.934 9 24.313 9 25.218c0 .685.134 1.075.703 2.048.307.525.459.877.459 1.065 0 .154-.116.63-.258 1.056-.195.589-.26.934-.263 1.428-.01 1.156.386 1.773 1.673 2.607.44.284.85.553.914.596.066.045.213.583.345 1.261.322 1.652.632 2.15 1.636 2.634.35.168.64.222 1.453.273.559.034 1.077.1 1.152.145.075.045.406.447.735.892.888 1.205 1.497 1.547 2.615 1.47.466-.032.746-.12 1.42-.443.46-.222.924-.404 1.028-.404.105 0 .568.182 1.029.404.673.324.954.411 1.42.444 1.118.076 1.727-.266 2.615-1.47.329-.446.66-.848.734-.893.075-.046.594-.111 1.153-.146.812-.05 1.103-.104 1.452-.272 1.005-.483 1.314-.982 1.636-2.634.132-.678.28-1.216.346-1.261.063-.044.474-.312.913-.596 1.288-.834 1.683-1.45 1.674-2.607-.004-.494-.068-.84-.264-1.428-.141-.427-.257-.902-.257-1.056 0-.188.151-.54.458-1.065.57-.973.704-1.363.704-2.048 0-.905-.18-1.284-1.048-2.22-.423-.457-.802-.926-.843-1.044-.042-.123-.044-.585-.004-1.082.087-1.083.033-1.513-.265-2.132-.386-.8-.938-1.213-2.055-1.542-1.092-.322-1.14-.366-1.622-1.493-.474-1.108-.827-1.555-1.494-1.897-.593-.304-1.194-.33-2.294-.097-1.074.226-.909.277-1.98-.605-.4-.33-.898-.657-1.118-.735-.492-.173-1.307-.172-1.803.003Zm1.247 2.001c.112.081.474.376.804.655 1.066.904 1.54 1.02 3.058.748 1.368-.245 1.35-.254 1.86.967.64 1.533.997 1.868 2.492 2.344 1.247.396 1.204.324 1.204 2.024 0 1.31.014 1.438.198 1.83.113.24.495.728.883 1.13 1.033 1.066 1.029 1.042.347 2.18-.62 1.035-.718 1.308-.72 1.992-.002.452.069.83.288 1.54.16.517.29 1.002.29 1.078 0 .213-.393.576-1.069.988-1.206.736-1.574 1.273-1.791 2.61-.25 1.543-.331 1.65-1.246 1.653-.891.002-1.698.152-2.078.385-.371.227-.778.668-1.391 1.508-.6.82-.625.823-1.782.268-.938-.451-1.004-.47-1.682-.47-.677 0-.743.019-1.682.47-1.156.555-1.182.551-1.781-.268-.614-.84-1.02-1.28-1.391-1.508-.38-.233-1.187-.383-2.079-.386-.914-.002-.995-.11-1.245-1.651-.082-.507-.219-.988-.353-1.247-.253-.485-.807-1.027-1.346-1.316-.59-.315-1.071-.717-1.124-.938-.029-.12.071-.59.247-1.16.323-1.045.38-1.802.18-2.39-.06-.176-.316-.666-.567-1.09-.252-.423-.483-.853-.514-.957-.084-.274.064-.504.82-1.284.392-.404.764-.881.88-1.129.19-.401.203-.521.203-1.838 0-1.696-.047-1.618 1.203-2.019.967-.31 1.539-.644 1.863-1.089.118-.162.386-.697.595-1.189.561-1.318.561-1.318 2.024-1.02 1.292.263 1.903.104 2.92-.759.78-.661.989-.808 1.147-.808.071 0 .222.066.335.146Zm-4.324 5.065c-.858.151-1.806.94-2.172 1.804-.237.558-.288 1.5-.116 2.121.602 2.165 3.2 2.934 4.77 1.413.281-.272.578-.67.723-.968.22-.456.245-.59.245-1.332 0-.737-.025-.875-.237-1.302-.463-.936-1.233-1.55-2.165-1.73-.538-.103-.505-.103-1.048-.006Zm5.511 1.803c-.188.157-.473.652-1.813 3.146-.45.835-1.357 2.516-2.018 3.734a154.89 154.89 0 0 0-1.58 2.975c-.38.76-.38.761-.258 1.126.252.756 1.074.987 1.579.442.125-.134.836-1.378 1.58-2.763 1.344-2.502 1.58-2.941 3.064-5.688 1.06-1.964 1.022-1.873.969-2.287-.067-.523-.427-.84-.95-.837-.246.001-.46.058-.573.152Zm-4.386.418c.544.373.472 1.407-.121 1.728a.9.9 0 0 1-.973-.038c-.328-.21-.463-.465-.463-.874a.98.98 0 0 1 1.557-.816Zm5.728 5.765c-.878.2-1.66.845-2.082 1.716-.217.449-.242.586-.242 1.325 0 .738.025.876.236 1.303.992 2.002 3.378 2.393 4.814.787.514-.575.736-1.107.783-1.88.11-1.755-1.054-3.162-2.72-3.291a3.22 3.22 0 0 0-.79.04Zm1.094 2.169c.146.093.31.256.364.363.157.306.12.81-.079 1.103-.538.791-1.753.38-1.753-.594 0-.82.803-1.297 1.468-.872Z" fill="#3D5F95"/><path fill-rule="evenodd" clip-rule="evenodd" d="M21.88.517c-2.079 1.324-5.167 2.97-7.653 4.081C10.194 6.4 5.125 7.955.825 8.71c-.207.036-.389.153-.565.363l-.26.31.032 8.306c.03 7.874.04 8.372.205 9.565 1.425 10.32 7.313 18.84 16.123 23.331a29.36 29.36 0 0 0 5.715 2.168L23 53l.933-.246c6.341-1.674 11.96-5.482 15.902-10.777 2.754-3.7 4.553-7.746 5.527-12.426.573-2.756.576-2.82.608-11.954L46 9.372l-.274-.308c-.25-.283-.345-.322-1.145-.476-4.957-.955-9.517-2.455-14.4-4.736-1.535-.717-4.58-2.395-6.066-3.343-1.066-.68-1.156-.68-2.235.008Zm1.725 2.089c6.194 3.728 12.662 6.34 19.026 7.682.593.126 1.163.261 1.265.302l.187.074-.002 6.059c-.003 6.531-.064 8.501-.322 10.412-1.12 8.281-5.726 15.683-12.551 20.167-2.207 1.45-5.24 2.812-7.564 3.397-.628.158-.659.158-1.287 0-2.283-.575-5.258-1.902-7.467-3.331-3.204-2.074-6.242-5.139-8.272-8.347-.954-1.506-1.04-1.66-1.713-3.04-1.185-2.431-2.111-5.298-2.524-7.815-.376-2.294-.4-2.836-.44-10.277-.023-4.12-.008-7.184.034-7.228.04-.043.633-.196 1.316-.34 3.389-.718 7.32-1.961 10.704-3.385l1.038-.437c1.57-.66 4.986-2.45 6.847-3.586a55.5 55.5 0 0 1 1.103-.663 8.34 8.34 0 0 1 .622.356Zm-1.278 3.096c-.359.336-.43.98-.15 1.351.475.631 1.357.565 1.7-.127.35-.711-.12-1.468-.914-1.468-.294 0-.431.053-.636.244Zm-4.265 2.237c-3.919 1.9-8.278 3.484-12.409 4.513-.476.118-.686.221-.892.436l-.27.281v5.867c0 7.223.045 7.814.632 8.297.351.29.8.245 1.175-.116l.31-.298-.041-.81c-.023-.445-.042-3.27-.042-6.279v-5.47l.58-.156a69.328 69.328 0 0 0 8.301-2.816 64.667 64.667 0 0 0 4.015-1.828c.352-.173.59-.576.591-.999 0-.248-.064-.4-.27-.632-.416-.473-.685-.471-1.68.01Zm22.236 4.612c-.096.02-.301.173-.456.34l-.282.305-.047 6.356c-.05 6.855-.042 6.723-.542 9.005a23.891 23.891 0 0 1-6.09 11.378c-1.845 1.93-3.753 3.38-5.936 4.512-.953.494-1.205.758-1.204 1.26 0 .308.243.725.512.881.369.214.746.137 1.651-.338 6.406-3.364 11.142-9.547 12.888-16.827.662-2.758.662-2.756.696-9.858l.03-6.343-.184-.245c-.167-.224-.637-.502-.797-.473a18.35 18.35 0 0 0-.239.047ZM22.483 46.234c-.434.246-.595.853-.354 1.34.184.372.441.521.898.521.35 0 .444-.04.688-.295.24-.252.282-.355.282-.703 0-.349-.042-.452-.282-.704-.237-.247-.342-.294-.644-.292-.198.002-.463.062-.588.133Z" fill="#fff"/></svg>