<svg width="99" height="99" fill="none" xmlns="http://www.w3.org/2000/svg"><g filter="url(#a)" fill-rule="evenodd" clip-rule="evenodd"><path d="M12.03 59.573c.648-.106 1.86-.301 2.694-.435l1.516-.242.48 1.45c1.351 4.076 3.297 7.615 6.113 11.118.707.879 3.888 4.06 4.752 4.753 3.576 2.863 7.03 4.755 11.158 6.11a33.577 33.577 0 0 0 10.22 1.708c4.119.058 7.816-.523 11.656-1.833 4.225-1.441 7.802-3.476 11.296-6.425.845-.714 3.075-2.944 3.86-3.861 4.64-5.422 7.46-12.147 8.132-19.39.108-1.16.137-3.942.055-5.216a34.407 34.407 0 0 0-11.086-23.18c-3.731-3.42-7.66-5.75-12.356-7.323-2.838-.95-5.656-1.526-8.473-1.73-1.026-.074-3.68-.081-4.757-.013-4.605.291-9.244 1.557-13.414 3.66-1.178.594-3.165 1.791-4.254 2.564-5.164 3.665-9.234 8.653-11.742 14.391-.134.305-.244.564-.247.577-.003.02 3.946 1.684 4.014 1.691.017.002.195-.362.397-.809 1.046-2.319 2.26-4.312 3.932-6.455.795-1.02 3.454-3.71 4.478-4.53 5.547-4.446 12.029-6.74 19.048-6.744 6.847-.004 13.266 2.21 18.69 6.448 1.612 1.26 4.037 3.736 5.318 5.43 6.616 8.751 7.972 20.293 3.572 30.394-1 2.296-2.513 4.772-4.21 6.89-.822 1.025-3.56 3.732-4.58 4.529-3.294 2.57-6.933 4.419-10.765 5.469a30.389 30.389 0 0 1-17.988-.614c-4.084-1.423-7.635-3.597-10.808-6.617-3.57-3.399-6.155-7.442-7.726-12.09l-.358-1.06 1.214-.194c3.894-.624 4.7-.759 4.731-.79.032-.032-9.039-12.269-9.094-12.269-.027 0-6.568 14.557-6.615 14.721-.021.077.315.052 1.148-.083Z" fill="#FAFAFA"/><path d="M59.881 37.721c-.84.398-1.603.809-1.697.914-.306.342-.24.58.696 2.518 3.754 7.772 4.882 10.079 4.984 10.191.066.072.233.168.373.214.288.094.552-.007 2.478-.944 1.137-.553 1.348-.753 1.27-1.207-.022-.132-.785-1.775-1.696-3.651l-2.59-5.345c-1.555-3.215-1.502-3.118-1.753-3.27-.128-.078-.302-.141-.386-.141-.084 0-.84.324-1.679.721Zm-24.814-.457a.945.945 0 0 0-.362.283c-.102.156-3.714 7.674-5.217 10.863-.52 1.102-.587 1.41-.376 1.73.071.108.701.449 1.694.916 1.368.645 1.618.739 1.859.7a.836.836 0 0 0 .432-.219c.213-.243 5.837-12.053 5.837-12.257 0-.367-.216-.6-.82-.886-2.766-1.31-2.69-1.282-3.047-1.13Zm13.24 2.466c-.635.107-1.19.298-1.982.683l-.777.377h-1.616c-.889 0-2.181.022-2.873.05l-1.256.049-.334.576c-.184.317-.42.725-.523.907l-.188.332 1.996-.03c1.738-.027 2.194-.003 1.931.1-.149.059-.621.772-.767 1.158-.183.486-.277 1.03-.389 2.241-.076.824-.245 1.613-.382 1.782-.159.195-.234.723-.148 1.04.295 1.089 1.804 1.239 3.51.35.779-.405 1.753-1.682 2.092-2.742.267-.834.538-1.198 1.094-1.469.383-.187.52-.212 1.16-.212h.724l5.313 4.487c2.921 2.468 5.404 4.597 5.517 4.73.583.688.714 1.486.327 1.99-.286.373-.57.506-1.082.506-.7 0-.277.268-6.297-3.981-1.932-1.364-1.992-1.401-2.227-1.401-.491 0-.82.627-.526 1 .088.11 1.164.91 2.391 1.776l3.377 2.383c1.28.904 1.668 1.281 1.793 1.74.07.262.062.356-.054.59-.298.606-.948.778-1.663.442-.21-.099-1.768-1.156-3.461-2.35-2.706-1.906-3.114-2.17-3.364-2.17-.308 0-.584.218-.625.493-.064.438.018.512 2.547 2.283 3.03 2.123 3.49 2.565 3.49 3.352 0 .236-.05.355-.224.528-.269.267-.55.335-.988.237-.523-.117-.771-.272-3.248-2.035-1.292-.92-2.416-1.673-2.497-1.673-.261 0-.579.217-.661.452-.163.463-.055.575 1.854 1.928.98.694 1.802 1.315 1.826 1.378.068.176-.144.61-.37.757-.253.165-.895.17-1.277.011-.229-.096-.297-.176-.365-.428-.185-.68-.9-1.176-1.63-1.13-.306.02-.456-.013-.67-.145-.254-.156-.28-.206-.312-.584a1.794 1.794 0 0 0-.858-1.366c-.34-.208-.436-.23-1.047-.234-.587-.005-.696-.027-.854-.175-.145-.135-.182-.25-.185-.565-.01-1.128-1.015-1.99-2.146-1.84-.302.039-.386.022-.498-.1-.117-.13-.124-.198-.051-.535.19-.878-.267-1.728-1.137-2.12a1.786 1.786 0 0 0-1.2-.087c-.244.07-.252.063-.962-.777-.676-.8-1.602-1.982-1.801-2.296-.05-.079-.106-.109-.126-.067-.019.041-.237.433-.484.87l-.449.795.16.229a25.787 25.787 0 0 0 1.503 1.859c.279.312.533.61.564.663.035.059-.217.477-.662 1.1-.945 1.32-.948 1.326-1.04 1.74-.108.476.012 1.017.325 1.48.65.959 2.114 1.053 2.939.19.16-.167.244-.221.207-.132-.035.084-.08.35-.1.59-.087 1.031.643 1.896 1.689 2.003.52.053.956-.074 1.391-.404.244-.185.338-.227.294-.13-.035.077-.078.34-.095.584a1.84 1.84 0 0 0 1.09 1.842c.719.332 1.768.183 2.156-.308.13-.165.134-.154.134.448 0 .545.024.654.208.93a1.62 1.62 0 0 0 1.346.725c.608-.001 1-.221 1.431-.805.192-.259.358-.48.369-.492.01-.011.22.031.466.095 1.28.331 2.592-.118 3.093-1.057.1-.19.218-.33.26-.31 1.549.696 2.455.66 3.296-.13.433-.407.71-.979.71-1.466 0-.243.016-.262.172-.212.094.03.36.055.591.055 1.26.002 2.259-.916 2.349-2.157l.036-.504.43-.048c1.31-.147 2.298-1.221 2.298-2.498 0-.597-.148-1.1-.49-1.665l-.268-.442.448-.89.45-.889-2.289-4.696a1451.545 1451.545 0 0 1-2.615-5.386l-.327-.689-.984-.045c-.697-.033-1.206-.104-1.747-.245-2.047-.534-2.518-.643-3.261-.753-.836-.123-2.28-.143-2.895-.04Z" fill="#3D5F95"/></g><defs><filter id="a" x="6.883" y="15.017" width="81.127" height="77.022" filterUnits="userSpaceOnUse" color-interpolation-filters="sRGB"><feFlood flood-opacity="0" result="BackgroundImageFix"/><feColorMatrix in="SourceAlpha" values="0 0 0 0 0 0 0 0 0 0 0 0 0 0 0 0 0 0 127 0" result="hardAlpha"/><feOffset dy="4"/><feGaussianBlur stdDeviation="2"/><feComposite in2="hardAlpha" operator="out"/><feColorMatrix values="0 0 0 0 0 0 0 0 0 0 0 0 0 0 0 0 0 0 0.25 0"/><feBlend in2="BackgroundImageFix" result="effect1_dropShadow_279_11012"/><feBlend in="SourceGraphic" in2="effect1_dropShadow_279_11012" result="shape"/></filter></defs></svg>