<svg width="86" height="82" fill="none" xmlns="http://www.w3.org/2000/svg"><g filter="url(#a)"><path fill-rule="evenodd" clip-rule="evenodd" d="M57.385 5.844c-8.276-3.49-17.564-.921-25.728 2.736-7.662 3.432-13.733 9.187-17.534 16.643-4.068 7.979-6.853 17.037-3.976 25.55 2.99 8.848 10.572 15.214 19.084 19.149 8.696 4.02 18.37 5.127 27.521 2.395 9.962-2.972 20.495-8.074 24.067-17.79 3.473-9.446-2.765-19.124-7.149-28.23-3.923-8.15-7.924-16.927-16.285-20.453Z" fill="url(#b)" shape-rendering="crispEdges"/></g><defs><linearGradient id="b" x1="80.572" y1="47.621" x2="9.673" y2="17.12" gradientUnits="userSpaceOnUse"><stop stop-color="#3D5F95"/><stop offset="1" stop-color="#3D5F95" stop-opacity=".34"/></linearGradient><filter id="a" x=".965" y=".189" width="84.865" height="81.63" filterUnits="userSpaceOnUse" color-interpolation-filters="sRGB"><feFlood flood-opacity="0" result="BackgroundImageFix"/><feColorMatrix in="SourceAlpha" values="0 0 0 0 0 0 0 0 0 0 0 0 0 0 0 0 0 0 127 0" result="hardAlpha"/><feOffset dx="-2" dy="2"/><feGaussianBlur stdDeviation="3"/><feComposite in2="hardAlpha" operator="out"/><feColorMatrix values="0 0 0 0 0 0 0 0 0 0 0 0 0 0 0 0 0 0 0.25 0"/><feBlend in2="BackgroundImageFix" result="effect1_dropShadow_186_3058"/><feBlend in="SourceGraphic" in2="effect1_dropShadow_186_3058" result="shape"/></filter></defs></svg>