<svg width="161" height="50" viewBox="0 0 161 50" fill="none" xmlns="http://www.w3.org/2000/svg"><path d="M12.832 2.34c0 .291 0 .519-.032.714a3.37 3.37 0 0 1-.098.39c-.032.097-.065.195-.13.227a.47.47 0 0 1-.227.065c-.098 0-.195-.032-.357-.097-.163-.098-.325-.163-.553-.26a8.016 8.016 0 0 0-.747-.195 4.6 4.6 0 0 0-1.007-.098c-.52 0-.942.065-1.332.26-.357.195-.65.455-.877.845-.227.39-.39.877-.487 1.494-.098.585-.13 1.332-.13 2.21v2.208h4.223c.097 0 .195.033.26.065.097.065.162.163.227.293.065.13.098.292.13.487.065.195.065.422.065.715 0 .52-.065.91-.195 1.17-.13.227-.292.357-.487.357H6.855v17.672c0 .13-.033.228-.098.293-.065.097-.162.162-.292.227-.13.065-.293.098-.52.13-.227.033-.52.033-.845.033-.357 0-.617 0-.844-.033a2.303 2.303 0 0 1-.553-.13.601.601 0 0 1-.26-.227c-.064-.065-.097-.163-.097-.293V13.19H.65c-.228 0-.39-.13-.488-.358-.13-.26-.162-.65-.162-1.17 0-.292 0-.519.032-.714.033-.195.065-.357.13-.487.033-.13.13-.228.195-.293a.948.948 0 0 1 .293-.065h2.696V8.024c0-1.43.13-2.631.357-3.638.26-1.007.65-1.852 1.138-2.502.52-.65 1.137-1.137 1.916-1.43C7.504.163 8.414 0 9.454 0c.487 0 .974.033 1.43.13.486.097.844.195 1.104.325.227.13.422.227.487.292.097.098.162.228.227.358.033.13.098.324.098.52.032.194.032.454.032.714Zm13.19 28.555a.538.538 0 0 1-.162.39.971.971 0 0 1-.455.195c-.195.065-.488.065-.878.065-.357 0-.65 0-.877-.065-.195-.033-.357-.098-.454-.195a.538.538 0 0 1-.163-.39v-2.047a9.312 9.312 0 0 1-2.761 2.21 7.142 7.142 0 0 1-3.249.779c-1.007 0-1.884-.13-2.696-.422a5.736 5.736 0 0 1-2.08-1.202 5.795 5.795 0 0 1-1.332-1.917 7.266 7.266 0 0 1-.454-2.599c0-1.137.195-2.144.65-2.989a5.472 5.472 0 0 1 1.884-2.079c.812-.552 1.787-.975 2.989-1.234 1.169-.293 2.501-.423 3.963-.423h2.631V17.38c0-.747-.097-1.461-.227-2.046a3.8 3.8 0 0 0-.747-1.495 3.48 3.48 0 0 0-1.332-.91c-.552-.194-1.235-.292-2.047-.292-.845 0-1.624.098-2.274.325-.682.228-1.3.455-1.82.715-.487.292-.941.52-1.266.747-.358.228-.617.325-.78.325a.525.525 0 0 1-.292-.097c-.065-.065-.163-.13-.228-.26a1.518 1.518 0 0 1-.13-.455c-.032-.195-.032-.39-.032-.617 0-.39.032-.683.065-.877a1.34 1.34 0 0 1 .357-.618c.195-.195.52-.422.975-.682.455-.26 1.007-.52 1.624-.747a20.36 20.36 0 0 1 1.95-.552c.714-.13 1.461-.195 2.176-.195 1.364 0 2.534.162 3.476.487.942.325 1.722.812 2.307 1.462.584.617 1.007 1.43 1.299 2.371.26.942.39 2.014.39 3.281v13.645Zm-3.444-9.259H19.59c-.943 0-1.755.098-2.47.26-.682.162-1.267.422-1.754.78-.455.325-.78.715-1.007 1.202-.227.455-.325 1.007-.325 1.624 0 1.04.293 1.884.942 2.502.618.617 1.495.942 2.6.942.909 0 1.754-.26 2.533-.748.78-.487 1.592-1.234 2.47-2.274v-4.288Zm34.924 9.226c0 .13-.033.228-.065.293-.065.097-.163.162-.293.227-.097.065-.292.098-.52.13-.227.033-.487.033-.844.033-.358 0-.617 0-.845-.033-.227-.032-.422-.065-.552-.13-.13-.065-.228-.13-.293-.227a.648.648 0 0 1-.065-.293v-12.28c0-.844-.064-1.624-.227-2.339a6.024 6.024 0 0 0-.65-1.819 3.753 3.753 0 0 0-1.202-1.17c-.454-.26-1.007-.39-1.657-.39-.812 0-1.624.326-2.404.975-.812.683-1.689 1.625-2.663 2.892v14.131c0 .13-.033.228-.098.293a.544.544 0 0 1-.292.227c-.13.065-.293.098-.52.13-.227.033-.52.033-.845.033-.325 0-.617 0-.844-.033-.228-.032-.423-.065-.553-.13-.13-.065-.227-.13-.26-.227-.065-.065-.097-.163-.097-.293v-12.28c0-.844-.065-1.624-.227-2.339-.163-.682-.39-1.3-.683-1.819a4.012 4.012 0 0 0-1.17-1.17c-.486-.26-1.039-.39-1.689-.39-.78 0-1.591.326-2.404.975-.812.683-1.689 1.625-2.663 2.892v14.131c0 .13-.033.228-.098.293-.032.097-.13.162-.26.227s-.292.098-.52.13c-.227.033-.52.033-.877.033s-.617 0-.844-.033c-.228-.032-.423-.065-.553-.13-.13-.065-.227-.13-.26-.227-.064-.065-.064-.163-.064-.293V10.656c0-.13 0-.228.064-.293.033-.097.098-.162.228-.227s.292-.13.487-.13c.195-.033.455-.033.78-.033s.585 0 .78.033c.227 0 .357.065.487.13.097.065.195.13.227.227.065.065.098.163.098.293v2.664c1.04-1.267 2.111-2.21 3.118-2.794.975-.585 2.015-.877 3.022-.877.78 0 1.494.097 2.111.292.65.195 1.202.455 1.657.812.487.357.91.78 1.235 1.267a8.48 8.48 0 0 1 .844 1.625c.65-.748 1.235-1.365 1.787-1.852a12.54 12.54 0 0 1 1.657-1.267 8.79 8.79 0 0 1 1.527-.682 6.093 6.093 0 0 1 1.494-.195c1.235 0 2.242.227 3.086.682a6.023 6.023 0 0 1 2.015 1.82 7.69 7.69 0 0 1 1.072 2.696c.227 1.007.325 2.111.325 3.248v12.767Zm15.236-5.522c0 1.04-.195 1.949-.552 2.761-.358.812-.845 1.495-1.527 2.047-.65.552-1.43.974-2.34 1.267-.909.26-1.916.422-3.02.422a11.71 11.71 0 0 1-1.917-.162c-.618-.13-1.17-.26-1.657-.423-.488-.162-.877-.357-1.235-.52-.325-.194-.584-.357-.714-.52-.163-.13-.293-.357-.358-.616-.065-.26-.097-.65-.097-1.105 0-.293 0-.52.032-.715.033-.195.065-.357.098-.487.065-.098.13-.195.195-.26a.611.611 0 0 1 .26-.065c.162 0 .39.098.682.292.292.228.682.423 1.104.683.455.227.975.454 1.592.65.585.194 1.267.292 2.047.292a6.18 6.18 0 0 0 1.624-.195c.455-.13.877-.325 1.235-.585.357-.26.617-.617.812-1.007.195-.422.292-.91.292-1.462 0-.552-.162-1.04-.422-1.43-.26-.39-.65-.714-1.072-1.039a9.6 9.6 0 0 0-1.527-.78 69.405 69.405 0 0 1-1.722-.747c-.585-.26-1.17-.52-1.754-.844a7.623 7.623 0 0 1-1.527-1.17c-.422-.487-.812-1.04-1.072-1.69-.26-.616-.422-1.396-.422-2.306 0-.78.162-1.527.454-2.274a5.426 5.426 0 0 1 1.3-1.917c.552-.52 1.3-.974 2.144-1.3.877-.324 1.884-.486 3.021-.486.52 0 1.007.032 1.527.13.52.097.942.227 1.365.357.422.13.747.292 1.04.455.292.162.519.292.649.422.162.13.26.227.292.325.065.097.098.195.13.292 0 .13.033.26.065.423 0 .162.033.357.033.584 0 .26-.033.488-.033.683a1.827 1.827 0 0 1-.13.454.707.707 0 0 1-.162.26.602.602 0 0 1-.228.065c-.13 0-.324-.097-.552-.26-.26-.162-.552-.325-.942-.52a8.773 8.773 0 0 0-1.332-.52 5.857 5.857 0 0 0-1.754-.26c-.585 0-1.137.066-1.56.228-.454.13-.812.325-1.104.585-.293.26-.52.552-.65.91-.162.357-.227.747-.227 1.17 0 .584.13 1.071.422 1.461.26.422.617.747 1.072 1.04.455.325.975.584 1.56.812.552.26 1.136.487 1.754.747.584.26 1.17.552 1.754.845a8.02 8.02 0 0 1 1.56 1.137 5.055 5.055 0 0 1 1.072 1.624c.292.65.422 1.397.422 2.242Zm5.425 5.522c0 .13-.032.228-.065.293-.065.097-.162.162-.292.227-.13.065-.293.098-.52.13-.227.033-.52.033-.877.033-.325 0-.617 0-.845-.033-.227-.032-.39-.065-.52-.13-.162-.065-.26-.13-.292-.227-.065-.065-.065-.163-.065-.293V10.656c0-.098 0-.195.065-.293.032-.097.13-.162.292-.227.13-.033.293-.098.52-.13.228-.033.52-.033.845-.033.357 0 .65 0 .877.033.227.032.39.097.52.13.13.065.227.13.292.227a.938.938 0 0 1 .065.293v20.206Zm.39-26.996c0 .877-.162 1.462-.455 1.754-.325.325-.877.488-1.722.488-.812 0-1.364-.163-1.689-.455-.292-.325-.455-.91-.455-1.755 0-.877.163-1.461.487-1.786.293-.293.878-.455 1.69-.455.844 0 1.397.13 1.69.455.324.292.454.877.454 1.754Zm6.497 26.996c0 .13-.032.228-.097.293-.033.097-.13.162-.26.227s-.292.098-.52.13c-.227.033-.52.033-.877.033s-.617 0-.845-.033c-.227-.032-.422-.065-.552-.13-.13-.065-.227-.13-.26-.227-.065-.065-.097-.163-.097-.293V.91c0-.13.032-.228.097-.325.033-.098.13-.163.26-.228s.325-.097.552-.13a5.664 5.664 0 0 1 1.722 0c.228.033.39.065.52.13s.227.13.26.228a.549.549 0 0 1 .097.325v29.952Zm19.525-10.98c0 .585-.13 1.007-.422 1.234-.26.26-.585.39-.943.39H90.768c0 1.105.097 2.112.325 3.021.195.91.552 1.69 1.04 2.34.487.617 1.136 1.104 1.916 1.461.78.358 1.754.52 2.891.52.91 0 1.69-.065 2.404-.227.715-.163 1.3-.325 1.82-.52s.942-.39 1.267-.52c.325-.162.584-.26.747-.26a.37.37 0 0 1 .26.098c.065.032.13.13.195.227.032.098.065.26.097.423 0 .195.033.422.033.682 0 .195-.033.357-.033.52-.032.13-.032.26-.065.357a.55.55 0 0 1-.097.325c-.065.065-.098.162-.195.26-.065.065-.293.195-.682.39-.39.194-.878.357-1.462.552-.618.162-1.3.325-2.112.455-.78.162-1.624.227-2.501.227-1.56 0-2.924-.227-4.094-.682-1.17-.488-2.176-1.17-2.956-2.08-.812-.909-1.43-2.046-1.82-3.443-.422-1.364-.617-2.956-.617-4.808 0-1.722.228-3.281.65-4.678.422-1.365 1.007-2.534 1.82-3.509.78-.974 1.754-1.689 2.858-2.209 1.137-.52 2.404-.78 3.769-.78 1.494 0 2.761.26 3.801.748 1.039.52 1.916 1.202 2.599 2.079.649.845 1.137 1.852 1.462 3.021.324 1.17.487 2.404.487 3.704v.682Zm-3.509-1.105c.065-1.949-.357-3.476-1.202-4.58-.877-1.105-2.111-1.657-3.8-1.657-.845 0-1.625.162-2.275.52a5 5 0 0 0-1.624 1.364 7.58 7.58 0 0 0-1.007 1.982 9.782 9.782 0 0 0-.39 2.371h10.298Zm19.492 11.663c.13.195.163.39.163.52 0 .162-.065.26-.195.357-.13.098-.325.163-.617.195-.26.033-.618.033-1.04.033h-1.007c-.26-.033-.455-.065-.585-.13a1.757 1.757 0 0 1-.357-.195l-.195-.293-4.548-8.024-4.516 8.024c-.065.098-.13.195-.227.293a.943.943 0 0 1-.325.195c-.13.065-.325.097-.585.13h-.942c-.422 0-.747 0-1.007-.033-.26-.032-.455-.097-.552-.195-.13-.097-.195-.195-.163-.357 0-.13.065-.325.195-.52l5.88-9.843-5.588-9.519c-.097-.195-.162-.39-.162-.52s.065-.26.195-.357c.13-.098.325-.163.617-.195.26-.033.617-.033 1.072-.033.423 0 .715 0 .975.033.26 0 .455.065.585.097.13.033.227.098.324.163l.195.292 4.289 7.505 4.385-7.505c.065-.097.13-.195.195-.26a1.14 1.14 0 0 1 .293-.195c.13-.032.292-.097.519-.097.195-.033.488-.033.878-.033.422 0 .747 0 1.007.033.26.032.454.097.584.162.13.098.163.195.163.358a1.82 1.82 0 0 1-.228.552l-5.522 9.389 5.847 9.973Zm5.815-1.494c0 1.072-.162 1.787-.487 2.144-.325.325-.942.52-1.819.52-.845 0-1.43-.195-1.754-.52-.325-.357-.455-1.04-.455-2.08 0-1.071.162-1.754.487-2.11.325-.358.91-.52 1.787-.52.845 0 1.429.162 1.754.487.325.357.487 1.072.487 2.079Zm14.457-16.958v.812c-.032.227-.065.39-.097.52a.633.633 0 0 1-.163.292c-.032.065-.13.097-.26.097-.097 0-.227-.032-.39-.097a10.294 10.294 0 0 0-1.234-.39 3.278 3.278 0 0 0-.812-.097c-.358 0-.715.097-1.04.227-.325.162-.682.39-1.072.747a13.81 13.81 0 0 0-1.169 1.365c-.39.585-.845 1.3-1.332 2.111v13.287c0 .13-.033.228-.098.293a.601.601 0 0 1-.26.227c-.13.065-.325.098-.552.13-.227.033-.487.033-.845.033-.357 0-.617 0-.844-.033-.228-.032-.423-.065-.553-.13-.13-.065-.227-.13-.292-.227a.655.655 0 0 1-.065-.293V10.656c0-.13.033-.228.065-.293a.602.602 0 0 1 .26-.227c.13-.065.292-.13.487-.13.195-.033.455-.033.78-.033s.585 0 .78.033c.195 0 .357.065.487.13.097.065.195.13.227.227a.642.642 0 0 1 .065.293v2.956c.52-.812 1.007-1.494 1.462-1.982.455-.52.91-.91 1.3-1.202a4.695 4.695 0 0 1 1.202-.617c.422-.13.812-.162 1.234-.162.163 0 .39 0 .617.032.228 0 .455.065.715.13.26.033.487.13.682.195.195.065.358.13.423.227a.56.56 0 0 1 .195.195.98.98 0 0 0 .065.26c.032.098.032.26.032.455v.845Zm17.153 18.874c0 .13 0 .228-.065.293-.032.097-.13.162-.26.227s-.292.098-.487.13c-.195.033-.455.033-.747.033-.325 0-.585 0-.78-.033-.227-.032-.39-.065-.487-.13-.13-.065-.228-.13-.26-.227a.642.642 0 0 1-.065-.293V28.2c-1.072 1.266-2.144 2.176-3.184 2.76-1.072.586-2.144.878-3.216.878-1.267 0-2.339-.227-3.184-.682-.877-.422-1.559-1.04-2.111-1.82A7.757 7.757 0 0 1 142 26.64c-.228-1.007-.358-2.274-.358-3.736V10.656c0-.13.033-.228.065-.293.065-.097.163-.162.293-.227.13-.065.324-.13.552-.13.227-.033.52-.033.844-.033.325 0 .618 0 .845.033.228 0 .39.065.52.13s.227.13.292.227c.065.065.098.163.098.293v11.76c0 1.202.065 2.144.227 2.859.163.714.423 1.3.747 1.819.325.487.748.877 1.267 1.17.488.26 1.072.39 1.755.39.877 0 1.754-.326 2.599-.975.877-.65 1.786-1.625 2.761-2.892V10.656c0-.13.032-.228.065-.293.065-.097.162-.162.292-.227.13-.065.325-.13.52-.13.228-.033.52-.033.877-.033.325 0 .618 0 .845.033.195 0 .39.065.52.13s.227.13.292.227c.065.065.065.163.065.293v20.206ZM5.847 47.106c-.292.52-.584.942-.812 1.267a8.247 8.247 0 0 1-.65.747c-.227.163-.422.293-.65.358a2.607 2.607 0 0 1-.746.097c-.065 0-.163-.033-.228-.033-.097 0-.195-.032-.292-.032-.065-.032-.163-.065-.228-.097a.73.73 0 0 1-.162-.098c-.065-.065-.097-.13-.097-.195 0-.032 0-.065.032-.13v-.162c.033-.065.033-.13.065-.195 0-.065.033-.098.033-.163.032-.065.064-.097.097-.13.032-.032.065-.032.097-.032.033 0 .098 0 .13.032a.449.449 0 0 0 .13.098c.065.032.13.065.195.065a.96.96 0 0 0 .325.065c.13 0 .228-.033.325-.065a.864.864 0 0 0 .325-.195 1.53 1.53 0 0 0 .325-.325c.13-.162.26-.357.39-.552l-1.755-5.815c-.032-.098-.065-.163-.065-.228 0-.032 0-.097.033-.13a.248.248 0 0 1 .162-.065c.098 0 .195-.032.325-.032s.228.032.325.032c.065 0 .13.033.162.033l.098.097c0 .033.032.065.032.13l.91 3.021c.097.293.195.618.292.943.065.325.163.617.228.942.195-.358.39-.683.585-1.04.194-.325.39-.65.584-1.007l1.755-2.924c0-.032.032-.065.065-.097.032-.033.065-.065.13-.065.032-.033.097-.033.194-.033.065-.032.195-.032.325-.032h.293c.065.032.13.032.162.065.033.032.065.065.033.13 0 .032-.033.097-.065.162l-3.412 5.588Zm9.714-5.068c0 .097-.033.227-.065.357a1.51 1.51 0 0 1-.097.293c-.065.097-.098.13-.163.13s-.13-.033-.195-.13c-.097-.065-.195-.163-.325-.26-.162-.098-.324-.163-.552-.26-.195-.065-.487-.097-.812-.097-.357 0-.682.064-.975.194-.292.13-.552.325-.78.553a3.627 3.627 0 0 0-.617.78c-.194.292-.325.617-.454.941-.13.325-.195.65-.26.975a4.89 4.89 0 0 0-.098.942c0 .357.033.65.13.91.098.292.195.487.357.682.163.195.39.325.618.422.227.098.487.13.78.13.357 0 .617-.032.877-.097.227-.065.422-.163.617-.26.162-.098.292-.163.422-.227.13-.098.195-.13.293-.13.032 0 .064.032.097.065.033.032.033.065.033.13v.097c-.033.033-.033.097-.033.13 0 .065-.033.097-.033.162s-.032.098-.032.163c-.032.032-.032.097-.065.13 0 .032-.032.065-.097.13-.033.032-.13.097-.26.162-.163.098-.325.163-.553.26-.195.065-.422.13-.682.163-.26.064-.52.097-.812.097-.455 0-.845-.065-1.17-.195a2.437 2.437 0 0 1-.91-.585 2.676 2.676 0 0 1-.551-.942c-.13-.357-.195-.812-.195-1.3 0-.39.032-.811.097-1.234a9.44 9.44 0 0 1 .39-1.267c.162-.39.39-.78.617-1.137.26-.357.553-.65.877-.942.325-.26.683-.487 1.105-.617.422-.163.877-.26 1.364-.26.325 0 .585.065.877.13a3.3 3.3 0 0 1 .683.26c.195.097.325.195.422.26.065.097.13.194.13.292Zm5.848 7.277c-.033.032-.033.065-.065.098 0 0-.033.032-.098.032-.032.032-.097.032-.162.065h-.554c-.064-.032-.097-.032-.162-.065-.032 0-.065-.032-.065-.032v-.098l1.43-7.147h-2.34a62.98 62.98 0 0 1-.844 2.599c-.26.747-.52 1.397-.747 1.95-.26.551-.488 1.006-.715 1.364-.228.357-.455.65-.682.877-.26.227-.488.39-.78.487-.26.097-.552.13-.877.13a.248.248 0 0 1-.163-.065c-.032-.032-.032-.097-.032-.163v-.13c0-.064.032-.097.032-.162s.033-.13.033-.162a.55.55 0 0 0 .065-.163c.032-.065.065-.097.097-.13.033-.032.065-.032.13-.032.163 0 .293-.033.455-.098.162-.065.293-.195.455-.357.162-.195.357-.422.52-.747a8.77 8.77 0 0 0 .584-1.235c.228-.52.455-1.137.715-1.851.228-.715.52-1.592.812-2.567.033-.097.065-.162.098-.227.032-.065.065-.098.097-.163a.246.246 0 0 1 .13-.065c.065-.032.13-.032.195-.032h3.639c.13 0 .227.032.26.097.065.065.065.195.032.325l-1.494 7.667Zm5.977-2.21c-.325.52-.585.943-.812 1.268a5.188 5.188 0 0 1-.682.747 2.022 2.022 0 0 1-.617.358 2.772 2.772 0 0 1-.748.097c-.065 0-.162-.033-.26-.033-.097 0-.162-.032-.26-.032a1.567 1.567 0 0 1-.227-.097c-.097-.033-.13-.066-.195-.098-.032-.065-.065-.13-.065-.195v-.13c.033-.065.033-.097.033-.162s.032-.13.032-.195c.033-.065.033-.098.065-.163.033-.065.065-.097.098-.13.032-.032.065-.032.097-.032.033 0 .065 0 .13.032a.456.456 0 0 0 .13.098c.065.032.13.065.195.065a.96.96 0 0 0 .325.065c.097 0 .227-.033.325-.065.097-.033.195-.098.325-.195.097-.065.195-.195.324-.325.098-.162.228-.357.39-.552l-1.787-5.815c0-.098-.032-.163-.032-.228 0-.032 0-.097.032-.13a.248.248 0 0 1 .163-.065c.065 0 .162-.032.292-.032.163 0 .26.032.325.032.098 0 .163.033.195.033l.098.097c0 .033.032.065.032.13l.91 3.021c.097.293.195.618.26.943.097.325.162.617.26.942.194-.358.39-.683.584-1.04.163-.325.358-.65.552-1.007l1.755-2.924.097-.097c0-.033.065-.065.098-.065.065-.033.13-.033.195-.033.097-.032.195-.032.325-.032h.324c.065.032.13.032.163.065.032.032.032.065.032.13a.539.539 0 0 1-.065.162l-3.41 5.588Zm9.064-5.652v.098c0 .032-.033.097-.033.13 0 .065-.032.13-.032.162-.032.065-.032.13-.065.162l-.097.098c-.033.032-.065.065-.098.065h-3.119l-1.429 7.147c0 .032-.033.065-.033.098-.032 0-.064.032-.13.032-.032.032-.097.032-.162.065h-.52c-.097-.032-.13-.032-.162-.065-.065 0-.065-.032-.098-.032v-.098L32 41.648c.033-.13.098-.26.195-.325a.524.524 0 0 1 .293-.097h3.8c.066 0 .13 0 .13.065.033.032.033.097.033.162Zm5.815 7.862c0 .032 0 .065-.032.098-.033 0-.065.032-.098.032-.065.032-.13.032-.195.065h-.52c-.065-.032-.13-.032-.162-.065-.032 0-.065-.032-.065-.032-.032-.033-.032-.066-.032-.098l.844-4.256c.033-.13.098-.292.13-.455l.098-.487c.032-.195.065-.357.097-.52.065-.162.098-.325.163-.455h-.033c-.227.26-.455.553-.682.845-.26.293-.487.585-.715.877l-3.898 4.451-.098.098c-.032.032-.065.032-.13.065-.032 0-.097 0-.162.032h-.487c-.065-.032-.098-.032-.13-.065a.07.07 0 0 1-.065-.065v-.098l1.591-7.894c0-.032 0-.065.033-.097.032-.033.065-.033.13-.065.032 0 .097-.033.162-.033s.163-.032.26-.032c.098 0 .195.032.26.032s.13.033.163.033c.032.032.065.032.065.065.032.032.032.065.032.097l-.942 4.613-.098.39c-.032.13-.032.293-.065.422-.032.13-.064.293-.097.423-.032.13-.097.26-.13.39h.033c.065-.13.162-.26.292-.39.097-.13.195-.26.325-.39.097-.13.195-.26.325-.422.097-.13.227-.228.325-.358l3.995-4.678c.033-.032.065-.065.13-.097.033-.033.065-.065.098-.065.065-.033.097-.033.162-.033s.13-.032.228-.032c.13 0 .195.032.26.032.097 0 .13.033.162.033.032.032.065.032.065.065 0 .032.032.065 0 .097l-1.592 7.927Zm14.132 0c0 .032-.033.065-.033.065-.032.032-.065.065-.097.065-.065.032-.098.032-.195.032-.065.033-.162.033-.26.033-.097 0-.195 0-.26-.032-.065 0-.097 0-.13-.033-.065 0-.065-.032-.097-.065v-.065l1.43-7.18-4.419 7.212a.67.67 0 0 1-.162.13c-.098.033-.228.033-.39.033a1.06 1.06 0 0 1-.39-.065c-.065-.032-.097-.065-.097-.098l-1.365-7.244H49.9l-1.43 7.212c0 .032-.032.065-.032.065-.033.032-.065.065-.098.065-.032.032-.097.032-.162.032-.098.033-.163.033-.26.033-.13 0-.195 0-.26-.032-.065 0-.13 0-.163-.033a.07.07 0 0 1-.064-.065c-.033 0-.033-.033 0-.065l1.494-7.602c.032-.097.032-.162.097-.227a.58.58 0 0 1 .13-.163.248.248 0 0 1 .163-.065c.065-.032.097-.032.162-.032h.65c.13 0 .227 0 .325.032a.523.523 0 0 1 .227.13c.065.065.13.13.163.195a.96.96 0 0 1 .065.325l1.202 5.945h.032l3.671-5.945c.065-.13.13-.227.195-.292a.759.759 0 0 1 .227-.228c.065-.065.163-.097.26-.13.098-.032.195-.032.325-.032h.715c.065 0 .13 0 .162.032.065 0 .098.033.13.065.065.065.065.098.098.163 0 .065 0 .13-.033.227l-1.494 7.602Zm9.94-5.328c0 .325-.032.682-.097 1.105-.065.39-.162.812-.292 1.234-.162.39-.325.812-.552 1.202-.26.39-.52.747-.877 1.04a4.434 4.434 0 0 1-1.203.747 5.006 5.006 0 0 1-1.624.26 4.78 4.78 0 0 1-1.267-.163 2.529 2.529 0 0 1-.91-.552c-.26-.227-.422-.52-.552-.877a3.648 3.648 0 0 1-.195-1.234c0-.358.033-.748.098-1.17.065-.422.162-.845.325-1.267a4.57 4.57 0 0 1 .584-1.202c.228-.39.52-.747.845-1.04.358-.292.747-.52 1.202-.714a4.806 4.806 0 0 1 1.592-.26c.487 0 .91.065 1.267.195.357.13.65.292.91.552.26.227.422.552.552.91.13.357.195.78.195 1.234Zm-1.201.065c0-.292-.033-.552-.098-.812a1.534 1.534 0 0 0-.325-.65c-.13-.162-.324-.292-.584-.39a2.482 2.482 0 0 0-.877-.162c-.455 0-.845.097-1.17.26a2.848 2.848 0 0 0-.877.617c-.227.26-.455.552-.617.91-.163.325-.26.65-.358 1.007-.097.325-.162.65-.227.974-.033.325-.065.585-.065.845 0 .292.032.552.13.812.065.228.162.455.325.617.13.163.325.325.584.423.26.097.553.13.91.13.422 0 .812-.065 1.137-.228a3.42 3.42 0 0 0 .877-.65 4.13 4.13 0 0 0 .585-.877c.162-.324.292-.65.39-1.007.097-.324.162-.65.227-.974.033-.325.033-.585.033-.845Zm3.508-2.371c.033-.163.098-.293.195-.358a.726.726 0 0 1 .325-.097h4.256c.13 0 .162.065.162.195v.162c0 .033-.032.098-.032.13 0 .065-.033.13-.033.163-.032.065-.032.097-.065.13l-.097.097c-.032.032-.065.032-.098.032h-3.606l-.52 2.6h.975c.39 0 .683 0 .91.032.195 0 .422.032.585.097.227.065.454.163.65.26.162.13.324.26.454.423.098.162.195.324.26.487.065.195.065.39.065.585 0 .194 0 .357-.032.552-.033.195-.098.39-.163.552-.097.163-.195.358-.292.52-.13.162-.26.292-.422.422-.163.163-.325.26-.553.358-.195.13-.39.195-.65.26a2.36 2.36 0 0 1-.714.13c-.26.032-.552.065-.91.065H67.54c-.065 0-.098 0-.163-.033a.246.246 0 0 1-.13-.065.249.249 0 0 1-.064-.162c-.033-.033-.033-.13 0-.195l1.461-7.342Zm3.25 5.068c0-.228-.033-.423-.163-.585-.098-.195-.26-.325-.488-.422a9.281 9.281 0 0 0-.454-.098c-.195-.032-.488-.032-.845-.032h-.975l-.617 2.956h1.592c.13 0 .26-.033.357-.033.098-.032.195-.032.26-.065.098-.032.162-.065.26-.097.162-.065.292-.13.422-.26.13-.097.26-.227.358-.357.097-.13.162-.293.227-.455.065-.195.065-.358.065-.552Zm8.446 2.566c0 .032-.033.065-.033.098-.032 0-.065.032-.13.032-.032.032-.097.032-.162.065h-.52c-.065-.032-.13-.032-.163-.065-.032 0-.064-.032-.097-.032v-.098l.845-4.256c.032-.13.065-.292.097-.455.033-.162.098-.324.13-.487.033-.195.065-.357.098-.52.032-.162.097-.325.13-.455-.228.26-.455.553-.683.845-.26.293-.487.585-.747.877l-3.866 4.451-.097.098c-.033.032-.098.032-.13.065-.033 0-.098 0-.163.032h-.487c-.065-.032-.13-.032-.162-.065-.033 0-.033-.032-.065-.065v-.098l1.591-7.894c0-.032.033-.065.066-.097.032-.033.064-.033.097-.065.065 0 .097-.033.195-.033.065 0 .13-.032.227-.032.13 0 .195.032.26.032.098 0 .13.033.195.033l.065.065v.097l-.942 4.613c0 .13-.033.26-.065.39s-.065.293-.097.422c-.033.13-.066.293-.098.423l-.097.39.292-.39c.097-.13.227-.26.325-.39.13-.13.227-.26.325-.422.13-.13.227-.228.325-.358l4.028-4.678.097-.097a.246.246 0 0 1 .13-.065c.033-.033.098-.033.163-.033s.13-.032.227-.032c.098 0 .195.032.26.032s.13.033.163.033c.032.032.064.032.064.065v.097l-1.591 7.927Zm7.959 0c0 .032 0 .065-.033.098-.032 0-.065.032-.097.032-.033.032-.098.032-.195.065h-.52c-.065-.032-.13-.032-.162-.065-.033 0-.065-.032-.065-.032 0-.033-.033-.066 0-.098l1.43-7.147h-2.34c-.325.974-.585 1.852-.844 2.599-.26.747-.52 1.397-.748 1.95-.26.551-.487 1.006-.714 1.364-.228.357-.455.65-.683.877-.26.227-.52.39-.78.487-.26.097-.552.13-.876.13a.248.248 0 0 1-.163-.065c-.032-.032-.032-.097-.032-.163v-.13c0-.064 0-.097.032-.162 0-.065.033-.13.033-.162.032-.065.065-.13.065-.163.032-.065.065-.097.097-.13.033-.032.065-.032.13-.032.13 0 .292-.033.455-.098.13-.065.292-.195.455-.357.162-.195.325-.422.52-.747.162-.325.357-.747.584-1.235.228-.52.455-1.137.682-1.851.26-.715.553-1.592.845-2.567.032-.097.065-.162.097-.227.033-.065.066-.098.098-.163.033-.032.065-.065.13-.065.065-.032.097-.032.162-.032h3.671c.13 0 .228.032.26.097.065.065.065.195.033.325l-1.527 7.667Zm8.219-2.891c0 .195-.032.39-.065.584-.032.195-.097.39-.162.585-.098.163-.195.358-.293.552-.13.163-.26.325-.422.488-.162.13-.325.26-.552.39a3.316 3.316 0 0 1-.683.26c-.194.064-.454.13-.714.13a6.97 6.97 0 0 1-.845.065h-1.884c-.033 0-.098 0-.13-.033-.065 0-.098-.032-.13-.065-.033-.033-.065-.098-.098-.162 0-.033 0-.13.033-.195l1.527-7.635c0-.032 0-.065.032-.097.033-.033.065-.033.13-.065.033 0 .098-.033.163-.033s.162-.032.26-.032c.097 0 .194.032.26.032.064 0 .13.033.162.033.032.032.065.032.065.065.032.032.032.065.032.097l-.65 3.054h1.138c.162 0 .325 0 .455.032h.357c.13.033.227.033.325.066.065 0 .162.032.26.032.26.097.487.195.65.325.194.13.324.26.454.422.098.163.195.357.228.52.064.195.097.39.097.585Zm-1.17.13c0-.195-.032-.423-.13-.585-.097-.195-.26-.325-.487-.455-.065 0-.13-.032-.227-.065-.065 0-.13-.032-.228-.032-.097-.033-.194-.033-.324-.033h-1.56l-.65 3.184h1.235c.162 0 .292 0 .422-.033.13 0 .228 0 .325-.032a.948.948 0 0 0 .292-.065.602.602 0 0 0 .228-.065c.162-.065.325-.162.455-.292.13-.098.227-.228.357-.39.098-.163.163-.325.228-.52.064-.195.064-.39.064-.617Zm8.024 2.761c0 .032 0 .065-.032.065-.032.032-.065.065-.097.065a.299.299 0 0 1-.163.032c-.097.033-.162.033-.292.033-.098 0-.195 0-.26-.032-.065 0-.098 0-.163-.033-.032 0-.065-.032-.065-.065v-.065l.715-3.671h-3.736l-.747 3.671c0 .032 0 .065-.032.065-.033.032-.066.065-.098.065-.065.032-.097.032-.195.032-.065.033-.162.033-.26.033-.097 0-.195 0-.26-.032-.065 0-.13 0-.162-.033a.07.07 0 0 1-.065-.065c-.033 0-.033-.033 0-.065l1.56-7.927c0-.032.032-.065.064-.097 0-.033.033-.033.098-.065.032 0 .097-.033.162-.033.098 0 .163-.032.26-.032.13 0 .195.032.26.032.097 0 .13.033.162.033.065.032.065.032.098.065v.097l-.65 3.314h3.736l.682-3.314c0-.032 0-.065.033-.097.032-.033.065-.033.097-.065.065 0 .098-.033.163-.033.097 0 .162-.032.292-.032.098 0 .195.032.26.032s.097.033.162.033c.033.032.065.032.065.065v.097l-1.592 7.927Zm9.941-5.328c0 .325-.032.682-.065 1.105a6.34 6.34 0 0 1-.324 1.234c-.13.39-.325.812-.553 1.202a4.37 4.37 0 0 1-.844 1.04 4.648 4.648 0 0 1-1.235.747c-.455.163-.974.26-1.592.26-.487 0-.909-.065-1.267-.163a2.525 2.525 0 0 1-.909-.552 1.775 1.775 0 0 1-.553-.877 3.646 3.646 0 0 1-.194-1.234c0-.358.032-.748.097-1.17.065-.422.162-.845.325-1.267a5.75 5.75 0 0 1 .552-1.202c.26-.39.52-.747.877-1.04.325-.292.747-.52 1.202-.714.455-.163.975-.26 1.592-.26.455 0 .877.065 1.267.195.357.13.65.292.91.552.227.227.422.552.552.91.097.357.162.78.162 1.234Zm-1.169.065c0-.292-.033-.552-.098-.812a1.538 1.538 0 0 0-.324-.65 1.855 1.855 0 0 0-.585-.39 2.53 2.53 0 0 0-.91-.162 2.8 2.8 0 0 0-1.169.26c-.325.162-.618.357-.845.617a2.99 2.99 0 0 0-.617.91c-.163.325-.293.65-.39 1.007-.098.325-.162.65-.195.974-.032.325-.065.585-.065.845 0 .292.033.552.098.812.064.228.194.455.324.617.163.163.358.325.618.423.227.097.519.13.877.13.455 0 .844-.065 1.169-.228.325-.162.618-.39.845-.65.26-.26.455-.552.617-.877.163-.324.293-.65.39-1.007.097-.324.162-.65.195-.974.065-.325.065-.585.065-.845Zm8.187 5.263c-.033.032-.033.065-.065.098 0 0-.065.032-.098.032-.032.032-.097.032-.195.065h-.52c-.065-.032-.13-.032-.162-.065-.032 0-.065-.032-.065-.032v-.098l.845-4.256c.032-.13.065-.292.097-.455l.098-.487c.032-.195.065-.357.13-.52a1.84 1.84 0 0 1 .13-.455h-.033c-.195.26-.422.553-.682.845-.228.293-.488.585-.715.877l-3.898 4.451-.098.098c-.032.032-.065.032-.13.065-.032 0-.097 0-.13.032h-.487c-.065-.032-.13-.032-.162-.065a.07.07 0 0 1-.065-.065v-.098l1.591-7.894c0-.032 0-.065.033-.097.032-.033.065-.033.13-.065.032 0 .097-.033.162-.033s.163-.032.26-.032c.098 0 .195.032.26.032s.13.033.163.033c.032.032.065.032.065.065.032.032.032.065.032.097l-.942 4.613c-.033.13-.065.26-.065.39-.033.13-.065.293-.098.422-.032.13-.065.293-.097.423l-.097.39.292-.39c.097-.13.195-.26.325-.39.097-.13.227-.26.325-.422.097-.13.227-.228.325-.358l3.995-4.678a.442.442 0 0 0 .13-.097c.033-.033.065-.065.13-.065.033-.033.098-.033.163-.033.032 0 .13-.032.195-.032.13 0 .227.032.292.032.065 0 .097.033.13.033.032.032.065.032.065.065.032.032.032.065.032.097l-1.591 7.927Zm.974-10.298c0 .065 0 .13-.032.227 0 .098-.065.227-.13.325-.033.13-.13.26-.228.39-.097.13-.26.26-.422.39a2.425 2.425 0 0 1-.585.26c-.227.065-.52.097-.844.097-.293 0-.585-.032-.78-.097-.227-.065-.422-.13-.552-.26a.888.888 0 0 1-.293-.39 1.346 1.346 0 0 1-.097-.52v-.13c0-.065 0-.13.032-.162 0-.065 0-.098.033-.13 0-.033 0-.065.032-.098.033-.032.098-.032.163-.065h.519c.065 0 .098.033.13.033.033.032.065.032.065.065v.195c-.032.065-.032.097-.032.162 0 .195.065.358.195.455.13.13.325.195.65.195.162 0 .292-.033.422-.065a1.58 1.58 0 0 0 .357-.13c.098-.065.163-.163.26-.293.065-.097.098-.227.13-.39 0-.032.033-.064.033-.097l.097-.097c.033 0 .098-.033.162-.033h.488c.065 0 .097.033.162.033.033 0 .033.032.065.065v.065Zm10.916 3.021c0 .098 0 .227-.033.357-.032.13-.065.228-.13.293-.032.097-.097.13-.162.13a.283.283 0 0 1-.195-.13c-.098-.065-.195-.163-.325-.26-.13-.098-.325-.163-.52-.26a2.924 2.924 0 0 0-.812-.097c-.357 0-.682.065-.974.194a2.77 2.77 0 0 0-.813.553 3.657 3.657 0 0 0-.617.78 8.493 8.493 0 0 0-.455.941c-.097.325-.195.65-.26.975-.065.325-.097.65-.097.942 0 .357.065.65.13.91.097.292.227.487.39.682a1.5 1.5 0 0 0 .584.422c.228.098.488.13.813.13.325 0 .617-.032.844-.097.228-.065.455-.163.618-.26.162-.098.324-.163.422-.227.13-.098.227-.13.292-.13.033 0 .098.032.098.065.032.032.032.065.032.13v.097c0 .033 0 .098-.032.13 0 .065 0 .097-.033.162 0 .065 0 .098-.032.163a.25.25 0 0 1-.065.13c0 .032-.033.065-.098.13a1.21 1.21 0 0 1-.26.162c-.162.098-.324.163-.519.26-.228.065-.455.13-.715.163-.26.064-.52.097-.812.097a3.4 3.4 0 0 1-1.17-.195 2.429 2.429 0 0 1-.909-.585 2.67 2.67 0 0 1-.553-.942c-.13-.357-.195-.812-.195-1.3 0-.39.033-.811.13-1.234.065-.422.195-.845.358-1.267.162-.39.39-.78.617-1.137.26-.357.552-.65.877-.942.325-.26.715-.487 1.137-.617.39-.163.845-.26 1.332-.26.325 0 .617.065.877.13s.488.162.682.26c.195.097.325.195.423.26.097.097.13.194.13.292Zm6.205.78c0 .26-.033.52-.098.747a2.343 2.343 0 0 1-.292.65c-.13.194-.293.357-.487.487a2 2 0 0 1-.618.39c.195.032.358.097.52.195.13.065.26.195.39.325.097.13.195.292.26.454.065.195.097.39.097.618 0 .227-.032.454-.097.682a2.347 2.347 0 0 1-.293.65c-.097.195-.259.39-.422.584-.195.163-.39.325-.65.455-.227.13-.519.227-.812.292-.292.098-.65.13-1.039.13h-2.177c-.162 0-.26-.032-.325-.097a.427.427 0 0 1-.065-.357l1.462-7.375c.033-.162.098-.26.228-.325a.545.545 0 0 1 .324-.097h1.787c.422 0 .747.032 1.04.097.292.065.52.163.714.293.195.162.325.325.423.52.097.194.13.422.13.682Zm-1.17.195c0-.13 0-.26-.065-.358a.411.411 0 0 0-.227-.292.745.745 0 0 0-.39-.195 2.99 2.99 0 0 0-.617-.065h-1.17l-.52 2.664h1.235c.357 0 .617-.033.845-.163.194-.097.389-.227.519-.422a1.8 1.8 0 0 0 .293-.552c.065-.228.097-.422.097-.617Zm-.227 3.768c0-.357-.13-.65-.39-.845-.227-.194-.617-.292-1.137-.292h-1.43l-.552 2.924h1.527c.357 0 .65-.065.877-.163.228-.097.455-.227.585-.39a2.16 2.16 0 0 0 .39-.552c.065-.227.13-.455.13-.682Zm7.342 2.534c0 .032 0 .065-.033.098-.032 0-.065.032-.097.032-.065.032-.13.032-.195.065h-.52c-.065-.032-.13-.032-.162-.065-.033 0-.065-.032-.065-.032-.033-.033-.033-.066 0-.098l.682-3.444h-.91c-.26 0-.487.033-.682.098a1.653 1.653 0 0 0-.52.292c-.162.098-.292.26-.422.455-.13.163-.26.357-.357.585l-1.072 1.95c-.033.032-.065.096-.098.129-.032.032-.065.065-.13.065-.065.032-.13.032-.195.065h-.585c-.065-.032-.129-.032-.162-.032-.032-.033-.065-.033-.065-.066-.032 0-.032-.032-.032-.065 0-.032.032-.097.032-.162.033-.065.098-.162.195-.292l1.04-1.885c.129-.227.259-.422.389-.584.13-.163.26-.325.39-.455s.26-.227.39-.325c.098-.065.26-.13.39-.162a1.596 1.596 0 0 1-.552-.195 1.29 1.29 0 0 1-.39-.325c-.13-.13-.195-.293-.26-.455a1.346 1.346 0 0 1-.098-.52c0-.455.098-.845.26-1.202.163-.357.39-.65.683-.877.292-.227.649-.39 1.039-.52.422-.13.877-.162 1.365-.162h2.111l.098.097c.032.033.065.065.065.13a.21.21 0 0 1 0 .195l-1.527 7.667Zm-.78-7.212c-.357 0-.65.065-.942.13-.26.097-.487.195-.65.357-.162.163-.325.325-.39.552a1.813 1.813 0 0 0-.162.748c0 .162.032.292.097.422s.163.26.293.357c.13.065.292.163.487.228.195.032.422.065.682.065h1.137l.553-2.859h-1.105Zm8.512.715c0 .292-.065.52-.163.78-.097.26-.227.487-.39.682-.195.194-.389.39-.649.52-.228.162-.52.26-.813.324.228.033.423.13.618.228.195.097.325.227.455.357.129.162.194.325.259.52s.098.39.098.584c0 .358-.065.683-.228 1.008-.129.357-.357.65-.649.91-.26.26-.65.454-1.072.616-.455.163-.975.228-1.56.228-.227 0-.422 0-.649-.033a2.732 2.732 0 0 1-.553-.13c-.162-.032-.292-.097-.422-.13a2.075 2.075 0 0 1-.227-.162c-.065-.032-.065-.065-.098-.097 0-.033-.032-.098-.032-.13 0-.033.032-.065.032-.098v-.162c0-.065.033-.098.033-.163.032-.065.032-.097.065-.162 0-.032.032-.097.065-.13.032 0 .064-.032.097-.032.032 0 .097.032.195.065.097.065.195.13.357.194.13.065.293.098.488.163.227.065.454.065.714.065.325 0 .618-.033.91-.13.26-.065.487-.195.682-.358.195-.162.357-.324.455-.552.097-.195.162-.455.162-.682 0-.227-.032-.39-.065-.552-.065-.163-.13-.293-.292-.39a1.546 1.546 0 0 0-.52-.26c-.227-.065-.52-.065-.877-.065h-.877a.246.246 0 0 1-.162-.065.246.246 0 0 1-.065-.162c0-.033.032-.065.032-.13 0-.033.033-.098.033-.163.032-.065.032-.13.064-.162.033-.065.065-.098.065-.13.033-.033.065-.065.098-.065.032-.033.065-.033.097-.033h.91c.292 0 .552-.032.812-.097.26-.098.487-.195.682-.357.228-.13.39-.325.488-.52.13-.228.195-.455.195-.747 0-.13-.033-.26-.098-.39a.666.666 0 0 0-.195-.325c-.13-.098-.227-.163-.39-.195-.162-.065-.357-.065-.584-.065-.26 0-.52 0-.715.065-.227.065-.422.13-.617.195-.163.065-.293.13-.423.195-.097.065-.195.065-.227.065-.033 0-.065 0-.098-.033 0-.032-.032-.065-.032-.162 0-.033.032-.098.032-.163s.033-.13.033-.195c.032-.097.065-.162.065-.227.032-.032.065-.097.13-.13.032-.065.13-.097.292-.162.13-.065.293-.13.488-.195.194-.065.422-.098.617-.13.227-.033.455-.065.682-.065.39 0 .747.032 1.007.13.293.097.52.195.715.357.162.163.292.358.39.553.065.227.13.454.13.682Zm6.854 6.497c-.032.032-.032.065-.065.098-.032 0-.065.032-.097.032-.065.032-.098.032-.195.065h-.52c-.065-.032-.13-.032-.162-.065-.033 0-.065-.032-.065-.032 0-.033-.033-.066 0-.098l.844-4.256c.033-.13.065-.292.098-.455l.097-.487c.033-.195.065-.357.13-.52.033-.162.065-.325.13-.455h-.032c-.195.26-.423.553-.682.845-.228.293-.488.585-.715.877l-3.899 4.451-.097.098c-.033.032-.065.032-.13.065-.032 0-.097 0-.162.032h-.455c-.065-.032-.13-.032-.163-.065-.032 0-.065-.032-.065-.065v-.098l1.592-7.894c0-.032 0-.065.033-.097.032-.033.065-.033.13-.065.032 0 .097-.033.162-.033s.163-.032.26-.032.195.032.26.032.13.033.162.033c.033.032.065.032.065.065.033.032.033.065.033.097l-.942 4.613-.098.39c0 .13-.032.293-.065.422-.032.13-.065.293-.097.423l-.098.39c.098-.13.163-.26.293-.39.097-.13.195-.26.325-.39.097-.13.227-.26.324-.422.098-.13.228-.228.325-.358l3.996-4.678a.442.442 0 0 0 .13-.097c.033-.033.065-.065.13-.065.033-.033.097-.033.162-.033.033 0 .13-.032.195-.032.13 0 .228.032.293.032.065 0 .097.033.13.033.032.032.065.032.065.065.032.032.032.065.032.097l-1.592 7.927Z" fill="#fff"/></svg>