<svg width="47" height="46" viewBox="0 0 47 46" fill="none" xmlns="http://www.w3.org/2000/svg"><path fill-rule="evenodd" clip-rule="evenodd" d="M1.898 43.847c0-.837-.12-1.168.35-1.168h41.98c.468 0 .349.331.349 1.168 0 .267-.083.35-.35.35H2.247c-.266 0-.35-.083-.35-.35Zm44.197-27.876v3.22c-.157.837-.791.635-3.036.635 0 3.22.211 3.027-1.51 3.027v15.161c1.096 0 .875.037 1.51.47 0 3.32-.644 2.677 2.686 2.677.157.239.35.303.35.589v3.376c0 .276-.313.589-.59.589H.96c-.266 0-.58-.313-.58-.589V41.75c0-.286.194-.35.35-.59 3.33 0 2.687.645 2.687-2.676.635-.433.405-.47 1.509-.47V22.853c-1.72 0-1.51.193-1.51-3.027-1.085 0-3.035.258-3.035-.589v-3.266c0-.515.175-.543.506-.773l3.597-2.474c2.935-2.18 7.084-4.766 10.074-6.946l4.269-2.963c.534-.35.92-.635 1.444-1.003C20.804 1.444 22.718 0 23.233 0c.634 0 7.718 5.115 8.823 5.879l12.916 8.878c.773.533 1.123.644 1.123 1.214ZM16.47 30.204c0-1.003.322-1.896.662-2.613.46-.975 1.38-2.033 2.273-2.622 4.866-3.193 10.598.644 10.598 5.235V41.16H16.47V30.204ZM35.478 40.81v-1.168h5.713c.47 0 .359.331.359 1.168 0 .267-.083.35-.359.35h-5.364c-.266 0-.35-.083-.35-.35Zm-30.553 0c0-.837-.11-1.168.35-1.168h5.713c0 1.076.156 1.518-.35 1.518H5.274c-.267 0-.35-.083-.35-.35Zm32.07-17.958h2.917v15.161h-2.916v-15.16Zm-30.433 0H9.48v15.161H6.562v-15.16Zm7.93 18.308h-1.517c-1.26 0 1.113-3.147-1.868-3.147v-15.16c1.757 0 1.518-.092 1.518-3.027H33.85c0 2.935-.239 3.027 1.519 3.027v15.161c-2.981 0-.608 3.147-1.868 3.147-2.18 0-1.886.211-1.868-1.279v-8.75c0-3.109-.819-5.188-3.229-7.148a7.696 7.696 0 0 0-2.235-1.26c-1.914-.69-3.819-.718-5.778-.028-.81.276-1.675.755-2.263 1.233-3.837 3.156-3.285 6.081-3.285 10.59v5.243c0 .57.184 1.399-.35 1.399Zm26.7-19.826h-5.714v-1.509h5.713c.47 0 .359.331.359 1.16 0 .275-.083.349-.359.349Zm-36.267-.35c0-.828-.11-1.159.35-1.159h5.713v1.509H5.274c-.267 0-.35-.074-.35-.35Zm-3.027-3.027V16.79h42.679c0 1.067.147 1.518-.35 1.518H2.247c-.266 0-.35-.083-.35-.35Zm21.335-16.21c.828.552 1.582 1.095 2.428 1.656l14.481 10c.423.295.82.534 1.252.856.35.258.993.616 1.205.902H3.876L18.338 5.124c1.61-1.14 3.257-2.272 4.895-3.376Z" fill="#fff"/><path fill-rule="evenodd" clip-rule="evenodd" d="M21.025 10.028c0-3.119 4.425-3.119 4.425 0 0 .68-.248 1.021-.607 1.37-1.684 1.684-3.818.148-3.818-1.37Zm-1.638-.24c0 2.3 1.675 3.966 3.965 3.966 3.174 0 5.042-4.076 2.66-6.504-1.592-1.61-3.966-1.61-5.548 0-.57.58-1.077 1.435-1.077 2.539Zm3.036 20.066c-.607.156-2.53 1.766-.902 3l1.601 1.195c.561.414.598.313.7.7-.663.44-1.224.294-1.289-.47h-1.628c.018 1.03.662 1.904 1.518 2.107v.93h1.628v-.93c.92-.22 2.273-1.858 1.022-2.889-.286-.24-.562-.414-.874-.644-.304-.23-.488-.368-.8-.607-.139-.101-.314-.22-.406-.285-.294-.23-.23-.065-.34-.479.304-.156.543-.322.92-.11.865.478-.488.7 1.647.7.966 0-.147-1.951-1.169-2.218v-.938h-1.628v.938Z" fill="#fff"/></svg>