<svg width="67" height="35" viewBox="0 0 67 35" fill="none" xmlns="http://www.w3.org/2000/svg">
<g clip-path="url(#clip0_470_16557)">
<path fill-rule="evenodd" clip-rule="evenodd" d="M2.20443 0.00507517C2.19769 0.00963721 2.16977 0.0134236 2.14239 0.0134987C2.11501 0.0135654 2.07267 0.0171016 2.04829 0.0213551C2.02392 0.0256085 1.97819 0.0335066 1.94669 0.038911C1.72361 0.0771586 1.39167 0.190776 1.25528 0.275562C1.23054 0.290949 1.19003 0.3139 1.16528 0.326569C1.04752 0.38686 0.82006 0.564545 0.685862 0.701074C0.538523 0.850979 0.368257 1.08903 0.278644 1.2704C0.19948 1.43064 0.122239 1.70163 0.0924963 1.92351C0.0878814 1.95791 0.0806236 2.01046 0.0763688 2.04027C0.0479843 2.23898 0.0269885 2.46566 0.0102884 2.75335C-0.00173146 2.96051 -0.00151872 4.24217 0.0105748 4.49643C0.028224 4.86759 0.0491135 5.18259 0.0766716 5.49307C0.0809428 5.54123 0.0882659 5.6238 0.092938 5.67656C0.105244 5.81543 0.128384 6.02553 0.137483 6.08105C0.139741 6.09481 0.145444 6.13421 0.150157 6.16861C0.17603 6.35747 0.210804 6.54324 0.278177 6.85251C0.348136 7.17367 0.375523 7.278 0.48722 7.64899C0.595497 8.00861 0.759831 8.45714 0.89515 8.7624C0.918535 8.81515 0.947959 8.8827 0.960526 8.91251C0.998935 9.00359 1.15204 9.33005 1.18945 9.40063C1.20882 9.43721 1.2463 9.50748 1.27271 9.55678C1.29914 9.60609 1.34224 9.68679 1.36851 9.7361C1.43443 9.8598 1.47586 9.9335 1.51362 9.99417C1.53129 10.0226 1.55865 10.0694 1.5744 10.0982C1.60587 10.1557 1.70678 10.316 1.8492 10.5347C2.1386 10.979 2.48792 11.4356 2.86725 11.8653C2.97347 11.9857 3.43231 12.4563 3.53653 12.5517C3.99606 12.9725 4.37377 13.2744 4.81051 13.5697C4.98062 13.6848 5.11349 13.7715 5.17872 13.8101C5.20571 13.8261 5.27199 13.8654 5.32599 13.8976C5.38 13.9297 5.44255 13.9668 5.465 13.98C5.6337 14.0797 5.99865 14.2646 6.27514 14.3908C6.52614 14.5051 7.03054 14.6906 7.38794 14.7999C7.49871 14.8338 7.80644 14.9117 7.93206 14.9375C8.08767 14.9697 8.11803 14.9806 8.13247 15.009C8.14338 15.0305 8.14481 15.3183 8.14481 17.4945C8.14481 20.209 8.14915 19.9941 8.09381 20.0122C8.0791 20.017 7.9916 20.04 7.89933 20.0634C7.39434 20.1914 6.92265 20.3524 6.37334 20.5842C6.23922 20.6407 6.10964 20.7032 5.81377 20.8537C5.56965 20.9778 5.5044 21.0129 5.33418 21.1114C5.14244 21.2225 4.86003 21.4002 4.72868 21.4926C4.71519 21.5021 4.65811 21.542 4.60186 21.5813C4.20503 21.8584 3.84644 22.152 3.37042 22.5893C3.27399 22.678 3.0072 22.9524 2.86831 23.106C2.53276 23.477 2.05765 24.0911 1.83476 24.4417C1.67152 24.6987 1.59987 24.813 1.57777 24.8519C1.56388 24.8763 1.53649 24.9226 1.51691 24.9547C1.48059 25.0143 1.44825 25.0715 1.37555 25.2049C1.11604 25.6811 0.884775 26.1871 0.714182 26.6519C0.588378 26.9947 0.555461 27.0903 0.51472 27.2316C0.502808 27.2728 0.482302 27.3432 0.469154 27.388C0.409586 27.5905 0.393189 27.6503 0.355574 27.8029C0.245842 28.2476 0.177781 28.6055 0.134276 28.9663C0.1293 29.0075 0.123351 29.0545 0.121069 29.0705C0.115996 29.1061 0.10432 29.2308 0.0929544 29.3708C0.0522719 29.8719 0.0444414 29.9817 0.0278068 30.284C-0.00918556 30.9565 -0.00928376 32.0165 0.0276021 32.5025C0.0401702 32.6681 0.0620252 32.8834 0.0762788 32.9821C0.0805828 33.0119 0.0878405 33.0644 0.0924144 33.0988C0.120414 33.3098 0.187231 33.5325 0.277581 33.7158C0.349609 33.862 0.372111 33.9002 0.460087 34.0258C0.620354 34.2544 0.873769 34.4907 1.11758 34.6389C1.38534 34.8016 1.68034 34.9073 2.01215 34.9595C2.06414 34.9677 2.30596 34.9852 2.36809 34.9853C2.41519 34.9854 2.65207 34.9688 2.67901 34.9636C2.69026 34.9614 2.72892 34.9552 2.76493 34.9498C2.97004 34.919 3.28476 34.8146 3.45225 34.7216C3.69293 34.588 3.8107 34.4992 3.9882 34.3172C4.18702 34.1134 4.2756 33.9885 4.39846 33.7385C4.49248 33.5473 4.53148 33.4423 4.57746 33.2567C4.61219 33.1164 4.63413 33.007 4.64341 32.9279C4.67006 32.7003 4.67099 32.6691 4.66904 32.0646C4.66508 30.8388 4.66573 30.639 4.67437 30.4342C4.69014 30.0601 4.7185 29.7604 4.76037 29.5251C4.76691 29.4884 4.78036 29.4114 4.79027 29.3542C4.83381 29.1023 4.94788 28.6884 5.05343 28.3991C5.11069 28.2422 5.25521 27.9043 5.31732 27.782C5.49351 27.4351 5.57798 27.2929 5.81731 26.9396C5.88008 26.847 6.07074 26.6008 6.15954 26.4976C6.24897 26.3937 6.63281 26.0013 6.73744 25.9067C7.08985 25.588 7.51305 25.2977 7.94843 25.0756C8.20259 24.946 8.367 24.8756 8.66847 24.7679C9.07806 24.6215 9.61632 24.5131 10.0881 24.4819C10.3987 24.4614 10.9878 24.4774 11.1764 24.5115C11.1899 24.5139 11.2304 24.5202 11.2663 24.5253C11.3919 24.5434 11.5367 24.5683 11.5813 24.5797C11.6062 24.5859 11.6522 24.5966 11.6837 24.6035C12.003 24.6732 12.1837 24.7286 12.5191 24.8595C12.6231 24.9 12.7556 24.9564 12.8137 24.9846C13.0931 25.1205 13.2489 25.2034 13.3242 25.2561C13.3444 25.2702 13.3776 25.2903 13.3979 25.3006C13.4522 25.3283 13.7638 25.5425 13.8724 25.6268C14.1758 25.8623 14.4555 26.1255 14.7364 26.4396C14.9328 26.6593 15.1893 27.0067 15.3428 27.2607C15.3608 27.2905 15.3915 27.3412 15.4113 27.3734C15.4723 27.4729 15.6584 27.8341 15.7067 27.9467C15.7239 27.9868 15.7531 28.0544 15.7717 28.0969C15.7901 28.1393 15.8179 28.2037 15.8333 28.2399C15.8764 28.3414 16.0361 28.8355 16.0696 28.9707C16.1179 29.1664 16.177 29.4752 16.2049 29.6793C16.2096 29.7138 16.2154 29.7532 16.2178 29.7669C16.2201 29.7807 16.2258 29.8314 16.2301 29.8795C16.2727 30.3403 16.2784 30.6353 16.262 31.51C16.2512 32.0877 16.2512 32.0321 16.2611 32.3315C16.2721 32.6638 16.2823 32.7782 16.3227 33.0196C16.3828 33.3787 16.5311 33.7512 16.7229 34.0245C16.7938 34.1257 16.9276 34.2851 17.0031 34.3583C17.0707 34.424 17.2459 34.5704 17.3091 34.6139C17.4267 34.6952 17.6317 34.8043 17.7689 34.8589C17.8442 34.8888 18.0187 34.9387 18.1199 34.9592C18.3863 35.0134 18.6512 35.0135 18.9619 34.9596C19.1565 34.9257 19.4207 34.834 19.6216 34.7306C19.8674 34.6042 20.1674 34.3754 20.3218 34.1969C20.4644 34.0319 20.5574 33.8949 20.6563 33.7034C20.7776 33.469 20.8507 33.151 20.9136 32.5859C20.9209 32.5196 20.9333 32.3565 20.9433 32.1939C20.9554 31.9976 20.9552 30.7616 20.943 30.5175C20.9212 30.0802 20.8947 29.7244 20.8606 29.4125C20.8563 29.3735 20.849 29.306 20.8442 29.2624C20.8395 29.2188 20.8322 29.155 20.8279 29.1206C20.8237 29.0861 20.8164 29.0262 20.8116 28.9871C20.8069 28.9482 20.7995 28.8918 20.7954 28.862C20.7911 28.8322 20.7836 28.7779 20.7789 28.7413C20.7741 28.7047 20.7684 28.6691 20.7663 28.6621C20.7642 28.6551 20.7548 28.6044 20.7455 28.5493C20.7128 28.3571 20.5868 27.8015 20.5319 27.6069C20.4895 27.4565 20.4162 27.2149 20.3447 26.9893C20.2983 26.843 20.1357 26.4087 20.0695 26.2542C20.0442 26.1955 20.0006 26.0928 19.9724 26.0263C19.916 25.893 19.6524 25.3557 19.5755 25.2174C19.5488 25.1693 19.5135 25.1036 19.497 25.0715C19.4805 25.0393 19.4569 24.998 19.4446 24.9797C19.4323 24.9613 19.3886 24.8891 19.3475 24.8191C19.2683 24.684 19.0494 24.346 18.9468 24.1999C18.7479 23.9171 18.4445 23.5261 18.2829 23.3443C18.258 23.3164 18.1917 23.2414 18.1355 23.1776C18.0049 23.0294 17.6968 22.71 17.5941 22.6164C17.189 22.2471 16.9256 22.025 16.6667 21.834C16.6127 21.7942 16.537 21.7384 16.4986 21.7099C16.4025 21.6389 16.1614 21.4726 16.0819 21.4224C16.0457 21.3996 15.9859 21.3616 15.9487 21.3379C15.8147 21.2525 15.774 21.2272 15.7216 21.197C15.6924 21.1802 15.6409 21.1503 15.607 21.1305C15.2871 20.9434 14.7603 20.6808 14.4288 20.543C14.3591 20.5141 14.2597 20.4725 14.208 20.4508C13.9172 20.3289 13.381 20.151 12.9509 20.0338C12.8873 20.0165 12.8265 19.9956 12.8159 19.9874L12.7965 19.9725V17.4951V15.0179L12.8133 15.0009C12.8254 14.9884 12.9058 14.9639 13.1119 14.91C13.4465 14.8224 13.4639 14.8171 13.8103 14.6993C14.0555 14.6159 14.4604 14.4583 14.6457 14.3739C14.9729 14.2252 15.4205 13.996 15.5907 13.8901C15.6245 13.8691 15.6705 13.8425 15.693 13.831C15.7315 13.8112 15.7765 13.7837 15.9344 13.6831C15.9704 13.6602 16.0296 13.6226 16.0659 13.5996C16.1293 13.5597 16.1742 13.5287 16.413 13.3611C16.7089 13.1535 17.1117 12.8257 17.435 12.5293C17.5453 12.4284 17.9628 12.0064 18.0443 11.9137C18.4563 11.4444 18.6537 11.1954 18.9372 10.7868C19.0678 10.5986 19.2594 10.3034 19.3257 10.1885C19.3402 10.1633 19.3824 10.092 19.4196 10.0301C19.4568 9.96816 19.5034 9.88559 19.5233 9.84661C19.543 9.80762 19.5776 9.74382 19.6001 9.70482C19.6468 9.62351 19.8836 9.14741 19.9138 9.07405C19.9249 9.04713 19.9529 8.98195 19.9762 8.9292C20.1141 8.61683 20.3085 8.11162 20.3693 7.90753C20.379 7.87542 20.4083 7.77972 20.4348 7.69486C20.5141 7.43992 20.5297 7.3839 20.5904 7.13607C20.7217 6.60007 20.7756 6.31069 20.815 5.93093C20.8204 5.87995 20.8338 5.7553 20.8442 5.65987C20.8729 5.40024 20.9044 4.96298 20.9266 4.52145C20.9391 4.27211 20.9394 2.85745 20.927 2.66995C20.9114 2.43498 20.8902 2.18532 20.8817 2.13619C20.8794 2.12242 20.8736 2.08301 20.8689 2.04861C20.8204 1.69529 20.7641 1.46883 20.684 1.30634C20.5842 1.10378 20.4302 0.885874 20.271 0.721965C20.0382 0.482154 19.6771 0.254928 19.3527 0.143913C19.2604 0.112346 19.0094 0.0502618 18.9291 0.0391361C18.8908 0.0338401 18.837 0.0259338 18.8095 0.0215635C18.742 0.0108382 18.3958 0.0114637 18.3218 0.0224476C18.1061 0.0544319 17.8975 0.104739 17.7468 0.161052C17.6533 0.195972 17.4358 0.304252 17.3348 0.36616C16.9949 0.574421 16.7498 0.838127 16.5847 1.1729C16.4864 1.37234 16.375 1.74782 16.3424 1.99022C16.2909 2.37297 16.2863 2.48587 16.2781 3.56651C16.2698 4.67373 16.2647 4.81011 16.2167 5.21784C16.204 5.32557 16.1521 5.63257 16.1257 5.75578C16.058 6.07155 16.0146 6.22569 15.9029 6.54809C15.8467 6.7101 15.8451 6.71428 15.7766 6.87336C15.6378 7.19547 15.6403 7.19022 15.5357 7.38211C15.5131 7.42339 15.4766 7.49095 15.4544 7.53223C15.4098 7.61539 15.4025 7.6272 15.2525 7.85972C15.1355 8.04101 14.9913 8.24006 14.8674 8.39126C14.7228 8.56774 14.471 8.83935 14.3545 8.94484C14.0156 9.25132 13.9009 9.34389 13.6311 9.52824C13.4623 9.64354 13.42 9.6705 13.2751 9.75486C13.2436 9.77321 13.193 9.803 13.1626 9.82106C13.107 9.85414 12.9993 9.90778 12.7883 10.0076C12.4528 10.1664 11.9126 10.341 11.5691 10.4018C11.5286 10.4089 11.4549 10.4222 11.4055 10.4313C11.2636 10.4573 11.1976 10.4659 10.9554 10.4905C10.8239 10.5038 10.1137 10.5039 9.98174 10.4906C9.8282 10.475 9.73911 10.4651 9.70354 10.4594C9.54817 10.4348 9.35539 10.4009 9.29647 10.3879C9.25709 10.3791 9.19082 10.3645 9.14919 10.3553C8.90324 10.301 8.42166 10.1371 8.18633 10.0277C8.04398 9.96149 7.76462 9.81837 7.68659 9.77168C7.64835 9.7488 7.59863 9.72017 7.57613 9.70807C7.55363 9.69597 7.44685 9.62593 7.33885 9.55241C6.66412 9.09318 6.13151 8.54628 5.66795 7.83664C5.50666 7.58975 5.28355 7.16704 5.1749 6.90255C5.15136 6.84521 5.11815 6.76452 5.10112 6.72324C5.04805 6.59468 4.98876 6.41507 4.89737 6.10607C4.80012 5.77728 4.72051 5.29575 4.69054 4.85505C4.68617 4.79083 4.6794 4.2579 4.6755 3.67075C4.67159 3.08361 4.66478 2.55069 4.66036 2.48647C4.61802 1.87258 4.5406 1.52554 4.36634 1.16873C4.27033 0.97216 4.14687 0.804658 3.98318 0.648881C3.89244 0.562519 3.67039 0.39681 3.58316 0.350356C3.55166 0.333575 3.50563 0.307354 3.48088 0.292083C3.38682 0.234036 3.16985 0.146198 3.00175 0.0981257C2.83748 0.0511376 2.71628 0.0276769 2.53992 0.00873648C2.45158 -0.000754558 2.21685 -0.00331497 2.20443 0.00507517ZM29.4673 9.90845C29.4652 9.91062 29.4353 9.91595 29.401 9.9203C29.2978 9.93335 29.219 9.96119 29.176 9.99979C29.0902 10.0767 29.0872 10.165 29.164 10.3459C29.1984 10.427 29.3878 10.7504 29.4429 10.8221C29.4554 10.8383 29.5212 10.936 29.5892 11.0392C29.6572 11.1425 29.7572 11.2926 29.8117 11.3729C29.9282 11.5448 30.4627 12.362 30.5677 12.5289C30.6079 12.5925 30.6873 12.7179 30.7443 12.8073C30.8014 12.8968 30.8885 13.0338 30.9381 13.1118C31.2095 13.5394 31.336 13.7381 31.5477 14.0688C32.0948 14.9241 32.1613 15.028 32.1825 15.0591C32.2045 15.0915 32.2319 15.1342 32.4301 15.4428C32.6801 15.832 33.3017 16.7954 33.6088 17.2693C33.9553 17.8039 34.0264 17.9354 34.0747 18.1283C34.1031 18.2421 34.1113 18.3374 34.1094 18.5287C34.1084 18.6272 34.1038 19.0682 34.099 19.5087C34.0875 20.5823 34.0869 24.1576 34.0982 24.5043C34.1113 24.9112 34.1291 25.1916 34.1476 25.2841C34.1526 25.3093 34.1642 25.3374 34.1732 25.3467C34.1893 25.363 34.2038 25.3635 34.977 25.3698C35.4099 25.3733 35.8502 25.377 35.9552 25.3782L36.1462 25.3801L36.1656 25.3569C36.1887 25.3296 36.1976 25.2983 36.2192 25.1687C36.2728 24.8474 36.2859 24.5598 36.2853 23.7162C36.2849 23.0309 36.2769 22.617 36.2429 21.5269C36.189 19.798 36.1888 18.8095 36.2419 18.3076C36.2605 18.1332 36.3047 17.9352 36.3419 17.8595C36.3882 17.7655 36.5304 17.5374 36.6701 17.3326C36.7074 17.2778 36.7622 17.1969 36.7919 17.1527C36.8466 17.0712 36.9765 16.8839 37.1103 16.6939C37.2569 16.4855 37.3367 16.3697 37.438 16.2184C37.4947 16.1335 37.5903 15.9909 37.6503 15.9015C37.7103 15.8121 37.8135 15.6582 37.8794 15.5595C37.9453 15.461 38.0484 15.3071 38.1085 15.2177C38.1686 15.1281 38.2716 14.9744 38.3374 14.8757C38.4033 14.7771 38.4964 14.6382 38.5443 14.5671C38.5922 14.496 38.7149 14.3121 38.8169 14.1584C38.9189 14.0047 39.0554 13.8003 39.1202 13.7039C39.1851 13.6075 39.2908 13.4499 39.355 13.3536C39.4194 13.2573 39.5212 13.1052 39.5813 13.0158C39.6414 12.9264 39.7444 12.7725 39.8104 12.674C39.8763 12.5753 39.9721 12.4327 40.0232 12.357C40.1509 12.1678 40.3299 11.9 40.5304 11.598C40.6865 11.363 40.8148 11.1712 40.976 10.9319C41.0111 10.8798 41.0927 10.7679 41.1573 10.6834C41.222 10.5988 41.2846 10.512 41.2965 10.4904C41.3084 10.4689 41.3299 10.4306 41.3443 10.4054C41.3951 10.3165 41.4305 10.1879 41.4305 10.0926C41.4305 10.0155 41.4203 9.99362 41.375 9.97436C41.2773 9.93273 41.1367 9.92654 40.3014 9.92708C39.5486 9.92756 39.3514 9.93168 39.3102 9.94782C39.288 9.9565 39.2667 9.985 39.0768 10.2594C38.8794 10.5448 38.7763 10.6936 38.6894 10.8182C38.6414 10.887 38.5798 10.9771 38.5525 11.0184C38.5251 11.0597 38.473 11.1347 38.4368 11.1852C38.4004 11.2357 38.3417 11.3201 38.3061 11.3729C38.2291 11.487 38.0938 11.6819 37.9992 11.8149C37.9618 11.8676 37.9115 11.9408 37.8874 11.9775C37.8635 12.0141 37.823 12.0724 37.7976 12.1067C37.7721 12.1412 37.7317 12.1993 37.7076 12.236C37.6835 12.2727 37.6246 12.3591 37.5767 12.4278C37.5287 12.4967 37.4447 12.6177 37.3898 12.6969C37.1396 13.0583 37.088 13.1327 36.9548 13.3244C36.8768 13.4368 36.7737 13.5851 36.7257 13.6538C36.6778 13.7227 36.6225 13.8033 36.6029 13.8331C36.5833 13.8629 36.4949 13.9906 36.4066 14.1167C36.3182 14.2429 36.2299 14.3704 36.2102 14.4004C36.1907 14.4302 36.1354 14.5108 36.0874 14.5796C36.0395 14.6484 35.9562 14.7685 35.9021 14.8465C35.8482 14.9245 35.7413 15.0783 35.6649 15.1884C35.5883 15.2985 35.5021 15.4233 35.4731 15.4656C35.2362 15.8124 35.2332 15.8158 35.1905 15.7926C35.1461 15.7683 34.8659 15.3894 34.6514 15.0633C34.597 14.9808 34.5376 14.8907 34.5194 14.8631C34.4778 14.8006 34.3787 14.6434 34.1619 14.296C34.1305 14.2456 34.0922 14.1844 34.077 14.1601C34.0617 14.1357 34.0269 14.0776 33.9994 14.0308C33.9721 13.984 33.9359 13.9251 33.9191 13.8999C33.9023 13.8747 33.8664 13.8162 33.8393 13.7699C33.8122 13.7236 33.7479 13.6203 33.6964 13.5405C33.6449 13.4607 33.5537 13.3184 33.4937 13.2244C33.4339 13.1303 33.3626 13.0195 33.3355 12.9783C33.3083 12.937 33.2567 12.8582 33.2208 12.8032C33.0389 12.5247 32.9687 12.4175 32.9231 12.3487C32.9034 12.3189 32.8519 12.24 32.8087 12.1735C32.7655 12.107 32.708 12.0188 32.6808 11.9775C32.6285 11.8976 32.5307 11.7481 32.4547 11.6314C32.4293 11.5925 32.3936 11.538 32.3755 11.5105C32.3573 11.4829 32.2861 11.3722 32.2171 11.2644C32.1481 11.1566 32.0566 11.014 32.0137 10.9475C31.9708 10.881 31.9186 10.7947 31.8976 10.7557C31.7727 10.5225 31.6609 10.3374 31.5865 10.2405C31.4813 10.1036 31.3506 10.0063 31.2149 9.96375C31.1201 9.93407 31.0555 9.92781 30.7649 9.92012C30.4363 9.91142 29.4729 9.90276 29.4673 9.90845ZM53.8156 11.2619C53.7972 11.2807 53.2439 11.2882 52.7075 11.2769C52.4679 11.2718 52.4578 11.2722 52.4063 11.2897C52.283 11.3315 52.2397 11.4005 52.2072 11.6074C52.2013 11.6445 52.1985 12.0742 52.1985 12.9226C52.1985 13.8283 52.1959 14.1884 52.1894 14.203C52.1843 14.2142 52.1714 14.2275 52.1604 14.2326C52.1462 14.2391 51.9047 14.2418 51.323 14.2418H50.5056L50.4844 14.2606C50.4497 14.2912 50.4157 14.4517 50.3799 14.7548C50.3673 14.8617 50.3679 15.4485 50.3807 15.6304C50.3859 15.7038 50.393 15.8079 50.3965 15.8618C50.4015 15.9381 50.406 15.9629 50.4172 15.9743C50.43 15.9874 50.4579 15.9898 50.6625 15.9955C50.7895 15.9988 51.1585 16.0048 51.4825 16.0087C51.8402 16.0128 52.0857 16.019 52.1073 16.0244C52.1695 16.0396 52.1771 16.054 52.1842 16.1707C52.2079 16.561 52.2116 17.5439 52.2056 21.9564C52.2046 22.7221 52.2146 23.0656 52.2468 23.3617C52.2552 23.4389 52.2564 23.448 52.2775 23.5828C52.3137 23.8142 52.3822 24.0941 52.444 24.2625C52.4888 24.3844 52.6136 24.6362 52.6732 24.725C52.7275 24.8056 52.8646 24.9759 52.9044 25.0119C52.9702 25.0715 53.1 25.1736 53.176 25.2256C53.3631 25.3535 53.6717 25.4852 53.9085 25.5383C53.9379 25.5448 53.9875 25.556 54.019 25.5632C54.0505 25.5703 54.1039 25.5801 54.1376 25.585C54.1714 25.5899 54.223 25.5974 54.2522 25.6018C54.6203 25.6574 55.1591 25.6574 55.5287 25.6019C55.5579 25.5975 55.6002 25.5914 55.6227 25.5884C55.772 25.5682 56.0518 25.5005 56.2156 25.4451C56.4132 25.3782 56.6821 25.259 56.8133 25.1801C56.8381 25.1652 56.8859 25.1368 56.9197 25.1168C57.1119 25.0032 57.4142 24.7748 57.4403 24.7233C57.4568 24.6907 57.4517 24.6491 57.419 24.5497C57.378 24.4249 57.2549 24.1575 57.1735 24.0164C57.151 23.9775 57.121 23.9231 57.1068 23.8955C57.0927 23.868 57.035 23.7667 56.9787 23.6703C56.884 23.5083 56.8515 23.4516 56.7938 23.3475C56.767 23.299 56.7447 23.2826 56.7062 23.2826C56.6467 23.2826 56.3935 23.3814 56.2814 23.4484C56.2522 23.4658 56.2006 23.4963 56.1669 23.5159C56.1332 23.5356 56.0853 23.5639 56.0605 23.5788C56.0357 23.5937 55.9809 23.6235 55.9386 23.6451C55.8962 23.6667 55.8485 23.6931 55.8322 23.7039C55.7935 23.7297 55.6486 23.7921 55.5532 23.8242C55.4176 23.8698 55.3308 23.883 55.1687 23.883C55.0096 23.883 54.9174 23.8693 54.795 23.8277C54.4968 23.726 54.3361 23.5017 54.2642 23.0866C54.2353 22.9199 54.232 22.8487 54.2339 22.4151C54.2385 21.3249 54.2363 20.4465 54.2283 20.1258C54.2051 19.194 54.202 18.9577 54.2017 18.0532C54.2012 17.017 54.2072 16.7717 54.2435 16.3352C54.2483 16.2778 54.2552 16.1943 54.2589 16.1493C54.2644 16.0817 54.2687 16.0645 54.2836 16.0492L54.3017 16.0308L55.5064 16.0257C56.2138 16.0227 56.7346 16.0172 56.7683 16.0125C56.8553 16.0001 56.9503 15.9686 56.9769 15.9433C57.0031 15.9183 57.0189 15.8699 57.0384 15.7555C57.1064 15.3568 57.1209 14.9502 57.0763 14.6919C57.0653 14.6283 57.0154 14.4825 56.9884 14.4358C56.944 14.3582 56.8669 14.2887 56.795 14.2611C56.7478 14.2431 56.5685 14.2301 56.4042 14.2328C55.9774 14.2399 54.6149 14.236 54.5264 14.2275C54.3388 14.2093 54.2832 14.1933 54.268 14.1529C54.2589 14.1285 54.2632 13.3726 54.2767 12.5905C54.2905 11.794 54.2875 11.6229 54.2565 11.4896C54.2375 11.4074 54.221 11.3761 54.173 11.3303C54.1188 11.2785 54.0396 11.2561 53.9114 11.2561C53.8619 11.2561 53.8187 11.2587 53.8156 11.2619ZM62.9309 13.9472C62.9272 13.951 62.8444 13.9568 62.7468 13.96C62.467 13.9694 62.2924 13.9879 61.9846 14.0408C61.7067 14.0886 61.6299 14.1077 61.1949 14.2375C60.9458 14.312 60.5454 14.4884 60.3154 14.6253C60.277 14.6481 60.2218 14.68 60.1926 14.6963C60.1423 14.7242 59.9452 14.8644 59.8428 14.9451C59.5731 15.1576 59.323 15.4524 59.1975 15.7055C59.1363 15.8289 59.1352 15.8418 59.1788 15.9075C59.2477 16.0111 59.3478 16.1097 59.5707 16.2928C59.7376 16.4299 59.9094 16.5509 60.1231 16.6817C60.2791 16.7772 60.4005 16.8397 60.4862 16.8689L60.5383 16.8866L60.5815 16.865C60.6222 16.8448 60.7497 16.7364 60.9454 16.556C61.2364 16.2878 61.3757 16.1771 61.5835 16.0499C61.7101 15.9723 61.7302 15.9619 61.8689 15.902C62.1087 15.7984 62.2164 15.77 62.5677 15.7179C62.6388 15.7073 63.1166 15.7072 63.1823 15.7177C63.2098 15.7221 63.2655 15.73 63.306 15.7353C63.4751 15.7572 63.6422 15.7988 63.7722 15.8515C63.8735 15.8925 64.0627 15.9924 64.1365 16.0439C64.474 16.2793 64.7048 16.6212 64.8106 17.0423C64.8671 17.2672 64.8875 17.4291 64.8944 17.7072C64.8994 17.9053 64.8929 17.9647 64.8635 17.9918C64.8453 18.0086 64.8396 18.0091 64.3615 18.028C64.089 18.0389 63.8734 18.0537 63.6374 18.0778C63.5946 18.0822 63.5209 18.0896 63.4737 18.0942C63.3695 18.1045 63.2864 18.1151 63.1423 18.1367C63.1153 18.1407 63.0638 18.1483 63.0278 18.1535C62.7141 18.1988 62.5487 18.2324 62.1604 18.3302C61.843 18.4101 61.7734 18.4303 61.5631 18.5033C61.2691 18.6053 61.1351 18.6578 60.9495 18.7437C60.8999 18.7667 60.8181 18.8041 60.7676 18.8272C60.717 18.8502 60.6582 18.8793 60.6367 18.892C60.6152 18.9045 60.5664 18.9325 60.528 18.9541C60.3333 19.0637 60.2907 19.09 60.1134 19.2108C59.7127 19.4837 59.3835 19.7983 59.1029 20.1766C58.991 20.3273 58.8303 20.5929 58.7943 20.6864C58.785 20.7102 58.7614 20.7627 58.7416 20.8031C58.6634 20.963 58.5913 21.1777 58.5376 21.4102C58.4776 21.6693 58.4551 21.8665 58.4551 22.1316C58.4551 22.4134 58.4811 22.6277 58.5488 22.9028C58.5991 23.1068 58.6189 23.1724 58.6704 23.3057C58.7599 23.5372 58.8192 23.6634 58.9144 23.8246C59.2105 24.3264 59.5485 24.684 60.0494 25.026C60.2513 25.1639 60.6211 25.3443 60.9004 25.4412C61.175 25.5365 61.4882 25.6019 61.8331 25.6363C61.9621 25.6491 62.5156 25.649 62.6432 25.6361C62.8892 25.6113 62.8918 25.611 63.1423 25.5672C63.3376 25.5331 63.507 25.4912 63.666 25.438C63.9247 25.3513 64.1047 25.273 64.2593 25.1801C64.284 25.1652 64.3319 25.1367 64.3656 25.1168C64.3993 25.0968 64.4748 25.048 64.5333 25.0084C64.6652 24.9191 64.825 24.8208 64.9043 24.7802C65.0027 24.7298 65.02 24.741 65.0364 24.8672C65.0414 24.9061 65.0488 24.9605 65.0528 24.9881C65.0568 25.0156 65.0639 25.0662 65.0687 25.1006C65.0869 25.2324 65.1037 25.3301 65.1104 25.3429C65.1305 25.3812 65.1052 25.3796 65.8458 25.3865C66.231 25.39 66.6229 25.3937 66.7167 25.3948C66.885 25.3967 66.8874 25.3965 66.9021 25.3778C66.9526 25.3145 66.9788 24.9139 66.9926 23.9997C67.0026 23.3434 67.0025 23.0512 66.992 22.0398C66.9848 21.3503 66.9798 19.292 66.984 18.7288C66.9854 18.5205 66.9713 17.9431 66.96 17.7488C66.9498 17.5746 66.9289 17.3385 66.9109 17.1943C66.9066 17.1598 66.8994 17.0998 66.8948 17.0608C66.8672 16.824 66.7906 16.4717 66.7182 16.2478C66.7077 16.2156 66.6895 16.1563 66.6776 16.1161C66.6368 15.978 66.5071 15.6879 66.4212 15.5429C66.3297 15.3884 66.2445 15.2703 66.1105 15.1118C65.9669 14.9418 65.7027 14.7173 65.4989 14.5916C65.4673 14.5722 65.4268 14.5461 65.4088 14.5336C65.3697 14.5065 65.1166 14.3764 65.0243 14.3361C64.7447 14.2141 64.3768 14.0998 64.1007 14.0493C64.0506 14.0402 63.9894 14.029 63.9647 14.0245C63.7885 13.9923 63.5734 13.9696 63.3347 13.958C63.0137 13.9423 62.9376 13.9403 62.9309 13.9472ZM44.2427 13.9635C44.2394 13.967 44.1751 13.9728 44.0998 13.9764C43.9228 13.9849 43.7262 14.0029 43.6274 14.0199C43.6139 14.0222 43.5735 14.0282 43.5375 14.0334C43.2294 14.0771 42.9711 14.1408 42.6252 14.2584C42.2978 14.3696 41.8585 14.5929 41.5742 14.7926C41.327 14.966 40.9681 15.2724 40.8451 15.4149C40.814 15.4509 40.7646 15.5067 40.7351 15.5389C40.6085 15.678 40.3568 16.0122 40.2611 16.1685C40.0384 16.5322 39.9029 16.8 39.77 17.1388C39.6437 17.4608 39.5686 17.7 39.4748 18.0783C39.4509 18.1744 39.3945 18.4599 39.3841 18.537C39.3794 18.5715 39.3722 18.624 39.3679 18.6538C39.2674 19.3601 39.2674 20.0991 39.3679 20.8055C39.3722 20.8353 39.3794 20.8879 39.3841 20.9222C39.4168 21.1644 39.5502 21.7142 39.6483 22.0106C39.6905 22.1382 39.8223 22.4857 39.8698 22.5944C39.915 22.698 40.073 23.0204 40.1088 23.0824C40.1234 23.1076 40.1624 23.1751 40.1956 23.2324C40.417 23.6166 40.7091 23.9986 41.0186 24.3093C41.2669 24.5585 41.5034 24.7461 41.8595 24.9765C42.1729 25.1791 42.6645 25.3896 43.0632 25.4916C43.1925 25.5247 43.442 25.5774 43.5211 25.5883C43.5436 25.5914 43.5859 25.5975 43.6152 25.6019C43.8371 25.6352 44.016 25.6459 44.3516 25.6457C44.7268 25.6456 44.9088 25.6331 45.2353 25.5851C45.2645 25.5807 45.3069 25.5747 45.3293 25.5717C45.4112 25.5605 45.6919 25.5004 45.7916 25.4728C46.0042 25.4137 46.0601 25.395 46.3194 25.2951C46.4062 25.2618 46.6532 25.1485 46.7204 25.1114C46.8773 25.0247 46.9302 24.9932 47.1213 24.8721C47.3431 24.7318 47.7648 24.3741 47.9249 24.1906C48.0872 24.0046 48.1107 23.9766 48.2044 23.858C48.5658 23.4005 48.8545 22.8664 49.0949 22.2108C49.1454 22.0729 49.1464 22.0696 49.2108 21.8397C49.3437 21.3652 49.4014 21.0689 49.4535 20.5929C49.5063 20.1089 49.5049 19.4066 49.4501 18.979C49.4457 18.9446 49.4381 18.8845 49.4334 18.8456C49.4286 18.8066 49.4214 18.7503 49.4171 18.7205C49.4128 18.6907 49.4055 18.6364 49.4006 18.5998C49.3958 18.5632 49.3902 18.5275 49.3881 18.5205C49.386 18.5135 49.3766 18.4627 49.3672 18.4077C49.3474 18.2916 49.2699 17.9718 49.2107 17.7614C49.0466 17.1777 48.7763 16.5795 48.459 16.0974C48.231 15.7509 47.934 15.3979 47.6777 15.1684C47.4044 14.9238 47.2018 14.7715 46.9454 14.6176C46.7514 14.5012 46.7366 14.4928 46.6794 14.4665C46.6479 14.4521 46.5762 14.4183 46.52 14.3914C46.2455 14.2607 45.8409 14.1278 45.5217 14.0638C45.3623 14.0317 45.2917 14.0212 45.0103 13.987C44.8657 13.9694 44.2553 13.9508 44.2427 13.9635ZM44.6011 15.7089C44.6642 15.7132 44.7396 15.7205 44.769 15.7252C44.7982 15.7298 44.8497 15.7375 44.8834 15.7421C45.1227 15.7754 45.331 15.8387 45.5912 15.9574C45.68 15.9979 45.8357 16.0893 45.9553 16.1711C46.0757 16.2534 46.2155 16.3775 46.3812 16.549C46.5547 16.7285 46.6325 16.8255 46.7718 17.0357C46.8443 17.1453 46.8731 17.1943 46.9541 17.3469C46.9756 17.3872 46.9971 17.425 47.0018 17.4309C47.0177 17.4504 47.1357 17.73 47.2042 17.9106C47.2427 18.0121 47.2611 18.0721 47.3187 18.2826C47.3672 18.4598 47.4136 18.6733 47.4392 18.8372C47.446 18.8808 47.4539 18.9315 47.4568 18.9498C47.4628 18.9886 47.4736 19.1015 47.487 19.2667C47.4993 19.4177 47.4993 19.975 47.487 20.1258C47.4727 20.3011 47.4628 20.4065 47.458 20.4344C47.4556 20.4481 47.4495 20.4895 47.4445 20.5261C47.395 20.8875 47.2824 21.3639 47.1841 21.627C47.0416 22.0087 47.0171 22.0623 46.8339 22.3942C46.7054 22.6269 46.4367 22.9682 46.2441 23.1435C46.0068 23.3593 45.8339 23.4821 45.598 23.602C45.3154 23.7457 45.1017 23.815 44.8098 23.8578C44.7716 23.8633 44.7226 23.8714 44.701 23.8754C44.6463 23.8859 44.2256 23.8849 44.1533 23.8741C43.7723 23.817 43.5983 23.7665 43.2756 23.6188C43.0944 23.5358 42.8365 23.3643 42.6497 23.2024C42.572 23.135 42.3438 22.9011 42.2684 22.8113C42.1317 22.6487 41.9539 22.3807 41.8725 22.215C41.8579 22.1851 41.8335 22.1401 41.8184 22.1149C41.7757 22.0433 41.6469 21.7266 41.5794 21.5269C41.5089 21.3183 41.4312 20.9623 41.3891 20.6554C41.3844 20.621 41.3785 20.5816 41.3761 20.5678C41.3553 20.4473 41.338 20.1215 41.3381 19.8464C41.3381 19.4563 41.3569 19.2019 41.4107 18.8581C41.4276 18.7501 41.4896 18.4363 41.512 18.3452C41.5781 18.0764 41.7229 17.6822 41.8491 17.4277C41.9505 17.2235 41.9814 17.1684 42.0767 17.0232C42.2255 16.7964 42.2828 16.7254 42.4854 16.5158C42.7416 16.251 42.9124 16.122 43.2043 15.9732C43.445 15.8506 43.6438 15.784 43.8893 15.7438C43.9478 15.7342 44.0182 15.7227 44.0457 15.718C44.0733 15.7134 44.1285 15.7092 44.1685 15.7087C44.2085 15.7082 44.2522 15.7047 44.2657 15.701C44.2924 15.6935 44.4212 15.6966 44.6011 15.7089ZM64.8938 19.7836L64.914 19.8041L64.9107 21.1285C64.9088 21.8995 64.9041 22.4893 64.8995 22.5402C64.8875 22.67 64.86 22.7765 64.8145 22.868C64.7926 22.912 64.6557 23.0557 64.5906 23.1029C64.5348 23.1434 64.2858 23.2971 64.1692 23.3631C63.9056 23.5123 63.6699 23.6187 63.398 23.7113C63.1742 23.7874 63.0019 23.8254 62.7496 23.8541C62.6547 23.8649 62.3464 23.8677 62.2791 23.8585C61.9207 23.8089 61.7725 23.7669 61.5433 23.6498C61.3199 23.5357 61.1009 23.3604 60.9542 23.1782C60.8949 23.1046 60.7835 22.935 60.75 22.8675C60.6893 22.7449 60.6184 22.5323 60.5947 22.4016C60.5643 22.2343 60.5608 22.2011 60.5608 22.0815C60.5608 21.9622 60.5643 21.9289 60.5946 21.762C60.6414 21.504 60.7713 21.2264 60.9547 20.9927C61.0707 20.8446 61.274 20.6549 61.4158 20.562C61.5772 20.4564 61.6129 20.4351 61.7186 20.3813C62.0742 20.2004 62.3445 20.1082 62.8928 19.981C62.9833 19.96 63.2846 19.9075 63.3796 19.8961C63.4156 19.8919 63.4709 19.8844 63.5024 19.8797C63.5338 19.8749 63.5946 19.8671 63.6374 19.8624C63.6801 19.8576 63.7464 19.8502 63.7847 19.8459C63.8229 19.8415 63.8965 19.834 63.9483 19.8292C64 19.8245 64.081 19.817 64.1283 19.8125C64.2708 19.7992 64.4348 19.7882 64.5963 19.7814C64.6805 19.7778 64.752 19.7723 64.7552 19.769C64.7585 19.7656 64.7864 19.763 64.8173 19.763C64.8663 19.763 64.8762 19.7656 64.8938 19.7836ZM10.3499 26.2597C10.3364 26.2633 10.2964 26.2667 10.2609 26.2673C10.2254 26.2678 10.1739 26.2719 10.1463 26.2762C10.1188 26.2806 10.065 26.2883 10.0267 26.2932C9.76629 26.3275 9.35484 26.4215 9.12917 26.4983C9.01641 26.5368 8.84747 26.6036 8.68735 26.6732C8.4748 26.7656 8.16479 26.9528 7.94434 27.1218C7.70042 27.3089 7.41325 27.6038 7.23586 27.8493C7.08252 28.0614 7.01751 28.1673 6.89836 28.3991C6.86089 28.472 6.76477 28.6889 6.74309 28.7495C6.53564 29.3289 6.46466 29.7253 6.46466 30.3049C6.46466 30.7515 6.51508 31.1456 6.6179 31.5033C6.63348 31.5575 6.65592 31.6356 6.66776 31.6768C6.70194 31.796 6.77093 31.9845 6.82955 32.1188C7.15046 32.8544 7.61635 33.4331 8.22254 33.8493C8.40028 33.9713 8.67893 34.1225 8.86698 34.1988C9.15422 34.3155 9.51352 34.4146 9.77309 34.4488C9.81134 34.4539 9.85552 34.46 9.87127 34.4624C10.0306 34.4865 10.5513 34.4946 10.7672 34.4765C10.9796 34.4586 11.0451 34.4512 11.1396 34.4344C11.3975 34.3884 11.4849 34.3655 11.7686 34.2693C11.9871 34.1952 12.0635 34.1626 12.2896 34.0472C12.4779 33.9511 12.5523 33.9066 12.7678 33.7609C12.8928 33.6763 13.1193 33.4881 13.2985 33.3198C13.3873 33.2366 13.6565 32.9142 13.7548 32.7735C13.888 32.583 13.9428 32.4905 14.0881 32.2106C14.141 32.1089 14.2608 31.8091 14.3172 31.6376C14.3808 31.4447 14.4429 31.1416 14.4818 30.8344C14.513 30.589 14.5118 30.2001 14.4789 29.8962C14.4477 29.6068 14.3674 29.2571 14.2722 28.9955C14.1939 28.7805 14.066 28.4965 13.9831 28.3533C13.9685 28.3281 13.9405 28.2793 13.921 28.2449C13.8111 28.0516 13.5902 27.7491 13.4311 27.574C13.3943 27.5336 13.3524 27.4855 13.3381 27.4672C13.313 27.4353 13.2183 27.3471 13.0594 27.2076C12.9084 27.0752 12.6614 26.8945 12.5059 26.8027C12.4722 26.7827 12.4243 26.7541 12.3996 26.7393C12.3412 26.7041 12.1998 26.6322 12.1194 26.5966C12.0845 26.5811 12.0265 26.5555 11.9906 26.5396C11.7611 26.4383 11.3217 26.3195 11.0454 26.2842C10.8546 26.2598 10.4078 26.244 10.3499 26.2597Z" fill="#00BFF3"/>
</g>
<defs>
<clipPath id="clip0_470_16557">
<rect width="67" height="35" fill="white"/>
</clipPath>
</defs>
</svg>
