<svg width="368" height="64" viewBox="0 0 368 64" fill="none" xmlns="http://www.w3.org/2000/svg">
<mask id="mask0_502_11168" style="mask-type:alpha" maskUnits="userSpaceOnUse" x="0" y="0" width="69" height="64">
<path fill-rule="evenodd" clip-rule="evenodd" d="M9.08795 6.48678L0 1.51893C0 1.51893 25.0229 1.53285 36.9328 1.54676C40.875 1.54676 44.6512 3.13313 47.4315 5.93016C47.9849 5.27613 48.2892 4.92823 49.2851 4.02372C51.3185 2.18689 54.0436 0.141296 58.8711 0.043888C60.2266 0.016057 62.0526 0.308284 63.0347 1.44935C65.0819 1.43544 67.2397 1.64417 68.9688 1.8529L63.8646 6.09715C62.7718 12.7905 59.535 15.2675 58.0688 16.5756C60.9598 19.4421 62.5643 23.3664 62.5505 27.4435C62.5367 39.397 62.509 63.9579 62.509 63.9579C62.509 63.9579 54.5415 49.1517 50.9728 42.8341C49.2575 39.8005 47.9295 35.2502 46.5048 29.7814C46.0346 30.324 18.4802 61.5087 18.4802 61.5087L31.3029 32.8706L2.82182 45.812C2.82182 45.812 33.2533 18.6211 34.3737 17.6053C31.137 16.5894 25.6178 15.5319 21.4265 13.1941C16.9863 10.7449 9.08795 6.48678 9.08795 6.48678Z" fill="#BC4038"/>
</mask>
<g mask="url(#mask0_502_11168)">
<path fill-rule="evenodd" clip-rule="evenodd" d="M9.08795 6.48666L0 1.51881C0 1.51881 25.0229 1.53273 36.9328 1.54664C40.875 1.54664 44.6512 3.13301 47.4315 5.93004C47.9849 5.27601 48.2892 4.92811 49.2851 4.0236C51.3185 2.18676 54.0436 0.141174 58.8711 0.043766C60.2266 0.015935 62.0526 0.308162 63.0347 1.44923C65.0819 1.43532 67.2397 1.64405 68.9688 1.85278L63.8646 6.09703C62.7718 12.7904 59.535 15.2674 58.0688 16.5755C60.9598 19.442 62.5643 23.3663 62.5505 27.4434C62.5367 39.3969 62.509 63.9578 62.509 63.9578C62.509 63.9578 54.5415 49.1516 50.9728 42.834C49.2575 39.8004 47.9295 35.2501 46.5048 29.7813C46.0346 30.3239 18.4802 61.5086 18.4802 61.5086L31.3029 32.8705L2.82182 45.8119C2.82182 45.8119 33.2533 18.6209 34.3737 17.6052C31.137 16.5893 25.6178 15.5317 21.4265 13.194C16.9863 10.7448 9.08795 6.48666 9.08795 6.48666Z" fill="#BC4038"/>
<path fill-rule="evenodd" clip-rule="evenodd" d="M31.2821 32.8569L2.12324 49.5834L1.26562 45.353L10.976 35.7097C12.9679 36.127 15.0428 36.3497 17.1592 36.3497C22.2634 36.3359 27.077 35.0973 31.2821 32.8569Z" fill="#466A9E"/>
<path fill-rule="evenodd" clip-rule="evenodd" d="M31.2767 32.8607C32.909 31.9978 34.4582 30.9821 35.8967 29.8271C36.2842 31.7613 36.4778 33.7652 36.4778 35.8108C36.4778 52.7181 22.8251 66.4527 6.0186 66.4527C5.09184 66.4527 4.1789 66.4109 3.27979 66.3275L31.2767 32.8607Z" fill="#5C4998"/>
<path fill-rule="evenodd" clip-rule="evenodd" d="M0.52832 5.67771C2.31271 5.35765 4.13859 5.19067 6.01982 5.19067C10.8335 5.19067 15.3982 6.31784 19.4374 8.32167C17.653 8.65563 15.8132 8.82263 13.932 8.82263C9.11829 8.82263 4.5674 7.69546 0.52832 5.67771Z" fill="#F09A38"/>
<path fill-rule="evenodd" clip-rule="evenodd" d="M19.4365 8.33075C29.9906 6.38257 38.636 -1.09007 42.3155 -10.984C45.5384 -6.1414 47.4196 -0.324716 47.4196 5.92336C47.4196 15.6086 42.9102 24.264 35.8971 29.8442C34.0298 20.3816 27.819 12.4776 19.4365 8.33075Z" fill="#A93930"/>
<path fill-rule="evenodd" clip-rule="evenodd" d="M77.8611 34.5708C88.1524 34.5708 96.5071 42.9757 96.5071 53.3289C96.5071 63.6821 88.1524 72.087 77.8611 72.087C67.5695 72.087 59.2148 63.6821 59.2148 53.3289C59.2148 42.9897 67.5695 34.5708 77.8611 34.5708Z" fill="#F09A38"/>
<path fill-rule="evenodd" clip-rule="evenodd" d="M51.7878 24.9886C53.2125 32.0995 57.0857 38.3198 62.508 42.7032C60.4331 45.7228 59.2159 49.3965 59.2159 53.3484C59.2159 63.7016 67.5706 72.1067 77.862 72.1067C78.3601 72.1067 78.8441 72.0927 79.3282 72.0511C75.6627 73.9017 71.5268 74.9454 67.1558 74.9454C52.1337 74.9454 39.9473 62.6858 39.9473 47.5736C39.9611 38.2083 44.6502 29.9286 51.7878 24.9886Z" fill="#FBC338"/>
<path fill-rule="evenodd" clip-rule="evenodd" d="M51.4162 15.353C51.2778 16.5358 51.2086 17.7326 51.2086 18.9572C51.2086 21.0167 51.4162 23.0344 51.8035 24.9826C46.5886 28.5867 42.6741 33.9721 40.945 40.2757C40.9035 39.6635 40.8897 39.0651 40.8897 38.4389C40.8757 29.2129 44.9702 20.9471 51.4162 15.353Z" fill="#ED7837"/>
<path fill-rule="evenodd" clip-rule="evenodd" d="M51.7886 24.9781C56.1596 21.9583 61.4575 20.1911 67.1564 20.1911C81.8328 20.1911 93.8256 31.9079 94.3511 46.5611C90.4504 48.4117 86.0793 49.4416 81.4869 49.4416C66.8245 49.4276 54.5827 38.9214 51.7886 24.9781Z" fill="#F2B641"/>
<path fill-rule="evenodd" clip-rule="evenodd" d="M51.4169 15.3464C56.7287 10.7404 63.6311 7.95728 71.1835 7.95728C87.9071 7.95728 101.477 21.6084 101.477 38.4323C101.477 39.6569 101.408 40.8537 101.269 42.0365C99.1943 43.8315 96.8704 45.3623 94.3669 46.5451C93.8411 31.906 81.8483 20.1752 67.1721 20.1752C61.4733 20.1752 56.1754 21.9424 51.8044 24.9621C51.4169 23.0139 51.2095 20.9961 51.2095 18.9366C51.1957 17.726 51.2786 16.5292 51.4169 15.3464Z" fill="#E07037"/>
<path fill-rule="evenodd" clip-rule="evenodd" d="M51.4155 15.3537C53.186 0.227508 65.9948 -11.5172 81.5011 -11.5172C98.2246 -11.5172 111.794 2.13393 111.794 18.9579C111.794 28.1839 107.714 36.4635 101.268 42.0437C101.406 40.8608 101.475 39.6642 101.475 38.4396C101.475 21.6157 87.9055 7.96454 71.1821 7.96454C63.6295 7.96454 56.7134 10.7477 51.4155 15.3537Z" fill="#96291F"/>
<path fill-rule="evenodd" clip-rule="evenodd" d="M0.524401 5.67971C-9.47649 0.711872 -16.3789 -9.66912 -16.3789 -21.6644C-16.3789 -38.4882 -2.80923 -52.1393 13.9143 -52.1393C30.6378 -52.1393 44.2074 -38.4882 44.2074 -21.6644C44.2074 -6.73294 33.515 5.70754 19.4196 8.30976C15.3667 6.30592 10.8158 5.17875 6.00207 5.17875C4.13469 5.19267 2.30879 5.35965 0.524401 5.67971Z" fill="#E07037"/>
</g>
<path fill-rule="evenodd" clip-rule="evenodd" d="M181.062 8.16748C187.02 8.16748 191.851 12.6949 191.851 18.2779C191.851 23.8602 187.02 28.3878 181.062 28.3878C175.104 28.3878 170.272 23.8602 170.272 18.2779C170.272 12.6949 175.104 8.16748 181.062 8.16748ZM181.062 15.6209C182.532 15.6209 183.725 16.8106 183.725 18.2773C183.725 19.7443 182.532 20.934 181.062 20.934C179.592 20.934 178.399 19.7443 178.399 18.2773C178.399 16.8106 179.592 15.6209 181.062 15.6209Z" fill="white"/>
<path fill-rule="evenodd" clip-rule="evenodd" d="M163.459 28.3878C157.501 28.3878 152.669 23.8606 152.669 18.2779C152.669 12.6953 157.501 8.16748 163.459 8.16748C165.99 8.16748 168.351 8.7299 170.351 9.70092L167.312 16.5071C166.435 16.0759 165.246 15.8105 163.936 15.8105C162.55 15.8105 161.426 16.9315 161.426 18.3137C161.426 19.6959 162.55 20.8172 163.936 20.8172C165.259 20.8172 166.46 20.547 167.339 20.1081L170.351 26.8559C168.351 27.8265 165.99 28.3878 163.459 28.3878Z" fill="white"/>
<path fill-rule="evenodd" clip-rule="evenodd" d="M115.563 8.16748C121.521 8.16748 126.352 12.6949 126.352 18.2779C126.352 23.8602 121.521 28.3878 115.563 28.3878C109.605 28.3878 104.773 23.8602 104.773 18.2779C104.773 12.6949 109.605 8.16748 115.563 8.16748ZM115.563 15.6209C117.033 15.6209 118.226 16.8106 118.226 18.2773C118.226 19.7443 117.033 20.934 115.563 20.934C114.092 20.934 112.9 19.7443 112.9 18.2773C112.9 16.8106 114.092 15.6209 115.563 15.6209Z" fill="white"/>
<path fill-rule="evenodd" clip-rule="evenodd" d="M294.688 28.3878C288.731 28.3878 283.899 23.8606 283.899 18.2779C283.899 12.6953 288.731 8.16748 294.688 8.16748C297.22 8.16748 299.581 8.7299 301.581 9.70092L298.542 16.5071C297.664 16.0759 296.474 15.8105 295.165 15.8105C293.78 15.8105 292.655 16.9315 292.655 18.3137C292.655 19.6959 293.78 20.8172 295.165 20.8172C296.488 20.8172 297.69 20.547 298.568 20.1081L301.581 26.8559C299.581 27.8265 297.22 28.3878 294.688 28.3878Z" fill="white"/>
<path fill-rule="evenodd" clip-rule="evenodd" d="M216.259 8.65454H209.697L205.473 13.7854L201.248 8.65454H193.773V27.9008H201.456V18.3325L204.682 22.1186L207.958 18.2745V27.9008H216.259V8.65454Z" fill="white"/>
<path fill-rule="evenodd" clip-rule="evenodd" d="M260.777 8.65454H242.537L242.539 18.2664C242.539 20.4052 242.172 22.5391 240.185 22.7958V27.7525C240.96 28.082 241.795 28.2627 242.667 28.2627C248.889 28.2627 249.993 23.4933 249.993 18.7202V14.0021H252.19V27.8999H260.777V8.65454Z" fill="white"/>
<path fill-rule="evenodd" clip-rule="evenodd" d="M271.868 8.65454H263.281V27.8999H273.902C279.806 27.8999 282.644 24.1948 282.644 19.824C282.644 16.5227 279.958 13.8434 276.647 13.8434C274.826 13.8434 273.169 14.352 271.868 15.1837V8.65454ZM273.027 18.9252C273.986 18.9252 274.763 19.707 274.763 20.6709C274.763 21.6348 274.377 23.1386 273.027 23.1386C272.521 23.1386 272.145 23.0818 271.868 22.9848V19.3716C272.175 19.0936 272.582 18.9252 273.027 18.9252Z" fill="white"/>
<path fill-rule="evenodd" clip-rule="evenodd" d="M368 8.65454H354.186C351.105 8.65454 348.604 11.1477 348.604 14.2214C348.604 16.4246 349.89 18.3286 351.751 19.231C349.497 21.2727 347.384 24.682 347.384 27.8999H355.408C355.728 23.3708 357.512 21.8206 359.414 21.6851V27.8999H368V8.65454ZM359.414 13.0253H358.67C357.477 13.0253 356.51 13.9905 356.51 15.1805C356.51 16.3705 357.477 17.3357 358.67 17.3357H359.414V13.0253Z" fill="white"/>
<path fill-rule="evenodd" clip-rule="evenodd" d="M228.848 8.16748C234.805 8.16748 239.637 12.6949 239.637 18.2779C239.637 23.8602 234.805 28.3878 228.848 28.3878C222.89 28.3878 218.058 23.8602 218.058 18.2779C218.058 12.6949 222.89 8.16748 228.848 8.16748ZM228.848 15.6209C230.318 15.6209 231.511 16.8106 231.511 18.2773C231.511 19.7443 230.318 20.934 228.848 20.934C227.377 20.934 226.185 19.7443 226.185 18.2773C226.185 16.8106 227.377 15.6209 228.848 15.6209Z" fill="white"/>
<path fill-rule="evenodd" clip-rule="evenodd" d="M91.9426 20.3062V27.9016H83.3564V8.65625H91.9426V14.7581C94.6162 14.8239 95.9184 12.2969 95.9478 8.65625H103.863C103.828 12.7235 102.128 16.1271 99.7377 17.4509C102.264 18.3823 104.59 23.397 104.59 27.9016H96.5662C96.5662 23.2819 94.8658 20.1872 91.9426 20.3062Z" fill="white"/>
<path fill-rule="evenodd" clip-rule="evenodd" d="M311.557 20.3062V27.9016H302.973V8.65625H311.557V14.7581C314.231 14.8239 315.534 12.2969 315.563 8.65625H323.479C323.444 12.7235 321.743 16.1271 319.353 17.4509C321.88 18.3823 324.206 23.397 324.206 27.9016H316.182C316.182 23.2819 314.481 20.1872 311.557 20.3062Z" fill="white"/>
<path fill-rule="evenodd" clip-rule="evenodd" d="M150.796 8.65454H144.235L140.011 13.7854L135.786 8.65454H128.312V27.9008H135.994V18.3325L139.221 22.1186L142.496 18.2745V27.9008H150.796V8.65454Z" fill="white"/>
<path fill-rule="evenodd" clip-rule="evenodd" d="M340.984 8.65454L348.007 27.8999H339.428L338.043 24.1054H331.674L330.289 27.8999H323.58L330.604 8.65454H340.984ZM336.517 19.9205L334.859 15.3775L333.2 19.9205H336.517Z" fill="white"/>
<path fill-rule="evenodd" clip-rule="evenodd" d="M158.986 34.0962H140.137C137.02 40.0179 134.65 46.6434 134.343 55.214H141.621C141.772 54.3368 141.939 53.469 142.122 52.6149H148.576V55.214H158.986V34.0962ZM148.576 41.6608V47.2909H143.552C144.223 45.264 145.018 43.37 145.952 41.6608H148.576Z" fill="white"/>
<path fill-rule="evenodd" clip-rule="evenodd" d="M160.957 34.0962V55.214H179.832C183.383 55.214 185.845 53.5677 185.808 49.9122C185.781 47.2728 183.962 45.1155 181.646 43.6566C183.686 42.3624 184.697 40.742 184.688 38.2791C184.676 35.3164 182.291 34.3153 178.652 34.0962H160.957ZM170.736 49.7986H173.861C174.959 49.7986 175.894 48.8378 175.892 47.9331C175.89 47.3769 175.496 46.6976 175.073 46.3076C173.763 46.7025 172.317 47.1068 170.736 47.5439V49.7986ZM170.736 39.679H172.112C173.67 39.6628 174.663 40.0821 174.66 40.8491C174.655 41.8867 173.247 42.8437 170.736 43.4773V39.679Z" fill="white"/>
<path fill-rule="evenodd" clip-rule="evenodd" d="M110.485 34.0962V55.214H120.895V51.646C130.841 49.5541 135.559 45.6713 135.559 41.0724C135.559 36.435 132.199 34.0962 126.713 34.0962H110.485ZM120.895 45.8904C123.227 45.3055 124.564 44.3393 124.582 43.0859C124.602 41.7884 123.225 41.2841 121.618 41.2841H120.895V45.8904Z" fill="white"/>
<path fill-rule="evenodd" clip-rule="evenodd" d="M93.7663 41.6608H98.025V55.2132H108.435V34.0962H83.3564V55.2132H93.7663V41.6608Z" fill="white"/>
<path fill-rule="evenodd" clip-rule="evenodd" d="M211.271 34.0962H193.526C191.058 38.3609 189.386 43.2801 188.769 49.0678H186.586V58.9964H193.622C194.419 55.5409 197.379 54.9164 200.425 54.9757C203.248 55.0305 205.916 55.9048 206.251 58.9964H213.321V49.0678H211.271V34.0962ZM200.861 41.6608V49.0678H195.874C196.456 45.7726 197.43 43.1474 198.814 41.6608H200.861Z" fill="white"/>
<path fill-rule="evenodd" clip-rule="evenodd" d="M238.715 34.0962H219.867C216.749 40.0179 214.379 46.6434 214.073 55.214H221.35C221.501 54.3368 221.668 53.469 221.851 52.6149H228.305V55.214H238.715V34.0962ZM228.305 41.6608V47.2909H223.281C223.953 45.264 224.747 43.37 225.682 41.6608H228.305Z" fill="white"/>
</svg>
