<svg width="307" height="284" fill="none" xmlns="http://www.w3.org/2000/svg"><g filter="url(#a)"><path fill-rule="evenodd" clip-rule="evenodd" d="M99.781 16.036c3.651-1.531 95.966-.51 100.66 1.531-10.431 2.042-20.862 4.083-30.772 6.125 2.608 1.531 26.078 5.104 30.25 6.125-8.866 3.062-18.254 6.124-27.121 9.187a8207.11 8207.11 0 0 1 33.901 3.062c-5.215 4.594-20.862 7.146-28.685 11.229 13.039.51 26.599.51 39.638 1.02-41.203 5.615-82.405 11.74-123.086 17.354 4.172-3.062 26.078-6.635 29.207-9.697l-34.422-3.063c6.78-4.083 28.685-5.614 36.508-10.208-11.474-1.53-22.948-2.552-34.422-4.083 6.258-1.531 32.336-7.145 35.465-9.187-6.78-1.531-28.685-3.573-32.858-6.635 11.475-2.042 22.949-4.594 34.423-6.635-9.91-2.552-19.298-4.594-28.686-6.125ZM121.688 137c1.564 5.104 3.65 10.207 5.215 14.801 2.086-2.042 8.866-7.146 11.996-8.166 3.651 2.041 10.431 7.145 13.56 9.187 15.647-9.187 30.771-18.374 46.418-27.562-5.216 0-9.91.511-15.125.511h-12.517c3.651-2.042 7.823-3.573 11.474-5.104 2.608-1.021 3.651-1.531 6.258-2.552 2.087-1.021 3.651-2.042 5.738-3.062-7.302 0-14.604 1.02-21.906 1.531-10.952.51-9.387 1.021-18.254 5.104-11.995 5.614-23.469 10.718-32.857 15.312Zm-53.2-45.936c7.823-1.531 15.648-3.062 23.471-5.104C69.008 97.19 24.155 116.073.164 131.896c6.258 1.531 31.292 6.124 36.508 5.104 9.91-1.532 23.992-6.636 33.901-7.656-1.043 16.843-7.823 16.332.522 25.009 4.172 4.594 11.997 12.76 13.04 19.395 2.086 16.843 2.086 13.781-4.695 25.52-6.259 9.697-12.518 19.395-18.776 29.603-2.608 3.572-5.216 7.145-6.78 11.228 11.474-4.083 34.945-21.947 51.635-29.092 5.215-2.042 10.952-3.063 16.689-5.104-5.215-5.615-10.952-11.229-16.168-17.354-6.78-7.145-8.345-10.207-8.866-23.988 1.564 0 3.129 0 4.172.51 5.216 1.531 9.388 12.25 16.69 15.312-3.13-13.27-6.78-26.54-9.91-39.3-7.301-1.531-15.125-2.552-22.426-4.083.521-1.532.521-1.532 3.65-4.084 3.651-3.062 7.824-5.614 11.475-8.676 4.694-3.573 58.413-13.781 66.758-15.823 7.302-1.531 14.603-3.062 22.948-5.103 13.56-3.063 9.388-3.573 19.297 3.572 14.604 10.719 16.69 6.125 16.69 38.28l10.431-6.635c2.086-2.042 4.172-6.125 6.259-9.187 8.866-12.76 7.823-17.864 8.866-39.3 6.258-1.022 51.112-10.719 54.763-12.76-1.565-2.553-6.781-8.167-9.388-10.209-2.086-1.53-3.651-1.02-9.91-1.02-5.737 0-11.474.51-17.211.51-13.56 0-27.12 0-40.681.51 6.259-2.041 11.996-4.593 18.255-6.635-10.953-17.863-21.906-35.727-33.901-54.101-1.565-2.042-1.043-2.552-5.737-3.063C190.01 1.746 80.484.214 78.396.724c-3.65 30.114-6.78 60.227-9.909 90.34Z" fill="#1B1C20"/></g><g filter="url(#b)"><path fill-rule="evenodd" clip-rule="evenodd" d="M160.003 204.235c25.022-15.061 56.173-34.138 64.343-38.656-7.149 7.028-13.788 14.559-20.937 21.588 7.149-1.507 13.788-7.531 21.448-9.037-4.596 5.522-18.384 18.575-22.98 23.595 4.596-1.004 8.681-2.008 13.277-3.012-13.788 13.555-37.278 34.64-55.151 50.203v18.073c24.512-21.085 59.747-50.203 69.45-65.264 7.66-11.045 12.766-24.6 18.384-36.146 7.66-16.567 19.405-39.158 23.49-44.68-14.809 8.032-53.109 30.623-62.811 36.146 0-5.021 0-21.588-2.043-24.098-3.575 9.539-8.171 19.579-11.745 29.118-3.064 8.033-3.575 7.028-10.214 11.044-5.106 3.012-14.298 8.033-24.511 14.56v16.566Zm-64.344 39.661c7.66-5.522 24.001-15.061 32.172-20.081 4.596-3.012 17.363-11.045 32.172-19.58v-16.566c-37.279 22.591-98.56 59.741-99.58 62.251 26.044 10.543 55.152 25.102 81.196 33.134 4.596-4.016 11.234-9.539 18.384-16.065v-18.073c-6.128 5.523-12.256 10.04-16.852 13.053 2.043-6.527 7.66-10.543 11.745-18.576-5.106 1.507-21.958 13.054-29.108 16.568 4.086-8.033 12.767-16.065 16.342-23.595-8.682 5.02-22.47 14.558-30.129 17.068 4.595-5.522 17.362-19.077 19.405-23.595-8.171 4.016-27.576 11.547-35.747 14.057Z" fill="#1B1C20"/></g><defs><filter id="a" x=".164" y=".624" width="310.673" height="242.475" filterUnits="userSpaceOnUse" color-interpolation-filters="sRGB"><feFlood flood-opacity="0" result="BackgroundImageFix"/><feBlend in="SourceGraphic" in2="BackgroundImageFix" result="shape"/><feColorMatrix in="SourceAlpha" values="0 0 0 0 0 0 0 0 0 0 0 0 0 0 0 0 0 0 127 0" result="hardAlpha"/><feOffset dx="4" dy="3"/><feGaussianBlur stdDeviation="3.5"/><feComposite in2="hardAlpha" operator="arithmetic" k2="-1" k3="1"/><feColorMatrix values="0 0 0 0 0 0 0 0 0 0 0 0 0 0 0 0 0 0 0.25 0"/><feBlend in2="shape" result="effect1_innerShadow_279_11156"/></filter><filter id="b" x="60.422" y="120.899" width="214.905" height="165.156" filterUnits="userSpaceOnUse" color-interpolation-filters="sRGB"><feFlood flood-opacity="0" result="BackgroundImageFix"/><feBlend in="SourceGraphic" in2="BackgroundImageFix" result="shape"/><feColorMatrix in="SourceAlpha" values="0 0 0 0 0 0 0 0 0 0 0 0 0 0 0 0 0 0 127 0" result="hardAlpha"/><feOffset dx="4" dy="3"/><feGaussianBlur stdDeviation="3.5"/><feComposite in2="hardAlpha" operator="arithmetic" k2="-1" k3="1"/><feColorMatrix values="0 0 0 0 0 0 0 0 0 0 0 0 0 0 0 0 0 0 0.25 0"/><feBlend in2="shape" result="effect1_innerShadow_279_11156"/></filter></defs></svg>